<svg width="100%" height="107" viewBox="0 0 264 107" fill="none" xmlns="http://www.w3.org/2000/svg">
<circle cx="96" cy="53" r="28" fill="var(--dt-color-surface-moderate)"/>
<circle cx="168" cy="53" r="28" fill="var(--dt-color-surface-moderate)"/>
<path d="M99 62V45H111V47.9335H102.791V52.0215H110.536V54.79H102.791V59.0665H111V62H99Z" fill="var(--dt-color-foreground-primary)"/>
<path d="M81 62L87.2783 45H90.5984V48.2987H89.4626L84.9567 62H81ZM84.37 57.8766L85.2937 55.2141H93.6938L94.6175 57.8766H84.37ZM94.0308 62L89.5374 48.2987V45H91.7093L98 62H94.0308Z" fill="var(--dt-color-foreground-primary)"/>
<path fill-rule="evenodd" clip-rule="evenodd" d="M168.5 44.0755C166.689 44.0755 165.22 45.5932 165.22 47.4654C165.22 49.3376 166.689 50.8553 168.5 50.8553C170.311 50.8553 171.78 49.3376 171.78 47.4654C171.78 45.5932 170.311 44.0755 168.5 44.0755ZM163.213 47.4654C163.213 44.4469 165.58 42 168.5 42C171.42 42 173.787 44.4469 173.787 47.4654C173.787 50.4839 171.42 52.9308 168.5 52.9308C165.58 52.9308 163.213 50.4839 163.213 47.4654ZM161.549 56.8838C162.54 55.8588 163.885 55.283 165.287 55.283H171.713C173.115 55.283 174.46 55.8588 175.451 56.8838C176.443 57.9088 177 59.2989 177 60.7484V62.9623C177 63.5354 176.551 64 175.996 64C175.442 64 174.992 63.5354 174.992 62.9623V60.7484C174.992 59.8494 174.647 58.9871 174.032 58.3514C173.417 57.7156 172.582 57.3585 171.713 57.3585H165.287C164.418 57.3585 163.583 57.7156 162.968 58.3514C162.353 58.9871 162.008 59.8494 162.008 60.7484V62.9623C162.008 63.5354 161.558 64 161.004 64C160.449 64 160 63.5354 160 62.9623V60.7484C160 59.2989 160.557 57.9088 161.549 56.8838Z" fill="var(--dt-color-foreground-primary)"/>
</svg>
