<svg viewBox="0 0 264 107" fill="none" xmlns="http://www.w3.org/2000/svg">
<g clip-path="url(#clip0_487_778)">
<rect x="43.5" y="10.5" width="178" height="109" rx="8.5" stroke="var(--dt-color-border-bold)" stroke-opacity="0.5"/>
<circle cx="53" cy="22" r="4" fill="var(--dt-color-surface-moderate)"/>
<circle cx="65" cy="22" r="4" fill="var(--dt-color-surface-moderate)"/>
<circle cx="77" cy="22" r="4" fill="var(--dt-color-surface-moderate)"/>
<mask id="path-5-outside-1_487_778" maskUnits="userSpaceOnUse" x="44" y="32" width="177" height="42" fill="var(--dt-color-border-bold)">
<rect fill="var(--dt-color-surface-primary)" x="44" y="32" width="177" height="42"/>
<path d="M44 33H221V73H44V33Z"/>
</mask>
<path d="M44 33H221V73H44V33Z" fill="var(--dt-color-surface-primary)"/>
<path d="M44 32H221V34H44V32ZM221 74H44V72H221V74ZM44 73V33V73ZM221 33V73V33Z" fill="var(--dt-color-border-bold)" fill-opacity="0.5" mask="url(#path-5-outside-1_487_778)"/>
<path fill-rule="evenodd" clip-rule="evenodd" d="M196.293 48.2929C196.683 47.9024 197.317 47.9024 197.707 48.2929L201 51.5858L204.293 48.2929C204.683 47.9024 205.317 47.9024 205.707 48.2929C206.098 48.6834 206.098 49.3166 205.707 49.7071L202.414 53L205.707 56.2929C206.098 56.6834 206.098 57.3166 205.707 57.7071C205.317 58.0976 204.683 58.0976 204.293 57.7071L201 54.4142L197.707 57.7071C197.317 58.0976 196.683 58.0976 196.293 57.7071C195.902 57.3166 195.902 56.6834 196.293 56.2929L199.586 53L196.293 49.7071C195.902 49.3166 195.902 48.6834 196.293 48.2929Z" fill="var(--dt-color-foreground-placeholder)"/>
<rect x="90" y="49" width="64" height="8" rx="4" fill="var(--dt-color-foreground-placeholder)"/>
<path d="M44 33H78V73H44V33Z" fill="var(--dt-color-border-brand-subtle)"/>
<circle cx="61" cy="53" r="6" fill="var(--dt-color-border-brand-strong)"/>
</g>
<defs>
<clipPath id="clip0_487_778">
<rect width="264" height="107" fill="var(--dt-color-surface-primary)"/>
</clipPath>
</defs>
</svg>
