<svg width="100%" height="107" viewBox="0 0 264 107" fill="none" xmlns="http://www.w3.org/2000/svg">
<rect x="83" y="39" width="18" height="18" rx="3" fill="var(--dt-color-surface-primary)"/>
<rect x="82.625" y="38.625" width="18.75" height="18.75" rx="3.375" stroke="var(--dt-color-border-subtle)" stroke-width="0.75"/>
<rect x="109" y="42" width="72" height="12" rx="6" fill="var(--dt-color-foreground-placeholder)"/>
<rect x="109" y="68" width="72" height="12" rx="6" fill="var(--dt-color-foreground-placeholder)"/>
<rect x="83" y="23" width="40" height="8" rx="4" fill="var(--dt-color-surface-moderate)"/>
<rect x="82.625" y="64.625" width="18.75" height="18.75" rx="3.375" fill="var(--dt-action-color-foreground-base-default)" stroke="#7C52FF" stroke-width="0.75"/>
<path fill-rule="evenodd" clip-rule="evenodd" d="M97.6131 69.3757C97.9579 69.7143 97.9629 70.2683 97.6243 70.6131L90.7493 77.6131C90.5847 77.7806 90.3598 77.875 90.125 77.875C89.8902 77.875 89.6653 77.7806 89.5007 77.6131L86.3757 74.4313C86.0371 74.0865 86.0421 73.5325 86.3869 73.1939C86.7317 72.8553 87.2857 72.8603 87.6243 73.2051L90.125 75.7513L96.3757 69.3869C96.7143 69.0421 97.2683 69.0371 97.6131 69.3757Z" fill="var(--dt-action-color-foreground-base-primary-default)"/>
</svg>
