<svg xmlns="http://www.w3.org/2000/svg" width="100%" height="107" viewBox="0 0 264 107" fill="none" id="Vector">
<path d="M161.708 60.2249C161.233 60.2249 160.842 60.0718 160.536 59.7657C160.23 59.4533 160.077 59.0691 160.077 58.613C160.077 58.1507 160.23 57.7665 160.536 57.4603C160.842 57.1542 161.233 57.0011 161.708 57.0011C162.183 57.0011 162.573 57.1542 162.879 57.4603C163.185 57.7665 163.338 58.1507 163.338 58.613C163.338 59.0691 163.185 59.4533 162.879 59.7657C162.573 60.0718 162.183 60.2249 161.708 60.2249ZM161.708 53.4587C161.233 53.4587 160.842 53.3025 160.536 52.9901C160.23 52.6778 160.077 52.2935 160.077 51.8374C160.077 51.3814 160.23 51.0003 160.536 50.6941C160.842 50.3817 161.233 50.2256 161.708 50.2256C162.183 50.2256 162.573 50.3817 162.879 50.6941C163.185 51.0003 163.338 51.3814 163.338 51.8374C163.338 52.2935 163.185 52.6778 162.879 52.9901C162.573 53.3025 162.183 53.4587 161.708 53.4587Z" fill="var(--dt-color-link-primary)" id="Vector"/>
<path d="M152.908 60.2155C151.865 60.2155 150.968 60 150.218 59.5689C149.469 59.1378 148.891 58.5224 148.485 57.7227C148.079 56.923 147.875 55.9734 147.875 54.8738V54.8644C147.875 53.7711 148.075 52.8246 148.475 52.0249C148.881 51.2189 149.453 50.5973 150.19 50.16C150.927 49.7164 151.796 49.4946 152.796 49.4946C153.795 49.4946 154.66 49.7101 155.391 50.1412C156.122 50.5661 156.685 51.1658 157.078 51.9405C157.472 52.7152 157.669 53.6212 157.669 54.6583V55.5111H149.244V53.7961H156.357L155.073 55.408V54.3209C155.073 53.7086 154.979 53.1963 154.792 52.784C154.604 52.3716 154.342 52.0624 154.004 51.8562C153.673 51.65 153.286 51.5469 152.842 51.5469C152.405 51.5469 152.018 51.6531 151.68 51.8656C151.343 52.078 151.077 52.3935 150.884 52.8121C150.69 53.2244 150.593 53.7274 150.593 54.3209V55.4174C150.593 55.9984 150.687 56.4951 150.874 56.9074C151.068 57.3135 151.343 57.6259 151.699 57.8446C152.055 58.0632 152.477 58.1726 152.964 58.1726C153.364 58.1726 153.705 58.1132 153.986 57.9945C154.267 57.8758 154.492 57.7352 154.66 57.5728C154.835 57.4104 154.954 57.2604 155.017 57.123L155.045 57.0667H157.584L157.566 57.1698C157.484 57.4947 157.338 57.8352 157.125 58.1913C156.913 58.5474 156.619 58.8785 156.244 59.1847C155.876 59.4908 155.413 59.7407 154.857 59.9344C154.307 60.1218 153.658 60.2155 152.908 60.2155Z" fill="var(--dt-color-link-primary)" id="Vector"/>
<path d="M142.918 60V45.821H145.654V60H142.918Z" fill="var(--dt-color-link-primary)" id="Vector"/>
<path d="M137.426 60V49.7101H140.162V60H137.426ZM138.804 48.1638C138.385 48.1638 138.023 48.017 137.716 47.7234C137.417 47.4297 137.267 47.0736 137.267 46.655C137.267 46.2364 137.417 45.8803 137.716 45.5867C138.023 45.293 138.385 45.1462 138.804 45.1462C139.228 45.1462 139.588 45.293 139.881 45.5867C140.181 45.8803 140.331 46.2364 140.331 46.655C140.331 47.0736 140.181 47.4297 139.881 47.7234C139.588 48.017 139.228 48.1638 138.804 48.1638Z" fill="var(--dt-color-link-primary)" id="Vector"/>
<path d="M119.677 60V49.7101H122.413V51.3408H122.573C122.785 50.7597 123.141 50.3068 123.641 49.9819C124.147 49.657 124.74 49.4946 125.421 49.4946C125.89 49.4946 126.312 49.5727 126.687 49.7289C127.068 49.8788 127.393 50.0975 127.661 50.3849C127.93 50.666 128.133 51.0096 128.27 51.4157H128.43C128.586 51.0284 128.814 50.691 129.114 50.4036C129.42 50.1162 129.779 49.8944 130.192 49.7382C130.61 49.5758 131.06 49.4946 131.541 49.4946C132.222 49.4946 132.812 49.6352 133.312 49.9163C133.812 50.1974 134.196 50.5973 134.465 51.1158C134.74 51.6282 134.877 52.2373 134.877 52.9433V60H132.141V53.6274C132.141 53.0089 131.997 52.5434 131.71 52.2311C131.429 51.9187 131.004 51.7625 130.435 51.7625C130.073 51.7625 129.754 51.8468 129.479 52.0155C129.211 52.1779 129.001 52.4029 128.851 52.6903C128.708 52.9776 128.636 53.3088 128.636 53.6836V60H125.909V53.5056C125.909 52.9558 125.759 52.5278 125.459 52.2217C125.165 51.9155 124.75 51.7625 124.213 51.7625C123.863 51.7625 123.55 51.8499 123.275 52.0249C123.007 52.1998 122.794 52.4403 122.638 52.7465C122.488 53.0526 122.413 53.4025 122.413 53.7961V60H119.677Z" fill="var(--dt-color-link-primary)" id="Vector"/>
<path d="M111.936 60.3374C110.855 60.3374 109.918 60.1749 109.124 59.85C108.331 59.5252 107.706 59.0691 107.25 58.4818C106.8 57.8883 106.547 57.1886 106.491 56.3826L106.481 56.242H109.209L109.218 56.3357C109.262 56.6731 109.402 56.9699 109.64 57.226C109.883 57.4759 110.208 57.6727 110.614 57.8164C111.02 57.9601 111.483 58.032 112.001 58.032C112.514 58.032 112.96 57.957 113.341 57.8071C113.722 57.6571 114.019 57.451 114.232 57.1886C114.444 56.9199 114.55 56.6138 114.55 56.2701V56.2608C114.55 55.8172 114.369 55.4611 114.007 55.1924C113.651 54.9238 113.054 54.7051 112.217 54.5364L110.783 54.2459C109.39 53.9585 108.371 53.4899 107.728 52.8402C107.084 52.1842 106.763 51.3439 106.763 50.3193V50.3099C106.769 49.4727 106.991 48.7417 107.428 48.117C107.872 47.4922 108.481 47.008 109.255 46.6644C110.03 46.3145 110.917 46.1396 111.917 46.1396C112.973 46.1396 113.876 46.3114 114.625 46.655C115.381 46.9924 115.968 47.4578 116.387 48.0514C116.812 48.6386 117.056 49.3134 117.118 50.0756L117.127 50.1974H114.457L114.438 50.085C114.388 49.7601 114.254 49.4758 114.035 49.2322C113.816 48.9823 113.526 48.7886 113.163 48.6511C112.807 48.5074 112.392 48.4387 111.917 48.445C111.455 48.445 111.048 48.5137 110.699 48.6511C110.349 48.7886 110.077 48.9791 109.883 49.2228C109.69 49.4665 109.593 49.7601 109.593 50.1037V50.1131C109.593 50.5442 109.771 50.8972 110.127 51.1721C110.483 51.447 111.058 51.6656 111.851 51.8281L113.276 52.128C114.706 52.4153 115.747 52.8652 116.396 53.4774C117.052 54.0835 117.38 54.9113 117.38 55.9609V55.9703C117.38 56.8637 117.162 57.6384 116.724 58.2944C116.287 58.9441 115.659 59.4471 114.841 59.8032C114.029 60.1593 113.06 60.3374 111.936 60.3374Z" fill="var(--dt-color-link-primary)" id="Vector"/>
<path d="M102.292 60.2249C101.817 60.2249 101.427 60.0718 101.121 59.7657C100.815 59.4533 100.662 59.0691 100.662 58.613C100.662 58.1507 100.815 57.7665 101.121 57.4603C101.427 57.1542 101.817 57.0011 102.292 57.0011C102.767 57.0011 103.158 57.1542 103.464 57.4603C103.77 57.7665 103.923 58.1507 103.923 58.613C103.923 59.0691 103.77 59.4533 103.464 59.7657C103.158 60.0718 102.767 60.2249 102.292 60.2249ZM102.292 53.4587C101.817 53.4587 101.427 53.3025 101.121 52.9901C100.815 52.6778 100.662 52.2935 100.662 51.8374C100.662 51.3814 100.815 51.0003 101.121 50.6941C101.427 50.3817 101.817 50.2256 102.292 50.2256C102.767 50.2256 103.158 50.3817 103.464 50.6941C103.77 51.0003 103.923 51.3814 103.923 51.8374C103.923 52.2935 103.77 52.6778 103.464 52.9901C103.158 53.3025 102.767 53.4587 102.292 53.4587Z" fill="var(--dt-color-link-primary)" id="Vector"/>
</svg>