<svg width="100%" height="107" viewBox="0 0 264 107" fill="none" xmlns="http://www.w3.org/2000/svg">
<path d="M131.987 80C128.432 80 125.086 79.3204 121.95 77.9613C118.813 76.6189 116.046 74.748 113.648 72.3485C111.266 69.949 109.396 67.1804 108.038 64.0426C106.679 60.9048 106 57.5573 106 54C106 50.4427 106.679 47.0952 108.038 43.9574C109.396 40.8196 111.266 38.0594 113.648 35.6767C116.046 33.2772 118.805 31.3979 121.925 30.0387C125.061 28.6796 128.407 28 131.962 28C135.535 28 138.889 28.6796 142.025 30.0387C145.161 31.3979 147.929 33.2772 150.327 35.6767C152.725 38.0594 154.604 40.8196 155.962 43.9574C157.321 47.0952 158 50.4427 158 54C158 57.5573 157.321 60.9048 155.962 64.0426C154.604 67.1804 152.725 69.949 150.327 72.3485C147.929 74.748 145.161 76.6189 142.025 77.9613C138.889 79.3204 135.543 80 131.987 80ZM131.987 74.8654C134.889 74.8654 137.597 74.3285 140.113 73.2546C142.646 72.1807 144.86 70.6873 146.755 68.7744C148.667 66.8616 150.159 64.6467 151.233 62.1297C152.306 59.6128 152.843 56.9029 152.843 54C152.843 51.1139 152.306 48.4124 151.233 45.8955C150.159 43.3617 148.658 41.1384 146.73 39.2256C144.818 37.3127 142.604 35.8193 140.088 34.7454C137.572 33.6715 134.864 33.1346 131.962 33.1346C129.078 33.1346 126.369 33.6715 123.836 34.7454C121.321 35.8193 119.115 37.3127 117.22 39.2256C115.325 41.1384 113.841 43.3617 112.767 45.8955C111.694 48.4124 111.157 51.1139 111.157 54C111.157 56.9029 111.694 59.6128 112.767 62.1297C113.841 64.6467 115.325 66.8616 117.22 68.7744C119.132 70.6873 121.346 72.1807 123.862 73.2546C126.394 74.3285 129.103 74.8654 131.987 74.8654ZM131.962 66.3834C130.218 66.3834 128.675 66.0729 127.333 65.4521C126.008 64.8145 124.977 64.0845 124.239 63.2623C123.518 62.4401 123.157 61.7522 123.157 61.1985C123.157 60.8964 123.275 60.6867 123.509 60.5692C123.761 60.435 124.029 60.435 124.314 60.5692C125.237 61.0558 126.285 61.5257 127.459 61.9787C128.633 62.4318 130.134 62.6583 131.962 62.6583C133.79 62.6583 135.291 62.4318 136.465 61.9787C137.656 61.5257 138.704 61.0558 139.61 60.5692C139.895 60.435 140.164 60.435 140.415 60.5692C140.667 60.6867 140.792 60.8964 140.792 61.1985C140.792 61.7522 140.423 62.4401 139.686 63.2623C138.948 64.0845 137.916 64.8145 136.591 65.4521C135.266 66.0729 133.723 66.3834 131.962 66.3834ZM124.541 51.7348C123.753 51.7348 123.065 51.4159 122.478 50.7783C121.908 50.1407 121.623 49.3185 121.623 48.3117C121.623 47.3217 121.908 46.5079 122.478 45.8703C123.065 45.2159 123.753 44.8887 124.541 44.8887C125.329 44.8887 126.025 45.2159 126.629 45.8703C127.233 46.5079 127.535 47.3217 127.535 48.3117C127.535 49.3185 127.233 50.1407 126.629 50.7783C126.025 51.4159 125.329 51.7348 124.541 51.7348ZM139.384 51.7348C138.595 51.7348 137.908 51.4159 137.321 50.7783C136.751 50.1407 136.465 49.3185 136.465 48.3117C136.465 47.3217 136.751 46.5079 137.321 45.8703C137.908 45.2159 138.595 44.8887 139.384 44.8887C140.172 44.8887 140.868 45.2159 141.472 45.8703C142.075 46.5079 142.377 47.3217 142.377 48.3117C142.377 49.3185 142.075 50.1407 141.472 50.7783C140.868 51.4159 140.172 51.7348 139.384 51.7348Z" fill="var(--dt-color-foreground-tertiary)"/>
</svg>
