<svg width="100%" height="107" viewBox="0 0 264 107" fill="none" xmlns="http://www.w3.org/2000/svg">
<path d="M90.163 44.2486C91.7504 44.2486 93.0373 42.9617 93.0373 41.3743C93.0373 39.7869 91.7504 38.5 90.163 38.5C88.5755 38.5 87.2886 39.7869 87.2886 41.3743C87.2886 42.9617 88.5755 44.2486 90.163 44.2486Z" fill="var(--dt-color-foreground-placeholder)"/>
<path fill-rule="evenodd" clip-rule="evenodd" d="M71.7726 43.5818C71.1214 43.5818 70.0003 44.2022 69.4171 46.1061L69.4159 46.1099L63.8924 63.9185C63.5249 65.1034 62.2664 65.7661 61.0815 65.3986C59.8965 65.0311 59.2339 63.7726 59.6014 62.5876L65.1214 44.7904C65.1218 44.7891 65.1222 44.7877 65.1227 44.7864C66.0206 41.8592 68.3739 39.0892 71.7726 39.0892C75.1702 39.0892 77.5199 41.853 78.4195 44.7756C78.4192 44.7746 78.4198 44.7767 78.4195 44.7756L82.6725 58.4869C83.2563 60.3856 84.3762 61.0068 85.0269 61.0068C86.6229 61.0068 87.9164 59.7133 87.9164 58.1173V48.732C87.9164 47.4914 88.9221 46.4857 90.1627 46.4857C91.4033 46.4857 92.409 47.4914 92.409 48.732V58.1173C92.409 62.1945 89.1041 65.4994 85.0269 65.4994C81.6327 65.4994 79.2799 62.7364 78.38 59.8128C78.3797 59.8118 78.3803 59.8138 78.38 59.8128L74.127 46.1017C73.543 44.2021 72.4254 43.5818 71.7726 43.5818Z" fill="var(--dt-color-foreground-placeholder)"/>
<path fill-rule="evenodd" clip-rule="evenodd" d="M141 38.5C141.828 38.5 142.5 39.1716 142.5 40V41.5L144 41.5C144.828 41.5 145.5 42.1716 145.5 43C145.5 43.8284 144.828 44.5 144 44.5H142.5V46C142.5 46.8284 141.828 47.5 141 47.5C140.172 47.5 139.5 46.8284 139.5 46V44.5H138C137.172 44.5 136.5 43.8284 136.5 43C136.5 42.1716 137.172 41.5 138 41.5H139.5V40C139.5 39.1716 140.172 38.5 141 38.5ZM129 41.5C129.588 41.5 130.122 41.8438 130.366 42.3793L133.414 49.086L140.121 52.1344C140.656 52.3779 141 52.9118 141 53.5C141 54.0882 140.656 54.6221 140.121 54.8656L133.414 57.914L130.366 64.6207C130.122 65.1562 129.588 65.5 129 65.5C128.412 65.5 127.878 65.1562 127.634 64.6207L124.586 57.914L117.879 54.8656C117.344 54.6221 117 54.0882 117 53.5C117 52.9118 117.344 52.3779 117.879 52.1344L124.586 49.086L127.634 42.3793C127.878 41.8438 128.412 41.5 129 41.5ZM129 46.6249L127.084 50.8395C126.934 51.1696 126.67 51.4342 126.339 51.5843L122.125 53.5L126.339 55.4157C126.67 55.5658 126.934 55.8304 127.084 56.1605L129 60.3751L130.916 56.1605C131.066 55.8304 131.33 55.5658 131.661 55.4157L135.875 53.5L131.661 51.5843C131.33 51.4342 131.066 51.1696 130.916 50.8395L129 46.6249ZM142.5 59.5C143.328 59.5 144 60.1716 144 61V62.5H145.5C146.328 62.5 147 63.1716 147 64C147 64.8284 146.328 65.5 145.5 65.5H144V67C144 67.8284 143.328 68.5 142.5 68.5C141.672 68.5 141 67.8284 141 67V65.5H139.5C138.672 65.5 138 64.8284 138 64C138 63.1716 138.672 62.5 139.5 62.5H141V61C141 60.1716 141.672 59.5 142.5 59.5Z" fill="var(--dt-color-foreground-tertiary)"/>
<path fill-rule="evenodd" clip-rule="evenodd" d="M174.835 50.5H177.5C178.693 50.5 179.838 50.9741 180.682 51.818C181.526 52.6619 182 53.8065 182 55V56.5C182 56.8978 182.158 57.2794 182.439 57.5607C182.721 57.842 183.102 58 183.5 58C184.693 58 185.838 58.4741 186.682 59.318C187.526 60.1619 188 61.3065 188 62.5V67C189.031 67 190.035 66.8844 191 66.6655V61C191 59.8065 191.474 58.6619 192.318 57.818C193.162 56.9741 194.307 56.5 195.5 56.5H201.165C201.384 55.5352 201.5 54.5311 201.5 53.5C201.5 51.9221 201.229 50.4075 200.732 49H197C196.602 49 196.221 49.158 195.939 49.4393C195.658 49.7206 195.5 50.1022 195.5 50.5C195.5 51.6935 195.026 52.8381 194.182 53.682C193.338 54.5259 192.193 55 191 55C189.807 55 188.662 54.5259 187.818 53.682C186.974 52.8381 186.5 51.6935 186.5 50.5C186.5 50.1022 186.342 49.7206 186.061 49.4393C185.787 49.1657 185.418 49.0087 185.032 49.0003C183.752 49.0617 182.485 48.7112 181.417 47.9995C180.335 47.2781 179.516 46.2245 179.085 44.9976C179.029 44.8377 179 44.6695 179 44.5V43.4375C176.95 45.272 175.465 47.7235 174.835 50.5ZM181.997 41.4048C181.999 41.4363 182 41.468 182 41.5V44.2172C182.23 44.7387 182.604 45.1855 183.081 45.5034C183.622 45.8641 184.266 46.0392 184.915 46.0024C184.943 46.0008 184.972 46 185 46C186.193 46 187.338 46.4741 188.182 47.318C189.026 48.1619 189.5 49.3065 189.5 50.5C189.5 50.8978 189.658 51.2794 189.939 51.5607C190.221 51.842 190.602 52 191 52C191.398 52 191.779 51.842 192.061 51.5607C192.342 51.2794 192.5 50.8978 192.5 50.5C192.5 49.3065 192.974 48.1619 193.818 47.318C194.662 46.4741 195.807 46 197 46H199.227C196.805 42.382 192.681 40 188 40C185.844 40 183.805 40.5056 181.997 41.4048ZM200.097 59.5H195.5C195.102 59.5 194.721 59.658 194.439 59.9393C194.158 60.2206 194 60.6022 194 61V65.5967C196.638 64.2859 198.786 62.1377 200.097 59.5ZM186.845 69.9602C187.226 69.9866 187.612 70 188 70C197.113 70 204.5 62.6127 204.5 53.5C204.5 44.3873 197.113 37 188 37C178.887 37 171.5 44.3873 171.5 53.5C171.5 61.8931 177.767 68.8226 185.876 69.8646C186.066 69.9515 186.277 70 186.5 70C186.619 70 186.734 69.9862 186.845 69.9602ZM185 66.6655C178.988 65.3013 174.5 59.9248 174.5 53.5H177.5C177.898 53.5 178.279 53.658 178.561 53.9393C178.842 54.2206 179 54.6022 179 55V56.5C179 57.6935 179.474 58.8381 180.318 59.682C181.162 60.5259 182.307 61 183.5 61C183.898 61 184.279 61.158 184.561 61.4393C184.842 61.7206 185 62.1022 185 62.5V66.6655Z" fill="var(--dt-color-foreground-placeholder)"/>
</svg>
