<svg width="100%" height="107" viewBox="0 0 264 107" fill="none" xmlns="http://www.w3.org/2000/svg">
<rect x="99" y="35" width="96" height="16" rx="8" fill="var(--dt-color-foreground-placeholder)"/>
<rect x="99" y="59" width="54" height="12" rx="6" fill="var(--dt-color-surface-moderate)"/>
<path fill-rule="evenodd" clip-rule="evenodd" d="M83.4 34C83.8971 34 84.3 34.4029 84.3 34.9V35.8L85.2 35.8C85.6971 35.8 86.1 36.2029 86.1 36.7C86.1 37.1971 85.6971 37.6 85.2 37.6H84.3V38.5C84.3 38.9971 83.8971 39.4 83.4 39.4C82.9029 39.4 82.5 38.9971 82.5 38.5V37.6H81.6C81.1029 37.6 80.7 37.1971 80.7 36.7C80.7 36.2029 81.1029 35.8 81.6 35.8H82.5V34.9C82.5 34.4029 82.9029 34 83.4 34ZM76.2 35.8C76.5529 35.8 76.8733 36.0063 77.0193 36.3276L78.8484 40.3516L82.8724 42.1807C83.1937 42.3267 83.4 42.6471 83.4 43C83.4 43.3529 83.1937 43.6733 82.8724 43.8193L78.8484 45.6484L77.0193 49.6724C76.8733 49.9937 76.5529 50.2 76.2 50.2C75.8471 50.2 75.5267 49.9937 75.3807 49.6724L73.5516 45.6484L69.5276 43.8193C69.2063 43.6733 69 43.3529 69 43C69 42.6471 69.2063 42.3267 69.5276 42.1807L73.5516 40.3516L75.3807 36.3276C75.5267 36.0063 75.8471 35.8 76.2 35.8ZM76.2 38.8749L75.0506 41.4037C74.9605 41.6018 74.8018 41.7605 74.6037 41.8506L72.0749 43L74.6037 44.1494C74.8018 44.2395 74.9605 44.3982 75.0506 44.5963L76.2 47.1251L77.3494 44.5963C77.4395 44.3982 77.5982 44.2395 77.7963 44.1494L80.3251 43L77.7963 41.8506C77.5982 41.7605 77.4395 41.6018 77.3494 41.4037L76.2 38.8749ZM84.3 46.6C84.7971 46.6 85.2 47.0029 85.2 47.5V48.4H86.1C86.5971 48.4 87 48.8029 87 49.3C87 49.7971 86.5971 50.2 86.1 50.2H85.2V51.1C85.2 51.5971 84.7971 52 84.3 52C83.8029 52 83.4 51.5971 83.4 51.1V50.2H82.5C82.0029 50.2 81.6 49.7971 81.6 49.3C81.6 48.8029 82.0029 48.4 82.5 48.4H83.4V47.5C83.4 47.0029 83.8029 46.6 84.3 46.6Z" fill="var(--dt-color-foreground-tertiary)"/>
</svg>
