<svg xmlns="http://www.w3.org/2000/svg" width="100%" height="107" viewBox="0 0 264 107" fill="none" id="button-bg">
<g clip-path="url(#clip0_526_15499)" id="button-bg">
<g filter="url(#filter0_d_526_15499)" id="button-bg">
<rect x="44" y="19" width="176" height="70" rx="8" fill="var(--dt-color-surface-primary)" shape-rendering="crispEdges" id="button-bg"/>
<rect x="43.5" y="18.5" width="177" height="71" rx="8.5" stroke="var(--dt-color-border-bold)" stroke-opacity="0.5" shape-rendering="crispEdges" id="button-bg"/>
</g>
<path fill-rule="evenodd" clip-rule="evenodd" d="M200.234 31.2343C200.547 30.9219 201.053 30.9219 201.366 31.2343L204 33.8686L206.634 31.2343C206.947 30.9219 207.453 30.9219 207.766 31.2343C208.078 31.5467 208.078 32.0533 207.766 32.3657L205.131 35L207.766 37.6343C208.078 37.9467 208.078 38.4533 207.766 38.7657C207.453 39.0781 206.947 39.0781 206.634 38.7657L204 36.1314L201.366 38.7657C201.053 39.0781 200.547 39.0781 200.234 38.7657C199.922 38.4533 199.922 37.9467 200.234 37.6343L202.869 35L200.234 32.3657C199.922 32.0533 199.922 31.5467 200.234 31.2343Z" fill="var(--dt-color-foreground-placeholder)" id="button-bg"/>
<rect x="151" y="68" width="15" height="6" rx="3" fill="var(--dt-color-surface-moderate)" id="closeicon"/>
<rect x="172" y="65" width="36" height="12" rx="4" fill="var(--dt-action-color-background-base-primary-default)" id="otherbutton"/>
<rect x="56" y="31" width="64" height="8" rx="4" fill="var(--dt-color-foreground-placeholder)" id="button"/>
<rect x="56" y="44" width="93" height="6" rx="3" fill="var(--dt-color-surface-moderate)" id="title"/>
<rect x="56" y="55" width="62" height="6" rx="3" fill="var(--dt-color-surface-moderate)" id="description"/>
</g>
<defs>
<filter id="filter0_d_526_15499" x="27" y="8" width="210" height="104" filterUnits="userSpaceOnUse" color-interpolation-filters="sRGB">
<feFlood flood-opacity="0" result="BackgroundImageFix" id="button-bg"/>
<feColorMatrix in="SourceAlpha" type="matrix" values="0 0 0 0 0 0 0 0 0 0 0 0 0 0 0 0 0 0 127 0" result="hardAlpha" id="button-bg"/>
<feOffset dy="6" id="closeicon"/>
<feGaussianBlur stdDeviation="8" id="otherbutton"/>
<feComposite in2="hardAlpha" operator="out" id="button"/>
<feColorMatrix type="matrix" values="0 0 0 0 0 0 0 0 0 0 0 0 0 0 0 0 0 0 0.1 0" id="title"/>
<feBlend mode="normal" in2="BackgroundImageFix" result="effect1_dropShadow_526_15499" id="description"/>
<feBlend mode="normal" in="SourceGraphic" in2="effect1_dropShadow_526_15499" result="shape" id="description2"/>
</filter>
<clipPath id="button-bg">
<rect width="264" height="107" fill="var(--dt-color-surface-primary)" id="button-bg"/>
</clipPath>
</defs>
</svg>
