<svg width="100%" height="107" viewBox="0 0 264 107" fill="none" xmlns="http://www.w3.org/2000/svg">
<path d="M132.065 51.6598C132.972 45.1333 138.625 40.1061 145.467 40.1061C152.94 40.1061 159 46.1031 159 53.5004C159 60.8977 152.94 66.8933 145.467 66.8933C143.657 66.8955 141.866 66.5378 140.2 65.8413L132.285 73.9367C132.257 73.9661 132.221 73.9865 132.181 73.9953C132.141 74.004 132.1 74.0006 132.062 73.9855C132.024 73.9705 131.991 73.9445 131.969 73.9109C131.946 73.8773 131.934 73.8377 131.935 73.7973V55.341C131.028 61.8661 125.376 66.8933 118.533 66.8933C111.06 66.8933 105 60.8977 105 53.5004C105 46.1017 111.06 40.1061 118.533 40.1061C120.402 40.1061 122.181 40.4823 123.8 41.1581L131.715 33.0627C131.743 33.0335 131.779 33.0132 131.819 33.0046C131.859 32.996 131.901 32.9995 131.939 33.0145C131.976 33.0294 132.009 33.0553 132.032 33.0888C132.055 33.1222 132.067 33.1617 132.067 33.202L132.065 51.6598Z" fill="black" fill-opacity="0.1"/>
</svg>
