<svg width="96" height="96" viewBox="0 0 96 96" fill="none" xmlns="http://www.w3.org/2000/svg">
    <path
        d="M48 96C74.5097 96 96 74.5097 96 48C96 21.4903 74.5097 0 48 0C21.4903 0 0 21.4903 0 48C0 74.5097 21.4903 96 48 96Z"
        fill="url(#paint0_linear_3:150)" />
    <path d="M12 33H80V74.0629C80 75.1327 79.1327 76 78.0629 76H13.9371C12.8673 76 12 75.1327 12 74.0629V33Z"
        fill="white" />
    <path d="M80 31H12V25.9371C12 24.8673 12.8673 24 13.9371 24H78.0629C79.1327 24 80 24.8673 80 25.9371V31Z"
        fill="#6C3DFF" />
    <path opacity="0.75"
        d="M80 31H12V25.9371C12 24.8673 12.8673 24 13.9371 24H78.0629C79.1327 24 80 24.8673 80 25.9371V31Z"
        fill="white" />
    <path
        d="M16.238 28.9371C16.7729 28.9371 17.2066 28.5035 17.2066 27.9686C17.2066 27.4336 16.7729 27 16.238 27C15.7031 27 15.2694 27.4336 15.2694 27.9686C15.2694 28.5035 15.7031 28.9371 16.238 28.9371Z"
        fill="white" />
    <path
        d="M19.3385 28.9371C19.8734 28.9371 20.307 28.5035 20.307 27.9686C20.307 27.4336 19.8734 27 19.3385 27C18.8036 27 18.3699 27.4336 18.3699 27.9686C18.3699 28.5035 18.8036 28.9371 19.3385 28.9371Z"
        fill="white" />
    <path
        d="M22.4378 28.9371C22.9727 28.9371 23.4064 28.5035 23.4064 27.9686C23.4064 27.4336 22.9727 27 22.4378 27C21.9029 27 21.4692 27.4336 21.4692 27.9686C21.4692 28.5035 21.9029 28.9371 22.4378 28.9371Z"
        fill="white" />
    <path d="M44 39H17V41H44V39Z" fill="#EAE9EF" />
    <path d="M44 51H17V53H44V51Z" fill="#EAE9EF" />
    <path d="M44 62H17V64H44V62Z" fill="#EAE9EF" />
    <path d="M69 43H17V47H69V43Z" fill="#EAE9EF" />
    <path d="M69 55H17V59H69V55Z" fill="#EAE9EF" />
    <path d="M69 66H17V70H69V66Z" fill="#EAE9EF" />
    <path
        d="M48 74C48 69.5817 51.5817 66 56 66H88C92.418 66 96 69.5817 96 74C96 78.4183 92.418 82 88 82H56C51.5817 82 48 78.4183 48 74Z"
        fill="#6C3DFF" />
    <path opacity="0.3"
        d="M48 74C48 69.5817 51.5817 66 56 66H88C92.418 66 96 69.5817 96 74C96 78.4183 92.418 82 88 82H56C51.5817 82 48 78.4183 48 74Z"
        fill="white" />
    <path d="M56.72 70.76V74.28" stroke="white" stroke-width="0.88" />
    <path d="M59.8 74.5H56.28" stroke="white" stroke-width="0.88" />
    <path
        d="M51.44 74.28C51.44 77.1961 53.804 79.56 56.72 79.56C59.6361 79.56 62 77.1961 62 74.28C62 71.3639 59.6361 69 56.72 69C54.5555 69 52.6951 70.3025 51.88 72.1665L51.66 72.52"
        stroke="white" stroke-width="0.88" />
    <path d="M51 71.2448L51.4848 72.9367L53.1767 72.4519" stroke="white" stroke-width="0.88" />
    <path opacity="0.5" d="M66 71H78" stroke="white" stroke-width="1.5541" />
    <path opacity="0.5" d="M66 76H90" stroke="white" stroke-width="3.55" />
    <path
        d="M65.4725 40H80.7912C82.7818 40 84.3956 41.745 84.3956 43.8974V59M84.3956 59L80.7912 55.1026M84.3956 59L88 55.1026"
        stroke="#6C3DFF" stroke-width="1.2" />
    <path d="M64.1209 40H47" stroke-dasharray="4 1" />
    <g opacity="0.4">
        <path
            d="M65.4725 40H80.7912C82.7818 40 84.3956 41.745 84.3956 43.8974V59M84.3956 59L80.7912 55.1026M84.3956 59L88 55.1026"
            stroke="#0D0C0F" stroke-width="1.2" />
        <path d="M64.1209 40H47" stroke="#0D0C0F" stroke-dasharray="4 1" />
    </g>
    <defs>
        <linearGradient id="paint0_linear_3:150" x1="82" y1="87" x2="6.5" y2="7.5" gradientUnits="userSpaceOnUse">
            <stop stop-color="#EAE9EF" />
            <stop offset="1" stop-color="#EAE9EF" stop-opacity="0" />
        </linearGradient>
    </defs>
</svg>
