<svg width="314" height="230" viewBox="0 0 314 230" fill="none" xmlns="http://www.w3.org/2000/svg">
<g clip-path="url(#clip0_37_9771)">
<path d="M116.259 204.288C116.259 204.288 118.275 209.846 126.16 213.407C136.794 218.223 152.203 222.185 153.006 229.819L96.7771 226.358L104.542 196.102L116.259 204.288Z" fill="black"/>
<path d="M99.1547 204.78L121.797 121.455L153.106 128.247L128.528 209.194L99.1547 204.78Z" fill="#3A1D95"/>
<path d="M86.9159 18.6793C88.6614 23.3542 92.8848 26.9255 98.1817 27.5876C105.766 28.5306 112.688 23.1535 113.631 15.5594C114.112 11.6671 112.938 7.9553 110.651 5.13635C102.315 12.4295 93.7476 16.4523 86.9159 18.6793Z" fill="#AB7EFF"/>
<path d="M86.1535 12.1285C85.8726 14.4157 86.1535 16.6528 86.9159 18.6692C93.7476 16.4522 102.305 12.4194 110.651 5.12625C108.474 2.44775 105.304 0.56176 101.603 0.100296C94.0185 -0.842697 87.1065 4.5444 86.1535 12.1285Z" fill="#000061"/>
<path d="M145.732 206.044C145.732 206.044 150.177 211.251 158.312 214.2C169.297 218.172 184.957 220.921 186.351 228.475L134.226 229.328L132.28 204.359L145.732 206.044Z" fill="black"/>
<path d="M126.311 133.323L74.8175 132.099L59.7296 62.2977L60.7027 62.087L75.6301 131.116L126.341 132.32L126.311 133.323Z" fill="#FF97D2"/>
<path d="M82.9198 131.733L70.2495 229.288L71.2444 229.418L83.9147 131.862L82.9198 131.733Z" fill="#FF97D2"/>
<path d="M119.152 132.309L118.157 132.439L130.847 229.985L131.842 229.855L119.152 132.309Z" fill="#FF97D2"/>
<path d="M180.744 83.4448L179.971 81.5889L218.373 65.6383C219.998 64.9662 221.824 65.1467 223.279 66.1198C224.733 67.0929 225.606 68.7181 225.606 70.4736V81.6291H223.6V70.4736C223.6 69.3802 223.078 68.3971 222.165 67.7951C221.252 67.1832 220.149 67.0829 219.136 67.4942L180.744 83.4448Z" fill="#D2D2D2"/>
<path d="M178.326 81.1375L177.543 79.2816L218.393 61.9566L225.476 22.1302L227.452 22.4814L220.179 63.3812L178.326 81.1375Z" fill="#3A1D95"/>
<path d="M131.882 84.0387L264.744 84.0387L264.744 80.0962L131.882 80.0962L131.882 84.0387Z" fill="#3A1D95"/>
<path d="M255.651 165.525V170.29C255.651 171.845 254.387 173.109 252.832 173.109H226.198C222.316 173.109 219.055 170.321 218.313 166.649C221.182 164.452 221.995 161.814 222.235 159.918C223.64 159.025 225.315 158.212 227.081 157.51C231.916 155.574 237.474 154.36 240.423 154.36H244.496C250.625 154.37 255.651 159.396 255.651 165.525Z" fill="#FF97D2"/>
<path d="M236.902 173.119V228.816H275.845C285.245 228.816 291.846 219.567 288.817 210.679C283.901 196.253 276.849 178.797 255.651 167.1" fill="#FF97D2"/>
<path d="M236.902 224.964C236.902 224.964 231.344 228.806 236.902 228.806V224.964Z" fill="#FF97D2"/>
<path d="M244.616 175.808C243.984 175.808 243.443 175.557 243.001 175.046C240.172 171.845 242.149 159.115 242.229 158.573L242.72 158.653C242.7 158.784 240.704 171.685 243.372 174.714C243.734 175.126 244.165 175.326 244.677 175.306C245.218 175.286 245.68 175.056 246.081 174.584C248.84 171.384 247.475 159.185 247.465 159.065L247.967 159.005C248.027 159.516 249.371 171.544 246.462 174.915C245.971 175.487 245.379 175.788 244.697 175.808C244.666 175.808 244.646 175.808 244.616 175.808Z" fill="#3A1D95"/>
<path d="M239.55 228.856L239.059 228.766C239.52 226.128 242.319 225.024 243.051 224.773L244.656 197.928L245.158 197.958L243.533 225.155L243.362 225.205C243.322 225.215 240.012 226.188 239.55 228.856Z" fill="#3A1D95"/>
<path d="M253.655 228.876L253.174 228.736C254.016 225.867 256.926 223.891 261.59 223.018C264.329 222.506 266.937 222.506 267.94 222.526C267.198 221.001 264.66 215.133 265.302 207.428C265.683 202.904 267.088 200.075 269.495 199.012C273.829 197.106 279.728 201.65 279.969 201.841L279.658 202.232C279.597 202.182 273.749 197.687 269.686 199.463C267.459 200.436 266.155 203.125 265.794 207.458C265.061 216.246 268.542 222.597 268.572 222.667L268.793 223.068L268.332 223.038C268.221 223.038 255.571 222.376 253.655 228.876Z" fill="#3A1D95"/>
<path d="M252.471 228.876L251.99 228.746L256.755 211.371L257.236 211.501L252.471 228.876Z" fill="#3A1D95"/>
<path d="M287.282 212.123C287.282 212.123 300.102 210.839 311.96 199.172C312.512 198.63 313.415 199.252 313.094 199.965C310.385 206.064 302.911 214.34 287.372 216.357L287.282 212.123Z" fill="#FF97D2"/>
<path d="M222.235 159.928C221.995 161.834 221.182 164.472 218.313 166.659C218.213 166.147 218.152 165.616 218.152 165.084C218.152 163.218 219.798 161.452 222.235 159.928Z" fill="#3A1D95"/>
<path d="M157.58 109.989L161.763 211.371L128.538 210.899L127.043 158.553L126.291 132.169L91.5806 131.818C89.3235 131.828 85.4512 130.875 83.485 129.772C72.9315 123.843 75.1886 107.652 76.1517 102.164L77.6364 97.7302L109.347 97.2487L152.474 104.652C155.283 104.893 157.47 107.18 157.58 109.989Z" fill="#3A1D95"/>
<path d="M128.287 210.909L126.04 132.179L126.542 132.159L128.789 210.889L128.287 210.909Z" fill="white"/>
<path d="M115.717 98.3421C115.717 98.3421 118.035 63.6018 109.457 45.0831C106.247 38.1511 101.231 34.3189 96.7471 33.396C70.4637 27.9988 75.3492 95.7238 75.3492 95.7238L115.717 98.3421Z" fill="#FF97D2"/>
<path d="M139.874 71.808L109.658 49.0758C107.782 52.3963 110.34 60.4318 108.133 63.0502L130.665 76.5831L139.874 71.808Z" fill="#AB7EFF"/>
<path d="M105.826 39.3047L124.184 56.2384C124.184 56.2384 123.943 64.6451 116.72 70.6542L104.191 67.0628L105.826 39.3047Z" fill="#FF97D2"/>
<path d="M114.503 67.7551C114.503 67.6547 114.002 57.342 110.34 48.4538L110.802 48.2632C114.493 57.2316 114.995 67.6347 115.005 67.735L114.503 67.7551Z" fill="white"/>
<path d="M110.16 58.275C102.696 54.6635 97.0179 46.6682 95.4429 43.3577L95.8943 43.137C97.4492 46.3973 103.037 54.2723 110.38 57.8236L110.16 58.275Z" fill="white"/>
<path d="M158.453 71.7377L156.657 80.0842C156.657 80.0842 147.378 80.1042 140.466 80.0842C132.3 80.0641 126.07 79.9236 122.569 78.7198C118.285 77.2451 110.942 73.4732 105.545 70.574C108.625 66.9525 110.561 63.5617 111.715 61.0939L128.357 70.4135L158.453 71.7377Z" fill="#AB7EFF"/>
<path d="M137.276 70.7144L128.287 70.6642L128.237 70.6341L121.215 66.7016L121.455 66.2603L128.428 70.1626L137.276 70.2128V70.7144Z" fill="white"/>
<path d="M158.453 71.7377C171.404 72.1389 173.34 80.0842 173.34 80.0842H156.657" fill="#AB7EFF"/>
<path d="M296.591 228.806H0V229.809H296.591V228.806Z" fill="#555555"/>
<path d="M255.581 64.1536H240.714V80.2145H255.581V64.1536Z" fill="#D2D2D2"/>
<path d="M256.243 77.2753C253.244 77.2753 250.796 74.8275 250.796 71.828C250.796 68.8285 253.244 66.3807 256.243 66.3807C259.243 66.3807 261.691 68.8285 261.691 71.828C261.691 74.8275 259.243 77.2753 256.243 77.2753ZM256.243 67.6949C253.956 67.6949 252.1 69.5508 252.1 71.8381C252.1 74.1153 253.956 75.9712 256.243 75.9712C258.521 75.9712 260.376 74.1153 260.376 71.8381C260.376 69.5508 258.521 67.6949 256.243 67.6949Z" fill="#D2D2D2"/>
<path d="M238.597 39.5957C238.667 39.5255 238.597 39.5054 238.597 39.4854C238.487 39.6258 238.617 39.6057 238.597 39.5957Z" fill="#EEEEEE"/>
<path d="M238.126 41.1206L238.096 41.0905L238.166 41.3212L238.126 41.1206Z" fill="#EEEEEE"/>
<path d="M238.387 42.5049C238.437 42.3444 238.186 42.0334 238.186 41.7725L238.206 41.7224L238.096 41.6221C238.146 41.9431 238.326 42.2942 238.387 42.5049Z" fill="#EEEEEE"/>
<path d="M238.577 43.3075C238.587 43.2373 238.718 43.4279 238.477 43.147C238.477 43.167 238.487 43.167 238.487 43.1871C238.507 43.2072 238.527 43.2373 238.577 43.3075Z" fill="#EEEEEE"/>
<path d="M238.487 43.1771C238.387 43.0467 238.507 43.2874 238.487 43.1771V43.1771Z" fill="#EEEEEE"/>
<path d="M238.999 43.7087C238.938 43.6686 238.878 43.6385 238.818 43.5984C238.828 43.6586 238.968 43.779 238.898 43.7489C239.079 43.8793 239.059 43.8291 238.999 43.7087Z" fill="#EEEEEE"/>
<path d="M239.199 43.7789L239.109 43.7188C239.119 43.7388 239.139 43.7589 239.199 43.7789Z" fill="#D2D2D2"/>
<path d="M238.918 43.5984L239.109 43.7188C239.099 43.6887 239.119 43.6586 239.029 43.6586C239.059 43.6486 239.009 43.6385 238.918 43.5984Z" fill="#EEEEEE"/>
<path d="M238.838 43.488C238.778 43.3877 238.688 43.2673 238.858 43.3877C238.597 43.1068 238.557 43.1971 238.838 43.488Z" fill="#EEEEEE"/>
<path d="M238.527 42.5149L238.507 42.3745L238.427 42.2742C238.457 42.3243 238.497 42.535 238.527 42.5149Z" fill="#EEEEEE"/>
<path d="M240.022 44.4611C240.042 44.441 239.992 44.3708 239.992 44.3307L239.851 44.2905C239.901 44.3407 240.022 44.4209 240.022 44.4611Z" fill="#D2D2D2"/>
<path d="M239.992 44.3307C240.062 44.3508 240.132 44.3708 240.202 44.3809C240.032 44.3106 239.992 44.3006 239.992 44.3307Z" fill="#D2D2D2"/>
<path d="M239.31 43.6886L238.979 43.5181C239.109 43.5883 239.229 43.6685 239.36 43.7287L239.31 43.6886Z" fill="#D2D2D2"/>
<path d="M240.804 44.7621L240.664 44.7821L240.905 44.7621H240.804Z" fill="#D2D2D2"/>
<path d="M241.326 44.9025C241.226 44.9326 241.426 45.0028 241.326 45.0128C241.476 45.0329 241.607 45.0229 241.717 45.0028C241.607 45.0128 241.476 44.9727 241.326 44.9025Z" fill="#D2D2D2"/>
<path d="M241.918 44.9928C241.858 44.9928 241.798 45.0028 241.727 45.0129C241.787 45.0129 241.858 45.0028 241.918 44.9928Z" fill="#D2D2D2"/>
<path d="M240.543 44.5414C240.553 44.5614 240.574 44.6116 240.684 44.6718L240.624 44.5815C240.594 44.5614 240.564 44.5514 240.543 44.5414Z" fill="#D2D2D2"/>
<path d="M240.614 44.5614C240.704 44.5915 240.764 44.6216 240.784 44.6216C240.764 44.6216 240.714 44.6015 240.614 44.5614Z" fill="#D2D2D2"/>
<path d="M240.523 44.5314L240.543 44.5414C240.533 44.5314 240.533 44.5214 240.523 44.5314Z" fill="#D2D2D2"/>
<path d="M239.731 44.0598C239.861 44.0999 240.112 44.1702 239.912 43.9996C239.821 44.0097 239.932 44.11 239.731 44.0598Z" fill="#D2D2D2"/>
<path d="M240.453 44.411C240.383 44.3809 240.323 44.3408 240.253 44.3107C240.253 44.3307 240.273 44.3709 240.212 44.3608C240.293 44.3809 240.373 44.401 240.453 44.411Z" fill="#D2D2D2"/>
<path d="M240.563 44.4311L240.453 44.411L240.533 44.4411L240.563 44.4311Z" fill="#D2D2D2"/>
<path d="M241.557 44.8523C241.657 44.8423 241.757 44.8624 241.878 44.8724C241.737 44.8323 241.617 44.8022 241.507 44.7821C241.486 44.8022 241.426 44.8222 241.557 44.8523Z" fill="#D2D2D2"/>
<path d="M241.095 44.722H241.115C241.105 44.712 241.105 44.712 241.095 44.722Z" fill="#D2D2D2"/>
<path d="M243.021 45.0228L243.001 45.0028L242.991 45.0128L243.021 45.0228Z" fill="#D2D2D2"/>
<path d="M241.486 44.762C241.396 44.7319 241.336 44.7319 241.276 44.742C241.356 44.752 241.426 44.7721 241.496 44.7821C241.517 44.7721 241.517 44.762 241.486 44.762Z" fill="#D2D2D2"/>
<path d="M242.249 45.0028C242.189 44.9828 242.139 44.9627 242.088 44.9426C242.139 44.9727 242.229 45.0229 242.249 45.0028Z" fill="#D2D2D2"/>
<path d="M241.145 44.7521C241.135 44.7521 241.135 44.7521 241.135 44.7521C241.155 44.7721 241.155 44.7621 241.145 44.7521Z" fill="#D2D2D2"/>
<path d="M241.145 44.752C241.195 44.752 241.236 44.752 241.276 44.742C241.216 44.732 241.165 44.7219 241.115 44.7219C241.135 44.732 241.145 44.742 241.145 44.752Z" fill="#D2D2D2"/>
<path d="M243.392 44.5916C243.372 44.6517 243.132 44.7019 242.931 44.6116C242.72 44.6417 242.831 44.8724 243.001 45.0029C243.011 44.9728 243.011 44.9527 243.232 44.9326C243.162 44.8925 242.771 44.8123 242.951 44.7621C243.232 44.7521 243.182 44.8022 243.312 44.8524C243.202 44.7621 243.673 44.7621 243.623 44.6317L243.372 44.6517C243.372 44.6417 243.463 44.6216 243.392 44.5916Z" fill="#D2D2D2"/>
<path d="M242.59 44.9526H242.5C242.6 44.9727 242.67 45.0128 242.791 45.073C242.941 45.053 242.971 45.0329 242.981 45.0128L242.55 44.9627L242.59 44.9526Z" fill="#D2D2D2"/>
<path d="M242.108 44.9025C242.189 44.8423 242.399 44.8423 242.289 44.752C242.028 44.7219 242.098 44.7821 241.948 44.7921C242.359 44.8323 241.817 44.8122 242.108 44.9025C242.018 44.8924 241.948 44.8824 241.878 44.8724C241.948 44.8924 242.018 44.9125 242.088 44.9426L242.078 44.9326C242.058 44.9225 242.058 44.9125 242.078 44.9225H242.088C242.088 44.9125 242.098 44.9125 242.108 44.9025C242.229 44.9326 242.128 44.9225 242.088 44.9225L242.078 44.9326L242.5 44.9526C242.419 44.9326 242.309 44.9225 242.108 44.9025Z" fill="#D2D2D2"/>
<path d="M240.192 43.9796C240.202 43.9896 240.202 43.9996 240.192 43.9996C240.222 43.9996 240.232 43.9996 240.192 43.9796Z" fill="#D2D2D2"/>
<path d="M240.323 44.0899C240.293 44.0899 240.253 44.0999 240.172 44.0498C240.102 43.9896 240.192 44.0197 240.192 43.9996C240.132 43.9896 239.982 43.9494 240.132 44.0698L240.162 44.0798C240.303 44.1701 240.473 44.3407 240.443 44.3407C240.423 44.2504 240.403 44.1902 240.323 44.0899Z" fill="#D2D2D2"/>
<path d="M241.206 44.5414C241.326 44.5614 241.436 44.5815 241.557 44.5915L241.396 44.4912V44.5313C241.206 44.4611 241.236 44.5213 241.206 44.5414Z" fill="#D2D2D2"/>
<path d="M243.051 45.063L243.001 45.1333L243.212 45.043L243.051 45.063Z" fill="#D2D2D2"/>
<path d="M243.503 45.0831L243.483 45.1433L243.603 45.1132L243.503 45.0831Z" fill="#D2D2D2"/>
<path d="M245.148 50.8815C245.148 50.9116 245.148 50.9417 245.158 50.9718C245.148 50.9316 245.148 50.9015 245.148 50.8815Z" fill="#D2D2D2"/>
<path d="M245.299 50.2696L245.279 50.2395C245.279 50.2796 245.289 50.2997 245.299 50.2696Z" fill="#D2D2D2"/>
<path d="M244.656 49.0256C244.777 49.146 244.907 49.3065 244.917 49.2263L244.897 49.146C244.787 49.1159 244.717 49.0658 244.656 49.0256Z" fill="#D2D2D2"/>
<path d="M249.783 47.3804L249.823 47.4105C249.863 47.3904 249.903 47.3804 249.933 47.3704C249.883 47.3704 249.833 47.3704 249.783 47.3804Z" fill="#D2D2D2"/>
<path d="M249.662 47.6612C249.622 47.6412 249.542 47.6311 249.492 47.6111C249.532 47.6311 249.602 47.6412 249.662 47.6612Z" fill="#D2D2D2"/>
<path d="M246.994 53.4597L247.114 53.4296C246.964 53.3694 247.024 53.4296 246.994 53.4597Z" fill="#D2D2D2"/>
<path d="M243.924 43.4077C243.774 43.4378 243.663 43.4779 243.573 43.5281C243.744 43.4679 243.904 43.4779 243.924 43.4077Z" fill="#D2D2D2"/>
<path d="M244.446 50.4702C244.446 50.5404 244.456 50.5705 244.476 50.5705C244.466 50.5002 244.466 50.4601 244.446 50.4702Z" fill="#D2D2D2"/>
<path d="M243.212 43.7689C243.242 43.7588 243.262 43.7488 243.282 43.7287C243.362 43.6585 243.443 43.5783 243.563 43.5181C243.443 43.5682 243.302 43.6384 243.212 43.7689Z" fill="#D2D2D2"/>
<path d="M246.623 56.2585C246.623 56.2685 246.613 56.2785 246.613 56.2885C246.623 56.2885 246.623 56.2785 246.623 56.2585Z" fill="#D2D2D2"/>
<path d="M247.475 60.1609C247.435 60.1408 247.375 60.0907 247.325 60.0505C247.345 60.0706 247.385 60.1107 247.475 60.1609Z" fill="#D2D2D2"/>
<path d="M245.399 45.1132C245.278 45.1433 245.379 45.1332 245.399 45.1132V45.1132Z" fill="#D2D2D2"/>
<path d="M244.867 44.8624C244.887 44.8523 244.897 44.8423 244.907 44.8323C244.897 44.8423 244.877 44.8624 244.867 44.8624Z" fill="#D2D2D2"/>
<path d="M242.911 44.8323C242.931 44.8223 242.931 44.8323 242.911 44.8323V44.8323Z" fill="#D2D2D2"/>
<path d="M245.208 45.1132C245.248 45.1132 245.309 45.1232 245.369 45.1132C245.339 45.1132 245.289 45.1132 245.208 45.1132Z" fill="#D2D2D2"/>
<path d="M245.238 45.1433C245.198 45.1433 245.168 45.1433 245.138 45.1433C245.128 45.1533 245.138 45.1634 245.238 45.1433Z" fill="#D2D2D2"/>
<path d="M245.589 45.063C245.509 45.0931 245.439 45.1031 245.369 45.1132C245.399 45.1132 245.409 45.1132 245.399 45.1232C245.439 45.1031 245.489 45.0931 245.589 45.063Z" fill="#D2D2D2"/>
<path d="M251.96 52.8678L251.95 52.8578C251.879 52.8277 251.9 52.8477 251.96 52.8678Z" fill="#D2D2D2"/>
<path d="M247.225 48.9253L247.215 48.9353H247.225V48.9253Z" fill="#D2D2D2"/>
<path d="M247.556 48.9153C247.405 48.9855 247.325 48.9755 247.225 48.9353L247.315 49.156L247.556 48.9153Z" fill="#D2D2D2"/>
<path d="M245.489 52.2759L245.439 52.0752C245.66 52.2357 245.71 52.3862 245.69 52.1856C245.449 52.2859 245.359 51.5435 245.168 51.5636C245.168 51.5135 245.188 51.4733 245.198 51.4232C245.198 51.4633 245.218 51.4633 245.218 51.5034C245.299 51.2426 245.018 51.3429 245.058 50.9918C245.078 50.8714 245.138 50.8012 245.148 50.8814C245.148 50.7912 245.138 50.7009 245.138 50.6106C245.168 50.5404 245.198 50.5604 245.168 50.6407C245.208 50.5103 245.218 50.3799 245.279 50.2494V50.2595C245.269 50.1892 245.269 50.0388 245.279 49.9786C245.359 49.8983 245.279 50.0388 245.309 50.0287L245.369 49.798C245.459 49.7478 245.419 49.9385 245.339 50.0789C245.64 49.9986 245.369 49.8682 245.74 49.5572C245.7 49.6174 245.67 49.6877 245.64 49.7478C245.82 49.7077 245.88 49.5472 246.091 49.4168C246.021 49.4168 245.63 49.6676 245.74 49.4369C245.8 49.3967 245.86 49.3165 245.921 49.1961C245.981 49.2563 246.051 49.1359 246.171 49.0155L246.232 49.0958C246.342 48.9553 246.292 48.9252 246.352 48.8149C246.523 48.7045 246.603 48.7447 246.683 48.7647C246.954 48.6042 246.422 48.7748 246.733 48.5541C246.974 48.4437 247.124 48.3133 247.405 48.1227C247.596 48.0826 247.395 48.1929 247.476 48.1929L247.606 48.0525C247.646 48.0424 247.646 48.0725 247.636 48.0826C247.756 48.0023 247.606 47.9822 247.817 47.8719C247.847 47.7415 248.318 47.892 248.559 47.7214C248.629 47.7415 248.539 47.7916 248.569 47.8318C248.94 47.6813 248.88 47.7114 249.201 47.5709L249.482 47.6311C249.271 47.5609 249.532 47.4405 249.773 47.3904C249.713 47.3402 249.632 47.3001 249.592 47.29C249.723 47.27 249.873 47.27 250.014 47.3201C250.054 47.3603 249.994 47.3703 249.923 47.3904C249.953 47.3904 249.973 47.3904 250.004 47.3904C250.114 47.4907 250.004 47.5007 249.913 47.5208C249.883 47.4907 249.853 47.4506 249.813 47.4205C249.713 47.4606 249.642 47.5408 249.652 47.601C249.673 47.591 249.703 47.581 249.743 47.581C249.723 47.591 249.713 47.6111 249.713 47.6211C249.723 47.6311 249.753 47.6211 249.803 47.601C249.813 47.6412 249.813 47.6913 249.813 47.7315L249.843 47.6913C249.933 47.7615 249.994 47.8518 250.024 47.9421C250.224 48.0324 250.505 48.3835 250.134 48.855C250.164 48.6945 250.054 48.7447 249.983 48.6644C250.064 48.6544 250.124 48.5641 250.154 48.4738C250.184 48.3835 250.174 48.2932 250.184 48.2029C250.164 48.3033 250.124 48.2732 250.104 48.2431C250.134 48.3434 250.124 48.4437 250.054 48.5842C249.994 48.524 249.953 48.6142 249.853 48.6644C250.034 48.7346 249.693 48.9553 249.512 49.0456C249.482 48.9955 249.512 48.9353 249.703 48.845C249.452 48.8349 249.492 49.156 249.201 49.1158C249.261 49.1058 249.291 49.1058 249.301 49.0757C249.181 49.166 248.84 49.156 248.92 49.1058L248.98 49.0958C248.609 49.1359 247.766 49.0657 247.696 49.2061C247.696 49.1861 247.766 49.0456 247.797 49.0155C247.536 49.156 247.275 49.2864 247.014 49.4068C247.094 49.2964 246.884 48.9854 247.235 48.9553C247.144 48.9252 247.024 48.8951 246.813 48.9052C246.874 48.9353 246.954 49.0958 246.864 49.0958C246.633 48.9252 246.703 49.0055 246.422 48.835C246.512 48.8751 246.372 49.0456 246.212 49.0055C246.242 48.9854 246.242 48.8249 246.302 48.8149L245.88 48.9052C245.981 48.8951 245.931 48.7547 245.87 48.6845C245.901 48.7346 245.559 48.5942 245.459 48.5741L245.6 48.6644C245.208 48.4939 245.098 48.7748 244.707 48.5641C244.777 48.5541 244.927 48.4136 244.747 48.2932C244.626 48.3334 244.125 48.4738 243.744 48.2431L243.724 48.1528C243.633 48.1026 243.543 48.0324 243.453 47.9722C243.694 48.0324 244.295 48.1528 244.576 48.1729C244.466 48.0525 244.576 48.0926 244.386 47.9722C244.356 47.8819 244.526 47.9822 244.586 48.0123C244.446 47.912 244.316 47.8017 244.195 47.6713C244.135 47.7816 243.834 47.4706 243.784 47.5408C243.944 47.6612 244.115 47.7716 244.285 47.8518C244.245 47.9622 243.804 47.8819 243.553 47.5509C243.523 47.4405 243.754 47.4807 243.774 47.4506C243.714 47.4405 243.493 47.2098 243.503 47.1596C243.553 47.1897 243.593 47.2299 243.643 47.26C243.563 47.0693 243.322 47.0493 243.302 46.7784C243.262 46.6982 243.342 46.4875 243.272 46.4975C243.202 46.6681 242.861 46.8587 242.73 46.7885C242.71 46.7483 242.68 46.2367 242.741 46.1163C242.811 45.9558 243.011 46.3069 243.072 46.1564C243.041 46.1564 242.991 46.0862 242.971 46.0561C242.991 45.9658 243.072 46.0762 243.031 45.8856C242.911 45.8555 243.031 45.4843 242.931 45.7953C242.901 45.5947 242.951 45.5846 242.981 45.3539C242.891 45.4241 242.771 45.0931 242.841 44.8623C242.861 44.8824 242.911 44.8523 242.941 44.8423C243.152 44.4611 243.362 44.3206 243.673 44.0799C243.724 44.0799 243.894 44.0096 243.854 44.0899C243.894 44.0498 243.914 43.9896 244.025 43.9294C244.275 43.9194 243.794 44.0598 244.005 44.0899C243.984 44.0197 244.235 43.8792 244.386 43.799C244.305 43.7087 243.994 43.8993 243.874 44.0297C243.804 43.9193 243.994 43.5983 244.466 43.4479C244.837 43.3676 244.637 43.5181 244.697 43.488C245.028 43.4779 245.188 43.488 245.339 43.4679C245.479 43.4679 245.63 43.4679 245.85 43.6585L245.82 43.6385C245.85 43.6585 245.87 43.6786 245.901 43.7087C246.081 44.0698 245.78 43.8291 245.79 43.9394C245.76 43.9093 245.73 43.8893 245.69 43.8692C245.509 43.7588 245.409 43.6385 245.238 43.5883C245.319 43.6184 245.379 43.6686 245.449 43.7087C245.349 43.6886 245.168 43.6585 245.078 43.6184C245.158 43.6786 245.409 43.7287 245.66 43.9093C245.79 43.9795 245.82 44.1701 245.76 44.3106C245.71 44.4611 245.58 44.5413 245.469 44.5614C245.409 44.6216 245.258 44.6818 245.339 44.7018C245.389 44.6918 245.439 44.6717 245.489 44.6416C245.67 44.6617 245.208 44.8322 245.429 44.8022C245.198 44.9225 244.958 44.9627 244.657 44.9326L244.596 44.8322C244.606 44.8623 244.797 44.8924 244.877 44.8623C244.747 44.9025 244.416 44.7219 244.275 44.8523L244.486 44.9225C244.275 44.9727 243.994 45.083 243.734 45.0329C243.844 45.1332 243.794 45.0329 243.974 45.1533C243.814 45.0028 244.677 45.1633 244.406 45.0128C244.606 45.1533 244.747 45.073 245.018 45.1934C245.008 45.1633 244.917 45.1332 245.148 45.1432C245.158 45.1332 245.178 45.1232 245.198 45.1131H245.218C245.208 45.1131 245.198 45.1131 245.198 45.1131C245.208 45.1031 245.208 45.1031 245.188 45.1131C245.128 45.1031 245.088 45.083 245.068 45.063C245.158 45.0128 245.62 44.9326 245.74 44.7721C245.901 44.6717 245.7 44.8523 245.8 44.8222C245.86 44.752 245.931 44.6517 245.951 44.5714C246.041 44.6115 246.272 44.0498 246.131 44.5915C246.212 44.441 246.252 44.2705 246.222 44.0799C246.232 43.9093 246.121 43.6284 245.88 43.498L245.921 43.5281C245.82 43.4579 245.72 43.3977 245.63 43.3776C245.479 43.2873 245.198 43.3074 245.359 43.2974C245.178 43.2572 244.988 43.2472 244.807 43.2572V43.2372C244.255 43.2272 243.804 43.5281 243.272 43.7588C243.132 43.8993 243.041 43.9996 242.831 44.2103L242.751 44.2203C242.62 44.3908 242.339 44.7821 242.379 44.9025C242.088 45.1031 242.149 45.9959 242.239 46.3671H242.319C242.369 46.6279 242.47 46.8587 242.64 47.1195L242.7 47.0693C242.861 47.28 242.981 47.6913 243.272 47.9923C243.232 47.9923 243.162 47.902 243.132 47.8418C243.332 48.3534 243.954 48.4939 244.265 48.8049C244.376 48.835 244.436 48.8751 244.496 48.9353L244.466 48.9252C244.476 48.9353 244.486 48.9353 244.506 48.9453C244.546 48.9754 244.586 49.0155 244.626 49.0456C244.596 49.0055 244.556 48.9754 244.526 48.9553C244.606 48.9955 244.727 49.0356 244.847 49.0657L244.867 49.156C244.877 49.156 244.887 49.166 244.897 49.166C244.998 49.2362 245.008 49.166 244.968 49.0857C245.028 49.0958 245.088 49.1058 245.138 49.0958C245.188 49.2563 245.459 49.156 245.539 49.3265C245.64 49.2964 246.151 49.4268 246.242 49.3064C246.242 49.3265 246.272 49.3365 246.212 49.3265C246.342 49.3666 246.472 49.4068 246.593 49.3867L246.633 49.4971L246.944 49.4068C247.114 49.487 247.185 49.5372 246.994 49.5873C247.425 49.5171 247.345 49.5873 247.706 49.4971L247.686 49.5572C247.817 49.5673 248.027 49.4971 248.098 49.5572C248.358 49.6877 249.602 49.7278 250.355 49.1058C250.104 49.1058 250.696 48.855 250.575 48.7146C250.646 48.6845 250.736 48.5641 250.686 48.7346C250.876 48.233 250.876 47.8719 250.605 47.6111C250.615 47.5308 250.716 47.6813 250.716 47.6211C250.686 47.581 250.595 47.4907 250.585 47.4305C250.575 47.3703 250.666 47.4706 250.726 47.5408C250.375 47.0593 250.174 47.2198 250.104 47.3001C249.923 47.1295 249.763 47.1195 249.602 47.1998C249.542 47.1596 249.402 47.1095 249.673 47.0994C249.512 47.0693 248.81 47.0693 248.81 47.1797C248.76 47.1596 248.619 47.1998 248.589 47.2198C248.288 47.27 248.258 47.27 247.967 47.3502L248.057 47.3402C247.977 47.4907 247.827 47.4305 247.596 47.5308V47.5208C247.044 47.6412 247.385 47.6311 246.844 47.7816L246.904 47.8418C246.934 48.0123 246.432 47.9822 246.201 48.233C246.242 48.223 246.282 48.213 246.322 48.2029C246.222 48.3434 245.79 48.3133 245.64 48.4337C245.6 48.4537 245.67 48.3735 245.71 48.3233C245.279 48.5741 245.73 48.4337 245.499 48.7045C245.409 48.7146 245.459 48.544 245.279 48.7146C245.148 48.7748 244.968 49.3666 244.737 49.6174C244.807 49.5673 244.877 49.5271 244.827 49.6877C244.717 49.8983 244.406 50.2795 244.486 50.5404C244.466 50.5705 244.456 50.5805 244.446 50.5805C244.436 50.7811 244.436 51.2326 244.536 51.3429C244.406 51.4432 244.476 51.7642 244.606 52.015C244.737 52.2658 244.887 52.4765 244.787 52.5267C244.887 52.6972 245.008 52.8677 245.138 53.0182H245.108C245.329 53.3392 245.499 53.3794 245.63 53.4195C245.69 53.4897 245.62 53.4697 245.61 53.4697C246.011 53.8609 246.091 53.881 246.553 53.9612L246.563 54.0515C246.683 54.0716 247.265 54.4829 247.817 54.4728C247.807 54.4829 247.797 54.4929 247.756 54.5029C248.348 54.533 249.181 54.8541 249.392 54.5531L249.773 54.4628C249.281 54.4628 249.843 54.3324 249.632 54.2923C249.823 54.2622 250.134 54.3525 249.893 54.3826L249.853 54.3725C249.773 54.533 250.465 54.3826 250.455 54.4929L251.167 54.4327L251.518 54.4127C251.639 54.4026 251.809 54.3826 251.96 54.3224C252.592 54.0716 252.812 53.2791 252.522 52.7173C252.501 52.7775 252.491 52.8377 252.471 52.8878C252.431 52.7674 252.361 52.647 252.271 52.5367C252.201 52.4464 252.241 52.3461 252.431 52.6069C252.411 52.3963 252 52.2859 251.99 52.316C251.448 52.0552 252.271 52.2759 252.1 52.2157C252.02 52.1655 251.93 52.1455 251.849 52.1154L251.9 52.1455C251.699 52.1254 251.629 52.1756 251.358 52.1756C251.177 52.1555 251.268 52.1053 251.197 52.0953C251.197 52.0853 251.177 52.0853 251.087 52.0953L250.666 52.1154L250.836 52.1956C250.656 52.2558 250.455 52.2357 250.656 52.316C250.355 52.1354 249.151 52.5869 248.99 52.637C248.78 52.7975 248.559 52.8978 248.278 53.0483C248.358 53.0283 248.449 53.0985 248.218 53.2189C248.178 52.9781 247.756 53.3894 247.496 53.4195C247.706 53.3593 246.934 53.9612 247.265 53.8609C247.094 54.0013 247.195 53.8107 247.034 53.891C246.723 54.3424 246.232 54.8039 246.021 55.4861C246.041 55.5061 246.121 55.4158 246.121 55.5663C246.041 55.6666 245.961 55.767 245.891 55.8773C245.87 56.0177 246.021 56.0278 245.891 56.2585C245.921 56.2284 245.961 56.1783 245.961 56.2685C245.81 56.9206 245.921 57.6228 246.161 58.2448C246.412 58.8768 246.763 59.4486 247.215 60.0104C247.104 59.8399 247.205 59.9201 247.315 60.0104C247.255 59.9402 247.365 59.9603 247.375 59.9101C247.496 60.0606 247.636 60.201 247.787 60.3214C247.927 60.2913 248.358 60.5822 248.449 60.4819L248.268 60.4418C248.519 60.4017 248.067 60.0706 248.178 59.9402C247.887 59.9502 247.776 59.4687 247.385 59.3483C247.345 59.2681 247.476 59.3684 247.465 59.3082C247.355 59.2881 247.255 59.2079 247.155 59.0173L247.185 59.0273C246.823 58.5458 246.753 58.2649 246.623 57.6128L246.563 57.683C246.543 57.5426 246.553 57.5025 246.563 57.4322C246.412 57.2918 246.643 57.8335 246.482 57.7131C246.563 57.4924 246.332 56.6698 246.553 56.5494C246.573 56.3287 246.462 56.6096 246.472 56.3889L246.523 56.3388L246.472 56.2786C246.502 56.1381 246.583 56.0779 246.623 56.0779C246.613 56.108 246.613 56.1783 246.613 56.2084C246.693 56.0378 246.713 55.7068 246.753 55.6566C246.713 55.7168 246.693 55.777 246.663 55.8372C246.783 55.2553 247.245 54.6434 247.606 54.1819L247.546 54.192C247.837 53.8308 247.837 53.9612 248.228 53.6402L248.218 53.6603C248.278 53.57 248.388 53.4797 248.509 53.4195C248.419 53.5198 248.76 53.3693 248.639 53.4998C249.051 53.2088 248.82 53.3292 249.071 53.0684L249.161 53.0985C249.241 52.9982 249.241 52.9681 249.482 52.8678C249.301 52.9881 249.662 52.8978 249.462 53.0483C249.994 53.0082 250.194 52.7072 250.475 52.8477C250.686 52.637 250.004 52.8377 250.134 52.7775C250.004 52.7474 250.305 52.6069 250.485 52.5969C250.666 52.5768 250.806 52.7674 251.227 52.7474C251.187 52.7474 251.187 52.7574 251.137 52.7574C251.278 52.8076 251.488 52.6872 251.589 52.7775C251.689 52.6972 251.729 52.8276 251.809 52.7373C251.729 52.6872 251.629 52.6771 251.518 52.6771C251.659 52.647 251.97 52.5768 252.07 52.9279C252.04 52.9079 251.96 52.8577 251.91 52.8276C251.93 52.9079 252.02 52.948 252.01 53.0483C251.9 53.0584 251.819 52.7474 251.619 52.8076C251.669 52.8577 251.88 52.8677 251.739 52.9279C251.94 52.8778 251.869 53.1085 251.98 53.2891L251.9 53.269C251.92 53.2991 251.94 53.3693 251.92 53.4195C251.89 53.3794 251.869 53.3392 251.839 53.3092C251.9 53.4797 251.689 53.5098 251.649 53.57C251.799 53.4295 251.759 53.6101 251.869 53.5599C251.799 53.7506 251.679 53.7305 251.619 53.6904C251.538 53.6603 251.538 53.59 251.167 53.6502C251.258 53.6302 251.518 53.6603 251.378 53.7104C251.248 53.7104 251.067 53.6904 250.987 53.6603C250.535 53.7205 251.067 53.7305 250.876 53.8007C250.716 53.7205 250.656 53.8609 250.465 53.9111L250.455 53.8308C249.943 53.8208 250.335 54.0114 249.873 53.9813L250.064 53.8609L249.833 53.901L249.873 53.8107C249.622 53.891 249.542 53.881 249.291 53.8609C249.351 53.9111 249.261 54.0114 249.04 54.0114C248.89 53.9612 249.121 53.9412 248.81 53.9412C248.88 53.891 248.96 53.8308 249.091 53.9111C249.101 53.881 249.161 53.8609 249.171 53.8408C249.01 53.7907 248.77 53.8208 248.659 53.8208C248.699 53.8208 248.75 53.8308 248.78 53.8408C248.629 53.8709 248.479 53.891 248.328 53.9211C248.258 53.881 248.318 53.8709 248.378 53.8509C248.288 53.8509 248.218 53.881 248.087 53.8709C248.128 53.8107 248.128 53.7405 248.318 53.7405C248.178 53.7506 248.037 53.7606 247.897 53.7506C247.877 53.7205 247.706 53.6402 247.756 53.6201C247.546 53.5399 247.185 53.6101 246.924 53.4396C246.904 53.4496 246.874 53.4396 246.813 53.4295C246.553 53.2991 246.402 53.1185 246.091 52.9982L246.031 52.7975C245.83 52.6471 246.111 53.0784 245.78 52.8176C245.549 52.617 245.78 52.6671 245.74 52.5668C245.6 52.4966 245.339 52.3461 245.309 52.0552C245.429 52.1856 245.439 52.2056 245.489 52.2759ZM245.75 49.4268C245.72 49.487 245.69 49.6174 245.63 49.6275C245.6 49.5071 245.66 49.487 245.75 49.4268ZM250.114 47.7214C250.064 47.7114 250.034 47.6612 249.983 47.601C250.034 47.6211 250.074 47.6612 250.114 47.7214ZM245.971 43.6585L245.951 43.6485C245.911 43.5983 245.87 43.5783 245.84 43.5582L245.88 43.5783C245.83 43.5381 245.84 43.5482 245.88 43.5783L245.84 43.5582C245.88 43.5783 245.931 43.6084 245.971 43.6585ZM246.141 44.2705C246.141 44.3307 246.151 44.3307 246.171 44.3006C246.151 44.2604 246.171 44.13 246.141 43.9695C246.131 44.0197 246.141 44.0999 246.141 44.2705ZM251.177 52.1455L251.247 52.1655C251.097 52.1956 251.137 52.1756 251.177 52.1455Z" fill="#D2D2D2"/>
<path d="M249.672 47.6312C249.662 47.6212 249.652 47.6011 249.652 47.5811C249.632 47.6011 249.642 47.6112 249.672 47.6312Z" fill="#D2D2D2"/>
<path d="M246.974 53.4596C246.994 53.4596 246.994 53.4596 246.994 53.4496L246.974 53.4596Z" fill="#D2D2D2"/>
<path d="M243.061 46.0261C243.051 46.0863 243.051 46.1164 243.041 46.1465C243.061 46.1365 243.061 46.1164 243.061 46.0261Z" fill="#D2D2D2"/>
<path d="M244.335 45.1835L244.546 45.1634C244.446 45.1634 244.406 45.1534 244.356 45.1333C244.366 45.1534 244.406 45.1835 244.335 45.1835Z" fill="#D2D2D2"/>
<path d="M242.58 44.5715C242.55 44.5815 242.52 44.5615 242.49 44.5715V44.6116C242.62 44.6217 242.71 44.6016 242.58 44.5715Z" fill="#D2D2D2"/>
<path d="M244.145 44.9125C244.135 44.8423 243.994 44.8724 243.854 44.8724H243.884C243.834 44.9727 243.994 44.9426 244.145 44.9125Z" fill="#D2D2D2"/>
<path d="M243.824 44.8725C243.784 44.8725 243.734 44.8725 243.693 44.8624C243.673 44.9025 243.744 44.8825 243.824 44.8725Z" fill="#D2D2D2"/>
<path d="M245.82 44.8925C245.72 44.9326 245.8 45.0029 245.73 45.0129C245.69 45.0831 245.85 44.9828 245.941 44.8524C246.031 44.7019 246.061 44.6618 245.82 44.8925Z" fill="#D2D2D2"/>
<path d="M244.035 44.6919L244.085 44.7721L244.165 44.712L244.035 44.6919Z" fill="#D2D2D2"/>
<path d="M245.168 44.762C245.088 44.762 245.018 44.752 244.937 44.7419C244.937 44.752 244.917 44.762 244.877 44.772C245.018 44.772 245.178 44.7921 245.168 44.762Z" fill="#D2D2D2"/>
<path d="M244.877 44.7621C244.807 44.7621 244.737 44.7621 244.697 44.7721C244.737 44.7721 244.817 44.7721 244.877 44.7621Z" fill="#D2D2D2"/>
<path d="M244.346 44.6718L244.416 44.6918H244.576L244.346 44.6718Z" fill="#D2D2D2"/>
<path d="M244.496 43.5682C244.416 43.5883 244.325 43.6084 244.255 43.6485C244.235 43.6886 244.305 43.6786 244.396 43.6485C244.446 43.6184 244.536 43.5883 244.496 43.5682Z" fill="#D2D2D2"/>
<path d="M245.208 43.8392C245.158 43.8091 245.158 43.789 245.128 43.7589L245.098 43.8592L245.208 43.8392Z" fill="#D2D2D2"/>
<path d="M244.556 43.8091C244.536 43.8392 244.255 43.9395 244.526 43.8893C244.546 43.8592 244.767 43.8091 244.556 43.8091Z" fill="#D2D2D2"/>
<path d="M242.861 46.4374L242.841 46.3772L242.68 46.4274L242.861 46.4374Z" fill="#D2D2D2"/>
<path d="M245.208 48.3334C244.978 48.193 245.108 48.4037 244.907 48.2532C244.827 48.2632 245.068 48.3736 244.998 48.3836C245.158 48.4137 245.238 48.4638 245.208 48.3334Z" fill="#D2D2D2"/>
<path d="M244.998 48.3836C244.978 48.3836 244.947 48.3735 244.907 48.3735C244.958 48.3836 244.978 48.3836 244.998 48.3836Z" fill="#D2D2D2"/>
<path d="M248.107 60.6224C248.168 60.6626 248.238 60.6927 248.298 60.7328L248.188 60.6325L248.107 60.6224Z" fill="#D2D2D2"/>
<path d="M248.539 60.6324L248.559 60.7528L248.709 60.6826C248.659 60.6726 248.569 60.6625 248.539 60.6324Z" fill="#D2D2D2"/>
<path d="M246.221 49.2163L246.211 49.1862C246.171 49.1862 246.141 49.2163 246.091 49.2664L246.221 49.2163Z" fill="#D2D2D2"/>
<path d="M245.238 51.0821V51.042L245.138 51.1122L245.238 51.0821Z" fill="#D2D2D2"/>
<path d="M245.991 52.5969C245.951 52.5468 245.88 52.4866 245.84 52.4264C245.941 52.5468 245.911 52.6973 245.991 52.5969Z" fill="#D2D2D2"/>
<path d="M240.784 46.3069H240.824C240.814 46.2969 240.774 46.3069 240.784 46.3069Z" fill="#D2D2D2"/>
<path d="M240.694 46.2468C240.624 46.2569 240.704 46.2569 240.684 46.2669H240.664H240.714C240.704 46.2569 240.674 46.2468 240.694 46.2468Z" fill="#D2D2D2"/>
<path d="M240.834 46.2267C240.814 46.2267 240.814 46.2167 240.834 46.2267V46.2267Z" fill="#D2D2D2"/>
<path d="M240.814 46.2166H240.834C240.854 46.2166 240.854 46.2066 240.865 46.2166C240.865 46.2066 240.844 46.2066 240.814 46.2166Z" fill="#D2D2D2"/>
<path d="M240.794 46.2167C240.784 46.2167 240.774 46.2267 240.744 46.2167C240.754 46.2267 240.804 46.2267 240.794 46.2167Z" fill="#D2D2D2"/>
<path d="M240.694 46.2167H240.744L240.694 46.2067V46.2167Z" fill="#D2D2D2"/>
<path d="M240.644 46.1565C240.634 46.1966 240.624 46.2267 240.624 46.1866C240.624 46.1966 240.614 46.2368 240.614 46.2769C240.614 46.2969 240.614 46.2769 240.614 46.2769V46.2668C240.614 46.2668 240.614 46.2969 240.614 46.2568C240.614 46.2368 240.614 46.2769 240.614 46.2668C240.614 46.2769 240.624 46.2167 240.644 46.1565L240.634 46.1766C240.634 46.1866 240.644 46.1665 240.644 46.1565Z" fill="#D2D2D2"/>
<path d="M240.584 46.2367L240.594 46.2568C240.584 46.2467 240.584 46.2367 240.574 46.2267C240.574 46.2367 240.584 46.2467 240.594 46.2568V46.2668L240.584 46.2367Z" fill="#D2D2D2"/>
<path d="M240.604 46.2769L240.594 46.2468L240.604 46.2769C240.604 46.2769 240.604 46.287 240.604 46.2769Z" fill="#D2D2D2"/>
<path d="M240.604 46.2869L240.614 46.2769L240.604 46.2869Z" fill="#D2D2D2"/>
<path d="M240.503 46.8586L240.513 46.8386C240.503 46.8486 240.503 46.8586 240.503 46.8586Z" fill="#D2D2D2"/>
<path d="M240.483 46.4474C240.453 46.4574 240.393 46.4675 240.433 46.4574L240.483 46.4474C240.473 46.4474 240.473 46.4474 240.483 46.4474Z" fill="#D2D2D2"/>
<path d="M240.724 46.5979H240.734L240.704 46.5879L240.724 46.5979Z" fill="#D2D2D2"/>
<path d="M240.895 46.6381H240.865C240.875 46.6481 240.885 46.6381 240.895 46.6381Z" fill="#D2D2D2"/>
<path d="M240.313 46.6381L240.273 46.6481C240.273 46.6481 240.293 46.6381 240.313 46.6381Z" fill="#D2D2D2"/>
<path d="M240.473 46.327C240.453 46.337 240.453 46.337 240.453 46.337C240.473 46.327 240.503 46.317 240.473 46.327Z" fill="#D2D2D2"/>
<path d="M240.453 46.337C240.433 46.337 240.423 46.347 240.453 46.337V46.337Z" fill="#D2D2D2"/>
<path d="M240.945 46.4776C240.895 46.4776 240.895 46.4675 240.915 46.4675L240.794 46.4776H240.945Z" fill="#D2D2D2"/>
<path d="M240.363 46.6882L240.333 46.7183C240.273 46.7183 240.283 46.6983 240.243 46.7284C240.363 46.6882 240.283 46.7986 240.403 46.7384L240.383 46.7585H240.373C240.333 46.8186 240.463 46.7284 240.463 46.7585C240.463 46.7785 240.453 46.7986 240.443 46.7986H240.493C240.503 46.8086 240.483 46.8186 240.473 46.8186C240.493 46.8287 240.503 46.8387 240.523 46.8387C240.543 46.8287 240.564 46.7986 240.584 46.7885C240.584 46.8086 240.574 46.7986 240.574 46.8186L240.604 46.7986C240.604 46.8287 240.574 46.8588 240.554 46.8487C240.543 46.9792 240.584 46.8287 240.634 46.9089L240.604 46.919C240.614 46.9992 240.654 46.9691 240.694 47.0092C240.674 46.9892 240.614 46.8989 240.654 46.8688C240.664 46.8788 240.674 46.8788 240.684 46.8588C240.694 46.9089 240.704 46.8889 240.724 46.8889L240.734 46.9491C240.754 46.929 240.744 46.8989 240.744 46.8688C240.764 46.8688 240.794 46.9089 240.814 46.939C240.854 46.929 240.754 46.8889 240.794 46.8487C240.834 46.8588 240.834 46.8186 240.834 46.7785C240.865 46.7785 240.854 46.8086 240.875 46.8186L240.844 46.7785C240.844 46.7785 240.854 46.7885 240.865 46.7885C240.854 46.7685 240.824 46.7484 240.814 46.7284C240.764 46.6882 240.915 46.7584 240.854 46.6983C240.875 46.6983 240.885 46.7183 240.905 46.7284C240.875 46.6882 240.885 46.6882 240.824 46.6481H240.865C240.814 46.6481 240.774 46.618 240.724 46.5979C240.704 46.5979 240.684 46.5879 240.674 46.5879L240.644 46.5779C240.654 46.5779 240.674 46.5879 240.694 46.5879H240.684C240.704 46.5879 240.744 46.5979 240.774 46.608H240.734C240.774 46.618 240.804 46.628 240.844 46.6381C240.834 46.6381 240.834 46.628 240.834 46.628C240.844 46.628 240.854 46.6381 240.854 46.6381C240.865 46.6381 240.844 46.6381 240.834 46.628L240.905 46.6381L240.875 46.628L240.915 46.618C240.854 46.5979 240.754 46.5678 240.724 46.5578C240.774 46.5678 240.804 46.5678 240.865 46.5779C240.804 46.5779 240.885 46.5979 240.875 46.5979C240.885 46.5979 240.905 46.5979 240.915 46.5979L240.865 46.5779C240.915 46.5879 240.905 46.5779 240.925 46.5779C240.834 46.5678 240.865 46.5578 240.834 46.5478C240.865 46.5478 240.895 46.5578 240.895 46.5578C240.965 46.5578 240.784 46.5377 240.844 46.5377C240.844 46.5377 240.844 46.5377 240.854 46.5377C240.824 46.5277 240.844 46.5277 240.875 46.5277C240.885 46.5177 240.875 46.4876 240.794 46.4876C240.804 46.4876 240.895 46.4876 240.905 46.4876L240.634 46.4776C240.704 46.4776 240.865 46.4575 240.905 46.4675C240.915 46.4675 240.925 46.4575 240.905 46.4575C240.895 46.4575 240.804 46.4675 240.794 46.4675C240.875 46.4575 240.834 46.4575 240.905 46.4475C240.895 46.4475 240.784 46.4575 240.784 46.4475C240.804 46.4475 240.895 46.4374 240.905 46.4374H240.794C240.814 46.4374 240.885 46.4274 240.915 46.4274C240.895 46.4274 240.915 46.4174 240.905 46.4174L240.885 46.4274C240.895 46.4073 240.734 46.4274 240.734 46.4174C240.754 46.4174 240.865 46.4073 240.885 46.3973C240.834 46.3973 240.624 46.4174 240.584 46.4174L240.614 46.4073H240.574C240.654 46.3973 240.824 46.3873 240.895 46.3772C240.915 46.3672 240.935 46.3672 240.925 46.3672C240.955 46.3572 240.975 46.3672 240.975 46.3672L240.995 46.3471C240.935 46.3572 240.925 46.3471 240.875 46.3572L240.945 46.3672C240.885 46.3772 240.764 46.3873 240.774 46.3772C240.794 46.3772 240.885 46.3572 240.905 46.3572C240.885 46.3572 240.865 46.3572 240.875 46.3471H240.905C240.925 46.3371 240.824 46.3572 240.875 46.3371C240.875 46.3371 240.955 46.317 240.915 46.317C240.844 46.3271 240.624 46.3772 240.574 46.3873C240.574 46.3873 240.644 46.3672 240.674 46.3572C240.734 46.3471 240.804 46.3371 240.854 46.3271C240.834 46.3271 240.814 46.3271 240.804 46.3371C240.814 46.3271 240.854 46.3271 240.844 46.3271C240.784 46.3371 240.844 46.317 240.794 46.3371C240.774 46.3371 240.804 46.3271 240.804 46.3271C240.764 46.3371 240.664 46.3471 240.644 46.3471C240.664 46.3471 240.684 46.3371 240.694 46.3371C240.694 46.3271 240.724 46.317 240.724 46.307C240.744 46.307 240.754 46.297 240.784 46.287C240.774 46.287 240.744 46.287 240.744 46.287C240.794 46.2669 240.754 46.297 240.814 46.2769C240.774 46.287 240.764 46.2769 240.734 46.2769C240.674 46.297 240.724 46.287 240.754 46.287C240.674 46.307 240.594 46.317 240.554 46.317C240.533 46.317 240.604 46.297 240.594 46.307C240.604 46.297 240.564 46.307 240.533 46.317C240.513 46.3271 240.543 46.317 240.554 46.307C240.584 46.297 240.614 46.2769 240.634 46.2669C240.654 46.2669 240.614 46.287 240.614 46.287L240.634 46.2769C240.654 46.2769 240.664 46.2769 240.654 46.2769C240.694 46.2569 240.654 46.2569 240.684 46.2167C240.664 46.2268 240.654 46.2368 240.634 46.2468H240.644C240.614 46.2669 240.604 46.2769 240.594 46.287C240.594 46.287 240.594 46.287 240.604 46.2669C240.574 46.307 240.594 46.2769 240.594 46.287C240.624 46.2468 240.594 46.287 240.594 46.287C240.594 46.2769 240.594 46.287 240.594 46.2769C240.594 46.2769 240.594 46.2769 240.594 46.2669C240.584 46.2769 240.614 46.2368 240.584 46.287L240.574 46.297C240.574 46.297 240.564 46.307 240.574 46.297L240.564 46.307C240.543 46.317 240.554 46.317 240.533 46.317C240.523 46.317 240.503 46.3271 240.513 46.3271L240.453 46.3471C240.413 46.3572 240.513 46.3371 240.433 46.3672C240.443 46.3672 240.453 46.3672 240.443 46.3772L240.403 46.3873C240.413 46.3873 240.373 46.4073 240.403 46.3973C240.303 46.4174 240.383 46.4174 240.373 46.4274L240.423 46.4174C240.423 46.4174 240.433 46.4274 240.453 46.4274L240.493 46.4174C240.533 46.4174 240.463 46.4374 240.473 46.4374C240.453 46.4374 240.463 46.4374 240.473 46.4374C240.383 46.4575 240.544 46.4475 240.473 46.4575C240.493 46.4575 240.483 46.4575 240.473 46.4575L240.453 46.4675C240.463 46.4675 240.473 46.4675 240.473 46.4675C240.473 46.4675 240.483 46.4675 240.493 46.4675L240.443 46.4776C240.423 46.4776 240.463 46.4776 240.503 46.4675C240.513 46.4675 240.523 46.4675 240.533 46.4675C240.463 46.4776 240.564 46.4675 240.483 46.4776C240.523 46.4776 240.513 46.4876 240.594 46.4776C240.584 46.4776 240.574 46.4776 240.574 46.4776C240.564 46.4776 240.554 46.4876 240.574 46.4876H240.513H240.594C240.554 46.4976 240.533 46.4976 240.493 46.4976C240.564 46.5077 240.523 46.4976 240.584 46.5077H240.543C240.543 46.5077 240.594 46.5177 240.564 46.5177C240.493 46.5177 240.554 46.5378 240.483 46.5478C240.594 46.5578 240.433 46.5478 240.523 46.5578C240.493 46.5578 240.483 46.5578 240.463 46.5478C240.483 46.5578 240.423 46.5478 240.493 46.5578C240.463 46.5578 240.453 46.5478 240.443 46.5478C240.453 46.5478 240.463 46.5578 240.453 46.5478C240.433 46.5478 240.433 46.5478 240.423 46.5377C240.423 46.5377 240.503 46.5578 240.584 46.5678C240.584 46.5678 240.543 46.5578 240.604 46.5779C240.574 46.5678 240.564 46.5678 240.574 46.5678C240.564 46.5678 240.574 46.5678 240.574 46.5678C240.584 46.5678 240.574 46.5678 240.584 46.5779C240.634 46.608 240.594 46.5879 240.594 46.5879C240.604 46.5979 240.594 46.5879 240.604 46.5979C240.624 46.618 240.614 46.618 240.604 46.5979V46.608V46.628C240.604 46.628 240.604 46.628 240.604 46.618C240.604 46.618 240.614 46.608 240.624 46.5979C240.634 46.5879 240.664 46.5779 240.684 46.5678C240.694 46.5578 240.714 46.5578 240.704 46.5578H240.714C240.724 46.5478 240.684 46.5578 240.654 46.5578C240.664 46.5578 240.674 46.5478 240.684 46.5478C240.704 46.5277 240.704 46.5277 240.634 46.5377L240.674 46.5277C240.644 46.5277 240.744 46.4876 240.684 46.4976H240.704C240.644 46.4976 240.824 46.4274 240.654 46.4776H240.614C240.604 46.4876 240.543 46.4976 240.513 46.5077C240.503 46.5077 240.564 46.4776 240.574 46.4876H240.564C240.654 46.4675 240.594 46.4675 240.644 46.4475C240.634 46.4274 240.674 46.3973 240.674 46.3672L240.604 46.3873V46.3772C240.624 46.3672 240.654 46.3572 240.654 46.3672C240.694 46.3572 240.624 46.3672 240.604 46.3672C240.624 46.3471 240.684 46.3471 240.684 46.3471H240.674H240.664C240.634 46.3471 240.604 46.3572 240.604 46.3572C240.614 46.3471 240.644 46.3371 240.644 46.3371C240.644 46.3371 240.654 46.3371 240.644 46.3371V46.3271L240.594 46.3471C240.564 46.3471 240.594 46.3371 240.533 46.3572C240.624 46.3271 240.554 46.317 240.584 46.307C240.544 46.317 240.543 46.307 240.543 46.297C240.533 46.297 240.473 46.317 240.483 46.317C240.604 46.287 240.533 46.287 240.624 46.2569C240.564 46.2769 240.604 46.2468 240.523 46.2769C240.533 46.2669 240.574 46.2669 240.594 46.2468C240.543 46.2468 240.614 46.2167 240.594 46.2067C240.574 46.2067 240.554 46.2167 240.533 46.2268L240.614 46.1967C240.604 46.1967 240.523 46.2167 240.574 46.1967C240.564 46.1967 240.544 46.2067 240.533 46.2067C240.604 46.1565 240.453 46.1666 240.594 46.0963C240.564 46.1064 240.554 46.1064 240.554 46.1064C240.543 46.1064 240.513 46.1164 240.493 46.1264L240.554 46.0963C240.493 46.1164 240.543 46.0863 240.483 46.0963H240.493C240.423 46.1064 240.343 46.1465 240.253 46.1766C240.333 46.1565 240.142 46.2268 240.253 46.1967C240.233 46.1967 240.222 46.2067 240.202 46.2067C240.243 46.1967 240.253 46.1967 240.233 46.2067H240.222C240.233 46.2167 240.202 46.2368 240.182 46.2569L240.222 46.2468C240.222 46.2569 240.202 46.2569 240.192 46.2569C240.263 46.2468 240.192 46.2468 240.263 46.2268C240.172 46.2569 240.273 46.2569 240.172 46.287C240.172 46.297 240.222 46.2669 240.222 46.2769L240.192 46.287L240.233 46.2769C240.233 46.287 240.192 46.297 240.172 46.297H240.162C240.132 46.307 240.172 46.307 240.162 46.307L240.182 46.297C240.212 46.307 240.182 46.3371 240.243 46.3271L240.263 46.317C240.303 46.317 240.243 46.3371 240.263 46.3371C240.283 46.3371 240.293 46.3371 240.293 46.3371C240.273 46.3371 240.253 46.3572 240.222 46.3572C240.263 46.3572 240.253 46.3572 240.333 46.3371L240.303 46.3471C240.333 46.3371 240.353 46.3371 240.363 46.3371C240.333 46.3371 240.313 46.3572 240.273 46.3572C240.202 46.3873 240.353 46.3572 240.243 46.3873C240.333 46.3672 240.293 46.3572 240.313 46.3572C240.343 46.3471 240.383 46.3371 240.373 46.3471C240.373 46.3471 240.253 46.3873 240.263 46.3973H240.253C240.233 46.4073 240.283 46.3973 240.253 46.4073C240.313 46.3973 240.253 46.4174 240.323 46.3973H240.303C240.323 46.3973 240.413 46.3772 240.373 46.3973C240.353 46.3973 240.343 46.4073 240.323 46.4073C240.303 46.4174 240.343 46.4073 240.313 46.4174C240.243 46.4374 240.293 46.4073 240.233 46.4174C240.202 46.4274 240.293 46.4174 240.212 46.4374C240.313 46.4174 240.202 46.4475 240.283 46.4374L240.243 46.4475C240.253 46.4475 240.273 46.4475 240.273 46.4475L240.212 46.4575C240.263 46.4475 240.172 46.4776 240.202 46.4776C240.202 46.4675 240.253 46.4575 240.283 46.4475C240.343 46.4475 240.172 46.4876 240.192 46.4976C240.182 46.4976 240.212 46.4776 240.233 46.4776C240.222 46.4876 240.212 46.4876 240.182 46.4976C240.192 46.5077 240.222 46.4876 240.253 46.4776C240.202 46.4976 240.273 46.4776 240.293 46.4776L240.253 46.4876C240.233 46.5077 240.343 46.4675 240.313 46.4876L240.253 46.4976H240.273L240.222 46.5077C240.263 46.5077 240.253 46.5077 240.243 46.5177C240.273 46.5077 240.323 46.4976 240.323 46.4976C240.293 46.5077 240.283 46.5077 240.293 46.5177C240.263 46.5277 240.233 46.5277 240.273 46.5177L240.233 46.5277C240.202 46.5378 240.233 46.5377 240.233 46.5377C240.233 46.5377 240.233 46.5378 240.243 46.5277L240.303 46.5177C240.283 46.5277 240.273 46.5277 240.263 46.5277C240.273 46.5277 240.293 46.5277 240.293 46.5277C240.253 46.5378 240.222 46.5478 240.202 46.5478H240.243C240.222 46.5578 240.202 46.5678 240.192 46.5678C240.172 46.5779 240.263 46.5578 240.243 46.5779H240.263C240.253 46.5879 240.212 46.608 240.263 46.5979L240.202 46.618C240.222 46.618 240.283 46.5879 240.313 46.5879C240.333 46.5879 240.263 46.608 240.243 46.618C240.273 46.608 240.343 46.608 240.303 46.6381C240.353 46.6983 240.363 46.6882 240.363 46.6882ZM240.634 46.8688C240.624 46.8788 240.604 46.9089 240.604 46.8788C240.624 46.8287 240.624 46.8588 240.634 46.8688ZM240.814 46.5979C240.824 46.5979 240.824 46.608 240.804 46.5979C240.804 46.5979 240.804 46.5979 240.814 46.5979ZM240.584 46.287C240.574 46.287 240.574 46.287 240.584 46.287V46.287ZM240.594 46.2769C240.584 46.2769 240.584 46.2769 240.594 46.2769V46.2769ZM240.694 46.3371H240.684C240.674 46.3471 240.684 46.3371 240.694 46.3371Z" fill="#D2D2D2"/>
<path d="M240.874 46.6379L240.854 46.6279C240.854 46.6279 240.864 46.6379 240.874 46.6379Z" fill="#D2D2D2"/>
<path d="M240.895 46.297L240.875 46.307C240.875 46.307 240.895 46.297 240.895 46.297Z" fill="#D2D2D2"/>
<path d="M240.624 46.2468C240.594 46.2868 240.614 46.2568 240.614 46.2668C240.614 46.2568 240.594 46.2868 240.624 46.2468Z" fill="#D2D2D2"/>
<path d="M240.624 46.2468C240.614 46.2568 240.614 46.2568 240.624 46.2468V46.2468Z" fill="#D2D2D2"/>
<path d="M240.604 46.2668C240.604 46.2668 240.594 46.2768 240.604 46.2668V46.2668Z" fill="#D2D2D2"/>
<path d="M240.644 46.1967L240.624 46.2368L240.644 46.2067V46.1967Z" fill="#D2D2D2"/>
<path d="M240.644 46.2367L240.654 46.2267C240.644 46.2267 240.634 46.2367 240.644 46.2367C240.634 46.2367 240.634 46.2467 240.644 46.2367Z" fill="#D2D2D2"/>
<path d="M240.664 46.1866L240.654 46.1966V46.2066L240.664 46.1866Z" fill="#D2D2D2"/>
<path d="M240.644 46.2769H240.654C240.674 46.2769 240.684 46.2668 240.674 46.2668C240.674 46.2668 240.664 46.2668 240.644 46.2769Z" fill="#D2D2D2"/>
<path d="M240.764 46.2167C240.754 46.2167 240.744 46.2267 240.734 46.2367L240.794 46.2167H240.764Z" fill="#D2D2D2"/>
<path d="M240.784 46.2367C240.804 46.2367 240.834 46.2367 240.824 46.2267C240.814 46.2267 240.794 46.2267 240.784 46.2367Z" fill="#D2D2D2"/>
<path d="M240.734 46.3471V46.337L240.634 46.3571L240.734 46.3471Z" fill="#D2D2D2"/>
<path d="M240.975 46.3972C240.995 46.3872 240.915 46.4073 240.945 46.3872C240.925 46.3872 240.925 46.3972 240.905 46.3972C240.925 46.3972 240.915 46.4073 240.975 46.3972Z" fill="#D2D2D2"/>
<path d="M240.664 46.0662L240.684 46.0562L240.654 46.0662H240.664Z" fill="#D2D2D2"/>
<path d="M240.594 46.0762L240.654 46.0562L240.594 46.0762C240.604 46.0762 240.614 46.0762 240.594 46.0762Z" fill="#D2D2D2"/>
<path d="M240.714 46.9891V46.969C240.704 46.959 240.704 46.949 240.694 46.949L240.714 46.9891Z" fill="#D2D2D2"/>
<path d="M240.373 46.8186L240.413 46.7784L240.373 46.8186Z" fill="#D2D2D2"/>
<path d="M240.232 46.6982C240.232 46.6982 240.303 46.6782 240.232 46.6982V46.6982Z" fill="#D2D2D2"/>
</g>
<defs>
<clipPath id="clip0_37_9771">
<rect width="313.154" height="230" fill="white"/>
</clipPath>
</defs>
</svg>
