<svg width="96" height="96" viewBox="0 0 96 96" fill="none" xmlns="http://www.w3.org/2000/svg">
<g clip-path="url(#clip0_717_10)">
<path d="M48 96C74.5097 96 96 74.5097 96 48C96 21.4903 74.5097 0 48 0C21.4903 0 0 21.4903 0 48C0 74.5097 21.4903 96 48 96Z" fill="#F7F7F9"/>
<path d="M8.80734 28.6239H85.4312V73.1009C85.4312 75.0466 83.8539 76.6239 81.9083 76.6239H12.3303C10.3846 76.6239 8.80734 75.0466 8.80734 73.1009V28.6239Z" fill="white"/>
<path d="M8.80734 23.3394C8.80734 21.3938 10.3846 19.8165 12.3303 19.8165H81.9083C83.8539 19.8165 85.4312 21.3938 85.4312 23.3394V26.8624H8.80734V23.3394Z" fill="#D1C0FF"/>
<path d="M13.1495 24.6605C13.8791 24.6605 14.4706 24.069 14.4706 23.3394C14.4706 22.6098 13.8791 22.0183 13.1495 22.0183C12.4199 22.0183 11.8284 22.6098 11.8284 23.3394C11.8284 24.069 12.4199 24.6605 13.1495 24.6605Z" fill="white"/>
<path d="M17.1373 24.6605C17.8669 24.6605 18.4584 24.069 18.4584 23.3394C18.4584 22.6098 17.8669 22.0183 17.1373 22.0183C16.4077 22.0183 15.8162 22.6098 15.8162 23.3394C15.8162 24.069 16.4077 24.6605 17.1373 24.6605Z" fill="white"/>
<path d="M21.1247 24.6605C21.8543 24.6605 22.4458 24.069 22.4458 23.3394C22.4458 22.6098 21.8543 22.0183 21.1247 22.0183C20.3951 22.0183 19.8036 22.6098 19.8036 23.3394C19.8036 24.069 20.3951 24.6605 21.1247 24.6605Z" fill="white"/>
<path fill-rule="evenodd" clip-rule="evenodd" d="M80.0724 55.0459H24.944V52.4037H80.0724V55.0459Z" fill="#EAE9EF"/>
<path fill-rule="evenodd" clip-rule="evenodd" d="M25.1009 50.2018H52.4037V51.0826H25.1009V50.2018Z" fill="#EAE9EF"/>
<path fill-rule="evenodd" clip-rule="evenodd" d="M25.1009 57.6881H52.4037V58.5688H25.1009V57.6881Z" fill="#EAE9EF"/>
<path fill-rule="evenodd" clip-rule="evenodd" d="M25.1009 65.1743H52.4037V66.055H25.1009V65.1743Z" fill="#EAE9EF"/>
<path fill-rule="evenodd" clip-rule="evenodd" d="M40.1035 40.5138H23.3394V38.4907H40.1035V40.5138Z" fill="#D1C0FF"/>
<path fill-rule="evenodd" clip-rule="evenodd" d="M80.0724 62.5321H24.944V59.8899H80.0724V62.5321Z" fill="#EAE9EF"/>
<path fill-rule="evenodd" clip-rule="evenodd" d="M80.0724 70.0183H24.944V67.3761H80.0724V70.0183Z" fill="#EAE9EF"/>
<path d="M16.8515 55.2595C18.2481 55.2595 19.3803 54.1273 19.3803 52.7307C19.3803 51.3341 18.2481 50.2019 16.8515 50.2019C15.4549 50.2019 14.3227 51.3341 14.3227 52.7307C14.3227 54.1273 15.4549 55.2595 16.8515 55.2595Z" fill="#D1C0FF"/>
<path d="M16.8515 62.7457C18.2481 62.7457 19.3803 61.6135 19.3803 60.2169C19.3803 58.8203 18.2481 57.6881 16.8515 57.6881C15.4549 57.6881 14.3227 58.8203 14.3227 60.2169C14.3227 61.6135 15.4549 62.7457 16.8515 62.7457Z" fill="#D1C0FF"/>
<path d="M16.8515 70.2319C18.2481 70.2319 19.3803 69.0997 19.3803 67.7031C19.3803 66.3065 18.2481 65.1743 16.8515 65.1743C15.4549 65.1743 14.3227 66.3065 14.3227 67.7031C14.3227 69.0997 15.4549 70.2319 16.8515 70.2319Z" fill="#D1C0FF"/>
<mask id="mask0_717_10" style="mask-type:alpha" maskUnits="userSpaceOnUse" x="4" y="31" width="17" height="17">
<path d="M12.4958 47.7094C16.965 47.7094 20.588 44.0864 20.588 39.6172C20.588 35.148 16.965 31.5249 12.4958 31.5249C8.02653 31.5249 4.4035 35.148 4.4035 39.6172C4.4035 44.0864 8.02653 47.7094 12.4958 47.7094Z" fill="white"/>
</mask>
<g mask="url(#mask0_717_10)">
<path d="M12.4958 47.7094C16.965 47.7094 20.588 44.0864 20.588 39.6172C20.588 35.148 16.965 31.5249 12.4958 31.5249C8.02653 31.5249 4.4035 35.148 4.4035 39.6172C4.4035 44.0864 8.02653 47.7094 12.4958 47.7094Z" fill="#ECE1FF"/>
<path d="M12.5845 38.8189C9.38748 38.8565 6.70976 39.8957 4.89255 45.0748C4.89255 45.0748 6.51756 46.7015 7.00479 47.0412L7.73338 46.1356L7.0313 52.4037H18.139L17.3704 46.1356L17.4916 47.1246C17.4916 47.1246 20.5011 46.5871 20.7307 46.5382C18.3506 40.0133 16.0829 38.8599 12.5858 38.8189" fill="#FDA2A8"/>
<path d="M9.70246 37.0584C9.85914 37.0584 9.98616 36.9314 9.98616 36.7747C9.98616 36.6181 9.85914 36.491 9.70246 36.491C9.54578 36.491 9.41876 36.6181 9.41876 36.7747C9.41876 36.9314 9.54578 37.0584 9.70246 37.0584Z" fill="#A687FF"/>
<path d="M10.2932 38.5516L9.81175 38.7768C9.72068 38.8193 9.6125 38.78 9.56996 38.6891L7.60395 34.4856C7.5614 34.3945 7.60074 34.2863 7.6916 34.2438L8.17305 34.0187C8.26413 33.9761 8.37231 34.0155 8.41485 34.1063L10.3809 38.3098C10.4234 38.4007 10.3843 38.5091 10.2932 38.5516Z" fill="#2A1173"/>
<path d="M7.3848 38.1437C7.3848 38.1437 7.35915 36.0529 7.96438 35.3412C8.54717 34.6558 8.4918 35.1971 8.45867 35.3908C8.41869 35.6251 8.5724 36.2579 8.68186 36.5732C8.85567 37.0748 9.49277 38.498 9.49277 38.498" fill="#A687FF"/>
<path d="M8.47941 35.5516C8.63609 35.5516 8.76311 35.4245 8.76311 35.2679C8.76311 35.1112 8.63609 34.9842 8.47941 34.9842C8.32273 34.9842 8.19571 35.1112 8.19571 35.2679C8.19571 35.4245 8.32273 35.5516 8.47941 35.5516Z" fill="#A687FF"/>
<path d="M8.59812 36.028C8.7548 36.028 8.88182 35.901 8.88182 35.7443C8.88182 35.5877 8.7548 35.4606 8.59812 35.4606C8.44144 35.4606 8.31442 35.5877 8.31442 35.7443C8.31442 35.901 8.44144 36.028 8.59812 36.028Z" fill="#A687FF"/>
<path d="M8.72971 36.5011C8.8864 36.5011 9.01341 36.3741 9.01341 36.2174C9.01341 36.0607 8.8864 35.9337 8.72971 35.9337C8.57303 35.9337 8.44601 36.0607 8.44601 36.2174C8.44601 36.3741 8.57303 36.5011 8.72971 36.5011Z" fill="#A687FF"/>
<path d="M8.84626 37.0279C9.00294 37.0279 9.12996 36.9009 9.12996 36.7442C9.12996 36.5875 9.00294 36.4605 8.84626 36.4605C8.68958 36.4605 8.56256 36.5875 8.56256 36.7442C8.56256 36.9009 8.68958 37.0279 8.84626 37.0279Z" fill="#A687FF"/>
<path d="M7.38475 38.1434L3.41232 45.3913L6.09346 47.0381L9.41062 39.1152C9.64536 38.5733 9.42088 37.9422 8.89688 37.6702C8.34873 37.3859 7.67337 37.5971 7.38475 38.1434Z" fill="#A687FF"/>
<path d="M10.9449 36.2692C11.3096 36.809 11.9558 37.1308 12.6474 37.0516C13.6387 36.9374 14.3498 36.0434 14.2356 35.052C14.224 34.9469 14.2032 34.8457 14.1734 34.7484C13.7841 34.6822 13.4623 34.4811 13.2131 34.254C12.4618 35.1961 11.6404 35.8397 10.9449 36.2692Z" fill="#A687FF"/>
<path d="M11.0074 34.1177C11.3123 33.7349 11.747 33.4923 12.2336 33.4365C12.6968 33.3833 13.1562 33.5079 13.5312 33.7842L13.5325 33.7829L13.5506 33.7972C13.5519 33.7985 13.5532 33.7985 13.5545 33.7998L13.5753 33.8154L13.574 33.8167C13.8763 34.0541 14.0943 34.3721 14.202 34.7393L14.2137 34.7795L14.1722 34.773C13.8348 34.7159 13.5143 34.5511 13.2185 34.289C12.5787 35.087 11.8235 35.7592 10.9619 36.2912L10.9399 36.3042L10.9256 36.2834C10.7595 36.0382 10.657 35.7631 10.6233 35.4659C10.5649 34.9793 10.7024 34.5005 11.0074 34.1177Z" fill="#2A1173"/>
<path d="M10.7167 33.3326C10.0273 33.3326 9.46841 32.7737 9.46841 32.0843C9.46841 31.3949 10.0273 30.836 10.7167 30.836C11.4061 30.836 11.965 31.3949 11.965 32.0843C11.965 32.7737 11.4061 33.3326 10.7167 33.3326Z" fill="#2A1173"/>
<path d="M11.9656 32.8328L12.2223 33.3062L11.0713 33.9302L10.8146 33.4568L11.9656 32.8328Z" fill="white"/>
<path d="M11.1331 33.8953C11.1269 33.9015 11.1084 33.9089 11.1096 33.9027L11.1368 33.8842L11.1331 33.8953Z" fill="white"/>
<path d="M11.0615 33.8937C11.073 33.8809 11.0947 33.8605 11.124 33.849C11.0985 33.8694 11.1113 33.8643 11.0807 33.8886C11.0794 33.8949 11.0947 33.8911 11.1049 33.8847C11.0985 33.8911 11.1151 33.8886 11.0985 33.9013C11.0717 33.9077 11.0666 33.9 11.0819 33.8822C11.073 33.8835 11.0666 33.8898 11.0615 33.8937Z" fill="white"/>
<path d="M10.7767 33.4223L10.7777 33.4255C10.7756 33.4244 10.7756 33.4234 10.7767 33.4223Z" fill="white"/>
<path d="M11.0891 33.231C11.0867 33.231 11.0843 33.2286 11.083 33.2262C11.0855 33.2274 11.0879 33.2274 11.0891 33.231Z" fill="white"/>
<path d="M11.12 33.1716C11.1189 33.1727 11.1189 33.1739 11.1189 33.175C11.1178 33.1716 11.1178 33.1694 11.12 33.1716Z" fill="white"/>
<path d="M10.7774 33.4195L10.7754 33.4116C10.7854 33.4155 10.7784 33.4165 10.7774 33.4195Z" fill="white"/>
<path d="M11.0981 33.7904C11.0981 33.7926 11.096 33.7947 11.0939 33.7979C11.0939 33.7957 11.0949 33.7947 11.0949 33.7936L11.0981 33.7904Z" fill="white"/>
<path d="M10.7971 33.5793L10.7984 33.583C10.7946 33.5843 10.7909 33.5868 10.7859 33.5893L10.7971 33.5793Z" fill="white"/>
<path d="M10.8552 33.6964C10.8527 33.6952 10.8778 33.6801 10.8878 33.6738C10.8778 33.6801 10.874 33.6851 10.8728 33.6876C10.869 33.6901 10.8628 33.6926 10.8552 33.6964Z" fill="white"/>
<path d="M10.9824 33.8257L10.98 33.8305L10.9824 33.8257Z" fill="white"/>
<path d="M10.7347 33.4777C10.7297 33.4764 10.7246 33.4752 10.7209 33.4739C10.7259 33.4752 10.7297 33.4764 10.7347 33.4777Z" fill="white"/>
<path d="M11.119 33.7466C11.1201 33.7478 11.1201 33.7489 11.1213 33.7513C11.119 33.7489 11.119 33.7478 11.119 33.7466Z" fill="white"/>
<path d="M11.0764 33.9345L11.0789 33.9358L11.0865 33.9496L11.0764 33.9345Z" fill="white"/>
<path d="M11.1914 33.0899C11.1866 33.0887 11.189 33.0887 11.1914 33.0899V33.0899Z" fill="white"/>
<path d="M12.119 32.8565C12.0924 32.8603 12.1063 32.9022 12.0734 32.9009C12.0835 32.8958 12.0962 32.8502 12.119 32.8565Z" fill="white"/>
<path d="M11.0942 33.7897C11.0942 33.7887 11.0932 33.7876 11.0932 33.7866C11.0942 33.7866 11.0942 33.7876 11.0942 33.7897Z" fill="white"/>
<path d="M11.4044 32.9939C11.4069 32.9989 11.4069 33.0027 11.4082 33.0064C11.4082 33.0027 11.4069 33.0002 11.4044 32.9939Z" fill="white"/>
<path d="M11.2719 33.1127L11.2731 33.1079C11.2731 33.1103 11.2719 33.1115 11.2719 33.1127Z" fill="white"/>
<path d="M11.5055 32.9858C11.5065 32.984 11.5055 32.9812 11.5083 32.9821C11.5083 32.983 11.5083 32.984 11.5092 32.9849C11.5074 32.9821 11.5055 32.9821 11.5055 32.9858Z" fill="white"/>
<path d="M11.5876 32.9419C11.5876 32.9444 11.5888 32.9456 11.5888 32.948H11.5852L11.5876 32.9419Z" fill="white"/>
<path d="M11.3777 33.6231C11.3802 33.6304 11.3826 33.6389 11.3862 33.6462C11.3777 33.628 11.3631 33.6292 11.3777 33.6231Z" fill="white"/>
<path d="M11.0863 33.7961C11.0913 33.7931 11.0932 33.7911 11.0942 33.7891V33.7921C11.0912 33.7941 11.0883 33.7961 11.0863 33.7961Z" fill="white"/>
<path d="M11.619 33.1867L11.6288 33.178C11.6266 33.1813 11.6234 33.1846 11.619 33.1867Z" fill="white"/>
<path d="M11.9728 33.3052L11.968 33.3041C11.9692 33.3017 11.9704 33.3029 11.9728 33.3052Z" fill="white"/>
<path d="M11.6706 33.1588C11.6682 33.149 11.6682 33.1429 11.6682 33.138C11.6694 33.1393 11.6706 33.1405 11.6731 33.1429L11.6706 33.1588Z" fill="white"/>
<path d="M11.2668 33.6336C11.2784 33.6258 11.2901 33.6635 11.3044 33.6816C11.3251 33.6829 11.2979 33.6531 11.294 33.6323C11.3083 33.6362 11.3316 33.6635 11.3381 33.6583C11.3355 33.6518 11.3355 33.6492 11.3303 33.644C11.355 33.6661 11.3602 33.6297 11.39 33.657C11.3887 33.6531 11.3887 33.6505 11.3874 33.6479C11.3952 33.6661 11.4043 33.6829 11.4108 33.6959C11.4173 33.6933 11.4328 33.7115 11.4225 33.6881C11.4199 33.6907 11.4147 33.6816 11.4095 33.6764L11.4212 33.6829C11.4095 33.6479 11.4069 33.6764 11.3939 33.6531C11.4108 33.657 11.438 33.6764 11.4419 33.6622C11.4264 33.6297 11.416 33.6635 11.4121 33.6284L11.4043 33.6479C11.3887 33.5934 11.3978 33.6557 11.3796 33.5986C11.3926 33.5804 11.4082 33.6038 11.4212 33.5843C11.4341 33.5999 11.4341 33.6103 11.4471 33.6258C11.4899 33.6427 11.4251 33.5363 11.4653 33.5687C11.4809 33.5869 11.5042 33.6245 11.5068 33.5973L11.4834 33.5649C11.499 33.5519 11.5211 33.6103 11.5263 33.5765C11.5159 33.5649 11.5068 33.5726 11.5068 33.5662C11.5029 33.5324 11.5263 33.5817 11.5354 33.5765L11.5198 33.5441C11.5405 33.5389 11.573 33.5506 11.5963 33.5454C11.5899 33.5363 11.5808 33.5285 11.5808 33.5168C11.6145 33.5181 11.634 33.4831 11.6482 33.4507L11.6729 33.4727C11.6755 33.4714 11.6703 33.4585 11.6651 33.4546C11.669 33.439 11.6755 33.4714 11.6859 33.4792C11.6924 33.4779 11.6846 33.4597 11.6768 33.4533C11.7066 33.4662 11.7521 33.4753 11.7547 33.4377L11.7469 33.4312C11.7546 33.413 11.7923 33.4779 11.7923 33.4455L11.7871 33.4416C11.8117 33.413 11.8585 33.4195 11.8598 33.3663C11.8857 33.4027 11.8805 33.3326 11.9117 33.3858C11.9143 33.3495 11.9039 33.343 11.9194 33.3118C11.9246 33.3053 11.948 33.3404 11.9584 33.3417L11.9428 33.3131L11.97 33.3365L11.9571 33.3001L11.9688 33.3027C11.9662 33.3066 11.9688 33.3183 11.9739 33.3274C11.9921 33.3339 11.9921 33.2924 11.9843 33.2781C11.9973 33.2807 12.0129 33.2833 12.0245 33.2872C12.0194 33.2755 12.0129 33.2742 12.0051 33.269C12.0349 33.2898 11.9934 33.2379 12.0116 33.2612C12.0155 33.2677 12.022 33.2768 12.0258 33.2833C12.0181 33.2651 12.0194 33.2651 12.0284 33.269L12.0116 33.2534C12.009 33.2482 12.0258 33.2573 12.031 33.2547C12.0414 33.2612 12.0816 33.282 12.0907 33.282L12.0531 33.2638C12.079 33.2742 12.0648 33.2716 12.0985 33.2833C12.0985 33.2794 12.0544 33.2625 12.0414 33.2573L12.0583 33.2612C12.0453 33.256 12.0388 33.2534 12.0233 33.2482C12.0505 33.2573 11.9817 33.2327 12.0297 33.2469L12.0155 33.243C12.0142 33.2418 12.0284 33.243 12.0284 33.2405C12.0635 33.243 12.0544 33.2405 12.0803 33.2392C12.0661 33.2327 12.0388 33.2314 12.0401 33.2275C12.0531 33.2197 12.0635 33.2197 12.0791 33.2119C12.0531 33.2197 12.0531 33.2132 12.0362 33.2236C12.0388 33.2197 12.0336 33.2067 12.0388 33.173C12.0505 33.1704 12.0557 33.1717 12.0635 33.1652C12.0648 33.1587 12.0479 33.16 12.0375 33.1665L12.0362 33.1691C12.0557 33.1211 11.9324 33.1405 11.9688 33.0912L11.9675 33.0938L11.9804 33.0562C11.9701 33.0471 11.9662 33.0718 11.948 33.0718C11.9623 33.051 11.9506 33.0341 11.948 33.0354C11.9428 33.0341 11.9376 33.0354 11.948 33.0225C11.9168 33.0471 11.9181 33.0471 11.9194 33.0393C11.922 33.0328 11.9233 33.0186 11.9104 33.0471L11.9194 33.0264C11.9285 33.0043 11.913 33.0367 11.9117 33.0419C11.9181 33.0251 11.9194 33.0225 11.9246 33.0095C11.9259 33.003 11.9246 32.9978 11.9233 32.9952C11.9091 33.003 11.8961 33.051 11.9039 33.0627C11.9052 33.0679 11.8701 32.9719 11.8714 33.0212L11.8948 33.0484C11.839 33.0315 11.8208 33.0899 11.7689 33.0783C11.7754 33.0834 11.7793 33.0925 11.7832 33.0912C11.7871 33.1172 11.7559 33.1068 11.7456 33.0899C11.7417 33.0951 11.7534 33.1068 11.7547 33.1172C11.7547 33.1341 11.7209 33.099 11.7287 33.1237C11.73 33.1276 11.7352 33.1302 11.7365 33.1302C11.7261 33.1224 11.7144 33.1457 11.7066 33.1172C11.7001 33.1366 11.6755 33.1198 11.6729 33.1405C11.6508 33.1159 11.6573 33.1665 11.634 33.1276C11.6573 33.1691 11.6288 33.1743 11.6093 33.1587C11.6184 33.1691 11.6093 33.1756 11.6223 33.1911C11.6119 33.1963 11.5989 33.1924 11.5899 33.1704C11.5989 33.2301 11.5328 33.1496 11.5574 33.2184C11.5172 33.2119 11.4822 33.2106 11.451 33.2158C11.4744 33.256 11.4822 33.2041 11.5042 33.2482C11.4705 33.2443 11.4367 33.2171 11.4186 33.2405C11.416 33.2495 11.4315 33.256 11.438 33.2625C11.4043 33.2586 11.3926 33.2924 11.3589 33.2807C11.3615 33.2846 11.3654 33.2872 11.3693 33.2898C11.3641 33.2911 11.3628 33.3014 11.3524 33.282L11.3589 33.2846C11.3511 33.2534 11.3109 33.2366 11.3031 33.2223C11.3394 33.2716 11.2888 33.2469 11.3368 33.3092C11.3316 33.3066 11.3238 33.3001 11.3174 33.2872C11.3148 33.2937 11.3174 33.3014 11.3303 33.3131C11.3096 33.3118 11.3044 33.2885 11.2901 33.2963C11.2953 33.3053 11.2992 33.3079 11.307 33.317C11.2901 33.3027 11.2732 33.2898 11.2655 33.3027C11.2693 33.3079 11.2719 33.3157 11.2745 33.3131C11.2525 33.3209 11.2148 33.2846 11.2019 33.3131C11.2304 33.3495 11.2019 33.33 11.2187 33.365L11.2019 33.3611L11.198 33.3417C11.1876 33.3482 11.1655 33.3274 11.1616 33.3443L11.1772 33.3546L11.1539 33.3585L11.1578 33.3391C11.1383 33.3274 11.1357 33.295 11.1266 33.3118C11.1318 33.3144 11.1162 33.3183 11.1214 33.3404C11.1097 33.3326 11.0994 33.3235 11.0955 33.3365C11.0994 33.3482 11.1175 33.3728 11.1201 33.3819C11.0994 33.3559 11.0916 33.3871 11.0682 33.3598C11.0747 33.3663 11.0838 33.3832 11.0851 33.3884L11.0682 33.3676C11.0669 33.378 11.0682 33.3819 11.0773 33.3949C11.0656 33.4065 11.0578 33.3495 11.0514 33.3767C11.0539 33.378 11.0552 33.3819 11.0591 33.3832C11.0475 33.4027 11.0176 33.3871 11.0085 33.4065C11.0228 33.4429 11.0267 33.4078 11.0371 33.439C11.0072 33.4468 10.9761 33.4195 10.9631 33.4364V33.4312C10.919 33.3923 10.9722 33.4572 10.9449 33.4429C10.9501 33.4442 10.9735 33.4623 10.9683 33.4584C10.9683 33.4688 10.9398 33.4585 10.9021 33.4597L10.9203 33.4662C10.9294 33.4753 10.9164 33.4779 10.9177 33.4831L10.919 33.4844C10.9008 33.4805 10.906 33.4857 10.8775 33.4753C10.9372 33.5 10.9255 33.5013 10.9151 33.5104C10.9047 33.5168 10.8956 33.5311 10.9372 33.5363C10.9359 33.5337 10.9475 33.5311 10.9488 33.5324C10.9462 33.5376 10.9437 33.5415 10.9424 33.548C10.9177 33.5519 10.9268 33.5493 10.9047 33.5493C10.8917 33.5545 10.884 33.5636 10.8866 33.5687C10.8969 33.5545 10.9255 33.5597 10.9398 33.5571C10.932 33.5584 10.9255 33.5623 10.9177 33.5649C10.9631 33.5597 10.8723 33.583 10.9073 33.5869L10.919 33.5804C10.9151 33.5882 10.9034 33.6012 10.9112 33.6064C10.9372 33.596 10.919 33.5934 10.9385 33.583C10.9424 33.5934 10.9021 33.6258 10.9307 33.6207C10.9359 33.6129 10.932 33.6077 10.9372 33.5999C10.9709 33.5934 10.9644 33.5986 10.9722 33.6025H10.9709L10.9917 33.6103H10.9813C10.9242 33.6557 10.9826 33.6401 10.9488 33.6777C10.98 33.6414 10.9709 33.6635 10.9969 33.6466C11.0072 33.6466 11.0189 33.6479 11.0254 33.6414C11.0072 33.6609 11.0501 33.644 11.0228 33.6726C11.0319 33.6687 11.028 33.6803 11.0501 33.6661C11.0488 33.679 11.0332 33.6726 11.0228 33.679C11.0007 33.7102 11.0786 33.6933 11.0475 33.7374C11.0397 33.7647 11.0111 33.7841 11.0059 33.8088C11.0228 33.8062 11.0358 33.7867 11.0358 33.7867C11.0539 33.7893 11.0552 33.7971 11.0501 33.8114C11.0565 33.8049 11.0643 33.8036 11.076 33.801C11.0773 33.8088 11.0462 33.8231 11.0643 33.8257C11.0734 33.8192 11.0877 33.8075 11.0968 33.7997C11.0929 33.8127 11.0812 33.8296 11.0773 33.8425C11.0942 33.8361 11.0981 33.8244 11.1071 33.8166C11.1058 33.8296 11.1059 33.849 11.0838 33.8646L11.0721 33.8633C11.0734 33.8672 11.0942 33.8542 11.0968 33.849C11.111 33.8309 11.0825 33.8425 11.0721 33.8464L11.0695 33.8555C11.0137 33.8776 11.0643 33.827 11.0552 33.8166L11.0202 33.8425L11.0449 33.8127C11.0332 33.8153 11.0111 33.8257 11.0085 33.8348C10.9852 33.8361 11.0176 33.8192 10.993 33.8231C10.9891 33.8244 10.9878 33.8257 10.9865 33.827L10.993 33.8127C10.9865 33.8192 10.9657 33.8257 10.9735 33.8283C10.9436 33.8244 10.9891 33.788 10.9566 33.7984L10.9553 33.801C10.9566 33.7725 10.9826 33.7841 11.0059 33.7504L10.9307 33.7777L10.9579 33.7608C10.9553 33.7595 10.9514 33.7556 10.9411 33.7634C10.9553 33.7452 10.954 33.7582 10.9696 33.7439C10.9385 33.7478 10.9657 33.7089 10.9203 33.7309C10.9398 33.7154 10.9424 33.7322 10.9514 33.7128C10.9021 33.7361 10.9527 33.6959 10.9255 33.6972C10.9021 33.7141 10.9203 33.7154 10.893 33.718C10.932 33.6894 10.8736 33.7037 10.8775 33.692C10.9099 33.6739 10.8814 33.6674 10.8853 33.6479C10.8736 33.6531 10.8554 33.6362 10.8321 33.6207L10.8269 33.6232C10.8606 33.6038 10.845 33.5921 10.8463 33.5778C10.8243 33.5843 10.8152 33.5882 10.81 33.5986L10.8035 33.5856C10.8139 33.5791 10.8191 33.5739 10.8191 33.5662L10.7905 33.5752C10.7814 33.5558 10.8087 33.5389 10.7763 33.5181C10.8074 33.5194 10.8684 33.5324 10.8814 33.5181C10.8645 33.5168 10.8347 33.5142 10.8308 33.5181C10.8321 33.5168 10.8424 33.5129 10.8334 33.5104L10.8087 33.5155C10.7918 33.5065 10.8308 33.5129 10.8243 33.5065C10.7996 33.5039 10.8035 33.5 10.7853 33.4987C10.784 33.5 10.7983 33.5052 10.7905 33.5078C10.7814 33.5 10.762 33.487 10.7399 33.4805C10.7542 33.4831 10.7737 33.4857 10.7737 33.4805C10.7672 33.4649 10.7399 33.4688 10.7205 33.4572C10.736 33.4572 10.7114 33.4416 10.7516 33.4507C10.749 33.4455 10.7295 33.4403 10.7166 33.4351C10.7192 33.4338 10.7205 33.4325 10.7205 33.4286C10.7399 33.4234 10.7568 33.4143 10.7815 33.4299L10.7827 33.4325C10.784 33.4325 10.784 33.4325 10.7853 33.4325C10.845 33.4351 10.8165 33.3962 10.858 33.3884L10.8489 33.3819C10.8749 33.3819 10.8892 33.3676 10.9151 33.3793C10.919 33.3767 10.9125 33.3598 10.9021 33.3508C10.919 33.3508 10.9268 33.3598 10.9346 33.3365C10.9125 33.3274 10.9307 33.3209 10.9151 33.3326C10.9268 33.317 10.9255 33.2988 10.9501 33.317C10.9333 33.2963 10.9436 33.2833 10.9527 33.2872L10.954 33.3079C10.9618 33.3079 10.967 33.3027 10.9709 33.2975L10.9514 33.269C10.9553 33.2184 11.0293 33.3079 11.0137 33.2366C11.0319 33.2547 11.0085 33.2586 11.028 33.2807C11.0371 33.2703 11.0241 33.221 11.028 33.2184C11.0345 33.1937 11.0669 33.2547 11.076 33.2353C11.0799 33.2469 11.0942 33.2768 11.111 33.2807C11.1201 33.2703 11.0994 33.2275 11.0877 33.2223C11.0851 33.2223 11.0851 33.2275 11.0877 33.2301C11.0825 33.2275 11.0747 33.2262 11.0721 33.2119L11.0799 33.2223C11.0799 33.208 11.0955 33.2015 11.0825 33.1847C11.0968 33.1898 11.0955 33.2002 11.0929 33.2093C11.0981 33.186 11.1149 33.1963 11.124 33.1782C11.1253 33.186 11.1292 33.1989 11.1318 33.1976C11.1461 33.173 11.1526 33.2132 11.1694 33.2106C11.1681 33.1898 11.1448 33.173 11.1668 33.1782C11.1694 33.1626 11.1526 33.1483 11.1448 33.1418C11.1694 33.1561 11.1629 33.1146 11.1681 33.1068L11.1565 33.1016C11.1629 33.1042 11.1668 33.1029 11.1707 33.1003L11.1785 33.1237C11.1811 33.1172 11.1837 33.1159 11.1785 33.1068C11.1902 33.1185 11.1954 33.1444 11.2136 33.16C11.2136 33.1457 11.2369 33.1626 11.2226 33.1328C11.211 33.1522 11.2084 33.1029 11.1915 33.1055C11.1967 33.1068 11.1993 33.1055 11.2019 33.099C11.2006 33.0951 11.198 33.0938 11.1954 33.0925C11.198 33.0575 11.2213 33.1211 11.2369 33.1107C11.2265 33.0951 11.2239 33.0783 11.2291 33.0796C11.2226 33.0834 11.2408 33.1081 11.2538 33.1172C11.2577 33.099 11.2706 33.1198 11.2758 33.1159L11.2719 33.125C11.2836 33.1405 11.2875 33.1353 11.2979 33.1353C11.2914 33.1224 11.2862 33.1302 11.2862 33.1237C11.3109 33.147 11.2901 33.0834 11.3122 33.0964C11.3122 33.0821 11.2966 33.0653 11.2966 33.0549C11.3213 33.0692 11.2992 33.0251 11.3225 33.0341C11.3303 33.0588 11.3264 33.0536 11.3485 33.0692L11.3174 33.0666L11.3498 33.0899C11.3433 33.0938 11.3277 33.0847 11.3251 33.0899C11.342 33.1042 11.3381 33.099 11.3446 33.1185C11.3368 33.0808 11.3745 33.1276 11.3732 33.099L11.3433 33.0445C11.3472 33.0121 11.3874 33.0562 11.4017 33.0315L11.4004 33.0445C11.4147 33.064 11.4147 33.0406 11.4264 33.0458C11.416 33.0276 11.4173 33.0186 11.4134 33.0069C11.4199 33.0199 11.429 32.9965 11.4497 33.0315L11.4458 33.003C11.4575 32.9835 11.4938 33.0432 11.5068 33.0289C11.4912 33.0121 11.4912 32.9952 11.4731 32.9874C11.4783 32.9848 11.4822 32.9783 11.4886 32.9913C11.486 32.9783 11.5172 33.0069 11.5133 32.9874C11.5198 32.9939 11.5315 33.0121 11.5367 33.0082C11.5354 33.0043 11.5315 32.9991 11.5315 32.9991C11.5367 33.0082 11.5483 33.0056 11.5535 33.0289C11.5405 32.9628 11.6041 33.0069 11.5925 32.9511C11.608 32.9511 11.6262 32.9485 11.6379 32.9433C11.634 32.9381 11.6327 32.9342 11.6314 32.9368C11.6379 32.9122 11.669 32.9835 11.6755 32.955C11.669 32.9212 11.6573 32.9446 11.6573 32.9303C11.6275 32.8693 11.682 32.9277 11.6755 32.8862L11.6703 32.8836C11.6677 32.859 11.704 32.894 11.717 32.8823C11.717 32.8823 11.7131 32.8771 11.7118 32.8732C11.7378 32.8979 11.7624 32.8979 11.7806 32.8992C11.7637 32.8784 11.7676 32.8901 11.7572 32.8654C11.765 32.8654 11.7754 32.9044 11.7923 32.9044C11.7897 32.8888 11.7923 32.8732 11.7806 32.8473L11.7676 32.8525C11.7572 32.8161 11.7819 32.846 11.7884 32.8356L11.7793 32.8213C11.8117 32.8097 11.8247 32.8486 11.8494 32.8317V32.846C11.8714 32.881 11.8559 32.8161 11.8753 32.8408V32.7941C11.8883 32.7993 11.9117 32.82 11.9246 32.8213C11.9194 32.7889 11.8987 32.7824 11.8831 32.7707C11.8935 32.7642 11.9207 32.7539 11.9233 32.7746C11.9194 32.772 11.9156 32.7629 11.9104 32.7733C11.922 32.8032 11.9324 32.8161 11.9493 32.8071C11.9584 32.7422 11.9804 32.7396 12.0038 32.7201C12.0116 32.7266 12.0194 32.7279 12.0323 32.7071C12.0388 32.7811 12.0829 32.7733 12.1076 32.8304C12.0544 32.8629 12.1141 32.846 12.0661 32.8914C12.0674 32.9031 12.07 32.9057 12.0739 32.9044C12.0881 32.9044 12.1037 32.907 12.1206 32.9096C12.14 32.907 12.1271 32.8914 12.1387 32.8836C12.1569 32.907 12.1673 32.8784 12.1906 32.8888C12.1686 32.8953 12.1699 32.9187 12.1803 32.9199C12.1699 32.9212 12.1595 32.9212 12.1465 32.9186C12.131 32.9615 12.2036 32.9122 12.1867 32.9511L12.201 32.9355C12.1958 32.9511 12.2218 32.9744 12.1829 33.0095C12.1906 33.0082 12.2075 33.0017 12.2088 32.9952C12.2296 33.0173 12.1919 33.077 12.2296 33.0821L12.2425 33.0731C12.2412 33.0796 12.2218 33.0951 12.2387 33.0938C12.2438 33.0899 12.2516 33.0847 12.2529 33.086C12.2503 33.0925 12.2335 33.1081 12.249 33.1172L12.2594 33.1003C12.3022 33.1379 12.2555 33.1821 12.2581 33.2093C12.3061 33.2015 12.3412 33.2353 12.3593 33.2534H12.3671C12.397 33.2988 12.3801 33.3274 12.3697 33.3508C12.3567 33.3533 12.3438 33.3559 12.3321 33.3572C12.3671 33.3949 12.2646 33.4169 12.2425 33.461C12.2438 33.4507 12.2127 33.4364 12.2023 33.4364C12.1984 33.4494 12.153 33.426 12.1829 33.4584L12.1855 33.4559C12.2049 33.4922 12.1738 33.4974 12.1556 33.5078L12.1245 33.4623C12.1322 33.5493 12.0414 33.474 12.0609 33.5454C12.0479 33.5363 12.0401 33.5415 12.0271 33.5324L12.0414 33.5584C12.0271 33.5739 12.0207 33.5817 11.996 33.5882L12.0103 33.6038C11.9986 33.6116 11.9545 33.5376 11.9428 33.5415L11.961 33.5817C11.9389 33.5921 11.9363 33.6375 11.8961 33.6142C11.9 33.6194 11.9065 33.631 11.9104 33.6297C11.9013 33.6362 11.8857 33.6764 11.8611 33.6219C11.8792 33.657 11.8416 33.6375 11.8208 33.6284L11.8364 33.6531C11.8091 33.6258 11.804 33.6168 11.7858 33.6155C11.7845 33.6206 11.7936 33.6375 11.7949 33.6284C11.791 33.6479 11.7741 33.609 11.7676 33.6297L11.7819 33.644C11.7715 33.6518 11.7676 33.6427 11.7521 33.6271C11.7391 33.6207 11.7352 33.6453 11.7456 33.6687C11.7365 33.6557 11.7209 33.6401 11.717 33.6505C11.7209 33.6596 11.7261 33.6635 11.7287 33.6661C11.7196 33.6933 11.6859 33.6518 11.6859 33.6829C11.6898 33.692 11.6911 33.6959 11.6924 33.6998C11.7066 33.6907 11.717 33.6829 11.7157 33.6829C11.7287 33.7063 11.7196 33.7167 11.7456 33.7439C11.7261 33.7309 11.6898 33.7011 11.6846 33.7193C11.6859 33.7219 11.6859 33.7245 11.6872 33.7284L11.6898 33.7309C11.6885 33.7348 11.6846 33.7335 11.6807 33.7309C11.6794 33.7374 11.6781 33.7413 11.6755 33.7426C11.6846 33.7634 11.6677 33.7608 11.6625 33.7647C11.6495 33.7387 11.6431 33.7465 11.6392 33.7219C11.6392 33.7245 11.6418 33.7245 11.6469 33.7232C11.6482 33.7232 11.6495 33.7232 11.6508 33.7245L11.6495 33.7219C11.6534 33.7206 11.6586 33.718 11.6651 33.7154C11.6534 33.705 11.6431 33.6959 11.6444 33.7141C11.6327 33.6998 11.6197 33.6842 11.6132 33.6764C11.6249 33.7167 11.6197 33.7439 11.6301 33.7673C11.6041 33.7621 11.5834 33.7803 11.5457 33.7387C11.5367 33.7348 11.547 33.7556 11.5496 33.7647C11.5548 33.7686 11.5587 33.7647 11.5639 33.7712C11.547 33.7647 11.5315 33.7829 11.5107 33.7504C11.5068 33.7725 11.5354 33.7777 11.5146 33.7816L11.5224 33.7906C11.5172 33.8633 11.4199 33.7348 11.4186 33.8244C11.4186 33.8192 11.4186 33.8166 11.4173 33.8101C11.39 33.8646 11.3122 33.8309 11.2953 33.9022C11.2888 33.9191 11.2758 33.8983 11.259 33.8854L11.2706 33.9139L11.2408 33.8893C11.2097 33.8763 11.246 33.9736 11.1993 33.9425L11.1928 33.9217C11.1863 33.9295 11.1603 33.9243 11.1733 33.945C11.1707 33.9425 11.1604 33.9269 11.1616 33.9386L11.1694 33.9528L11.1357 33.9386C11.1253 33.958 11.1694 33.9944 11.1474 34.0099C11.1357 34.0086 11.1007 33.9814 11.0981 33.9697C11.1007 33.9671 11.102 33.9554 11.0942 33.9412L11.0825 33.9373C11.0578 33.8957 11.028 33.8555 11.0319 33.8153L11.0591 33.8348L11.0527 33.8114L11.041 33.8166C11.0371 33.7932 11.0501 33.8088 11.0617 33.8179C11.0565 33.8062 11.0539 33.7971 11.0552 33.7919L11.0903 33.8257C11.0825 33.8075 11.0669 33.7958 11.0708 33.7816C11.0877 33.7971 11.0851 33.8218 11.102 33.8296C11.0981 33.8062 11.0877 33.7919 11.1033 33.8049C11.0981 33.7932 11.0929 33.7867 11.0877 33.7841C11.102 33.7932 11.1084 33.7803 11.124 33.801C11.1175 33.7738 11.15 33.7945 11.1279 33.7556C11.1357 33.7647 11.1565 33.7816 11.1642 33.779C11.1266 33.7361 11.185 33.7634 11.1552 33.7141C11.1876 33.753 11.1954 33.7167 11.2226 33.7335C11.22 33.7309 11.2148 33.7245 11.2148 33.7271C11.2213 33.7193 11.2161 33.705 11.2174 33.6933C11.2382 33.7284 11.2551 33.7296 11.2745 33.7478C11.2655 33.7076 11.246 33.7089 11.2304 33.6739C11.246 33.7037 11.2642 33.6933 11.2732 33.7193C11.2693 33.6933 11.2745 33.705 11.2616 33.6739C11.2875 33.718 11.2732 33.6777 11.294 33.7011C11.2927 33.6726 11.2745 33.657 11.294 33.6648C11.2862 33.644 11.2668 33.6336 11.2668 33.6336ZM11.6002 33.5532C11.5976 33.5532 11.595 33.5545 11.5937 33.5545C11.595 33.5545 11.5976 33.5532 11.6002 33.5532ZM11.6262 33.5402C11.6236 33.5428 11.6197 33.5454 11.6158 33.5467C11.6197 33.5558 11.6262 33.5649 11.6275 33.5623C11.6236 33.5584 11.6262 33.5493 11.6262 33.5402ZM11.6703 33.7465C11.6768 33.7478 11.6742 33.7426 11.6729 33.7361C11.6703 33.7361 11.6677 33.7374 11.6638 33.7361L11.6612 33.7335C11.6651 33.7387 11.6677 33.7439 11.6703 33.7465Z" fill="white"/>
<path d="M11.6457 33.7154C11.6446 33.7154 11.6446 33.7143 11.6435 33.7143C11.6435 33.7121 11.6435 33.7098 11.6424 33.7087L11.6469 33.7154H11.6457Z" fill="white"/>
<path d="M10.7784 33.4275C10.7795 33.4275 10.7795 33.4285 10.7816 33.4296C10.7795 33.4285 10.7795 33.4275 10.7784 33.4275Z" fill="white"/>
<path d="M11.939 33.3066L11.9414 33.3127L11.9366 33.309L11.939 33.3066Z" fill="white"/>
<path d="M10.9371 33.5567C10.9393 33.5567 10.9415 33.5556 10.9437 33.5556C10.9426 33.5567 10.9404 33.5567 10.9371 33.5567Z" fill="white"/>
<path d="M10.9686 33.6025L10.9824 33.6063C10.9749 33.605 10.9711 33.6038 10.9686 33.6025Z" fill="white"/>
<path d="M11.0061 33.6416C11.0031 33.6436 11.0001 33.6456 10.9981 33.6466L11.0061 33.6416Z" fill="white"/>
<path d="M11.3622 33.2873C11.3633 33.2873 11.3633 33.2873 11.3644 33.2873C11.3699 33.2895 11.3666 33.2895 11.3622 33.2873Z" fill="white"/>
<path d="M11.1166 33.3432C11.1216 33.3469 11.1253 33.3494 11.1291 33.3519C11.1266 33.3544 11.1241 33.3569 11.1166 33.3432Z" fill="white"/>
<path d="M11.6155 33.1901V33.1884H11.6172L11.6155 33.1901Z" fill="white"/>
<path d="M11.1394 33.3455C11.1383 33.3519 11.1351 33.3519 11.1319 33.3497C11.133 33.3476 11.1351 33.3434 11.1394 33.3455Z" fill="white"/>
<path d="M11.1232 33.8296L11.1253 33.8306C11.1242 33.8317 11.1232 33.8317 11.1221 33.8328L11.1232 33.8296Z" fill="white"/>
<path d="M11.1213 33.8334L11.1203 33.8366C11.1192 33.8355 11.1192 33.8355 11.1213 33.8334Z" fill="white"/>
<path d="M11.1168 33.8447L11.12 33.8373C11.12 33.8394 11.1222 33.8405 11.1168 33.8447Z" fill="white"/>
<path d="M11.0803 33.7753L11.0878 33.7711C11.0867 33.7721 11.0835 33.7732 11.0803 33.7753Z" fill="white"/>
<path d="M11.0726 33.7569C11.0764 33.7594 11.0978 33.7569 11.0953 33.7657L11.089 33.7708C11.0991 33.7607 11.0587 33.7695 11.0726 33.7569Z" fill="white"/>
<path d="M10.9157 33.7439L10.9307 33.7551C10.9195 33.7576 10.9045 33.7614 10.907 33.7688C10.8684 33.7663 10.9307 33.7614 10.9157 33.7439Z" fill="white"/>
<path d="M10.8749 33.7051C10.8749 33.7147 10.8617 33.7123 10.857 33.7159C10.8629 33.7063 10.8641 33.7039 10.8749 33.7051Z" fill="white"/>
<path d="M10.8956 33.335L10.8788 33.3157C10.8908 33.3133 10.8848 33.3229 10.8956 33.335Z" fill="white"/>
<path d="M11.0371 33.4153L11.0383 33.4321L11.0252 33.4141L11.0371 33.4153Z" fill="white"/>
<path d="M10.9857 33.2287L10.9806 33.2262L10.9958 33.23L10.9857 33.2287Z" fill="white"/>
<path d="M11.5603 32.9279L11.5742 32.9568C11.5666 32.9543 11.549 32.9228 11.5603 32.9279Z" fill="white"/>
<path d="M11.8408 32.8126C11.8408 32.7949 11.8496 32.7785 11.8584 32.7912C11.8496 32.7987 11.8445 32.8151 11.8408 32.8126Z" fill="white"/>
<path d="M12.1301 33.5027L12.1388 33.5102L12.1263 33.5065L12.1301 33.5027Z" fill="white"/>
</g>
<mask id="mask1_717_10" style="mask-type:alpha" maskUnits="userSpaceOnUse" x="72" y="71" width="17" height="17">
<path d="M80.3124 87.524C75.8432 87.524 72.2202 83.9009 72.2202 79.4317C72.2202 74.9625 75.8432 71.3394 80.3124 71.3394C84.7817 71.3394 88.4047 74.9625 88.4047 79.4317C88.4047 83.9009 84.7817 87.524 80.3124 87.524Z" fill="white"/>
</mask>
<g mask="url(#mask1_717_10)">
<path d="M80.3124 87.524C75.8432 87.524 72.2202 83.9009 72.2202 79.4317C72.2202 74.9625 75.8432 71.3394 80.3124 71.3394C84.7817 71.3394 88.4047 74.9625 88.4047 79.4317C88.4047 83.9009 84.7817 87.524 80.3124 87.524Z" fill="#ECE1FF"/>
<path d="M80.2237 78.6334C83.4207 78.671 86.0984 79.7102 87.9156 84.8893C87.9156 84.8893 86.2906 86.516 85.8034 86.8557L85.0748 85.9501L85.7769 92.2182H74.6692L75.4378 85.9501L75.3166 86.9391C75.3166 86.9391 72.3071 86.4016 72.0775 86.3527C74.4576 79.8278 76.7253 78.6744 80.2224 78.6334" fill="#FDA2A8"/>
<path d="M83.1057 76.8729C82.9491 76.8729 82.822 76.7459 82.822 76.5892C82.822 76.4326 82.9491 76.3055 83.1057 76.3055C83.2624 76.3055 83.3894 76.4326 83.3894 76.5892C83.3894 76.7459 83.2624 76.8729 83.1057 76.8729Z" fill="#A687FF"/>
<path d="M82.515 78.3661L82.9964 78.5913C83.0875 78.6338 83.1957 78.5945 83.2382 78.5036L85.2043 74.3001C85.2468 74.209 85.2075 74.1008 85.1166 74.0583L84.6351 73.8332C84.5441 73.7906 84.4359 73.83 84.3933 73.9208L82.4273 78.1244C82.3848 78.2152 82.4239 78.3236 82.515 78.3661Z" fill="#2A1173"/>
<path d="M85.4234 77.9582C85.4234 77.9582 85.4491 75.8674 84.8438 75.1557C84.261 74.4703 84.3164 75.0116 84.3495 75.2053C84.3895 75.4396 84.2358 76.0724 84.1263 76.3877C83.9525 76.8893 83.3154 78.3125 83.3154 78.3125" fill="#A687FF"/>
<path d="M84.3288 75.3661C84.1721 75.3661 84.0451 75.239 84.0451 75.0824C84.0451 74.9257 84.1721 74.7987 84.3288 74.7987C84.4855 74.7987 84.6125 74.9257 84.6125 75.0824C84.6125 75.239 84.4855 75.3661 84.3288 75.3661Z" fill="#A687FF"/>
<path d="M84.2101 75.8426C84.0534 75.8426 83.9264 75.7155 83.9264 75.5589C83.9264 75.4022 84.0534 75.2752 84.2101 75.2752C84.3668 75.2752 84.4938 75.4022 84.4938 75.5589C84.4938 75.7155 84.3668 75.8426 84.2101 75.8426Z" fill="#A687FF"/>
<path d="M84.0785 76.3156C83.9218 76.3156 83.7948 76.1886 83.7948 76.0319C83.7948 75.8752 83.9218 75.7482 84.0785 75.7482C84.2352 75.7482 84.3622 75.8752 84.3622 76.0319C84.3622 76.1886 84.2352 76.3156 84.0785 76.3156Z" fill="#A687FF"/>
<path d="M83.9619 76.8424C83.8053 76.8424 83.6782 76.7154 83.6782 76.5587C83.6782 76.402 83.8053 76.275 83.9619 76.275C84.1186 76.275 84.2456 76.402 84.2456 76.5587C84.2456 76.7154 84.1186 76.8424 83.9619 76.8424Z" fill="#A687FF"/>
<path d="M85.4234 77.9579L89.3959 85.2058L86.7147 86.8526L83.3976 78.9297C83.1628 78.3878 83.3873 77.7567 83.9113 77.4847C84.4595 77.2004 85.1348 77.4116 85.4234 77.9579Z" fill="#A687FF"/>
<path d="M81.8633 76.0837C81.4986 76.6235 80.8524 76.9453 80.1608 76.8661C79.1695 76.752 78.4584 75.8579 78.5726 74.8665C78.5842 74.7614 78.605 74.6602 78.6348 74.5629C79.0241 74.4967 79.3459 74.2956 79.5951 74.0685C80.3464 75.0106 81.1678 75.6542 81.8633 76.0837Z" fill="#A687FF"/>
<path d="M81.8008 73.9322C81.4959 73.5494 81.0612 73.3068 80.5746 73.251C80.1114 73.1978 79.652 73.3224 79.277 73.5987L79.2757 73.5974L79.2576 73.6117C79.2563 73.613 79.255 73.613 79.2537 73.6143L79.2329 73.6299L79.2342 73.6312C78.9319 73.8686 78.7139 74.1866 78.6062 74.5538L78.5945 74.594L78.636 74.5875C78.9734 74.5304 79.2939 74.3656 79.5897 74.1035C80.2295 74.9015 80.9847 75.5737 81.8463 76.1057L81.8683 76.1187L81.8826 76.0979C82.0487 75.8527 82.1512 75.5776 82.1849 75.2804C82.2433 74.7938 82.1058 74.315 81.8008 73.9322Z" fill="#2A1173"/>
</g>
</g>
<defs>
<clipPath id="clip0_717_10">
<rect width="96" height="96" fill="white"/>
</clipPath>
</defs>
</svg>
