<svg width="96" height="96" viewBox="0 0 96 96" fill="none" xmlns="http://www.w3.org/2000/svg">
<path d="M86.3103 69.8944H23.0406V71.7096H86.3103V69.8944Z" fill="#7B7789"/>
<path d="M63.7224 66.2652H45.6289V69.8839H63.7224V66.2652Z" fill="#B3B0C0"/>
<path d="M63.7178 66.2652H45.6334V67.1654H63.7178V66.2652Z" fill="#7B7789"/>
<path d="M94.9578 14.7116H14.3139V66.3187H94.9578V14.7116Z" fill="white"/>
<path d="M94.9578 14.7116H14.3139V66.3186H94.9578V14.7116Z" fill="#EAE9EF"/>
<path fill-rule="evenodd" clip-rule="evenodd" d="M14.3513 14.7002H95V66.2681H14.3513V14.7002ZM15.3885 15.7374V65.2309H93.9628V15.7374H15.3885Z" fill="#CFCDD8"/>
<path d="M22.6448 28.1523H86.6379V57.8088C86.6379 58.5814 85.8217 59.2078 84.8149 59.2078H24.4677C23.461 59.2078 22.6448 58.5814 22.6448 57.8088V28.1523Z" fill="white"/>
<path d="M28.2269 35.755H48.338V37.7661H28.2269V35.755Z" fill="#EAE9EF"/>
<path d="M28.2271 39.023H48.3382V41.0341H28.2271V39.023Z" fill="#EAE9EF"/>
<path d="M28.2271 42.2911H48.3382V44.3022H28.2271V42.2911Z" fill="#EAE9EF"/>
<path d="M59.1478 31.7329H81.7728V54.6093H59.1478V31.7329Z" fill="#EAE9EF"/>
<path d="M86.6379 26.7391H22.6448V21.9745C22.6448 20.9678 23.461 20.1516 24.4677 20.1516H84.8149C85.8217 20.1516 86.6379 20.9678 86.6379 21.9745V26.7391Z" fill="#7C52FF"/>
<path opacity="0.7" d="M86.6379 26.7391H22.6448V21.9745C22.6448 20.9678 23.461 20.1516 24.4677 20.1516H84.8149C85.8217 20.1516 86.6379 20.9678 86.6379 21.9745V26.7391Z" fill="white"/>
<path d="M26.6331 24.7977C27.1365 24.7977 27.5446 24.3896 27.5446 23.8862C27.5446 23.3828 27.1365 22.9747 26.6331 22.9747C26.1297 22.9747 25.7216 23.3828 25.7216 23.8862C25.7216 24.3896 26.1297 24.7977 26.6331 24.7977Z" fill="white"/>
<path d="M29.5508 24.7977C30.0542 24.7977 30.4623 24.3896 30.4623 23.8862C30.4623 23.3828 30.0542 22.9747 29.5508 22.9747C29.0474 22.9747 28.6393 23.3828 28.6393 23.8862C28.6393 24.3896 29.0474 24.7977 29.5508 24.7977Z" fill="white"/>
<path d="M32.4675 24.7977C32.9709 24.7977 33.379 24.3896 33.379 23.8862C33.379 23.3828 32.9709 22.9747 32.4675 22.9747C31.9641 22.9747 31.5561 23.3828 31.5561 23.8862C31.5561 24.3896 31.9641 24.7977 32.4675 24.7977Z" fill="white"/>
<path d="M50.4515 52.244H5.81842V78.7449H50.4515V52.244Z" fill="white"/>
<path d="M50.4515 52.244H5.81842V78.7449H50.4515V52.244Z" fill="#EAE9EF"/>
<path fill-rule="evenodd" clip-rule="evenodd" d="M5.77982 52.1843H50.5008V78.8117H5.77982V52.1843ZM7.07633 53.4808V77.5152H49.2043V53.4808H7.07633Z" fill="#CFCDD8"/>
<path d="M55.2806 78.7106H1V80.52H55.2806V78.7106Z" fill="#B3B0C0"/>
<path d="M32.617 78.7106H23.5702V79.6153H32.617V78.7106Z" fill="#7B7789"/>
<path d="M12.293 59.6767H43.3485V74.9543C43.3485 75.3523 42.9524 75.675 42.4638 75.675H13.1777C12.6891 75.675 12.293 75.3523 12.293 74.9543V59.6767Z" fill="white"/>
<path d="M14.6567 63.1525H25.0288V64.1897H14.6567V63.1525Z" fill="#EAE9EF"/>
<path d="M14.6567 64.838H25.0288V65.8753H14.6567V64.838Z" fill="#EAE9EF"/>
<path d="M14.6567 66.5235H25.0288V67.5607H14.6567V66.5235Z" fill="#EAE9EF"/>
<path d="M30.6037 61.5589H42.2723V73.3571H30.6037V61.5589Z" fill="#EAE9EF"/>
<path d="M43.4691 59.1217H12.293V56.8005C12.293 56.3101 12.6906 55.9124 13.1811 55.9124H42.5809C43.0714 55.9124 43.4691 56.3101 43.4691 56.8005V59.1217Z" fill="#7C52FF"/>
<path opacity="0.7" d="M43.4691 59.1217H12.293V56.8005C12.293 56.3101 12.6906 55.9124 13.1811 55.9124H42.5809C43.0714 55.9124 43.4691 56.3101 43.4691 56.8005V59.1217Z" fill="white"/>
<path d="M14.2359 58.1759C14.4812 58.1759 14.68 57.9771 14.68 57.7318C14.68 57.4866 14.4812 57.2878 14.2359 57.2878C13.9907 57.2878 13.7919 57.4866 13.7919 57.7318C13.7919 57.9771 13.9907 58.1759 14.2359 58.1759Z" fill="white"/>
<path d="M15.6574 58.1759C15.9027 58.1759 16.1015 57.9771 16.1015 57.7318C16.1015 57.4866 15.9027 57.2878 15.6574 57.2878C15.4122 57.2878 15.2133 57.4866 15.2133 57.7318C15.2133 57.9771 15.4122 58.1759 15.6574 58.1759Z" fill="white"/>
<path d="M17.0785 58.1759C17.3237 58.1759 17.5225 57.9771 17.5225 57.7318C17.5225 57.4866 17.3237 57.2878 17.0785 57.2878C16.8332 57.2878 16.6344 57.4866 16.6344 57.7318C16.6344 57.9771 16.8332 58.1759 17.0785 58.1759Z" fill="white"/>
<path fill-rule="evenodd" clip-rule="evenodd" d="M49.0985 47.9373L54.1803 47.9373C54.4921 47.9373 54.7449 48.1901 54.7449 48.502L54.7449 53.5838C54.7449 53.8956 54.4921 54.1484 54.1803 54.1484C53.8684 54.1484 53.6156 53.8956 53.6156 53.5838L53.6156 49.8652L36.7942 66.6866C36.5737 66.9071 36.2162 66.9071 35.9956 66.6866C35.7751 66.4661 35.7751 66.1086 35.9956 65.8881L52.8171 49.0666L49.0985 49.0666C48.7866 49.0666 48.5338 48.8138 48.5338 48.502C48.5338 48.1901 48.7866 47.9373 49.0985 47.9373Z" fill="#7C52FF"/>
</svg>
