<svg width="24" height="24" viewBox="0 0 24 24" fill="none" xmlns="http://www.w3.org/2000/svg">
<g clip-path="url(#clip0)">
<path d="M19 15C18.65 15 18.31 15.06 18 15.17V15C18 13.19 17.19 11.56 15.92 10.46C16.35 8.03001 15.1 5.50001 12.75 4.47001C9.97 3.24001 6.72 4.50001 5.5 7.25001C4.6 9.24001 5 11.45 6.27 13H6C4.93913 13 3.92172 13.4214 3.17157 14.1716C2.42143 14.9217 2 15.9391 2 17C2 18.0609 2.42143 19.0783 3.17157 19.8284C3.92172 20.5786 4.93913 21 6 21H7C7 21 8 21 8 20C8 19 7 19 7 19H6C5.46956 19 4.96086 18.7893 4.58578 18.4142C4.21071 18.0391 4 17.5304 4 17C4 16.4696 4.21071 15.9609 4.58578 15.5858C4.96086 15.2107 5.46956 15 6 15H8C8 13.9391 8.42142 12.9217 9.17157 12.1716C9.92172 11.4214 10.9391 11 12 11C13.0609 11 14.0783 11.4214 14.8284 12.1716C15.5786 12.9217 16 13.9391 16 15V17H19C19.2652 17 19.5196 17.1054 19.7071 17.2929C19.8946 17.4804 20 17.7348 20 18C20 18.2652 19.8946 18.5196 19.7071 18.7071C19.5196 18.8947 19.2652 19 19 19H17C17 19 16 19 16 20C16 21 17 21 17 21H19C19.7956 21 20.5587 20.6839 21.1213 20.1213C21.6839 19.5587 22 18.7957 22 18C22 17.2044 21.6839 16.4413 21.1213 15.8787C20.5587 15.3161 19.7956 15 19 15ZM12 9.00001C10.16 9.00001 8.5 9.83001 7.41 11.13C6.93 10.22 6.85 9.09001 7.31 8.07001C8.09 6.31001 10.16 5.50001 11.93 6.30001C13.18 6.86001 13.94 8.06001 14 9.34001C13.38 9.12001 12.7 9.00001 12 9.00001ZM13.55 2.63001C13 2.40001 12.45 2.23001 11.88 2.12001L14.37 0.820007L15.27 3.71001C14.76 3.29001 14.19 2.93001 13.55 2.63001ZM6.09 3.44001C5.6 3.79001 5.17 4.19001 4.8 4.63001L4.91 1.82001L7.87 2.50001C7.25 2.71001 6.65 3.03001 6.09 3.44001ZM18 8.71001C17.91 8.12001 17.78 7.55001 17.59 7.00001L19.97 8.50001L17.92 10.73C18.03 10.08 18.05 9.40001 18 8.71001ZM3.04 10.3C3.11 10.9 3.25 11.47 3.43 12L1.06 10.5L3.1 8.28001C3 8.93001 2.97 9.61001 3.04 10.3ZM11.8 15H14.25L12.61 18.27H14.25L11.18 24L11.8 19.91H9.75" fill="black"/>
</g>
<defs>
<clipPath id="clip0">
<rect width="24" height="24" fill="white"/>
</clipPath>
</defs>
</svg>
