<svg width="24" height="24" viewBox="0 0 24 24" fill="none" xmlns="http://www.w3.org/2000/svg">
<rect x="0.25" y="3.75" width="23.5" height="16.5" rx="1.75" fill="#1F72CD" stroke="#E3E5E8" stroke-width="0.5"/>
<path fill-rule="evenodd" clip-rule="evenodd" d="M4.25716 9.40002L2 14.542H4.70214L5.03713 13.7221H5.80283L6.13782 14.542H9.11211V13.9162L9.37714 14.542H10.9157L11.1807 13.903V14.542H17.3664L18.1186 13.7434L18.8229 14.542L22 14.5486L19.7357 11.9853L22 9.40002H18.8722L18.14 10.1838L17.4579 9.40002H10.7286L10.1508 10.7272L9.55936 9.40002H6.86286V10.0045L6.5629 9.40002H4.25716ZM4.78001 10.1302H6.09716L7.59433 13.617V10.1302H9.03722L10.1936 12.6302L11.2594 10.1302H12.695V13.8199H11.8215L11.8143 10.9287L10.5407 13.8199H9.75929L8.47857 10.9287V13.8199H6.68143L6.34072 12.9927H4.50002L4.16002 13.8191H3.19713L4.78001 10.1302ZM17.0464 10.1302H13.4943V13.8177H16.9914L18.1186 12.5956L19.205 13.8177H20.3407L18.69 11.9846L20.3407 10.1302H19.2543L18.1328 11.3383L17.0464 10.1302ZM5.42076 10.7545L4.81432 12.228H6.02649L5.42076 10.7545ZM14.3715 11.5677V10.8941V10.8935H16.5879L17.555 11.9707L16.545 13.0537H14.3715V12.3184H16.3093V11.5677H14.3715Z" fill="white"/>
</svg>
