<svg width="24" height="24" viewBox="0 0 24 24" fill="none" xmlns="http://www.w3.org/2000/svg"><path d="M20.4251 7.50055C20.2969 7.59956 18.0328 8.86909 18.0328 11.692C18.0328 14.9571 20.9138 16.1122 21 16.1408C20.9867 16.2112 20.5423 17.7228 19.481 19.2629C18.5347 20.6183 17.5464 21.9714 16.0429 21.9714C14.5394 21.9714 14.1524 21.1023 12.4168 21.1023C10.7253 21.1023 10.1239 22 8.74868 22C7.37342 22 6.41383 20.7459 5.31053 19.2057C4.03255 17.3971 3 14.5875 3 11.9208C3 7.64356 5.79474 5.37514 8.54526 5.37514C10.0068 5.37514 11.225 6.33003 12.1426 6.33003C13.016 6.33003 14.378 5.31793 16.0407 5.31793C16.6708 5.31793 18.9349 5.37514 20.4251 7.50055ZM15.2513 3.50715C15.939 2.69527 16.4254 1.56876 16.4254 0.442244C16.4254 0.286029 16.4121 0.127613 16.3834 0C15.2646 0.0418042 13.9335 0.741474 13.1309 1.66777C12.5008 2.38064 11.9127 3.50715 11.9127 4.64906C11.9127 4.82068 11.9414 4.9923 11.9547 5.0473C12.0254 5.06051 12.1404 5.07591 12.2554 5.07591C13.2592 5.07591 14.5217 4.40704 15.2513 3.50715Z" fill="#888"/></svg>
