<svg width="24" height="24" viewBox="0 0 24 24" fill="none" xmlns="http://www.w3.org/2000/svg">
<path d="M20.3333 2H3.66667C2.74619 2 2 2.74619 2 3.66667V20.3333C2 21.2538 2.74619 22 3.66667 22H20.3333C21.2538 22 22 21.2538 22 20.3333V3.66667C22 2.74619 21.2538 2 20.3333 2Z" fill="#F76834"/>
<path d="M3 6.96095C3 7.1763 3.13459 7.95691 5.88917 8.0915C5.80717 8.4406 5.65111 8.76802 5.43157 9.05157C5.27648 9.31355 5.22909 9.62549 5.29938 9.92172C5.36967 10.2179 5.55216 10.4753 5.80842 10.6397C6.47807 10.6271 7.1463 10.5731 7.80931 10.4782C8.98472 10.9448 10.2229 13.2597 10.5011 13.4481C11.5329 14.6594 14.0901 14.7312 14.0901 14.7312C14.2205 14.742 14.3424 14.7998 14.4333 14.8939C14.5241 14.988 14.5775 15.112 14.5836 15.2427C14.6613 15.5879 14.843 15.901 15.104 16.1399C15.104 16.1399 15.4181 16.1399 15.6155 16.759C15.8129 17.3781 16.8627 17.3063 16.8627 17.3063C16.8627 17.3063 17.7599 16.6783 16.8627 16.2386H16.7281C16.5837 16.2303 16.4457 16.177 16.3333 16.0861C16.2933 15.8495 16.1729 15.6339 15.9923 15.4759C15.8487 15.1709 16.2525 14.9735 16.2525 14.9735L17.0421 14.471C17.0861 14.4448 17.123 14.4081 17.1496 14.3643C17.1762 14.3205 17.1916 14.2709 17.1946 14.2198C17.2003 13.8529 17.2333 13.487 17.2933 13.1251C17.2933 13.1251 17.2933 13.4122 17.3382 13.6725C17.453 14.274 17.7695 14.8183 18.2355 15.2157C18.3475 15.4867 18.4763 15.7504 18.6213 16.0053C18.6635 16.0724 18.6967 16.1448 18.72 16.2207C18.8007 16.5078 18.9892 17.1179 18.9892 17.2615C18.9892 17.405 18.9892 18.3741 19.1596 18.5087C19.2257 18.5448 19.2997 18.5637 19.375 18.5637C19.4502 18.5637 19.5243 18.5448 19.5903 18.5087L19.68 18.2574L19.8146 18.392L20.0928 18.1857C20.1283 18.0193 20.1232 17.8468 20.0779 17.6828C20.0326 17.5188 19.9485 17.3681 19.8326 17.2435C19.5185 16.8577 19.4468 16.6424 19.4557 16.5706C19.4599 16.5529 19.4599 16.5345 19.4557 16.5168V15.6733C19.4455 15.5908 19.418 15.5113 19.375 15.4401C19.3497 15.4084 19.3194 15.3811 19.2853 15.3593C19.2703 15.3477 19.2585 15.3327 19.2507 15.3155C19.2428 15.2983 19.2393 15.2795 19.2404 15.2606C19.3135 14.7436 19.3435 14.2214 19.3301 13.6994C19.3301 13.6994 19.2763 13.5917 19.3301 13.5558C19.3839 13.5199 19.3929 13.5558 19.4198 13.5109C19.5721 13.6154 19.7552 13.6651 19.9393 13.6521C20.1235 13.639 20.2977 13.564 20.4337 13.4392H20.7388C20.7388 13.4392 21.2054 13.179 20.8913 12.8918V12.7393L20.7119 12.6855L20.1197 13.3853L19.8057 13.4302L19.4378 13.179C19.2435 12.7833 19.1133 12.3593 19.052 11.9228C19.0256 11.7594 18.9668 11.603 18.8789 11.4628C18.7911 11.3225 18.676 11.2013 18.5405 11.1063C18.5741 10.9482 18.5519 10.7833 18.4777 10.6397C18.4438 10.5802 18.4015 10.5258 18.3521 10.4782C18.0457 10.1944 17.6938 9.96391 17.3113 9.79629C16.7009 9.54326 16.078 9.32164 15.445 9.13232L15.2745 9.28486L15.6065 10.873H15.5527C15.4192 10.3308 15.214 9.80874 14.9425 9.32075C14.8714 9.18825 14.7935 9.05947 14.7092 8.93492C14.1971 8.38987 13.4915 8.06767 12.7442 8.03766C12.7442 8.03766 12.7442 7.58006 11.0933 7.48136L11.0484 7.06863H10.6716L10.5818 6.96095L10.9049 6.67383V6.62H10.1512C10.1512 6.62 11.3804 5.83938 11.4073 5.56123C11.4431 5.42597 11.4431 5.28375 11.4073 5.14849C11.2817 4.83445 10.851 4.77164 10.3755 4.64603C9.82261 4.49362 9.28958 4.2768 8.78732 4H8.70657V4.20637L9.23595 4.57425L10.2409 5.17541V5.29205L9.52307 5.69582L9.04753 5.88424C8.82274 5.76203 8.56082 5.72689 8.31177 5.78554C8.1576 5.82663 8.01428 5.90092 7.89184 6.00322C7.76939 6.10551 7.67079 6.23333 7.60294 6.37774H6.9928L6.52623 6.63794C6.50065 6.75371 6.43756 6.85779 6.34678 6.93404C6.26969 7.00067 6.17715 7.04694 6.0776 7.06863H5.99684H5.86226L5.17137 7.22116H4.48048C4.33745 7.22292 4.19507 7.20171 4.05877 7.15835L3.05384 6.79047C3.05384 6.79047 3.00897 6.93404 3 6.96095Z" fill="white"/>
<path d="M11.6316 14.5159C11.8447 14.9551 12.1564 15.3391 12.5424 15.6379C12.9284 15.9368 13.3782 16.1424 13.8568 16.2386C14.0691 16.4047 14.2282 16.6293 14.3144 16.8846C14.5592 17.0408 14.7526 17.2654 14.8707 17.5307C14.9874 17.8985 15.3194 18.1857 15.3283 18.5356C15.3343 18.7447 15.3768 18.9512 15.4539 19.1457C15.4539 19.1457 15.9205 19.3431 15.9654 19.1457C15.9982 19.0498 15.9982 18.9456 15.9654 18.8496C15.9654 18.8496 16.0731 19.0201 16.1538 19.0201C16.2346 19.0201 16.5576 18.9124 16.5396 18.8137C16.4418 18.4608 16.2905 18.1249 16.091 17.8178C15.819 17.4735 15.5189 17.1523 15.1937 16.8577C15.1144 16.6804 15.0484 16.4975 14.9963 16.3104C14.783 15.8521 14.5017 15.4286 14.1619 15.0542L12.161 14.7043L11.6316 14.5159Z" fill="white"/>
</svg>
