<svg width="24" height="24" viewBox="0 0 24 24" fill="none" xmlns="http://www.w3.org/2000/svg">
<path fill-rule="evenodd" clip-rule="evenodd" d="M12.0503 2.03887C9.19192 2.32532 6.64532 3.77283 4.93772 6.08163C2.35409 9.57504 2.35409 14.4217 4.93772 17.9151C7.01626 20.7254 10.4294 22.2795 13.8182 21.9584C15.0829 21.8386 16.4195 21.4697 17.4161 20.9653L17.8007 20.7707L16.7056 19.6756L15.6106 18.5805L14.9088 18.7938C14.2838 18.9838 14.0786 19.0076 13.0303 19.0117C12.118 19.0152 11.7303 18.9834 11.3054 18.8698C9.98825 18.5176 8.95396 17.9238 8.01006 16.9777C7.26747 16.2334 6.81337 15.5553 6.45279 14.6523C6.04003 13.6187 5.97138 13.2247 5.97679 11.9199C5.98134 10.8338 6.00433 10.6301 6.19208 10.0137C6.94321 7.54703 8.78081 5.74709 11.2258 5.08328C11.7267 4.94724 12.0754 4.91232 12.9518 4.9102C14.0238 4.90761 14.4917 4.97901 15.3272 5.27236L15.5842 5.36266L16.6413 4.30766C17.2227 3.72748 17.6984 3.23046 17.6984 3.20332C17.6984 3.1298 16.6679 2.68276 15.9829 2.45893C14.8429 2.08658 13.2606 1.9175 12.0503 2.03887Z" fill="#03A9F4"/>
<path fill-rule="evenodd" clip-rule="evenodd" d="M16.9867 6.59259L14.7125 8.86781L15.3594 9.51476L16.0063 10.1616L18.2999 7.86804L20.5935 5.57439L19.9688 4.94595C19.6251 4.60028 19.3252 4.31744 19.3024 4.31744C19.2795 4.31744 18.2374 5.34129 16.9867 6.59259ZM12.289 10.3953C11.9199 10.5269 11.4754 10.9353 11.3284 11.2779C11.1579 11.6752 11.1917 12.3829 11.3986 12.7482C11.9047 13.6418 13.0908 13.8376 13.8674 13.1557C14.8481 12.2947 14.4714 10.6816 13.2157 10.3655C12.7871 10.2576 12.6645 10.2615 12.289 10.3953ZM15.3781 14.3992L14.7132 15.0675L17.007 17.3611L19.3006 19.6549L19.9677 18.9878L20.6347 18.3208L18.3388 16.0258L16.0429 13.7309L15.3781 14.3992Z" fill="#222222"/>
</svg>
