<svg width="24" height="24" viewBox="0 0 24 24" fill="none" xmlns="http://www.w3.org/2000/svg">
<path d="M22.0072 12.6135C22.0822 13.8848 21.9472 15.1395 21.7785 16.3973C21.6097 17.6813 21.3975 18.9593 21.0555 20.2103C20.8305 21.0105 20.5507 21.7853 20.154 22.5158C19.6665 23.4098 18.9277 23.9183 17.91 23.9588L15.036 23.9858C14.559 23.973 14.0775 23.8763 13.611 23.763C12.717 23.538 12.2145 22.938 12.066 22.038C11.9265 21.228 11.9362 20.3978 12.096 19.59C12.285 18.6675 12.846 18.12 13.7715 18.0128C14.3842 17.9378 15.009 17.955 15.6285 17.9378C15.7822 17.9325 15.8347 18.0113 15.7807 18.153C15.6337 18.5505 15.6037 18.9555 15.7072 19.3703C15.747 19.5255 15.69 19.6005 15.5122 19.599C15.2309 19.5919 14.9494 19.6052 14.67 19.6388C14.193 19.7033 13.95 19.9913 13.95 20.4728C13.95 20.6265 13.9695 20.7848 13.9995 20.9393C14.0767 21.3195 14.337 21.5243 14.7075 21.567C15.5497 21.6623 16.3927 21.6705 17.235 21.5295C17.7412 21.444 18.045 21.1245 18.105 20.6235C18.219 19.6485 18.2212 18.6833 17.934 17.7398C17.6865 16.9208 17.1795 16.566 16.3335 16.4648L13.8135 16.0598C13.0185 15.915 12.5385 15.3945 12.3735 14.6348C12.276 14.2058 12.2685 13.7573 12.213 13.317C12.2032 13.2375 12.1575 13.161 12.138 13.092C12.108 13.167 12.0585 13.251 12.0502 13.3365C12.0007 13.8465 12.0105 14.3663 11.9115 14.8665C11.7915 15.4665 11.6085 16.041 11.409 16.614C11.2702 17.0153 10.947 17.2418 10.5052 17.214C8.69607 17.0479 6.90708 16.7081 5.163 16.1993L4.683 16.044C3.98775 15.849 3.56775 15.3668 3.378 14.7038L2.628 11.814L2.073 8.58901C1.98675 8.02276 1.923 7.44676 2.01075 6.86926C2.12625 6.03526 2.69625 5.44201 3.54075 5.39626L6.20925 5.34976C6.3045 5.34976 6.39975 5.35201 6.489 5.33026C6.70736 5.29071 6.90415 5.17378 7.04328 5.0009C7.18241 4.82802 7.25456 4.61077 7.2465 4.38901L7.209 2.11201C7.173 0.930008 7.809 0.327008 8.826 0.145508C10.0518 -0.0795821 11.3133 -0.0127783 12.5085 0.340508C13.2082 0.546758 13.6087 1.03276 13.7947 1.71301C13.8382 1.87801 13.9042 1.93801 14.0722 1.92826L16.0087 1.93576L18.5085 2.21326C19.023 2.28451 19.5315 2.40076 20.0325 2.52826C20.9062 2.75176 21.3772 3.36226 21.504 4.22026L21.7717 6.73651L21.9967 10.9193L22.0042 12.627L22.0072 12.6135ZM18.6067 11.7473C18.5917 11.2478 18.5542 10.797 18.2737 10.4093C18.1651 10.272 18.0287 10.1592 17.8735 10.0782C17.7183 9.99717 17.5478 9.94982 17.373 9.9392C17.1983 9.92859 17.0232 9.95494 16.8594 10.0166C16.6955 10.0782 16.5465 10.1736 16.422 10.2968C16.149 10.5968 16.0515 10.9568 15.999 11.3468C15.993 11.3723 16.0785 11.4413 16.119 11.4413L16.719 11.4015C17.295 11.4068 17.8612 11.4863 18.4065 11.6963C18.456 11.7158 18.5085 11.7263 18.6052 11.754L18.6067 11.7473ZM6.59025 0.865508C6.43639 1.24408 6.3653 1.65119 6.38175 2.05951L6.41925 4.26001C6.423 4.52776 6.363 4.59751 6.0945 4.59751L3.825 4.61701C3.38775 4.61701 2.96775 4.69201 2.6595 4.82551L6.5595 0.826508C6.5745 0.836258 6.5895 0.851258 6.6045 0.866258L6.59025 0.865508Z" fill="#00A82D"/>
</svg>
