<svg width="24" height="24" viewBox="0 0 24 24" fill="none" xmlns="http://www.w3.org/2000/svg">
<path fill-rule="evenodd" clip-rule="evenodd" d="M20.64 12.205C20.64 11.566 20.583 10.953 20.476 10.364H12V13.845H16.844C16.7438 14.3956 16.5329 14.9202 16.2242 15.387C15.9155 15.8538 15.5154 16.2532 15.048 16.561V18.82H17.956C19.658 17.253 20.64 14.945 20.64 12.205V12.205Z" fill="#4285F4"/>
<path fill-rule="evenodd" clip-rule="evenodd" d="M12 21C14.43 21 16.467 20.194 17.956 18.82L15.048 16.561C14.242 17.101 13.211 17.421 12 17.421C9.656 17.421 7.672 15.837 6.964 13.71H3.957V16.042C4.70605 17.533 5.85494 18.7862 7.27529 19.6618C8.69563 20.5373 10.3315 21.0007 12 21V21Z" fill="#34A853"/>
<path fill-rule="evenodd" clip-rule="evenodd" d="M6.964 13.71C6.77872 13.1589 6.6835 12.5815 6.682 12C6.682 11.407 6.784 10.83 6.964 10.29V7.95801H3.957C3.32706 9.21224 2.99932 10.5965 3 12C3 13.452 3.348 14.827 3.957 16.042L6.964 13.71Z" fill="#FBBC05"/>
<path fill-rule="evenodd" clip-rule="evenodd" d="M12 6.58C13.321 6.58 14.508 7.034 15.44 7.925L18.022 5.345C16.463 3.891 14.426 3 12 3C10.3315 2.99934 8.69563 3.46268 7.27529 4.33823C5.85494 5.21378 4.70605 6.46706 3.957 7.958L6.964 10.29C7.672 8.163 9.656 6.58 12 6.58Z" fill="#EA4335"/>
</svg>
