<svg width="24" height="24" viewBox="0 0 24 24" fill="none" xmlns="http://www.w3.org/2000/svg">
<rect x="0.25" y="3.75" width="23.5" height="16.5" rx="1.75" fill="white" stroke="#E3E5E8" stroke-width="0.5"/>
<path fill-rule="evenodd" clip-rule="evenodd" d="M12 15.694C11.1527 16.4083 10.0535 16.8394 8.85246 16.8394C6.17252 16.8394 4 14.6928 4 12.0447C4 9.39667 6.17252 7.25 8.85246 7.25C10.0535 7.25 11.1527 7.68116 12 8.39539C12.8473 7.68116 13.9465 7.25 15.1475 7.25C17.8275 7.25 20 9.39667 20 12.0447C20 14.6928 17.8275 16.8394 15.1475 16.8394C13.9465 16.8394 12.8473 16.4083 12 15.694Z" fill="#ED0006"/>
<path fill-rule="evenodd" clip-rule="evenodd" d="M12 15.694C13.0433 14.8146 13.7049 13.506 13.7049 12.0447C13.7049 10.5834 13.0433 9.27483 12 8.39539C12.8473 7.68116 13.9465 7.25 15.1475 7.25C17.8275 7.25 20 9.39667 20 12.0447C20 14.6928 17.8275 16.8394 15.1475 16.8394C13.9465 16.8394 12.8473 16.4083 12 15.694Z" fill="#F9A000"/>
<path fill-rule="evenodd" clip-rule="evenodd" d="M12 15.694C13.0433 14.8146 13.7049 13.506 13.7049 12.0447C13.7049 10.5834 13.0433 9.27482 12 8.39539C10.9567 9.27482 10.2951 10.5834 10.2951 12.0447C10.2951 13.506 10.9567 14.8146 12 15.694Z" fill="#FF5E00"/>
</svg>
