<svg width="24" height="24" viewBox="0 0 24 24" fill="none" xmlns="http://www.w3.org/2000/svg">
<path d="M5.11606 10H5.75368V10.6716H5.11606V10Z" fill="#525254"/>
<path d="M16.2794 10H16.917V10.6716H16.2794V10Z" fill="#525254"/>
<path d="M3.70684 10.9127C3.30496 10.9127 3.07254 11.093 2.96043 11.2175C2.94711 11.1102 2.87629 10.9709 2.6 10.9709H2V11.599H2.2459C2.2875 11.599 2.3009 11.6123 2.3009 11.6538V14.5214H3.01613V13.4452C3.01613 13.4161 3.01555 13.3889 3.0148 13.3647C3.12652 13.4673 3.33988 13.6085 3.67316 13.6085C4.37223 13.6085 4.86098 13.0544 4.86098 12.2607C4.86098 11.4545 4.39691 10.9127 3.70684 10.9127V10.9127ZM3.56152 12.9855C3.17648 12.9855 3.00156 12.6169 3.00156 12.2753C3.00156 11.7373 3.29578 11.5455 3.57109 11.5455C3.90871 11.5455 4.13578 11.8366 4.13578 12.2703C4.13578 12.7648 3.84711 12.9855 3.56156 12.9855" fill="#231F1F"/>
<path d="M5.80254 12.8723V11.3528C5.80254 11.0959 5.67871 10.9709 5.42516 10.9709H4.78613V11.599H5.0323C5.07375 11.599 5.08707 11.6123 5.08707 11.6538V13.1682C5.08707 13.4288 5.20707 13.55 5.46383 13.55H6.10367V12.9275H5.85742C5.81781 12.9275 5.80254 12.9117 5.80254 12.8724" fill="#231F1F"/>
<path d="M7.67076 10.9127C7.26877 10.9127 7.03666 11.093 6.92404 11.2175C6.91076 11.1102 6.84029 10.9709 6.56404 10.9709H5.96365V11.599H6.20983C6.25127 11.599 6.26471 11.6123 6.26471 11.6538V14.5214H6.98025V13.4452C6.98025 13.4161 6.97947 13.3889 6.97858 13.3647C7.08983 13.4673 7.30389 13.6085 7.63705 13.6085C8.33619 13.6085 8.82471 13.0544 8.82471 12.2607C8.82471 11.4545 8.36092 10.9127 7.6708 10.9127H7.67076ZM7.52486 12.9855C7.14088 12.9855 6.96533 12.6169 6.96533 12.2753C6.96533 11.7373 7.25947 11.5455 7.53502 11.5455C7.8726 11.5455 8.09959 11.8366 8.09959 12.2703C8.09959 12.7648 7.81127 12.9855 7.52486 12.9855" fill="#231F1F"/>
<path d="M10.143 10.9126C9.37258 10.9126 8.83383 11.4671 8.83383 12.2607C8.83383 13.0415 9.41516 13.6085 10.2162 13.6085C10.8463 13.6085 11.2313 13.2355 11.2476 13.2197L11.2763 13.1913L10.9649 12.6743L10.9186 12.7181C10.9156 12.7203 10.6329 12.9809 10.2595 12.9809C9.9011 12.9809 9.63875 12.7621 9.57692 12.419H11.2728L11.2768 12.3721C11.2779 12.3657 11.2921 12.2135 11.2921 12.1391C11.2921 11.4056 10.8303 10.9126 10.143 10.9126V10.9126ZM9.60348 11.8884C9.6811 11.6353 9.87508 11.4919 10.143 11.4919C10.3583 11.4919 10.5242 11.6556 10.5533 11.8884H9.60348" fill="#231F1F"/>
<path d="M13.8932 12.8723V10.3818C13.8932 10.1251 13.7676 10 13.5108 10H12.8716V10.628H13.1177C13.1591 10.628 13.1728 10.6414 13.1728 10.683V11.1332C13.0672 11.0379 12.861 10.9126 12.5062 10.9126C11.8122 10.9126 11.3279 11.4671 11.3279 12.2607C11.3279 13.067 11.7919 13.6085 12.4821 13.6085C12.8767 13.6085 13.1041 13.4253 13.2151 13.2978C13.2296 13.4091 13.3017 13.55 13.5693 13.55H14.1889V12.9275H13.948C13.9083 12.9275 13.8932 12.9117 13.8932 12.8723V12.8723ZM12.6178 12.9856C12.2776 12.9856 12.0576 12.7009 12.0576 12.2607C12.0576 11.8328 12.2866 11.5455 12.6275 11.5455C13.0141 11.5455 13.1873 11.902 13.1873 12.256C13.1873 12.7941 12.8928 12.9855 12.6178 12.9855" fill="#231F1F"/>
<path d="M15.7841 10.9368C15.4864 10.9368 15.2124 11.1086 15.05 11.3823V11.3234C15.05 11.0897 14.9209 10.9709 14.6677 10.9709H14.0529V11.599H14.2988C14.3402 11.599 14.3539 11.6122 14.3539 11.6538V13.55H15.069V12.5178C15.069 12.3819 15.0863 12.251 15.1202 12.1301C15.2277 11.7741 15.5139 11.6474 15.7452 11.6474C15.8273 11.6474 15.887 11.6561 15.8879 11.6564L15.9477 11.6654V10.9545L15.9042 10.9471C15.902 10.9467 15.8414 10.9368 15.7841 10.9368Z" fill="#231F1F"/>
<path d="M16.9656 12.8723V11.3528C16.9656 11.0959 16.8425 10.9709 16.5887 10.9709H16.0106V11.599H16.1954C16.2371 11.599 16.2503 11.6123 16.2503 11.6538V13.1682C16.2503 13.4288 16.3704 13.55 16.6276 13.55H17.2668V12.9275H17.0206C16.9809 12.9275 16.9656 12.9117 16.9656 12.8724" fill="#231F1F"/>
<path d="M19.653 11.599V10.9709H19.2713C19.0485 10.9709 18.9289 11.0482 18.8583 11.2381L18.392 12.5403C18.3754 12.5911 18.3606 12.6426 18.3479 12.6946C18.3343 12.6424 18.3183 12.5876 18.3006 12.5393L17.8344 11.2376C17.7628 11.0458 17.6474 10.9709 17.4213 10.9709H17.0157V11.599H17.121C17.1768 11.599 17.1947 11.6179 17.208 11.6528L17.9297 13.55H18.7338L19.4556 11.6528C19.4688 11.6179 19.4872 11.599 19.5431 11.599H19.653Z" fill="#231F1F"/>
<path d="M21.9513 12.3721C21.9519 12.3657 21.9664 12.2135 21.9664 12.1391C21.9664 11.4056 21.5044 10.9126 20.8169 10.9126C20.0465 10.9126 19.5081 11.4671 19.5081 12.2606C19.5081 13.0415 20.0888 13.6085 20.89 13.6085C21.5203 13.6085 21.9055 13.2355 21.9215 13.2197L21.9506 13.1913L21.6397 12.6743L21.5925 12.7181C21.59 12.7203 21.3059 12.9809 20.9338 12.9809C20.5752 12.9809 20.3127 12.7621 20.2507 12.419H21.9471L21.9513 12.3721V12.3721ZM20.2775 11.8884C20.3557 11.6353 20.5491 11.4919 20.8169 11.4919C21.0328 11.4919 21.1981 11.6556 21.2274 11.8884H20.2775H20.2775Z" fill="#231F1F"/>
<path d="M15.7841 10.9368C15.5529 10.9368 15.3376 11.0413 15.176 11.2154C15.3125 11.2142 15.4499 11.213 15.5873 11.213C15.708 11.213 15.8277 11.2142 15.9477 11.2149V10.9545L15.9042 10.9471C15.902 10.9467 15.8415 10.9368 15.7841 10.9368" fill="#3B3B3C"/>
<path d="M18.8582 11.2381L18.8288 11.3209C19.1054 11.3399 19.3797 11.3609 19.653 11.3844V10.9709H19.2714C19.0485 10.9709 18.9288 11.0482 18.8582 11.2381Z" fill="#3B3B3C"/>
<path d="M3.70684 10.9127C3.30496 10.9127 3.07246 11.093 2.96043 11.2175C2.94703 11.1102 2.87629 10.9709 2.6 10.9709H2V11.599H2.2459C2.2875 11.599 2.3009 11.6123 2.3009 11.6538V13.2518C2.63514 13.1357 2.97141 13.0255 3.30953 12.9213C3.09937 12.801 3.00156 12.5307 3.00156 12.2752C3.00156 11.7373 3.29578 11.5455 3.57109 11.5455C3.90871 11.5455 4.13578 11.8366 4.13578 12.2703C4.13578 12.4524 4.09625 12.5968 4.03242 12.7072C4.30253 12.6307 4.57356 12.5575 4.84547 12.4876C4.85438 12.4143 4.86098 12.3389 4.86098 12.2607C4.86098 11.4545 4.39691 10.9127 3.70684 10.9127" fill="#3B3B3C"/>
<path d="M5.42516 10.9709H4.78613V11.599H5.0323C5.07371 11.599 5.08699 11.6123 5.08699 11.6538V12.4274C5.32492 12.368 5.56344 12.3112 5.80254 12.2568V11.3528C5.80254 11.096 5.67871 10.9709 5.42516 10.9709Z" fill="#3B3B3C"/>
<path d="M5.11606 10H5.75368V10.6716H5.11606V10Z" fill="#3B3B3C"/>
<path d="M7.67082 10.9126C7.26879 10.9126 7.03672 11.0929 6.92411 11.2175C6.91071 11.1102 6.84036 10.9709 6.56403 10.9709H5.96371V11.599H6.20981C6.25125 11.599 6.26477 11.6122 6.26477 11.6537V12.1547C6.50887 12.103 6.75341 12.0534 6.99836 12.0059C7.08032 11.6739 7.31254 11.5455 7.535 11.5455C7.73637 11.5455 7.89684 11.6505 7.99469 11.826C8.24157 11.7849 8.49 11.7452 8.74067 11.7077C8.57778 11.2166 8.18762 10.9126 7.67082 10.9126" fill="#3B3B3C"/>
<path d="M10.143 10.9126C9.58012 10.9126 9.14219 11.209 8.94656 11.678C9.25055 11.6342 9.5577 11.5933 9.86754 11.5553C9.9468 11.514 10.0391 11.4919 10.143 11.4919C10.1825 11.4919 10.2191 11.4993 10.2545 11.5094C10.5356 11.4776 10.8193 11.4483 11.1052 11.4215C10.9087 11.1025 10.5693 10.9126 10.143 10.9126" fill="#3B3B3C"/>
<path d="M13.5108 10H12.8716V10.628H13.1177C13.159 10.628 13.1728 10.6414 13.1728 10.683V11.1332C13.0672 11.0379 12.8611 10.9126 12.5062 10.9126C12.1178 10.9126 11.7952 11.0863 11.5862 11.3788C12.354 11.3145 13.1232 11.2689 13.8932 11.2421V10.3818C13.8932 10.1251 13.7677 10 13.5108 10" fill="#3B3B3C"/>
<path d="M14.6678 10.9709H14.0529V11.2377C14.3791 11.2273 14.7069 11.2199 15.0375 11.2161C15.0013 11.054 14.8782 10.9709 14.6678 10.9709Z" fill="#3B3B3C"/>
<path d="M16.2794 10H16.917V10.6716H16.2794V10Z" fill="#3B3B3C"/>
<path d="M16.5887 10.9709H16.0106V11.2153C16.3264 11.2182 16.6407 11.2239 16.9533 11.2325C16.9178 11.0578 16.7986 10.9709 16.5887 10.9709" fill="#3B3B3C"/>
<path d="M17.4213 10.9709H17.0157V11.2344C17.2934 11.2426 17.5693 11.2527 17.8438 11.2652L17.8344 11.2377C17.7628 11.0458 17.6474 10.9709 17.4213 10.9709" fill="#3B3B3C"/>
<path d="M20.817 10.9126C20.3776 10.9126 20.0145 11.0933 19.7826 11.3953C20.1185 11.4248 20.4523 11.4579 20.7824 11.4943C20.8333 11.4999 20.8832 11.5051 20.9332 11.5109C21.2518 11.5469 21.5669 11.5865 21.8793 11.6292C21.7156 11.1865 21.3289 10.9126 20.817 10.9126" fill="#3B3B3C"/>
</svg>
