<svg width="24" height="24" viewBox="0 0 24 24" fill="none" xmlns="http://www.w3.org/2000/svg">
<rect x="0.25" y="3.75" width="23.5" height="16.5" rx="1.75" fill="white" stroke="#E3E5E8" stroke-width="0.5"/>
<path fill-rule="evenodd" clip-rule="evenodd" d="M7.25018 14.7916H5.77894L4.67568 10.4588C4.62332 10.2595 4.51213 10.0833 4.34858 10.0003C3.94042 9.79159 3.49065 9.6255 3 9.54174V9.37493H5.37006C5.69716 9.37493 5.94249 9.6255 5.98337 9.91652L6.5558 13.0419L8.02633 9.37493H9.45669L7.25018 14.7916ZM10.2745 14.7916H8.88499L10.0291 9.37493H11.4186L10.2745 14.7916ZM13.2162 10.8755C13.2571 10.5838 13.5024 10.417 13.7886 10.417C14.2384 10.3751 14.7283 10.4588 15.1372 10.6668L15.3826 9.50058C14.9737 9.33377 14.5239 9.25 14.1157 9.25C12.7672 9.25 11.7859 10.0003 11.7859 11.0416C11.7859 11.8338 12.481 12.2497 12.9716 12.5003C13.5024 12.7502 13.7069 12.917 13.666 13.1668C13.666 13.5416 13.2571 13.7084 12.8489 13.7084C12.3583 13.7084 11.8676 13.5835 11.4186 13.3748L11.1733 14.5418C11.6639 14.7497 12.1947 14.8335 12.6854 14.8335C14.1975 14.8747 15.1372 14.1251 15.1372 13C15.1372 11.5832 13.2162 11.5002 13.2162 10.8755V10.8755ZM20 14.7916L18.8968 9.37493H17.7117C17.4664 9.37493 17.2211 9.54174 17.1393 9.79159L15.0963 14.7916H16.5267L16.8122 14.0002H18.5697L18.7332 14.7916H20ZM17.9162 10.8336L18.3243 12.8751H17.1802L17.9162 10.8336Z" fill="#172B85"/>
</svg>
