<svg width="24" height="24" viewBox="0 0 24 24" fill="none" xmlns="http://www.w3.org/2000/svg">
<path d="M11.2381 19.1556V8.00237L2 19.1556H11.2381Z" fill="#03363D"/>
<path d="M9.88518 7.26615C10.7514 6.39991 11.2381 5.22504 11.2381 4H2C2 5.22504 2.48665 6.39991 3.35288 7.26615C4.21912 8.13239 5.39399 8.61903 6.61903 8.61903C7.84408 8.61903 9.01895 8.13239 9.88518 7.26615Z" fill="#03363D"/>
<path d="M14.1128 15.8905C13.2466 16.7567 12.76 17.9316 12.76 19.1566H21.998C21.998 17.9316 21.5114 16.7567 20.6451 15.8905C19.7789 15.0243 18.604 14.5376 17.379 14.5376C16.1539 14.5376 14.9791 15.0243 14.1128 15.8905Z" fill="#03363D"/>
<path d="M12.76 4V15.1533L22 4H12.76Z" fill="#03363D"/>
</svg>
