<svg xmlns="http://www.w3.org/2000/svg" width="12" height="12" fill="none" viewBox="0 0 12 12">
  <path fill="#000" fill-rule="evenodd" d="M2 2.5a.5.5 0 0 0-.5.5v.5A.5.5 0 0 0 2 4h8a.5.5 0 0 0 .5-.5V3a.5.5 0 0 0-.5-.5H2ZM.5 3A1.5 1.5 0 0 1 2 1.5h8A1.5 1.5 0 0 1 11.5 3v.5a1.5 1.5 0 0 1-1 1.415V9A1.5 1.5 0 0 1 9 10.5H3A1.5 1.5 0 0 1 1.5 9V4.915A1.5 1.5 0 0 1 .5 3.5V3Zm2 2v4a.5.5 0 0 0 .5.5h6a.5.5 0 0 0 .5-.5V5h-7Zm2 1.5A.5.5 0 0 1 5 6h2a.5.5 0 0 1 0 1H5a.5.5 0 0 1-.5-.5Z" clip-rule="evenodd"/>
</svg>
