<svg xmlns="http://www.w3.org/2000/svg" width="12" height="12" fill="none" viewBox="0 0 12 12">
  <path fill="#000" fill-rule="evenodd" d="M2 2.5a.5.5 0 0 0-.5.5v.5A.5.5 0 0 0 2 4h8a.5.5 0 0 0 .5-.5V3a.5.5 0 0 0-.5-.5H2ZM.5 3A1.5 1.5 0 0 1 2 1.5h8A1.5 1.5 0 0 1 11.5 3v.5a1.5 1.5 0 0 1-1 1.415V9A1.5 1.5 0 0 1 9 10.5H8a.5.5 0 0 1 0-1h1a.5.5 0 0 0 .5-.5V5h-7v4a.5.5 0 0 0 .5.5h1a.5.5 0 0 1 0 1H3A1.5 1.5 0 0 1 1.5 9V4.915A1.5 1.5 0 0 1 .5 3.5V3Zm5.146 3.146a.5.5 0 0 1 .708 0l1.5 1.5a.5.5 0 1 1-.708.708L6.5 7.707V10a.5.5 0 0 1-1 0V7.707l-.646.647a.5.5 0 1 1-.708-.708l1.5-1.5Z" clip-rule="evenodd"/>
</svg>
