<svg xmlns="http://www.w3.org/2000/svg" width="12" height="12" fill="none" viewBox="0 0 12 12">
  <path fill="#000" fill-rule="evenodd" d="M.5 1.5A.5.5 0 0 1 1 1h3a2.5 2.5 0 0 1 2.5 2.5v7a.5.5 0 0 1-1 0 1 1 0 0 0-1-1H1A.5.5 0 0 1 .5 9V1.5Zm5 7.268V3.5A1.5 1.5 0 0 0 4 2H1.5v6.5h3a2 2 0 0 1 1 .268Z" clip-rule="evenodd"/>
  <path fill="#000" fill-rule="evenodd" d="M6.232 1.732A2.5 2.5 0 0 1 8 1h3a.5.5 0 0 1 .5.5V9a.5.5 0 0 1-.5.5H7.5a1 1 0 0 0-1 1 .5.5 0 0 1-1 0v-7a2.5 2.5 0 0 1 .732-1.768ZM6.5 8.768a2 2 0 0 1 1-.268h3V2H8a1.5 1.5 0 0 0-1.5 1.5v5.268Z" clip-rule="evenodd"/>
</svg>
