<svg xmlns="http://www.w3.org/2000/svg" width="12" height="12" fill="none" viewBox="0 0 12 12">
  <path fill="#000" fill-rule="evenodd" d="M1.44 1.44A1.5 1.5 0 0 1 2.5 1a.5.5 0 0 1 0 1 .5.5 0 0 0-.5.5.5.5 0 0 1-1 0c0-.398.158-.78.44-1.06ZM9 1.5a.5.5 0 0 1 .5-.5A1.5 1.5 0 0 1 11 2.5a.5.5 0 0 1-1 0 .5.5 0 0 0-.5-.5.5.5 0 0 1-.5-.5ZM10.5 9a.5.5 0 0 1 .5.5A1.5 1.5 0 0 1 9.5 11a.5.5 0 0 1 0-1 .5.5 0 0 0 .5-.5.5.5 0 0 1 .5-.5Zm-9 0a.5.5 0 0 1 .5.5.5.5 0 0 0 .5.5.5.5 0 0 1 0 1A1.5 1.5 0 0 1 1 9.5a.5.5 0 0 1 .5-.5ZM4 1.5a.5.5 0 0 1 .5-.5H5a.5.5 0 0 1 0 1h-.5a.5.5 0 0 1-.5-.5Zm0 9a.5.5 0 0 1 .5-.5H5a.5.5 0 0 1 0 1h-.5a.5.5 0 0 1-.5-.5Zm2.5-9A.5.5 0 0 1 7 1h.5a.5.5 0 0 1 0 1H7a.5.5 0 0 1-.5-.5Zm0 9A.5.5 0 0 1 7 10h.5a.5.5 0 0 1 0 1H7a.5.5 0 0 1-.5-.5ZM1.5 4a.5.5 0 0 1 .5.5V5a.5.5 0 0 1-1 0v-.5a.5.5 0 0 1 .5-.5Zm9 0a.5.5 0 0 1 .5.5V5a.5.5 0 0 1-1 0v-.5a.5.5 0 0 1 .5-.5Zm-9 2.5A.5.5 0 0 1 2 7v.5a.5.5 0 0 1-1 0V7a.5.5 0 0 1 .5-.5Zm9 0a.5.5 0 0 1 .5.5v.5a.5.5 0 0 1-1 0V7a.5.5 0 0 1 .5-.5Z" clip-rule="evenodd"/>
</svg>
