<svg xmlns="http://www.w3.org/2000/svg" width="12" height="12" fill="none" viewBox="0 0 12 12">
  <path fill="#000" fill-rule="evenodd" d="M5.251.701a1.5 1.5 0 0 1 1.499 0l3.5 2A1.5 1.5 0 0 1 11 4v4a1.503 1.503 0 0 1-.75 1.299l-.002.001-3.498 1.999a1.5 1.5 0 0 1-1.5 0l-3.498-2-.002-.001A1.5 1.5 0 0 1 1 8V4a1.502 1.502 0 0 1 .75-1.298l.002-.001 3.5-2Zm.749.8a.5.5 0 0 0-.25.067l-.002.001L2.25 3.568A.503.503 0 0 0 2 4v4a.5.5 0 0 0 .25.431s-.001 0 0 0l3.5 2a.5.5 0 0 0 .5 0h.002l3.498-2s0 .001 0 0A.503.503 0 0 0 10 8V4a.5.5 0 0 0-.25-.432l-3.5-2A.5.5 0 0 0 6 1.501Z" clip-rule="evenodd"/>
  <path fill="#000" fill-rule="evenodd" d="M1.211 3.251a.5.5 0 0 1 .683-.185L6 5.424l4.106-2.358a.5.5 0 1 1 .498.868l-4.355 2.5a.5.5 0 0 1-.498 0l-4.355-2.5a.5.5 0 0 1-.185-.683Z" clip-rule="evenodd"/>
  <path fill="#000" fill-rule="evenodd" d="M6 5.5a.5.5 0 0 1 .5.5v5a.5.5 0 0 1-1 0V6a.5.5 0 0 1 .5-.5Z" clip-rule="evenodd"/>
</svg>
