<svg xmlns="http://www.w3.org/2000/svg" width="12" height="12" fill="none" viewBox="0 0 12 12">
  <g clip-path="url(#a)">
    <path fill="#000" fill-rule="evenodd" d="M3.243 4.821a.5.5 0 0 1 .514 0l2.5 1.5a.5.5 0 0 1 .243.429V9.5a.5.5 0 0 1-.243.429l-1.984 1.19a1.5 1.5 0 0 1-1.545 0l-1.5-.9A1.5 1.5 0 0 1 .5 8.936V7.314a1.5 1.5 0 0 1 .728-1.283l2.015-1.21Zm-1.5 2.068a.5.5 0 0 0-.243.427v1.618a.5.5 0 0 0 .242.427l1.5.9a.501.501 0 0 0 .515 0L5.5 9.217V7.033l-2-1.2L1.742 6.89Z" clip-rule="evenodd"/>
    <path fill="#000" fill-rule="evenodd" d="M.702 6.567a.5.5 0 0 1 .686-.17l2.37 1.425a.5.5 0 0 1-.516.857L.872 7.254a.5.5 0 0 1-.17-.687Z" clip-rule="evenodd"/>
    <path fill="#000" fill-rule="evenodd" d="M6.429 6.493a.5.5 0 0 1-.172.686l-2.5 1.5a.5.5 0 1 1-.514-.858l2.5-1.5a.5.5 0 0 1 .686.172Z" clip-rule="evenodd"/>
    <path fill="#000" fill-rule="evenodd" d="M3.5 7.75a.5.5 0 0 1 .5.5v2.585a.5.5 0 0 1-1 0V8.25a.5.5 0 0 1 .5-.5Zm4.743-2.929a.5.5 0 0 1 .514 0l2.015 1.21a1.5 1.5 0 0 1 .728 1.283v1.622a1.5 1.5 0 0 1-.727 1.283l-1.5.9a1.5 1.5 0 0 1-1.545 0M6.5 7.033v2.184l1.742 1.044a.502.502 0 0 0 .515 0l1.5-.9a.5.5 0 0 0 .243-.427V7.316a.5.5 0 0 0-.242-.427L8.5 5.833l-2 1.2Z" clip-rule="evenodd"/>
    <path fill="#000" fill-rule="evenodd" d="M5.571 6.493a.5.5 0 0 1 .686-.172l2.5 1.5a.5.5 0 1 1-.514.858l-2.5-1.5a.5.5 0 0 1-.172-.686Z" clip-rule="evenodd"/>
    <path fill="#000" fill-rule="evenodd" d="M11.299 6.567a.5.5 0 0 1-.171.687l-2.37 1.425a.5.5 0 1 1-.516-.857l2.37-1.425a.5.5 0 0 1 .687.17Z" clip-rule="evenodd"/>
    <path fill="#000" fill-rule="evenodd" d="M8.5 7.75a.5.5 0 0 1 .5.5v2.585a.5.5 0 0 1-1 0V8.25a.5.5 0 0 1 .5-.5ZM5.228.881a1.5 1.5 0 0 1 1.544 0l1.5.9A1.501 1.501 0 0 1 9 3.064V5.25a.5.5 0 0 1-.243.429l-2.5 1.5a.5.5 0 0 1-.514 0l-2.5-1.5A.5.5 0 0 1 3 5.25V3.064a1.5 1.5 0 0 1 .728-1.283l1.5-.9ZM4.242 2.64A.5.5 0 0 0 4 3.066v1.901l2 1.2 2-1.2V3.066a.5.5 0 0 0-.242-.427l-1.5-.9a.501.501 0 0 0-.516 0l-1.5.9Z" clip-rule="evenodd"/>
    <path fill="#000" fill-rule="evenodd" d="M3.202 2.317a.5.5 0 0 1 .686-.17l2.37 1.425a.5.5 0 0 1-.516.857l-2.37-1.425a.5.5 0 0 1-.17-.687Z" clip-rule="evenodd"/>
    <path fill="#000" fill-rule="evenodd" d="M8.799 2.317a.5.5 0 0 1-.171.687l-2.37 1.425a.5.5 0 1 1-.516-.857l2.37-1.425a.5.5 0 0 1 .687.17Z" clip-rule="evenodd"/>
    <path fill="#000" fill-rule="evenodd" d="M6 3.5a.5.5 0 0 1 .5.5v2.75a.5.5 0 0 1-1 0V4a.5.5 0 0 1 .5-.5Z" clip-rule="evenodd"/>
  </g>
  <defs>
    <clipPath id="a">
      <path fill="#fff" d="M0 0h12v12H0z"/>
    </clipPath>
  </defs>
</svg>
