<svg xmlns="http://www.w3.org/2000/svg" width="12" height="12" fill="none" viewBox="0 0 12 12">
  <g clip-path="url(#a)">
    <path fill="#000" fill-rule="evenodd" d="M2 1.5a.5.5 0 0 0-.5.5v4.5A.5.5 0 0 0 2 7h.5a.5.5 0 0 1 0 1H2A1.5 1.5 0 0 1 .5 6.5V2A1.5 1.5 0 0 1 2 .5h4.5A1.5 1.5 0 0 1 8 2v.5a.5.5 0 0 1-1 0V2a.5.5 0 0 0-.5-.5H2ZM5.5 5a.5.5 0 0 0-.5.5V10a.5.5 0 0 0 .5.5H10a.5.5 0 0 0 .5-.5V5.5A.5.5 0 0 0 10 5H5.5ZM4 5.5A1.5 1.5 0 0 1 5.5 4H10a1.5 1.5 0 0 1 1.5 1.5V10a1.5 1.5 0 0 1-1.5 1.5H5.5A1.5 1.5 0 0 1 4 10V5.5Z" clip-rule="evenodd"/>
  </g>
  <defs>
    <clipPath id="a">
      <path fill="#fff" d="M0 0h12v12H0z"/>
    </clipPath>
  </defs>
</svg>
