<svg xmlns="http://www.w3.org/2000/svg" width="12" height="12" fill="none" viewBox="0 0 12 12">
  <g clip-path="url(#a)">
    <path fill="#000" fill-rule="evenodd" d="M6 1.5a4.5 4.5 0 1 0 0 9 4.5 4.5 0 0 0 0-9ZM.5 6a5.5 5.5 0 1 1 11 0 5.5 5.5 0 0 1-11 0Z" clip-rule="evenodd"/>
    <path fill="#000" fill-rule="evenodd" d="M5.116 3.662a2.5 2.5 0 0 1 2.759.684.5.5 0 1 1-.75.662 1.5 1.5 0 1 0 0 1.984.5.5 0 1 1 .75.662 2.5 2.5 0 1 1-2.759-3.992Z" clip-rule="evenodd"/>
  </g>
  <defs>
    <clipPath id="a">
      <path fill="#fff" d="M0 0h12v12H0z"/>
    </clipPath>
  </defs>
</svg>
