<svg xmlns="http://www.w3.org/2000/svg" width="12" height="12" fill="none" viewBox="0 0 12 12">
  <path fill="#000" fill-rule="evenodd" d="M5.055 1.003a.5.5 0 0 1 .442.552L5.225 4H7.22l.284-2.555a.5.5 0 1 1 .994.11L8.225 4H10a.5.5 0 0 1 0 1H8.114l-.222 2H10a.5.5 0 0 1 0 1H7.78l-.283 2.555a.5.5 0 0 1-.994-.11L6.775 8H4.78l-.284 2.555a.5.5 0 0 1-.994-.11L3.775 8H2a.5.5 0 1 1 0-1h1.886l.222-2H2a.5.5 0 1 1 0-1h2.22l.283-2.555a.5.5 0 0 1 .552-.442ZM5.115 5l-.223 2h1.994l.222-2H5.114Z" clip-rule="evenodd"/>
</svg>
