<svg xmlns="http://www.w3.org/2000/svg" width="12" height="12" fill="none" viewBox="0 0 12 12">
  <g clip-path="url(#a)">
    <path fill="#000" fill-rule="evenodd" d="M6 1.5a4.5 4.5 0 1 0 0 9 4.5 4.5 0 0 0 0-9ZM.5 6a5.5 5.5 0 1 1 11 0 5.5 5.5 0 0 1-11 0Zm5.63-1.988a1 1 0 0 0-1.113.654.5.5 0 0 1-.944-.332A2 2 0 0 1 7.96 5c0 .766-.568 1.271-.973 1.541a4.023 4.023 0 0 1-.843.424l-.017.006-.006.002H6.12l-.002.001L5.96 6.5l.158.474a.5.5 0 0 1-.316-.948l.15.448-.15-.448.007-.003a1.803 1.803 0 0 0 .182-.074c.124-.055.284-.135.442-.24.344-.23.527-.474.527-.709a1.002 1.002 0 0 0-.83-.988ZM5.5 8.5A.5.5 0 0 1 6 8h.005a.5.5 0 0 1 0 1H6a.5.5 0 0 1-.5-.5Z" clip-rule="evenodd"/>
  </g>
  <defs>
    <clipPath id="a">
      <path fill="#fff" d="M0 0h12v12H0z"/>
    </clipPath>
  </defs>
</svg>
