<svg xmlns="http://www.w3.org/2000/svg" width="12" height="12" fill="none" viewBox="0 0 12 12">
  <path fill="#000" fill-rule="evenodd" d="M3.62 1.5h4.76a1.5 1.5 0 0 1 1.342.832l1.725 3.444A.5.5 0 0 1 11.5 6v3a1.5 1.5 0 0 1-1.5 1.5H2A1.5 1.5 0 0 1 .5 9V6a.5.5 0 0 1 .053-.224l1.724-3.443A1.503 1.503 0 0 1 3.62 1.5Zm0 1a.5.5 0 0 0-.447.277v.002L1.81 5.5H4a.5.5 0 0 1 .416.223L5.268 7h1.464l.852-1.277A.5.5 0 0 1 8 5.5h2.19L8.829 2.779v-.002A.5.5 0 0 0 8.38 2.5m2.12 4H8.268l-.852 1.277A.5.5 0 0 1 7 8H5a.5.5 0 0 1-.416-.223L3.732 6.5H1.5V9a.5.5 0 0 0 .5.5h8a.5.5 0 0 0 .5-.5V6.5Z" clip-rule="evenodd"/>
</svg>
