<svg xmlns="http://www.w3.org/2000/svg" width="12" height="12" fill="none" viewBox="0 0 12 12">
  <g clip-path="url(#a)">
    <path fill="#000" fill-rule="evenodd" d="M4 1a.5.5 0 0 1 .5-.5h3A.5.5 0 0 1 8 1v3a.5.5 0 0 1-.5.5h-3A.5.5 0 0 1 4 4V1Zm1 .5v2h2v-2H5ZM7.5 8a.5.5 0 0 1 .5-.5h3a.5.5 0 0 1 .5.5v3a.5.5 0 0 1-.5.5H8a.5.5 0 0 1-.5-.5V8Zm1 .5v2h2v-2h-2ZM.5 8a.5.5 0 0 1 .5-.5h3a.5.5 0 0 1 .5.5v3a.5.5 0 0 1-.5.5H1a.5.5 0 0 1-.5-.5V8Zm1 .5v2h2v-2h-2Z" clip-rule="evenodd"/>
    <path fill="#000" fill-rule="evenodd" d="M2 6a.5.5 0 0 1 .5-.5h7a.5.5 0 0 1 .5.5v2a.5.5 0 0 1-1 0V6.5H3V8a.5.5 0 0 1-1 0V6Z" clip-rule="evenodd"/>
    <path fill="#000" fill-rule="evenodd" d="M6 3.5a.5.5 0 0 1 .5.5v2a.5.5 0 0 1-1 0V4a.5.5 0 0 1 .5-.5Z" clip-rule="evenodd"/>
  </g>
  <defs>
    <clipPath id="a">
      <path fill="#fff" d="M0 0h12v12H0z"/>
    </clipPath>
  </defs>
</svg>
