<svg xmlns="http://www.w3.org/2000/svg" width="12" height="12" fill="none" viewBox="0 0 12 12">
  <path fill="#000" fill-rule="evenodd" d="M1 4.5a.5.5 0 0 1 .5-.5h9a.5.5 0 0 1 .5.5v5A1.5 1.5 0 0 1 9.5 11h-7A1.5 1.5 0 0 1 1 9.5v-5ZM2 5v4.5a.5.5 0 0 0 .5.5h7a.5.5 0 0 0 .5-.5V5H2Z" clip-rule="evenodd"/>
  <path fill="#000" fill-rule="evenodd" d="M8.648 2.073A.5.5 0 0 0 8.383 2H3.62a.503.503 0 0 0-.448.274l-1.225 2.45a.5.5 0 1 1-.894-.448l1.225-2.451A1.5 1.5 0 0 1 3.62 1h4.758-.001l.003.5V1h-.002m.27 1.073a.5.5 0 0 1 .185.201Zm.185.201Z" clip-rule="evenodd"/>
  <path fill="#000" fill-rule="evenodd" d="M6 1a.5.5 0 0 1 .5.5v3a.5.5 0 0 1-1 0v-3A.5.5 0 0 1 6 1Z" clip-rule="evenodd"/>
</svg>
