<svg xmlns="http://www.w3.org/2000/svg" width="12" height="12" fill="none" viewBox="0 0 12 12">
  <path fill="#000" fill-rule="evenodd" d="M5.999 1H3.62a1.5 1.5 0 0 0-1.342.825L1.057 4.268A.497.497 0 0 0 1 4.51V9.5A1.5 1.5 0 0 0 2.5 11h7A1.5 1.5 0 0 0 11 9.5V4.51a.495.495 0 0 0-.057-.242l-1.215-2.44-.001-.003A1.5 1.5 0 0 0 8.382 1H6Zm3.693 3-.859-1.726A.5.5 0 0 0 8.383 2H6.5v2h3.192ZM2.31 4H5.5V2H3.619a.5.5 0 0 0-.447.274L2.309 4ZM2 5h8v4.5a.5.5 0 0 1-.5.5h-7a.5.5 0 0 1-.5-.5V5Z" clip-rule="evenodd"/>
</svg>
