<svg xmlns="http://www.w3.org/2000/svg" width="12" height="12" fill="none" viewBox="0 0 12 12">
  <g clip-path="url(#a)">
    <path fill="#000" fill-rule="evenodd" d="M6 1.499a.701.701 0 0 0-.498.206l-.762.763a.036.036 0 0 0-.01.03c0 .002 0 .005.003.01.004.008.012.02.028.036a.524.524 0 0 0 .167.102 1.752 1.752 0 0 1 .577 2.858 1.75 1.75 0 0 1-2.858-.577.527.527 0 0 0-.102-.167.161.161 0 0 0-.035-.028.03.03 0 0 0-.01-.004.037.037 0 0 0-.031.01l-.763.764a.702.702 0 0 0 0 .996l.784.784a1.014 1.014 0 0 1 .285.866c-.075.507-.494.785-.796.902a.75.75 0 1 0 .97.971c.118-.302.395-.72.902-.796a1.016 1.016 0 0 1 .867.286l.784.784a.704.704 0 0 0 .497.206H6a.702.702 0 0 0 .498-.206l.8-.8a.374.374 0 0 0-.139-.087 1.748 1.748 0 0 1-1.071-2.133 1.75 1.75 0 0 1 3.32-.116.375.375 0 0 0 .088.138l-.007.007a.01.01 0 0 1 .009-.003.029.029 0 0 1 .006.002M10.214 4c0 .003 0 .007.004.01l.784.783a1.702 1.702 0 0 1 0 2.412l-.806.805a.991.991 0 0 1-.846.28c-.496-.075-.767-.484-.878-.783v-.001a.75.75 0 1 0-.965.964c.3.112.71.383.783.88m-.279.845L7.207 11a1.703 1.703 0 0 1-2.413 0l-.784-.783a.014.014 0 0 0-.005-.004m-.005 0a.1.1 0 0 0-.03.024.443.443 0 0 0-.088.146 1.753 1.753 0 0 1-2.13 1.043 1.75 1.75 0 0 1-.136-3.308.447.447 0 0 0 .146-.088.1.1 0 0 0 .024-.03v-.006a.013.013 0 0 0-.004-.006L1 7.206a1.703 1.703 0 0 1 0-2.412l.762-.763c.232-.231.561-.34.886-.292.518.077.803.507.926.811a.75.75 0 1 0 .978-.978c-.304-.124-.734-.407-.811-.926a1.04 1.04 0 0 1 .292-.886l.763-.762a1.703 1.703 0 0 1 2.41 0l.785.784m.01.005a.1.1 0 0 0 .03-.024.444.444 0 0 0 .088-.147 1.753 1.753 0 0 1 2.13-1.043 1.75 1.75 0 0 1 .136 3.308.446.446 0 0 0-.146.088.102.102 0 0 0-.024.03v.002M7.999 1.787H8Zm-3.997 8.426H4ZM9.226 3.84c.08-.5.495-.774.795-.89a.75.75 0 1 0-.972-.971c-.117.302-.395.72-.901.796a1.016 1.016 0 0 1-.867-.285l-.784-.784A.703.703 0 0 0 6 1.499m3.228 2.34a1.012 1.012 0 0 0 .284.878l.784.785a.702.702 0 0 1 0 .996l-.8.8a.05.05 0 0 0 .008.004m-2.2 2.202-.001-.002Zm0-.015Z" clip-rule="evenodd"/>
  </g>
  <defs>
    <clipPath id="a">
      <path fill="#fff" d="M0 0h12v12H0z"/>
    </clipPath>
  </defs>
</svg>
