<svg xmlns="http://www.w3.org/2000/svg" width="12" height="12" fill="none" viewBox="0 0 12 12">
  <path fill="#000" fill-rule="evenodd" d="M1 1.5a.5.5 0 0 1 .5-.5h7a.5.5 0 0 1 0 1h-7a.5.5 0 0 1-.5-.5Zm0 2a.5.5 0 0 1 .5-.5h5a.5.5 0 0 1 0 1h-5a.5.5 0 0 1-.5-.5Zm0 2a.5.5 0 0 1 .5-.5h3a.5.5 0 0 1 0 1h-3a.5.5 0 0 1-.5-.5ZM8 10a.5.5 0 0 1 .5-.5h.005a.5.5 0 1 1 0 1H8.5A.5.5 0 0 1 8 10Z" clip-rule="evenodd"/>
  <path fill="#000" d="M7.953 5.636a1 1 0 0 1 1.507.863v.004c-.001.197-.13.404-.396.612l-.005.003a2.771 2.771 0 0 1-.698.386l-.06.022a.5.5 0 1 0 .319.948l.002-.001a3.21 3.21 0 0 0 .344-.141c.193-.09.452-.228.698-.418l.007-.005c.362-.28.789-.747.789-1.409v-.004a2 2 0 0 0-3.887-.662.5.5 0 1 0 .944.332 1 1 0 0 1 .436-.53Z"/>
</svg>
