<svg xmlns="http://www.w3.org/2000/svg" width="12" height="12" fill="none" viewBox="0 0 12 12">
  <g clip-path="url(#a)">
    <path fill="#000" fill-rule="evenodd" d="M6 1.5a4.5 4.5 0 1 0 0 9 4.5 4.5 0 0 0 0-9ZM.5 6a5.5 5.5 0 1 1 11 0 5.5 5.5 0 0 1-11 0ZM4 4.5a.5.5 0 0 1 .5-.5h.005a.5.5 0 0 1 0 1H4.5a.5.5 0 0 1-.5-.5Zm3 0a.5.5 0 0 1 .5-.5h.005a.5.5 0 0 1 0 1H7.5a.5.5 0 0 1-.5-.5ZM3.7 6.6a.5.5 0 0 1 .698.098L4.4 6.7 4 7l.4-.3v-.001.002l.018.02a2.474 2.474 0 0 0 .408.374c.288.21.687.405 1.174.405.487 0 .886-.195 1.175-.404a2.474 2.474 0 0 0 .424-.395l.003-.003A.5.5 0 0 1 8.4 7.3L8 7l.4.3-.001.001-.001.002-.004.005-.01.014c-.01.01-.021.025-.036.042a3.474 3.474 0 0 1-.585.54c-.4.29-1 .596-1.763.596a2.994 2.994 0 0 1-1.763-.596 3.474 3.474 0 0 1-.62-.582l-.01-.014-.005-.005v-.002H3.6L4 7l-.4.3a.5.5 0 0 1 .1-.7Z" clip-rule="evenodd"/>
  </g>
  <defs>
    <clipPath id="a">
      <path fill="#fff" d="M0 0h12v12H0z"/>
    </clipPath>
  </defs>
</svg>
