<svg xmlns="http://www.w3.org/2000/svg" width="12" height="12" fill="none" viewBox="0 0 12 12">
  <path fill="#000" fill-rule="evenodd" d="M.94 1.44A1.5 1.5 0 0 1 3.5 2.5v7a.5.5 0 0 0 1 0v-1a.5.5 0 0 1 1 0v1a1.5 1.5 0 1 1-3 0v-5H1A.5.5 0 0 1 .5 4V2.5c0-.398.158-.78.44-1.06ZM2.5 3.5v-1a.5.5 0 1 0-1 0v1h1Z" clip-rule="evenodd"/>
  <path fill="#000" fill-rule="evenodd" d="M11 8a.5.5 0 0 1 .5.5v1A1.5 1.5 0 0 1 10 11H4a.5.5 0 0 1 0-1h6a.5.5 0 0 0 .5-.5v-1A.5.5 0 0 1 11 8Z" clip-rule="evenodd"/>
  <path fill="#000" fill-rule="evenodd" d="M1.5 1.5A.5.5 0 0 1 2 1h6.5A1.5 1.5 0 0 1 10 2.5v6a.5.5 0 0 1-1 0v-6a.5.5 0 0 0-.5-.5H2a.5.5 0 0 1-.5-.5Z" clip-rule="evenodd"/>
  <path fill="#000" fill-rule="evenodd" d="M4.5 8.5A.5.5 0 0 1 5 8h6a.5.5 0 0 1 0 1H5a.5.5 0 0 1-.5-.5Z" clip-rule="evenodd"/>
</svg>
