<svg xmlns="http://www.w3.org/2000/svg" width="12" height="12" fill="none" viewBox="0 0 12 12">
  <g clip-path="url(#a)">
    <path fill="#000" fill-rule="evenodd" d="M4.83.94A1.5 1.5 0 0 1 5.89.5h.22A1.5 1.5 0 0 1 7.61 2v.09a.501.501 0 0 0 .25.432h.001l.214.125a.502.502 0 0 0 .5 0l.015-.008.068-.037a1.5 1.5 0 0 1 2.04.552l.11.19a1.502 1.502 0 0 1-.544 2.047l-.079.047a.5.5 0 0 0-.25.435v.254a.5.5 0 0 0 .244.431l.066.036.016.008a1.5 1.5 0 0 1 .548 2.046l-.111.198a1.5 1.5 0 0 1-2.04.552L8.59 9.36l-.015-.008a.5.5 0 0 0-.5 0l-.214.124-.001.001a.5.5 0 0 0-.25.432V10a1.5 1.5 0 0 1-1.5 1.5h-.22a1.5 1.5 0 0 1-1.5-1.5v-.09a.5.5 0 0 0-.25-.432h-.001l-.214-.125a.502.502 0 0 0-.5 0l-.015.008-.068.037a1.5 1.5 0 0 1-2.04-.552l-.11-.19a1.502 1.502 0 0 1 .544-2.047l.079-.047a.5.5 0 0 0 .25-.435v-.255a.5.5 0 0 0-.277-.446l-.064-.042a1.5 1.5 0 0 1-.532-2.039l.11-.19a1.5 1.5 0 0 1 2.04-.553l.068.037.015.008a.5.5 0 0 0 .5 0l.215-.125a.5.5 0 0 0 .25-.432V2c0-.398.158-.78.44-1.06Zm1.06.56a.5.5 0 0 0-.5.5v.09a1.502 1.502 0 0 1-.75 1.298l-.215.125a1.5 1.5 0 0 1-1.492.005l-.068-.037-.015-.008a.5.5 0 0 0-.682.183l-.11.189a.5.5 0 0 0 .21.699l.062.042a1.5 1.5 0 0 1 .735 1.281v.257m5.87-.248v.248ZM7.359 3.388A1.5 1.5 0 0 1 6.61 2.09V2a.5.5 0 0 0-.5-.5h-.22M6 5a1 1 0 1 0 0 2 1 1 0 0 0 0-2ZM4 6a2 2 0 1 1 4 0 2 2 0 0 1-4 0Z" clip-rule="evenodd"/>
  </g>
  <defs>
    <clipPath id="a">
      <path fill="#fff" d="M0 0h12v12H0z"/>
    </clipPath>
  </defs>
</svg>
