<svg xmlns="http://www.w3.org/2000/svg" width="12" height="12" fill="none" viewBox="0 0 12 12">
  <g clip-path="url(#a)">
    <path fill="#000" fill-rule="evenodd" d="M5.899 1.5a4.5 4.5 0 1 0 0 9 4.5 4.5 0 0 0 0-9ZM.399 6a5.5 5.5 0 1 1 11 0 5.5 5.5 0 0 1-11 0Zm3.5-1.5a.5.5 0 0 1 .5-.5h.005a.5.5 0 0 1 0 1h-.005a.5.5 0 0 1-.5-.5Zm3 0a.5.5 0 0 1 .5-.5h.005a.5.5 0 0 1 0 1h-.005a.5.5 0 0 1-.5-.5Zm-1.776 3c-.357 0-.703.117-.987.334l-.303-.397.303.397-.082.063a.5.5 0 1 1-.608-.794l.083-.063a2.625 2.625 0 0 1 1.594-.54h1.508c.613 0 1.207.215 1.678.607l.01.009a.5.5 0 1 1-.639.768l-.01-.008.32-.385-.32.385A1.625 1.625 0 0 0 6.63 7.5H5.124Z" clip-rule="evenodd"/>
  </g>
  <defs>
    <clipPath id="a">
      <path fill="#fff" d="M0 0h12v12H0z"/>
    </clipPath>
  </defs>
</svg>
