<svg xmlns="http://www.w3.org/2000/svg" width="12" height="12" fill="none" viewBox="0 0 12 12">
  <g clip-path="url(#a)">
    <path fill="#000" fill-rule="evenodd" d="M5.899 1.5a4.5 4.5 0 1 0 0 9 4.5 4.5 0 0 0 0-9ZM.399 6a5.5 5.5 0 1 1 11 0 5.5 5.5 0 0 1-11 0Zm3.5-1.5a.5.5 0 0 1 .5-.5h.005a.5.5 0 0 1 0 1h-.005a.5.5 0 0 1-.5-.5Zm3 0a.5.5 0 0 1 .5-.5h.005a.5.5 0 0 1 0 1h-.005a.5.5 0 0 1-.5-.5ZM3.353 7.196a.5.5 0 0 1 .7-.093l.083.063-.303.397.303-.397c.284.217.63.334.987.334h1.508c.38 0 .747-.133 1.039-.376l.32.385-.32-.385.01-.008a.5.5 0 1 1 .64.768l-.01.01a2.625 2.625 0 0 1-1.68.606H5.124c-.576 0-1.136-.19-1.594-.54l-.083-.063a.5.5 0 0 1-.093-.7Z" clip-rule="evenodd"/>
  </g>
  <defs>
    <clipPath id="a">
      <path fill="#fff" d="M0 0h12v12H0z"/>
    </clipPath>
  </defs>
</svg>
