<svg xmlns="http://www.w3.org/2000/svg" width="12" height="12" fill="none" viewBox="0 0 12 12">
  <path fill="#000" fill-rule="evenodd" d="M9 1a.5.5 0 0 1 .5.5V2h.5a.5.5 0 0 1 0 1h-.5v.5a.5.5 0 0 1-1 0V3H8a.5.5 0 0 1 0-1h.5v-.5A.5.5 0 0 1 9 1ZM5 2a.5.5 0 0 1 .455.293L6.471 4.53l2.236 1.016a.5.5 0 0 1 0 .91L6.47 7.471 5.455 9.707a.5.5 0 0 1-.91 0L3.529 7.47 1.293 6.455a.5.5 0 0 1 0-.91L3.53 4.529l1.016-2.236A.5.5 0 0 1 5 2Zm0 1.708-.639 1.405a.5.5 0 0 1-.248.248L2.708 6l1.405.639a.5.5 0 0 1 .248.248L5 8.292l.639-1.405a.5.5 0 0 1 .248-.248L7.292 6l-1.405-.639a.5.5 0 0 1-.248-.248L5 3.708ZM9.5 8a.5.5 0 0 1 .5.5V9h.5a.5.5 0 0 1 0 1H10v.5a.5.5 0 0 1-1 0V10h-.5a.5.5 0 0 1 0-1H9v-.5a.5.5 0 0 1 .5-.5Z" clip-rule="evenodd"/>
</svg>
