<svg xmlns="http://www.w3.org/2000/svg" width="12" height="12" fill="none" viewBox="0 0 12 12">
  <g clip-path="url(#a)">
    <path fill="#000" fill-rule="evenodd" d="M6 .5a.5.5 0 0 1 .448.279l1.43 2.894 3.194.467a.5.5 0 0 1 .277.853L9.037 7.245l.546 3.18a.5.5 0 0 1-.726.527L6 9.45l-2.857 1.503a.5.5 0 0 1-.726-.527l.546-3.181L.65 4.993a.5.5 0 0 1 .277-.853l3.195-.467L5.552.78A.5.5 0 0 1 6 .5Zm0 1.63L4.903 4.35a.5.5 0 0 1-.376.274l-2.453.358 1.776 1.73a.5.5 0 0 1 .144.443l-.419 2.44 2.193-1.153a.5.5 0 0 1 .466 0l2.193 1.154-.419-2.441a.5.5 0 0 1 .144-.443l1.775-1.729-2.453-.358a.5.5 0 0 1-.376-.274L6 2.13Z" clip-rule="evenodd"/>
  </g>
  <defs>
    <clipPath id="a">
      <path fill="#fff" d="M0 0h12v12H0z"/>
    </clipPath>
  </defs>
</svg>
