<svg xmlns="http://www.w3.org/2000/svg" width="12" height="12" fill="none" viewBox="0 0 12 12">
  <g clip-path="url(#a)">
    <path fill="#000" fill-rule="evenodd" d="M.5 1A.5.5 0 0 1 1 .5h5a.5.5 0 0 1 .354.146l4.645 4.645a1.713 1.713 0 0 1 0 2.418l-3.29 3.29a1.713 1.713 0 0 1-2.418 0L.646 6.354A.5.5 0 0 1 .5 6V1Zm1 .5v4.293l4.499 4.498a.713.713 0 0 0 1.002 0l3.29-3.29a.713.713 0 0 0 0-1.002L5.793 1.5H1.5Zm1.5 2a.5.5 0 0 1 .5-.5h.005a.5.5 0 0 1 0 1H3.5a.5.5 0 0 1-.5-.5Z" clip-rule="evenodd"/>
  </g>
  <defs>
    <clipPath id="a">
      <path fill="#fff" d="M0 0h12v12H0z"/>
    </clipPath>
  </defs>
</svg>
