<svg xmlns="http://www.w3.org/2000/svg" width="12" height="12" fill="none" viewBox="0 0 12 12">
  <path fill="#000" fill-rule="evenodd" d="M.5 2.5A.5.5 0 0 1 1 2h3.5a.5.5 0 0 1 .354.146l3.145 3.145a1.713 1.713 0 0 1 0 2.418l-1.79 1.79a1.713 1.713 0 0 1-2.418 0L.646 6.354A.5.5 0 0 1 .5 6V2.5Zm1 .5v2.793L4.499 8.79a.713.713 0 0 0 1.002 0L7.291 7a.713.713 0 0 0 0-1.002L4.293 3H1.5Zm5.646-.854a.5.5 0 0 1 .708 0l3.149 3.15a1.702 1.702 0 0 1 0 2.408m0 0-2.15 2.15a.5.5 0 0 1-.707-.708l2.15-2.15h.001a.7.7 0 0 0 0-.992l-3.15-3.15a.5.5 0 0 1 0-.708M3 4a.5.5 0 0 1 .5.5v.005a.5.5 0 0 1-1 0V4.5A.5.5 0 0 1 3 4Z" clip-rule="evenodd"/>
</svg>
