<svg xmlns="http://www.w3.org/2000/svg" width="12" height="12" fill="none" viewBox="0 0 12 12">
  <path fill="#000" fill-rule="evenodd" d="M8.279 1.514A2.5 2.5 0 0 0 5.72 5.029a.5.5 0 0 1-.102.56L2.164 9.042a.56.56 0 0 0 .792.793L6.411 6.38a.5.5 0 0 1 .56-.102 2.5 2.5 0 0 0 3.515-2.558L9.2 5.007a1 1 0 0 1-1.4 0l-.004-.004-.803-.803a1 1 0 0 1 0-1.4l.003-.004L8.28 1.514ZM7.37.554A3.5 3.5 0 0 1 9.44.81a.5.5 0 0 1 .148.81L7.706 3.5l.793.794 1.881-1.882a.5.5 0 0 1 .81.148 3.499 3.499 0 0 1-4.304 4.76l-3.223 3.224a1.56 1.56 0 1 1-2.208-2.207L4.68 5.112A3.5 3.5 0 0 1 7.37.555Z" clip-rule="evenodd"/>
</svg>
