<svg xmlns="http://www.w3.org/2000/svg" width="12" height="12" fill="none" viewBox="0 0 12 12">
  <g clip-path="url(#a)">
    <path fill="#000" fill-rule="evenodd" d="M6 1.5a4.5 4.5 0 1 0 0 9 4.5 4.5 0 0 0 0-9ZM.5 6a5.5 5.5 0 1 1 11 0 5.5 5.5 0 0 1-11 0ZM4 4.5a.5.5 0 0 1 .5-.5h.005a.5.5 0 0 1 0 1H4.5a.5.5 0 0 1-.5-.5Zm3 0a.5.5 0 0 1 .5-.5h.005a.5.5 0 0 1 0 1H7.5a.5.5 0 0 1-.5-.5ZM2.618 6.177A.5.5 0 0 1 3 6h6a.5.5 0 0 1 .493.583A3.5 3.5 0 0 1 6 9.5a3.5 3.5 0 0 1-3.493-2.917.5.5 0 0 1 .111-.406ZM3.667 7a2.5 2.5 0 0 0 2.326 1.5h.014A2.5 2.5 0 0 0 8.333 7H3.667Z" clip-rule="evenodd"/>
  </g>
  <defs>
    <clipPath id="a">
      <path fill="#fff" d="M0 0h12v12H0z"/>
    </clipPath>
  </defs>
</svg>
