<svg width="24" height="24" viewBox="0 0 24 24" fill="none" xmlns="http://www.w3.org/2000/svg">
<path d="M20.7002 7.69319C21.6942 7.69319 22.5 6.88739 22.5 5.89338C22.5 4.89938 21.6942 4.09357 20.7002 4.09357C19.7062 4.09357 18.9004 4.89938 18.9004 5.89338C18.9004 6.88739 19.7062 7.69319 20.7002 7.69319Z" fill="black"/>
<path fill-rule="evenodd" clip-rule="evenodd" d="M9.18478 7.27565C8.77699 7.27565 8.07496 7.66411 7.70978 8.85633L7.70906 8.8587L4.25039 20.0099C4.02027 20.7519 3.23223 21.1668 2.49027 20.9367C1.74831 20.7066 1.33338 19.9185 1.56351 19.1766L5.01998 8.03245L5.02075 8.02992C5.58305 6.19697 7.05661 4.4625 9.18478 4.4625C11.3123 4.4625 12.7837 6.1933 13.3469 8.02344L13.3475 8.02512L16.01 16.6088L16.0105 16.6105C16.376 17.7994 17.0767 18.1867 17.4842 18.1867C18.4836 18.1867 19.2935 17.3768 19.2935 16.3774V10.5006C19.2935 9.72376 19.9233 9.09402 20.7001 9.09402C21.4769 9.09402 22.1067 9.72376 22.1067 10.5006V16.3774C22.1067 18.9304 20.0373 20.9998 17.4842 20.9998C15.3589 20.9998 13.8857 19.2698 13.3222 17.4392L13.3216 17.4372L10.659 8.85352L10.6585 8.85185C10.2928 7.66241 9.59353 7.27565 9.18478 7.27565Z" fill="black"/>
</svg>
