<svg width="24" height="24" viewBox="0 0 24 24" fill="none" xmlns="http://www.w3.org/2000/svg">
<path fill-rule="evenodd" clip-rule="evenodd" d="M6.00012 2.875C5.70175 2.875 5.41561 2.99353 5.20463 3.2045C4.99365 3.41548 4.87512 3.70163 4.87512 4V20C4.87512 20.2984 4.99365 20.5845 5.20463 20.7955C5.41561 21.0065 5.70175 21.125 6.00012 21.125H18.0001C18.2985 21.125 18.5846 21.0065 18.7956 20.7955C19.0066 20.5845 19.1251 20.2984 19.1251 20C19.1251 19.5168 19.5169 19.125 20.0001 19.125C20.4834 19.125 20.8751 19.5168 20.8751 20C20.8751 20.7625 20.5722 21.4938 20.0331 22.0329C19.4939 22.5721 18.7626 22.875 18.0001 22.875H6.00012C5.23762 22.875 4.50636 22.5721 3.96719 22.0329C3.42802 21.4938 3.12512 20.7625 3.12512 20V4C3.12512 3.2375 3.42802 2.50624 3.96719 1.96707C4.50636 1.4279 5.23762 1.125 6.00012 1.125H14.5001C14.7322 1.125 14.9547 1.21719 15.1188 1.38128L17.1188 3.38128C17.4605 3.72299 17.4605 4.27701 17.1188 4.61872C16.7771 4.96043 16.2231 4.96043 15.8814 4.61872L14.1377 2.875H6.00012Z" fill="black"/>
<path d="M21.0699 8.09701C21.0699 8.62594 20.6411 9.05473 20.1122 9.05473C19.5833 9.05473 19.1545 8.62594 19.1545 8.09701C19.1545 7.56809 19.5833 7.1393 20.1122 7.1393C20.6411 7.1393 21.0699 7.56809 21.0699 8.09701Z" fill="black"/>
<path fill-rule="evenodd" clip-rule="evenodd" d="M13.4807 9.05908C13.2397 9.05908 12.8723 9.26151 12.6829 9.83204L12.6819 9.83517L10.6853 15.7762C10.5314 16.2343 10.0352 16.4809 9.57717 16.3269C9.11909 16.173 8.87254 15.6768 9.02649 15.2188L11.022 9.28082L11.0226 9.27911C11.3688 8.23776 12.2575 7.30908 13.4807 7.30908C14.7035 7.30908 15.5908 8.23582 15.9377 9.27559L15.938 9.27673L17.4756 13.8518C17.6652 14.4206 18.0319 14.6225 18.2727 14.6225C18.8824 14.6225 19.2545 14.1823 19.2545 13.7838V10.6522C19.2545 10.1689 19.6463 9.77715 20.1295 9.77715C20.6128 9.77715 21.0045 10.1689 21.0045 10.6522V13.7838C21.0045 15.2783 19.7141 16.3725 18.2727 16.3725C17.0511 16.3725 16.1627 15.4461 15.8157 14.406L15.8154 14.4049L14.2785 9.83204L14.2777 9.82983C14.0881 9.26064 13.7222 9.05908 13.4807 9.05908Z" fill="black"/>
</svg>
