<svg width="60" height="60" viewBox="0 0 60 60" fill="none" xmlns="http://www.w3.org/2000/svg">
<rect x="0.5" y="0.5" width="59" height="59" rx="29.5" fill="white"/>
<path d="M10.7563 10.0009C10.7563 10.4008 10.4007 10.7564 10.0007 10.7564V10.0009H10.7563Z" fill="#CFCDD8"/>
<path d="M17.4225 10.0007C17.4225 10.4007 17.0669 10.7563 16.6669 10.7563C16.2669 10.7563 15.9114 10.4007 15.9114 10.0007H17.4225Z" fill="#CFCDD8"/>
<path d="M24.0892 10.0007C24.0892 10.4007 23.7337 10.7563 23.3337 10.7563C22.9337 10.7563 22.5781 10.4007 22.5781 10.0007H24.0892Z" fill="#CFCDD8"/>
<path d="M30.7557 10.0007C30.7557 10.4007 30.4002 10.7563 30.0002 10.7563C29.6002 10.7563 29.2446 10.4007 29.2446 10.0007H30.7557Z" fill="#CFCDD8"/>
<path d="M37.4225 10.0007C37.4225 10.4007 37.0669 10.7563 36.6669 10.7563C36.2669 10.7563 35.9114 10.4007 35.9114 10.0007H37.4225Z" fill="#CFCDD8"/>
<path d="M44.0887 10.0007C44.0887 10.4007 43.7332 10.7563 43.3332 10.7563C42.9332 10.7563 42.5776 10.4007 42.5776 10.0007H44.0887Z" fill="#CFCDD8"/>
<path d="M49.9999 10.0007V10.7563C49.5999 10.7563 49.2444 10.4007 49.2444 10.0007H49.9999Z" fill="#CFCDD8"/>
<path d="M10.756 16.6665C10.756 17.0665 10.4005 17.422 10.0005 17.422V15.9554C10.4005 15.9109 10.756 16.2665 10.756 16.6665Z" fill="#CFCDD8"/>
<path d="M16.6669 17.4226C17.0842 17.4226 17.4225 17.0843 17.4225 16.667C17.4225 16.2497 17.0842 15.9115 16.6669 15.9115C16.2496 15.9115 15.9114 16.2497 15.9114 16.667C15.9114 17.0843 16.2496 17.4226 16.6669 17.4226Z" fill="#CFCDD8"/>
<path d="M23.3337 17.4226C23.7509 17.4226 24.0892 17.0843 24.0892 16.667C24.0892 16.2497 23.7509 15.9115 23.3337 15.9115C22.9164 15.9115 22.5781 16.2497 22.5781 16.667C22.5781 17.0843 22.9164 17.4226 23.3337 17.4226Z" fill="#CFCDD8"/>
<path d="M30.0002 17.4226C30.4174 17.4226 30.7557 17.0843 30.7557 16.667C30.7557 16.2497 30.4174 15.9115 30.0002 15.9115C29.5829 15.9115 29.2446 16.2497 29.2446 16.667C29.2446 17.0843 29.5829 17.4226 30.0002 17.4226Z" fill="#CFCDD8"/>
<path d="M36.6669 17.4226C37.0842 17.4226 37.4225 17.0843 37.4225 16.667C37.4225 16.2497 37.0842 15.9115 36.6669 15.9115C36.2496 15.9115 35.9114 16.2497 35.9114 16.667C35.9114 17.0843 36.2496 17.4226 36.6669 17.4226Z" fill="#CFCDD8"/>
<path d="M43.3332 17.4226C43.7505 17.4226 44.0887 17.0843 44.0887 16.667C44.0887 16.2497 43.7505 15.9115 43.3332 15.9115C42.9159 15.9115 42.5776 16.2497 42.5776 16.667C42.5776 17.0843 42.9159 17.4226 43.3332 17.4226Z" fill="#CFCDD8"/>
<path d="M49.9999 15.9115V17.3781C49.5999 17.3781 49.2444 17.0226 49.2444 16.6226C49.2444 16.267 49.5999 15.9115 49.9999 15.9115Z" fill="#CFCDD8"/>
<path d="M10.756 23.334C10.756 23.734 10.4005 24.0896 10.0005 24.0896V22.6229C10.4005 22.5785 10.756 22.934 10.756 23.334Z" fill="#CFCDD8"/>
<path d="M16.6669 24.0895C17.0842 24.0895 17.4225 23.7513 17.4225 23.334C17.4225 22.9167 17.0842 22.5785 16.6669 22.5785C16.2496 22.5785 15.9114 22.9167 15.9114 23.334C15.9114 23.7513 16.2496 24.0895 16.6669 24.0895Z" fill="#CFCDD8"/>
<path d="M23.3337 24.0895C23.7509 24.0895 24.0892 23.7513 24.0892 23.334C24.0892 22.9167 23.7509 22.5785 23.3337 22.5785C22.9164 22.5785 22.5781 22.9167 22.5781 23.334C22.5781 23.7513 22.9164 24.0895 23.3337 24.0895Z" fill="#CFCDD8"/>
<path d="M30.0002 24.0895C30.4174 24.0895 30.7557 23.7513 30.7557 23.334C30.7557 22.9167 30.4174 22.5785 30.0002 22.5785C29.5829 22.5785 29.2446 22.9167 29.2446 23.334C29.2446 23.7513 29.5829 24.0895 30.0002 24.0895Z" fill="#CFCDD8"/>
<path d="M36.6669 24.0895C37.0842 24.0895 37.4225 23.7513 37.4225 23.334C37.4225 22.9167 37.0842 22.5785 36.6669 22.5785C36.2496 22.5785 35.9114 22.9167 35.9114 23.334C35.9114 23.7513 36.2496 24.0895 36.6669 24.0895Z" fill="#CFCDD8"/>
<path d="M43.3332 24.0895C43.7505 24.0895 44.0887 23.7513 44.0887 23.334C44.0887 22.9167 43.7505 22.5785 43.3332 22.5785C42.9159 22.5785 42.5776 22.9167 42.5776 23.334C42.5776 23.7513 42.9159 24.0895 43.3332 24.0895Z" fill="#CFCDD8"/>
<path d="M49.9999 22.5785V24.0451C49.5999 24.0451 49.2444 23.6896 49.2444 23.2896C49.2444 22.934 49.5999 22.5785 49.9999 22.5785Z" fill="#CFCDD8"/>
<path d="M10.756 30.001C10.756 30.401 10.4005 30.7565 10.0005 30.7565V29.2899C10.4005 29.2455 10.756 29.601 10.756 30.001Z" fill="#CFCDD8"/>
<path d="M16.6669 30.756C17.0842 30.756 17.4225 30.4177 17.4225 30.0004C17.4225 29.5832 17.0842 29.2449 16.6669 29.2449C16.2496 29.2449 15.9114 29.5832 15.9114 30.0004C15.9114 30.4177 16.2496 30.756 16.6669 30.756Z" fill="#CFCDD8"/>
<path d="M23.3337 30.756C23.7509 30.756 24.0892 30.4177 24.0892 30.0004C24.0892 29.5832 23.7509 29.2449 23.3337 29.2449C22.9164 29.2449 22.5781 29.5832 22.5781 30.0004C22.5781 30.4177 22.9164 30.756 23.3337 30.756Z" fill="#CFCDD8"/>
<path d="M30.0002 30.756C30.4174 30.756 30.7557 30.4177 30.7557 30.0004C30.7557 29.5832 30.4174 29.2449 30.0002 29.2449C29.5829 29.2449 29.2446 29.5832 29.2446 30.0004C29.2446 30.4177 29.5829 30.756 30.0002 30.756Z" fill="#CFCDD8"/>
<path d="M36.6669 30.756C37.0842 30.756 37.4225 30.4177 37.4225 30.0004C37.4225 29.5832 37.0842 29.2449 36.6669 29.2449C36.2496 29.2449 35.9114 29.5832 35.9114 30.0004C35.9114 30.4177 36.2496 30.756 36.6669 30.756Z" fill="#CFCDD8"/>
<path d="M43.3332 30.756C43.7505 30.756 44.0887 30.4177 44.0887 30.0004C44.0887 29.5832 43.7505 29.2449 43.3332 29.2449C42.9159 29.2449 42.5776 29.5832 42.5776 30.0004C42.5776 30.4177 42.9159 30.756 43.3332 30.756Z" fill="#CFCDD8"/>
<path d="M49.9999 29.2449V30.7115C49.5999 30.7115 49.2444 30.356 49.2444 29.956C49.2444 29.6005 49.5999 29.2449 49.9999 29.2449Z" fill="#CFCDD8"/>
<path d="M10.756 36.6659C10.756 37.0658 10.4005 37.4214 10.0005 37.4214V35.9548C10.4005 35.9103 10.756 36.2659 10.756 36.6659Z" fill="#CFCDD8"/>
<path d="M16.6669 37.4219C17.0842 37.4219 17.4225 37.0836 17.4225 36.6664C17.4225 36.2491 17.0842 35.9108 16.6669 35.9108C16.2496 35.9108 15.9114 36.2491 15.9114 36.6664C15.9114 37.0836 16.2496 37.4219 16.6669 37.4219Z" fill="#CFCDD8"/>
<path d="M23.3337 37.4219C23.7509 37.4219 24.0892 37.0836 24.0892 36.6664C24.0892 36.2491 23.7509 35.9108 23.3337 35.9108C22.9164 35.9108 22.5781 36.2491 22.5781 36.6664C22.5781 37.0836 22.9164 37.4219 23.3337 37.4219Z" fill="#CFCDD8"/>
<path d="M30.0002 37.4219C30.4174 37.4219 30.7557 37.0836 30.7557 36.6664C30.7557 36.2491 30.4174 35.9108 30.0002 35.9108C29.5829 35.9108 29.2446 36.2491 29.2446 36.6664C29.2446 37.0836 29.5829 37.4219 30.0002 37.4219Z" fill="#CFCDD8"/>
<path d="M36.6669 37.4219C37.0842 37.4219 37.4225 37.0836 37.4225 36.6664C37.4225 36.2491 37.0842 35.9108 36.6669 35.9108C36.2496 35.9108 35.9114 36.2491 35.9114 36.6664C35.9114 37.0836 36.2496 37.4219 36.6669 37.4219Z" fill="#CFCDD8"/>
<path d="M43.3332 37.4219C43.7505 37.4219 44.0887 37.0836 44.0887 36.6664C44.0887 36.2491 43.7505 35.9108 43.3332 35.9108C42.9159 35.9108 42.5776 36.2491 42.5776 36.6664C42.5776 37.0836 42.9159 37.4219 43.3332 37.4219Z" fill="#CFCDD8"/>
<path d="M49.9999 35.9108V37.3775C49.5999 37.3775 49.2444 37.0219 49.2444 36.6219C49.2444 36.2664 49.5999 35.9108 49.9999 35.9108Z" fill="#CFCDD8"/>
<path d="M10.756 43.3334C10.756 43.7334 10.4005 44.0889 10.0005 44.0889V42.6223C10.4005 42.5779 10.756 42.9334 10.756 43.3334Z" fill="#CFCDD8"/>
<path d="M16.6669 44.0895C17.0842 44.0895 17.4225 43.7512 17.4225 43.3339C17.4225 42.9166 17.0842 42.5784 16.6669 42.5784C16.2496 42.5784 15.9114 42.9166 15.9114 43.3339C15.9114 43.7512 16.2496 44.0895 16.6669 44.0895Z" fill="#CFCDD8"/>
<path d="M23.3337 44.0895C23.7509 44.0895 24.0892 43.7512 24.0892 43.3339C24.0892 42.9166 23.7509 42.5784 23.3337 42.5784C22.9164 42.5784 22.5781 42.9166 22.5781 43.3339C22.5781 43.7512 22.9164 44.0895 23.3337 44.0895Z" fill="#CFCDD8"/>
<path d="M30.0002 44.0895C30.4174 44.0895 30.7557 43.7512 30.7557 43.3339C30.7557 42.9166 30.4174 42.5784 30.0002 42.5784C29.5829 42.5784 29.2446 42.9166 29.2446 43.3339C29.2446 43.7512 29.5829 44.0895 30.0002 44.0895Z" fill="#CFCDD8"/>
<path d="M36.6669 44.0895C37.0842 44.0895 37.4225 43.7512 37.4225 43.3339C37.4225 42.9166 37.0842 42.5784 36.6669 42.5784C36.2496 42.5784 35.9114 42.9166 35.9114 43.3339C35.9114 43.7512 36.2496 44.0895 36.6669 44.0895Z" fill="#CFCDD8"/>
<path d="M43.3332 44.0895C43.7505 44.0895 44.0887 43.7512 44.0887 43.3339C44.0887 42.9166 43.7505 42.5784 43.3332 42.5784C42.9159 42.5784 42.5776 42.9166 42.5776 43.3339C42.5776 43.7512 42.9159 44.0895 43.3332 44.0895Z" fill="#CFCDD8"/>
<path d="M49.9999 42.5784V44.045C49.5999 44.045 49.2444 43.6895 49.2444 43.2895C49.2444 42.9339 49.5999 42.5784 49.9999 42.5784Z" fill="#CFCDD8"/>
<path d="M10.756 49.9998H10.0005V49.2443C10.4005 49.2443 10.756 49.5998 10.756 49.9998Z" fill="#CFCDD8"/>
<path d="M17.4227 49.9998H15.9561C15.9561 49.5998 16.3116 49.2443 16.7116 49.2443C17.1116 49.2443 17.4227 49.5998 17.4227 49.9998Z" fill="#CFCDD8"/>
<path d="M24.0892 49.9998H22.6226C22.6226 49.5998 22.9781 49.2443 23.3781 49.2443C23.7781 49.2443 24.0892 49.5998 24.0892 49.9998Z" fill="#CFCDD8"/>
<path d="M30.7557 49.9998H29.2891C29.2891 49.5998 29.6446 49.2443 30.0446 49.2443C30.4446 49.2443 30.7557 49.5998 30.7557 49.9998Z" fill="#CFCDD8"/>
<path d="M37.4225 49.9998H35.9558C35.9558 49.5998 36.3114 49.2443 36.7114 49.2443C37.1113 49.2443 37.4225 49.5998 37.4225 49.9998Z" fill="#CFCDD8"/>
<path d="M44.089 49.9998H42.6223C42.6223 49.5998 42.9779 49.2443 43.3779 49.2443C43.7779 49.2443 44.089 49.5998 44.089 49.9998Z" fill="#CFCDD8"/>
<path d="M49.9999 49.2443V49.9998H49.2444C49.2444 49.5998 49.5999 49.2443 49.9999 49.2443Z" fill="#CFCDD8"/>
<path d="M13.3339 14.0899C13.7512 14.0899 14.0895 13.7516 14.0895 13.3343C14.0895 12.917 13.7512 12.5788 13.3339 12.5788C12.9166 12.5788 12.5784 12.917 12.5784 13.3343C12.5784 13.7516 12.9166 14.0899 13.3339 14.0899Z" fill="#CFCDD8"/>
<path d="M20.0004 14.0899C20.4177 14.0899 20.756 13.7516 20.756 13.3343C20.756 12.917 20.4177 12.5788 20.0004 12.5788C19.5831 12.5788 19.2449 12.917 19.2449 13.3343C19.2449 13.7516 19.5831 14.0899 20.0004 14.0899Z" fill="#CFCDD8"/>
<path d="M26.6669 14.0899C27.0842 14.0899 27.4225 13.7516 27.4225 13.3343C27.4225 12.917 27.0842 12.5788 26.6669 12.5788C26.2496 12.5788 25.9114 12.917 25.9114 13.3343C25.9114 13.7516 26.2496 14.0899 26.6669 14.0899Z" fill="#CFCDD8"/>
<path d="M33.3334 14.0899C33.7507 14.0899 34.089 13.7516 34.089 13.3343C34.089 12.917 33.7507 12.5788 33.3334 12.5788C32.9161 12.5788 32.5779 12.917 32.5779 13.3343C32.5779 13.7516 32.9161 14.0899 33.3334 14.0899Z" fill="#CFCDD8"/>
<path d="M40.0002 14.0899C40.4174 14.0899 40.7557 13.7516 40.7557 13.3343C40.7557 12.917 40.4174 12.5788 40.0002 12.5788C39.5829 12.5788 39.2446 12.917 39.2446 13.3343C39.2446 13.7516 39.5829 14.0899 40.0002 14.0899Z" fill="#CFCDD8"/>
<path d="M46.6667 14.0899C47.084 14.0899 47.4222 13.7516 47.4222 13.3343C47.4222 12.917 47.084 12.5788 46.6667 12.5788C46.2494 12.5788 45.9111 12.917 45.9111 13.3343C45.9111 13.7516 46.2494 14.0899 46.6667 14.0899Z" fill="#CFCDD8"/>
<path d="M13.3339 20.7558C13.7512 20.7558 14.0895 20.4175 14.0895 20.0002C14.0895 19.583 13.7512 19.2447 13.3339 19.2447C12.9166 19.2447 12.5784 19.583 12.5784 20.0002C12.5784 20.4175 12.9166 20.7558 13.3339 20.7558Z" fill="#CFCDD8"/>
<path d="M20.0004 20.7558C20.4177 20.7558 20.756 20.4175 20.756 20.0002C20.756 19.583 20.4177 19.2447 20.0004 19.2447C19.5831 19.2447 19.2449 19.583 19.2449 20.0002C19.2449 20.4175 19.5831 20.7558 20.0004 20.7558Z" fill="#CFCDD8"/>
<path d="M26.6669 20.7558C27.0842 20.7558 27.4225 20.4175 27.4225 20.0002C27.4225 19.583 27.0842 19.2447 26.6669 19.2447C26.2496 19.2447 25.9114 19.583 25.9114 20.0002C25.9114 20.4175 26.2496 20.7558 26.6669 20.7558Z" fill="#CFCDD8"/>
<path d="M33.3334 20.7558C33.7507 20.7558 34.089 20.4175 34.089 20.0002C34.089 19.583 33.7507 19.2447 33.3334 19.2447C32.9161 19.2447 32.5779 19.583 32.5779 20.0002C32.5779 20.4175 32.9161 20.7558 33.3334 20.7558Z" fill="#CFCDD8"/>
<path d="M40.0002 20.7558C40.4174 20.7558 40.7557 20.4175 40.7557 20.0002C40.7557 19.583 40.4174 19.2447 40.0002 19.2447C39.5829 19.2447 39.2446 19.583 39.2446 20.0002C39.2446 20.4175 39.5829 20.7558 40.0002 20.7558Z" fill="#CFCDD8"/>
<path d="M46.6667 20.7558C47.084 20.7558 47.4222 20.4175 47.4222 20.0002C47.4222 19.583 47.084 19.2447 46.6667 19.2447C46.2494 19.2447 45.9111 19.583 45.9111 20.0002C45.9111 20.4175 46.2494 20.7558 46.6667 20.7558Z" fill="#CFCDD8"/>
<path d="M13.3339 27.4222C13.7512 27.4222 14.0895 27.084 14.0895 26.6667C14.0895 26.2494 13.7512 25.9111 13.3339 25.9111C12.9166 25.9111 12.5784 26.2494 12.5784 26.6667C12.5784 27.084 12.9166 27.4222 13.3339 27.4222Z" fill="#CFCDD8"/>
<path d="M20.0004 27.4222C20.4177 27.4222 20.756 27.084 20.756 26.6667C20.756 26.2494 20.4177 25.9111 20.0004 25.9111C19.5831 25.9111 19.2449 26.2494 19.2449 26.6667C19.2449 27.084 19.5831 27.4222 20.0004 27.4222Z" fill="#CFCDD8"/>
<path d="M26.6669 27.4222C27.0842 27.4222 27.4225 27.084 27.4225 26.6667C27.4225 26.2494 27.0842 25.9111 26.6669 25.9111C26.2496 25.9111 25.9114 26.2494 25.9114 26.6667C25.9114 27.084 26.2496 27.4222 26.6669 27.4222Z" fill="#CFCDD8"/>
<path d="M33.3334 27.4222C33.7507 27.4222 34.089 27.084 34.089 26.6667C34.089 26.2494 33.7507 25.9111 33.3334 25.9111C32.9161 25.9111 32.5779 26.2494 32.5779 26.6667C32.5779 27.084 32.9161 27.4222 33.3334 27.4222Z" fill="#CFCDD8"/>
<path d="M40.0002 27.4222C40.4174 27.4222 40.7557 27.084 40.7557 26.6667C40.7557 26.2494 40.4174 25.9111 40.0002 25.9111C39.5829 25.9111 39.2446 26.2494 39.2446 26.6667C39.2446 27.084 39.5829 27.4222 40.0002 27.4222Z" fill="#CFCDD8"/>
<path d="M46.6667 27.4222C47.084 27.4222 47.4222 27.084 47.4222 26.6667C47.4222 26.2494 47.084 25.9111 46.6667 25.9111C46.2494 25.9111 45.9111 26.2494 45.9111 26.6667C45.9111 27.084 46.2494 27.4222 46.6667 27.4222Z" fill="#CFCDD8"/>
<path d="M13.3339 34.0898C13.7512 34.0898 14.0895 33.7515 14.0895 33.3342C14.0895 32.9169 13.7512 32.5787 13.3339 32.5787C12.9166 32.5787 12.5784 32.9169 12.5784 33.3342C12.5784 33.7515 12.9166 34.0898 13.3339 34.0898Z" fill="#CFCDD8"/>
<path d="M20.0004 34.0898C20.4177 34.0898 20.756 33.7515 20.756 33.3342C20.756 32.9169 20.4177 32.5787 20.0004 32.5787C19.5831 32.5787 19.2449 32.9169 19.2449 33.3342C19.2449 33.7515 19.5831 34.0898 20.0004 34.0898Z" fill="#CFCDD8"/>
<path d="M26.6669 34.0898C27.0842 34.0898 27.4225 33.7515 27.4225 33.3342C27.4225 32.9169 27.0842 32.5787 26.6669 32.5787C26.2496 32.5787 25.9114 32.9169 25.9114 33.3342C25.9114 33.7515 26.2496 34.0898 26.6669 34.0898Z" fill="#CFCDD8"/>
<path d="M33.3334 34.0898C33.7507 34.0898 34.089 33.7515 34.089 33.3342C34.089 32.9169 33.7507 32.5787 33.3334 32.5787C32.9161 32.5787 32.5779 32.9169 32.5779 33.3342C32.5779 33.7515 32.9161 34.0898 33.3334 34.0898Z" fill="#CFCDD8"/>
<path d="M40.0002 34.0898C40.4174 34.0898 40.7557 33.7515 40.7557 33.3342C40.7557 32.9169 40.4174 32.5787 40.0002 32.5787C39.5829 32.5787 39.2446 32.9169 39.2446 33.3342C39.2446 33.7515 39.5829 34.0898 40.0002 34.0898Z" fill="#CFCDD8"/>
<path d="M46.6667 34.0898C47.084 34.0898 47.4222 33.7515 47.4222 33.3342C47.4222 32.9169 47.084 32.5787 46.6667 32.5787C46.2494 32.5787 45.9111 32.9169 45.9111 33.3342C45.9111 33.7515 46.2494 34.0898 46.6667 34.0898Z" fill="#CFCDD8"/>
<path d="M13.3339 40.7557C13.7512 40.7557 14.0895 40.4174 14.0895 40.0001C14.0895 39.5829 13.7512 39.2446 13.3339 39.2446C12.9166 39.2446 12.5784 39.5829 12.5784 40.0001C12.5784 40.4174 12.9166 40.7557 13.3339 40.7557Z" fill="#CFCDD8"/>
<path d="M20.0004 40.7557C20.4177 40.7557 20.756 40.4174 20.756 40.0001C20.756 39.5829 20.4177 39.2446 20.0004 39.2446C19.5831 39.2446 19.2449 39.5829 19.2449 40.0001C19.2449 40.4174 19.5831 40.7557 20.0004 40.7557Z" fill="#CFCDD8"/>
<path d="M26.6669 40.7557C27.0842 40.7557 27.4225 40.4174 27.4225 40.0001C27.4225 39.5829 27.0842 39.2446 26.6669 39.2446C26.2496 39.2446 25.9114 39.5829 25.9114 40.0001C25.9114 40.4174 26.2496 40.7557 26.6669 40.7557Z" fill="#CFCDD8"/>
<path d="M33.3334 40.7557C33.7507 40.7557 34.089 40.4174 34.089 40.0001C34.089 39.5829 33.7507 39.2446 33.3334 39.2446C32.9161 39.2446 32.5779 39.5829 32.5779 40.0001C32.5779 40.4174 32.9161 40.7557 33.3334 40.7557Z" fill="#CFCDD8"/>
<path d="M40.0002 40.7557C40.4174 40.7557 40.7557 40.4174 40.7557 40.0001C40.7557 39.5829 40.4174 39.2446 40.0002 39.2446C39.5829 39.2446 39.2446 39.5829 39.2446 40.0001C39.2446 40.4174 39.5829 40.7557 40.0002 40.7557Z" fill="#CFCDD8"/>
<path d="M46.6667 40.7557C47.084 40.7557 47.4222 40.4174 47.4222 40.0001C47.4222 39.5829 47.084 39.2446 46.6667 39.2446C46.2494 39.2446 45.9111 39.5829 45.9111 40.0001C45.9111 40.4174 46.2494 40.7557 46.6667 40.7557Z" fill="#CFCDD8"/>
<path d="M13.3339 47.4216C13.7512 47.4216 14.0895 47.0833 14.0895 46.6661C14.0895 46.2488 13.7512 45.9105 13.3339 45.9105C12.9166 45.9105 12.5784 46.2488 12.5784 46.6661C12.5784 47.0833 12.9166 47.4216 13.3339 47.4216Z" fill="#CFCDD8"/>
<path d="M20.0004 47.4216C20.4177 47.4216 20.756 47.0833 20.756 46.6661C20.756 46.2488 20.4177 45.9105 20.0004 45.9105C19.5831 45.9105 19.2449 46.2488 19.2449 46.6661C19.2449 47.0833 19.5831 47.4216 20.0004 47.4216Z" fill="#CFCDD8"/>
<path d="M26.6669 47.4216C27.0842 47.4216 27.4225 47.0833 27.4225 46.6661C27.4225 46.2488 27.0842 45.9105 26.6669 45.9105C26.2496 45.9105 25.9114 46.2488 25.9114 46.6661C25.9114 47.0833 26.2496 47.4216 26.6669 47.4216Z" fill="#CFCDD8"/>
<path d="M33.3334 47.4216C33.7507 47.4216 34.089 47.0833 34.089 46.6661C34.089 46.2488 33.7507 45.9105 33.3334 45.9105C32.9161 45.9105 32.5779 46.2488 32.5779 46.6661C32.5779 47.0833 32.9161 47.4216 33.3334 47.4216Z" fill="#CFCDD8"/>
<path d="M40.0002 47.4216C40.4174 47.4216 40.7557 47.0833 40.7557 46.6661C40.7557 46.2488 40.4174 45.9105 40.0002 45.9105C39.5829 45.9105 39.2446 46.2488 39.2446 46.6661C39.2446 47.0833 39.5829 47.4216 40.0002 47.4216Z" fill="#CFCDD8"/>
<path d="M46.6667 47.4216C47.084 47.4216 47.4222 47.0833 47.4222 46.6661C47.4222 46.2488 47.084 45.9105 46.6667 45.9105C46.2494 45.9105 45.9111 46.2488 45.9111 46.6661C45.9111 47.0833 46.2494 47.4216 46.6667 47.4216Z" fill="#CFCDD8"/>
<path d="M30 30.0002C33.315 30.0002 36 27.3152 36 24.0002C36 20.6852 33.315 18.0002 30 18.0002C26.685 18.0002 24 20.6852 24 24.0002C24 27.3152 26.685 30.0002 30 30.0002ZM30 33.0002C25.995 33.0002 18 35.0102 18 39.0002V40.5002C18 41.3252 18.675 42.0002 19.5 42.0002H40.5C41.325 42.0002 42 41.3252 42 40.5002V39.0002C42 35.0102 34.005 33.0002 30 33.0002Z" fill="#575564"/>
<rect x="0.5" y="0.5" width="59" height="59" rx="29.5" stroke="#B3B0C0"/>
</svg>
