<svg width="24" height="24" viewBox="0 0 24 24" fill="none" xmlns="http://www.w3.org/2000/svg">
<g clip-path="url(#clip0_2631_19)">
<path opacity="0.5" fill-rule="evenodd" clip-rule="evenodd" d="M0.453912 0.000457764C0.453912 0.240457 0.240579 0.45379 0.00057984 0.45379V0.000457764H0.453912ZM4.4534 0.000457764C4.4534 0.240457 4.24007 0.45379 4.00007 0.45379C3.76007 0.45379 3.54674 0.240457 3.54674 0.000457764H4.4534ZM8.00015 0.45379C8.24015 0.45379 8.45349 0.240457 8.45349 0.000457764H7.54682C7.54682 0.240457 7.76015 0.45379 8.00015 0.45379ZM12.4534 0.000457764C12.4534 0.240457 12.2401 0.45379 12.0001 0.45379C11.7601 0.45379 11.5467 0.240457 11.5467 0.000457764H12.4534ZM16.0001 0.45379C16.2401 0.45379 16.4535 0.240457 16.4535 0.000457764H15.5468C15.5468 0.240457 15.7601 0.45379 16.0001 0.45379ZM20.4534 0.000457764C20.4534 0.240457 20.24 0.45379 20 0.45379C19.76 0.45379 19.5467 0.240457 19.5467 0.000457764H20.4534ZM24.0001 0.45379V0.000457764H23.5468C23.5468 0.240457 23.7601 0.45379 24.0001 0.45379ZM0.453454 3.99999C0.453454 4.23999 0.240122 4.45332 0.00012207 4.45332V3.57332C0.240122 3.54665 0.453454 3.75999 0.453454 3.99999ZM4.4534 4.00022C4.4534 4.25059 4.25044 4.45356 4.00007 4.45356C3.7497 4.45356 3.54674 4.25059 3.54674 4.00022C3.54674 3.74986 3.7497 3.54689 4.00007 3.54689C4.25044 3.54689 4.4534 3.74986 4.4534 4.00022ZM8.00015 4.45356C8.25052 4.45356 8.45349 4.25059 8.45349 4.00022C8.45349 3.74986 8.25052 3.54689 8.00015 3.54689C7.74979 3.54689 7.54682 3.74986 7.54682 4.00022C7.54682 4.25059 7.74979 4.45356 8.00015 4.45356ZM12.4534 4.00022C12.4534 4.25059 12.2504 4.45356 12.0001 4.45356C11.7497 4.45356 11.5467 4.25059 11.5467 4.00022C11.5467 3.74986 11.7497 3.54689 12.0001 3.54689C12.2504 3.54689 12.4534 3.74986 12.4534 4.00022ZM16.0001 4.45356C16.2505 4.45356 16.4535 4.25059 16.4535 4.00022C16.4535 3.74986 16.2505 3.54689 16.0001 3.54689C15.7498 3.54689 15.5468 3.74986 15.5468 4.00022C15.5468 4.25059 15.7498 4.45356 16.0001 4.45356ZM20.4534 4.00022C20.4534 4.25059 20.2504 4.45356 20 4.45356C19.7497 4.45356 19.5467 4.25059 19.5467 4.00022C19.5467 3.74986 19.7497 3.54689 20 3.54689C20.2504 3.54689 20.4534 3.74986 20.4534 4.00022ZM24.0001 3.54689V4.42689C23.7601 4.42689 23.5468 4.21356 23.5468 3.97356C23.5468 3.76022 23.7601 3.54689 24.0001 3.54689ZM0.00012207 8.45386C0.240122 8.45386 0.453454 8.24053 0.453454 8.00053C0.453454 7.76053 0.240122 7.5472 0.00012207 7.57386V8.45386ZM4.00007 8.45336C4.25044 8.45336 4.4534 8.2504 4.4534 8.00003C4.4534 7.74966 4.25044 7.5467 4.00007 7.5467C3.7497 7.5467 3.54674 7.74966 3.54674 8.00003C3.54674 8.2504 3.7497 8.45336 4.00007 8.45336ZM8.45349 8.00003C8.45349 8.2504 8.25052 8.45336 8.00015 8.45336C7.74979 8.45336 7.54682 8.2504 7.54682 8.00003C7.54682 7.74966 7.74979 7.5467 8.00015 7.5467C8.25052 7.5467 8.45349 7.74966 8.45349 8.00003ZM16.0001 8.45336C16.2505 8.45336 16.4535 8.2504 16.4535 8.00003C16.4535 7.74966 16.2505 7.5467 16.0001 7.5467C15.7498 7.5467 15.5468 7.74966 15.5468 8.00003C15.5468 8.2504 15.7498 8.45336 16.0001 8.45336ZM20.4534 8.00003C20.4534 8.2504 20.2504 8.45336 20 8.45336C19.7497 8.45336 19.5467 8.2504 19.5467 8.00003C19.5467 7.74966 19.7497 7.5467 20 7.5467C20.2504 7.5467 20.4534 7.74966 20.4534 8.00003ZM24.0001 7.5467V8.4267C23.7601 8.4267 23.5468 8.21337 23.5468 7.97337C23.5468 7.76003 23.7601 7.5467 24.0001 7.5467ZM0.00012207 12.4544C0.240122 12.4544 0.453454 12.2411 0.453454 12.0011C0.453454 11.7611 0.240122 11.5477 0.00012207 11.5744V12.4544ZM4.00007 12.4539C4.25044 12.4539 4.4534 12.2509 4.4534 12.0006C4.4534 11.7502 4.25044 11.5472 4.00007 11.5472C3.7497 11.5472 3.54674 11.7502 3.54674 12.0006C3.54674 12.2509 3.7497 12.4539 4.00007 12.4539ZM8.45349 12.0006C8.45349 12.2509 8.25052 12.4539 8.00015 12.4539C7.74979 12.4539 7.54682 12.2509 7.54682 12.0006C7.54682 11.7502 7.74979 11.5472 8.00015 11.5472C8.25052 11.5472 8.45349 11.7502 8.45349 12.0006ZM12.0001 12.4539C12.2504 12.4539 12.4534 12.2509 12.4534 12.0006C12.4534 11.7502 12.2504 11.5472 12.0001 11.5472C11.7497 11.5472 11.5467 11.7502 11.5467 12.0006C11.5467 12.2509 11.7497 12.4539 12.0001 12.4539ZM16.4535 12.0006C16.4535 12.2509 16.2505 12.4539 16.0001 12.4539C15.7498 12.4539 15.5468 12.2509 15.5468 12.0006C15.5468 11.7502 15.7498 11.5472 16.0001 11.5472C16.2505 11.5472 16.4535 11.7502 16.4535 12.0006ZM20 12.4539C20.2504 12.4539 20.4534 12.2509 20.4534 12.0006C20.4534 11.7502 20.2504 11.5472 20 11.5472C19.7497 11.5472 19.5467 11.7502 19.5467 12.0006C19.5467 12.2509 19.7497 12.4539 20 12.4539ZM24.0001 12.4272V11.5472C23.7601 11.5472 23.5468 11.7606 23.5468 11.9739C23.5468 12.2139 23.7601 12.4272 24.0001 12.4272ZM0.453454 15.9994C0.453454 16.2394 0.240122 16.4527 0.00012207 16.4527V15.5727C0.240122 15.5461 0.453454 15.7594 0.453454 15.9994ZM4.4534 15.9996C4.4534 16.25 4.25044 16.453 4.00007 16.453C3.7497 16.453 3.54674 16.25 3.54674 15.9996C3.54674 15.7493 3.7497 15.5463 4.00007 15.5463C4.25044 15.5463 4.4534 15.7493 4.4534 15.9996ZM20 16.453C20.2504 16.453 20.4534 16.25 20.4534 15.9996C20.4534 15.7493 20.2504 15.5463 20 15.5463C19.7497 15.5463 19.5467 15.7493 19.5467 15.9996C19.5467 16.25 19.7497 16.453 20 16.453ZM24.0001 16.4263V15.5463C23.7601 15.5463 23.5468 15.7596 23.5468 15.973C23.5468 16.213 23.7601 16.4263 24.0001 16.4263ZM0.453454 20C0.453454 20.24 0.240122 20.4533 0.00012207 20.4533V19.5733C0.240122 19.5466 0.453454 19.76 0.453454 20ZM4.4534 20.0002C4.4534 20.2506 4.25044 20.4535 4.00007 20.4535C3.7497 20.4535 3.54674 20.2506 3.54674 20.0002C3.54674 19.7498 3.7497 19.5469 4.00007 19.5469C4.25044 19.5469 4.4534 19.7498 4.4534 20.0002ZM8.00015 20.4535C8.25052 20.4535 8.45349 20.2506 8.45349 20.0002C8.45349 19.7498 8.25052 19.5469 8.00015 19.5469C7.74979 19.5469 7.54682 19.7498 7.54682 20.0002C7.54682 20.2506 7.74979 20.4535 8.00015 20.4535ZM12.4534 20.0002C12.4534 20.2506 12.2504 20.4535 12.0001 20.4535C11.7497 20.4535 11.5467 20.2506 11.5467 20.0002C11.5467 19.7498 11.7497 19.5469 12.0001 19.5469C12.2504 19.5469 12.4534 19.7498 12.4534 20.0002ZM16.0001 20.4535C16.2505 20.4535 16.4535 20.2506 16.4535 20.0002C16.4535 19.7498 16.2505 19.5469 16.0001 19.5469C15.7498 19.5469 15.5468 19.7498 15.5468 20.0002C15.5468 20.2506 15.7498 20.4535 16.0001 20.4535ZM20.4534 20.0002C20.4534 20.2506 20.2504 20.4535 20 20.4535C19.7497 20.4535 19.5467 20.2506 19.5467 20.0002C19.5467 19.7498 19.7497 19.5469 20 19.5469C20.2504 19.5469 20.4534 19.7498 20.4534 20.0002ZM24.0001 19.5469V20.4269C23.7601 20.4269 23.5468 20.2135 23.5468 19.9735C23.5468 19.7602 23.7601 19.5469 24.0001 19.5469ZM0.00012207 24H0.453454C0.453454 23.76 0.240122 23.5467 0.00012207 23.5467V24ZM4.45347 24H3.57347C3.57347 23.76 3.78681 23.5467 4.0268 23.5467C4.2668 23.5467 4.45347 23.76 4.45347 24ZM7.57346 24H8.45346C8.45346 23.76 8.2668 23.5467 8.0268 23.5467C7.7868 23.5467 7.57346 23.76 7.57346 24ZM12.4535 24H11.5735C11.5735 23.76 11.7868 23.5467 12.0268 23.5467C12.2668 23.5467 12.4535 23.76 12.4535 24ZM15.5735 24H16.4535C16.4535 23.76 16.2669 23.5467 16.0269 23.5467C15.7869 23.5467 15.5735 23.76 15.5735 24ZM20.4534 24H19.5734C19.5734 23.76 19.7868 23.5467 20.0268 23.5467C20.2668 23.5467 20.4534 23.76 20.4534 24ZM24.0001 24V23.5467C23.7601 23.5467 23.5468 23.76 23.5468 24H24.0001ZM2.00017 2.45402C2.25054 2.45402 2.4535 2.25105 2.4535 2.00069C2.4535 1.75032 2.25054 1.54735 2.00017 1.54735C1.7498 1.54735 1.54683 1.75032 1.54683 2.00069C1.54683 2.25105 1.7498 2.45402 2.00017 2.45402ZM6.45349 2.00069C6.45349 2.25105 6.25053 2.45402 6.00016 2.45402C5.74979 2.45402 5.54683 2.25105 5.54683 2.00069C5.54683 1.75032 5.74979 1.54735 6.00016 1.54735C6.25053 1.54735 6.45349 1.75032 6.45349 2.00069ZM10.0002 2.45402C10.2505 2.45402 10.4535 2.25105 10.4535 2.00069C10.4535 1.75032 10.2505 1.54735 10.0002 1.54735C9.74978 1.54735 9.54682 1.75032 9.54682 2.00069C9.54682 2.25105 9.74978 2.45402 10.0002 2.45402ZM14.4535 2.00069C14.4535 2.25105 14.2505 2.45402 14.0001 2.45402C13.7498 2.45402 13.5468 2.25105 13.5468 2.00069C13.5468 1.75032 13.7498 1.54735 14.0001 1.54735C14.2505 1.54735 14.4535 1.75032 14.4535 2.00069ZM18.0001 2.45402C18.2505 2.45402 18.4535 2.25105 18.4535 2.00069C18.4535 1.75032 18.2505 1.54735 18.0001 1.54735C17.7498 1.54735 17.5468 1.75032 17.5468 2.00069C17.5468 2.25105 17.7498 2.45402 18.0001 2.45402ZM22.4535 2.00069C22.4535 2.25105 22.2505 2.45402 22.0001 2.45402C21.7498 2.45402 21.5468 2.25105 21.5468 2.00069C21.5468 1.75032 21.7498 1.54735 22.0001 1.54735C22.2505 1.54735 22.4535 1.75032 22.4535 2.00069ZM2.00017 6.45383C2.25054 6.45383 2.4535 6.25086 2.4535 6.00049C2.4535 5.75013 2.25054 5.54716 2.00017 5.54716C1.7498 5.54716 1.54683 5.75013 1.54683 6.00049C1.54683 6.25086 1.7498 6.45383 2.00017 6.45383ZM6.45349 6.00049C6.45349 6.25086 6.25053 6.45383 6.00016 6.45383C5.74979 6.45383 5.54683 6.25086 5.54683 6.00049C5.54683 5.75013 5.74979 5.54716 6.00016 5.54716C6.25053 5.54716 6.45349 5.75013 6.45349 6.00049ZM18.0001 6.45383C18.2505 6.45383 18.4535 6.25086 18.4535 6.00049C18.4535 5.75013 18.2505 5.54716 18.0001 5.54716C17.7498 5.54716 17.5468 5.75013 17.5468 6.00049C17.5468 6.25086 17.7498 6.45383 18.0001 6.45383ZM22.4535 6.00049C22.4535 6.25086 22.2505 6.45383 22.0001 6.45383C21.7498 6.45383 21.5468 6.25086 21.5468 6.00049C21.5468 5.75013 21.7498 5.54716 22.0001 5.54716C22.2505 5.54716 22.4535 5.75013 22.4535 6.00049ZM2.00017 10.4536C2.25054 10.4536 2.4535 10.2507 2.4535 10.0003C2.4535 9.74993 2.25054 9.54697 2.00017 9.54697C1.7498 9.54697 1.54683 9.74993 1.54683 10.0003C1.54683 10.2507 1.7498 10.4536 2.00017 10.4536ZM6.45349 10.0003C6.45349 10.2507 6.25053 10.4536 6.00016 10.4536C5.74979 10.4536 5.54683 10.2507 5.54683 10.0003C5.54683 9.74993 5.74979 9.54697 6.00016 9.54697C6.25053 9.54697 6.45349 9.74993 6.45349 10.0003ZM18.0001 10.4536C18.2505 10.4536 18.4535 10.2507 18.4535 10.0003C18.4535 9.74993 18.2505 9.54697 18.0001 9.54697C17.7498 9.54697 17.5468 9.74993 17.5468 10.0003C17.5468 10.2507 17.7498 10.4536 18.0001 10.4536ZM22.4535 10.0003C22.4535 10.2507 22.2505 10.4536 22.0001 10.4536C21.7498 10.4536 21.5468 10.2507 21.5468 10.0003C21.5468 9.74993 21.7498 9.54697 22.0001 9.54697C22.2505 9.54697 22.4535 9.74993 22.4535 10.0003ZM2.00017 14.4542C2.25054 14.4542 2.4535 14.2512 2.4535 14.0008C2.4535 13.7505 2.25054 13.5475 2.00017 13.5475C1.7498 13.5475 1.54683 13.7505 1.54683 14.0008C1.54683 14.2512 1.7498 14.4542 2.00017 14.4542ZM6.45349 14.0008C6.45349 14.2512 6.25053 14.4542 6.00016 14.4542C5.74979 14.4542 5.54683 14.2512 5.54683 14.0008C5.54683 13.7505 5.74979 13.5475 6.00016 13.5475C6.25053 13.5475 6.45349 13.7505 6.45349 14.0008ZM10.0002 14.4542C10.2505 14.4542 10.4535 14.2512 10.4535 14.0008C10.4535 13.7505 10.2505 13.5475 10.0002 13.5475C9.74978 13.5475 9.54682 13.7505 9.54682 14.0008C9.54682 14.2512 9.74978 14.4542 10.0002 14.4542ZM14.4535 14.0008C14.4535 14.2512 14.2505 14.4542 14.0001 14.4542C13.7498 14.4542 13.5468 14.2512 13.5468 14.0008C13.5468 13.7505 13.7498 13.5475 14.0001 13.5475C14.2505 13.5475 14.4535 13.7505 14.4535 14.0008ZM18.0001 14.4542C18.2505 14.4542 18.4535 14.2512 18.4535 14.0008C18.4535 13.7505 18.2505 13.5475 18.0001 13.5475C17.7498 13.5475 17.5468 13.7505 17.5468 14.0008C17.5468 14.2512 17.7498 14.4542 18.0001 14.4542ZM22.4535 14.0008C22.4535 14.2512 22.2505 14.4542 22.0001 14.4542C21.7498 14.4542 21.5468 14.2512 21.5468 14.0008C21.5468 13.7505 21.7498 13.5475 22.0001 13.5475C22.2505 13.5475 22.4535 13.7505 22.4535 14.0008ZM2.00017 18.4532C2.25054 18.4532 2.4535 18.2503 2.4535 17.9999C2.4535 17.7495 2.25054 17.5466 2.00017 17.5466C1.7498 17.5466 1.54683 17.7495 1.54683 17.9999C1.54683 18.2503 1.7498 18.4532 2.00017 18.4532ZM22.4535 17.9999C22.4535 18.2503 22.2505 18.4532 22.0001 18.4532C21.7498 18.4532 21.5468 18.2503 21.5468 17.9999C21.5468 17.7495 21.7498 17.5466 22.0001 17.5466C22.2505 17.5466 22.4535 17.7495 22.4535 17.9999ZM2.00017 22.4531C2.25054 22.4531 2.4535 22.2501 2.4535 21.9997C2.4535 21.7494 2.25054 21.5464 2.00017 21.5464C1.7498 21.5464 1.54683 21.7494 1.54683 21.9997C1.54683 22.2501 1.7498 22.4531 2.00017 22.4531ZM6.45349 21.9997C6.45349 22.2501 6.25053 22.4531 6.00016 22.4531C5.74979 22.4531 5.54683 22.2501 5.54683 21.9997C5.54683 21.7494 5.74979 21.5464 6.00016 21.5464C6.25053 21.5464 6.45349 21.7494 6.45349 21.9997ZM10.0002 22.4531C10.2505 22.4531 10.4535 22.2501 10.4535 21.9997C10.4535 21.7494 10.2505 21.5464 10.0002 21.5464C9.74978 21.5464 9.54682 21.7494 9.54682 21.9997C9.54682 22.2501 9.74978 22.4531 10.0002 22.4531ZM14.4535 21.9997C14.4535 22.2501 14.2505 22.4531 14.0001 22.4531C13.7498 22.4531 13.5468 22.2501 13.5468 21.9997C13.5468 21.7494 13.7498 21.5464 14.0001 21.5464C14.2505 21.5464 14.4535 21.7494 14.4535 21.9997ZM18.0001 22.4531C18.2505 22.4531 18.4535 22.2501 18.4535 21.9997C18.4535 21.7494 18.2505 21.5464 18.0001 21.5464C17.7498 21.5464 17.5468 21.7494 17.5468 21.9997C17.5468 22.2501 17.7498 22.4531 18.0001 22.4531ZM22.4535 21.9997C22.4535 22.2501 22.2505 22.4531 22.0001 22.4531C21.7498 22.4531 21.5468 22.2501 21.5468 21.9997C21.5468 21.7494 21.7498 21.5464 22.0001 21.5464C22.2505 21.5464 22.4535 21.7494 22.4535 21.9997Z" fill="black"/>
<path d="M12 12C14.21 12 16 10.21 16 8C16 5.79 14.21 4 12 4C9.79 4 8 5.79 8 8C8 10.21 9.79 12 12 12ZM12 14C9.33 14 4 15.34 4 18V19C4 19.55 4.45 20 5 20H19C19.55 20 20 19.55 20 19V18C20 15.34 14.67 14 12 14Z" fill="black"/>
</g>
<defs>
<clipPath id="clip0_2631_19">
<rect width="24" height="24" fill="white"/>
</clipPath>
</defs>
</svg>
