<svg width="24" height="24" viewBox="0 0 24 24" fill="none" xmlns="http://www.w3.org/2000/svg">
<path d="M13 20C13.29 20 13.56 19.94 13.76 19.85C14.47 19.48 14.97 18.97 15.47 17.47C15.98 15.91 16.94 15.18 17.86 14.47C18.65 13.86 19.47 13.23 20.18 11.94C20.71 10.98 21 9.93 21 9C21 6.2 18.8 4 16 4C13.2 4 11 6.2 11 9H9C9 5.07 12.07 2 16 2C19.93 2 23 5.07 23 9C23 10.26 22.62 11.65 21.93 12.9C21.02 14.55 19.95 15.38 19.08 16.05C18.27 16.67 17.69 17.12 17.37 18.1C16.77 19.92 16 20.94 14.64 21.65C14.13 21.88 13.57 22 13 22C10.79 22 9 20.21 9 18H11C11 19.1 11.9 20 13 20Z" />
<path d="M6.4 9.4L5 8L0 13L5 18L6.4 16.6L3.8 14H12V12H3.8L6.4 9.4Z" />
</svg>
