<svg width="24" height="24" viewBox="0 0 24 24" fill="none" xmlns="http://www.w3.org/2000/svg">
<path opacity="0.1" fill-rule="evenodd" clip-rule="evenodd" d="M4.30279 4.00049C4.30279 4.16049 4.16057 4.30271 4.00057 4.30271V4.00049H4.30279ZM6.96908 4.00049C6.96908 4.16049 6.82686 4.30271 6.66686 4.30271C6.50687 4.30271 6.36465 4.16049 6.36465 4.00049H6.96908ZM9.3335 4.30271C9.4935 4.30271 9.63572 4.16049 9.63572 4.00049H9.03128C9.03128 4.16049 9.1735 4.30271 9.3335 4.30271ZM12.3023 4.00049C12.3023 4.16049 12.1601 4.30271 12.0001 4.30271C11.8401 4.30271 11.6979 4.16049 11.6979 4.00049H12.3023ZM14.6668 4.30271C14.8268 4.30271 14.969 4.16049 14.969 4.00049H14.3646C14.3646 4.16049 14.5068 4.30271 14.6668 4.30271ZM17.6356 4.00049C17.6356 4.16049 17.4934 4.30271 17.3334 4.30271C17.1734 4.30271 17.0311 4.16049 17.0311 4.00049H17.6356ZM20 4.30271V4.00049H19.6978C19.6978 4.16049 19.84 4.30271 20 4.30271ZM4.30246 6.66681C4.30246 6.8268 4.16024 6.96902 4.00024 6.96902V6.38237C4.16024 6.36459 4.30246 6.50681 4.30246 6.66681ZM6.96908 6.66696C6.96908 6.83387 6.83377 6.96918 6.66686 6.96918C6.49995 6.96918 6.36465 6.83387 6.36465 6.66696C6.36465 6.50005 6.49995 6.36475 6.66686 6.36475C6.83377 6.36475 6.96908 6.50005 6.96908 6.66696ZM9.3335 6.96918C9.50041 6.96918 9.63572 6.83387 9.63572 6.66696C9.63572 6.50005 9.50041 6.36475 9.3335 6.36475C9.16659 6.36475 9.03128 6.50005 9.03128 6.66696C9.03128 6.83387 9.16659 6.96918 9.3335 6.96918ZM12.3023 6.66696C12.3023 6.83387 12.167 6.96918 12.0001 6.96918C11.8332 6.96918 11.6979 6.83387 11.6979 6.66696C11.6979 6.50005 11.8332 6.36475 12.0001 6.36475C12.167 6.36475 12.3023 6.50005 12.3023 6.66696ZM14.6668 6.96918C14.8337 6.96918 14.969 6.83387 14.969 6.66696C14.969 6.50005 14.8337 6.36475 14.6668 6.36475C14.4999 6.36475 14.3646 6.50005 14.3646 6.66696C14.3646 6.83387 14.4999 6.96918 14.6668 6.96918ZM17.6356 6.66696C17.6356 6.83387 17.5003 6.96918 17.3334 6.96918C17.1665 6.96918 17.0311 6.83387 17.0311 6.66696C17.0311 6.50005 17.1665 6.36475 17.3334 6.36475C17.5003 6.36475 17.6356 6.50005 17.6356 6.66696ZM20 6.36475V6.9514C19.84 6.9514 19.6978 6.80918 19.6978 6.64919C19.6978 6.50697 19.84 6.36475 20 6.36475ZM4.00024 9.63602C4.16024 9.63602 4.30246 9.4938 4.30246 9.3338C4.30246 9.1738 4.16024 9.03158 4.00024 9.04936V9.63602ZM6.66686 9.63569C6.83377 9.63569 6.96908 9.50038 6.96908 9.33347C6.96908 9.16656 6.83377 9.03125 6.66686 9.03125C6.49995 9.03125 6.36465 9.16656 6.36465 9.33347C6.36465 9.50038 6.49995 9.63569 6.66686 9.63569ZM9.63572 9.33347C9.63572 9.50038 9.50041 9.63569 9.3335 9.63569C9.16659 9.63569 9.03128 9.50038 9.03128 9.33347C9.03128 9.16656 9.16659 9.03125 9.3335 9.03125C9.50041 9.03125 9.63572 9.16656 9.63572 9.33347ZM14.6668 9.63569C14.8337 9.63569 14.969 9.50038 14.969 9.33347C14.969 9.16656 14.8337 9.03125 14.6668 9.03125C14.4999 9.03125 14.3646 9.16656 14.3646 9.33347C14.3646 9.50038 14.4999 9.63569 14.6668 9.63569ZM17.6356 9.33347C17.6356 9.50038 17.5003 9.63569 17.3334 9.63569C17.1665 9.63569 17.0311 9.50038 17.0311 9.33347C17.0311 9.16656 17.1665 9.03125 17.3334 9.03125C17.5003 9.03125 17.6356 9.16656 17.6356 9.33347ZM20 9.03125V9.61791C19.84 9.61791 19.6978 9.47569 19.6978 9.31569C19.6978 9.17347 19.84 9.03125 20 9.03125ZM4.00024 12.303C4.16024 12.303 4.30246 12.1608 4.30246 12.0008C4.30246 11.8408 4.16024 11.6986 4.00024 11.7164V12.303ZM6.66686 12.3027C6.83377 12.3027 6.96908 12.1674 6.96908 12.0005C6.96908 11.8335 6.83377 11.6982 6.66686 11.6982C6.49995 11.6982 6.36465 11.8335 6.36465 12.0005C6.36465 12.1674 6.49995 12.3027 6.66686 12.3027ZM9.63572 12.0005C9.63572 12.1674 9.50041 12.3027 9.3335 12.3027C9.16659 12.3027 9.03128 12.1674 9.03128 12.0005C9.03128 11.8335 9.16659 11.6982 9.3335 11.6982C9.50041 11.6982 9.63572 11.8335 9.63572 12.0005ZM12.0001 12.3027C12.167 12.3027 12.3023 12.1674 12.3023 12.0005C12.3023 11.8335 12.167 11.6982 12.0001 11.6982C11.8332 11.6982 11.6979 11.8335 11.6979 12.0005C11.6979 12.1674 11.8332 12.3027 12.0001 12.3027ZM14.969 12.0005C14.969 12.1674 14.8337 12.3027 14.6668 12.3027C14.4999 12.3027 14.3646 12.1674 14.3646 12.0005C14.3646 11.8335 14.4999 11.6982 14.6668 11.6982C14.8337 11.6982 14.969 11.8335 14.969 12.0005ZM17.3334 12.3027C17.5003 12.3027 17.6356 12.1674 17.6356 12.0005C17.6356 11.8335 17.5003 11.6982 17.3334 11.6982C17.1665 11.6982 17.0311 11.8335 17.0311 12.0005C17.0311 12.1674 17.1665 12.3027 17.3334 12.3027ZM20 12.2849V11.6982C19.84 11.6982 19.6978 11.8405 19.6978 11.9827C19.6978 12.1427 19.84 12.2849 20 12.2849ZM4.30246 14.6663C4.30246 14.8263 4.16024 14.9685 4.00024 14.9685V14.3819C4.16024 14.3641 4.30246 14.5063 4.30246 14.6663ZM6.96908 14.6665C6.96908 14.8334 6.83377 14.9687 6.66686 14.9687C6.49995 14.9687 6.36465 14.8334 6.36465 14.6665C6.36465 14.4996 6.49995 14.3643 6.66686 14.3643C6.83377 14.3643 6.96908 14.4996 6.96908 14.6665ZM17.3334 14.9687C17.5003 14.9687 17.6356 14.8334 17.6356 14.6665C17.6356 14.4996 17.5003 14.3643 17.3334 14.3643C17.1665 14.3643 17.0311 14.4996 17.0311 14.6665C17.0311 14.8334 17.1665 14.9687 17.3334 14.9687ZM20 14.9509V14.3643C19.84 14.3643 19.6978 14.5065 19.6978 14.6487C19.6978 14.8087 19.84 14.9509 20 14.9509ZM4.30246 17.3333C4.30246 17.4933 4.16024 17.6355 4.00024 17.6355V17.0489C4.16024 17.0311 4.30246 17.1733 4.30246 17.3333ZM6.96908 17.3335C6.96908 17.5004 6.83377 17.6357 6.66686 17.6357C6.49995 17.6357 6.36465 17.5004 6.36465 17.3335C6.36465 17.1666 6.49995 17.0312 6.66686 17.0312C6.83377 17.0312 6.96908 17.1666 6.96908 17.3335ZM9.3335 17.6357C9.50041 17.6357 9.63572 17.5004 9.63572 17.3335C9.63572 17.1666 9.50041 17.0312 9.3335 17.0312C9.16659 17.0312 9.03128 17.1666 9.03128 17.3335C9.03128 17.5004 9.16659 17.6357 9.3335 17.6357ZM12.3023 17.3335C12.3023 17.5004 12.167 17.6357 12.0001 17.6357C11.8332 17.6357 11.6979 17.5004 11.6979 17.3335C11.6979 17.1666 11.8332 17.0312 12.0001 17.0312C12.167 17.0312 12.3023 17.1666 12.3023 17.3335ZM14.6668 17.6357C14.8337 17.6357 14.969 17.5004 14.969 17.3335C14.969 17.1666 14.8337 17.0312 14.6668 17.0312C14.4999 17.0312 14.3646 17.1666 14.3646 17.3335C14.3646 17.5004 14.4999 17.6357 14.6668 17.6357ZM17.6356 17.3335C17.6356 17.5004 17.5003 17.6357 17.3334 17.6357C17.1665 17.6357 17.0311 17.5004 17.0311 17.3335C17.0311 17.1666 17.1665 17.0312 17.3334 17.0312C17.5003 17.0312 17.6356 17.1666 17.6356 17.3335ZM20 17.0312V17.6179C19.84 17.6179 19.6978 17.4757 19.6978 17.3157C19.6978 17.1735 19.84 17.0312 20 17.0312ZM4.00024 20H4.30246C4.30246 19.84 4.16024 19.6978 4.00024 19.6978V20ZM6.96909 20H6.38243C6.38243 19.84 6.52466 19.6978 6.68465 19.6978C6.84465 19.6978 6.96909 19.84 6.96909 20ZM9.04905 20H9.6357C9.6357 19.84 9.51126 19.6978 9.35126 19.6978C9.19127 19.6978 9.04905 19.84 9.04905 20ZM12.3024 20H11.7157C11.7157 19.84 11.8579 19.6978 12.0179 19.6978C12.1779 19.6978 12.3024 19.84 12.3024 20ZM14.3824 20H14.969C14.969 19.84 14.8446 19.6978 14.6846 19.6978C14.5246 19.6978 14.3824 19.84 14.3824 20ZM17.6356 20H17.0489C17.0489 19.84 17.1912 19.6978 17.3512 19.6978C17.5112 19.6978 17.6356 19.84 17.6356 20ZM20 20V19.6978C19.84 19.6978 19.6978 19.84 19.6978 20H20ZM5.33357 5.63617C5.50048 5.63617 5.63579 5.50087 5.63579 5.33396C5.63579 5.16705 5.50048 5.03174 5.33357 5.03174C5.16666 5.03174 5.03136 5.16705 5.03136 5.33396C5.03136 5.50087 5.16666 5.63617 5.33357 5.63617ZM8.3024 5.33396C8.3024 5.50087 8.1671 5.63617 8.00019 5.63617C7.83328 5.63617 7.69797 5.50087 7.69797 5.33396C7.69797 5.16705 7.83328 5.03174 8.00019 5.03174C8.1671 5.03174 8.3024 5.16705 8.3024 5.33396ZM10.6668 5.63617C10.8337 5.63617 10.969 5.50087 10.969 5.33396C10.969 5.16705 10.8337 5.03174 10.6668 5.03174C10.4999 5.03174 10.3646 5.16705 10.3646 5.33396C10.3646 5.50087 10.4999 5.63617 10.6668 5.63617ZM13.6357 5.33396C13.6357 5.50087 13.5003 5.63617 13.3334 5.63617C13.1665 5.63617 13.0312 5.50087 13.0312 5.33396C13.0312 5.16705 13.1665 5.03174 13.3334 5.03174C13.5003 5.03174 13.6357 5.16705 13.6357 5.33396ZM16.0001 5.63617C16.167 5.63617 16.3023 5.50087 16.3023 5.33396C16.3023 5.16705 16.167 5.03174 16.0001 5.03174C15.8332 5.03174 15.6979 5.16705 15.6979 5.33396C15.6979 5.50087 15.8332 5.63617 16.0001 5.63617ZM18.9689 5.33396C18.9689 5.50087 18.8336 5.63617 18.6667 5.63617C18.4998 5.63617 18.3645 5.50087 18.3645 5.33396C18.3645 5.16705 18.4998 5.03174 18.6667 5.03174C18.8336 5.03174 18.9689 5.16705 18.9689 5.33396ZM5.33357 8.30268C5.50048 8.30268 5.63579 8.16737 5.63579 8.00046C5.63579 7.83355 5.50048 7.69824 5.33357 7.69824C5.16666 7.69824 5.03136 7.83355 5.03136 8.00046C5.03136 8.16737 5.16666 8.30268 5.33357 8.30268ZM8.3024 8.00046C8.3024 8.16737 8.1671 8.30268 8.00019 8.30268C7.83328 8.30268 7.69797 8.16737 7.69797 8.00046C7.69797 7.83355 7.83328 7.69824 8.00019 7.69824C8.1671 7.69824 8.3024 7.83355 8.3024 8.00046ZM16.0001 8.30268C16.167 8.30268 16.3023 8.16737 16.3023 8.00046C16.3023 7.83355 16.167 7.69824 16.0001 7.69824C15.8332 7.69824 15.6979 7.83355 15.6979 8.00046C15.6979 8.16737 15.8332 8.30268 16.0001 8.30268ZM18.9689 8.00046C18.9689 8.16737 18.8336 8.30268 18.6667 8.30268C18.4998 8.30268 18.3645 8.16737 18.3645 8.00046C18.3645 7.83355 18.4998 7.69824 18.6667 7.69824C18.8336 7.69824 18.9689 7.83355 18.9689 8.00046ZM5.33357 10.9692C5.50048 10.9692 5.63579 10.8339 5.63579 10.667C5.63579 10.5001 5.50048 10.3647 5.33357 10.3647C5.16666 10.3647 5.03136 10.5001 5.03136 10.667C5.03136 10.8339 5.16666 10.9692 5.33357 10.9692ZM8.3024 10.667C8.3024 10.8339 8.1671 10.9692 8.00019 10.9692C7.83328 10.9692 7.69797 10.8339 7.69797 10.667C7.69797 10.5001 7.83328 10.3647 8.00019 10.3647C8.1671 10.3647 8.3024 10.5001 8.3024 10.667ZM16.0001 10.9692C16.167 10.9692 16.3023 10.8339 16.3023 10.667C16.3023 10.5001 16.167 10.3647 16.0001 10.3647C15.8332 10.3647 15.6979 10.5001 15.6979 10.667C15.6979 10.8339 15.8332 10.9692 16.0001 10.9692ZM18.9689 10.667C18.9689 10.8339 18.8336 10.9692 18.6667 10.9692C18.4998 10.9692 18.3645 10.8339 18.3645 10.667C18.3645 10.5001 18.4998 10.3647 18.6667 10.3647C18.8336 10.3647 18.9689 10.5001 18.9689 10.667ZM5.33357 13.6362C5.50048 13.6362 5.63579 13.5009 5.63579 13.334C5.63579 13.167 5.50048 13.0317 5.33357 13.0317C5.16666 13.0317 5.03136 13.167 5.03136 13.334C5.03136 13.5009 5.16666 13.6362 5.33357 13.6362ZM8.3024 13.334C8.3024 13.5009 8.1671 13.6362 8.00019 13.6362C7.83328 13.6362 7.69797 13.5009 7.69797 13.334C7.69797 13.167 7.83328 13.0317 8.00019 13.0317C8.1671 13.0317 8.3024 13.167 8.3024 13.334ZM10.6668 13.6362C10.8337 13.6362 10.969 13.5009 10.969 13.334C10.969 13.167 10.8337 13.0317 10.6668 13.0317C10.4999 13.0317 10.3646 13.167 10.3646 13.334C10.3646 13.5009 10.4999 13.6362 10.6668 13.6362ZM13.6357 13.334C13.6357 13.5009 13.5003 13.6362 13.3334 13.6362C13.1665 13.6362 13.0312 13.5009 13.0312 13.334C13.0312 13.167 13.1665 13.0317 13.3334 13.0317C13.5003 13.0317 13.6357 13.167 13.6357 13.334ZM16.0001 13.6362C16.167 13.6362 16.3023 13.5009 16.3023 13.334C16.3023 13.167 16.167 13.0317 16.0001 13.0317C15.8332 13.0317 15.6979 13.167 15.6979 13.334C15.6979 13.5009 15.8332 13.6362 16.0001 13.6362ZM18.9689 13.334C18.9689 13.5009 18.8336 13.6362 18.6667 13.6362C18.4998 13.6362 18.3645 13.5009 18.3645 13.334C18.3645 13.167 18.4998 13.0317 18.6667 13.0317C18.8336 13.0317 18.9689 13.167 18.9689 13.334ZM5.33357 16.3022C5.50048 16.3022 5.63579 16.1669 5.63579 16C5.63579 15.8331 5.50048 15.6978 5.33357 15.6978C5.16666 15.6978 5.03136 15.8331 5.03136 16C5.03136 16.1669 5.16666 16.3022 5.33357 16.3022ZM18.9689 16C18.9689 16.1669 18.8336 16.3022 18.6667 16.3022C18.4998 16.3022 18.3645 16.1669 18.3645 16C18.3645 15.8331 18.4998 15.6978 18.6667 15.6978C18.8336 15.6978 18.9689 15.8331 18.9689 16ZM5.33357 18.9687C5.50048 18.9687 5.63579 18.8334 5.63579 18.6665C5.63579 18.4996 5.50048 18.3643 5.33357 18.3643C5.16666 18.3643 5.03136 18.4996 5.03136 18.6665C5.03136 18.8334 5.16666 18.9687 5.33357 18.9687ZM8.3024 18.6665C8.3024 18.8334 8.1671 18.9687 8.00019 18.9687C7.83328 18.9687 7.69797 18.8334 7.69797 18.6665C7.69797 18.4996 7.83328 18.3643 8.00019 18.3643C8.1671 18.3643 8.3024 18.4996 8.3024 18.6665ZM10.6668 18.9687C10.8337 18.9687 10.969 18.8334 10.969 18.6665C10.969 18.4996 10.8337 18.3643 10.6668 18.3643C10.4999 18.3643 10.3646 18.4996 10.3646 18.6665C10.3646 18.8334 10.4999 18.9687 10.6668 18.9687ZM13.6357 18.6665C13.6357 18.8334 13.5003 18.9687 13.3334 18.9687C13.1665 18.9687 13.0312 18.8334 13.0312 18.6665C13.0312 18.4996 13.1665 18.3643 13.3334 18.3643C13.5003 18.3643 13.6357 18.4996 13.6357 18.6665ZM16.0001 18.9687C16.167 18.9687 16.3023 18.8334 16.3023 18.6665C16.3023 18.4996 16.167 18.3643 16.0001 18.3643C15.8332 18.3643 15.6979 18.4996 15.6979 18.6665C15.6979 18.8334 15.8332 18.9687 16.0001 18.9687ZM18.9689 18.6665C18.9689 18.8334 18.8336 18.9687 18.6667 18.9687C18.4998 18.9687 18.3645 18.8334 18.3645 18.6665C18.3645 18.4996 18.4998 18.3643 18.6667 18.3643C18.8336 18.3643 18.9689 18.4996 18.9689 18.6665Z" fill="black"/>
<path d="M12 12C13.3812 12 14.5 10.8812 14.5 9.5C14.5 8.11875 13.3812 7 12 7C10.6188 7 9.5 8.11875 9.5 9.5C9.5 10.8812 10.6188 12 12 12ZM12 13.25C10.3312 13.25 7 14.0875 7 15.75V16.375C7 16.7188 7.28125 17 7.625 17H16.375C16.7188 17 17 16.7188 17 16.375V15.75C17 14.0875 13.6687 13.25 12 13.25Z" fill="black"/>
</svg>
