<svg width="24" height="24" viewBox="0 0 24 24" fill="none" xmlns="http://www.w3.org/2000/svg">
<path fill-rule="evenodd" clip-rule="evenodd" d="M16 7V5C16 3.89 15.11 3 14 3H10C8.89 3 8 3.89 8 5V7H4C3 7 2 8 2 9V19C2 20.11 2.89 21 4 21H20C21.11 21 22 20.11 22 19V9C22 8 21 7 20 7H16ZM10 5H14V7H10V5ZM6 10.5C6 10.2239 6.22386 10 6.5 10H17.5C17.7761 10 18 10.2239 18 10.5V11.5C18 11.7761 17.7761 12 17.5 12H6.5C6.22386 12 6 11.7761 6 11.5V10.5ZM6 13.5C6 13.2239 6.22386 13 6.5 13H17.5C17.7761 13 18 13.2239 18 13.5V14.5C18 14.7761 17.7761 15 17.5 15H6.5C6.22386 15 6 14.7761 6 14.5V13.5ZM6.5 16C6.22386 16 6 16.2239 6 16.5V17.5C6 17.7761 6.22386 18 6.5 18H14.5C14.7761 18 15 17.7761 15 17.5V16.5C15 16.2239 14.7761 16 14.5 16H6.5Z" fill="black"/>
</svg>
