<svg width="24" height="24" viewBox="0 0 24 24" fill="none" xmlns="http://www.w3.org/2000/svg">
<path d="M22 9H20H18V11H20H22H24V9H22Z" fill="#000"/>
<path d="M8 12C10.21 12 12 10.21 12 8C12 5.79 10.21 4 8 4C5.79 4 4 5.79 4 8C4 10.21 5.79 12 8 12Z" fill="#000"/>
<path d="M8 13C5.33 13 0 14.34 0 17V20H16V17C16 14.34 10.67 13 8 13Z" fill="#000"/>
<path d="M12.51 4.04999C13.43 5.10999 14 6.48999 14 7.99999C14 9.50999 13.43 10.89 12.51 11.95C14.47 11.7 16 10.04 16 7.99999C16 5.95999 14.47 4.29999 12.51 4.04999Z" fill="#000"/>
<path d="M16.53 13.83C17.42 14.66 18 15.7 18 17V20H20V17C20 15.55 18.41 14.49 16.53 13.83Z" fill="#000"/>
</svg>
