<svg width="24" height="24" viewBox="0 0 24 24" fill="none" xmlns="http://www.w3.org/2000/svg">
<path fill-rule="evenodd" clip-rule="evenodd" d="M10.3431 8.50663L12 10L13.6569 8.50663H20C21.1046 8.50663 22 7.6112 22 6.50663V4C22 2.89543 21.1046 2 20 2H4C2.89543 2 2 2.89543 2 4V6.50663C2 7.6112 2.89543 8.50663 4 8.50663H10.3431ZM12 8.65375L10.7273 7.50663H4C3.44772 7.50663 3 7.05892 3 6.50663V4C3 3.44771 3.44771 3 4 3H20C20.5523 3 21 3.44772 21 4V6.50663C21 7.05892 20.5523 7.50663 20 7.50663H13.2727L12 8.65375Z" fill="black"/>
<path d="M18.99 13C18.99 14.66 17.66 16 16 16C14.34 16 13 14.66 13 13C13 11.34 14.34 10 16 10C17.66 10 18.99 11.34 18.99 13Z" fill="black"/>
<path d="M10.99 13C10.99 14.66 9.66 16 8 16C6.34 16 5 14.66 5 13C5 11.34 6.34 10 8 10C9.66 10 10.99 11.34 10.99 13Z" fill="black"/>
<path d="M1 20.5C1 18.17 5.67 17 8 17C10.33 17 15 18.17 15 20.5V23H1V20.5Z" fill="black"/>
<path d="M15.03 17.05C15.38 17.02 15.71 17 16 17C18.33 17 23 18.17 23 20.5V23H17V20.5C17 19.02 16.19 17.89 15.03 17.05Z" fill="black"/>
</svg>
