<svg width="24" height="24" viewBox="0 0 24 24" fill="none" xmlns="http://www.w3.org/2000/svg">
<path d="M8 11C9.66 11 10.99 9.66 10.99 8C10.99 6.34 9.66 5 8 5C6.34 5 5 6.34 5 8C5 9.66 6.34 11 8 11Z" fill="currentColor"/>
<path d="M8 13C5.67 13 1 14.17 1 16.5V19H15V16.5C15 14.17 10.33 13 8 13Z" fill="currentColor"/>
<path d="M13.9474 6C13.4242 6 13 6.42415 13 6.94737V6.99863C13 7.52184 13.4242 7.94599 13.9474 7.94599H22.0526C22.5758 7.94599 23 7.52184 23 6.99863V6.94737C23 6.42415 22.5758 6 22.0526 6H13.9474Z" fill="currentColor"/>
<path d="M13.9474 9.89199C13.4242 9.89199 13 10.3161 13 10.8394V10.8906C13 11.4138 13.4242 11.838 13.9474 11.838H22.0526C22.5758 11.838 23 11.4138 23 10.8906V10.8394C23 10.3161 22.5758 9.89199 22.0526 9.89199H13.9474Z" fill="currentColor"/>
<path d="M22.0526 15.73C22.5758 15.73 23 15.3058 23 14.7826V14.7314C23 14.2081 22.5758 13.784 22.0526 13.784H17.6974C17.1742 13.784 16.75 14.2081 16.75 14.7314V14.7826C16.75 15.3058 17.1742 15.73 17.6974 15.73H22.0526Z" fill="currentColor"/>
</svg>
