<svg width="24" height="24" viewBox="0 0 24 24" fill="none" xmlns="http://www.w3.org/2000/svg">
<path d="M15.1944 7.33835C14.4218 7.33759 13.675 7.62177 13.0917 8.13849C12.5083 8.65522 12.1278 9.36965 12.0202 10.1501V5.65846C12.0203 5.64862 12.0174 5.639 12.012 5.63085C12.0066 5.6227 11.9989 5.61638 11.99 5.61272C11.981 5.60906 11.9712 5.60822 11.9618 5.61032C11.9524 5.61242 11.9438 5.61735 11.9372 5.62448L10.0623 7.59459C9.66732 7.42487 9.24293 7.33773 8.81431 7.33835C7.04501 7.33835 5.60919 8.79762 5.60919 10.5979C5.60919 12.3981 7.04421 13.8574 8.81471 13.8574C9.58725 13.8581 10.334 13.574 10.9174 13.0574C11.5007 12.5407 11.8813 11.8264 11.9889 11.0461V15.5373C11.9889 15.5815 12.0415 15.6028 12.0716 15.5712L13.9468 13.6011C14.3417 13.7708 14.766 13.8579 15.1944 13.8574C16.9645 13.8574 18.3996 12.3981 18.3996 10.5979C18.3996 8.79762 16.9645 7.33835 15.1944 7.33835Z" fill="currentColor"/>
<path d="M4.32184 19.8208C4.32184 19.9317 4.41178 20.0216 4.52273 20.0216V20.0216C4.63368 20.0216 4.72362 19.9317 4.72362 19.8208V19.0578C4.72362 18.8169 4.86479 18.5903 5.13265 18.5903C5.44756 18.5903 5.50186 18.8025 5.50186 19.0507V19.8208C5.50186 19.9317 5.5918 20.0216 5.70275 20.0216V20.0216C5.8137 20.0216 5.90364 19.9317 5.90364 19.8208V19.0327C5.90364 18.7917 6.05205 18.5903 6.30905 18.5903C6.62396 18.5903 6.67825 18.8025 6.67825 19.0507V19.8208C6.67825 19.9317 6.7682 20.0216 6.87915 20.0216V20.0216C6.9901 20.0216 7.08004 19.9317 7.08004 19.8208V18.9967C7.08004 18.4932 6.8701 18.2055 6.39954 18.2055C6.18598 18.2055 5.9326 18.335 5.81315 18.5436C5.71904 18.3278 5.53081 18.2055 5.24848 18.2055C5.02768 18.2055 4.81774 18.3386 4.72362 18.504V18.4424C4.72362 18.3314 4.63368 18.2415 4.52273 18.2415V18.2415C4.41178 18.2415 4.32184 18.3314 4.32184 18.4424V19.8208Z" fill="currentColor"/>
<path d="M8.45766 20.0576C8.64754 20.0576 8.83742 20.0099 9.00913 19.9217C9.08483 19.8828 9.10733 19.7883 9.06689 19.7135V19.7135C9.01998 19.6266 8.90756 19.6009 8.81592 19.6376C8.70532 19.682 8.58355 19.7052 8.4649 19.7052C8.19704 19.7052 7.96538 19.5577 7.90747 19.2736H9.26485C9.26485 19.2736 9.27571 19.1945 9.27571 19.119C9.27571 18.6191 8.89202 18.2055 8.41422 18.2055C7.89299 18.2055 7.4912 18.6227 7.4912 19.1334C7.4912 19.7196 7.94728 20.0576 8.45766 20.0576ZM7.90385 18.9787C7.95814 18.7234 8.16085 18.5544 8.3925 18.5544C8.63864 18.5544 8.84497 18.7234 8.88478 18.9787H7.90385Z" fill="currentColor"/>
<path d="M10.5255 20.0576C10.7154 20.0576 10.9053 20.0099 11.077 19.9217C11.1527 19.8828 11.1752 19.7883 11.1348 19.7135V19.7135C11.0879 19.6266 10.9754 19.6009 10.8838 19.6376C10.7732 19.682 10.6514 19.7052 10.5328 19.7052C10.2649 19.7052 10.0333 19.5577 9.97535 19.2736H11.3327C11.3327 19.2736 11.3436 19.1945 11.3436 19.119C11.3436 18.6191 10.9599 18.2055 10.4821 18.2055C9.96087 18.2055 9.55909 18.6227 9.55909 19.1334C9.55909 19.7196 10.0152 20.0576 10.5255 20.0576ZM9.97173 18.9787C10.026 18.7234 10.2287 18.5544 10.4604 18.5544C10.7065 18.5544 10.9129 18.7234 10.9527 18.9787H9.97173Z" fill="currentColor"/>
<path d="M12.3437 20.0576C12.4756 20.0576 12.5829 20.0241 12.6648 19.9858C12.731 19.9549 12.7548 19.8756 12.7277 19.8078V19.8078C12.6908 19.7155 12.5735 19.6822 12.4763 19.7033C12.4504 19.7089 12.4228 19.7124 12.3943 19.7124C12.293 19.7124 12.2025 19.6512 12.2025 19.4606V18.5688H12.5782C12.6686 18.5688 12.7418 18.4955 12.7418 18.4051V18.4051C12.7418 18.3148 12.6686 18.2415 12.5782 18.2415H12.2025V17.8561C12.2025 17.7451 12.1126 17.6552 12.0016 17.6552V17.6552C11.8907 17.6552 11.8007 17.7451 11.8007 17.8561V18.2415H11.7001C11.6097 18.2415 11.5365 18.3148 11.5365 18.4051V18.4051C11.5365 18.4955 11.6097 18.5688 11.7001 18.5688H11.8007V19.4498C11.8007 19.8598 11.9781 20.0576 12.3437 20.0576Z" fill="currentColor"/>
<path d="M13.2298 20.0216H13.6316V18.4424C13.6316 18.3314 13.5416 18.2415 13.4307 18.2415V18.2415C13.3197 18.2415 13.2298 18.3314 13.2298 18.4424V20.0216ZM13.4289 18.0751C13.5628 18.0751 13.675 17.9672 13.675 17.8341C13.675 17.7011 13.5628 17.5896 13.4289 17.5896C13.295 17.5896 13.1864 17.7011 13.1864 17.8341C13.1864 17.9672 13.295 18.0751 13.4289 18.0751Z" fill="currentColor"/>
<path d="M14.1277 19.8208C14.1277 19.9317 14.2176 20.0216 14.3286 20.0216V20.0216C14.4395 20.0216 14.5295 19.9317 14.5295 19.8208V19.0902C14.5295 18.7953 14.7213 18.5903 14.9856 18.5903C15.286 18.5903 15.3512 18.7594 15.3512 19.0507V19.8208C15.3512 19.9317 15.4411 20.0216 15.552 20.0216V20.0216C15.663 20.0216 15.7529 19.9317 15.7529 19.8208V19.0003C15.7529 18.5256 15.5937 18.2055 15.1086 18.2055C14.8697 18.2055 14.6634 18.299 14.5295 18.4968V18.4424C14.5295 18.3314 14.4395 18.2415 14.3286 18.2415V18.2415C14.2176 18.2415 14.1277 18.3314 14.1277 18.4424V19.8208Z" fill="currentColor"/>
<path d="M16.95 20.5503C17.464 20.5503 17.8839 20.2374 17.8839 19.6153V18.2415H17.5002V18.5076C17.4061 18.3314 17.1636 18.2055 16.8921 18.2055C16.3962 18.2055 16.0704 18.5903 16.0704 19.0686C16.0704 19.5469 16.3962 19.9281 16.8921 19.9281C17.2179 19.9281 17.4097 19.7663 17.4821 19.6225V19.6368C17.4821 20.0001 17.2939 20.2446 16.9102 20.2446C16.7813 20.2446 16.64 20.2148 16.5184 20.1552C16.4373 20.1154 16.3314 20.1309 16.2838 20.2078V20.2078C16.2463 20.2686 16.2573 20.3487 16.3176 20.387C16.4798 20.4899 16.6979 20.5503 16.95 20.5503ZM16.979 19.5793C16.6966 19.5793 16.4794 19.3635 16.4794 19.0686C16.4794 18.7737 16.6966 18.5544 16.979 18.5544C17.2613 18.5544 17.4821 18.7701 17.4821 19.0543C17.4821 19.3635 17.2685 19.5793 16.979 19.5793Z" fill="currentColor"/>
<path d="M18.9144 20.0576C19.2474 20.0576 19.6782 19.9066 19.6782 19.4894C19.6782 19.1226 19.3307 18.9895 18.9977 18.9176C18.8384 18.8852 18.69 18.8565 18.69 18.7342C18.69 18.6407 18.8239 18.5795 18.9579 18.5795C19.0692 18.5795 19.1705 18.5965 19.2699 18.6314C19.3688 18.6661 19.484 18.6309 19.5276 18.5357V18.5357C19.5658 18.4524 19.5355 18.3519 19.4525 18.3129C19.3068 18.2444 19.1563 18.2055 18.9542 18.2055C18.6393 18.2055 18.281 18.3925 18.281 18.7414C18.281 19.0902 18.5706 19.1909 18.9108 19.2844C19.0882 19.3348 19.2692 19.3671 19.2692 19.4966C19.2692 19.6225 19.0773 19.6836 18.9144 19.6836C18.7643 19.6836 18.6403 19.6463 18.5399 19.5971C18.4343 19.5453 18.2982 19.5747 18.2486 19.6813V19.6813C18.216 19.7515 18.2313 19.8357 18.2958 19.8785C18.4256 19.9645 18.6374 20.0576 18.9144 20.0576Z" fill="currentColor"/>
</svg>
