<svg width="24" height="24" viewBox="0 0 24 24" fill="none" xmlns="http://www.w3.org/2000/svg">
<path d="M6 12C6 8.688 8.688 6 12 6C13.2952 6 14.495 6.4111 15.476 7.10985L7.10985 15.476C6.4111 14.495 6 13.2952 6 12Z" fill="#141721"/>
<path d="M8.52407 16.8902L16.8902 8.52407C17.5889 9.50499 18 10.7048 18 12C18 15.312 15.312 18 12 18C10.7048 18 9.50499 17.5889 8.52407 16.8902Z" fill="#141721"/>
<path fill-rule="evenodd" clip-rule="evenodd" d="M2 12C2 6.48 6.48 2 12 2C17.52 2 22 6.48 22 12C22 17.52 17.52 22 12 22C6.48 22 2 17.52 2 12ZM4 12C4 7.584 7.584 4 12 4C16.416 4 20 7.584 20 12C20 16.416 16.416 20 12 20C7.584 20 4 16.416 4 12Z" fill="#141721"/>
</svg>
