<svg width="24" height="24" viewBox="0 0 24 24" fill="none" xmlns="http://www.w3.org/2000/svg">
<path fill-rule="evenodd" clip-rule="evenodd" d="M12 3C7.032 3 3 7.032 3 12C3 16.968 7.032 21 12 21C16.968 21 21 16.968 21 12C21 7.032 16.968 3 12 3ZM12 5.25C8.274 5.25 5.25 8.274 5.25 12C5.25 13.4571 5.71249 14.8069 6.49858 15.9105L15.9105 6.49858C14.8069 5.71249 13.4571 5.25 12 5.25ZM17.5014 8.08958L8.08958 17.5014C9.19311 18.2875 10.5429 18.75 12 18.75C15.726 18.75 18.75 15.726 18.75 12C18.75 10.5429 18.2875 9.19311 17.5014 8.08958Z" fill="currentColor"/>
</svg>
