<svg width="24" height="24" viewBox="0 0 24 24" fill="none" xmlns="http://www.w3.org/2000/svg">
<path fill-rule="evenodd" clip-rule="evenodd" d="M2 12C2 6.48 6.47 2 11.99 2C17.52 2 22 6.48 22 12C22 17.52 17.52 22 11.99 22C6.47 22 2 17.52 2 12ZM4 12C4 16.42 7.58 20 12 20C16.42 20 20 16.42 20 12C20 7.58 16.42 4 12 4C7.58 4 4 7.58 4 12ZM8.5 11C9.32843 11 10 10.3284 10 9.5C10 8.67157 9.32843 8 8.5 8C7.67157 8 7 8.67157 7 9.5C7 10.3284 7.67157 11 8.5 11ZM17 9.5C17 10.3284 16.3284 11 15.5 11C14.6716 11 14 10.3284 14 9.5C14 8.67157 14.6716 8 15.5 8C16.3284 8 17 8.67157 17 9.5ZM15 15.5V14H9V15.5H15Z" fill="currentColor"/>
</svg>
