<svg width="24" height="24" viewBox="0 0 24 24" fill="none" xmlns="http://www.w3.org/2000/svg">
<path d="M18 5H6C5.44772 5 5 5.44772 5 6V10.2501C5 10.6643 5.33579 11.0001 5.75 11.0001H11.17L9.12553 8.94564L10.5355 7.53564L15 12.0001L10.5355 16.4646L9.12553 15.0546L11.17 13.0001H5.25C4.00736 13.0001 3 11.9928 3 10.7501V6C3 4.34315 4.34315 3 6 3H18C19.6569 3 21 4.34315 21 6V18C21 19.6569 19.6569 21 18 21H6C4.34315 21 3 19.6569 3 18V15H5V18C5 18.5523 5.44772 19 6 19H18C18.5523 19 19 18.5523 19 18V6C19 5.44772 18.5523 5 18 5Z" fill="black"/>
</svg>
