<svg width="24" height="24" viewBox="0 0 24 24" fill="none" xmlns="http://www.w3.org/2000/svg">
<path fill-rule="evenodd" clip-rule="evenodd" d="M7 3H12H14L19 8V10V19C19 20.1 18.1 21 17 21H7C5.9 21 5 20.1 5 19V5C5 3.9 5.9 3 7 3ZM7 5H12V8C12 9.1 12.9 10 14 10H17V19H7V5ZM16 8L14 6V8H16ZM12.5378 16.3911C11.28 15.7467 10.2489 14.72 9.60889 13.4622L10.5867 12.4844C10.7111 12.36 10.7467 12.1867 10.6978 12.0311C10.5333 11.5333 10.4444 11 10.4444 10.4444C10.4444 10.2 10.2444 10 10 10H8.44444C8.2 10 8 10.2 8 10.4444C8 14.6178 11.3822 18 15.5556 18C15.8 18 16 17.8 16 17.5556V16.0044C16 15.76 15.8 15.56 15.5556 15.56C15.0044 15.56 14.4667 15.4711 13.9689 15.3067C13.8133 15.2533 13.6356 15.2933 13.5156 15.4133L12.5378 16.3911Z" fill="currentColor"/>
</svg>
