<svg width="24" height="24" viewBox="0 0 24 24" fill="none" xmlns="http://www.w3.org/2000/svg"><path d="M13.5 1C13.5 1 14.24 3.65 14.24 5.8C14.24 7.86 12.89 9.53 10.83 9.53C8.76 9.53 7.2 7.86 7.2 5.8L7.23 5.44C5.21 7.84 4 10.95 4 14.33C4 18.75 7.58 22.33 12 22.33C16.42 22.33 20 18.75 20 14.33C20 8.94 17.41 4.13 13.5 1ZM11.71 19.33C9.93 19.33 8.49 17.93 8.49 16.19C8.49 14.57 9.54 13.43 11.3 13.07C13.07 12.71 14.9 11.86 15.92 10.49C16.31 11.78 16.51 13.14 16.51 14.53C16.51 17.18 14.36 19.33 11.71 19.33Z" fill="#000"/></svg>