<svg width="24" height="24" viewBox="0 0 24 24" fill="none" xmlns="http://www.w3.org/2000/svg">
<path fill-rule="evenodd" clip-rule="evenodd" d="M10.5428 6C10.253 6 10.0039 6.20124 9.94833 6.48011L9.41337 9.16675H7.55154C7.25349 9.16675 6.99973 9.37936 6.95324 9.66803L6.79176 10.6708C6.76413 10.8424 6.81449 11.0172 6.92957 11.1493C7.04464 11.2813 7.21291 11.3574 7.39006 11.3574H8.9869L8.73513 12.6426H6.7595C6.45977 12.6426 6.2051 12.8576 6.16053 13.1482L6.00674 14.151C5.98051 14.322 6.0316 14.4958 6.14667 14.6268C6.26174 14.7579 6.42934 14.8333 6.60571 14.8333H8.29598L7.81777 17.295C7.784 17.4688 7.83106 17.6484 7.94613 17.7847C8.0612 17.9211 8.23229 18 8.41278 18H9.44319C9.73454 18 9.9846 17.7966 10.0385 17.5159L10.5531 14.8333H12.3177L11.8395 17.295C11.8057 17.4688 11.8527 17.6484 11.9678 17.7847C12.0829 17.9211 12.254 18 12.4345 18H13.4572C13.748 18 13.9978 17.7973 14.0522 17.5172L14.5736 14.8333H16.4485C16.7482 14.8333 17.0029 14.6183 17.0474 14.3277L17.2012 13.3249C17.2275 13.1538 17.1764 12.9801 17.0613 12.8491C16.9462 12.718 16.7786 12.6426 16.6023 12.6426H15.0076L15.2634 11.3574H17.2328C17.5309 11.3574 17.7846 11.1448 17.8311 10.8561L17.9926 9.85328C18.0202 9.68172 17.9699 9.50689 17.8548 9.37484C17.7397 9.24278 17.5714 9.16675 17.3943 9.16675H15.6844L16.174 6.70772C16.2087 6.53355 16.1621 6.3533 16.0471 6.21633C15.932 6.07935 15.7605 6 15.5795 6H14.5568C14.267 6 14.0179 6.20124 13.9623 6.48011L13.4274 9.16675H11.6704L12.16 6.70772C12.1947 6.53355 12.1481 6.3533 12.0331 6.21633C11.918 6.07935 11.7465 6 11.5655 6H10.5428ZM10.9936 12.6426L11.2494 11.3574H13.0064L12.7506 12.6426H10.9936Z" fill="currentColor"/>
</svg>
