<svg width="24" height="24" viewBox="0 0 24 24" fill="none" xmlns="http://www.w3.org/2000/svg">
<path d="M5.71712 18.2829L3.51365 20.4863C5.68735 22.66 8.68288 24 12 24V20.8854C9.5464 20.8854 7.32506 19.8908 5.71712 18.2829Z" fill-opacity="0.92"/>
<path d="M3.11464 12C3.11464 7.0928 7.0928 3.11464 12 3.11464V0C5.37171 0 0 5.37171 0 12C0 15.3112 1.34591 18.3127 3.51365 20.4863L5.71712 18.2829C4.10918 16.6749 3.11464 14.4536 3.11464 12Z" fill-opacity="0.55"/>
<path d="M18.2829 5.71712L20.4864 3.51365C18.3127 1.34591 15.3112 0 12 0V3.11464C14.4536 3.11464 16.6749 4.10918 18.2829 5.71712Z" fill-opacity="0.66"/>
<path d="M24 12C24 8.68884 22.6541 5.68735 20.4864 3.51365L18.2829 5.71713C19.8908 7.32507 20.8854 9.54641 20.8854 12C20.8854 16.9072 16.9072 20.8854 12 20.8854V24C18.6283 24 24 18.6283 24 12Z" fill-opacity="0.83"/>
<path d="M14.7573 12C14.7573 13.5246 13.5246 14.7573 12 14.7573C10.4754 14.7573 9.24268 13.5246 9.24268 12C9.24268 10.4754 10.4754 9.24269 12 9.24269C13.5246 9.24269 14.7573 10.4754 14.7573 12Z" fill-opacity="0.83"/>
</svg>
