<svg width="24" height="24" viewBox="0 0 24 24" fill="none" xmlns="http://www.w3.org/2000/svg">
<path d="M6.76426 17.2357L4.92804 19.0719C6.73946 20.8833 9.23573 22 12 22V19.4045C9.95533 19.4045 8.10422 18.5757 6.76426 17.2357Z" fill="currentColor" fill-opacity="0.92"/>
<path d="M4.59553 12C4.59553 7.91067 7.91067 4.59553 12 4.59553V2C6.47642 2 2 6.47643 2 12C2 14.7593 3.12159 17.2606 4.92804 19.0719L6.76427 17.2358C5.42432 15.8958 4.59553 14.0447 4.59553 12Z" fill="currentColor" fill-opacity="0.55"/>
<path d="M17.2357 6.76427L19.072 4.92804C17.2606 3.12159 14.7593 2 12 2V4.59553C14.0447 4.59553 15.8957 5.42432 17.2357 6.76427Z" fill="currentColor" fill-opacity="0.66"/>
<path d="M22 12C22 9.2407 20.8784 6.73946 19.072 4.92804L17.2357 6.76428C18.5757 8.10423 19.4045 9.95534 19.4045 12C19.4045 16.0893 16.0893 19.4045 12 19.4045V22C17.5236 22 22 17.5236 22 12Z" fill="currentColor" fill-opacity="0.83"/>
<path d="M14.2977 12C14.2977 13.2705 13.2705 14.2977 12 14.2977C10.7295 14.2977 9.70221 13.2705 9.70221 12C9.70221 10.7295 10.7295 9.70224 12 9.70224C13.2705 9.70224 14.2977 10.7295 14.2977 12Z" fill="currentColor" fill-opacity="0.83"/>
</svg>
