<svg width="24" height="24" viewBox="0 0 24 24" fill="none" xmlns="http://www.w3.org/2000/svg">
<path d="M20 12C20 14.08 19.2 15.97 17.9 17.39C17.64 16.58 16.9 16 16 16H15V13C15 12.45 14.55 12 14 12H8V10H10C10.55 10 11 9.55 11 9V7C11.5 7 12 6.5 12 6V2C6.48 2 2 6.48 2 12C2 17.52 6.48 22 12 22C17.52 22 22 17.52 22 12H20ZM11 19.93C7.05 19.44 4 16.08 4 12C4 11.38 4.08 10.79 4.21 10.21L9 15V16C9 17.1 9.9 18 11 18V19.93Z" fill="currentColor"/>
<path d="M14.81 5.895C15.53 7.31 16.69 8.465 18.105 9.19L19.205 8.09C19.34 7.955 19.54 7.91 19.715 7.97C20.275 8.155 20.88 8.255 21.5 8.255C21.775 8.255 22 8.48 22 8.755V10.5C22 10.775 21.775 11 21.5 11C16.805 11 13 7.195 13 2.5C13 2.225 13.225 2 13.5 2H15.25C15.525 2 15.75 2.225 15.75 2.5C15.75 3.125 15.85 3.725 16.035 4.285C16.09 4.46 16.05 4.655 15.91 4.795L14.81 5.895Z" fill="currentColor"/>
</svg>
