<svg width="24" height="24" viewBox="0 0 60 60" fill="none" xmlns="http://www.w3.org/2000/svg">
<path fill-rule="evenodd" clip-rule="evenodd" d="M5.123047 27.5C6.37736 14.86669 17.0362 5 29.9996 5C42.963 5 53.6219 14.86669 54.8762 27.5H43.1246V25C43.1246 20.8579 39.7667 17.5 35.6246 17.5H25.6246C21.4825 17.5 18.1246 20.8579 18.1246 25V27.5H5.123047H5.123047Z" fill="black"/>
<path fill-rule="evenodd" clip-rule="evenodd" d="M18.1246 32.5H5.123047C6.37736 45.1333 17.0362 55 29.9996 55C42.963 55 53.6219 45.1333 54.8762 32.5H40.6246C39.2439 32.5 38.1246 31.3807 38.1246 30V25C38.1246 23.6193 37.0053 22.5 35.6246 22.5H25.6246C24.2439 22.5 23.1246 23.6193 23.1246 25V27.5H25.6246C29.7667 27.5 33.1246 30.8579 33.1246 35V40C33.1246 41.3807 32.0053 42.5 30.6246 42.5H25.6246C21.4825 42.5 18.1246 39.1421 18.1246 35V32.5ZM23.125 35V32.5H25.625C27.0057 32.5 28.125 33.6192 28.125 35V37.5H25.625C24.2443 37.5 23.125 36.3807 23.125 35Z" fill="black"/>
</svg>
