<svg width="24" height="24" viewBox="0 0 24 24" fill="none" xmlns="http://www.w3.org/2000/svg">
<path d="M16.4902 7.38835H13.9857V8.34709C13.4013 7.63107 12.5546 7.13349 11.3381 7.13349C8.86941 7.13349 7.04472 9.23301 7.04472 11.9757C7.04472 14.7184 8.82171 16.818 11.4335 16.818C12.8289 16.818 13.7591 16.2112 14.3673 15.3738C14.8444 16.2718 15.7985 16.9879 17.4442 16.9879C20.2826 16.9879 22 14.6578 22 11.4417C22 6.13835 17.8855 2 12.0179 2C6.15027 2 2 6.24757 2 11.9757C2 17.7403 6.11449 22 11.9344 22C14.0453 22 16.1205 21.4417 17.8855 20.1311L16.4663 18.1772C15.1306 19.1359 13.616 19.5607 11.9344 19.5607C7.72451 19.5607 4.70722 16.4903 4.70722 11.9757C4.70722 7.49757 7.74836 4.42718 12.0179 4.42718C16.2874 4.42718 19.3286 7.38835 19.3286 11.4539C19.3286 13.7112 18.5891 14.6092 17.5754 14.6092C16.7764 14.6092 16.4902 13.9782 16.4902 12.6189V7.38835ZM11.8509 9.57281C13.1509 9.57281 14.0334 10.5922 14.0334 11.9757C14.0334 13.3592 13.1509 14.3786 11.8509 14.3786C10.5271 14.3786 9.68038 13.3228 9.68038 11.9757C9.68038 10.6286 10.5271 9.57281 11.8509 9.57281Z" fill="currentColor"/>
</svg>
