<svg width="24" height="24" viewBox="0 0 24 24" fill="none" xmlns="http://www.w3.org/2000/svg">
<path fill-rule="evenodd" clip-rule="evenodd" d="M4 2C2.89543 2 2 2.89543 2 4V20C2 21.1046 2.89543 22 4 22H20C21.1046 22 22 21.1046 22 20V4C22 2.89543 21.1046 2 20 2H4ZM12 9C10.3431 9 9 10.3431 9 12C9 13.6569 10.3431 15 12 15C13.6569 15 15 13.6569 15 12C15 10.3431 13.6569 9 12 9ZM7 12C7 11.6575 7.03443 11.3231 7.10002 11H4V13H7.10002C7.03443 12.6769 7 12.3425 7 12ZM20 13H16.9C16.9656 12.6769 17 12.3425 17 12C17 11.6575 16.9656 11.3231 16.9 11H20V13Z" fill="black"/>
</svg>
