<svg width="49" height="48" viewBox="0 0 49 48" fill="none" xmlns="http://www.w3.org/2000/svg">
<path fill-rule="evenodd" clip-rule="evenodd" d="M17.672 36.1943L19.1656 28.9123H24V25.9123H19.7809L21.4218 17.9123H26.762L25.7166 23.191C25.7615 23.1877 25.8068 23.186 25.8526 23.186H29.3401L30.4218 17.9123H35L36 14.9123H31.0371L32.4549 8L28.7213 8.01943L27.3562 14.9123H22.0371L23.4549 8L19.7213 8.01943L18.3562 14.9123H14L13 17.9123H17.762L16.1777 25.9123H12L11 28.9123H15.5835L14.1377 36.2126L17.672 36.1943ZM26.8311 35.4186H25.8526C24.8294 35.4186 24 34.5892 24 33.566V31.8586L23.1377 36.2126L26.672 36.1943L26.8311 35.4186Z" fill="black"/>
<g clip-path="url(#clip0)">
<path d="M38.9502 26.9767H44.1163C44.6043 26.9767 45 27.3724 45 27.8605V32.566C45 34.3598 43.5459 35.814 41.7521 35.814H41.7367C39.943 35.8142 38.4886 34.3603 38.4884 32.5665C38.4884 32.5664 38.4884 32.5662 38.4884 32.566V27.4386C38.4884 27.1835 38.6952 26.9767 38.9502 26.9767Z" fill="#5059C9"/>
<path d="M42.4419 26.0465C43.5978 26.0465 44.5349 25.1094 44.5349 23.9535C44.5349 22.7975 43.5978 21.8605 42.4419 21.8605C41.2859 21.8605 40.3488 22.7975 40.3488 23.9535C40.3488 25.1094 41.2859 26.0465 42.4419 26.0465Z" fill="#5059C9"/>
<path d="M35.9302 26.0465C37.5999 26.0465 38.9535 24.693 38.9535 23.0233C38.9535 21.3536 37.5999 20 35.9302 20C34.2605 20 32.907 21.3536 32.907 23.0233C32.907 24.693 34.2605 26.0465 35.9302 26.0465Z" fill="#7B83EB"/>
<path d="M39.9614 26.9767H31.434C30.9517 26.9887 30.5702 27.3889 30.5814 27.8712V33.2381C30.5141 36.1322 32.8037 38.5338 35.6977 38.6047C38.5917 38.5338 40.8813 36.1322 40.814 33.2381V27.8712C40.8251 27.3889 40.4437 26.9887 39.9614 26.9767Z" fill="#7B83EB"/>
<path opacity="0.1" d="M36.1628 26.9767V34.4977C36.1605 34.8426 35.9515 35.1524 35.6326 35.2837C35.531 35.3267 35.4219 35.3488 35.3116 35.3488H30.9907C30.9302 35.1954 30.8744 35.0419 30.8279 34.8837C30.6651 34.35 30.582 33.7952 30.5814 33.2372V27.8698C30.5702 27.3883 30.9511 26.9887 31.4325 26.9767H36.1628Z" fill="black"/>
<path opacity="0.2" d="M35.6978 26.9767V34.9628C35.6978 35.073 35.6756 35.1822 35.6327 35.2837C35.5014 35.6026 35.1915 35.8116 34.8466 35.814H31.2093C31.1302 35.6605 31.0558 35.507 30.9907 35.3488C30.9256 35.1907 30.8744 35.0419 30.8279 34.8837C30.6651 34.35 30.582 33.7952 30.5814 33.2372V27.8698C30.5702 27.3883 30.9511 26.9887 31.4326 26.9767H35.6978Z" fill="black"/>
<path opacity="0.2" d="M35.6978 26.9767V34.0326C35.6942 34.5012 35.3152 34.8802 34.8466 34.8837H30.8279C30.6651 34.35 30.582 33.7952 30.5814 33.2372V27.8698C30.5702 27.3883 30.9511 26.9887 31.4326 26.9767H35.6978Z" fill="black"/>
<path opacity="0.2" d="M35.2326 26.9767V34.0326C35.229 34.5012 34.85 34.8802 34.3814 34.8837H30.8279C30.6651 34.35 30.582 33.7952 30.5814 33.2372V27.8698C30.5702 27.3883 30.9511 26.9887 31.4326 26.9767H35.2326Z" fill="black"/>
<path opacity="0.1" d="M36.1628 24.5721V26.0372C36.0837 26.0419 36.0093 26.0465 35.9302 26.0465C35.8512 26.0465 35.7767 26.0419 35.6977 26.0372C35.5407 26.0268 35.385 26.0019 35.2326 25.9628C34.2907 25.7397 33.5126 25.0792 33.1395 24.1861C33.0753 24.0361 33.0255 23.8803 32.9907 23.7209H35.3116C35.781 23.7227 36.161 24.1027 36.1628 24.5721Z" fill="black"/>
<path opacity="0.2" d="M35.6978 25.0372V26.0372C35.5408 26.0268 35.3851 26.0019 35.2327 25.9628C34.2908 25.7397 33.5126 25.0792 33.1395 24.1861H34.8466C35.316 24.1878 35.696 24.5679 35.6978 25.0372Z" fill="black"/>
<path opacity="0.2" d="M35.6978 25.0372V26.0372C35.5408 26.0268 35.3851 26.0019 35.2327 25.9628C34.2908 25.7397 33.5126 25.0792 33.1395 24.1861H34.8466C35.316 24.1878 35.696 24.5679 35.6978 25.0372Z" fill="black"/>
<path opacity="0.2" d="M35.2326 25.0372V25.9628C34.2907 25.7397 33.5126 25.0792 33.1395 24.186H34.3814C34.8507 24.1878 35.2308 24.5679 35.2326 25.0372Z" fill="black"/>
<path d="M25.8526 24.186H34.38C34.8508 24.186 35.2325 24.5678 35.2325 25.0386V33.566C35.2325 34.0369 34.8508 34.4186 34.38 34.4186H25.8526C25.3817 34.4186 25 34.0369 25 33.566V25.0386C25 24.5678 25.3817 24.186 25.8526 24.186Z" fill="url(#paint0_linear)"/>
<path d="M32.36 27.4316H30.6553V32.0735H29.5693V27.4316H27.8726V26.5311H32.36V27.4316Z" fill="white"/>
</g>
<defs>
<linearGradient id="paint0_linear" x1="26.7776" y1="23.5199" x2="33.455" y2="35.0848" gradientUnits="userSpaceOnUse">
<stop stop-color="#5A62C3"/>
<stop offset="0.5" stop-color="#4D55BD"/>
<stop offset="1" stop-color="#3940AB"/>
</linearGradient>
<clipPath id="clip0">
<rect width="20" height="18.6047" fill="white" transform="translate(25 20)"/>
</clipPath>
</defs>
</svg>
