<svg width="24" height="24" viewBox="0 0 24 24" fill="none" xmlns="http://www.w3.org/2000/svg">
<path d="M7.58 4.08L6.15 2.65C3.75 4.48 2.17 7.3 2.03 10.5H4.03C4.18 7.85 5.54 5.53 7.58 4.08V4.08ZM19.97 10.5H21.97C21.82 7.3 20.24 4.48 17.85 2.65L16.43 4.08C18.45 5.53 19.82 7.85 19.97 10.5ZM18 11C18 7.93 16.36 5.36 13.5 4.68V4C13.5 3.17 12.83 2.5 12 2.5C11.17 2.5 10.5 3.17 10.5 4V4.68C7.63 5.36 6 7.92 6 11V16L4 18V19H20V18L18 16V11ZM12 22C12.14 22 12.27 21.99 12.4 21.96C13.05 21.82 13.58 21.38 13.84 20.78C13.94 20.54 13.99 20.28 13.99 20H9.99C10 21.1 10.89 22 12 22Z" fill="black"/>
</svg>
