<svg width="24" height="24" viewBox="0 0 24 24" fill="none" xmlns="http://www.w3.org/2000/svg">
<path d="M10.0272 8.07422V12.0762H11.7432C13.1907 12.0762 13.8969 11.2559 13.8969 10.0664C13.8969 8.87109 13.1907 8.07422 11.7315 8.07422H10.0272Z" fill="#0D0C0F"/>
<path fill-rule="evenodd" clip-rule="evenodd" d="M5 3C3.89543 3 3 3.89543 3 5V19C3 20.1046 3.89543 21 5 21H19C20.1046 21 21 20.1046 21 19V5C21 3.89543 20.1046 3 19 3H5ZM10.0272 18H7.5V6H12.216C14.93 6 16.5 7.68164 16.5 10.0664C16.5 12.4629 14.9008 14.1094 12.1518 14.1094H10.0272V18Z" fill="#0D0C0F"/>
</svg>
