<svg width="24" height="24" viewBox="0 0 24 24" fill="none" xmlns="http://www.w3.org/2000/svg">
<path d="M6.49729 5.5196L11.995 11.0627L18.9921 4.00784L17.9925 3L11.995 9.04703L7.49688 4.51176H10.9954V3H4.99792V9.04703H6.49729V5.5196ZM23.7001 16.7772C20.6514 13.8645 16.5331 12.0705 11.995 12.0705C7.45689 12.0705 3.33861 13.8645 0.289879 16.7772C0.109954 16.9586 0 17.2105 0 17.4927C0 17.7749 0.109954 18.0269 0.289879 18.2083L2.76885 20.7077C2.94877 20.8891 3.19867 21 3.47855 21C3.74844 21 3.99833 20.8891 4.17826 20.7178C4.96793 19.972 5.86756 19.3471 6.83715 18.8533C7.16701 18.692 7.39692 18.3494 7.39692 17.9462V14.8219C8.84631 14.3382 10.3957 14.0862 11.995 14.0862C13.5943 14.0862 15.1437 14.3382 16.5931 14.8119V17.9362C16.5931 18.3292 16.823 18.682 17.1529 18.8432C18.1324 19.3371 19.0221 19.972 19.8217 20.7077C20.0017 20.8891 20.2516 20.9899 20.5215 20.9899C20.8013 20.9899 21.0512 20.8791 21.2312 20.6976L23.7101 18.1982C23.89 18.0168 24 17.7648 24 17.4826C24 17.2004 23.88 16.9586 23.7001 16.7772Z" fill="#141721"/>
</svg>
