<svg width="24" height="24" viewBox="0 0 24 24" fill="none" xmlns="http://www.w3.org/2000/svg">
<path d="M16.48 14.82C17.59 15.18 18.78 15.38 20.01 15.38C20.55 15.38 21 15.83 21 16.37V19.82C21 20.37 20.72 21 20.01 21C10.73 21 3 13.28 3 3.99C3 3.24 3.65 3 4.19 3H7.65C8.19 3 8.64 3.45 8.64 3.99C8.64 5.22 8.83 6.41 9.2 7.52C9.31 7.87 9.23 8.26 8.96 8.54L7.01 10.2C8.42 13.13 11.07 15.68 13.9 17.03L15.47 15.06C15.74 14.79 16.13 14.7 16.48 14.82Z" fill="currentColor"/>
<path d="M15.49 4.75V3L13 5.5L15.49 8V6.25H21V4.75H15.49Z" fill="currentColor"/>
<path d="M18.51 9H13V10.5H18.51V12.25L21 9.75L18.51 7.25V9Z" fill="currentColor"/>
</svg>
