<svg width="24" height="24" viewBox="0 0 24 24" fill="none" xmlns="http://www.w3.org/2000/svg">
<path d="M13 24C9.74001 24 6.81001 22.01 5.60001 18.98L2.57001 11.37C2.26001 10.58 3.00001 9.79 3.81001 10.05L4.60001 10.31C5.16001 10.49 5.62001 10.92 5.84001 11.47L7.25001 15H8.00001V3.25C8.00001 2.56 8.56001 2 9.25001 2C9.94001 2 10.5 2.56 10.5 3.25V12H11.5V1.25C11.5 0.56 12.06 0 12.75 0C13.44 0 14 0.56 14 1.25V12H15V2.75C15 2.06 15.56 1.5 16.25 1.5C16.94 1.5 17.5 2.06 17.5 2.75V12H18.5V5.75C18.5 5.06 19.06 4.5 19.75 4.5C20.44 4.5 21 5.06 21 5.75V16C21 20.42 17.42 24 13 24Z" fill="currentColor"/>
</svg>
