<svg width="24" height="24" viewBox="0 0 24 24" fill="none" xmlns="http://www.w3.org/2000/svg">
<path d="M7.496 11.608C7.67733 11.608 7.81867 11.5627 7.92 11.472C8.02667 11.376 8.08 11.2373 8.08 11.056V10.704C8.08 10.5227 8.02667 10.3867 7.92 10.296C7.81867 10.2 7.67733 10.152 7.496 10.152H6.216V11.608H7.496Z" fill="currentColor"/>
<path fill-rule="evenodd" clip-rule="evenodd" d="M4 4H20C21.11 4 22 4.89 22 6V18C22 19.11 21.11 20 20 20H4C2.89 20 2 19.11 2 18L2.01 6C2.01 4.89 2.89 4 4 4ZM16.482 14.6C16.786 14.7173 17.1273 14.776 17.506 14.776C18.0233 14.776 18.45 14.6613 18.786 14.432C19.1273 14.1973 19.402 13.8667 19.61 13.44L18.618 12.864C18.5327 13.0933 18.3993 13.2907 18.218 13.456C18.042 13.616 17.8047 13.696 17.506 13.696C17.1487 13.696 16.8607 13.5813 16.642 13.352C16.4287 13.1173 16.322 12.7787 16.322 12.336V11.44C16.322 10.9973 16.4287 10.6613 16.642 10.432C16.8607 10.1973 17.1487 10.08 17.506 10.08C17.81 10.08 18.0393 10.152 18.194 10.296C18.354 10.4347 18.4713 10.6213 18.546 10.856L19.594 10.312C19.3913 9.85867 19.122 9.528 18.786 9.32C18.45 9.10667 18.0233 9 17.506 9C17.1273 9 16.786 9.064 16.482 9.192C16.178 9.32 15.9193 9.50933 15.706 9.76C15.4927 10.0053 15.3273 10.312 15.21 10.68C15.0927 11.0427 15.034 11.4587 15.034 11.928C15.034 12.4027 15.0927 12.8187 15.21 13.176C15.3273 13.528 15.4927 13.824 15.706 14.064C15.9193 14.2987 16.178 14.4773 16.482 14.6ZM6.216 14.68H5V9.096H7.648C7.904 9.096 8.136 9.13867 8.344 9.224C8.552 9.30933 8.728 9.432 8.872 9.592C9.02133 9.74667 9.136 9.93333 9.216 10.152C9.296 10.3707 9.336 10.6133 9.336 10.88C9.336 11.2587 9.25067 11.5893 9.08 11.872C8.91467 12.1547 8.66133 12.36 8.32 12.488L9.416 14.68H8.064L7.088 12.632H6.216V14.68ZM10.3906 14.68V9.096H14.1906V10.176H11.6066V11.32H13.8226V12.392H11.6066V13.6H14.1906V14.68H10.3906Z" fill="currentColor"/>
</svg>
