<svg width="24" height="24" viewBox="0 0 24 24" fill="none" xmlns="http://www.w3.org/2000/svg">
<path fill-rule="evenodd" clip-rule="evenodd" d="M15.3901 20.1455C17.4872 19.4023 19.2073 17.875 20.182 15.8908C20.7658 14.631 21.0276 13.2481 20.9442 11.8643C20.8608 10.4805 20.4347 9.13837 19.7036 7.95642C18.9725 6.77446 17.9589 5.78908 16.7523 5.0873C15.5457 4.38551 14.1832 3.98893 12.7852 3.93257V2L8.32459 4.85892L12.7852 7.71557V5.64153C14.2464 5.71177 15.6462 6.24515 16.7784 7.16308C17.9106 8.08102 18.7153 9.33497 19.0739 10.7402C19.4326 12.1454 19.3262 13.6277 18.7705 14.9685C18.2148 16.3093 17.2391 17.4378 15.9873 18.1878C14.7354 18.9378 13.2735 19.2696 11.817 19.1343C10.3604 18.999 8.98627 18.4038 7.89691 17.4363C6.80756 16.4688 6.06062 15.1803 5.76614 13.7605C5.47167 12.3407 5.64522 10.8647 6.26124 9.55002L4.70221 8.84043C3.81679 10.8653 3.76681 13.1532 4.56296 15.2142C5.35911 17.2752 6.93809 18.9453 8.96178 19.867C10.9855 20.7887 13.2929 20.8887 15.3901 20.1455ZM8.07128 10.6942L10.8321 9.58078V16.0698H9.59999V11.3148L8.07128 11.9355V10.6942ZM12.4489 9.68117H16.1224V10.8266H13.535L13.5076 12.1043H14.2423C15.73 12.1043 16.4783 12.9576 16.4783 14.0255C16.4783 15.399 15.4379 16.1839 14.1465 16.1839C13.1928 16.1839 12.4124 15.828 11.8831 15.2302L12.5767 14.3677C12.9235 14.7465 13.5487 15.0431 14.1374 15.0431C14.8492 15.0431 15.2006 14.6233 15.2006 14.1167C15.2006 13.6376 14.8994 13.2177 13.9001 13.2177H12.3805L12.4489 9.68117Z" fill="currentColor"/>
</svg>
