<svg width="24" height="24" viewBox="0 0 20 20" fill="none" xmlns="http://www.w3.org/2000/svg">
<path d="M19.1111 3.22222L20 2.33333C18.4444 0.777778 16.4444 0 14.4444 0C12.4444 0 10.4444 0.777778 8.88889 2.33333L9.77778 3.22222C11.1111 2 12.7778 1.33333 14.4444 1.33333C16.1111 1.33333 17.7778 2 19.1111 3.22222ZM18.1111 4.11111C17.1111 3.11111 15.7778 2.55556 14.4444 2.55556C13.1111 2.55556 11.7778 3.11111 10.7778 4.11111L11.6667 5C12.4444 4.22222 13.4444 3.88889 14.4444 3.88889C15.4444 3.88889 16.4444 4.22222 17.2222 5L18.1111 4.11111ZM17.7778 11.1111H15.5556V6.66667H13.3333V11.1111H2.22222C1 11.1111 0 12.1111 0 13.3333V17.7778C0 19 1 20 2.22222 20H17.7778C19 20 20 19 20 17.7778V13.3333C20 12.1111 19 11.1111 17.7778 11.1111ZM5.55556 16.6667H3.33333V14.4444H5.55556V16.6667ZM9.44444 16.6667H7.22222V14.4444H9.44444V16.6667ZM13.3333 16.6667H11.1111V14.4444H13.3333V16.6667Z" fill="#0D0C0F"/>
</svg>
