<svg width="24" height="24" viewBox="0 0 24 24" fill="none" xmlns="http://www.w3.org/2000/svg">
<path d="M3.83243 4.00682C2.80177 4.0911 2 4.94645 2 6V16C2 17.1 2.89 18 4 18H0V20H19.8526L13.6781 13.8359L13 14.47V13.1589L12.1484 12.3088C9.83746 12.4714 8.24285 13.328 7 15C7.38639 13.1577 8.24411 11.3202 10.0166 10.1806L3.83243 4.00682Z" fill="#0D0C0F"/>
<path d="M15.2374 12.3781L17 10.73L13 7V9.13C12.7014 9.17145 12.4166 9.22539 12.1449 9.29087L6.84514 4H20C21.1 4 22 4.89 22 6L21.99 16C21.99 16.8424 21.468 17.5675 20.7295 17.8609L15.2374 12.3781Z" fill="#0D0C0F"/>
<path d="M20.8688 18L22.8051 19.9331L22.7383 20H24V18H20.8688Z" fill="#0D0C0F"/>
<rect x="1.33325" y="4.17642" width="2.13333" height="26.3262" transform="rotate(-45.0483 1.33325 4.17642)" fill="#FFDCDC"/>
</svg>
