<svg width="24" height="24" viewBox="0 0 24 24" fill="none" xmlns="http://www.w3.org/2000/svg">
<path fill-rule="evenodd" clip-rule="evenodd" d="M15.7321 14.3183H14.9907L14.7279 14.065C15.8541 12.7518 16.436 10.9603 16.1169 9.05624C15.6758 6.44869 13.4984 4.36639 10.8706 4.04749C6.90061 3.55974 3.55948 6.89891 4.04751 10.8665C4.36661 13.4928 6.45012 15.6689 9.05921 16.1098C10.9644 16.4287 12.757 15.8471 14.0709 14.7216L14.3243 14.9842V15.7252L18.313 19.7116C18.6978 20.0961 19.3266 20.0961 19.7114 19.7116C20.0962 19.327 20.0962 18.6986 19.7114 18.314L15.7321 14.3183ZM10.101 14.3183C7.76405 14.3183 5.87763 12.4329 5.87763 10.0974C5.87763 7.76184 7.76405 5.87653 10.101 5.87653C12.4379 5.87653 14.3243 7.76184 14.3243 10.0974C14.3243 12.4329 12.4379 14.3183 10.101 14.3183Z" fill="black"/>
</svg>
