<svg width="24" height="24" viewBox="0 0 24 24" fill="none" xmlns="http://www.w3.org/2000/svg">
<path d="M17.7276 12.78C17.7576 12.53 17.7776 12.27 17.7776 12C17.7776 11.73 17.7576 11.47 17.7176 11.22L19.4076 9.9C19.5576 9.78 19.5976 9.56 19.5076 9.39L17.9076 6.62C17.8076 6.44 17.5976 6.38 17.4176 6.44L15.4276 7.24C15.0076 6.92 14.5676 6.66 14.0776 6.46L13.7776 4.34C13.7476 4.14 13.5776 4 13.3776 4H10.1776C9.9776 4 9.8176 4.14 9.7876 4.34L9.4876 6.46C8.9976 6.66 8.5476 6.93 8.1376 7.24L6.1476 6.44C5.9676 6.37 5.7576 6.44 5.6576 6.62L4.0576 9.39C3.9576 9.57 3.9976 9.78 4.1576 9.9L5.8476 11.22C5.8076 11.47 5.7776 11.74 5.7776 12C5.7776 12.26 5.7976 12.53 5.8376 12.78L4.1476 14.1C3.9976 14.22 3.9576 14.44 4.0476 14.61L5.6476 17.38C5.7476 17.56 5.9576 17.62 6.1376 17.56L8.1276 16.76C8.5476 17.08 8.9876 17.34 9.4776 17.54L9.7776 19.66C9.8176 19.86 9.9776 20 10.1776 20H13.3776C13.5776 20 13.7476 19.86 13.7676 19.66L14.0676 17.54C14.5576 17.34 15.0076 17.07 15.4176 16.76L17.4076 17.56C17.5876 17.63 17.7976 17.56 17.8976 17.38L19.4976 14.61C19.5976 14.43 19.5576 14.22 19.3976 14.1L17.7276 12.78V12.78ZM11.7776 15C10.1276 15 8.7776 13.65 8.7776 12C8.7776 10.35 10.1276 9 11.7776 9C13.4276 9 14.7776 10.35 14.7776 12C14.7776 13.65 13.4276 15 11.7776 15Z" fill="currentColor"/>
</svg>
