<svg width="24" height="24" viewBox="0 0 24 24" fill="none" xmlns="http://www.w3.org/2000/svg">
<path fill-rule="evenodd" clip-rule="evenodd" d="M9.56925 20.1455C7.47211 19.4023 5.75204 17.875 4.77739 15.8908C4.19351 14.631 3.93173 13.2481 4.01516 11.8643C4.0986 10.4805 4.52468 9.13837 5.25578 7.95642C5.98688 6.77446 7.00049 5.78908 8.20709 5.0873C9.4137 4.38551 10.7762 3.98893 12.1741 3.93257V2L16.6348 4.85892L12.1741 7.71557V5.64153C10.7129 5.71177 9.31313 6.24515 8.18095 7.16308C7.04877 8.08102 6.24408 9.33497 5.88544 10.7402C5.52679 12.1454 5.63315 13.6277 6.18885 14.9685C6.74455 16.3093 7.7202 17.4378 8.97207 18.1878C10.2239 18.9378 11.6858 19.2696 13.1424 19.1343C14.5989 18.999 15.9731 18.4038 17.0624 17.4363C18.1518 16.4688 18.8987 15.1803 19.1932 13.7605C19.4877 12.3407 19.3141 10.8647 18.6981 9.55002L20.2571 8.84043C21.1426 10.8653 21.1925 13.1532 20.3964 15.2142C19.6002 17.2752 18.0213 18.9453 15.9976 19.867C13.9739 20.7887 11.6664 20.8887 9.56925 20.1455ZM8.07128 10.6942L10.8321 9.58078V16.0698H9.59999V11.3148L8.07128 11.9355V10.6942ZM12.4489 9.68117H16.1224V10.8266H13.535L13.5076 12.1043H14.2423C15.73 12.1043 16.4783 12.9576 16.4783 14.0255C16.4783 15.399 15.4379 16.1839 14.1465 16.1839C13.1928 16.1839 12.4124 15.828 11.8831 15.2302L12.5767 14.3677C12.9235 14.7465 13.5487 15.0431 14.1374 15.0431C14.8492 15.0431 15.2006 14.6233 15.2006 14.1167C15.2006 13.6376 14.8994 13.2177 13.9001 13.2177H12.3805L12.4489 9.68117Z" fill="black"/>
</svg>
