<svg width="24" height="24" viewBox="0 0 24 24" fill="none" xmlns="http://www.w3.org/2000/svg">
<g clip-path="url(#clip0_2848_38)">
<path d="M6.6 15.6L8 17L13 12L8 7L6.6 8.4L9.2 11L0.999999 11L0.999999 13L9.2 13L6.6 15.6Z" fill="currentColor"/>
<path d="M17.4011 15.7461C16.5769 13.2317 16.5772 10.5034 17.3852 7.97974L19.9779 7.97444C20.2961 7.97378 20.5845 7.79052 20.7195 7.5133C21.1596 6.6344 21.753 5.80234 22.4822 5.07017C22.8057 4.74541 22.8046 4.21508 22.4798 3.89166L20.4191 1.83937C20.0944 1.51594 19.564 1.51703 19.2406 1.84178C13.7188 7.38621 13.7372 16.3547 19.2816 21.8764C19.6064 22.1999 20.1367 22.1988 20.4601 21.874L22.5183 19.8074C22.8417 19.4827 22.8406 18.9523 22.5159 18.6289C21.7778 17.8938 21.1869 17.0701 20.7431 16.193C20.6011 15.9222 20.3238 15.7401 19.9938 15.7408L17.4011 15.7461Z" />
</g>
<defs>
<clipPath id="clip0_2848_38">
<rect width="24" height="24" fill="white" transform="translate(0 24) rotate(-90)"/>
</clipPath>
</defs>
</svg>
