<svg width="24" height="24" viewBox="0 0 24 24" fill="none" xmlns="http://www.w3.org/2000/svg">
<path d="M10 18.9746C9.45889 18.9746 8.96464 18.6689 8.72237 18.1849L4.15126 9.04246C3.79814 8.33678 4.08441 7.4791 4.79008 7.12597C5.49574 6.77456 6.3534 7.05855 6.70651 7.7648L10 14.3519L13.2935 7.7648C13.6466 7.05855 14.5037 6.77284 15.2099 7.12597C15.9156 7.4791 16.2019 8.33678 15.8487 9.04246L11.2776 18.1849C11.0354 18.6689 10.5411 18.9746 10 18.9746Z" fill="currentColor"/>
<path d="M18.5 8C19.3285 8 20 7.32855 20 6.5C20 5.67145 19.3285 5 18.5 5C17.6715 5 17 5.67145 17 6.5C17 7.32855 17.6715 8 18.5 8Z" fill="currentColor"/>
<path d="M17 17.5294C17 18.3418 17.6714 19 18.5 19C19.3286 19 20 18.3418 20 17.5294V10.4706C20 9.65824 19.3286 9 18.5 9C17.6714 9 17 9.65824 17 10.4706V17.5294Z" fill="currentColor"/>
</svg>
