<svg width="24" height="24" viewBox="0 0 24 24" fill="none" xmlns="http://www.w3.org/2000/svg">
<path d="M11.9348 10.4823L10 14.3519L6.70651 7.7648C6.3534 7.05855 5.49574 6.77456 4.79008 7.12597C4.08441 7.4791 3.79814 8.33678 4.15126 9.04246L8.72237 18.1849C8.96464 18.6689 9.45889 18.9746 10 18.9746C10.5411 18.9746 11.0354 18.6689 11.2776 18.1849L14.0654 12.6093L11.9348 10.4823Z" fill="#0D0C0F"/>
<path d="M20 15.8209L17 12.8259V10.4706C17 9.65824 17.6714 9 18.5 9C19.3286 9 20 9.65824 20 10.4706V15.8209Z" fill="#0D0C0F"/>
<path d="M14.9702 10.7996L12.8396 8.67257L13.2935 7.7648C13.6466 7.05855 14.5037 6.77284 15.2099 7.12597C15.9156 7.4791 16.2019 8.33678 15.8487 9.04246L14.9702 10.7996Z" fill="#0D0C0F"/>
<path d="M18.5 8C19.3285 8 20 7.32855 20 6.5C20 5.67145 19.3285 5 18.5 5C17.6715 5 17 5.67145 17 6.5C17 7.32855 17.6715 8 18.5 8Z" fill="#0D0C0F"/>
<rect x="4" y="4.95883" width="1.92" height="23.6936" transform="rotate(-45.0483 4 4.95883)" fill="#D81616"/>
</svg>
