<svg width="24" height="24" viewBox="0 0 24 24" fill="none" xmlns="http://www.w3.org/2000/svg">
<path d="M1.11003 19.28C1.01003 19.36 0.990027 19.49 1.05003 19.6L2.08003 21.39C2.14003 21.5 2.27003 21.55 2.39003 21.5L3.67003 21C3.90003 21.16 4.15003 21.31 4.41003 21.42L4.61003 22.78C4.63003 22.9 4.74003 22.99 4.86003 22.99H6.93003C7.06003 22.99 7.16003 22.9 7.18003 22.78L7.38003 21.42C7.65003 21.31 7.90003 21.17 8.13003 21L9.40003 21.5C9.52003 21.54 9.65003 21.5 9.71003 21.39L10.74 19.6C10.8 19.49 10.78 19.36 10.68 19.28L9.61003 18.43C9.64003 18.15 9.63003 17.86 9.60003 17.57L10.67 16.71C10.77 16.63 10.79 16.5 10.73 16.39L9.70003 14.6C9.64003 14.49 9.51003 14.44 9.39003 14.49L8.11003 14.99C7.88003 14.83 7.63003 14.68 7.37003 14.57L7.17003 13.21C7.15003 13.09 7.04003 13 6.92003 13H4.85003C4.72003 13 4.62003 13.09 4.60003 13.22L4.40003 14.58C4.13003 14.69 3.88003 14.83 3.65003 15L2.37003 14.5C2.25003 14.46 2.12003 14.5 2.06003 14.61L1.03003 16.4C0.970027 16.51 0.990027 16.64 1.09003 16.72L2.16003 17.57C2.13003 17.85 2.14003 18.14 2.17003 18.43L1.11003 19.28ZM4.38003 18C4.38003 17.17 5.05003 16.5 5.88003 16.5C6.71003 16.5 7.38003 17.17 7.38003 18C7.38003 18.83 6.71003 19.5 5.88003 19.5C5.05003 19.5 4.38003 18.83 4.38003 18Z" fill="currentColor"/>
<path d="M12 18C14.06 18 16.11 18 18.17 18C18.81 18 19.34 17.47 19.34 16.83V12.75L24 17.42V4.58L19.33 9.25V5.17C19.33 4.53 18.8 4 18.16 4H4.16C3.53 4 3 4.52 3 5.17C3 7.44 3 12 3 12C5 12 5 12 7 12C10 12 12 15 12 17" fill="currentColor"/>
</svg>
