<svg width="24" height="24" viewBox="0 0 24 24" fill="none" xmlns="http://www.w3.org/2000/svg">
<path d="M18.5 11C15.46 11 13 13.46 13 16.5C13 17.83 13.47 19.05 14.26 20H9.74C10.53 19.05 11 17.83 11 16.5C11 13.46 8.54 11 5.5 11C2.46 11 0 13.46 0 16.5C0 19.54 2.46 22 5.5 22H18.5C21.54 22 24 19.54 24 16.5C24 13.46 21.54 11 18.5 11ZM5.5 20C3.57 20 2 18.43 2 16.5C2 14.57 3.57 13 5.5 13C7.43 13 9 14.57 9 16.5C9 18.43 7.43 20 5.5 20ZM18.5 20C16.57 20 15 18.43 15 16.5C15 14.57 16.57 13 18.5 13C20.43 13 22 14.57 22 16.5C22 18.43 20.43 20 18.5 20Z" fill="currentColor"/>
<path d="M15.59 6.09L13 8.67V2H11V8.67L8.41 6.09L7 7.5L12 12.5L17 7.5L15.59 6.09Z" fill="currentColor"/>
</svg>
