<svg width="24" height="24" viewBox="0 0 24 24" fill="none" xmlns="http://www.w3.org/2000/svg">
<g clip-path="url(#clip0)">
<path fill-rule="evenodd" clip-rule="evenodd" d="M21.26 10.31C21.5 10.31 21.74 10.3 22 10.28H22.04C22.65 10.28 23.27 11.13 22.88 11.68C22.64 12 22.38 12.34 22.06 12.64C20.77 13.94 19.14 14.67 17.46 14.83C17.5 15.05 17.5 15.28 17.5 15.5L17.42 16.45C17.88 16.16 18.42 16 19 16C19.7956 16 20.5587 16.3161 21.1213 16.8787C21.6839 17.4413 22 18.2044 22 19C22 19.7956 21.6839 20.5587 21.1213 21.1213C20.5587 21.6839 19.7956 22 19 22H18C17.4477 22 17 21.5523 17 21C17 20.4477 17.4477 20 18 20H19C19.2652 20 19.5196 19.8946 19.7071 19.7071C19.8946 19.5196 20 19.2652 20 19C20 18.7348 19.8946 18.4804 19.7071 18.2929C19.5196 18.1054 19.2652 18 19 18H15.5V15.5C15.5 15.03 15.41 14.59 15.24 14.18C15.2163 14.1207 15.1855 14.0683 15.1539 14.0147C15.1323 13.978 15.1103 13.9407 15.09 13.9C15.0798 13.8797 15.0701 13.8598 15.0605 13.8402C15.0229 13.7634 14.9878 13.6917 14.94 13.62C14.9032 13.5538 14.8555 13.4929 14.8091 13.4335C14.7924 13.4122 14.7758 13.3911 14.76 13.37C14.7327 13.3387 14.7068 13.306 14.6807 13.2728C14.6401 13.2212 14.5987 13.1687 14.55 13.12C14.5233 13.0827 14.4853 13.051 14.445 13.0175C14.4097 12.9881 14.3727 12.9573 14.34 12.92C14.25 12.84 14.17 12.77 14.07 12.7C14 12.64 13.92 12.59 13.84 12.54C13.74 12.47 13.63 12.41 13.5 12.36C13.44 12.32 13.36 12.28 13.28 12.25C13.15 12.2 13 12.16 12.87 12.13C12.8 12.1 12.73 12.08 12.66 12.07C12.45 12.03 12.23 12 12 12C11.8 12 11.61 12.03 11.43 12.06C11.26 12.09 11.1 12.13 10.94 12.18C9.53 12.64 8.5 13.94 8.5 15.5V16H6C5.46957 16 4.96086 16.2107 4.58579 16.5858C4.21071 16.9609 4 17.4696 4 18C4 18.5304 4.21071 19.0391 4.58579 19.4142C4.96086 19.7893 5.1564 20.3595 4.6875 20.8284C4 21.5159 3.34315 21 3.17157 20.8284C2.42143 20.0783 2 19.0609 2 18C2 16.9391 2.42143 15.9217 3.17157 15.1716C3.92172 14.4214 4.93913 14 6 14L6.69 14.06C7.13 12.43 8.31 11.11 9.84 10.46C8.55 7.66 9.05 4.24 11.36 1.94C11.66 1.64 12 1.36 12.32 1.12C12.44 1.04 12.57 1 12.71 1C13.22 1 13.77 1.53 13.72 2C13.5 4.19 14.25 6.44 15.91 8.09C17.39 9.57 19.32 10.31 21.26 10.31ZM12 10C14.08 10 15.9 11.16 16.83 12.86C17.76 12.84 18.66 12.6 19.45 12.14C17.58 11.79 15.86 10.88 14.5 9.5C13.12 8.14 12.21 6.41 11.86 4.55C11.39 5.37 11.14 6.31 11.14 7.29C11.14 8.26 11.41 9.19 11.87 10H12Z" fill="currentColor"/>
<path d="M14.95 24C15.91 24 16.68 23.2 16.68 22.21C16.68 21.03 14.95 19.03 14.95 19.03C14.95 19.03 13.23 21.03 13.23 22.21C13.23 23.2 14 24 14.95 24Z" fill="currentColor"/>
<path d="M6.54002 20.58C6.15002 20.68 5.93003 21.07 6.03003 21.45C6.13003 21.84 6.50002 22.06 6.91002 21.96L8.50002 21.55L8.06003 23.12C7.97003 23.5 8.18002 23.9 8.57002 24C8.95002 24.1 9.35002 23.88 9.45002 23.5L9.87002 21.9L11.03 23.07C11.31 23.35 11.77 23.35 12.05 23.07C12.33 22.79 12.33 22.32 12.05 22.05L10.89 20.89L12.47 20.47C12.86 20.37 13.08 19.97 13 19.6C12.88 19.21 12.5 19 12.1 19.1L10.5 19.5L10.93 17.93C11.05 17.55 10.82 17.15 10.43 17.05C10.05 16.94 9.65002 17.17 9.55002 17.56L9.14002 19.14L8.00002 18C7.70002 17.7 7.23002 17.7 6.96002 18C6.68002 18.27 6.68002 18.72 6.96002 19L8.13002 20.15L6.54002 20.58Z" fill="currentColor"/>
</g>
<defs>
<clipPath id="clip0">
<rect width="24" height="24" fill="white"/>
</clipPath>
</defs>
</svg>
