<svg width="24" height="24" viewBox="0 0 24 24" fill="none" xmlns="http://www.w3.org/2000/svg">
<path d="M6 14C6.26522 14 6.51957 14.1054 6.70711 14.2929C6.89464 14.4804 7 14.7348 7 15C7 15.2652 6.89464 15.5196 6.70711 15.7071C6.51957 15.8946 6.26522 16 6 16C5.34339 16 4.69321 15.8707 4.08658 15.6194C3.47995 15.3681 2.92876 14.9998 2.46447 14.5355C1.52678 13.5979 1 12.3261 1 11C1 9.67392 1.52678 8.40215 2.46447 7.46447C3.40215 6.52678 4.67392 6 6 6C7 3.65 9.3 2 12 2C15.43 2 18.24 4.66 18.5 8.03L19 8C20.0609 8 21.0783 8.42143 21.8284 9.17157C22.5786 9.92172 23 10.9391 23 12C23 13.0609 22.5786 14.0783 21.8284 14.8284C21.0783 15.5786 20.0609 16 19 16H18C17.7348 16 17.4804 15.8946 17.2929 15.7071C17.1054 15.5196 17 15.2652 17 15C17 14.7348 17.1054 14.4804 17.2929 14.2929C17.4804 14.1054 17.7348 14 18 14H19C19.5304 14 20.0391 13.7893 20.4142 13.4142C20.7893 13.0391 21 12.5304 21 12C21 11.4696 20.7893 10.9609 20.4142 10.5858C20.0391 10.2107 19.5304 10 19 10H17V9C17 7.67392 16.4732 6.40215 15.5355 5.46447C14.5979 4.52678 13.3261 4 12 4C9.5 4 7.45 5.82 7.06 8.19C6.73 8.07 6.37 8 6 8C5.20435 8 4.44129 8.31607 3.87868 8.87868C3.31607 9.44129 3 10.2044 3 11C3 11.7956 3.31607 12.5587 3.87868 13.1213C4.44129 13.6839 5.20435 14 6 14V14ZM10 18C10.5304 18 11.0391 18.2107 11.4142 18.5858C11.7893 18.9609 12 19.4696 12 20C12 20.5304 11.7893 21.0391 11.4142 21.4142C11.0391 21.7893 10.5304 22 10 22C9.46957 22 8.96086 21.7893 8.58579 21.4142C8.21071 21.0391 8 20.5304 8 20C8 19.4696 8.21071 18.9609 8.58579 18.5858C8.96086 18.2107 9.46957 18 10 18ZM14.5 16C14.8978 16 15.2794 16.158 15.5607 16.4393C15.842 16.7206 16 17.1022 16 17.5C16 17.8978 15.842 18.2794 15.5607 18.5607C15.2794 18.842 14.8978 19 14.5 19C14.1022 19 13.7206 18.842 13.4393 18.5607C13.158 18.2794 13 17.8978 13 17.5C13 17.1022 13.158 16.7206 13.4393 16.4393C13.7206 16.158 14.1022 16 14.5 16V16ZM10.5 12C10.8978 12 11.2794 12.158 11.5607 12.4393C11.842 12.7206 12 13.1022 12 13.5C12 13.8978 11.842 14.2794 11.5607 14.5607C11.2794 14.842 10.8978 15 10.5 15C10.1022 15 9.72064 14.842 9.43934 14.5607C9.15804 14.2794 9 13.8978 9 13.5C9 13.1022 9.15804 12.7206 9.43934 12.4393C9.72064 12.158 10.1022 12 10.5 12Z" fill="currentColor"/>
</svg>
