<svg width="24" height="24" viewBox="0 0 24 24" fill="none" xmlns="http://www.w3.org/2000/svg">
<g clip-path="url(#clip0)">
<path d="M12.75 4.47001C15.1 5.50001 16.35 8.03001 15.92 10.46C17.19 11.56 18 13.19 18 15V15.17C18.31 15.06 18.65 15 19 15C19.7956 15 20.5587 15.3161 21.1213 15.8787C21.6839 16.4413 22 17.2044 22 18C22 18.7957 21.6839 19.5587 21.1213 20.1213C20.5587 20.6839 19.7956 21 19 21H17C17 21 16 21 16 20C16 19 17 19 17 19H19C19.2652 19 19.5196 18.8947 19.7071 18.7071C19.8946 18.5196 20 18.2652 20 18C20 17.7348 19.8946 17.4804 19.7071 17.2929C19.5196 17.1054 19.2652 17 19 17H16V15C16 13.9391 15.5786 12.9217 14.8284 12.1716C14.0783 11.4214 13.0609 11 12 11C10.9391 11 9.92172 11.4214 9.17157 12.1716C8.42142 12.9217 8 13.9391 8 15H6C5.46956 15 4.96086 15.2107 4.58578 15.5858C4.21071 15.9609 4 16.4696 4 17C4 17.5304 4.21071 18.0391 4.58578 18.4142C4.96086 18.7893 5.46956 19 6 19H7C7 19 8 19 8 20C8 21 7 21 7 21H6C4.93913 21 3.92172 20.5786 3.17157 19.8284C2.42143 19.0783 2 18.0609 2 17C2 15.9391 2.42143 14.9217 3.17157 14.1716C3.92172 13.4214 4.93913 13 6 13H6.27C5 11.45 4.6 9.24001 5.5 7.25001C6.72 4.50001 9.97 3.24001 12.75 4.47001ZM11.93 6.30001C10.16 5.50001 8.09 6.31001 7.31 8.07001C6.85 9.09001 6.93 10.22 7.41 11.13C8.5 9.83001 10.16 9.00001 12 9.00001C12.7 9.00001 13.38 9.12001 14 9.34001C13.94 8.06001 13.18 6.86001 11.93 6.30001ZM13.55 2.63001C13 2.40001 12.45 2.23001 11.88 2.12001L14.37 0.820007L15.27 3.71001C14.76 3.29001 14.19 2.93001 13.55 2.63001ZM6.09 3.44001C5.6 3.79001 5.17 4.19001 4.8 4.63001L4.91 1.82001L7.87 2.50001C7.25 2.71001 6.65 3.03001 6.09 3.44001ZM18 8.71001C17.91 8.12001 17.78 7.55001 17.59 7.00001L19.97 8.50001L17.92 10.73C18.03 10.08 18.05 9.40001 18 8.71001ZM3.04 10.3C3.11 10.9 3.25 11.47 3.43 12L1.06 10.5L3.1 8.28001C3 8.93001 2.97 9.61001 3.04 10.3ZM12 18.91C12.59 19.82 13 20.63 13 21C13 21.2652 12.8946 21.5196 12.7071 21.7071C12.5196 21.8947 12.2652 22 12 22C11.7348 22 11.4804 21.8947 11.2929 21.7071C11.1054 21.5196 11 21.2652 11 21C11 20.63 11.41 19.82 12 18.91ZM12 15.62C12 15.62 9 19 9 21C9 21.7957 9.31607 22.5587 9.87868 23.1213C10.4413 23.6839 11.2043 24 12 24C12.7956 24 13.5587 23.6839 14.1213 23.1213C14.6839 22.5587 15 21.7957 15 21C15 19 12 15.62 12 15.62Z" fill="currentColor"/>
</g>
<defs>
<clipPath id="clip0">
<rect width="24" height="24" fill="white"/>
</clipPath>
</defs>
</svg>
