<svg width="24" height="24" viewBox="0 0 24 24" fill="none" xmlns="http://www.w3.org/2000/svg">
<path d="M6 14.03C6.26522 14.03 6.51957 14.1354 6.70711 14.3229C6.89464 14.5104 7 14.7648 7 15.03C7 15.58 6.55 16.03 6 16.03C3.24 16.03 1 13.79 1 11.03C1 8.27 3.24 6.03 6 6.03C7 3.68 9.3 2.03 12 2.03C15.43 2.03 18.24 4.69 18.5 8.06L19 8.03C20.0609 8.03 21.0783 8.45143 21.8284 9.20157C22.5786 9.95172 23 10.9691 23 12.03C23 14.23 21.21 16.03 19 16.03H18C17.45 16.03 17 15.58 17 15.03C17 14.47 17.45 14.03 18 14.03H19C19.5304 14.03 20.0391 13.8193 20.4142 13.4442C20.7893 13.0691 21 12.5604 21 12.03C21 11.4996 20.7893 10.9909 20.4142 10.6158C20.0391 10.2407 19.5304 10.03 19 10.03H17V9.03C17 6.27 14.76 4.03 12 4.03C9.5 4.03 7.45 5.84 7.06 8.21C6.73 8.09 6.37 8.03 6 8.03C5.20435 8.03 4.44129 8.34607 3.87868 8.90868C3.31607 9.47129 3 10.2343 3 11.03C3 11.8256 3.31607 12.5887 3.87868 13.1513C4.44129 13.7139 5.20435 14.03 6 14.03V14.03ZM12 14.15C12.18 14.39 12.37 14.66 12.56 14.94C13 15.56 14 17.03 14 18C14 19.11 13.1 20 12 20C11.4696 20 10.9609 19.7893 10.5858 19.4142C10.2107 19.0391 10 18.5304 10 18C10 17.03 11 15.56 11.44 14.94C11.63 14.66 11.82 14.4 12 14.15ZM12 11.03L11.5 11.59C11.5 11.59 10.65 12.55 9.79 13.81C8.93 15.06 8 16.56 8 18C8 19.0609 8.42143 20.0783 9.17157 20.8284C9.92172 21.5786 10.9391 22 12 22C13.0609 22 14.0783 21.5786 14.8284 20.8284C15.5786 20.0783 16 19.0609 16 18C16 16.56 15.07 15.06 14.21 13.81C13.35 12.55 12.5 11.59 12.5 11.59" fill="currentColor"/>
</svg>
