<svg width="24" height="24" viewBox="0 0 24 24" fill="none" xmlns="http://www.w3.org/2000/svg">
<path d="M12 7C13.3261 7 14.5979 7.52678 15.5356 8.46447C16.4732 9.40215 17 10.6739 17 12C17 13.3261 16.4732 14.5979 15.5356 15.5355C14.5979 16.4732 13.3261 17 12 17C10.6739 17 9.40217 16.4732 8.46449 15.5355C7.52681 14.5979 7.00003 13.3261 7.00003 12C7.00003 10.6739 7.52681 9.40215 8.46449 8.46447C9.40217 7.52678 10.6739 7 12 7V7ZM12 9C11.2044 9 10.4413 9.31607 9.87871 9.87868C9.3161 10.4413 9.00003 11.2044 9.00003 12C9.00003 12.7956 9.3161 13.5587 9.87871 14.1213C10.4413 14.6839 11.2044 15 12 15C12.7957 15 13.5587 14.6839 14.1213 14.1213C14.684 13.5587 15 12.7956 15 12C15 11.2044 14.684 10.4413 14.1213 9.87868C13.5587 9.31607 12.7957 9 12 9ZM12 2L14.39 5.42C13.65 5.15 12.84 5 12 5C11.16 5 10.35 5.15 9.61003 5.42L12 2ZM3.34003 7L7.50003 6.65C6.90003 7.16 6.36003 7.78 5.94003 8.5C5.50003 9.24 5.25003 10 5.11003 10.79L3.34003 7ZM3.36003 17L5.12003 13.23C5.26003 14 5.53003 14.78 5.95003 15.5C6.37003 16.24 6.91003 16.86 7.50003 17.37L3.36003 17ZM20.65 7L18.88 10.79C18.74 10 18.47 9.23 18.05 8.5C17.63 7.78 17.1 7.15 16.5 6.64L20.65 7ZM20.64 17L16.5 17.36C17.09 16.85 17.62 16.22 18.04 15.5C18.46 14.77 18.73 14 18.87 13.21L20.64 17ZM12 22L9.59003 18.56C10.33 18.83 11.14 19 12 19C12.82 19 13.63 18.83 14.37 18.56L12 22Z" fill="currentColor"/>
</svg>
