<svg width="24" height="24" viewBox="0 0 24 24" fill="none" xmlns="http://www.w3.org/2000/svg">
<path fill-rule="evenodd" clip-rule="evenodd" d="M22 10.28C21.74 10.3 21.5 10.31 21.26 10.31C19.32 10.31 17.39 9.57 15.91 8.09C14.25 6.44 13.5 4.19 13.72 2C13.77 1.53 13.22 1 12.71 1C12.57 1 12.44 1.04 12.32 1.12C12 1.36 11.66 1.64 11.36 1.94C9.05 4.24 8.55 7.66 9.84 10.46C8.31 11.11 7.13 12.43 6.69 14.06L6 14C4.93913 14 3.92172 14.4214 3.17157 15.1716C2.42143 15.9217 2 16.9391 2 18C2 19.0609 2.42143 20.0783 3.17157 20.8284C3.92172 21.5786 4.93913 22 6 22C6.55228 22 7 21.5523 7 21C7 20.4477 6.55228 20 6 20C5.46957 20 4.96086 19.7893 4.58579 19.4142C4.21071 19.0391 4 18.5304 4 18C4 17.4696 4.21071 16.9609 4.58579 16.5858C4.96086 16.2107 5.46957 16 6 16H8.5V15.5C8.5 13.94 9.53 12.64 10.94 12.18C11.1 12.13 11.26 12.09 11.43 12.06C11.61 12.03 11.8 12 12 12C12.23 12 12.45 12.03 12.66 12.07C12.73 12.08 12.8 12.1 12.87 12.13C13 12.16 13.15 12.2 13.28 12.25C13.36 12.28 13.44 12.32 13.5 12.36C13.63 12.41 13.74 12.47 13.84 12.54C13.92 12.59 14 12.64 14.07 12.7C14.17 12.77 14.25 12.84 14.34 12.92C14.3727 12.9573 14.4097 12.9881 14.445 13.0175C14.4853 13.051 14.5233 13.0827 14.55 13.12C14.5987 13.1687 14.6401 13.2212 14.6807 13.2728C14.7068 13.306 14.7327 13.3387 14.76 13.37C14.7758 13.3911 14.7924 13.4122 14.8091 13.4335C14.8555 13.4929 14.9032 13.5538 14.94 13.62C14.9878 13.6917 15.0229 13.7634 15.0605 13.8402C15.0701 13.8598 15.0798 13.8797 15.09 13.9C15.1103 13.9407 15.1323 13.978 15.1539 14.0147C15.1855 14.0683 15.2163 14.1207 15.24 14.18C15.41 14.59 15.5 15.03 15.5 15.5V18H19C19.2652 18 19.5196 18.1054 19.7071 18.2929C19.8946 18.4804 20 18.7348 20 19C20 19.2652 19.8946 19.5196 19.7071 19.7071C19.5196 19.8946 19.2652 20 19 20H17C16.4477 20 16 20.4477 16 21C16 21.5523 16.4477 22 17 22H19C19.7956 22 20.5587 21.6839 21.1213 21.1213C21.6839 20.5587 22 19.7956 22 19C22 18.2044 21.6839 17.4413 21.1213 16.8787C20.5587 16.3161 19.7956 16 19 16C18.42 16 17.88 16.16 17.42 16.45L17.5 15.5C17.5 15.28 17.5 15.05 17.46 14.83C19.14 14.67 20.77 13.94 22.06 12.64C22.38 12.34 22.64 12 22.88 11.68C23.27 11.13 22.65 10.28 22.04 10.28H22ZM12 10C14.08 10 15.9 11.16 16.83 12.86C17.76 12.84 18.66 12.6 19.45 12.14C17.58 11.79 15.86 10.88 14.5 9.5C13.12 8.14 12.21 6.41 11.86 4.55C11.39 5.37 11.14 6.31 11.14 7.29C11.14 8.26 11.41 9.19 11.87 10H12Z" fill="currentColor"/>
<path d="M8.97049 21.7887C8.59049 21.8887 8.19049 21.6687 8.09049 21.2787C7.99049 20.8987 8.21049 20.5087 8.60049 20.3987L10.1705 19.9887L9.01049 18.8287C8.74049 18.5487 8.74049 18.0987 9.01049 17.7987C9.29049 17.5187 9.76049 17.5187 10.0605 17.7987L11.2005 18.9687L11.6105 17.3887C11.7205 16.9987 12.1105 16.7787 12.4905 16.8787C12.8805 16.9787 13.1005 17.3687 13.0005 17.7587L12.5605 19.3287L14.1505 18.9087C14.5605 18.8287 14.9405 19.0387 15.0605 19.4187C15.1405 19.7987 14.9105 20.1987 14.5305 20.2987L12.9505 20.7087L14.1105 21.8787C14.3905 22.1487 14.3905 22.6187 14.1105 22.8987C13.8305 23.1787 13.3605 23.1787 13.0905 22.8987L11.9305 21.7387L11.5105 23.3287C11.4105 23.6987 11.0105 23.9287 10.6305 23.8287C10.2505 23.7287 10.0205 23.3287 10.1205 22.9387L10.5605 21.3687L8.97049 21.7887Z" fill="currentColor"/>
</svg>
