<svg width="24" height="24" viewBox="0 0 24 24" fill="none" xmlns="http://www.w3.org/2000/svg">
<path d="M12 2L14.39 5.42C13.65 5.15 12.84 5 12 5C11.16 5 10.35 5.15 9.61 5.42L12 2ZM3.34 7L7.5 6.65C6.9 7.16 6.36 7.78 5.94 8.5C5.5 9.24 5.25 10 5.11 10.79L3.34 7ZM20.65 7L18.88 10.79C18.74 10 18.47 9.23 18.05 8.5C17.63 7.78 17.1 7.15 16.5 6.64L20.65 7ZM14 15C14 14.7348 13.8946 14.4804 13.7071 14.2929C13.5196 14.1054 13.2652 14 13 14H3C2.73478 14 2.48043 14.1054 2.29289 14.2929C2.10536 14.4804 2 14.7348 2 15C2 15.2652 2.10536 15.5196 2.29289 15.7071C2.48043 15.8946 2.73478 16 3 16H13C13.2652 16 13.5196 15.8946 13.7071 15.7071C13.8946 15.5196 14 15.2652 14 15ZM22 15C22 14.7348 21.8946 14.4804 21.7071 14.2929C21.5196 14.1054 21.2652 14 21 14H17C16.7348 14 16.4804 14.1054 16.2929 14.2929C16.1054 14.4804 16 14.7348 16 15C16 15.2652 16.1054 15.5196 16.2929 15.7071C16.4804 15.8946 16.7348 16 17 16H21C21.2652 16 21.5196 15.8946 21.7071 15.7071C21.8946 15.5196 22 15.2652 22 15ZM10 19C10 19.2652 10.1054 19.5196 10.2929 19.7071C10.4804 19.8946 10.7348 20 11 20H20C20.2652 20 20.5196 19.8946 20.7071 19.7071C20.8946 19.5196 21 19.2652 21 19C21 18.7348 20.8946 18.4804 20.7071 18.2929C20.5196 18.1054 20.2652 18 20 18H11C10.7348 18 10.4804 18.1054 10.2929 18.2929C10.1054 18.4804 10 18.7348 10 19ZM3 19C3 19.2652 3.10536 19.5196 3.29289 19.7071C3.48043 19.8946 3.73478 20 4 20H7C7.26522 20 7.51957 19.8946 7.70711 19.7071C7.89464 19.5196 8 19.2652 8 19C8 18.7348 7.89464 18.4804 7.70711 18.2929C7.51957 18.1054 7.26522 18 7 18H4C3.73478 18 3.48043 18.1054 3.29289 18.2929C3.10536 18.4804 3 18.7348 3 19V19ZM12 9C12.7956 9 13.5587 9.31607 14.1213 9.87868C14.6839 10.4413 15 11.2044 15 12H17C17 10.6739 16.4732 9.40215 15.5355 8.46447C14.5979 7.52678 13.3261 7 12 7C10.6739 7 9.40215 7.52678 8.46447 8.46447C7.52678 9.40215 7 10.6739 7 12H9C9 11.2044 9.31607 10.4413 9.87868 9.87868C10.4413 9.31607 11.2044 9 12 9V9Z" fill="black"/>
</svg>
