<svg width="24" height="24" viewBox="0 0 24 24" fill="none" xmlns="http://www.w3.org/2000/svg">
<path d="M17.2502 1.59927V0.929688H15.9169V1.59927C15.9169 2.03213 15.7457 2.44726 15.4409 2.75334C15.1362 3.05942 14.7228 3.23137 14.2919 3.23137C13.5073 3.23137 12.7548 3.54442 12.2 4.10164C11.6452 4.65886 11.3336 5.41461 11.3336 6.20264V6.87222H12.6669V6.20264C12.6669 5.76978 12.8381 5.35465 13.1428 5.04857C13.4476 4.74249 13.8609 4.57054 14.2919 4.57054C15.0765 4.57054 15.8289 4.25749 16.3837 3.70027C16.9385 3.14305 17.2502 2.3873 17.2502 1.59927Z" fill="black"/>
<path d="M11.0334 1.68657L9.62162 5.23166L8.38367 4.7343L9.7955 1.18921L11.0334 1.68657Z" fill="black"/>
<path fill-rule="evenodd" clip-rule="evenodd" d="M18.7197 16.608L7.14023 4.97784L1.60907 20.7236L2.23776 20.9463L1.60773 20.7274C1.53871 20.9278 1.52721 21.1436 1.57455 21.3502C1.62188 21.5568 1.72614 21.7459 1.8754 21.8958C2.02467 22.0457 2.21292 22.1505 2.41864 22.198C2.62436 22.2455 2.83924 22.234 3.03873 22.1647L18.7197 16.608ZM5.17766 19.9867L3.01227 20.754L4.2567 17.2114L5.17766 19.9867ZM6.43522 19.541L9.27896 18.5333L6.61353 10.5022L4.9794 15.1541L6.43522 19.541ZM7.33622 8.44487L10.5365 18.0877L13.3798 17.0802L11.4176 11.1678L7.6936 7.4275L7.33622 8.44487ZM13.5258 13.2852L14.6374 16.6345L16.2807 16.0522L13.5258 13.2852Z" fill="black"/>
<path d="M18.9621 15.359L22.4918 13.941L21.9966 12.6977L18.4669 14.1157L18.9621 15.359Z" fill="black"/>
<path d="M22.0836 7.7929C21.6526 7.7929 21.2393 7.96485 20.9345 8.27093C20.6298 8.57701 20.4586 8.99214 20.4586 9.425C20.4586 9.8152 20.3821 10.2016 20.2334 10.5621C20.0847 10.9225 19.8668 11.2501 19.5921 11.526C19.3174 11.8019 18.9913 12.0208 18.6324 12.1701C18.2735 12.3194 17.8888 12.3963 17.5003 12.3963H16.8336V11.0571H17.5003C17.7137 11.0571 17.925 11.0149 18.1221 10.9329C18.3193 10.8509 18.4984 10.7306 18.6493 10.5791C18.8002 10.4275 18.9199 10.2476 19.0016 10.0496C19.0832 9.85157 19.1253 9.63933 19.1253 9.425C19.1253 8.63697 19.4369 7.88122 19.9917 7.324C20.5465 6.76678 21.299 6.45374 22.0836 6.45374H22.7502V7.7929H22.0836Z" fill="black"/>
<path fill-rule="evenodd" clip-rule="evenodd" d="M18.2086 3.44063C18.2086 2.30812 19.1227 1.39005 20.2502 1.39005C21.3778 1.39005 22.2919 2.30812 22.2919 3.44063C22.2919 4.57313 21.3778 5.49121 20.2502 5.49121C19.1227 5.49121 18.2086 4.57313 18.2086 3.44063ZM20.2502 2.7292C19.8591 2.7292 19.5419 3.04772 19.5419 3.44063C19.5419 3.83354 19.8591 4.15205 20.2502 4.15205C20.6414 4.15205 20.9586 3.83354 20.9586 3.44063C20.9586 3.04772 20.6414 2.7292 20.2502 2.7292Z" fill="black"/>
<path d="M14.7503 9.91162L18.4431 6.20267L17.5003 5.25574L13.8075 8.96469L14.7503 9.91162Z" fill="black"/>
</svg>
