<svg width="24" height="24" viewBox="0 0 24 24" fill="none" xmlns="http://www.w3.org/2000/svg">
<path d="M22.325 10.95C20.8583 9.56665 19.2667 8.46249 17.55 7.63749C15.8333 6.81249 13.9833 6.39999 12 6.39999C11.4167 6.39999 10.8625 6.43332 10.3375 6.49999C9.8125 6.56665 9.375 6.66665 9.025 6.79999L7.05 4.82499C7.78333 4.55832 8.56667 4.35415 9.4 4.21249C10.2333 4.07082 11.1 3.99999 12 3.99999C14.3333 3.99999 16.5292 4.48332 18.5875 5.44999C20.6458 6.41665 22.45 7.69165 24 9.27499L22.325 10.95ZM18.25 15.025C17.7 14.4917 17.2 14.0625 16.75 13.7375C16.3 13.4125 15.7333 13.1 15.05 12.8L12.275 10.025C13.8417 10.075 15.2167 10.4042 16.4 11.0125C17.5833 11.6208 18.7083 12.45 19.775 13.5L18.25 15.025ZM20.075 22.325L10.3 12.55C9.4 12.7833 8.58333 13.1375 7.85 13.6125C7.11667 14.0875 6.46667 14.6083 5.9 15.175L4.225 13.5C4.84167 12.8833 5.47083 12.3458 6.1125 11.8875C6.75417 11.4292 7.525 11.0167 8.425 10.65L5.75 7.97499C4.98333 8.37499 4.25833 8.82915 3.575 9.33749C2.89167 9.84582 2.25833 10.3833 1.675 10.95L0 9.27499C0.583333 8.67499 1.21667 8.10832 1.9 7.57499C2.58333 7.04165 3.275 6.58332 3.975 6.19999L1.675 3.92499L2.8 2.79999L21.2 21.2L20.075 22.325ZM12 21.275L8.3 17.55C8.78333 17.0667 9.3375 16.6875 9.9625 16.4125C10.5875 16.1375 11.2667 16 12 16C12.7333 16 13.4125 16.1375 14.0375 16.4125C14.6625 16.6875 15.2167 17.0667 15.7 17.55L12 21.275Z" fill="#0D0C0F"/>
</svg>
