<svg width="24" height="24" viewBox="0 0 24 24" fill="none" xmlns="http://www.w3.org/2000/svg">
<path d="M12 19C10.3333 19 9 18.3375 8 17.0125C7 15.6875 6.5 14.0167 6.5 12C6.5 9.98333 7 8.3125 8 6.9875C9 5.6625 10.3333 5 12 5C13.6667 5 15 5.6625 16 6.9875C17 8.3125 17.5 9.98333 17.5 12C17.5 14.0167 17 15.6875 16 17.0125C15 18.3375 13.6667 19 12 19ZM12 17.45C13.2667 17.45 14.2167 16.9042 14.85 15.8125C15.4833 14.7208 15.8 13.45 15.8 12C15.8 10.55 15.4833 9.27917 14.85 8.1875C14.2167 7.09583 13.2667 6.55 12 6.55C10.7333 6.55 9.78333 7.09583 9.15 8.1875C8.51667 9.27917 8.2 10.55 8.2 12C8.2 13.45 8.51667 14.7208 9.15 15.8125C9.78333 16.9042 10.7333 17.45 12 17.45Z" fill="currentColor"/>
</svg>
