<svg width="24" height="24" viewBox="0 0 24 24" fill="none" xmlns="http://www.w3.org/2000/svg">
<path d="M4 7C3.44772 7 3 7.44772 3 8V14.443C3 16.0999 4.34315 17.443 6 17.443H15.2911C15.8434 17.443 16.2911 16.9953 16.2911 16.443V10C16.2911 8.34315 14.948 7 13.2911 7H4Z" fill="currentColor"/>
<path d="M17.5917 9.59613C17.3689 9.78613 17.2405 10.0642 17.2405 10.3571V14.5606C17.2405 14.8535 17.3689 15.1316 17.5917 15.3216L20.1012 17.4613C20.7504 18.0148 21.75 17.5534 21.75 16.7003V8.21741C21.75 7.36428 20.7504 6.90294 20.1012 7.45646L17.5917 9.59613Z" fill="currentColor"/>
</svg>
