<svg xmlns="http://www.w3.org/2000/svg" width="12" height="12" fill="none" viewBox="0 0 12 12">
  <g clip-path="url(#a)">
    <path stroke="#000" stroke-linecap="round" stroke-linejoin="round" d="M9 2H3a1 1 0 0 0-1 1v6a1 1 0 0 0 1 1h6a1 1 0 0 0 1-1V3a1 1 0 0 0-1-1Z"/>
    <path stroke="#000" stroke-linecap="round" stroke-linejoin="round" d="M7.5 4.5h-3v3h3v-3ZM4.5 1v1m3-1v1m-3 8.5v.5m3-1v1M10 4.5h1M10 7h1M1 4.5h1M1 7h1"/>
  </g>
  <defs>
    <clipPath id="a">
      <path fill="#fff" d="M0 0h12v12H0z"/>
    </clipPath>
  </defs>
</svg>
