<svg xmlns="http://www.w3.org/2000/svg" width="12" height="12" fill="none" viewBox="0 0 12 12">
  <path stroke="#222" stroke-linecap="round" stroke-linejoin="round" d="M10 10a1 1 0 0 1-1 1H3a1 1 0 0 1-1-1V2a1 1 0 0 1 1-1h4.25l1 1"/>
  <path fill="#222" d="M3.725 7.943a.5.5 0 1 0 .95.314l-.95-.314Zm1.726-3.617.475.158v-.002l-.475-.156Zm2.04-.002-.474.157.475-.157Zm.964 2.906.475-.156v-.001l-.475.157Zm2.684-2.208a.5.5 0 1 0-1 0h1Zm-.5-2.067a.5.5 0 0 0 0 1v-1Zm.003 1a.5.5 0 0 0 0-1v1Zm-.001 0a.5.5 0 1 0 0-1v1ZM4.675 8.257l1.251-3.773-.95-.315-1.25 3.774.949.314Zm1.252-3.775c.124-.38.37-.527.545-.527v-1c-.744 0-1.285.572-1.496 1.216l.95.311Zm.545-.527c.174 0 .42.146.545.526l.95-.313c-.212-.642-.751-1.213-1.495-1.213v1Zm.545.527.964 2.906.949-.315-.964-2.906-.949.315Zm.963 2.904c.212.643.752 1.214 1.495 1.214v-1c-.174 0-.42-.146-.545-.526l-.95.312ZM9.475 8.6c.887 0 1.664-.68 1.664-1.588h-1c0 .294-.265.588-.664.588v1Zm1.664-1.588v-1.99h-1v1.99h1Zm-.5-3.057h.003v-1h-.003v1Zm-.339-.5c0-.209.17-.345.339-.345v1a.658.658 0 0 0 .661-.655h-1Zm.339-.345c.169 0 .34.136.34.345h-1c0 .38.314.655.66.655v-1Zm.34.345a.342.342 0 0 1-.34.345v-1a.658.658 0 0 0-.66.655h1Zm-.34.345a.342.342 0 0 1-.339-.345h1a.658.658 0 0 0-.661-.655v1Zm0 .155h.002v-1h-.002v1Z"/>
</svg>
