<svg width="24" height="24" viewBox="0 0 24 24" fill="none" xmlns="http://www.w3.org/2000/svg">
<path d="M10.9265 4.21102L3.47344 7.295C3.05899 7.46649 3.06329 8.05516 3.4804 8.22055L10.9645 11.1884C11.6221 11.4492 12.3545 11.4492 13.012 11.1884L20.4963 8.22047C20.9133 8.05524 20.9177 7.46657 20.5031 7.295L13.0502 4.21094C12.3702 3.9296 11.6064 3.9296 10.9265 4.21094" fill="#FFBF00"/>
<path d="M12.6523 12.8091V20.2234C12.6523 20.576 13.0078 20.8175 13.3356 20.6876L21.6753 17.4505C21.7683 17.4136 21.8481 17.3496 21.9043 17.2669C21.9605 17.1841 21.9905 17.0864 21.9905 16.9863V9.57204C21.9905 9.21938 21.635 8.97798 21.3072 9.1079L12.9675 12.3449C12.8745 12.3818 12.7947 12.4458 12.7385 12.5286C12.6823 12.6113 12.6522 12.7091 12.6523 12.8091" fill="#26B5F8"/>
<path d="M10.7049 13.1917L8.22992 14.3867L7.97859 14.5082L2.75391 17.0115C2.42273 17.1713 2 16.93 2 16.5621V9.6031C2 9.46997 2.06828 9.35505 2.15984 9.26849C2.19736 9.23116 2.2399 9.19926 2.28625 9.17372C2.41109 9.0988 2.58922 9.0788 2.74062 9.13872L10.6633 12.2778C11.066 12.4375 11.0977 13.0018 10.7049 13.1916" fill="#ED3049"/>
<path d="M10.7049 13.1917L8.22992 14.3867L2.15976 9.26861C2.19727 9.23128 2.23982 9.19938 2.28617 9.17384C2.41101 9.09892 2.58913 9.07892 2.74054 9.13884L10.6632 12.2779C11.0659 12.4377 11.0976 13.002 10.7048 13.1917" fill="black" fill-opacity="0.25"/>
</svg>
