<svg width="24" height="24" viewBox="0 0 24 24" fill="none" xmlns="http://www.w3.org/2000/svg">
<path d="M17.6505 12.7867C15.248 12.7867 13.3007 14.734 13.3007 17.1362C13.3007 19.5385 15.248 21.4863 17.6505 21.4863C20.0527 21.4863 22 19.5385 22 17.1362C22 14.734 20.0527 12.7867 17.6505 12.7867V12.7867ZM6.34966 12.7869C3.94751 12.7871 2 14.734 2 17.1364C2 19.5385 3.94751 21.4861 6.34966 21.4861C8.75201 21.4861 10.6995 19.5385 10.6995 17.1364C10.6995 14.734 8.75201 12.7869 6.34945 12.7869H6.34966ZM16.3497 7.34966C16.3497 9.75181 14.4024 11.6997 12.0002 11.6997C9.59765 11.6997 7.65034 9.75181 7.65034 7.34966C7.65034 4.94751 9.59765 3 12.0002 3C14.4024 3 16.3495 4.94751 16.3495 7.34966H16.3497Z" fill="url(#paint0_radial)"/>
<defs>
<radialGradient id="paint0_radial" cx="0" cy="0" r="1" gradientUnits="userSpaceOnUse" gradientTransform="translate(12 13.1031) scale(13.2526 12.2495)">
<stop stop-color="#FFB900"/>
<stop offset="0.6" stop-color="#F95D8F"/>
<stop offset="0.9991" stop-color="#F95353"/>
</radialGradient>
</defs>
</svg>
