<svg width="24" height="24" viewBox="0 0 24 24" fill="none" xmlns="http://www.w3.org/2000/svg">
<path fill-rule="evenodd" clip-rule="evenodd" d="M12 1.5C6.20099 1.5 1.5 6.20164 1.5 12.0007C1.5 17.799 6.20099 22.5 12 22.5C17.7997 22.5 22.5013 17.799 22.5013 12.0007C22.5013 6.20164 17.7997 1.5 12 1.5ZM17.7892 9.99448H16.3523V14.7026C16.3523 15.1568 16.2532 15.5791 16.0591 15.9597C15.8642 16.3376 15.571 16.6674 15.1878 16.9352C14.8209 17.1913 14.3615 17.3887 13.8232 17.5269C13.5294 17.6018 13.2042 17.654 12.8556 17.6865C12.5864 17.712 12.3036 17.7276 12.0051 17.7276C11.3229 17.7276 10.711 17.6598 10.1871 17.5269C9.6514 17.3913 9.18873 17.1913 8.81924 16.9352C8.43673 16.6674 8.14283 16.3376 7.94604 15.9597C7.75119 15.5791 7.65214 15.1568 7.65214 14.7026V9.99448H6.212V8.497H10.6628V9.99448H9.22261V14.7587C9.22261 14.9424 9.27084 15.1106 9.36923 15.2741C9.47089 15.4475 9.62794 15.6045 9.84298 15.7394C10.0743 15.8867 10.3669 16.0072 10.7221 16.0978C11.0831 16.1884 11.5171 16.236 12.0051 16.236C12.3127 16.236 12.5955 16.2145 12.8556 16.1773C13.0054 16.1558 13.1494 16.1311 13.2817 16.0978C13.6369 16.0072 13.9301 15.8867 14.1615 15.7394C14.3758 15.6045 14.5335 15.4475 14.6385 15.2741C14.7336 15.1106 14.7818 14.9424 14.7818 14.7587V9.99448H13.341V8.497H17.7892V9.99448Z" fill="#000061"/>
</svg>
