<svg width="24" height="24" viewBox="0 0 24 24" fill="none" xmlns="http://www.w3.org/2000/svg">
<path fill-rule="evenodd" clip-rule="evenodd" d="M12.0247 11.1973V4.17912C12.0247 4.11054 11.9408 4.07662 11.8929 4.12597L8.91147 7.20449C8.30175 6.94672 7.63141 6.80403 6.9275 6.80403C4.11247 6.80403 1.83051 9.08448 1.83051 11.8974C1.83051 14.7102 4.11247 16.9906 6.9275 16.9906C9.50479 16.9906 11.6338 15.079 11.9755 12.5974V19.6155C11.9755 19.6845 12.0592 19.7182 12.1071 19.6689L15.0885 16.5904C15.6982 16.8481 16.3688 16.9906 17.0725 16.9906C19.8875 16.9906 22.1695 14.7102 22.1695 11.8974C22.1695 9.08448 19.8875 6.80403 17.0725 6.80403C14.4952 6.80403 12.3662 8.71584 12.0247 11.1973Z" fill="#1738FA"/>
</svg>
