<svg width="24" height="24" viewBox="0 0 24 24" fill="none" xmlns="http://www.w3.org/2000/svg">
<path fill-rule="evenodd" clip-rule="evenodd" d="M11.3163 2.03058C11.1659 2.04823 10.8691 2.08245 10.6568 2.10663C10.2547 2.15233 9.71195 2.25999 9.3436 2.3671C8.96984 2.47573 8.54719 2.6164 8.41973 2.67456C8.35203 2.70546 8.28516 2.73073 8.2711 2.73073C8.25703 2.73073 8.16301 2.76765 8.06215 2.81276C7.60738 3.01616 7.26957 3.19241 6.84906 3.44562C5.05957 4.52327 3.71238 6.06468 2.82406 8.05085C2.77895 8.15171 2.74203 8.24573 2.74203 8.25979C2.74203 8.27386 2.71676 8.34073 2.68586 8.40843C2.55961 8.68507 2.34297 9.41616 2.23848 9.91823C2.11762 10.4988 2 11.5198 2 11.9885C2 12.4573 2.11762 13.4783 2.23848 14.0589C2.34297 14.5609 2.55961 15.292 2.68586 15.5687C2.71676 15.6364 2.74203 15.7032 2.74203 15.7173C2.74203 15.7314 2.77895 15.8254 2.82406 15.9262C3.3709 17.1489 4.04238 18.1326 4.94906 19.0393C5.85574 19.946 6.83945 20.6175 8.06215 21.1643C8.16301 21.2094 8.25703 21.2464 8.2711 21.2464C8.28516 21.2464 8.35203 21.2716 8.41973 21.3025C8.69637 21.4288 9.42746 21.6454 9.92953 21.7499C10.5101 21.8708 11.5311 21.9884 11.9998 21.9884C12.4686 21.9884 13.4896 21.8708 14.0702 21.7499C14.5722 21.6454 15.3033 21.4288 15.58 21.3025C15.6477 21.2716 15.7145 21.2464 15.7286 21.2464C15.7427 21.2464 15.8367 21.2094 15.9375 21.1643C16.3923 20.9609 16.7301 20.7847 17.1506 20.5315C18.9401 19.4538 20.2873 17.9124 21.1756 15.9262C21.2207 15.8254 21.2577 15.7314 21.2577 15.7173C21.2577 15.7032 21.2829 15.6364 21.3138 15.5687C21.4401 15.292 21.6567 14.5609 21.7612 14.0589C21.8821 13.4783 21.9997 12.4573 21.9997 11.9885C21.9997 11.5198 21.8821 10.4988 21.7612 9.91823C21.6567 9.41616 21.4401 8.68507 21.3138 8.40843C21.2829 8.34073 21.2577 8.27386 21.2577 8.25979C21.2577 8.24573 21.2207 8.15171 21.1756 8.05085C20.9722 7.59608 20.796 7.25827 20.5428 6.83776C19.4644 5.04702 17.9251 3.70171 15.9375 2.81276C15.8367 2.76765 15.7427 2.73073 15.7286 2.73073C15.7145 2.73073 15.6477 2.70546 15.58 2.67456C15.4528 2.61655 15.0319 2.4764 14.6561 2.36698C13.6833 2.0837 12.1651 1.93077 11.3163 2.03058ZM13.5993 6.26034C13.8451 6.29729 14.0648 6.34253 14.0875 6.36085C14.1102 6.37917 14.2295 6.41479 14.3527 6.44007C14.4758 6.46534 14.5852 6.49999 14.5958 6.51706C14.6064 6.53417 14.6946 6.57042 14.7918 6.59765C14.889 6.62487 14.9686 6.66241 14.9686 6.68112C14.9686 6.69979 14.9925 6.71511 15.0217 6.71511C15.0794 6.71511 15.5227 6.94198 15.5545 6.9878C15.5653 7.00327 15.6169 7.0385 15.6693 7.06612C15.7752 7.12194 15.7968 7.13784 15.9647 7.28292C16.1989 7.48526 16.3691 7.65448 16.4975 7.81272C16.5697 7.90159 16.6495 7.99604 16.6748 8.02268C16.76 8.11233 17.0681 8.72565 17.0972 8.86354C17.1131 8.93874 17.1414 9.01944 17.1603 9.04292C17.1791 9.06636 17.2124 9.25827 17.2343 9.4694C17.2922 10.0281 17.2251 10.4727 17.0368 10.7776C17.017 10.8098 16.967 10.8982 16.9258 10.9739C16.8631 11.0892 16.6263 11.3309 16.4076 11.5027C16.2195 11.6505 15.8824 11.7608 15.5538 11.7821C15.0279 11.8161 14.7476 11.7458 14.3201 11.4724C14.1584 11.3689 13.7967 10.9859 13.7967 10.9181C13.7967 10.8979 13.7727 10.8537 13.7432 10.8198C13.6686 10.7337 13.5364 10.2924 13.5082 10.0354C13.4953 9.91725 13.501 9.7239 13.5209 9.60573C13.578 9.26671 13.6762 8.85128 13.7195 8.76589C13.7777 8.65077 13.8818 8.13714 13.9022 7.86413C13.9151 7.69167 13.8982 7.55991 13.8405 7.38421C13.6877 6.91874 13.4275 6.67854 12.9465 6.55882C12.6488 6.48472 12.6164 6.48374 12.3644 6.54132C12.2176 6.57483 12.0096 6.64761 11.9022 6.70304C11.6811 6.8171 11.2849 7.19909 11.1179 7.45913C10.9708 7.68819 10.6734 8.28288 10.6725 8.34983C10.6721 8.37882 10.6466 8.45792 10.6158 8.52561C10.5648 8.6378 10.5143 8.84288 10.3882 9.44948C10.3293 9.73296 10.3293 11.4312 10.3882 11.7151C10.4677 12.0987 10.5568 12.4352 10.6105 12.5549C10.6394 12.6194 10.6761 12.7161 10.6922 12.7698C10.7082 12.8235 10.7321 12.8763 10.7454 12.8871C10.7586 12.898 10.8289 13.021 10.9017 13.1606C11.1278 13.5942 11.5609 14.0757 11.9522 14.3284C12.0536 14.3939 12.1578 14.4655 12.1838 14.4875C12.2097 14.5096 12.2399 14.5276 12.2509 14.5276C12.262 14.5276 12.3638 14.5696 12.4772 14.6209C12.5906 14.6722 12.745 14.727 12.8202 14.7426C12.8954 14.7582 12.976 14.7863 12.9993 14.805C13.1375 14.9158 14.463 14.9414 14.91 14.8418C15.1823 14.7812 15.5336 14.6778 15.5741 14.6463C15.5955 14.6296 15.682 14.5937 15.7662 14.5666C16.0222 14.484 16.4062 14.239 16.8827 13.8541C16.9149 13.8281 17.0291 13.7247 17.1366 13.6244L17.3319 13.4419L17.4784 13.5007C17.5589 13.533 17.6248 13.5773 17.6248 13.5992C17.6248 13.7626 16.7718 15.2447 16.5136 15.53C16.491 15.5549 16.411 15.6513 16.3358 15.7441C16.0839 16.055 15.8106 16.3326 15.535 16.5575C15.2055 16.8262 14.8658 17.0667 14.8155 17.0667C14.7954 17.0667 14.7556 17.0898 14.7272 17.118C14.6607 17.1842 14.1654 17.4182 14.0919 17.4182C14.061 17.4182 14.0263 17.4334 14.0149 17.4519C14.0034 17.4705 13.9101 17.5069 13.8075 17.533C13.7049 17.5591 13.5896 17.5972 13.5513 17.6176C13.3841 17.707 12.6652 17.786 12.0194 17.7859C11.3763 17.7859 10.5562 17.6957 10.4575 17.6142C10.4357 17.5962 10.3475 17.569 10.2616 17.5538C10.1013 17.5254 10.0329 17.4998 9.64875 17.3244C9.52652 17.2686 9.41535 17.2229 9.40164 17.2229C9.34875 17.2229 8.80293 16.8874 8.53524 16.6903C8.11711 16.3824 7.77719 16.0342 7.32047 15.4456C7.25797 15.365 6.93379 14.7728 6.82863 14.5471C6.76859 14.4182 6.70617 14.2864 6.68988 14.2542C6.67363 14.2219 6.63777 14.0989 6.61016 13.9807C6.58254 13.8626 6.54535 13.7473 6.5275 13.7247C6.45188 13.6285 6.35891 12.7681 6.35891 12.1643C6.35887 11.5654 6.45086 10.7408 6.52875 10.6416C6.5459 10.6197 6.58211 10.5051 6.60922 10.387C6.63633 10.2688 6.67199 10.1546 6.68844 10.1331C6.70488 10.1116 6.74051 10.0193 6.76762 9.928C6.79473 9.83667 6.82887 9.76198 6.84352 9.76198C6.85817 9.76198 6.89336 9.69167 6.92172 9.60573C6.95008 9.51979 6.98602 9.44948 7.00152 9.44948C7.01707 9.44948 7.0386 9.41577 7.04938 9.37456C7.06016 9.33335 7.13691 9.19155 7.21996 9.05948C7.52863 8.56843 7.98645 8.04296 8.42797 7.673C8.55559 7.56608 8.66879 7.46761 8.67953 7.45425C8.69027 7.44089 8.74301 7.40718 8.79672 7.37936C8.85043 7.35155 8.95828 7.27874 9.03637 7.21753C9.2009 7.08862 9.91141 6.71511 9.99211 6.71511C10.0222 6.71511 10.0467 6.7003 10.0467 6.68222C10.0467 6.66413 10.1214 6.62788 10.2127 6.60163C10.3041 6.57538 10.4315 6.53011 10.4959 6.50104C10.5604 6.47194 10.6834 6.43561 10.7694 6.42026C10.8553 6.40495 10.9442 6.37784 10.9668 6.35999C10.9895 6.34214 11.2067 6.30151 11.4496 6.26972C11.6924 6.23792 11.9017 6.20128 11.9147 6.18827C11.9727 6.18827 13.157 6.19382 13.5993 6.26034Z" fill="#FF3465"/>
<path fill-rule="evenodd" clip-rule="evenodd" d="M13.5703 6.27208C13.8162 6.30904 14.0359 6.35427 14.0586 6.37259C14.0813 6.39091 14.2006 6.42654 14.3238 6.45181C14.4469 6.47708 14.5563 6.51173 14.5669 6.5288C14.5774 6.54591 14.6657 6.58216 14.7629 6.60939C14.8601 6.63661 14.9397 6.67415 14.9397 6.69286C14.9397 6.71154 14.9636 6.72685 14.9928 6.72685C15.0505 6.72685 15.4938 6.95372 15.5256 6.99954C15.5364 7.01501 15.588 7.05025 15.6403 7.07786C15.7462 7.13368 15.7679 7.14958 15.9358 7.29466C16.1699 7.497 16.3401 7.66622 16.4686 7.82446C16.5408 7.91333 16.6205 8.00778 16.6458 8.03443C16.7311 8.12407 17.0392 8.73739 17.0683 8.87528C17.0842 8.95048 17.1125 9.03118 17.1314 9.05466C17.1501 9.0781 17.1835 9.27001 17.2053 9.48114C17.2633 10.0398 17.1962 10.4844 17.0079 10.7893C16.988 10.8216 16.9381 10.9099 16.8969 10.9856C16.8342 11.1009 16.5974 11.3426 16.3787 11.5144C16.1905 11.6622 15.8535 11.7725 15.5249 11.7938C14.999 11.8279 14.7187 11.7575 14.2912 11.4841C14.1295 11.3807 13.7678 10.9976 13.7678 10.9298C13.7678 10.9097 13.7437 10.8654 13.7143 10.8315C13.6397 10.7454 13.5075 10.3042 13.4793 10.0472C13.4664 9.929 13.4721 9.73564 13.4919 9.61747C13.5491 9.27845 13.6473 8.86302 13.6905 8.77763C13.7488 8.66251 13.8529 8.14888 13.8733 7.87587C13.8862 7.70341 13.8692 7.57165 13.8116 7.39595C13.6588 6.93048 13.3986 6.69029 12.9176 6.57056C12.6199 6.49646 12.5875 6.49548 12.3355 6.55306C12.1887 6.58657 11.9807 6.65935 11.8733 6.71478C11.6522 6.82884 11.256 7.21083 11.089 7.47087C10.9419 7.69993 10.6445 8.29462 10.6435 8.36157C10.6432 8.39056 10.6176 8.46966 10.5869 8.53736C10.5359 8.64954 10.4854 8.85462 10.3593 9.46122C10.3004 9.7447 10.3004 11.4429 10.3592 11.7268C10.4388 12.1104 10.5279 12.4469 10.5816 12.5667C10.6105 12.6311 10.6472 12.7278 10.6633 12.7815C10.6793 12.8352 10.7032 12.8881 10.7164 12.8989C10.7296 12.9097 10.8 13.0328 10.8728 13.1723C11.0989 13.6059 11.532 14.0874 11.9233 14.3401C12.0247 14.4056 12.1289 14.4772 12.1548 14.4993C12.1808 14.5213 12.211 14.5393 12.222 14.5393C12.233 14.5393 12.3349 14.5813 12.4483 14.6327C12.5617 14.684 12.716 14.7387 12.7912 14.7543C12.8664 14.77 12.9471 14.7981 12.9704 14.8168C13.1085 14.9275 14.4341 14.9531 14.8811 14.8536C15.1534 14.7929 15.5046 14.6895 15.5451 14.658C15.5666 14.6413 15.6531 14.6054 15.7373 14.5783C15.9932 14.4958 16.3773 14.2507 16.8537 13.8658C16.886 13.8398 17.0002 13.7364 17.1076 13.6361L17.303 13.4537L17.4494 13.5124C17.53 13.5447 17.5959 13.5891 17.5959 13.611C17.5959 13.7743 16.7428 15.2565 16.4846 15.5417C16.4621 15.5667 16.3821 15.663 16.3069 15.7559C16.055 16.0668 15.7817 16.3444 15.5061 16.5692C15.1766 16.838 14.8369 17.0784 14.7866 17.0784C14.7664 17.0784 14.7267 17.1015 14.6983 17.1297C14.6318 17.1959 14.1365 17.43 14.063 17.43C14.0321 17.43 13.9974 17.4451 13.986 17.4637C13.9745 17.4822 13.8812 17.5187 13.7786 17.5448C13.676 17.5708 13.5607 17.6089 13.5224 17.6294C13.3552 17.7188 12.6362 17.7977 11.9905 17.7977C11.3474 17.7976 10.5273 17.7075 10.4286 17.626C10.4068 17.608 10.3186 17.5808 10.2326 17.5656C10.0723 17.5372 10.004 17.5116 9.61983 17.3361C9.4976 17.2803 9.38643 17.2347 9.37272 17.2347C9.31983 17.2347 8.77401 16.8991 8.50632 16.702C8.08819 16.3942 7.74827 16.0459 7.29155 15.4573C7.22905 15.3768 6.90487 14.7845 6.79971 14.5589C6.73967 14.43 6.67725 14.2981 6.66096 14.2659C6.64471 14.2337 6.60885 14.1106 6.58124 13.9925C6.55362 13.8743 6.51643 13.7591 6.49858 13.7364C6.42295 13.6402 6.32999 12.7799 6.32999 12.1761C6.32995 11.5771 6.42194 10.7525 6.49983 10.6533C6.51698 10.6315 6.55319 10.5169 6.5803 10.3987C6.60741 10.2806 6.64307 10.1663 6.65952 10.1448C6.67596 10.1233 6.71159 10.0311 6.7387 9.93974C6.76581 9.84841 6.79995 9.77372 6.8146 9.77372C6.82924 9.77372 6.86444 9.70341 6.8928 9.61747C6.92116 9.53153 6.9571 9.46122 6.9726 9.46122C6.98815 9.46122 7.00967 9.42751 7.02046 9.3863C7.03124 9.34509 7.10799 9.20329 7.19104 9.07122C7.49971 8.58017 7.95753 8.0547 8.39905 7.68474C8.52667 7.57782 8.63987 7.47935 8.65061 7.46599C8.66135 7.45263 8.71409 7.41892 8.7678 7.39111C8.82151 7.36329 8.92936 7.29048 9.00745 7.22927C9.17198 7.10036 9.88249 6.72685 9.96319 6.72685C9.99323 6.72685 10.0178 6.71204 10.0178 6.69396C10.0178 6.67587 10.0925 6.63962 10.1838 6.61337C10.2751 6.58712 10.4026 6.54185 10.467 6.51279C10.5315 6.48368 10.6545 6.44736 10.7405 6.432C10.8264 6.41669 10.9153 6.38958 10.9379 6.37173C10.9606 6.35388 11.1778 6.31325 11.4207 6.28146C11.6635 6.24966 11.8728 6.21302 11.8858 6.20001C11.9437 6.20001 13.128 6.20556 13.5703 6.27208Z" fill="white"/>
</svg>
