<svg width="24" height="24" viewBox="0 0 24 24" fill="none" xmlns="http://www.w3.org/2000/svg">
<path d="M20.7002 7.69319C21.6942 7.69319 22.5 6.88738 22.5 5.89338C22.5 4.89937 21.6942 4.09357 20.7002 4.09357C19.7062 4.09357 18.9004 4.89937 18.9004 5.89338C18.9004 6.88738 19.7062 7.69319 20.7002 7.69319Z" fill="#F40FB9"/>
<path fill-rule="evenodd" clip-rule="evenodd" d="M9.18478 7.27565C8.77699 7.27565 8.07496 7.6641 7.70978 8.85633L7.70906 8.8587L4.25039 20.0099C4.02027 20.7519 3.23223 21.1668 2.49027 20.9367C1.74831 20.7066 1.33338 19.9185 1.56351 19.1766L5.01998 8.03244C5.02024 8.0316 5.0205 8.03076 5.02075 8.02991C5.58305 6.19696 7.05661 4.46249 9.18478 4.46249C11.3123 4.46249 12.7837 6.19329 13.3469 8.02343C13.3471 8.02399 13.3473 8.02455 13.3475 8.02512L16.01 16.6088L16.0105 16.6105C16.376 17.7994 17.0767 18.1867 17.4842 18.1867C18.4836 18.1867 19.2935 17.3767 19.2935 16.3774V10.5006C19.2935 9.72376 19.9233 9.09401 20.7001 9.09401C21.4769 9.09401 22.1067 9.72376 22.1067 10.5006V16.3774C22.1067 18.9304 20.0373 20.9998 17.4842 20.9998C15.3589 20.9998 13.8857 19.2698 13.3222 17.4392C13.322 17.4385 13.3218 17.4379 13.3216 17.4372L10.659 8.85352L10.6585 8.85184C10.2928 7.6624 9.59353 7.27565 9.18478 7.27565Z" fill="url(#paint0_linear_3116_21)"/>
<defs>
<linearGradient id="paint0_linear_3116_21" x1="11.8035" y1="5.86906" x2="11.8035" y2="19.5932" gradientUnits="userSpaceOnUse">
<stop stop-color="#F40FB9"/>
<stop offset="1" stop-color="#7C52FF"/>
</linearGradient>
</defs>
</svg>
