<svg width="358" height="358" viewBox="0 0 358 358" fill="none" xmlns="http://www.w3.org/2000/svg">
<circle cx="179" cy="179" r="179" fill="url(#paint0_linear_4_44)"/>
<path d="M179 268.5L179 256.567L179 268.5ZM265.517 268.5L265.517 280.433L284.825 280.433L276.19 263.163L265.517 268.5ZM248.787 235.041L239.487 227.563L234.69 233.53L238.114 240.378L248.787 235.041ZM179 101.433C221.839 101.433 256.567 136.161 256.567 179L280.433 179C280.433 122.98 235.02 77.5667 179 77.5667L179 101.433ZM101.433 179C101.433 136.161 136.161 101.433 179 101.433L179 77.5667C122.98 77.5667 77.5667 122.98 77.5667 179L101.433 179ZM179 256.567C136.161 256.567 101.433 221.839 101.433 179L77.5667 179C77.5667 235.02 122.98 280.433 179 280.433L179 256.567ZM265.517 256.567L179 256.567L179 280.433L265.517 280.433L265.517 256.567ZM238.114 240.378L254.843 273.837L276.19 263.163L259.461 229.704L238.114 240.378ZM256.567 179C256.567 197.396 250.177 214.268 239.487 227.563L258.087 242.518C272.062 225.138 280.433 203.03 280.433 179L256.567 179Z" fill="white"/>
<path d="M226.733 202.867C220.206 208.568 212.791 212.977 204.49 216.093C196.188 219.209 187.709 220.767 179.053 220.767C170.326 220.767 161.812 219.209 153.51 216.093C145.209 212.977 137.794 208.568 131.267 202.867L131.267 190.933C135.666 193.585 140.632 195.872 146.167 197.795C151.63 199.784 157.235 201.342 162.982 202.469C168.73 203.596 174.087 204.159 179.053 204.159C184.091 204.159 189.448 203.596 195.124 202.469C200.871 201.342 206.476 199.784 211.94 197.795C217.474 195.872 222.405 193.585 226.733 190.933L226.733 202.867Z" fill="white"/>
<defs>
<linearGradient id="paint0_linear_4_44" x1="0" y1="0" x2="358" y2="358" gradientUnits="userSpaceOnUse">
<stop stop-color="#7C52FF"/>
<stop offset="1" stop-color="#F9008E"/>
</linearGradient>
</defs>
</svg>
