<svg width="24" height="24" viewBox="0 0 24 24" fill="none" xmlns="http://www.w3.org/2000/svg">
<rect x="0.25" y="3.75" width="23.5" height="16.5" rx="1.75" fill="white" stroke="#E3E5E8" stroke-width="0.5"/>
<path d="M4.48236 19.9471L23.5 14.1797V18.5C23.4902 19.302 22.8373 19.9471 22.0352 19.9471H4.48236Z" fill="#FD6020"/>
<path fill-rule="evenodd" clip-rule="evenodd" d="M21.2308 10.4019C21.9687 10.4019 22.3745 10.7444 22.3745 11.3913C22.4114 11.8861 22.0794 12.3047 21.6367 12.3808L22.6328 13.7889H21.858L21.0095 12.4189H20.9357V13.7889H20.3085V10.4019H21.2308ZM20.9357 11.9625H21.1202C21.526 11.9625 21.7105 11.7722 21.7105 11.4297C21.7105 11.1252 21.526 10.9349 21.1202 10.9349H20.9357V11.9625ZM18.1319 13.7889H19.9027V13.218H18.759V12.3047H19.8658V11.7338H18.759V10.9727H19.9027V10.4019H18.1319V13.7889V13.7889ZM16.2872 12.6853L15.4387 10.4019H14.7746L16.1397 13.865H16.4717L17.8367 10.4019H17.1727L16.2872 12.6853V12.6853ZM8.79801 12.1144C8.79801 13.0658 9.53586 13.865 10.4582 13.865C10.7533 13.865 11.0116 13.7889 11.2698 13.6747V12.9136C11.0854 13.1419 10.8271 13.2942 10.532 13.2942C9.94168 13.2942 9.46208 12.8375 9.46208 12.2286V12.1525C9.42518 11.5436 9.90479 11.0108 10.4951 10.9727C10.7902 10.9727 11.0854 11.1249 11.2698 11.3533V10.5922C11.0485 10.4399 10.7533 10.4019 10.4951 10.4019C9.53586 10.3258 8.79801 11.1249 8.79801 12.1144V12.1144ZM7.65432 11.6961C7.28539 11.5438 7.17471 11.4677 7.17471 11.2774C7.21161 11.0491 7.39607 10.8588 7.61743 10.8969C7.80189 10.8969 7.98636 11.011 8.13393 11.1633L8.46596 10.7066C8.20771 10.4782 7.87568 10.326 7.54364 10.326C7.02714 10.288 6.58443 10.7066 6.54754 11.2394V11.2774C6.54754 11.7341 6.732 12.0005 7.32229 12.1908C7.46986 12.2288 7.61743 12.305 7.765 12.3811C7.87568 12.4572 7.94946 12.5714 7.94946 12.7236C7.94946 12.99 7.72811 13.2183 7.50675 13.2183H7.46986C7.17471 13.2183 6.91646 13.028 6.80579 12.7616L6.39997 13.1803C6.62132 13.5989 7.06404 13.8272 7.50675 13.8272C8.09703 13.8653 8.57664 13.4086 8.61353 12.7997V12.6855C8.57664 12.2288 8.39218 12.0005 7.65432 11.6961V11.6961ZM5.51453 13.7889H6.1417V10.4019H5.51453V13.7889V13.7889ZM2.60001 10.4019H3.52233H3.70679C4.59222 10.4399 5.29318 11.201 5.25629 12.1144C5.25629 12.6091 5.03493 13.0658 4.666 13.4083C4.33397 13.6747 3.92815 13.827 3.52233 13.7889H2.60001V10.4019ZM3.41164 13.2183C3.70678 13.2564 4.03881 13.1422 4.26017 12.9519C4.48153 12.7236 4.59221 12.4191 4.59221 12.0766C4.59221 11.7721 4.48153 11.4677 4.26017 11.2394C4.03881 11.0491 3.70678 10.9349 3.41164 10.973H3.22717V13.2183H3.41164Z" fill="black"/>
<path fill-rule="evenodd" clip-rule="evenodd" d="M13.1514 10.3236C12.229 10.3236 11.4543 11.0847 11.4543 12.0742C11.4543 13.0256 12.1921 13.8248 13.1514 13.8629C14.1106 13.9009 14.8484 13.1017 14.8853 12.1123C14.8484 11.1228 14.1106 10.3236 13.1514 10.3236V10.3236Z" fill="#FD6020"/>
</svg>
