<svg width="24" height="24" viewBox="0 0 24 24" fill="none" xmlns="http://www.w3.org/2000/svg"><path d="M20.9776 11.9888C20.9776 7.02441 16.9531 3 11.9888 3C7.02441 3 3 7.02441 3 11.9888C3 16.4753 6.28706 20.194 10.5843 20.8684V14.5871H8.30198V11.9888H10.5843V10.0084C10.5843 7.75562 11.9262 6.51125 13.9795 6.51125C14.9629 6.51125 15.9916 6.6868 15.9916 6.6868V8.89889H14.8581C13.7415 8.89889 13.3933 9.59178 13.3933 10.3026V11.9888H15.8863L15.4877 14.5871H13.3933V20.8684C17.6905 20.194 20.9776 16.4753 20.9776 11.9888" fill="#1877F2"/><path d="M15.4877 14.5871L15.8862 11.9888H13.3932V10.3026C13.3932 9.59177 13.7415 8.89887 14.8581 8.89887H15.9916V6.68679C15.9916 6.68679 14.9629 6.51123 13.9794 6.51123C11.9262 6.51123 10.5843 7.75561 10.5843 10.0084V11.9888H8.30197V14.5871H10.5843V20.8683C11.0489 20.9412 11.5185 20.9777 11.9888 20.9775C12.4666 20.9775 12.9356 20.9401 13.3932 20.8683V14.5871H15.4877Z" fill="#fff"/></svg>