<svg width="24" height="24" viewBox="0 0 24 24" fill="none" xmlns="http://www.w3.org/2000/svg">
<path d="M20 2.06665H11.1867C9.7512 2.17872 8.35921 2.61159 7.11333 3.33332C5.61683 4.18705 4.36904 5.41655 3.49331 6.90028C2.61757 8.38401 2.1442 10.0706 2.12 11.7933C2.12 20.84 11.1467 21.86 11.1467 21.86C11.1467 21.86 18.6 23.28 21.64 14.2C21.7832 13.7562 21.8574 13.293 21.86 12.8267L21.9333 3.87998C21.7578 3.45807 21.4948 3.07823 21.1615 2.76563C20.8282 2.45302 20.4323 2.21477 20 2.06665Z" fill="#FFA800"/>
<path d="M12.1 10.9267C13.1751 10.9267 14.0467 10.0551 14.0467 8.97999C14.0467 7.90488 13.1751 7.03333 12.1 7.03333C11.0249 7.03333 10.1533 7.90488 10.1533 8.97999C10.1533 10.0551 11.0249 10.9267 12.1 10.9267Z" fill="white"/>
<path d="M7.73334 11.66H16.26L12.8667 15.0667L12.84 16.9667H11.1533V15.0533L7.73334 11.66Z" fill="white"/>
</svg>
