<svg width="24" height="24" viewBox="0 0 24 24" fill="none" xmlns="http://www.w3.org/2000/svg">
<path d="M3.10526 13.3333C3.4035 15.2807 4.31578 17.0351 5.63157 18.3509L8.70175 15.2807C8.70175 12.1754 10.3158 9.15788 13.193 7.49121L3.10526 13.3333Z" fill="#9B65C3"/>
<path d="M8.70175 15.2807C7.17543 15.2807 5.63157 14.8947 4.21052 14.0702C3.82455 13.8421 3.45613 13.5965 3.10526 13.3158C3.4035 15.2632 4.31578 17.0176 5.63157 18.3333L8.70175 15.2807Z" fill="#9B65C3"/>
<path d="M8.70175 15.2807L5.63158 18.3509C6.96491 19.6842 8.70175 20.5965 10.6491 20.8772L16.4737 10.7895C14.8246 13.6667 11.807 15.2807 8.70175 15.2807Z" fill="#BE63C5"/>
<path d="M9.91228 19.7894C9.08772 18.3684 8.70175 16.8245 8.70175 15.2982L5.63158 18.3684C6.96491 19.7017 8.70175 20.614 10.6491 20.8947C10.386 20.5438 10.1403 20.1754 9.91228 19.7894Z" fill="#BF63C6"/>
<path d="M20.1404 3.49121L13.2105 7.50875C10.3333 9.17542 6.91228 9.05261 4.22807 7.50875C3.45614 8.82454 3.01755 10.3684 3.01755 12C3.01755 12.4561 3.05264 12.8947 3.12281 13.3333C3.47369 13.614 3.84211 13.8596 4.22807 14.0877C5.64913 14.9123 7.19299 15.2982 8.7193 15.2982L20.3333 3.68419C20.2632 3.61402 20.2105 3.54384 20.1404 3.49121Z" fill="#3278B1"/>
<path d="M4.21053 14.0877C5.63158 14.9123 7.17544 15.2983 8.70176 15.2983C8.70176 12.193 10.3158 9.17546 13.193 7.50879L3.08772 13.3334C3.45614 13.5965 3.82456 13.8597 4.21053 14.0877Z" fill="#3278B2"/>
<path d="M4.21053 7.50879C3.4386 8.82458 3 10.3684 3 12C3 12.4562 3.03509 12.8948 3.10526 13.3334L13.2105 7.50879C10.3158 9.15791 6.89474 9.05265 4.21053 7.50879Z" fill="#45A4EC"/>
<path d="M20.3333 3.66667C20.2807 3.61404 20.2105 3.54386 20.1403 3.49123C20.0526 3.42106 19.9649 3.35088 19.8596 3.29825C19.5263 3.10527 19.1403 3 18.7368 3H12C8.66667 3 5.77193 4.80702 4.21053 7.49123C6.89474 9.03509 10.3158 9.1579 13.193 7.49123C10.3158 9.1579 8.70175 12.1754 8.70175 15.2807C11.807 15.2807 14.8246 13.6667 16.4912 10.7895L20.4912 3.85965C20.4386 3.78948 20.386 3.7193 20.3333 3.66667Z" fill="#19BB7D"/>
<path d="M13.2105 7.50878L20.1403 3.50878C20.0526 3.4386 19.9649 3.36843 19.8596 3.3158L4.21053 7.50878C6.89474 9.05264 10.3158 9.1579 13.2105 7.50878Z" fill="#08C7FB"/>
<path d="M18.7368 3H12C8.66667 3 5.77193 4.80702 4.21053 7.49123L19.8596 3.29825C19.5263 3.12281 19.1579 3 18.7368 3Z" fill="#59F2F6"/>
<path d="M16.4912 10.7895L20.4912 3.85967C20.4386 3.7895 20.386 3.73686 20.3158 3.66669L8.70175 15.2807C8.70175 16.807 9.08772 18.3509 9.91228 19.7719C10.1403 20.1579 10.386 20.5263 10.6667 20.8772C11.1053 20.9474 11.5439 20.9825 12 20.9825C13.6316 20.9825 15.1754 20.5439 16.4912 19.7719C14.9474 17.0877 14.8246 13.6667 16.4912 10.7895Z" fill="#DA3757"/>
<path d="M8.70175 15.2807C8.70175 16.807 9.08772 18.3509 9.91228 19.7719C10.1403 20.1579 10.386 20.5263 10.6667 20.8772L16.4912 10.7895C14.8246 13.6667 11.807 15.2807 8.70175 15.2807Z" fill="#D33C4E"/>
<path d="M16.4912 10.7895L10.6667 20.8947C11.1053 20.9649 11.5439 21 12 21C13.6316 21 15.1754 20.5614 16.4912 19.7895C14.9474 17.0877 14.8246 13.6667 16.4912 10.7895Z" fill="#EE5A24"/>
<path d="M20.6842 4.14033C20.6316 4.03507 20.5614 3.94735 20.4912 3.85963C20.4386 3.78946 20.386 3.73682 20.3158 3.66665C20.2632 3.61402 20.193 3.54384 20.1228 3.49121L13.2105 7.50875C10.3333 9.17542 8.7193 12.193 8.7193 15.2982C11.8246 15.2982 14.8421 13.6842 16.5088 10.807C14.8421 13.6842 14.9649 17.1052 16.5088 19.7895C19.193 18.2281 21 15.3333 21 12V5.26314C20.9825 4.84209 20.8772 4.45612 20.6842 4.14033Z" fill="#8BDF55"/>
<path d="M20.1404 3.49121L13.2105 7.50875C10.3333 9.17542 8.7193 12.193 8.7193 15.2982L20.3333 3.68419C20.2632 3.61402 20.2105 3.54384 20.1404 3.49121Z" fill="#25C16F"/>
<path d="M8.70175 15.2807C11.807 15.2807 14.8246 13.6667 16.4912 10.7895L20.4912 3.85967C20.4386 3.7895 20.386 3.73686 20.3158 3.66669L8.70175 15.2807Z" fill="#8BDF55"/>
<path d="M20.4912 3.85968L16.4912 10.7895C14.8246 13.6667 14.9474 17.0877 16.4912 19.772L20.6842 4.12284C20.6316 4.03512 20.5614 3.9474 20.4912 3.85968Z" fill="#FFBB00"/>
<path d="M16.4912 19.7895C19.1754 18.2281 20.9825 15.3334 20.9825 12V5.26319C20.9825 4.85968 20.8772 4.47371 20.6842 4.14038L16.4912 19.7895Z" fill="#FFA800"/>
</svg>
