<svg width="24" height="24" viewBox="0 0 24 24" fill="none" xmlns="http://www.w3.org/2000/svg">
<g clip-path="url(#clip0)">
<path fill-rule="evenodd" clip-rule="evenodd" d="M5.22297 5.45087C5.22297 3.62699 6.70152 2.14844 8.52542 2.14844H11.5738H19.1154V6.84807C19.1154 7.76 18.3762 8.4993 17.4642 8.4993H13.1357C12.278 8.5129 11.5855 9.20657 11.5738 10.0647V20.3436C11.5738 21.2556 10.8345 21.9949 9.92258 21.9949H5.22297V8.4993V5.45087Z" fill="#001B38"/>
<path d="M8.91431 10.1267C8.91431 12.4942 10.8336 14.4135 13.2011 14.4135C15.5687 14.4135 17.488 12.4942 17.488 10.1267C17.488 7.75912 15.5687 5.83984 13.2011 5.83984C10.8336 5.83984 8.91431 7.75912 8.91431 10.1267Z" fill="url(#paint0_linear)"/>
<path opacity="0.5" d="M8.91431 10.1267C8.91431 12.4942 10.8336 14.4135 13.2011 14.4135C15.5687 14.4135 17.488 12.4942 17.488 10.1267C17.488 7.75912 15.5687 5.83984 13.2011 5.83984C10.8336 5.83984 8.91431 7.75912 8.91431 10.1267Z" fill="url(#paint1_linear)"/>
</g>
<defs>
<linearGradient id="paint0_linear" x1="10.1821" y1="6.91318" x2="16.6287" y2="13.4042" gradientUnits="userSpaceOnUse">
<stop stop-color="#FF0057" stop-opacity="0.16"/>
<stop offset="0.861354" stop-color="#FF0057"/>
</linearGradient>
<linearGradient id="paint1_linear" x1="10.1821" y1="6.91318" x2="16.6287" y2="13.4042" gradientUnits="userSpaceOnUse">
<stop stop-color="#FF0057" stop-opacity="0.16"/>
<stop offset="0.861354" stop-color="#FF0057"/>
</linearGradient>
<clipPath id="clip0">
<rect width="14.3333" height="20" fill="white" transform="translate(5 2)"/>
</clipPath>
</defs>
</svg>
