<svg width="24" height="24" viewBox="0 0 24 24" fill="none" xmlns="http://www.w3.org/2000/svg">
<g clip-path="url(#clip0)">
<path d="M6.54547 20.0039V12.2766L4.14898 10.0841L2 8.86749V18.6402C2 19.3948 2.61133 20.0039 3.36367 20.0039H6.54547V20.0039Z" fill="#4285F4"/>
<path d="M17.4545 20.0039H20.6363C21.3909 20.0039 22 19.3925 22 18.6402V8.86755L19.5659 10.2611L17.4545 12.2765V20.0039V20.0039Z" fill="#34A853"/>
<path d="M6.54548 12.2766L6.21938 9.25726L6.54548 6.36749L12 10.4584L17.4545 6.36749L17.8194 9.10124L17.4545 12.2766L12 16.3675L6.54548 12.2766Z" fill="#EA4335"/>
<path d="M17.4545 6.36748V12.2765L22 8.86748V7.04927C22 5.36294 20.075 4.40162 18.7273 5.41294L17.4545 6.36748Z" fill="#FBBC04"/>
<path d="M2 8.86739L4.09055 10.4354L6.54547 12.2765V6.36739L5.27266 5.41286C3.92266 4.40145 2 5.36286 2 7.04911V8.86731V8.86739Z" fill="#C5221F"/>
</g>
<defs>
<clipPath id="clip0">
<rect width="20" height="15.0781" fill="white" transform="translate(2 5)"/>
</clipPath>
</defs>
</svg>
