<svg width="24" height="24" viewBox="0 0 24 24" fill="none" xmlns="http://www.w3.org/2000/svg">
<path d="M21.5972 20.7109H2.37583C1.63051 20.7109 1.00288 20.1029 1.00288 19.3379V5.45145C1.00288 4.70613 1.6109 4.07849 2.37583 4.07849H21.5972C22.3426 4.07849 22.9702 4.68651 22.9702 5.45145V19.3379C22.9702 20.1029 22.3622 20.7109 21.5972 20.7109Z" fill="#E3E3E3"/>
<path opacity="0.1" d="M3.74879 20.7109L11.9669 14.1011L12.0257 13.748L3.55265 7.64819L3.53304 20.4167L3.74879 20.7109Z" fill="#231F20"/>
<path d="M2.37583 20.7109C1.6109 20.7109 1.00288 20.1029 1.00288 19.3379V5.43183C1.00288 4.6669 1.6109 4.5296 2.37583 4.5296C3.14077 4.5296 3.74879 4.68651 3.74879 5.43183V20.7109H2.37583Z" fill="#D54B3D"/>
<path d="M2.37583 4.72574C3.35652 4.72574 3.55265 5.01994 3.55265 5.43183V20.5147H2.37583C1.72858 20.5147 1.19901 19.9852 1.19901 19.3379V5.43183C1.19901 5.00033 1.39515 4.72574 2.37583 4.72574ZM2.37583 4.5296C1.6109 4.5296 1.00288 4.68651 1.00288 5.43183V19.3379C1.00288 20.1029 1.6109 20.7109 2.37583 20.7109H3.74879V5.43183C3.74879 4.6669 3.14077 4.5296 2.37583 4.5296Z" fill="#D72B27"/>
<path d="M21.5972 20.7109H20.2243V5.3926C20.2243 4.62767 20.8323 4.5296 21.5972 4.5296C22.3622 4.5296 22.9702 4.62767 22.9702 5.3926V19.3575C22.9702 20.1029 22.3622 20.7109 21.5972 20.7109Z" fill="#D54B3D"/>
<path d="M21.5972 4.72574C22.4798 4.72574 22.774 4.90226 22.774 5.3926V19.3575C22.774 20.0048 22.2445 20.5344 21.5972 20.5344H20.4204V5.3926C20.4204 4.88265 20.7146 4.72574 21.5972 4.72574ZM21.5972 4.5296C20.8323 4.5296 20.2243 4.62767 20.2243 5.3926V20.7305H21.5972C22.3622 20.7305 22.9702 20.1225 22.9702 19.3575V5.3926C22.9702 4.62767 22.3622 4.5296 21.5972 4.5296Z" fill="#D72B27"/>
<path d="M15.7131 20.7109L1.11779 6.00221L1.88549 6.31448L12.0454 13.6304L22.9702 5.61945L22.9702 19.3576C22.9702 20.1029 22.3622 20.7109 21.5972 20.7109H15.7131Z" fill="url(#paint0_linear)"/>
<path d="M11.9665 14.1001L1.59084 6.56848C0.982814 6.11737 0.806291 5.25437 1.25741 4.64634C1.70852 4.03832 2.59114 3.90102 3.21877 4.35214L11.9861 10.7266L20.8122 4.27368C21.4203 3.82257 22.2833 3.95986 22.7344 4.5875C23.1855 5.19552 23.0482 6.05853 22.4206 6.50964L11.9665 14.1001Z" fill="#D54B3D"/>
<path d="M21.5972 4.19614C21.9699 4.19614 22.3229 4.37266 22.5583 4.68648C22.931 5.21605 22.8133 5.94175 22.3033 6.33403L11.9669 13.8657L1.70897 6.41248C1.1794 6.02021 1.0421 5.27489 1.41476 4.76493C1.63051 4.47073 2.00317 4.27459 2.39544 4.27459C2.65042 4.27459 2.9054 4.35305 3.10154 4.50996L11.8492 10.8648L11.9669 10.9432L12.0846 10.8648L20.8911 4.41189C21.1069 4.27459 21.3422 4.19614 21.5972 4.19614ZM21.5972 4C21.3226 4 21.0284 4.07845 20.7931 4.25498L11.9669 10.7079L3.1996 4.33343C2.96424 4.15691 2.67003 4.07845 2.37583 4.07845C1.94433 4.07845 1.51283 4.27459 1.23824 4.64725C0.806737 5.25528 0.98326 6.11828 1.59128 6.56939L11.9669 14.1207L22.4014 6.51055C23.0094 6.05944 23.1467 5.21605 22.7152 4.58841C22.4406 4.19614 22.0287 4 21.5972 4Z" fill="#D72B27"/>
<defs>
<linearGradient id="paint0_linear" x1="1.11864" y1="13.1648" x2="22.9772" y2="13.1648" gradientUnits="userSpaceOnUse">
<stop stop-opacity="0.1"/>
<stop offset="1" stop-opacity="0.2"/>
</linearGradient>
</defs>
</svg>
