<svg width="24" height="24" viewBox="0 0 24 24" fill="none" xmlns="http://www.w3.org/2000/svg">
<g clip-path="url(#clip0)">
<path d="M6.54547 19.0039V11.2766L4.14898 9.08413L2 7.86749V17.6402C2 18.3948 2.61133 19.0039 3.36367 19.0039H6.54547V19.0039Z" fill="#4285F4"/>
<path d="M17.4545 19.0039H20.6363C21.3909 19.0039 22 18.3925 22 17.6402V7.86755L19.5659 9.26107L17.4545 11.2765V19.0039V19.0039Z" fill="#34A853"/>
<path d="M6.54548 11.2766L6.21938 8.25726L6.54548 5.36749L12 9.45843L17.4545 5.36749L17.8194 8.10124L17.4545 11.2766L12 15.3675L6.54548 11.2766Z" fill="#EA4335"/>
<path d="M17.4545 5.36748V11.2765L22 7.86748V6.04927C22 4.36294 20.075 3.40162 18.7273 4.41294L17.4545 5.36748Z" fill="#FBBC04"/>
<path d="M2 7.86739L4.09055 9.43536L6.54547 11.2765V5.36739L5.27266 4.41286C3.92266 3.40145 2 4.36286 2 6.04911V7.86731V7.86739Z" fill="#C5221F"/>
</g>
<defs>
<clipPath id="clip0">
<rect width="20" height="15.0781" fill="white" transform="translate(2 4)"/>
</clipPath>
</defs>
</svg>
