<svg width="24" height="24" viewBox="0 0 24 24" fill="none" xmlns="http://www.w3.org/2000/svg">
<path d="M14.0461 2H6.35389C5.61533 2 5 2.61533 5 3.35389V20.6155C5 21.3541 5.61533 21.9694 6.35389 21.9694H18.1078C18.8463 21.9694 19.4616 21.3541 19.4616 20.6155V7.44614L16.2924 5.16927L14.0461 2Z" fill="#4285F4"/>
<path d="M14.4462 7.04608L19.4614 12.1232V7.44617L14.4462 7.04608Z" fill="url(#googleDocs)"/>
<path d="M8.63076 16.5538H15.8615V15.6308H8.63076V16.5538ZM8.63076 18.3692H14.0461V17.4462H8.63076V18.3692ZM8.63076 11.9999V12.9229H15.8615V11.9999H8.63076ZM8.63076 14.7385H15.8615V13.8155H8.63076V14.7385Z" fill="#F1F1F1"/>
<path d="M14.0269 2.01398V6.10624C14.0269 6.84479 14.6423 7.46012 15.3808 7.46012H19.4423L14.0269 2.01398Z" fill="#A1C2FA"/>
<path d="M6.35389 2C5.61533 2 5 2.61533 5 3.35389V3.47691C5 2.73835 5.61533 2.12302 6.35389 2.12302H14.0461V2H6.35389Z" fill="white" fill-opacity="0.2"/>
<path d="M18.1078 21.877H6.35389C5.61533 21.877 5 21.2616 5 20.5231V20.6461C5 21.3847 5.61533 22 6.35389 22H18.1078C18.8463 22 19.4616 21.3847 19.4616 20.6461V20.5231C19.4614 21.2614 18.8461 21.877 18.1078 21.877Z" fill="#1A237E" fill-opacity="0.2"/>
<path d="M15.4 7.44617C14.6614 7.44617 14.0461 6.83084 14.0461 6.09229V6.21531C14.0461 6.95387 14.6614 7.56919 15.4 7.56919H19.4614V7.44617H15.4Z" fill="#1A237E" fill-opacity="0.1"/>
<defs>
<linearGradient id="googleDocs" x1="16.9538" y1="7.4861" x2="16.9538" y2="12.107" gradientUnits="userSpaceOnUse">
<stop stop-color="#1A237E" stop-opacity="0.2"/>
<stop offset="1" stop-color="#1A237E" stop-opacity="0.02"/>
</linearGradient>
</defs>
</svg>
