<svg fill="none" height="24" viewBox="0 0 24 24" width="24" xmlns="http://www.w3.org/2000/svg"><path d="m20.3312 7.245c-.65-2.72125-3.0987-4.745-6.0187-4.745h-6.375c-3.4175 0-6.1875 2.77-6.1875 6.1875 0 1.77.74375 3.3675 1.93625 4.495z" fill="#86a9ff"/><path d="m3.68628 13.1825c.2675 1.06.8175 2.04 1.60375 2.8263l6.36877 6.3687c.0787.0788.185.1225.2975.1225.2312 0 .42-.1875.42-.42v-4.205h3.6875c3.4525 0 6.245-2.8275 6.1862-6.2937-.0287-1.70878-.7625-3.23878-1.9187-4.33753z" fill="#578cff"/><path d="m14.3125 14.875c3.4175 0 6.1875-2.77 6.1875-6.1875 0-.49625-.0588-.98-.1688-1.4425-1.1387-1.0825-2.6862-1.745-4.3699-1.745h-6.2738c-3.4175 0-6.1875 2.77-6.1875 6.1875 0 .5088.06375 1.01.18625 1.495 1.10875 1.0487 2.605 1.6925 4.25125 1.6925z" fill="#0057cc"/></svg>