<svg width="24" height="24" viewBox="0 0 24 24" fill="none" xmlns="http://www.w3.org/2000/svg">
<path d="M19.7767 2H4.224C3.33507 2 2.61507 2.71999 2.61507 3.6089L2.64591 13.7986H21.3856V3.6089C21.3857 2.71999 20.6657 2 19.7767 2Z" fill="#C2C2C2"/>
<path d="M20.8494 5.2178H3.15138C2.26247 5.2178 1.54248 5.9378 1.54248 6.82673C1.54248 6.9018 1.54785 6.97555 1.55722 7.0466L2.61507 13.7986H21.3856L22.4435 7.0466C22.4529 6.9742 22.4582 6.90045 22.4582 6.82673C22.4582 5.9378 21.7383 5.2178 20.8494 5.2178Z" fill="#3367D6"/>
<path opacity="0.5" d="M20.8494 5.2178H3.15138C2.26247 5.2178 1.54248 5.9378 1.54248 6.82673C1.54248 6.9018 1.54785 6.97555 1.55722 7.0466L2.61507 13.7986H21.3856L22.4435 7.0466C22.4529 6.9742 22.4582 6.90045 22.4582 6.82673C22.4582 5.9378 21.7383 5.2178 20.8494 5.2178Z" fill="#2A56C6"/>
<path d="M21.9179 20.6593L21.3856 13.7986H2.61507L2.08281 20.6593C2.08014 20.6968 2.07879 20.733 2.07879 20.7705C2.07879 21.6595 2.79878 22.3794 3.68769 22.3794H20.313C21.202 22.3794 21.9219 21.6595 21.9219 20.7705C21.9219 20.733 21.9206 20.6968 21.9179 20.6593Z" fill="#4285F4"/>
<path d="M2.61507 13.7986L11.1959 22.3794H21.9219V13.7986H2.61507Z" fill="url(#paint0_linear)"/>
<path d="M3.15138 5.35188H20.8494C21.7195 5.35188 22.4274 6.04371 22.4556 6.90715C22.4569 6.88033 22.4583 6.85352 22.4583 6.8267C22.4583 5.93777 21.7383 5.2178 20.8494 5.2178H3.15138C2.26247 5.2178 1.54248 5.9378 1.54248 6.82673C1.54248 6.85355 1.54383 6.88036 1.54515 6.90718C1.57332 6.04371 2.28124 5.35188 3.15138 5.35188Z" fill="white" fill-opacity="0.2"/>
<path d="M20.313 22.2454H3.68769C2.81755 22.2454 2.10963 21.5536 2.08146 20.6901C2.08011 20.7169 2.07879 20.7438 2.07879 20.7706C2.07879 21.6595 2.79878 22.3795 3.68769 22.3795H20.313C21.202 22.3795 21.9219 21.6595 21.9219 20.7706C21.9219 20.7438 21.9206 20.7169 21.9193 20.6901C21.8911 21.5536 21.1832 22.2454 20.313 22.2454Z" fill="#1A237E" fill-opacity="0.2"/>
<path d="M19.7767 2H4.224C3.33507 2 2.61507 2.71999 2.61507 3.6089V3.73628C2.6191 2.85137 3.33774 2.13408 4.224 2.13408H19.7768C20.6657 2.13408 21.3857 2.85407 21.3857 3.74298V3.6089C21.3857 2.71999 20.6657 2 19.7767 2Z" fill="white" fill-opacity="0.2"/>
<path d="M10.4263 13.6833C11.0364 13.4313 11.8221 12.7609 11.8221 11.7513C11.8221 10.196 10.8232 9.24008 9.14054 9.24008C7.64158 9.24008 6.43356 10.2215 6.41212 11.6534H7.5008C7.5169 10.8168 8.0827 10.129 9.13922 10.129C10.1569 10.129 10.7307 10.6586 10.7307 11.7272C10.7307 12.7958 9.91285 13.2892 8.91533 13.2892C8.52382 13.2892 8.15513 13.2892 8.15513 13.2892V14.1419C8.15513 14.1419 8.57613 14.1419 8.91533 14.1419C10.3821 14.1419 10.8648 14.9035 10.8648 15.787C10.8648 16.9428 10.1622 17.4764 9.1446 17.4764C8.25836 17.4764 7.45123 17.0031 7.42708 15.9452H6.33035C6.37729 17.6493 7.8119 18.3586 9.1446 18.3586C10.6838 18.3586 11.9535 17.4616 11.9535 15.7629C11.9561 14.3926 10.9801 13.8456 10.4263 13.6833ZM16.6501 9.24008L13.4752 10.3797V11.4041L15.7545 10.6425V18.3572H16.8271V9.24008H16.6501Z" fill="#E1E1E1"/>
<path opacity="0.5" d="M10.4263 13.6833C11.0364 13.4313 11.8221 12.7609 11.8221 11.7513C11.8221 10.196 10.8232 9.24008 9.14054 9.24008C7.64158 9.24008 6.43356 10.2215 6.41212 11.6534H7.5008C7.5169 10.8168 8.0827 10.129 9.13922 10.129C10.1569 10.129 10.7307 10.6586 10.7307 11.7272C10.7307 12.7958 9.91285 13.2892 8.91533 13.2892C8.52382 13.2892 8.15513 13.2892 8.15513 13.2892V14.1419C8.15513 14.1419 8.57613 14.1419 8.91533 14.1419C10.3821 14.1419 10.8648 14.9035 10.8648 15.787C10.8648 16.9428 10.1622 17.4764 9.1446 17.4764C8.25836 17.4764 7.45123 17.0031 7.42708 15.9452H6.33035C6.37729 17.6493 7.8119 18.3586 9.1446 18.3586C10.6838 18.3586 11.9535 17.4616 11.9535 15.7629C11.9561 14.3926 10.9801 13.8456 10.4263 13.6833ZM16.6501 9.24008L13.4752 10.3797V11.4041L15.7545 10.6425V18.3572H16.8271V9.24008H16.6501Z" fill="#C2C2C2"/>
<path d="M10.4263 13.6833C11.0364 13.4313 11.8221 12.7609 11.8221 11.7513C11.8221 10.196 10.8232 9.24008 9.14054 9.24008C7.64158 9.24008 6.43356 10.2215 6.41212 11.6534H7.5008C7.5169 10.8168 8.0827 10.129 9.13922 10.129C10.1569 10.129 10.7307 10.6586 10.7307 11.7272C10.7307 12.7958 9.91285 13.2892 8.91533 13.2892C8.52382 13.2892 8.15513 13.2892 8.15513 13.2892V14.1419C8.15513 14.1419 8.57613 14.1419 8.91533 14.1419C10.3821 14.1419 10.8648 14.9035 10.8648 15.787C10.8648 16.9428 10.1622 17.4764 9.1446 17.4764C8.25836 17.4764 7.45123 17.0031 7.42708 15.9452H6.33035C6.37729 17.6493 7.8119 18.3586 9.1446 18.3586C10.6838 18.3586 11.9535 17.4616 11.9535 15.7629C11.9561 14.3926 10.9801 13.8456 10.4263 13.6833ZM16.6501 9.24008L13.4752 10.3797V11.4041L15.7545 10.6425V18.3572H16.8271V9.24008H16.6501Z" fill="#EEEEEE"/>
<path d="M7.37609 5.2178L6.33701 4.17741L7.47398 3.04044L9.65271 5.2178H7.37609Z" fill="url(#paint1_linear)"/>
<path d="M6.90549 4.41334C7.34978 4.41334 7.70995 4.05317 7.70995 3.60888C7.70995 3.16458 7.34978 2.80441 6.90549 2.80441C6.46119 2.80441 6.10102 3.16458 6.10102 3.60888C6.10102 4.05317 6.46119 4.41334 6.90549 4.41334Z" fill="#EEEEEE"/>
<path d="M6.90549 2.9395C7.32784 2.9395 7.67239 3.26396 7.70593 3.67691C7.7086 3.65412 7.70995 3.63268 7.70995 3.60988C7.70995 3.16609 7.34928 2.80542 6.90549 2.80542C6.46169 2.80542 6.10102 3.16609 6.10102 3.60988C6.10102 3.63268 6.10237 3.65412 6.10504 3.67691C6.13859 3.26396 6.48316 2.9395 6.90549 2.9395Z" fill="white" fill-opacity="0.4"/>
<path d="M7.70593 3.67593C7.67242 4.08889 7.32649 4.41334 6.90549 4.41334C6.48449 4.41334 6.13859 4.08889 6.10504 3.67593C6.10237 3.69873 6.10102 3.72017 6.10102 3.74296C6.10102 4.18675 6.46169 4.54742 6.90549 4.54742C7.34928 4.54742 7.70995 4.18675 7.70995 3.74296C7.70995 3.72017 7.7086 3.69873 7.70593 3.67593Z" fill="#212121" fill-opacity="0.1"/>
<path d="M21.5197 13.7986H2.48102V13.9327H21.5197V13.7986Z" fill="white" fill-opacity="0.05"/>
<path d="M21.5197 13.6646H2.48102V13.7986H21.5197V13.6646Z" fill="#1A237E" fill-opacity="0.05"/>
<path d="M17.5658 5.2178L16.5267 4.17741L17.6637 3.04044L19.3061 5.2178H17.5658Z" fill="url(#paint2_linear)"/>
<path d="M17.0962 4.41334C17.5405 4.41334 17.9007 4.05317 17.9007 3.60888C17.9007 3.16458 17.5405 2.80441 17.0962 2.80441C16.6519 2.80441 16.2918 3.16458 16.2918 3.60888C16.2918 4.05317 16.6519 4.41334 17.0962 4.41334Z" fill="#EEEEEE"/>
<path d="M17.0962 2.9395C17.5186 2.9395 17.8631 3.26396 17.8967 3.67691C17.898 3.65412 17.9007 3.63268 17.9007 3.60988C17.9007 3.16609 17.54 2.80542 17.0962 2.80542C16.6524 2.80542 16.2918 3.16609 16.2918 3.60988C16.2918 3.63268 16.2931 3.65412 16.2958 3.67691C16.3293 3.26396 16.6739 2.9395 17.0962 2.9395Z" fill="white" fill-opacity="0.4"/>
<path d="M17.8957 3.67593C17.8621 4.08889 17.5162 4.41334 17.0952 4.41334C16.6742 4.41334 16.3283 4.08889 16.2948 3.67593C16.2934 3.69873 16.2907 3.72017 16.2907 3.74296C16.2907 4.18675 16.6514 4.54742 17.0952 4.54742C17.539 4.54742 17.8997 4.18675 17.8997 3.74296C17.8997 3.72017 17.8984 3.69873 17.8957 3.67593Z" fill="#212121" fill-opacity="0.1"/>
<path d="M22.4583 6.82673C22.4583 6.12685 22.0104 5.53289 21.3857 5.31167V3.6089C21.3857 2.71999 20.6657 2 19.7767 2H4.22399C3.33506 2 2.61507 2.71999 2.61507 3.6089L2.61909 5.30896C1.99296 5.52886 1.54248 6.12415 1.54248 6.82673C1.54248 6.9018 1.54785 6.97555 1.55722 7.04659L2.61507 13.7986L2.08281 20.6593C2.08014 20.6968 2.07879 20.733 2.07879 20.7706C2.07879 21.6595 2.79878 22.3795 3.68768 22.3795H20.313C21.202 22.3795 21.9219 21.6595 21.9219 20.7706C21.9219 20.733 21.9206 20.6968 21.9179 20.6593L21.3856 13.7986L22.4435 7.04659C22.4529 6.97555 22.4583 6.9018 22.4583 6.82673Z" fill="url(#paint3_radial)" fill-opacity="0.05"/>
<defs>
<linearGradient id="paint0_linear" x1="7.48393" y1="9.01627" x2="16.2747" y2="17.8071" gradientUnits="userSpaceOnUse">
<stop stop-color="#1A237E" stop-opacity="0.2"/>
<stop offset="1" stop-color="#1A237E" stop-opacity="0.02"/>
</linearGradient>
<linearGradient id="paint1_linear" x1="6.89201" y1="3.59814" x2="7.93501" y2="4.64115" gradientUnits="userSpaceOnUse">
<stop stop-color="#212121" stop-opacity="0.2"/>
<stop offset="1" stop-color="#212121" stop-opacity="0.02"/>
</linearGradient>
<linearGradient id="paint2_linear" x1="17.0816" y1="3.59969" x2="17.9962" y2="4.51426" gradientUnits="userSpaceOnUse">
<stop stop-color="#212121" stop-opacity="0.2"/>
<stop offset="1" stop-color="#212121" stop-opacity="0.02"/>
</linearGradient>
<radialGradient id="paint3_radial" cx="0" cy="0" r="1" gradientUnits="userSpaceOnUse" gradientTransform="translate(2.97853 2.4503) scale(26.8478)">
<stop offset="0.33" stop-color="white"/>
<stop offset="1" stop-color="white" stop-opacity="0"/>
</radialGradient>
</defs>
</svg>
