<svg width="24" height="24" viewBox="0 0 24 24" fill="none" xmlns="http://www.w3.org/2000/svg">
<path d="M14.7671 8.8214C14.7671 9.60512 14.4356 10.2984 13.893 10.841C13.2901 11.4439 12.416 11.5946 12.416 12.107C12.416 12.8003 13.5313 12.5893 14.6014 13.6594C15.3097 14.3677 15.7468 15.3022 15.7468 16.3873C15.7468 18.5275 14.0286 20.2306 11.8734 20.2306C9.71816 20.2306 8 18.529 8 16.3888C8 15.3037 8.43708 14.3693 9.14544 13.6609C10.2155 12.5908 11.3308 12.8018 11.3308 12.1085C11.3308 11.5961 10.4567 11.4454 9.85381 10.8425C9.31123 10.2999 8.97965 9.60663 8.97965 8.79277C8.97965 7.22532 10.2607 5.95931 11.8282 5.95931C12.1296 5.95931 12.4009 6.00452 12.627 6.00452C13.0339 6.00452 13.2449 5.82366 13.2449 5.5373C13.2449 5.37151 13.1696 5.16051 13.1696 4.93444C13.1696 4.422 13.6066 4 14.1341 4C14.6616 4 15.0836 4.43708 15.0836 4.96458C15.0836 5.52223 14.6466 5.77845 14.315 5.89902C14.0437 5.98945 13.8327 6.11002 13.8327 6.38131C13.8327 6.89224 14.7671 7.3896 14.7671 8.8214ZM14.4657 16.3888C14.4657 14.8968 13.3655 13.691 11.8734 13.691C10.3813 13.691 9.28109 14.8968 9.28109 16.3888C9.28109 17.8659 10.3813 19.0867 11.8734 19.0867C13.3655 19.0867 14.4657 17.8644 14.4657 16.3888ZM13.5765 8.79126C13.5765 7.84175 12.8078 7.05803 11.8734 7.05803C10.939 7.05803 10.1703 7.84175 10.1703 8.79126C10.1703 9.74077 10.939 10.5245 11.8734 10.5245C12.8078 10.5245 13.5765 9.74077 13.5765 8.79126Z" fill="#23A47F"/>
</svg>
