<svg width="24" height="24" viewBox="0 0 24 24" fill="none" xmlns="http://www.w3.org/2000/svg">
<path d="M12 22C17.5228 22 22 17.5228 22 12C22 6.47715 17.5228 2 12 2C6.47715 2 2 6.47715 2 12C2 17.5228 6.47715 22 12 22Z" fill="white"/>
<path d="M6.76156 17.2349L4.92854 19.0679C6.73674 20.8761 9.23628 21.9965 11.9982 21.9965V19.4012C9.95603 19.4048 8.10174 18.5751 6.76156 17.2349Z" fill="#F7AFFF"/>
<path d="M4.59528 11.9982C4.59528 7.90675 7.91028 4.59174 12.0018 4.59174V2C6.47793 2 2 6.47792 2 11.9982C2 14.7602 3.12037 17.2598 4.92856 19.0679L6.76158 17.2349C5.42138 15.8948 4.59528 14.044 4.59528 11.9982Z" fill="#A26EEA"/>
<path d="M17.2349 6.76158L19.0679 4.92856C17.2597 3.12037 14.7602 2 11.9982 2V4.59528C14.044 4.59528 15.8947 5.42138 17.2349 6.76158Z" fill="#46B7FD"/>
<path d="M22 11.9982C22 9.23629 20.8797 6.73672 19.0714 4.92853L17.2384 6.76154C18.5786 8.10172 19.4083 9.95247 19.4083 11.9982C19.4083 16.0897 16.0933 19.4047 12.0018 19.4047V22C17.5221 22 22 17.5221 22 11.9982Z" fill="#5D70EA"/>
<path d="M11.9983 14.2957C13.2671 14.2957 14.2957 13.2671 14.2957 11.9982C14.2957 10.7293 13.2671 9.70074 11.9983 9.70074C10.7293 9.70074 9.70076 10.7293 9.70076 11.9982C9.70076 13.2671 10.7293 14.2957 11.9983 14.2957Z" fill="black"/>
</svg>
