<svg width="24" height="24" viewBox="0 0 24 24" fill="none" xmlns="http://www.w3.org/2000/svg">
<path d="M5.71388 18.2819L3.51426 20.4815C5.6841 22.6513 8.68354 23.9958 11.9979 23.9958V20.8814C9.54724 20.8857 7.3221 19.8901 5.71388 18.2819Z" fill="#F7AFFF"/>
<path d="M3.11434 11.9979C3.11434 7.0881 7.09234 3.11009 12.0021 3.11009V0C5.37351 0 0 5.37351 0 11.9979C0 15.3122 1.34444 18.3117 3.51427 20.4815L5.71389 18.2819C4.10565 16.6737 3.11434 14.4528 3.11434 11.9979Z" fill="#A26EEA"/>
<path d="M18.2819 5.71389L20.4815 3.51427C18.3117 1.34444 15.3122 0 11.9979 0V3.11434C14.4528 3.11434 16.6737 4.10565 18.2819 5.71389Z" fill="#46B7FD"/>
<path d="M24 11.9979C24 8.68359 22.6556 5.6841 20.4857 3.51427L18.2861 5.71389C19.8943 7.3221 20.8899 9.543 20.8899 11.9979C20.8899 16.9077 16.9119 20.8857 12.0021 20.8857V24C18.6265 24 24 18.6265 24 11.9979Z" fill="#5D70EA"/>
<path d="M11.9979 14.7548C13.5205 14.7548 14.7548 13.5205 14.7548 11.9979C14.7548 10.4752 13.5205 9.2409 11.9979 9.2409C10.4752 9.2409 9.2409 10.4752 9.2409 11.9979C9.2409 13.5205 10.4752 14.7548 11.9979 14.7548Z" fill="black"/>
</svg>
