<svg width="24" height="24" viewBox="0 0 24 24" fill="none" xmlns="http://www.w3.org/2000/svg">
<rect x="2" y="2" width="20" height="20" rx="2" fill="#E77C39"/>
<path d="M6.6 4C6.17565 4 5.76869 4.16857 5.46863 4.46863C5.16857 4.76869 5 5.17565 5 5.6C5 6.02435 5.16857 6.43131 5.46863 6.73137C5.76869 7.03143 6.17565 7.2 6.6 7.2C6.90195 7.19918 7.1975 7.11295 7.4525 6.95125L12.2437 10.5612C11.7167 11.2187 11.4 12.0517 11.4 12.96C11.4 13.9531 11.7802 14.8546 12.3987 15.5362L10.45 17.485C10.3424 17.4557 10.2315 17.4406 10.12 17.44C9.78052 17.44 9.45495 17.5749 9.2149 17.8149C8.97486 18.0549 8.84 18.3805 8.84 18.72C8.84 19.0595 8.97486 19.385 9.2149 19.6251C9.45495 19.8651 9.78052 20 10.12 20C10.3161 19.9997 10.5095 19.9544 10.6853 19.8676C10.8611 19.7807 11.0145 19.6546 11.1339 19.4991C11.2532 19.3435 11.3352 19.1626 11.3736 18.9703C11.4119 18.778 11.4056 18.5794 11.355 18.39L13.4087 16.3362C13.4091 16.3364 13.4097 16.3361 13.41 16.3362C13.9541 16.6318 14.5772 16.8 15.24 16.8C17.361 16.8 19.08 15.081 19.08 12.96C19.08 11.0577 17.6955 9.48281 15.88 9.1775V7.0275C16.1235 6.88639 16.3137 6.66895 16.4212 6.40884C16.5287 6.14872 16.5475 5.86043 16.4746 5.58858C16.4017 5.31673 16.2413 5.07647 16.0181 4.905C15.7949 4.73352 15.5214 4.64038 15.24 4.64C14.9586 4.64038 14.6851 4.73352 14.4619 4.905C14.2387 5.07647 14.0783 5.31673 14.0054 5.58858C13.9325 5.86043 13.9513 6.14872 14.0588 6.40884C14.1663 6.66895 14.3565 6.88639 14.6 7.0275V9.1775C14.1018 9.26129 13.6372 9.44148 13.2237 9.6975L8.1725 5.89125C8.21523 5.66045 8.20665 5.42307 8.14738 5.19596C8.0881 4.96884 7.97958 4.75755 7.82952 4.57707C7.67945 4.39658 7.49151 4.25132 7.27903 4.1516C7.06655 4.05187 6.83472 4.00011 6.6 4V4ZM15.24 11.04C16.2986 11.04 17.16 11.9014 17.16 12.96C17.16 14.0186 16.2986 14.88 15.24 14.88C14.1814 14.88 13.32 14.0186 13.32 12.96C13.32 11.9014 14.1814 11.04 15.24 11.04Z" fill="white"/>
</svg>
