<svg width="24" height="24" viewBox="0 0 24 24" fill="none" xmlns="http://www.w3.org/2000/svg">
<path d="M12.0029 3C8.24552 3 7.14662 3.00388 6.93301 3.0216C6.16193 3.08571 5.68211 3.20716 5.15938 3.46749C4.75653 3.66758 4.43882 3.89952 4.12527 4.22466C3.55422 4.8176 3.20813 5.54708 3.08285 6.4142C3.02193 6.83516 3.00421 6.92101 3.00062 9.07122C2.99923 9.78796 3.00062 10.7312 3.00062 11.9965C3.00062 15.7519 3.00477 16.85 3.02276 17.0632C3.08506 17.8137 3.20273 18.2859 3.45192 18.8024C3.92813 19.7911 4.83765 20.5333 5.90915 20.8103C6.28015 20.9058 6.68992 20.9585 7.21598 20.9834C7.43886 20.9931 9.71058 21 11.9837 21C14.2568 21 16.5299 20.9972 16.7473 20.9862C17.3564 20.9575 17.7101 20.91 18.1012 20.8089C19.1796 20.5306 20.0725 19.7994 20.5584 18.7969C20.8027 18.2928 20.9266 17.8027 20.9827 17.0913C20.9949 16.9362 21 14.4635 21 11.9941C21 9.52431 20.9945 7.05616 20.9823 6.90107C20.9255 6.17824 20.8016 5.6922 20.5494 5.17846C20.3424 4.75792 20.1126 4.44386 19.779 4.12274C19.1836 3.55389 18.4554 3.20771 17.5877 3.08253C17.1673 3.02174 17.0835 3.00374 14.9322 3H12.0029Z" fill="url(#paint0_radial_3534_94)"/>
<path d="M12.0029 3C8.24552 3 7.14662 3.00388 6.93301 3.0216C6.16193 3.08571 5.68211 3.20716 5.15938 3.46749C4.75653 3.66758 4.43882 3.89952 4.12527 4.22466C3.55422 4.8176 3.20813 5.54708 3.08285 6.4142C3.02193 6.83516 3.00421 6.92101 3.00062 9.07122C2.99923 9.78796 3.00062 10.7312 3.00062 11.9965C3.00062 15.7519 3.00477 16.85 3.02276 17.0632C3.08506 17.8137 3.20273 18.2859 3.45192 18.8024C3.92813 19.7911 4.83765 20.5333 5.90915 20.8103C6.28015 20.9058 6.68992 20.9585 7.21598 20.9834C7.43886 20.9931 9.71058 21 11.9837 21C14.2568 21 16.5299 20.9972 16.7473 20.9862C17.3564 20.9575 17.7101 20.91 18.1012 20.8089C19.1796 20.5306 20.0725 19.7994 20.5584 18.7969C20.8027 18.2928 20.9266 17.8027 20.9827 17.0913C20.9949 16.9362 21 14.4635 21 11.9941C21 9.52431 20.9945 7.05616 20.9823 6.90107C20.9255 6.17824 20.8016 5.6922 20.5494 5.17846C20.3424 4.75792 20.1126 4.44386 19.779 4.12274C19.1836 3.55389 18.4554 3.20771 17.5877 3.08253C17.1673 3.02174 17.0835 3.00374 14.9322 3H12.0029Z" fill="url(#paint1_radial_3534_94)"/>
<path d="M12.0006 5.70001C10.2896 5.70001 10.0749 5.70749 9.40286 5.73807C8.73217 5.76879 8.27436 5.87497 7.87378 6.03076C7.45942 6.19167 7.10793 6.40692 6.75775 6.75723C6.40731 7.10741 6.19206 7.45889 6.03062 7.87312C5.87443 8.27382 5.76812 8.73176 5.73793 9.40218C5.70787 10.0742 5.7 10.289 5.7 12C5.7 13.711 5.70761 13.9251 5.73806 14.5971C5.7689 15.2677 5.87509 15.7255 6.03075 16.1261C6.1918 16.5405 6.40705 16.892 6.75736 17.2421C7.10741 17.5926 7.4589 17.8084 7.87299 17.9693C8.27384 18.1251 8.73177 18.2312 9.40234 18.262C10.0743 18.2925 10.2889 18.3 11.9998 18.3C13.7109 18.3 13.925 18.2925 14.597 18.262C15.2677 18.2312 15.726 18.1251 16.1269 17.9693C16.5411 17.8084 16.8921 17.5926 17.2421 17.2421C17.5926 16.892 17.8078 16.5405 17.9692 16.1263C18.1241 15.7255 18.2304 15.2676 18.2619 14.5972C18.2921 13.9252 18.3 13.711 18.3 12C18.3 10.289 18.2921 10.0743 18.2619 9.40231C18.2304 8.73162 18.1241 8.27382 17.9692 7.87325C17.8078 7.45889 17.5926 7.10741 17.2421 6.75723C16.8917 6.40679 16.5412 6.19154 16.1265 6.03076C15.7248 5.87497 15.2668 5.76879 14.5961 5.73807C13.9241 5.70749 13.7101 5.70001 11.9986 5.70001H12.0006ZM11.4354 6.83532C11.6032 6.83506 11.7903 6.83532 12.0006 6.83532C13.6827 6.83532 13.8821 6.84136 14.5463 6.87155C15.1606 6.89964 15.494 7.00227 15.7161 7.08851C16.0101 7.20269 16.2197 7.33919 16.44 7.55969C16.6605 7.78019 16.797 7.99019 16.9115 8.28419C16.9977 8.50601 17.1005 8.83938 17.1284 9.45363C17.1586 10.1178 17.1652 10.3173 17.1652 11.9986C17.1652 13.6799 17.1586 13.8794 17.1284 14.5435C17.1004 15.1578 16.9977 15.4911 16.9115 15.7129C16.7973 16.0069 16.6605 16.2163 16.44 16.4367C16.2195 16.6572 16.0102 16.7937 15.7161 16.9078C15.4942 16.9945 15.1606 17.0968 14.5463 17.1249C13.8822 17.1551 13.6827 17.1617 12.0006 17.1617C10.3183 17.1617 10.119 17.1551 9.45484 17.1249C8.84058 17.0966 8.5072 16.9939 8.28499 16.9077C7.99099 16.7935 7.78099 16.657 7.56048 16.4365C7.33998 16.216 7.20348 16.0066 7.08903 15.7124C7.0028 15.4906 6.90003 15.1572 6.87207 14.543C6.84188 13.8789 6.83585 13.6794 6.83585 11.997C6.83585 10.3146 6.84188 10.1162 6.87207 9.45206C6.90016 8.83781 7.0028 8.50443 7.08903 8.28236C7.20322 7.98836 7.33998 7.77836 7.56048 7.55786C7.78099 7.33736 7.99099 7.20086 8.28499 7.08641C8.50707 6.99978 8.84058 6.89741 9.45484 6.86919C10.036 6.84294 10.2612 6.83506 11.4354 6.83375V6.83532ZM15.3635 7.88139C14.9461 7.88139 14.6075 8.21962 14.6075 8.63712C14.6075 9.0545 14.9461 9.39313 15.3635 9.39313C15.7809 9.39313 16.1195 9.0545 16.1195 8.63712C16.1195 8.21975 15.7809 7.88112 15.3635 7.88112V7.88139ZM12.0006 8.7647C10.2139 8.7647 8.76524 10.2133 8.76524 12C8.76524 13.7867 10.2139 15.2347 12.0006 15.2347C13.7873 15.2347 15.2354 13.7867 15.2354 12C15.2354 10.2133 13.7872 8.7647 12.0005 8.7647H12.0006ZM12.0006 9.90001C13.1603 9.90001 14.1006 10.8402 14.1006 12C14.1006 13.1597 13.1603 14.1 12.0006 14.1C10.8407 14.1 9.90057 13.1597 9.90057 12C9.90057 10.8402 10.8407 9.90001 12.0006 9.90001V9.90001Z" fill="white"/>
<defs>
<radialGradient id="paint0_radial_3534_94" cx="0" cy="0" r="1" gradientUnits="userSpaceOnUse" gradientTransform="translate(7.78127 22.3864) rotate(-90) scale(17.8393 16.592)">
<stop stop-color="#FFDD55"/>
<stop offset="0.1" stop-color="#FFDD55"/>
<stop offset="0.5" stop-color="#FF543E"/>
<stop offset="1" stop-color="#C837AB"/>
</radialGradient>
<radialGradient id="paint1_radial_3534_94" cx="0" cy="0" r="1" gradientUnits="userSpaceOnUse" gradientTransform="translate(-0.0150952 4.29669) rotate(78.6806) scale(7.97425 32.8702)">
<stop stop-color="#3771C8"/>
<stop offset="0.128" stop-color="#3771C8"/>
<stop offset="1" stop-color="#6600FF" stop-opacity="0"/>
</radialGradient>
</defs>
</svg>
