<svg width="24" height="24" viewBox="0 0 24 24" fill="none" xmlns="http://www.w3.org/2000/svg">
<path d="M13.3218 9.89441L18.7633 9.92822C18.9206 9.92895 19.0745 9.97338 19.208 10.0566C19.3414 10.1398 19.4491 10.2584 19.519 10.3993C19.5889 10.5402 19.6183 10.6977 19.6038 10.8543C19.5893 11.0109 19.5316 11.1603 19.437 11.286L11.4074 22C10.1964 21.094 9.39454 19.7444 9.178 18.2476C8.96145 16.7508 9.3479 15.2292 10.2525 14.0172L13.3218 9.89441Z" fill="url(#paint0_linear)"/>
<path d="M10.2499 14.0068L4.84213 13.9729C4.68532 13.9719 4.53187 13.9273 4.39885 13.8443C4.26584 13.7612 4.15846 13.6429 4.08865 13.5025C4.01884 13.362 3.98934 13.205 4.00343 13.0488C4.01751 12.8926 4.07463 12.7434 4.16844 12.6178L12.1175 2C13.3284 2.90599 14.1303 4.25563 14.3468 5.75243C14.5634 7.24923 14.1769 8.77078 13.2724 9.98283L10.2499 14.0068Z" fill="#2684FF"/>
<defs>
<linearGradient id="paint0_linear" x1="13.1089" y1="10.695" x2="15.3947" y2="17.6073" gradientUnits="userSpaceOnUse">
<stop stop-color="#0052CC"/>
<stop offset="1" stop-color="#2684FF"/>
</linearGradient>
</defs>
</svg>
