<svg fill="none" height="24" viewBox="0 0 24 24" width="24" xmlns="http://www.w3.org/2000/svg"><g clip-rule="evenodd" fill-rule="evenodd"><path d="m6.0933 2h11.8134c2.2513 0 4.0932 1.842 4.0932 4.0933v11.8134c0 2.2513-1.8419 4.0932-4.0932 4.0932h-11.8134c-2.2513.0001-4.0933-1.8419-4.0933-4.0932v-11.8134c0-2.2513 1.842-4.0933 4.0933-4.0933z" fill="#3ace01"/><path d="m11.9806 5.31299c4.0524 0 7.3375 2.63058 7.3375 5.87561 0 1.1334-.4011 2.1917-1.0954 3.0892-.0344.0511-.0793.1076-.1359.1699l-.0043.0047c-.2372.2838-.5043.5502-.7979.7961-2.0291 1.8755-5.369 4.1084-5.8098 3.7639-.3832-.2994.6311-1.7641-.5391-2.0078-.0817-.0094-.1631-.0195-.2438-.0309l-.0016-.0001v-.0001c-3.43708-.4883-6.04723-2.8925-6.04723-5.7849-.00011-3.24503 3.28506-5.87561 7.33753-5.87561z" fill="#fff"/><path d="m7.72325 13.0627h1.47986c.21051 0 .38268-.1723.38268-.3828v-.0319c0-.2105-.17217-.3827-.38268-.3827h-1.06526v-2.42364c0-.2105-.17217-.38268-.38268-.38268h-.03192c-.2105 0-.38267.17218-.38267.38268v2.83824c0 .2105.17217.3828.38267.3828zm9.17005-1.7791v-.0319c0-.2105-.1723-.3827-.3828-.3827h-1.0652v-.6059h1.0652c.2105 0 .3828-.1722.3828-.38269v-.03192c0-.2105-.1723-.38268-.3828-.38268h-1.4798c-.2105 0-.3827.17218-.3827.38268v2.83821c0 .2105.1722.3827.3827.3827h1.4798c.2105 0 .3828-.1722.3828-.3827v-.0319c0-.2105-.1723-.3827-.3828-.3827h-1.0652v-.6059h1.0652c.2105.0001.3828-.1721.3828-.3826zm-2.846 1.665.0001-.0002c.0708-.0714.1106-.1679.1107-.2684v-2.83824c0-.2105-.1722-.38267-.3828-.38267h-.0319c-.2105 0-.3827.17217-.3827.38267v1.66604l-1.3832-1.8552c-.066-.11537-.1904-.19351-.3322-.19351h-.032c-.2105 0-.3827.17217-.3827.38267v2.83824c0 .2105.1722.3827.3827.3827h.032c.2105 0 .3826-.1722.3826-.3827v-1.6973l1.3932 1.9029c.0086.0133.0179.0261.0281.0383v.0001c.0383.0522.0906.088.149.1099.0448.0185.0939.0288.1452.0288h.0319c.0623 0 .1238-.0153.1788-.0447.0382-.0182.0705-.0417.0932-.0694zm-3.77.1141h.032c.2105 0 .3826-.1723.3826-.3828v-2.83819c0-.2105-.1721-.38267-.3826-.38267h-.032c-.2105 0-.3827.17217-.3827.38267v2.83819c0 .2105.1722.3828.3827.3828z" fill="#3ace01"/></g></svg>