<svg width="24" height="24" viewBox="0 0 24 24" fill="none" xmlns="http://www.w3.org/2000/svg">
<path fill-rule="evenodd" clip-rule="evenodd" d="M20.5195 2H3.47621C2.66179 2 2 2.64556 2 3.44111V20.5571C2 21.3535 2.66179 22 3.47621 22H20.5195C21.3354 22 22 21.3535 22 20.5571V3.44111C22 2.64556 21.3354 2 20.5195 2" fill="#006087"/>
<path fill-rule="evenodd" clip-rule="evenodd" d="M6.44904 4.7547C7.39735 4.7547 8.16816 5.52572 8.16816 6.47472C8.16816 7.4247 7.39735 8.19572 6.44904 8.19572C5.49824 8.19572 4.72881 7.4247 4.72881 6.47472C4.72881 5.52572 5.49824 4.7547 6.44904 4.7547ZM4.9652 19.0497H7.93164V9.50097H4.9652V19.0497Z" fill="#FFFFFE"/>
<path fill-rule="evenodd" clip-rule="evenodd" d="M9.79229 9.50092H12.6373V10.8058H12.6771C13.073 10.055 14.0408 9.2636 15.4838 9.2636C18.4877 9.2636 19.0423 11.2414 19.0423 13.8119V19.0496H16.0779V14.406C16.0779 13.2987 16.0575 11.8744 14.5365 11.8744C12.9932 11.8744 12.7561 13.0806 12.7561 14.3258V19.0496H9.79229V9.50092Z" fill="#FFFFFE"/>
</svg>
