<svg width="24" height="24" viewBox="0 0 24 24" fill="none" xmlns="http://www.w3.org/2000/svg">
<rect x="0.25" y="3.75" width="23.5" height="16.5" rx="1.75" fill="white" stroke="#E3E5E8" stroke-width="0.5"/>
<path d="M13.3583 11.7335C13.3583 14.3477 11.2634 16.467 8.67916 16.467C6.09493 16.467 4 14.3477 4 11.7335C4 9.11925 6.09493 7 8.67916 7C11.2634 7 13.3583 9.11925 13.3583 11.7335Z" fill="#ED0006"/>
<path d="M19.4286 11.7335C19.4286 14.3477 17.3336 16.467 14.7494 16.467C12.1652 16.467 10.0703 14.3477 10.0703 11.7335C10.0703 9.11925 12.1652 7 14.7494 7C17.3336 7 19.4286 9.11925 19.4286 11.7335Z" fill="#0099DF"/>
<path fill-rule="evenodd" clip-rule="evenodd" d="M11.7143 8.1308C12.7204 8.999 13.3583 10.2909 13.3583 11.7335C13.3583 13.1761 12.7204 14.468 11.7143 15.3362C10.7082 14.468 10.0703 13.1761 10.0703 11.7335C10.0703 10.2909 10.7082 8.999 11.7143 8.1308Z" fill="#6C6BBD"/>
</svg>
