<svg width="24" height="24" viewBox="0 0 24 24" fill="none" xmlns="http://www.w3.org/2000/svg"><path fill-rule="evenodd" clip-rule="evenodd" d="M12 2.85938C6.71878 2.85938 2.625 6.72787 2.625 11.9531C2.625 14.6863 3.74513 17.048 5.56928 18.6793C5.72241 18.8164 5.81484 19.0084 5.82112 19.2139L5.87218 20.8815C5.88849 21.4134 6.43794 21.7596 6.92469 21.5447L8.7855 20.7233C8.94324 20.6537 9.12 20.6408 9.28622 20.6865C10.1413 20.9216 11.0514 21.0469 12 21.0469C17.2812 21.0469 21.375 17.1784 21.375 11.9531C21.375 6.72787 17.2812 2.85938 12 2.85938Z" fill="url(#paint0_radial_2638_88)"/><path fill-rule="evenodd" clip-rule="evenodd" d="M6.37035 14.6126L9.12426 10.2435C9.56231 9.54839 10.5004 9.37533 11.1577 9.86826L13.348 11.511C13.5489 11.6618 13.8254 11.661 14.0256 11.5091L16.9837 9.26404C17.3785 8.96442 17.8939 9.43692 17.6297 9.85623L14.8758 14.2254C14.4377 14.9204 13.4996 15.0935 12.8424 14.6005L10.652 12.9578C10.4511 12.807 10.1745 12.8079 9.97444 12.9597L7.01629 15.2048C6.62147 15.5044 6.10607 15.0319 6.37035 14.6126Z" fill="#fff"/><defs><radialGradient id="paint0_radial_2638_88" cx="0" cy="0" r="1" gradientUnits="userSpaceOnUse" gradientTransform="translate(6.23389 21.5091) scale(20.4299)"><stop stop-color="#09F"/><stop offset=".61" stop-color="#A033FF"/><stop offset=".935" stop-color="#FF5280"/><stop offset="1" stop-color="#FF7061"/></radialGradient></defs></svg>