<svg width="24" height="24" viewBox="0 0 24 24" fill="none" xmlns="http://www.w3.org/2000/svg">
<g clip-path="url(#clip0)">
<path d="M15.9502 9.97675H21.1163C21.6043 9.97675 22 10.3724 22 10.8605V15.566C22 17.3598 20.5459 18.814 18.7521 18.814H18.7367C16.943 18.8142 15.4886 17.3603 15.4884 15.5665C15.4884 15.5664 15.4884 15.5662 15.4884 15.566V10.4386C15.4884 10.1835 15.6952 9.97675 15.9502 9.97675Z" fill="#5059C9"/>
<path d="M19.4419 9.04651C20.5978 9.04651 21.5349 8.10943 21.5349 6.95349C21.5349 5.79755 20.5978 4.86047 19.4419 4.86047C18.2859 4.86047 17.3488 5.79755 17.3488 6.95349C17.3488 8.10943 18.2859 9.04651 19.4419 9.04651Z" fill="#5059C9"/>
<path d="M12.9302 9.04652C14.5999 9.04652 15.9535 7.69296 15.9535 6.02326C15.9535 4.35356 14.5999 3 12.9302 3C11.2605 3 9.90697 4.35356 9.90697 6.02326C9.90697 7.69296 11.2605 9.04652 12.9302 9.04652Z" fill="#7B83EB"/>
<path d="M16.9614 9.97675H8.43395C7.9517 9.98868 7.57021 10.3889 7.5814 10.8712V16.2381C7.51405 19.1322 9.8037 21.5338 12.6977 21.6047C15.5917 21.5338 17.8813 19.1322 17.814 16.2381V10.8712C17.8251 10.3889 17.4437 9.98868 16.9614 9.97675Z" fill="#7B83EB"/>
<path opacity="0.1" d="M13.1628 9.97675V17.4977C13.1605 17.8426 12.9515 18.1524 12.6326 18.2837C12.531 18.3267 12.4219 18.3488 12.3116 18.3488H7.99069C7.93023 18.1954 7.87442 18.0419 7.8279 17.8837C7.66509 17.35 7.58201 16.7952 7.58139 16.2372V10.8698C7.57021 10.3883 7.95107 9.98868 8.43255 9.97675H13.1628Z" fill="black"/>
<path opacity="0.2" d="M12.6978 9.97675V17.9628C12.6978 18.073 12.6756 18.1822 12.6327 18.2837C12.5014 18.6026 12.1915 18.8116 11.8466 18.814H8.20932C8.13024 18.6605 8.05582 18.507 7.9907 18.3488C7.92558 18.1907 7.87442 18.0419 7.82791 17.8837C7.66509 17.35 7.58201 16.7952 7.58139 16.2372V10.8698C7.57021 10.3883 7.95108 9.98868 8.43257 9.97675H12.6978Z" fill="black"/>
<path opacity="0.2" d="M12.6978 9.97675V17.0326C12.6942 17.5012 12.3152 17.8802 11.8466 17.8837H7.82791C7.6651 17.35 7.58202 16.7952 7.58139 16.2372V10.8698C7.57021 10.3883 7.95108 9.98868 8.43258 9.97675H12.6978Z" fill="black"/>
<path opacity="0.2" d="M12.2326 9.97675V17.0326C12.229 17.5012 11.85 17.8802 11.3814 17.8837H7.82791C7.6651 17.35 7.58202 16.7952 7.58139 16.2372V10.8698C7.57021 10.3883 7.95108 9.98868 8.43256 9.97675H12.2326Z" fill="black"/>
<path opacity="0.1" d="M13.1628 7.5721V9.03722C13.0837 9.04187 13.0093 9.04652 12.9302 9.04652C12.8512 9.04652 12.7767 9.04188 12.6977 9.03722C12.5407 9.0268 12.385 9.00189 12.2326 8.9628C11.2907 8.73975 10.5126 8.07921 10.1395 7.18606C10.0753 7.03607 10.0255 6.88033 9.99069 6.72095H12.3116C12.781 6.72272 13.161 7.10275 13.1628 7.5721Z" fill="black"/>
<path opacity="0.2" d="M12.6978 8.03719V9.03719C12.5408 9.02677 12.3851 9.00186 12.2327 8.96278C11.2908 8.73973 10.5126 8.07918 10.1395 7.18604H11.8466C12.316 7.18781 12.696 7.56785 12.6978 8.03719Z" fill="black"/>
<path opacity="0.2" d="M12.6978 8.03719V9.03719C12.5408 9.02677 12.3851 9.00186 12.2327 8.96278C11.2908 8.73973 10.5126 8.07918 10.1395 7.18604H11.8466C12.316 7.18781 12.696 7.56785 12.6978 8.03719Z" fill="black"/>
<path opacity="0.2" d="M12.2326 8.0372V8.96278C11.2907 8.73973 10.5126 8.07918 10.1395 7.18604H11.3814C11.8507 7.18782 12.2308 7.56786 12.2326 8.0372Z" fill="black"/>
<path d="M2.85255 7.18604H11.38C11.8508 7.18604 12.2325 7.56774 12.2325 8.03859V16.566C12.2325 17.0369 11.8508 17.4186 11.38 17.4186H2.85255C2.3817 17.4186 2 17.0369 2 16.566V8.03859C2 7.56774 2.38171 7.18604 2.85255 7.18604Z" fill="url(#paint0_linear)"/>
<path d="M9.36 10.4316H7.65534V15.0735H6.5693V10.4316H4.87256V9.53113H9.36V10.4316Z" fill="white"/>
</g>
<defs>
<linearGradient id="paint0_linear" x1="3.7776" y1="6.51986" x2="10.455" y2="18.0848" gradientUnits="userSpaceOnUse">
<stop stop-color="#5A62C3"/>
<stop offset="0.5" stop-color="#4D55BD"/>
<stop offset="1" stop-color="#3940AB"/>
</linearGradient>
<clipPath id="clip0">
<rect width="20" height="18.6047" fill="white" transform="translate(2 3)"/>
</clipPath>
</defs>
</svg>
