<svg width="24" height="24" viewBox="0 0 24 24" fill="none" xmlns="http://www.w3.org/2000/svg">
<path d="M18.7742 2H5.22581C3.44424 2 2 3.44424 2 5.22581V18.7742C2 20.5557 3.44424 22 5.22581 22H18.7742C20.5557 22 22 20.5557 22 18.7742V5.22581C22 3.44424 20.5557 2 18.7742 2Z" fill="#FFD02F"/>
<path fill-rule="evenodd" clip-rule="evenodd" d="M15.5061 5.125H13.5549L15.1809 8.07142L11.6037 5.125H9.65246L11.441 8.72621L7.70121 5.125H5.75L7.70121 9.70833L5.75 18.875H7.70121L11.441 9.05358L9.65246 18.875H11.6037L15.1809 8.39879L13.5549 18.875H15.5061L19.0833 7.41667L15.5061 5.125Z" fill="#050038"/>
</svg>
