<svg width="24" height="24" viewBox="0 0 24 24" fill="none" xmlns="http://www.w3.org/2000/svg">
<path d="M4.48796 17.9913C4.04584 17.9922 3.61139 17.8758 3.22899 17.6539C2.84659 17.432 2.52994 17.1126 2.3114 16.7283C2.0962 16.3466 1.98887 15.9136 2.00091 15.4757C2.01295 15.0377 2.14391 14.6113 2.37976 14.2421L6.86202 7.20333C7.09144 6.82505 7.41716 6.51444 7.8059 6.30323C8.19464 6.09202 8.63247 5.98777 9.07468 6.00114C9.51656 6.01173 9.94768 6.13954 10.3239 6.37147C10.7002 6.6034 11.0081 6.93114 11.2161 7.32114C11.634 8.11122 11.5817 9.06177 11.0813 9.80348L6.60187 16.8422C6.37471 17.1961 6.06187 17.4871 5.69235 17.6879C5.32282 17.8888 4.90856 17.9932 4.48796 17.9913V17.9913Z" fill="#F62B54"/>
<path d="M12.1761 17.9908C11.2721 17.9908 10.4402 17.5075 10.0033 16.7307C9.78863 16.3501 9.68156 15.9183 9.6936 15.4815C9.70565 15.0447 9.83635 14.6194 10.0717 14.2512L14.5454 7.22857C14.7715 6.84498 15.0961 6.52885 15.4855 6.31297C15.8749 6.09709 16.315 5.98932 16.7601 6.00084C17.6717 6.02076 18.4979 6.53068 18.9157 7.32841C19.1196 7.71904 19.2124 8.15815 19.1839 8.59787C19.1554 9.0376 19.0068 9.46108 18.7543 9.82216L14.2815 16.8447C14.055 17.1972 13.7434 17.4869 13.3755 17.6873C13.0075 17.8876 12.5951 17.992 12.1761 17.9909V17.9908Z" fill="#FFCC00"/>
<path d="M19.6926 18.0497C20.9671 18.0497 22.0002 17.0383 22.0002 15.7905C22.0002 14.5428 20.9671 13.5313 19.6926 13.5313C18.4181 13.5313 17.3849 14.5428 17.3849 15.7905C17.3849 17.0383 18.4181 18.0497 19.6926 18.0497Z" fill="#00CA72"/>
</svg>
