<svg width="24" height="24" viewBox="0 0 24 24" fill="none" xmlns="http://www.w3.org/2000/svg">
<path d="M13.9432 2C13.9178 2 3.02052 6.01292 3.00566 6.0282C3 6.03306 2.99858 8.7389 3.00142 12.0406L3.00708 18.0433L4.3656 17.5218C5.11279 17.2349 5.94631 16.9147 6.2166 16.8099L6.70907 16.6203V11.7337C6.70907 8.36316 6.71614 6.84287 6.73312 6.83314C6.77416 6.80814 13.9192 5.13713 13.9376 5.14755C13.9602 5.16144 13.9602 19.5067 13.9376 19.5199C13.9284 19.5254 11.4908 19.2011 8.52044 18.7997C5.55078 18.3975 3.11321 18.0711 3.10472 18.0739C3.09552 18.0774 5.5154 18.9608 8.48223 20.0387C11.4483 21.1159 13.9008 21.9986 13.9319 22C13.963 22.0007 15.3414 21.6347 16.9943 21.186L20 20.37L19.9943 12.0379L19.9887 3.70573L16.9773 2.85287C15.3216 2.38407 13.956 2 13.9432 2Z" fill="#EB3C00"/>
</svg>
