<svg width="24" height="24" viewBox="0 0 24 24" fill="none" xmlns="http://www.w3.org/2000/svg">
<path d="M12.5713 2.00452L13.9371 5.60176V17.899L12.6036 21.8699L18.5058 20.2302C18.9066 20.1188 19.2599 19.8791 19.5116 19.5478C19.7633 19.2165 19.8995 18.8119 19.8994 18.3958V5.47755C19.8994 5.06117 19.7628 4.65629 19.5106 4.32496C19.2585 3.99362 18.9046 3.75412 18.5033 3.64315L12.5713 2.00452Z" fill="url(#paint0_linear)"/>
<path d="M7.23901 16.8139L5.48163 17.7748C5.32916 17.8582 5.1576 17.9005 4.98383 17.8975C4.81006 17.8945 4.64007 17.8463 4.49058 17.7576C4.34109 17.669 4.21724 17.543 4.13122 17.392C4.04521 17.2409 3.99998 17.0701 4 16.8963V7.38551C3.99999 7.0511 4.08823 6.72262 4.25582 6.43324C4.42341 6.14386 4.66441 5.90384 4.95446 5.73743L11.1463 2.1844C11.4286 2.0222 11.7484 1.93656 12.0739 1.93598V1.93598C12.3188 1.93571 12.5613 1.98378 12.7876 2.07741C13.0139 2.17105 13.2194 2.30842 13.3925 2.48164C13.5656 2.65487 13.7028 2.86055 13.7963 3.08689C13.8897 3.31324 13.9376 3.5558 13.9371 3.80068V5.60179L8.90497 7.43619C8.63229 7.53566 8.39679 7.71658 8.23041 7.95442C8.06403 8.19226 7.97481 8.47551 7.97486 8.76578V15.5727C7.97476 15.8266 7.9064 16.0757 7.77694 16.2941C7.64748 16.5124 7.46169 16.692 7.23901 16.8139V16.8139Z" fill="url(#paint1_linear)"/>
<path d="M13.9372 17.899V20.1135C13.9375 20.3529 13.8907 20.5901 13.7992 20.8114C13.7078 21.0327 13.5735 21.2337 13.4042 21.403C13.2349 21.5723 13.0339 21.7066 12.8126 21.798C12.5913 21.8895 12.3541 21.9363 12.1147 21.936V21.936C11.8029 21.936 11.4963 21.8559 11.2243 21.7034L7.34336 19.5287C7.17544 19.4345 7.04348 19.2873 6.96815 19.1101C6.89281 18.9329 6.87835 18.7357 6.92702 18.5494C6.9757 18.3631 7.08476 18.1982 7.23714 18.0806C7.38952 17.9629 7.57663 17.899 7.76917 17.899H13.9372Z" fill="url(#paint2_linear)"/>
<path d="M7.23901 16.8139L5.48163 17.7748C5.32916 17.8582 5.1576 17.9005 4.98383 17.8975C4.81006 17.8945 4.64007 17.8463 4.49058 17.7576C4.34109 17.669 4.21724 17.543 4.13122 17.392C4.04521 17.2409 3.99998 17.0701 4 16.8963V7.38551C3.99999 7.0511 4.08823 6.72262 4.25582 6.43324C4.42341 6.14386 4.66441 5.90384 4.95446 5.73743L11.1463 2.1844C11.4286 2.0222 11.7484 1.93656 12.0739 1.93598V1.93598C12.3188 1.93571 12.5613 1.98378 12.7876 2.07741C13.0139 2.17105 13.2194 2.30842 13.3925 2.48164C13.5656 2.65487 13.7028 2.86055 13.7963 3.08689C13.8897 3.31324 13.9376 3.5558 13.9371 3.80068V5.60179L8.90497 7.43619C8.63229 7.53566 8.39679 7.71658 8.23041 7.95442C8.06403 8.19226 7.97481 8.47551 7.97486 8.76578V15.5727C7.97476 15.8266 7.9064 16.0757 7.77694 16.2941C7.64748 16.5124 7.46169 16.692 7.23901 16.8139V16.8139Z" fill="url(#paint3_linear)"/>
<path d="M13.9372 17.899V20.1135C13.9375 20.3529 13.8907 20.5901 13.7992 20.8114C13.7078 21.0327 13.5735 21.2337 13.4042 21.403C13.2349 21.5723 13.0339 21.7066 12.8126 21.798C12.5913 21.8895 12.3541 21.9363 12.1147 21.936V21.936C11.8029 21.936 11.4963 21.8559 11.2243 21.7034L7.34336 19.5287C7.17544 19.4345 7.04348 19.2873 6.96815 19.1101C6.89281 18.9329 6.87835 18.7357 6.92702 18.5494C6.9757 18.3631 7.08476 18.1982 7.23714 18.0806C7.38952 17.9629 7.57663 17.899 7.76917 17.899H13.9372Z" fill="url(#paint4_linear)"/>
<defs>
<linearGradient id="paint0_linear" x1="16.2351" y1="0.875657" x2="16.2351" y2="20.4757" gradientUnits="userSpaceOnUse">
<stop stop-color="#FFB900"/>
<stop offset="0.166" stop-color="#EF8400"/>
<stop offset="0.313" stop-color="#E25C01"/>
<stop offset="0.429" stop-color="#DB4401"/>
<stop offset="0.5" stop-color="#D83B01"/>
</linearGradient>
<linearGradient id="paint1_linear" x1="12.7824" y1="1.69798" x2="2.28982" y2="16.6832" gradientUnits="userSpaceOnUse">
<stop stop-color="#800600"/>
<stop offset="0.6" stop-color="#C72127"/>
<stop offset="0.728" stop-color="#C13959"/>
<stop offset="0.847" stop-color="#BC4B81"/>
<stop offset="0.942" stop-color="#B95799"/>
<stop offset="1" stop-color="#B85BA2"/>
</linearGradient>
<linearGradient id="paint2_linear" x1="7.46211" y1="19.9177" x2="20.3928" y2="19.9177" gradientUnits="userSpaceOnUse">
<stop stop-color="#F32B44"/>
<stop offset="0.6" stop-color="#A4070A"/>
</linearGradient>
<linearGradient id="paint3_linear" x1="12.9971" y1="1.39142" x2="10.7751" y2="4.56485" gradientUnits="userSpaceOnUse">
<stop stop-opacity="0.4"/>
<stop offset="1" stop-opacity="0"/>
</linearGradient>
<linearGradient id="paint4_linear" x1="16.26" y1="20.2039" x2="10.4601" y2="19.6966" gradientUnits="userSpaceOnUse">
<stop stop-opacity="0.4"/>
<stop offset="1" stop-opacity="0"/>
</linearGradient>
</defs>
</svg>
