<svg width="24" height="24" viewBox="0 0 24 24" fill="none" xmlns="http://www.w3.org/2000/svg">
<rect width="24" height="24" rx="2" fill="#00A1E0"/>
<path d="M10.3228 6.41877C10.9678 5.7947 11.8658 5.40764 12.859 5.40764C14.1792 5.40764 15.3311 6.09123 15.9445 7.10604C16.4775 6.88489 17.0675 6.76187 17.6883 6.76187C20.0695 6.76187 22 8.57008 22 10.8005C22 13.0312 20.0695 14.8394 17.6883 14.8394C17.4031 14.8395 17.1186 14.8132 16.839 14.7608C16.2989 15.6555 15.2695 16.26 14.088 16.26C13.5935 16.26 13.1256 16.1539 12.7091 15.9653C12.1615 17.1613 10.8858 17.9999 9.39886 17.9999C7.85043 17.9999 6.53077 17.0902 6.02422 15.8142C5.80286 15.8579 5.57351 15.8806 5.33818 15.8806C3.49459 15.8807 2 14.4785 2 12.7487C2 11.5894 2.67151 10.5772 3.66923 10.0357C3.46382 9.59681 3.34957 9.11241 3.34957 8.60313C3.34957 6.61372 5.08889 5.00104 7.23419 5.00104C8.49373 5.00104 9.61311 5.55712 10.3228 6.41877Z" fill="white"/>
</svg>
