<svg width="58" height="40" viewBox="0 0 58 40" fill="none" xmlns="http://www.w3.org/2000/svg">
<path d="M23.7814 4.36262C25.6245 2.44225 28.1905 1.25119 31.0283 1.25119C34.8007 1.25119 38.0919 3.35472 39.8447 6.47748C41.3678 5.79697 43.0538 5.41839 44.8276 5.41839C51.6315 5.41839 57.1477 10.9826 57.1477 17.846C57.1477 24.7102 51.6315 30.2744 44.8276 30.2744C44.0126 30.2748 43.1997 30.1938 42.4008 30.0326C40.8574 32.7857 37.9161 34.6459 34.5402 34.6459C33.1269 34.6459 31.7902 34.3195 30.6001 33.739C29.0354 37.4194 25.39 40 21.1414 40C16.7169 40 12.9462 37.2004 11.4988 33.2742C10.8662 33.4085 10.2109 33.4785 9.53846 33.4785C4.27063 33.4786 0 29.164 0 23.8408C0 20.2736 1.91877 17.1589 4.76963 15.4925C4.18271 14.142 3.85624 12.6514 3.85624 11.0843C3.85624 4.96252 8.82614 0 14.9561 0C18.5551 0 21.7536 1.71117 23.7814 4.36262Z" fill="#00A1E0"/>
<path d="M8.27731 20.7432C8.2415 20.8368 8.29036 20.8564 8.30174 20.8726C8.40917 20.9507 8.51832 21.007 8.62821 21.0696C9.21107 21.3789 9.76144 21.4693 10.337 21.4693C11.5092 21.4693 12.237 20.8457 12.237 19.8419V19.8224C12.237 18.8943 11.4156 18.5574 10.6447 18.3139L10.5446 18.2814C9.96331 18.0925 9.46185 17.9298 9.46185 17.5471V17.5268C9.46185 17.1995 9.75492 16.9585 10.2092 16.9585C10.7139 16.9585 11.3131 17.1263 11.6989 17.3395C11.6989 17.3395 11.8121 17.4128 11.8536 17.3029C11.8764 17.2443 12.0718 16.7184 12.0921 16.6614C12.1141 16.5995 12.075 16.5539 12.0352 16.5295C11.5947 16.2617 10.9858 16.0785 10.3557 16.0785L10.2385 16.0793C9.16559 16.0793 8.41666 16.7273 8.41666 17.6561V17.6757C8.41666 18.655 9.24293 18.9725 10.0171 19.1939L10.1417 19.2322C10.7058 19.4056 11.1918 19.5545 11.1918 19.9518V19.9714C11.1918 20.3345 10.876 20.6047 10.3664 20.6047C10.1686 20.6047 9.53765 20.6007 8.85628 20.17C8.77402 20.1219 8.72603 20.087 8.66253 20.0487C8.62918 20.0275 8.54532 19.9908 8.50871 20.1016L8.27731 20.7432ZM25.4387 20.7432C25.4029 20.8368 25.4517 20.8564 25.4631 20.8726C25.5705 20.9507 25.6797 21.007 25.7895 21.0696C26.3724 21.3789 26.9228 21.4693 27.4983 21.4693C28.6705 21.4693 29.3983 20.8457 29.3983 19.8419V19.8224C29.3983 18.8943 28.5769 18.5574 27.806 18.3139L27.7059 18.2814C27.1246 18.0925 26.6231 17.9298 26.6231 17.5471V17.5268C26.6231 17.1995 26.9162 16.9585 27.3704 16.9585C27.8751 16.9585 28.4743 17.1263 28.8602 17.3395C28.8602 17.3395 28.9734 17.4128 29.0148 17.3029C29.0376 17.2443 29.233 16.7184 29.2534 16.6614C29.2754 16.5995 29.2363 16.5539 29.1964 16.5295C28.756 16.2617 28.147 16.0785 27.517 16.0785L27.3997 16.0793C26.3268 16.0793 25.5778 16.7273 25.5778 17.6561V17.6757C25.5778 18.655 26.4041 18.9725 27.1783 19.1939L27.3029 19.2322C27.867 19.4056 28.3539 19.5545 28.3539 19.9518V19.9714C28.3539 20.3345 28.0372 20.6047 27.5276 20.6047C27.3298 20.6047 26.6989 20.6007 26.0175 20.17C25.9353 20.1219 25.8865 20.0886 25.8246 20.0487C25.8034 20.0348 25.7041 19.9966 25.6699 20.1016L25.4387 20.7432ZM37.1543 18.777C37.1543 19.3444 37.0485 19.7913 36.8401 20.1072C36.6341 20.4198 36.3223 20.5721 35.8877 20.5721C35.4522 20.5721 35.142 20.4206 34.9393 20.1072C34.7341 19.7922 34.6299 19.3444 34.6299 18.777C34.6299 18.2105 34.7341 17.7643 34.9393 17.4517C35.142 17.1424 35.4522 16.9918 35.8877 16.9918C36.3224 16.9918 36.6341 17.1424 36.8409 17.4517C37.0485 17.7643 37.1543 18.2104 37.1543 18.777ZM38.1328 17.7253C38.0367 17.4004 37.887 17.1138 37.6875 16.8754C37.4881 16.636 37.2357 16.4439 36.9361 16.3039C36.6373 16.1647 36.2841 16.0939 35.8877 16.0939C35.4904 16.0939 35.1371 16.1647 34.8383 16.3039C34.5387 16.4439 34.2864 16.6361 34.0861 16.8754C33.8875 17.1147 33.7377 17.4012 33.6408 17.7253C33.5456 18.0484 33.4975 18.4017 33.4975 18.777C33.4975 19.1523 33.5456 19.5064 33.6408 19.8288C33.7377 20.1528 33.8867 20.4394 34.087 20.6787C34.2864 20.918 34.5396 21.1093 34.8383 21.2452C35.1379 21.3812 35.4904 21.4504 35.8877 21.4504C36.2841 21.4504 36.6366 21.3812 36.9362 21.2452C37.2349 21.1093 37.4881 20.918 37.6876 20.6787C37.887 20.4401 38.0368 20.1536 38.1329 19.8288C38.229 19.5056 38.277 19.1515 38.277 18.777C38.277 18.4026 38.2289 18.0484 38.1328 17.7253ZM46.1682 20.4205C46.1357 20.3253 46.0437 20.3611 46.0437 20.3611C45.9012 20.4157 45.7498 20.4661 45.5886 20.4913C45.425 20.5165 45.2451 20.5296 45.0521 20.5296C44.5784 20.5296 44.2023 20.3888 43.9328 20.1104C43.6625 19.8319 43.5111 19.3818 43.5127 18.7728C43.5144 18.2185 43.6478 17.8016 43.888 17.4842C44.1266 17.1684 44.4897 17.0063 44.974 17.0063C45.3778 17.0063 45.6855 17.0527 46.0078 17.1545C46.0078 17.1545 46.0852 17.1878 46.1218 17.0869C46.2072 16.8492 46.2707 16.679 46.3619 16.4177C46.388 16.3436 46.3245 16.3119 46.3017 16.3029C46.1747 16.2533 45.8751 16.1727 45.6488 16.1385C45.4371 16.106 45.1897 16.0888 44.9145 16.0888C44.5033 16.0888 44.1371 16.1589 43.8237 16.2989C43.5111 16.4381 43.2457 16.6302 43.0357 16.8696C42.8256 17.1089 42.6661 17.3954 42.5595 17.7194C42.4536 18.0426 42.3999 18.3975 42.3999 18.7728C42.3999 19.5845 42.6189 20.2406 43.0512 20.7209C43.4842 21.2029 44.1347 21.4479 44.983 21.4479C45.4845 21.4479 45.999 21.3461 46.3686 21.2004C46.3686 21.2004 46.4394 21.1662 46.4084 21.084L46.1682 20.4205ZM47.8803 18.2335C47.9267 17.9184 48.0138 17.6563 48.1481 17.452C48.3509 17.1418 48.6602 16.9717 49.0949 16.9717C49.5297 16.9717 49.817 17.1426 50.023 17.452C50.1598 17.6563 50.2192 17.9299 50.2428 18.2335H47.8803ZM51.1749 17.5407C51.0919 17.2272 50.8859 16.9105 50.7507 16.7656C50.5374 16.5361 50.3291 16.3757 50.1223 16.2861C49.852 16.1705 49.528 16.0941 49.1731 16.0941C48.7596 16.0941 48.3842 16.1633 48.0798 16.3065C47.7745 16.4498 47.5182 16.6452 47.317 16.8886C47.1159 17.1312 46.9645 17.4202 46.8684 17.7482C46.7716 18.0747 46.7227 18.4305 46.7227 18.8057C46.7227 19.1875 46.7732 19.5433 46.8733 19.8632C46.9743 20.1856 47.1354 20.4697 47.3536 20.7049C47.5709 20.9418 47.851 21.1275 48.1864 21.2568C48.5194 21.3854 48.924 21.4522 49.3888 21.4513C50.3454 21.4481 50.8492 21.2348 51.0568 21.12C51.0935 21.0997 51.1285 21.0639 51.0845 20.9613L50.868 20.3548C50.8355 20.2645 50.7434 20.2978 50.7434 20.2978C50.5065 20.3857 50.1695 20.5437 49.3839 20.5421C48.8702 20.5413 48.4892 20.3899 48.2507 20.1529C48.0056 19.9104 47.886 19.5537 47.8648 19.0507L51.1773 19.0539C51.1773 19.0539 51.2643 19.0523 51.2734 18.9676C51.2766 18.9319 51.3874 18.2872 51.1749 17.5407ZM21.3524 18.2335C21.3996 17.9184 21.4859 17.6563 21.6202 17.452C21.8229 17.1418 22.1323 16.9717 22.567 16.9717C23.0017 16.9717 23.2891 17.1426 23.4958 17.452C23.6317 17.6563 23.6912 17.9299 23.7148 18.2335H21.3524ZM24.6461 17.5407C24.5631 17.2272 24.358 16.9105 24.2228 16.7656C24.0095 16.5361 23.8011 16.3757 23.5944 16.2861C23.3241 16.1705 23.0001 16.0941 22.6452 16.0941C22.2324 16.0941 21.8563 16.1633 21.5519 16.3065C21.2466 16.4498 20.9902 16.6452 20.7891 16.8886C20.588 17.1312 20.4366 17.4202 20.3406 17.7482C20.2445 18.0747 20.1949 18.4305 20.1949 18.8057C20.1949 19.1875 20.2453 19.5433 20.3455 19.8632C20.4465 20.1856 20.6077 20.4697 20.8258 20.7049C21.0432 20.9418 21.3232 21.1275 21.6586 21.2568C21.9916 21.3854 22.3961 21.4522 22.861 21.4513C23.8175 21.4481 24.3214 21.2348 24.529 21.12C24.5657 21.0997 24.6006 21.0639 24.5567 20.9613L24.341 20.3548C24.3076 20.2645 24.2156 20.2978 24.2156 20.2978C23.9787 20.3857 23.6425 20.5437 22.8553 20.5421C22.3424 20.5413 21.9615 20.3899 21.7229 20.1529C21.4779 19.9104 21.3582 19.5537 21.337 19.0507L24.6495 19.0539C24.6495 19.0539 24.7365 19.0523 24.7455 18.9676C24.7487 18.9319 24.8594 18.2872 24.6461 17.5407ZM14.1926 20.4024C14.0631 20.299 14.0452 20.2729 14.0013 20.2062C13.9361 20.1044 13.9028 19.9595 13.9028 19.7755C13.9028 19.4841 13.9988 19.2749 14.1983 19.134C14.1959 19.1349 14.4832 18.8858 15.1589 18.8947C15.6335 18.9012 16.0576 18.9712 16.0576 18.9712V20.4773C16.0576 20.4773 15.6375 20.5676 15.1638 20.5961C14.4897 20.6368 14.1901 20.4016 14.1926 20.4024ZM15.5105 18.0749C15.3762 18.0652 15.202 18.0594 14.9936 18.0594C14.7095 18.0594 14.4351 18.0953 14.1779 18.1645C13.919 18.2336 13.6862 18.342 13.4859 18.4852C13.286 18.6279 13.1216 18.8148 13.0056 19.0314C12.8884 19.2496 12.829 19.5068 12.829 19.795C12.829 20.0881 12.8794 20.3429 12.9804 20.5513C13.0814 20.7605 13.2271 20.9347 13.4127 21.0691C13.5966 21.2034 13.8238 21.3019 14.0875 21.3613C14.3472 21.4207 14.6419 21.4508 14.9643 21.4508C15.3037 21.4508 15.6424 21.4232 15.9705 21.367C16.2953 21.3116 16.6942 21.231 16.8048 21.2058C16.8825 21.1871 16.9598 21.1673 17.0369 21.1464C17.1191 21.1261 17.1126 21.0381 17.1126 21.0381L17.1109 18.009C17.1109 17.3447 16.9335 16.8521 16.5843 16.5469C16.2366 16.2424 15.7246 16.0885 15.0628 16.0885C14.8145 16.0885 14.4148 16.1228 14.1754 16.1708C14.1754 16.1708 13.4517 16.3108 13.1537 16.5436C13.1537 16.5436 13.0886 16.5844 13.1245 16.6755L13.3589 17.3057C13.3882 17.3871 13.4672 17.3594 13.4672 17.3594C13.4672 17.3594 13.4925 17.3496 13.5218 17.3325C14.1592 16.9857 14.9651 16.9963 14.9651 16.9963C15.3234 16.9963 15.5985 17.0679 15.7841 17.2103C15.9648 17.3487 16.0568 17.5579 16.0568 17.9991V18.1392C15.7718 18.0985 15.5105 18.0749 15.5105 18.0749ZM42.2269 16.3682C42.252 16.2932 42.1992 16.2574 42.1772 16.2493C42.121 16.2273 41.8394 16.1679 41.622 16.1541C41.206 16.1288 40.9749 16.1989 40.768 16.2916C40.5629 16.3844 40.335 16.5342 40.2079 16.7044V16.3014C40.2079 16.2452 40.1681 16.2005 40.1127 16.2005H39.2636C39.2083 16.2005 39.1684 16.2452 39.1684 16.3014V21.242C39.1684 21.2974 39.214 21.3429 39.2693 21.3429H40.1396C40.1662 21.3428 40.1917 21.3321 40.2105 21.3132C40.2293 21.2942 40.2398 21.2686 40.2397 21.242V18.7738C40.2397 18.4424 40.2764 18.112 40.3496 17.9044C40.4213 17.6992 40.519 17.5348 40.6394 17.4167C40.7607 17.2995 40.8983 17.2173 41.0489 17.1709C41.2027 17.1236 41.3729 17.1082 41.4934 17.1082C41.6668 17.1082 41.8573 17.1529 41.8573 17.1529C41.9207 17.1602 41.9566 17.1212 41.9777 17.0634C42.0347 16.912 42.1959 16.4585 42.2269 16.3682Z" fill="white"/>
<path d="M34.0585 14.0784C33.9527 14.0459 33.8566 14.0238 33.7312 14.0003C33.6042 13.9775 33.4528 13.9661 33.2811 13.9661C32.6818 13.9661 32.2097 14.1354 31.8784 14.4691C31.5487 14.8013 31.3248 15.3068 31.2124 15.972L31.1717 16.1958H30.4196C30.4196 16.1958 30.3284 16.1925 30.3088 16.2919L30.1859 16.9814C30.177 17.0465 30.2055 17.088 30.2934 17.088H31.0252L30.2828 21.2333C30.225 21.567 30.1582 21.8414 30.0841 22.0497C30.0116 22.2549 29.9409 22.4088 29.8529 22.5211C29.7683 22.6286 29.6885 22.7083 29.5501 22.7547C29.4361 22.793 29.3042 22.8109 29.1601 22.8109C29.0803 22.8109 28.9738 22.7978 28.8948 22.7816C28.8166 22.7661 28.7751 22.749 28.7157 22.7237C28.7157 22.7237 28.6302 22.6912 28.596 22.7767C28.5691 22.8475 28.3737 23.3839 28.3501 23.4499C28.3274 23.5158 28.3599 23.5672 28.4014 23.5826C28.4991 23.6168 28.5715 23.6396 28.7042 23.6713C28.8882 23.7145 29.0437 23.7169 29.1894 23.7169C29.4938 23.7169 29.7722 23.6738 30.0027 23.5908C30.2339 23.5069 30.4357 23.3612 30.6148 23.1642C30.8078 22.9509 30.929 22.7278 31.0447 22.4226C31.1595 22.1214 31.258 21.7469 31.3361 21.3106L32.0826 17.088H33.1735C33.1735 17.088 33.2654 17.0913 33.2842 16.9912L33.4079 16.3025C33.4161 16.2366 33.3884 16.1959 33.2996 16.1959H32.2405C32.2462 16.1723 32.2942 15.7994 32.4156 15.4486C32.4677 15.2996 32.5653 15.1783 32.6476 15.0952C32.729 15.0138 32.8226 14.9561 32.9253 14.9226C33.0302 14.8884 33.15 14.8722 33.281 14.8722C33.3803 14.8722 33.4788 14.8836 33.5528 14.899C33.6554 14.921 33.6953 14.9324 33.7222 14.9406C33.8305 14.9732 33.8451 14.9414 33.8663 14.8894L34.1195 14.1941C34.1455 14.1191 34.0813 14.0873 34.0585 14.0784ZM19.2607 21.2422C19.2607 21.2976 19.2208 21.3424 19.1655 21.3424H18.2871C18.2317 21.3424 18.1926 21.2976 18.1926 21.2422V14.1729C18.1926 14.1175 18.2317 14.0728 18.2871 14.0728H19.1655C19.2208 14.0728 19.2607 14.1175 19.2607 14.1729V21.2422Z" fill="white"/>
</svg>
