<svg width="24" height="24" viewBox="0 0 24 24" fill="none" xmlns="http://www.w3.org/2000/svg">
<path fill-rule="evenodd" clip-rule="evenodd" d="M12.0616 2.99994C6.57863 2.96705 2.04924 7.45534 1.99992 12.9547C1.97526 15.8647 3.19186 18.4952 5.14007 20.3448C5.84702 21.0188 6.94854 21.0846 7.72125 20.4845C8.85565 19.5967 10.3189 19.0624 12.004 19.0624C13.681 19.0624 15.1442 19.5885 16.2868 20.4845C17.0677 21.0928 18.1693 21.0106 18.8844 20.3366C20.808 18.5034 22.0081 15.914 22.0081 13.0451C21.9999 7.51288 17.5527 3.03282 12.0616 2.99994ZM12.004 18.0595C9.0365 18.0595 7.00608 15.8236 7.00608 13.0616C7.00608 10.2996 9.0365 8.02254 12.004 8.02254C14.9716 8.02254 17.002 10.2913 17.002 13.0616C17.002 15.8236 14.9716 18.0595 12.004 18.0595Z" fill="#83B6A2"/>
</svg>
