<svg width="24" height="24" viewBox="0 0 24 24" fill="none" xmlns="http://www.w3.org/2000/svg">
<path d="M6.20195 14.6385C6.20195 15.7948 5.25733 16.7394 4.10098 16.7394C2.94463 16.7394 2 15.7948 2 14.6385C2 13.4821 2.94463 12.5375 4.10098 12.5375H6.20195V14.6385Z" fill="#E01E5A"/>
<path d="M7.26059 14.6384C7.26059 13.4821 8.20522 12.5375 9.36157 12.5375C10.5179 12.5375 11.4625 13.4821 11.4625 14.6384V19.899C11.4625 21.0554 10.5179 22 9.36157 22C8.20522 22 7.26059 21.0554 7.26059 19.899V14.6384Z" fill="#E01E5A"/>
<path d="M9.36157 6.20195C8.20522 6.20195 7.26059 5.25733 7.26059 4.10098C7.26059 2.94463 8.20522 2 9.36157 2C10.5179 2 11.4625 2.94463 11.4625 4.10098V6.20195H9.36157Z" fill="#36C5F0"/>
<path d="M9.36156 7.26059C10.5179 7.26059 11.4625 8.20522 11.4625 9.36157C11.4625 10.5179 10.5179 11.4625 9.36156 11.4625H4.10098C2.94463 11.4625 2 10.5179 2 9.36157C2 8.20522 2.94463 7.26059 4.10098 7.26059H9.36156Z" fill="#36C5F0"/>
<path d="M17.798 9.36157C17.798 8.20522 18.7427 7.26059 19.899 7.26059C21.0554 7.26059 22 8.20522 22 9.36157C22 10.5179 21.0554 11.4625 19.899 11.4625H17.798V9.36157Z" fill="#2EB67D"/>
<path d="M16.7394 9.36156C16.7394 10.5179 15.7948 11.4625 14.6384 11.4625C13.4821 11.4625 12.5374 10.5179 12.5374 9.36156V4.10098C12.5374 2.94463 13.4821 2 14.6384 2C15.7948 2 16.7394 2.94463 16.7394 4.10098V9.36156Z" fill="#2EB67D"/>
<path d="M14.6384 17.7981C15.7947 17.7981 16.7394 18.7427 16.7394 19.899C16.7394 21.0554 15.7947 22 14.6384 22C13.482 22 12.5374 21.0554 12.5374 19.899V17.7981H14.6384Z" fill="#ECB22E"/>
<path d="M14.6384 16.7394C13.482 16.7394 12.5374 15.7948 12.5374 14.6385C12.5374 13.4821 13.482 12.5375 14.6384 12.5375H19.899C21.0553 12.5375 21.9999 13.4821 21.9999 14.6385C21.9999 15.7948 21.0553 16.7394 19.899 16.7394H14.6384Z" fill="#ECB22E"/>
</svg>
