<svg fill="none" height="24" viewBox="0 0 24 24" width="24" xmlns="http://www.w3.org/2000/svg"><path d="m19.8 0h-15.6c-2.3196 0-4.2 1.8804-4.2 4.2v15.6c0 2.3196 1.8804 4.2 4.2 4.2h15.6c2.3196 0 4.2-1.8804 4.2-4.2v-15.6c0-2.3196-1.8804-4.2-4.2-4.2z" fill="#fffc40"/><path d="m19.3889 15.9912c-2.6669-1.2909-3.0919-3.2841-3.1108-3.432-.0229-.1791-.0489-.3199.1487-.502.1905-.176 1.0357-.6992 1.2703-.8629.3876-.271.5583-.5416.4325-.8742-.088-.2302-.3023-.3168-.528-.3168-.0712.0002-.1422.0082-.2117.0237-.4259.0924-.8395.3058-1.0788.3635-.0288.0074-.0583.0114-.088.0118-.1276 0-.176-.0567-.1637-.2103.0299-.46549.0933-1.37409.0198-2.22285-.1008-1.16776-.4774-1.74636-.924-2.25808-.2161-.24816-1.2193-1.31428-3.1553-1.31428s-2.93783 1.06612-3.15255 1.3112c-.44792.51172-.82412 1.09032-.924 2.25808-.07348.84876-.00748 1.75692.0198 2.22283.0088.1461-.03608.2104-.16368.2104-.0297-.0005-.05923-.0045-.088-.0119-.23892-.0577-.65252-.2711-1.07844-.3635-.06948-.0155-.14044-.0235-.21164-.0237-.2266 0-.44.088-.528.3168-.12584.3326.044.6032.43296.8743.23452.1636 1.07976.6864 1.27028.8628.19712.1822.1716.323.14872.5021-.01892.15-.4444 2.1432-3.1108 3.4319-.1562.0757-.42196.2359.04664.4946.73568.4066 1.2254.363 1.606.6081.32296.2081.132.6569.36696.8188.28864.1993 1.1418-.0141 2.244.3498.924.3045 1.48545 1.1647 3.12395 1.1647 1.6386 0 2.2163-.8642 3.124-1.1647 1.1-.3639 1.955-.1505 2.244-.3498.2346-.1619.044-.6107.367-.8188.3806-.2451.8699-.2015 1.606-.6081.4677-.2556.202-.4158.0458-.4915z" fill="#fff"/><path d="m20.5492 15.8394c-.1197-.3256-.3476-.4998-.6072-.6441-.0488-.0286-.0937-.0515-.132-.0691-.0774-.04-.1566-.0788-.2354-.1197-.8092-.429-1.441-.9702-1.8792-1.6117-.1245-.1806-.2324-.372-.3226-.572-.0374-.1069-.0356-.1676-.0088-.2231.0267-.0427.0619-.0794.1034-.1078.1391-.0919.2825-.1852.3798-.2481.1733-.1122.3106-.2011.399-.264.3322-.2324.5646-.4792.7098-.7551.1013-.1906.1603-.4008.1732-.6162.0128-.2155-.0209-.4312-.0989-.6325-.22-.57904-.7669-.93852-1.4295-.93852-.1398-.00013-.2792.01462-.4158.044-.0366.00792-.0731.01628-.1087.02552.0061-.396-.0027-.814-.0379-1.2254-.1249-1.44628-.6314-2.2044-1.1594-2.80896-.3381-.37884-.7363-.69935-1.1787-.94864-.8013-.4576-1.7099-.68992-2.7003-.68992s-1.8946.23232-2.69676.68992c-.44347.24936-.84253.57052-1.18096.9504-.528.60456-1.03444 1.364-1.1594 2.80896-.0352.4114-.044.8316-.03828 1.2254-.03564-.00924-.07172-.0176-.10824-.02552-.13665-.02938-.27603-.04413-.4158-.044-.66308 0-1.21088.35948-1.43.93852-.07832.20134-.11238.41724-.09985.63294s.07134.4262.17245.6171c.14564.2759.37796.5227.71016.755.088.0616.22572.1505.39908.264.09372.0608.23056.1496.36476.2385.04695.0304.08686.0704.11704.1175.02816.0576.02904.1197-.01276.2341-.08891.1957-.19507.3832-.31724.5601-.42856.627-1.04192 1.1585-1.82512 1.584-.41492.22-.84612.367-1.02828.862-.13728.3735-.04752.7986.3014 1.1567.12806.1337.27658.2461.44.3331.34003.1869.70159.3315 1.07668.4308.0774.0199.15089.0528.21736.0972.12716.1113.10912.279.27852.5245.08503.1269.19308.2367.31856.3238.35552.2455.75504.2609 1.17832.2772.38236.0145.81576.0313 1.31076.1945.20504.0678.418.1989.66484.352.59268.3643 1.40406.8628 2.76186.8628 1.3579 0 2.1749-.5011 2.772-.8668.2451-.1504.4567-.2802.6561-.3462.495-.1637.9284-.18 1.3107-.1945.4233-.0163.8228-.0317 1.1783-.2772.1486-.1036.2725-.2389.3626-.396.1219-.2073.1188-.352.2332-.4532.0624-.0423.1314-.0738.2042-.0933.3802-.0995.7467-.2456 1.0912-.4347.1736-.0932.3299-.2155.462-.3617l.0044-.0053c.3273-.3502.4096-.7629.2754-1.1273zm-1.2069.6486c-.7361.4066-1.2254.363-1.606.6081-.3234.2081-.132.6569-.367.8188-.2886.1993-1.1418-.0141-2.244.3498-.909.3005-1.4889 1.1647-3.124 1.1647-1.635 0-2.2013-.8624-3.1253-1.1669-1.1-.3639-1.95492-.1505-2.244-.3498-.23452-.1619-.044-.6107-.36696-.8188-.38104-.2451-.87032-.2015-1.606-.6059-.4686-.2587-.20284-.4189-.04664-.4946 2.6664-1.2909 3.09188-3.2841 3.1108-3.432.02288-.179.0484-.3198-.14872-.502-.19052-.176-1.03576-.6992-1.27028-.8628-.38808-.2711-.5588-.5417-.43296-.8743.088-.2301.30272-.3168.528-.3168.0712.0002.14216.0082.21164.0237.42592.0924.83952.3058 1.07844.3635.02877.0074.0583.0114.088.0119.1276 0 .17248-.0643.16368-.2104-.02728-.46592-.09328-1.37408-.0198-2.22284.10076-1.16776.47696-1.74636.924-2.25808.21472-.24596 1.2236-1.31208 3.153-1.31208s2.941 1.06172 3.1557 1.3068c.4475.51172.8241 1.09032.924 2.25808.0735.84876.0101 1.75736-.0198 2.22292-.0101.1535.0361.2103.1637.2103.0297-.0005.0592-.0045.088-.0119.2394-.0576.653-.271 1.0789-.3634.0695-.0156.1404-.0236.2116-.0238.2266 0 .44.088.528.3168.1259.3326-.044.6032-.4325.8743-.2345.1637-1.0798.6864-1.2703.8628-.1975.1822-.1716.323-.1487.5021.0189.15.444 2.1432 3.1108 3.432.1575.0787.4233.2389-.0453.4998z" fill="#000"/></svg>