<svg fill="none" height="24" viewBox="0 0 24 24" width="24" xmlns="http://www.w3.org/2000/svg" xmlns:xlink="http://www.w3.org/1999/xlink"><linearGradient id="a" gradientUnits="userSpaceOnUse" x1="12" x2="12" y1="2" y2="21.8517"><stop offset="0" stop-color="#2aabee"/><stop offset="1" stop-color="#229ed9"/></linearGradient><path d="m12 22c5.5228 0 10-4.4772 10-10 0-5.52285-4.4772-10-10-10-5.52285 0-10 4.47715-10 10 0 5.5228 4.47715 10 10 10z" fill="url(#a)"/><path clip-rule="evenodd" d="m6.5266 11.8945c2.9152-1.2701 4.8591-2.10748 5.8318-2.51204 2.7771-1.15509 3.3541-1.35574 3.7303-1.36237.0827-.00146.2676.01904.3875.11626.1011.08209.129.19299.1423.27082s.0299.25513.0167.39366c-.1505 1.58127-.8017 5.41847-1.133 7.18947-.1401.7494-.4161 1.0007-.6834 1.0253-.5807.0534-1.0216-.3838-1.5841-.7525-.8801-.577-1.3774-.9361-2.2317-1.4991-.9873-.6506-.3472-1.0082.2154-1.5926.1473-.153 2.7059-2.4803 2.7555-2.6914.0061-.0264.0119-.1248-.0466-.1768-.0584-.0519-.1447-.0342-.207-.02-.0883.02-1.4943.9493-4.21808 2.7879-.39909.2741-.76058.4076-1.08446.4006-.35705-.0077-1.04388-.2019-1.55446-.3678-.62625-.2036-1.12398-.3112-1.08064-.657.02258-.18.27055-.3642.74394-.5524z" fill="#fff" fill-rule="evenodd"/></svg>