<svg fill="none" height="24" viewBox="0 0 24 24" width="24" xmlns="http://www.w3.org/2000/svg"><g clip-rule="evenodd" fill-rule="evenodd"><path d="m2 17c0 2.7612 2.23875 5 5 5h10c2.7612 0 5-2.2388 5-5v-10c0-2.76167-2.2388-5-5-5h-10c-2.76125 0-5 2.23833-5 5z" fill="#000"/><path d="m14.765 4.62002c-.0794-.31155-.1195-.63182-.1192-.95333h-2.9041v10.88871c0 1.2559-.8567 2.2738-2.1092 2.2738s-2.26792-1.0179-2.26792-2.2733c0-1.2559 1.01542-2.2738 2.26792-2.2738.25 0 .33208.0408.5571.1158v-2.93788c-.23418-.03292-.31418-.05-.5571-.05-2.83458.00042-5.1325 2.30458-5.1325 5.14628 0 2.8416 2.29792 5.1454 5.1325 5.1454 2.795 0 5.1487-2.2396 5.2125-5.0258v-5.57213c1.0533.72208 2.2479 1.14413 3.6204 1.14413v-2.75205c-1.7812 0-3.2775-1.22208-3.7-2.87583z" fill="#25f4ee"/><path d="m15.8002 5.6542c-.0795-.31153-.1197-.63181-.1196-.95333h-2.9046v10.88913c0 1.2559-.8562 2.2734-2.1087 2.2734-1.25251 0-2.26793-1.0175-2.26793-2.2734-.00066-.6022.23789-1.18.6632-1.6063.4253-.4263 1.00253-.6662 1.60473-.667.25 0 .3321.0404.5571.1154v-2.9375c-.2342-.0333-.3142-.05-.5571-.05-2.83459 0-5.13251 2.3038-5.13251 5.1454 0 2.8417 2.29792 5.1455 5.13211 5.1455 2.7946 0 5.1487-2.2392 5.2125-5.0259v-5.5717c1.0533.7221 2.2479 1.1446 3.6204 1.1446v-2.75247c-1.7813 0-3.2775-1.22208-3.7-2.87541z" fill="#fff"/><path d="m8.63343 16.5971c-.15445-.313-.23458-.6575-.23416-1.0066 0-1.2559 1.01541-2.2738 2.26793-2.2738.2179 0 .3079.0308.4762.0883l.0809.0275v-2.9379l-.0875-.0125c-.1713-.0246-.2596-.0375-.4696-.0375-.1608 0-.3204.0075-.4775.0221v1.9313l-.0808-.0275c-.16838-.0575-.25838-.0884-.4763-.0884-1.2525 0-2.26792 1.0179-2.26792 2.2738-.00024.4248.11848.8412.34271 1.2021.22424.3608.54503.6516.92604.8395zm-2.07166 2.0821c.47704.6386 1.09659 1.1571 1.80932 1.5141.71274.3569 1.49896.5426 2.29611.5422 2.7946 0 5.1487-2.2392 5.2125-5.0255v-5.5716c1.0533.7221 2.2479 1.1441 3.6204 1.1441v-2.75204c-.3497.00006-.6978-.04775-1.0346-.14208v1.85962c-1.3725 0-2.5671-.42212-3.6208-1.14421v5.57171c-.0633 2.7866-2.4175 5.0258-5.2121 5.0258-1.15125 0-2.21417-.38-3.07083-1.0221zm9.77293-11.83374c-.7538-.50864-1.3024-1.26855-1.5479-2.14417h.8937c-.0016.76411.2263 1.5111.6542 2.14417z" fill="#fe2c55"/></g></svg>