<svg width="24" height="24" viewBox="0 0 24 24" fill="none" xmlns="http://www.w3.org/2000/svg">
<path d="M14.7147 13.6028C14.4322 13.3395 14.0212 13.2207 13.6423 13.2207H11.947C11.7801 13.2207 11.6324 13.0955 11.6324 12.9382C11.6324 12.8065 11.7223 12.6974 11.841 12.6653C11.841 12.6653 11.87 12.6589 11.9021 12.6492C12.2071 12.7937 12.5474 12.8611 12.891 12.8611C13.4144 12.8611 13.9377 12.707 14.323 12.3474C14.6954 11.9974 14.8721 11.5094 14.8721 11.0085C14.8721 10.5076 14.6987 10.0196 14.323 9.66961C14.2139 9.56686 14.0918 9.48018 13.9602 9.40954C14.3198 9.49302 14.6923 9.39027 14.9491 8.94718L14.2267 8.43025L13.6263 9.26826C13.3919 9.1912 13.1414 9.15588 12.891 9.15588C12.3676 9.15588 11.8443 9.31 11.459 9.66961C11.0865 10.0196 10.9099 10.5076 10.9099 11.0085C10.9099 11.5094 11.0833 11.9974 11.459 12.3474C11.4911 12.3763 11.5264 12.4052 11.5585 12.4341C11.5232 12.4533 11.4879 12.4726 11.4879 12.4726C11.3498 12.5497 11.1796 12.6749 11.0127 12.8515C10.7751 13.1051 10.5375 13.4808 10.5375 13.9849C10.5375 13.9849 10.5054 15.0573 11.7351 15.0573H12.6277C12.8332 15.0573 13.0419 15.1889 13.0419 15.3944C13.0419 15.4683 13.0194 15.5389 12.9809 15.5967H14.689C14.9459 15.311 15.0904 14.9032 15.0775 14.534C15.0647 14.1936 14.9652 13.8372 14.7147 13.6028ZM12.5828 10.6778C12.6662 10.5943 12.7818 10.5558 12.8974 10.5558C13.013 10.5558 13.1286 10.5911 13.2121 10.6778C13.2956 10.7613 13.3341 10.8737 13.3341 10.9925C13.3341 11.1113 13.2956 11.2236 13.2121 11.3071C13.1286 11.3906 13.013 11.4291 12.8974 11.4291C12.7818 11.4291 12.6662 11.3938 12.5828 11.3071C12.4993 11.2236 12.4607 11.1113 12.4607 10.9925C12.4607 10.8769 12.4993 10.7613 12.5828 10.6778ZM19.5726 13.6028C19.2901 13.3395 18.8791 13.2207 18.5002 13.2207L16.532 13.2079C16.4068 13.2079 16.3137 13.1309 16.3137 13.0153C16.3137 12.9189 16.3619 12.7777 16.4807 12.7552C16.7151 12.829 16.9623 12.8644 17.2095 12.8644C17.7329 12.8644 18.2562 12.7102 18.6415 12.3506C19.014 12.0006 19.1905 11.5126 19.1905 11.0117C19.1905 10.5108 19.0172 10.0228 18.6415 9.67282C18.5323 9.57007 18.4103 9.48339 18.2787 9.41275C18.6383 9.49623 19.0107 9.39348 19.2676 8.95039L18.5452 8.43346L17.9448 9.27147C17.7104 9.19441 17.46 9.15909 17.2095 9.15909C16.6861 9.15909 16.1628 9.31321 15.7775 9.67282C15.4051 10.0228 15.2284 10.5108 15.2284 11.0117C15.2284 11.5126 15.4018 12.0006 15.7775 12.3506C15.8867 12.4533 16.0119 12.54 16.1403 12.6107C16.0536 12.6749 15.9637 12.7552 15.8738 12.8515C15.6362 13.1051 15.3986 13.4808 15.3986 13.9849C15.3986 13.9849 15.3665 15.0573 16.5962 15.0573H17.4888C17.6943 15.0573 17.903 15.1889 17.903 15.3944C17.903 15.4683 17.8805 15.5389 17.842 15.5967H19.5502C19.807 15.311 19.9515 14.9032 19.9387 14.534C19.9258 14.1936 19.8263 13.8372 19.5726 13.6028ZM16.9141 10.6778C16.9976 10.5943 17.1132 10.5558 17.2288 10.5558C17.3444 10.5558 17.46 10.5911 17.5434 10.6778C17.6269 10.7613 17.6654 10.8737 17.6654 10.9925C17.6654 11.1113 17.6269 11.2236 17.5434 11.3071C17.46 11.3906 17.3444 11.4291 17.2288 11.4291C17.1132 11.4291 16.9976 11.3938 16.9141 11.3071C16.8306 11.2236 16.7921 11.1113 16.7921 10.9925C16.7921 10.8769 16.8306 10.7613 16.9141 10.6778ZM22 12.3795V13.9817C21.7881 14.0909 21.5505 14.1198 21.406 14.1262C20.629 14.123 20.2373 13.85 19.9483 13.4326C19.7589 13.1597 19.6818 12.7231 19.6818 12.2029V8H21.5055V11.9107C21.5055 12.1676 21.634 12.4245 22 12.3795ZM8.16471 14.1262C8.80689 14.1262 9.44903 13.9207 9.92101 13.4391C10.3802 12.9703 10.5921 12.3185 10.5921 11.6475C10.5921 10.9764 10.377 10.3246 9.92101 9.85584C9.44903 9.37743 8.80689 9.17194 8.16471 9.17194C7.52257 9.17194 6.88039 9.37743 6.4084 9.85905C5.94926 10.3278 5.73736 10.9796 5.73736 11.6507C5.73736 12.3185 5.95249 12.9735 6.4084 13.4423C6.88039 13.9175 7.52257 14.1262 8.16471 14.1262ZM7.74731 11.2204C7.85646 11.1113 8.00416 11.0663 8.1551 11.0631C8.30276 11.0631 8.4537 11.1113 8.56284 11.2204C8.66879 11.3264 8.72019 11.4741 8.72019 11.6282C8.72019 11.7791 8.67202 11.93 8.56284 12.036C8.4537 12.1451 8.30599 12.1933 8.1551 12.1933C8.00739 12.1933 7.85646 12.1451 7.74731 12.036C7.64136 11.93 7.59319 11.7823 7.59319 11.6282C7.59319 11.4741 7.64136 11.3264 7.74731 11.2204ZM2.6839 10.9154H2V9.59897C2.04174 9.60218 2.08027 9.60539 2.12201 9.60539C2.67747 9.60539 3.1302 9.12699 3.1302 8.53299V8H4.43057V9.4288H5.44838V10.9154H4.43057V11.7438C4.43057 11.9204 4.46588 12.0584 4.53973 12.1516C4.65211 12.2928 4.77733 12.386 5.07914 12.386C5.22684 12.386 5.35527 12.3602 5.44838 12.3249V13.8822C5.19795 14.0202 4.81586 14.1262 4.36314 14.1262C3.5765 14.1262 3.25542 13.8533 2.96645 13.4359C2.78022 13.163 2.6839 12.7616 2.6839 12.2414V10.9154Z" fill="#F9DE9B"/>
</svg>
