<svg width="24" height="24" viewBox="0 0 24 24" fill="none" xmlns="http://www.w3.org/2000/svg">
<path d="M9.7172 18.1883C15.3776 18.1883 18.4736 13.4987 18.4736 9.43188C18.4736 9.29868 18.4736 9.16608 18.4646 9.03408C19.0669 8.59843 19.5868 8.05901 20 7.44108C19.4383 7.68996 18.8425 7.85318 18.2324 7.92528C18.8748 7.54067 19.3557 6.93574 19.5854 6.22308C18.9813 6.58155 18.3204 6.83419 17.6312 6.97008C17.1672 6.47669 16.5535 6.14998 15.8851 6.04051C15.2167 5.93103 14.5309 6.0449 13.9337 6.36449C13.3366 6.68407 12.8614 7.19156 12.5817 7.80842C12.302 8.42528 12.2335 9.11712 12.3866 9.77688C11.1631 9.71554 9.96608 9.39758 8.87338 8.84363C7.78069 8.28969 6.8167 7.51215 6.044 6.56148C5.65046 7.23898 5.52992 8.041 5.70694 8.80424C5.88395 9.56749 6.34521 10.2346 6.9968 10.6697C6.50704 10.6552 6.02797 10.523 5.6 10.2845C5.6 10.2971 5.6 10.3103 5.6 10.3235C5.60019 11.034 5.84616 11.7226 6.29617 12.2725C6.74618 12.8223 7.37254 13.1996 8.069 13.3403C7.61592 13.4638 7.14055 13.4819 6.6794 13.3931C6.87606 14.0046 7.25892 14.5393 7.77444 14.9225C8.28997 15.3057 8.91237 15.5182 9.5546 15.5303C8.46484 16.3867 7.11864 16.8517 5.7326 16.8503C5.48774 16.8498 5.24312 16.835 5 16.8059C6.40738 17.709 8.04495 18.1881 9.7172 18.1859" fill="#1DA1F2"/>
</svg>
