<svg width="24" height="24" viewBox="0 0 24 24" fill="none" xmlns="http://www.w3.org/2000/svg">
<path d="M8.66064 19.6259C15.4531 19.6259 19.1683 13.9984 19.1683 9.11826C19.1683 8.95842 19.1683 8.7993 19.1575 8.6409C19.8803 8.11811 20.5042 7.47081 21 6.7293C20.326 7.02795 19.611 7.22381 18.8789 7.31034C19.6498 6.8488 20.2268 6.12289 20.5025 5.2677C19.7776 5.69786 18.9845 6.00103 18.1574 6.1641C17.6006 5.57203 16.8642 5.17998 16.0621 5.04861C15.2601 4.91724 14.4371 5.05388 13.7205 5.43739C13.0039 5.82089 12.4337 6.42988 12.0981 7.17011C11.7624 7.91034 11.6802 8.74054 11.8639 9.53226C10.3957 9.45865 8.95929 9.07709 7.64806 8.41236C6.33683 7.74763 5.18004 6.81458 4.2528 5.67378C3.78055 6.48677 3.6359 7.4492 3.84832 8.36509C4.06075 9.28099 4.61426 10.0815 5.39616 10.6036C4.80845 10.5862 4.23356 10.4277 3.72 10.1414C3.72 10.1565 3.72 10.1723 3.72 10.1882C3.72023 11.0408 4.01539 11.8671 4.5554 12.527C5.09542 13.1868 5.84705 13.6395 6.6828 13.8083C6.13911 13.9566 5.56866 13.9783 5.01528 13.8717C5.25127 14.6055 5.7107 15.2472 6.32933 15.707C6.94796 16.1669 7.69484 16.4219 8.46552 16.4363C7.15781 17.4641 5.54236 18.022 3.87912 18.0203C3.58529 18.0198 3.29175 18.002 3 17.9671C4.68886 19.0509 6.65394 19.6257 8.66064 19.6231" fill="#1DA1F2"/>
</svg>
