<svg width="24" height="24" viewBox="0 0 24 24" fill="none" xmlns="http://www.w3.org/2000/svg">
<rect x="0.25" y="3.75" width="23.5" height="16.5" rx="1.75" fill="white" stroke="#E3E5E8" stroke-width="0.5"/>
<path d="M6.9676 7.00079H10.7498C11.2778 7.00079 11.6062 7.44379 11.483 7.98909L9.72212 15.7717C9.59785 16.3151 9.06923 16.7585 8.5409 16.7585H4.75902C4.23179 16.7585 3.90267 16.3151 4.02584 15.7717L5.78748 7.98909C5.91065 7.44379 6.43898 7.00079 6.9676 7.00079Z" fill="#E21836"/>
<path d="M10.4349 7H14.7844C15.3123 7 15.0742 7.443 14.9501 7.9883L13.1894 15.7709C13.0659 16.3143 13.1044 16.7577 12.5754 16.7577H8.22596C7.69698 16.7577 7.36961 16.3143 7.49388 15.7709L9.25442 7.9883C9.37943 7.443 9.90666 7 10.4349 7Z" fill="#00447C"/>
<path d="M14.6119 7H18.3942C18.9229 7 19.2513 7.443 19.1271 7.9883L17.3665 15.7709C17.2422 16.3143 16.7132 16.7577 16.1846 16.7577H12.4041C11.8751 16.7577 11.547 16.3143 11.6709 15.7709L13.4318 7.9883C13.555 7.443 14.083 7 14.6119 7Z" fill="#007B84"/>
<path d="M7.9552 9.49409C7.56625 9.49817 7.45138 9.49409 7.41469 9.48517C7.40059 9.55416 7.13813 10.8005 7.13739 10.8015C7.08088 11.0537 7.03976 11.2334 6.90009 11.3495C6.82081 11.417 6.72825 11.4495 6.62094 11.4495C6.44846 11.4495 6.34797 11.3614 6.3311 11.1941L6.32787 11.1367C6.32787 11.1367 6.38042 10.799 6.38042 10.7971C6.38042 10.7971 6.65588 9.6613 6.70521 9.51117C6.70779 9.50263 6.70852 9.49817 6.70917 9.49409C6.173 9.49893 6.07795 9.49409 6.0714 9.48517C6.06781 9.49741 6.05453 9.56783 6.05453 9.56783L5.77326 10.8479L5.74911 10.9565L5.70237 11.3116C5.70237 11.417 5.72247 11.5029 5.76248 11.5756C5.89062 11.8062 6.25615 11.8407 6.46293 11.8407C6.72936 11.8407 6.97928 11.7824 7.14817 11.676C7.44134 11.4977 7.51804 11.219 7.58644 10.9713L7.61815 10.8442C7.61815 10.8442 7.90191 9.66462 7.95013 9.51117C7.95197 9.50263 7.95271 9.49817 7.9552 9.49409ZM8.92067 10.4457C8.85226 10.4457 8.72726 10.4628 8.61497 10.5194C8.57422 10.541 8.53569 10.5658 8.49503 10.5906L8.53172 10.4542L8.51162 10.4313C8.2735 10.4809 8.22021 10.4875 8.00025 10.5194L7.98181 10.5321C7.95628 10.75 7.9336 10.9139 7.83892 11.3424C7.80287 11.5003 7.76545 11.6598 7.72792 11.8173L7.73807 11.8373C7.96347 11.8251 8.03187 11.8251 8.22777 11.8284L8.24363 11.8107C8.26852 11.6794 8.27175 11.6487 8.32688 11.3828C8.35278 11.2568 8.40681 10.9799 8.43345 10.8813C8.4824 10.8579 8.53071 10.835 8.5768 10.835C8.6866 10.835 8.67323 10.9336 8.66899 10.9729C8.66429 11.0388 8.62428 11.2542 8.58326 11.4392L8.55588 11.5586C8.53679 11.6468 8.51587 11.7325 8.49678 11.8199L8.50508 11.8373C8.72726 11.8251 8.79501 11.8251 8.98474 11.8284L9.00705 11.8107C9.04134 11.6057 9.05139 11.5508 9.11224 11.2524L9.14284 11.1152C9.20231 10.8468 9.23218 10.7108 9.18719 10.5999C9.13962 10.4757 9.02549 10.4457 8.92067 10.4457ZM9.99921 10.7267C9.88111 10.75 9.8058 10.7656 9.73094 10.7757C9.65673 10.7879 9.58436 10.799 9.47023 10.8153L9.46119 10.8238L9.45289 10.8305C9.441 10.918 9.43271 10.9936 9.41694 11.0826C9.40357 11.1745 9.38302 11.279 9.34955 11.4291C9.32365 11.5441 9.31028 11.5841 9.29553 11.6245C9.28115 11.665 9.26529 11.7043 9.23616 11.8173L9.24298 11.8277L9.2487 11.8373C9.35536 11.8321 9.42515 11.8284 9.49687 11.8277C9.5685 11.8251 9.64271 11.8277 9.75758 11.8284L9.76763 11.8199L9.77841 11.8106C9.79501 11.7087 9.7975 11.6813 9.80764 11.6316C9.81769 11.5782 9.83502 11.5044 9.87752 11.3072C9.89762 11.2146 9.92002 11.1222 9.94085 11.0277C9.96252 10.9336 9.9852 10.8409 10.0068 10.7482L10.0035 10.737L9.99921 10.7267ZM10.0017 10.3478C9.89442 10.2826 9.70607 10.3033 9.57931 10.3934C9.45292 10.4816 9.43854 10.6069 9.54548 10.673C9.65095 10.7363 9.84002 10.7175 9.96568 10.6266C10.0918 10.5365 10.1076 10.4124 10.0017 10.3478ZM10.6507 11.8577C10.8678 11.8577 11.0903 11.7962 11.2578 11.6134C11.3867 11.4651 11.4458 11.2446 11.4663 11.1538C11.5329 10.8527 11.481 10.7122 11.4159 10.6266C11.3168 10.4961 11.1419 10.4543 10.9604 10.4543C10.8512 10.4543 10.5912 10.4654 10.3881 10.6581C10.2423 10.7971 10.1749 10.9858 10.1342 11.1667C10.0932 11.351 10.046 11.6827 10.3424 11.8062C10.4339 11.8466 10.5657 11.8577 10.6507 11.8577ZM10.6337 11.1804C10.6838 10.9525 10.7429 10.7612 10.8937 10.7612C11.0119 10.7612 11.0205 10.9035 10.9679 11.1322C10.9585 11.183 10.9154 11.3718 10.857 11.4521C10.8163 11.5114 10.768 11.5474 10.7148 11.5474C10.6989 11.5474 10.6046 11.5474 10.6031 11.4033C10.6024 11.3321 10.6165 11.2594 10.6337 11.1804ZM12.009 11.8284L12.026 11.8107C12.05 11.6794 12.054 11.6486 12.1073 11.3829C12.1339 11.2568 12.1891 10.9799 12.215 10.8813C12.264 10.8579 12.3115 10.8349 12.359 10.8349C12.4681 10.8349 12.4548 10.9335 12.4505 10.9728C12.4465 11.0389 12.4065 11.2542 12.3648 11.4391L12.3389 11.5585C12.319 11.6468 12.2975 11.7324 12.2784 11.8199L12.2867 11.8373C12.5096 11.8251 12.5748 11.8251 12.7656 11.8284L12.7887 11.8107C12.8221 11.6056 12.8311 11.5507 12.8938 11.2524L12.9237 11.1152C12.9834 10.8468 13.0137 10.7108 12.9694 10.5999C12.9205 10.4757 12.8056 10.4457 12.7023 10.4457C12.6338 10.4457 12.5081 10.4627 12.3965 10.5195C12.3566 10.541 12.3165 10.5658 12.2773 10.5906L12.3115 10.4543L12.2931 10.4312C12.0551 10.4809 12.0007 10.4876 11.781 10.5195L11.7642 10.5321C11.7375 10.7501 11.7158 10.9139 11.6212 11.3424C11.5851 11.5004 11.5477 11.6598 11.5103 11.8173L11.5203 11.8373C11.7461 11.8251 11.8135 11.8251 12.009 11.8284ZM13.6468 11.8373C13.6608 11.7669 13.7441 11.3495 13.7448 11.3495C13.7448 11.3495 13.8157 11.0433 13.82 11.0322C13.82 11.0322 13.8423 11.0003 13.8646 10.9877H13.8975C14.2071 10.9877 14.5568 10.9877 14.8309 10.7801C15.0174 10.6378 15.1449 10.4276 15.2017 10.1721C15.2165 10.1094 15.2274 10.0349 15.2274 9.96045C15.2274 9.86261 15.2083 9.76581 15.1532 9.69017C15.0134 9.48889 14.7351 9.48519 14.4138 9.48367C14.4128 9.48367 14.2554 9.48519 14.2554 9.48519C13.8442 9.49041 13.6792 9.48889 13.6115 9.48035C13.6058 9.51119 13.595 9.56604 13.595 9.56604C13.595 9.56604 13.4477 10.2689 13.4477 10.27C13.4477 10.27 13.0951 11.7643 13.0785 11.8347C13.4376 11.8303 13.5848 11.8303 13.6468 11.8373ZM13.9198 10.5888C13.9198 10.5888 14.0764 9.88738 14.0757 9.89003L14.0807 9.85407L14.0829 9.82664L14.1455 9.83328C14.1455 9.83328 14.4686 9.86185 14.4761 9.86261C14.6036 9.91338 14.6562 10.0442 14.6195 10.2151C14.586 10.3712 14.4877 10.5024 14.3613 10.5658C14.2572 10.6195 14.1297 10.624 13.9983 10.624H13.9133L13.9198 10.5888ZM14.895 11.1934C14.8536 11.3751 14.806 11.7068 15.1009 11.8251C15.195 11.8663 15.2792 11.8785 15.3649 11.8741C15.4553 11.869 15.5391 11.8223 15.6167 11.7551C15.6097 11.7828 15.6027 11.8104 15.5957 11.8381L15.6091 11.8558C15.8212 11.8466 15.887 11.8466 16.1169 11.8484L16.1377 11.8321C16.1712 11.629 16.2029 11.4318 16.2901 11.0433C16.3326 10.8572 16.375 10.6729 16.4186 10.4876L16.4118 10.4672C16.1745 10.5124 16.111 10.5221 15.8828 10.5554L15.8655 10.5699C15.8632 10.5888 15.8608 10.6069 15.8585 10.6251C15.823 10.566 15.7716 10.5156 15.6922 10.4842C15.5907 10.4431 15.3523 10.4961 15.1474 10.6882C15.0034 10.8253 14.9343 11.0132 14.895 11.1934ZM15.3934 11.2045C15.4442 10.9807 15.5025 10.7912 15.6537 10.7912C15.7493 10.7912 15.7996 10.8821 15.7894 11.0369C15.7813 11.0756 15.7725 11.1163 15.7621 11.1623C15.747 11.2288 15.7306 11.2948 15.7146 11.3608C15.6984 11.406 15.6795 11.4486 15.6588 11.477C15.6199 11.5337 15.5273 11.5689 15.474 11.5689C15.4589 11.5689 15.3656 11.5689 15.3624 11.4274C15.3616 11.3568 15.3757 11.2842 15.3934 11.2045ZM17.9959 10.4653L17.9776 10.4438C17.7428 10.4928 17.7003 10.5005 17.4845 10.5305L17.4687 10.5469C17.4679 10.5495 17.4673 10.5536 17.4662 10.5573L17.4654 10.5536C17.3049 10.935 17.3096 10.8527 17.1788 11.153C17.1781 11.1393 17.1781 11.1308 17.1774 11.1163L17.1446 10.4653L17.1241 10.4438C16.8781 10.4928 16.8723 10.5005 16.6451 10.5305L16.6274 10.5469C16.625 10.5546 16.625 10.5632 16.6235 10.5725L16.625 10.5758C16.6534 10.7252 16.6465 10.6919 16.675 10.9276C16.6883 11.0433 16.706 11.1596 16.7193 11.2739C16.7417 11.4651 16.7542 11.5593 16.7816 11.8511C16.6282 12.1117 16.5919 12.2103 16.4442 12.439L16.4452 12.4413L16.3412 12.6106C16.3293 12.6284 16.3185 12.6407 16.3034 12.6459C16.2868 12.6543 16.2652 12.6558 16.2353 12.6558H16.1777L16.092 12.9491L16.3858 12.9543C16.5583 12.9535 16.6667 12.8705 16.7251 12.7589L16.9098 12.433H16.9069L16.9263 12.41C17.0506 12.1346 17.9959 10.4653 17.9959 10.4653ZM14.895 14.3166H14.7703L15.2316 12.7459H15.3847L15.4333 12.5841L15.438 12.7641C15.4322 12.8753 15.5172 12.9739 15.7405 12.9576H15.9988L16.0876 12.6551H15.9905C15.9346 12.6551 15.9087 12.6406 15.9119 12.6095L15.9072 12.4264H15.429V12.4274C15.2744 12.4307 14.8127 12.4426 14.7193 12.4683C14.6061 12.4983 14.4869 12.5865 14.4869 12.5865L14.5338 12.4245H14.0865L13.9933 12.7459L13.5258 14.3407H13.4351L13.3461 14.6409H14.237L14.2071 14.741H14.6462L14.6753 14.6409H14.7984L14.895 14.3166ZM14.5294 13.0651C14.4578 13.0855 14.3245 13.1474 14.3245 13.1474L14.4431 12.7459H14.7984L14.7127 13.0384C14.7127 13.0384 14.6029 13.0451 14.5294 13.0651ZM14.5363 13.6386C14.5363 13.6386 14.4246 13.653 14.3511 13.6701C14.2788 13.6927 14.1431 13.7638 14.1431 13.7638L14.2655 13.3461H14.6227L14.5363 13.6386ZM14.3371 14.3203H13.9806L14.084 13.9678H14.4394L14.3371 14.3203ZM15.1957 13.3461H15.7095L15.6357 13.5923H15.115L15.0368 13.8614H15.4924L15.1474 14.3614C15.1233 14.3982 15.1016 14.4112 15.0776 14.4215C15.0534 14.4341 15.0217 14.4489 14.985 14.4489H14.8586L14.7718 14.7437H15.1024C15.2742 14.7437 15.3757 14.6632 15.4506 14.5576L15.6872 14.2243L15.738 14.5627C15.7488 14.6261 15.793 14.6632 15.823 14.6776C15.8561 14.6947 15.8903 14.7241 15.9386 14.7284C15.9904 14.7307 16.0278 14.7325 16.0527 14.7325H16.2152L16.3127 14.4026H16.2486C16.2119 14.4026 16.1485 14.3963 16.1377 14.3844C16.127 14.37 16.127 14.3478 16.1211 14.314L16.0696 13.9748H15.8586L15.9511 13.8614H16.4708L16.5507 13.5923H16.0696L16.1446 13.3461H16.6242L16.7132 13.0425H15.2831L15.1957 13.3461ZM10.8556 14.3889L10.9755 13.9782H11.4684L11.5585 13.6727H11.0651L11.1404 13.4199H11.6226L11.7119 13.1241H10.5055L10.418 13.4199H10.6921L10.619 13.6727H10.3442L10.2531 13.9834H10.5271L10.3672 14.5268C10.3457 14.5987 10.3774 14.6261 10.3975 14.6596C10.418 14.6921 10.4389 14.7136 10.4857 14.7259C10.534 14.737 10.5671 14.7436 10.6121 14.7436H11.1678L11.2668 14.4052L11.0205 14.44C10.9729 14.44 10.8412 14.4342 10.8556 14.3889ZM10.9121 12.4227L10.7872 12.6551C10.7604 12.7058 10.7364 12.7374 10.7147 12.7519C10.6956 12.7641 10.6578 12.7692 10.6031 12.7692H10.5379L10.4508 13.0666H10.6672C10.7713 13.0666 10.8512 13.0273 10.8894 13.0076C10.9304 12.985 10.9412 12.998 10.9729 12.9664L11.046 12.9012H11.722L11.8117 12.5917H11.3169L11.4033 12.4227H10.9121ZM11.91 14.3949C11.8985 14.3778 11.9068 14.3477 11.9244 14.2851L12.1091 13.6556H12.7663C12.8621 13.6542 12.9313 13.653 12.9762 13.6497C13.0246 13.6445 13.0771 13.6267 13.1344 13.5948C13.1934 13.5614 13.2237 13.5262 13.2492 13.4858C13.2777 13.4455 13.3234 13.3572 13.3627 13.2211L13.5949 12.4245L12.9129 12.4286C12.9129 12.4286 12.7029 12.4605 12.6104 12.4957C12.5171 12.535 12.3838 12.6447 12.3838 12.6447L12.4454 12.4263H12.0241L11.4343 14.44C11.4134 14.5182 11.3993 14.575 11.3961 14.6091C11.395 14.6458 11.4411 14.6821 11.471 14.7096C11.5063 14.737 11.5585 14.7325 11.6085 14.737C11.6612 14.7411 11.736 14.7436 11.8394 14.7436H12.1631L12.2625 14.3982L11.9727 14.4264C11.9417 14.4264 11.9193 14.4093 11.91 14.3949ZM12.2283 13.2304H12.9186L12.8747 13.372C12.8686 13.3753 12.8538 13.365 12.7836 13.3735H12.1858L12.2283 13.2304ZM12.3666 12.7555H13.0627L13.0127 12.9261C13.0127 12.9261 12.6846 12.9228 12.632 12.9327C12.4008 12.9739 12.2657 13.1011 12.2657 13.1011L12.3666 12.7555ZM12.8902 13.8462C12.8845 13.8673 12.8754 13.8802 12.8628 13.8899C12.8488 13.8992 12.8261 13.9025 12.7923 13.9025H12.6939L12.6997 13.7301H12.2906L12.274 14.5731C12.2734 14.6339 12.2791 14.6692 12.3223 14.6973C12.3655 14.7325 12.4988 14.737 12.6781 14.737H12.9344L13.027 14.4215L12.8038 14.4341L12.7296 14.4385C12.7195 14.4341 12.7098 14.43 12.699 14.4189C12.6896 14.4093 12.6737 14.4152 12.6763 14.3544L12.6781 14.1383L12.9121 14.1283C13.0385 14.1283 13.0926 14.086 13.1386 14.0457C13.1826 14.007 13.197 13.9626 13.2136 13.9025L13.2529 13.7112H12.9312L12.8902 13.8462Z" fill="#FEFEFE"/>
</svg>
