<svg fill="none" height="24" viewBox="0 0 24 24" width="24" xmlns="http://www.w3.org/2000/svg"><path d="m21.1906 2.34083c-.5964-.55027-3.0063-2.299775-8.3744-2.3235434 0 0-6.33033-.3817356-9.41626 2.4488734-1.71781 1.71817-2.32211 4.23222-2.38585 7.34912-.063744 3.11692-.146214 8.95822 5.48439 10.54202h.0054l-.0036 2.4168s-.03602.9785.60825 1.178c.77932.242 1.23668-.5017 1.98071-1.3033.40838-.4401.97236-1.0865 1.39726-1.5806 3.8509.3241 6.8126-.4167 7.1489-.5261.7775-.2521 5.1772-.8157 5.8928-6.6567.7386-6.02021-.3572-9.8282-2.3376-11.54457z" fill="#fff"/><path d="m19.9383 3.55699c-.5042-.45808-2.6804-1.82549-7.2213-1.84529 0 0-5.37703-.35329-7.98723 2.01095-1.45276 1.43439-1.94217 3.56743-1.99583 6.17043-.05366 2.60302-.33168 7.57562 4.42957 8.89842 0 0-.01873 3.6917-.02089 4.0161 0 .2269.03601.3821.16566.4142.09327.0227.233-.0256.35185-.1441.76131-.7645 3.19867-3.705 3.19867-3.705 3.2703.2136 5.8722-.4321 6.152-.5236.6598-.2121 4.2283-.5186 4.8322-5.3969.6241-5.02844-.2294-8.46082-1.9047-9.89521z" fill="#7360f2"/><g stroke="#fff" stroke-linecap="round" stroke-linejoin="round" stroke-width=".6"><path d="m15.0257 9.67913c-.059-1.19058-.6638-1.81589-1.8143-1.87591"/><path d="m16.5835 10.2013c.024-1.10917-.3046-2.0359-.9857-2.78017-.6843-.7469-1.6314-1.15817-2.8468-1.24712"/><path d="m18.1781 10.8251c-.0146-1.92479-.5898-3.44069-1.7254-4.54772-1.1356-1.10704-2.5479-1.66643-4.2369-1.6782"/></g><path d="m13.2718 13.7453s.4268.036.6565-.247l.448-.5636c.2161-.2795.7376-.4577 1.2482-.1732.3827.2182.7542.4555 1.1132.7109.3389.2492 1.0328.8283 1.035.8283.3306.2791.4069.6889.1819 1.121 0 .0026-.0018.0069-.0018.009-.2479.4298-.5627.8173-.9324 1.1481-.0043.0022-.0043.0043-.0083.0065-.3212.2684-.6368.421-.9468.4577-.0456.008-.092.0109-.1383.0087-.1366.0013-.2726-.0196-.4026-.062l-.0101-.0147c-.4775-.1347-1.2748-.4718-2.6026-1.2043-.7684-.4189-1.4999-.9021-2.1867-1.4445-.3443-.2717-.6726-.5629-.98351-.8722l-.03314-.0331-.03313-.0332-.03313-.0331c-.01116-.0108-.02197-.022-.03313-.0331-.30932-.3109-.60054-.6393-.87223-.9835-.54228-.6868-1.0255-1.4182-1.44447-2.1864-.7325-1.32813-1.06958-2.12474-1.20427-2.60299l-.01477-.01008c-.04222-.12998-.06301-.26596-.06158-.40262-.00252-.04626.00026-.09266.00829-.13829.03865-.30947.19146-.6253.45844-.9475.00216-.00396.00432-.00396.00648-.00828.33071-.36974.71827-.68436 1.14809-.93201.00216 0 .00648-.00216.009-.00216.43215-.22508.84198-.14873 1.12072.18006.00216.00216.58016.69613.82829 1.03501.25542.35931.49265.73119.71085 1.11423.2845.51031.1063 1.03285-.1732 1.24821l-.56358.448c-.2845.22976-.24704.65651-.24704.65651s.83482 3.15941 3.95382 3.95561z" fill="#fff"/></svg>