<svg fill="none" height="24" viewBox="0 0 24 24" width="24" xmlns="http://www.w3.org/2000/svg"><g fill="#51c332"><path d="m16.0428 7.94609c.4084 0 .8073.03394 1.2008.08246-.7114-3.12427-3.9929-5.48747-7.93882-5.48747-4.46625 0-8.08603 3.02536-8.08603 6.75628 0 2.15104 1.21027 4.05944 3.08747 5.29434l-1.06603 2.1377 2.90404-1.2473c.62274.2218 1.26985.4044 1.96102.4894-.09445-.4123-.14812-.835-.14812-1.2688 0-3.7256 3.62637-6.75661 8.08567-6.75661zm-4.0427-2.36489c.558 0 1.0106.45399 1.0106 1.01358 0 .55978-.4525 1.01344-1.0106 1.01344-.5584 0-1.0108-.45366-1.0108-1.01344 0-.55964.4524-1.01358 1.0108-1.01358zm-5.39072 2.02702c-.55815 0-1.01072-.45366-1.01072-1.01344 0-.55959.45262-1.01358 1.01072-1.01358.55809 0 1.01076.45399 1.01076 1.01358-.00005.55978-.45272 1.01344-1.01076 1.01344z"/><path d="m22.7812 14.7026c0-2.9852-3.0176-5.40524-6.7383-5.40524-3.7209 0-6.73809 2.42004-6.73809 5.40524 0 2.985 3.01719 5.4051 6.73809 5.4051.6119 0 1.1939-.0865 1.7587-.2093l3.632 1.5605-1.2562-2.5172c1.5742-.9894 2.6038-2.5108 2.6038-4.2391zm-8.7597-.3379c-.5581 0-1.0108-.4538-1.0108-1.0136 0-.5596.4526-1.0133 1.0108-1.0133s1.0106.4539 1.0106 1.0133c0 .5599-.4524 1.0136-1.0106 1.0136zm4.0428 0c-.5583 0-1.0106-.4538-1.0106-1.0136 0-.5596.4522-1.0133 1.0106-1.0133s1.0108.4539 1.0108 1.0133c0 .5599-.4524 1.0136-1.0108 1.0136z"/></g></svg>