<svg width="24" height="24" viewBox="0 0 24 24" fill="none" xmlns="http://www.w3.org/2000/svg"><g clip-path="url(#clip0_2638_75)"><g filter="url(#filter0_f_2638_75)"><path d="M7.45521 18.9277L7.76079 19.1088C9.04413 19.8704 10.5155 20.2732 12.016 20.274H12.0192C16.6274 20.274 20.3777 16.5246 20.3796 11.9161C20.3804 9.68285 19.5117 7.58282 17.9331 6.00314C16.3546 4.42346 14.2557 3.55308 12.0224 3.55214C7.41075 3.55214 3.6604 7.30117 3.6587 11.9093C3.65802 13.4884 4.09992 15.0265 4.93677 16.3573L5.13571 16.6734L4.29095 19.7574L7.45521 18.9277ZM1.87593 22.1464L3.30301 16.9358C2.42284 15.411 1.95977 13.6809 1.96033 11.9087C1.96259 6.36429 6.47462 1.85358 12.0192 1.85358C14.7099 1.85489 17.2353 2.90199 19.1347 4.80269C21.0335 6.7034 22.0791 9.22976 22.0782 11.9168C22.0757 17.4609 17.5629 21.9724 12.0192 21.9724C12.0188 21.9724 12.0197 21.9724 12.0192 21.9724H12.0149C10.3316 21.9717 8.67751 21.5494 7.20823 20.7482L1.87593 22.1464Z" fill="#B3B3B3"/></g><path d="M1.77258 22.0431L3.19967 16.8325C2.31949 15.3076 1.85642 13.5776 1.85698 11.8054C1.85924 6.26095 6.37127 1.75024 11.9159 1.75024C14.6065 1.75156 17.1319 2.79865 19.0313 4.69936C20.9301 6.60006 21.9757 9.12642 21.9748 11.8135C21.9723 17.3575 17.4596 21.869 11.9159 21.869C11.9155 21.869 11.9163 21.869 11.9159 21.869H11.9116C10.2283 21.8683 8.57416 21.446 7.10488 20.6448L1.77258 22.0431Z" fill="#fff"/><path d="M11.9191 3.44879C7.30742 3.44879 3.55704 7.1978 3.55534 11.8059C3.55466 13.385 3.99659 14.9231 4.83343 16.2539L5.03237 16.57L4.18757 19.654L7.35188 18.8243L7.65743 19.0054C8.94077 19.7671 10.4121 20.1698 11.9127 20.1706H11.9159C16.524 20.1706 20.2743 16.4212 20.2762 11.8127C20.277 9.57948 19.4083 7.47945 17.8298 5.89977C16.2512 4.32009 14.1523 3.44973 11.9191 3.44879Z" fill="url(#paint0_linear_2638_75)"/><path fill-rule="evenodd" clip-rule="evenodd" d="M9.40197 7.60153C9.21358 7.18311 9.01539 7.17463 8.83641 7.16728C8.68984 7.16107 8.52217 7.16144 8.35469 7.16144C8.18702 7.16144 7.91479 7.22437 7.68458 7.47587C7.45417 7.72738 6.80478 8.33532 6.80478 9.57194C6.80478 10.8086 7.70549 12.0034 7.83096 12.1712C7.95662 12.3389 9.56964 14.9576 12.1244 15.9649C14.2474 16.8021 14.6794 16.6356 15.1404 16.5938C15.6012 16.5519 16.6274 15.9858 16.8367 15.399C17.0462 14.8121 17.0462 14.3093 16.9835 14.2042C16.9206 14.0992 16.7531 14.0365 16.5016 13.9108C16.2503 13.7852 15.0146 13.177 14.7842 13.0932C14.5538 13.0094 14.3863 12.9676 14.2186 13.2191C14.0511 13.4706 13.5698 14.0365 13.423 14.2042C13.2765 14.372 13.1299 14.3929 12.8784 14.2673C12.6271 14.1412 11.8175 13.8762 10.8573 13.0199C10.1101 12.3538 9.60581 11.531 9.45905 11.2795C9.31248 11.028 9.44342 10.892 9.56945 10.7667C9.6823 10.6541 9.82077 10.4732 9.94661 10.3265C10.0719 10.1797 10.1139 10.075 10.1976 9.90747C10.2814 9.73961 10.2396 9.59285 10.1766 9.46719C10.1139 9.34154 9.6254 8.09851 9.40197 7.60153" fill="#fff"/></g><defs><filter id="filter0_f_2638_75" x="-24.813" y="-24.835" width="73.58" height="73.67" filterUnits="userSpaceOnUse" color-interpolation-filters="sRGB"><feFlood flood-opacity="0" result="BackgroundImageFix"/><feBlend mode="normal" in="SourceGraphic" in2="BackgroundImageFix" result="shape"/><feGaussianBlur stdDeviation="13.344" result="effect1_foregroundBlur_2638_75"/></filter><linearGradient id="paint0_linear_2638_75" x1="11.746" y1="4.452" x2="11.83" y2="18.742" gradientUnits="userSpaceOnUse"><stop stop-color="#57D163"/><stop offset="1" stop-color="#23B33A"/></linearGradient><clipPath id="clip0_2638_75"><rect width="24" height="24" fill="#fff"/></clipPath></defs></svg>