<svg width="24" height="24" viewBox="0 0 24 24" fill="none" xmlns="http://www.w3.org/2000/svg">
<path d="M12.0025 2.6543H11.9976C6.85855 2.6543 2.67957 6.84574 2.67957 12C2.67957 14.0444 3.33656 15.9394 4.45386 17.4778L3.29246 20.9494L6.87511 19.8012C8.34875 20.7802 10.1068 21.3457 12.0025 21.3457C17.1415 21.3457 21.3205 17.1529 21.3205 12C21.3205 6.84699 17.1414 2.6543 12.0025 2.6543Z" fill="url(#paint0_linear_3534_78)"/>
<path d="M17.4256 15.8514C17.2007 16.4883 16.3083 17.0161 15.5966 17.1706C15.1093 17.2744 14.4734 17.3575 12.3322 16.4672C9.59293 15.3294 7.82906 12.5385 7.69176 12.3574C7.55992 12.1763 6.58488 10.8798 6.58488 9.5385C6.58488 8.19745 7.26403 7.54428 7.53793 7.26417C7.76258 7.03382 8.1343 6.92889 8.49082 6.92889C8.60621 6.92889 8.70981 6.9346 8.80321 6.93932C9.07696 6.95112 9.2143 6.96733 9.39504 7.40077C9.61988 7.94409 10.1673 9.28511 10.2327 9.42307C10.2992 9.56096 10.3654 9.74772 10.2723 9.92874C10.1848 10.1158 10.108 10.1987 9.97051 10.3574C9.83297 10.5166 9.70235 10.638 9.565 10.8084C9.43926 10.9567 9.29707 11.1157 9.45559 11.3903C9.61399 11.659 10.1614 12.5548 10.9676 13.2744C12.0082 14.2032 12.8515 14.4999 13.1534 14.6262C13.3782 14.7197 13.6462 14.6973 13.8103 14.5221C14.0189 14.2966 14.2766 13.9228 14.5386 13.555C14.725 13.2909 14.9603 13.2582 15.2073 13.3516C15.4589 13.4392 16.7905 14.0993 17.0644 14.236C17.338 14.3738 17.5189 14.4392 17.5852 14.5549C17.6505 14.6703 17.6505 15.2137 17.4256 15.8514Z" fill="#FCFCFC"/>
<defs>
<linearGradient id="paint0_linear_3534_78" x1="11.8103" y1="3.77598" x2="11.9053" y2="19.7488" gradientUnits="userSpaceOnUse">
<stop stop-color="#57D163"/>
<stop offset="1" stop-color="#23B33A"/>
</linearGradient>
</defs>
</svg>
