<svg width="24" height="24" viewBox="0 0 24 24" fill="none" xmlns="http://www.w3.org/2000/svg">
<path fill-rule="evenodd" clip-rule="evenodd" d="M6.61686 6.15045C4.98943 6.54388 3.41895 7.81074 2.67524 9.33007C2.22876 10.2421 2 11.178 2 12.092C2 14.8857 4 17.4151 6.71095 18.0499C7.54514 18.2452 9.29009 18.2008 9.82657 17.9706C10.2184 17.8025 10.3665 17.4747 10.1953 17.1549C10.0509 16.8848 9.7679 16.8197 9.35228 16.9608C9.15666 17.0272 8.61095 17.0817 8.13952 17.0817C6.06247 17.0821 4.25914 15.8563 3.46114 13.9015C3.12267 13.0725 3.038 11.6361 3.27819 10.7995C3.68009 9.39978 4.65371 8.23645 5.94428 7.61388C7.59428 6.81788 9.34028 6.91912 10.8243 7.89683C11.1287 8.09721 12.2467 9.1355 13.3089 10.204C14.9584 11.8633 15.2485 12.1979 15.2971 12.4978C15.3476 12.8087 15.3158 12.8871 15.0183 13.1846C14.6637 13.5392 14.3455 13.6084 13.9666 13.4135C13.8522 13.3546 12.9443 12.5036 11.949 11.5222C10.2496 9.84635 10.109 9.73064 9.63952 9.61969C8.12181 9.26112 6.82724 10.531 7.14343 12.0682C7.25543 12.6124 7.26886 12.6286 9.36343 14.7384C10.6009 15.9849 11.7148 17.0201 12.0616 17.2462C13.772 18.3604 16.2043 18.5059 18.0342 17.6031C19.6765 16.7929 20.9355 15.238 21.3401 13.5205C21.4986 12.8474 21.4986 11.3365 21.3401 10.6634C20.8393 8.53731 18.9878 6.6774 16.8477 6.15064C15.7405 5.87807 13.8132 5.99264 13.4014 6.35559C13.1506 6.57664 13.1881 7.0094 13.4744 7.19693C13.6867 7.33607 13.7654 7.33921 14.1649 7.22426C14.868 7.02207 16.1199 7.0655 16.8719 7.31816C18.9569 8.01883 20.3776 9.95331 20.3776 12.092C20.3776 13.4309 19.8865 14.597 18.909 15.5785C17.8635 16.6284 16.7983 17.0819 15.3776 17.0819C14.4393 17.0819 13.8407 16.9283 12.9418 16.4568C12.163 16.0484 8.18714 12.052 8.18714 11.6776C8.18714 10.8872 8.99733 10.4102 9.62571 10.8307C9.76219 10.922 10.6314 11.7557 11.5573 12.6833C13.0771 14.2059 13.291 14.3857 13.7574 14.5327C15.088 14.9522 16.4144 13.9631 16.4024 12.5604C16.3995 12.2223 16.3281 11.893 16.206 11.6557C16.0995 11.4484 15.0682 10.3487 13.8864 9.18226C11.9896 7.31016 11.6758 7.03988 10.9967 6.69331C10.5776 6.4795 9.95343 6.23521 9.60962 6.15064C8.84095 5.9614 7.39924 5.96131 6.61686 6.15045Z" fill="#3779B9"/>
</svg>
