<svg width="24" height="24" viewBox="0 0 24 24" fill="none" xmlns="http://www.w3.org/2000/svg">
<path fill-rule="evenodd" clip-rule="evenodd" d="M14.8913 2.01257C14.5357 2.08776 14.2489 2.34194 14.1424 2.67638C14.1305 2.71397 14.0142 3.39952 13.8841 4.19982C13.6274 5.77857 13.6268 5.78523 13.7095 6.02566C13.8177 6.34007 14.1023 6.59072 14.4284 6.65871C14.4853 6.67058 14.6984 6.68029 14.902 6.68029C15.1056 6.68029 15.2719 6.68689 15.2715 6.69494C15.2711 6.70298 15.1852 7.23253 15.0804 7.8717L14.8901 9.03381L11.2872 9.04422C7.7082 9.05457 7.68309 9.05492 7.50848 9.09586C6.79383 9.26346 6.24117 9.68129 5.91525 10.3004C5.78731 10.5434 5.71352 10.7801 5.65453 11.1366C5.13963 14.2486 4.00026 21.3303 4 21.4203C3.99899 21.7978 4.38988 22.0813 4.74481 21.9604C4.80824 21.9388 5.49346 21.5263 6.41846 20.9529L7.98467 19.9819L11.897 19.976C16.1744 19.9694 15.85 19.978 16.2096 19.8622C16.7742 19.6804 17.2712 19.2635 17.5524 18.7357C17.7247 18.4124 17.7482 18.3067 18.0256 16.6022C18.2074 15.4849 18.2779 15.0073 18.269 14.9518C18.2393 14.7659 18.1352 14.6147 17.9693 14.5168C17.9005 14.4762 17.8507 14.4642 17.7222 14.4575C17.5815 14.4501 17.548 14.4551 17.4551 14.4977C17.3264 14.5566 17.2137 14.6651 17.1635 14.7785C17.1395 14.8328 17.04 15.394 16.8827 16.3623C16.7486 17.1871 16.6218 17.9191 16.6007 17.9889C16.4861 18.3692 16.1153 18.7077 15.7253 18.7879C15.6526 18.8029 14.4619 18.8093 11.7311 18.8095C7.53287 18.8098 7.7182 18.8054 7.51275 18.9093C7.46742 18.9322 6.9702 19.236 6.40779 19.5844C5.84537 19.9328 5.38049 20.2131 5.37469 20.2073C5.35383 20.1865 6.83574 11.1286 6.88191 10.9947C6.99344 10.6713 7.25279 10.4159 7.61117 10.2764L7.74285 10.2252L11.5026 10.2154C15.6307 10.2047 15.2765 10.2156 15.5177 10.0923C15.7316 9.98303 15.9045 9.77158 15.9755 9.53267C16.039 9.31869 16.4679 6.65433 16.4677 6.47521C16.4671 6.1041 16.2613 5.7756 15.9302 5.61753C15.7403 5.52685 15.6186 5.50841 15.21 5.50841C14.9699 5.50841 14.862 5.50175 14.862 5.48693C14.862 5.47511 14.9455 4.95097 15.0475 4.32218C15.1496 3.69339 15.2331 3.17536 15.2331 3.17103C15.2331 3.16667 15.8329 3.16567 16.5661 3.16878L17.8991 3.17442L18.0284 3.22479C18.0995 3.25249 18.1968 3.2981 18.2447 3.32614C18.4397 3.4404 18.6391 3.66749 18.7293 3.87786C18.791 4.02169 18.8333 4.269 18.8193 4.40331C18.7894 4.69025 17.7863 10.7939 17.7657 10.814C17.7427 10.8366 12.3924 14.1546 12.2633 14.2263L12.194 14.2649L10.8864 13.2221C10.1672 12.6486 9.54363 12.1616 9.50066 12.1399C9.44855 12.1136 9.37256 12.0982 9.27244 12.0935C9.14523 12.0875 9.10648 12.0937 9.01853 12.1341C8.87775 12.1989 8.80617 12.2634 8.73976 12.3854C8.63039 12.5864 8.65803 12.8739 8.80273 13.0406C8.85902 13.1055 11.5033 15.2174 11.6652 15.3269C11.8783 15.4709 12.2179 15.515 12.4792 15.4326C12.6497 15.3788 18.4417 11.7969 18.6263 11.631C18.7203 11.5465 18.7658 11.4853 18.8264 11.3617L18.9048 11.2018L19.4214 8.01818C19.7056 6.2672 19.9478 4.77306 19.9598 4.69786C19.991 4.50171 19.9859 4.10116 19.9498 3.91169C19.7896 3.07138 19.1793 2.37288 18.3774 2.11216C18.039 2.00216 18.0963 2.00552 16.4733 2.00061C15.6462 1.99811 14.9343 2.00348 14.8913 2.01257Z" fill="#089949"/>
</svg>
