<svg width="24" height="24" viewBox="0 0 24 24" fill="none" xmlns="http://www.w3.org/2000/svg">
<path fill-rule="evenodd" clip-rule="evenodd" d="M12.0247 11.1973V4.17911C12.0247 4.11053 11.9408 4.07662 11.8929 4.12596L8.91146 7.20448C8.30175 6.94671 7.6314 6.80402 6.9275 6.80402C4.11247 6.80402 1.83051 9.08447 1.83051 11.8974C1.83051 14.7102 4.11247 16.9906 6.9275 16.9906C9.50479 16.9906 11.6338 15.079 11.9755 12.5974V19.6155C11.9755 19.6845 12.0592 19.7182 12.107 19.6689L15.0885 16.5904C15.6982 16.8481 16.3688 16.9906 17.0725 16.9906C19.8875 16.9906 22.1695 14.7102 22.1695 11.8974C22.1695 9.08447 19.8875 6.80402 17.0725 6.80402C14.4952 6.80402 12.3662 8.71583 12.0247 11.1973Z" fill="black"/>
</svg>
