<svg width="94" height="96" viewBox="0 0 94 96" fill="none" xmlns="http://www.w3.org/2000/svg">
<path d="M18.3589 72.2873V26.3889L55.5608 5.13062L92.2797 26.3889V72.2873L55.5608 93.0627L18.3589 72.2873Z" fill="#EFEBE1"/>
<path d="M3.86426 72.2873V26.3889L41.0662 5.13062L77.7847 26.3889V72.2873L41.0662 93.0627L3.86426 72.2873Z" stroke="#7C52FF" stroke-width="2" stroke-linecap="round" stroke-linejoin="round"/>
<path d="M4.2207 26.103L27.7167 38.83" stroke="#7C52FF" stroke-width="2"/>
<path d="M55.1182 59.384L77.6485 71.1446" stroke="#7C52FF" stroke-width="2"/>
<path d="M77.9141 26.1035L54.4181 38.8305" stroke="#7C52FF" stroke-width="2"/>
<path d="M27.0083 59.3894L3.51238 72.1164" stroke="#7C52FF" stroke-width="2"/>
<path d="M41.0688 5.13062V30.254" stroke="#7C52FF" stroke-width="2"/>
<path d="M41.0688 67.9387V93.0621" stroke="#7C52FF" stroke-width="2"/>
<path d="M41.0665 8.99587C43.468 8.99587 45.4148 7.04908 45.4148 4.6476C45.4148 2.24611 43.468 0.299316 41.0665 0.299316C38.6651 0.299316 36.7183 2.24611 36.7183 4.6476C36.7183 7.04908 38.6651 8.99587 41.0665 8.99587Z" fill="#7C52FF"/>
<path d="M40.9303 58.7906C46.6844 58.7906 51.3489 54.126 51.3489 48.372C51.3489 42.6179 46.6844 37.9534 40.9303 37.9534C35.1763 37.9534 30.5117 42.6179 30.5117 48.372C30.5117 54.126 35.1763 58.7906 40.9303 58.7906Z" fill="#7C52FF"/>
<path d="M41.0665 95.9612C43.468 95.9612 45.4148 94.0144 45.4148 91.6129C45.4148 89.2114 43.468 87.2646 41.0665 87.2646C38.6651 87.2646 36.7183 89.2114 36.7183 91.6129C36.7183 94.0144 38.6651 95.9612 41.0665 95.9612Z" fill="#7C52FF"/>
<path d="M77.7829 30.2537C80.1843 30.2537 82.1311 28.3069 82.1311 25.9054C82.1311 23.5039 80.1843 21.5571 77.7829 21.5571C75.3814 21.5571 73.4346 23.5039 73.4346 25.9054C73.4346 28.3069 75.3814 30.2537 77.7829 30.2537Z" fill="#7C52FF"/>
<path d="M77.7829 75.6704C80.1843 75.6704 82.1311 73.7236 82.1311 71.3222C82.1311 68.9207 80.1843 66.9739 77.7829 66.9739C75.3814 66.9739 73.4346 68.9207 73.4346 71.3222C73.4346 73.7236 75.3814 75.6704 77.7829 75.6704Z" fill="#7C52FF"/>
<path d="M4.34828 30.2537C6.74977 30.2537 8.69656 28.3069 8.69656 25.9054C8.69656 23.5039 6.74977 21.5571 4.34828 21.5571C1.94679 21.5571 0 23.5039 0 25.9054C0 28.3069 1.94679 30.2537 4.34828 30.2537Z" fill="#7C52FF"/>
<path d="M4.34828 75.6704C6.74977 75.6704 8.69656 73.7236 8.69656 71.3222C8.69656 68.9207 6.74977 66.9739 4.34828 66.9739C1.94679 66.9739 0 68.9207 0 71.3222C0 73.7236 1.94679 75.6704 4.34828 75.6704Z" fill="#7C52FF"/>
</svg>
