<svg width="171" height="146" viewBox="0 0 171 146" fill="none" xmlns="http://www.w3.org/2000/svg">
<rect x="0.5" y="0.589966" width="170.5" height="145" rx="14" fill="white" fill-opacity="0.6"/>
<path d="M35.7408 63.5134H21.1705L17.8982 72.59H13.1688L26.4493 37.8123H30.4621L43.7665 72.59H39.061L35.7408 63.5134ZM22.5559 59.7394H34.3794L28.4557 43.4732L22.5559 59.7394ZM61.2652 72.59C61.0104 72.0804 60.8034 71.1727 60.6441 69.867C58.59 72.0008 56.1377 73.0677 53.2873 73.0677C50.7395 73.0677 48.6455 72.3511 47.0054 70.918C45.3811 69.4689 44.569 67.6377 44.569 65.4242C44.569 62.7331 45.5881 60.6471 47.6264 59.1662C49.6806 57.6693 52.5628 56.9209 56.273 56.9209H60.5725V54.8906C60.5725 53.346 60.1107 52.1199 59.1871 51.2122C58.2635 50.2886 56.902 49.8268 55.1026 49.8268C53.5262 49.8268 52.2045 50.2249 51.1376 51.0211C50.0707 51.8173 49.5373 52.7807 49.5373 53.9113H45.0945C45.0945 52.6215 45.5483 51.3794 46.456 50.1851C47.3796 48.9749 48.6216 48.0195 50.1822 47.3188C51.7586 46.6182 53.4864 46.2679 55.3654 46.2679C58.3431 46.2679 60.676 47.0163 62.3639 48.5131C64.0518 49.994 64.9276 52.0403 64.9913 54.6518V66.5469C64.9913 68.9195 65.2939 70.8065 65.899 72.2078V72.59H61.2652ZM53.9322 69.2221C55.3176 69.2221 56.6313 68.8638 57.8734 68.1472C59.1154 67.4306 60.0151 66.4991 60.5725 65.3526V60.0499H57.109C51.6949 60.0499 48.9879 61.6344 48.9879 64.8032C48.9879 66.1886 49.4497 67.2714 50.3733 68.0517C51.2968 68.8319 52.4832 69.2221 53.9322 69.2221Z" fill="black"/>
<path d="M15.3301 95.9005L15.4941 97.0255L15.7344 96.0118L17.4219 90.0587H18.3711L20.0176 96.0118L20.252 97.0431L20.4336 95.8947L21.7578 90.0587H22.8887L20.8203 98.59H19.7949L18.0371 92.3732L17.9023 91.7228L17.7676 92.3732L15.9453 98.59H14.9199L12.8574 90.0587H13.9824L15.3301 95.9005ZM25.1504 98.59H24.0664V92.2501H25.1504V98.59ZM23.9785 90.5685C23.9785 90.3927 24.0312 90.2443 24.1367 90.1232C24.2461 90.0021 24.4062 89.9415 24.6172 89.9415C24.8281 89.9415 24.9883 90.0021 25.0977 90.1232C25.207 90.2443 25.2617 90.3927 25.2617 90.5685C25.2617 90.7443 25.207 90.8907 25.0977 91.0079C24.9883 91.1251 24.8281 91.1837 24.6172 91.1837C24.4062 91.1837 24.2461 91.1251 24.1367 91.0079C24.0312 90.8907 23.9785 90.7443 23.9785 90.5685ZM27.916 92.2501L27.9512 93.047C28.4355 92.4376 29.0684 92.1329 29.8496 92.1329C31.1895 92.1329 31.8652 92.8888 31.877 94.4005V98.59H30.793V94.3947C30.7891 93.9376 30.6836 93.5997 30.4766 93.381C30.2734 93.1622 29.9551 93.0529 29.5215 93.0529C29.1699 93.0529 28.8613 93.1466 28.5957 93.3341C28.3301 93.5216 28.123 93.7677 27.9746 94.0724V98.59H26.8906V92.2501H27.916ZM33.248 95.3673C33.248 94.3947 33.4785 93.6134 33.9395 93.0236C34.4004 92.4298 35.0039 92.1329 35.75 92.1329C36.4922 92.1329 37.0801 92.3868 37.5137 92.8947V89.59H38.5977V98.59H37.6016L37.5488 97.9103C37.1152 98.4415 36.5117 98.7072 35.7383 98.7072C35.0039 98.7072 34.4043 98.4064 33.9395 97.8048C33.4785 97.2032 33.248 96.4181 33.248 95.4493V95.3673ZM34.332 95.4904C34.332 96.2091 34.4805 96.7716 34.7773 97.1779C35.0742 97.5841 35.4844 97.7872 36.0078 97.7872C36.6953 97.7872 37.1973 97.4786 37.5137 96.8615V93.9493C37.1895 93.3517 36.6914 93.0529 36.0195 93.0529C35.4883 93.0529 35.0742 93.2579 34.7773 93.6681C34.4805 94.0782 34.332 94.6857 34.332 95.4904ZM39.998 95.3615C39.998 94.7404 40.1191 94.1818 40.3613 93.6857C40.6074 93.1896 40.9473 92.8068 41.3809 92.5372C41.8184 92.2677 42.3164 92.1329 42.875 92.1329C43.7383 92.1329 44.4355 92.4318 44.9668 93.0294C45.502 93.6271 45.7695 94.422 45.7695 95.4142V95.4904C45.7695 96.1075 45.6504 96.6622 45.4121 97.1544C45.1777 97.6427 44.8398 98.0236 44.3984 98.297C43.9609 98.5704 43.457 98.7072 42.8867 98.7072C42.0273 98.7072 41.3301 98.4083 40.7949 97.8107C40.2637 97.213 39.998 96.422 39.998 95.4376V95.3615ZM41.0879 95.4904C41.0879 96.1935 41.25 96.7579 41.5742 97.1837C41.9023 97.6095 42.3398 97.8224 42.8867 97.8224C43.4375 97.8224 43.875 97.6075 44.1992 97.1779C44.5234 96.7443 44.6855 96.1388 44.6855 95.3615C44.6855 94.6661 44.5195 94.1036 44.1875 93.674C43.8594 93.2404 43.4219 93.0236 42.875 93.0236C42.3398 93.0236 41.9082 93.2365 41.5801 93.6622C41.252 94.088 41.0879 94.6974 41.0879 95.4904ZM52.7422 97.0958L53.9609 92.2501H55.0449L53.1992 98.59H52.3203L50.7793 93.7853L49.2793 98.59H48.4004L46.5605 92.2501H47.6387L48.8867 96.9962L50.3633 92.2501H51.2363L52.7422 97.0958ZM59.8438 96.9083C59.8438 96.6154 59.7324 96.3888 59.5098 96.2286C59.291 96.0646 58.9062 95.924 58.3555 95.8068C57.8086 95.6896 57.373 95.549 57.0488 95.3849C56.7285 95.2208 56.4902 95.0255 56.334 94.799C56.1816 94.5724 56.1055 94.3029 56.1055 93.9904C56.1055 93.4708 56.3242 93.0314 56.7617 92.672C57.2031 92.3126 57.7656 92.1329 58.4492 92.1329C59.168 92.1329 59.75 92.3185 60.1953 92.6896C60.6445 93.0607 60.8691 93.5353 60.8691 94.1134H59.7793C59.7793 93.8165 59.6523 93.5607 59.3984 93.3458C59.1484 93.131 58.832 93.0236 58.4492 93.0236C58.0547 93.0236 57.7461 93.1095 57.5234 93.2814C57.3008 93.4532 57.1895 93.6779 57.1895 93.9552C57.1895 94.2169 57.293 94.4142 57.5 94.547C57.707 94.6798 58.0801 94.8068 58.6191 94.9279C59.1621 95.049 59.6016 95.1935 59.9375 95.3615C60.2734 95.5294 60.5215 95.7325 60.6816 95.9708C60.8457 96.2052 60.9277 96.4923 60.9277 96.8322C60.9277 97.3986 60.7012 97.8536 60.248 98.1974C59.7949 98.5372 59.207 98.7072 58.4844 98.7072C57.9766 98.7072 57.5273 98.6173 57.1367 98.4376C56.7461 98.2579 56.4395 98.0079 56.2168 97.6876C55.998 97.3634 55.8887 97.0138 55.8887 96.6388H56.9727C56.9922 97.0021 57.1367 97.2911 57.4062 97.506C57.6797 97.7169 58.0391 97.8224 58.4844 97.8224C58.8945 97.8224 59.2227 97.7404 59.4688 97.5763C59.7188 97.4083 59.8438 97.1857 59.8438 96.9083Z" fill="black"/>
<path d="M16.0039 111.787C15.0391 111.51 14.3359 111.17 13.8945 110.768C13.457 110.361 13.2383 109.861 13.2383 109.268C13.2383 108.596 13.5059 108.041 14.041 107.604C14.5801 107.162 15.2793 106.942 16.1387 106.942C16.7246 106.942 17.2461 107.055 17.7031 107.281C18.1641 107.508 18.5195 107.82 18.7695 108.219C19.0234 108.617 19.1504 109.053 19.1504 109.526H18.0195C18.0195 109.01 17.8555 108.606 17.5273 108.313C17.1992 108.016 16.7363 107.867 16.1387 107.867C15.584 107.867 15.1504 107.99 14.8379 108.236C14.5293 108.479 14.375 108.817 14.375 109.25C14.375 109.598 14.5215 109.893 14.8145 110.135C15.1113 110.373 15.6133 110.592 16.3203 110.791C17.0312 110.99 17.5859 111.211 17.9844 111.453C18.3867 111.692 18.6836 111.971 18.875 112.291C19.0703 112.611 19.168 112.988 19.168 113.422C19.168 114.113 18.8984 114.668 18.3594 115.086C17.8203 115.5 17.0996 115.707 16.1973 115.707C15.6113 115.707 15.0645 115.596 14.5566 115.373C14.0488 115.147 13.6562 114.838 13.3789 114.447C13.1055 114.057 12.9688 113.613 12.9688 113.117H14.0996C14.0996 113.633 14.2891 114.041 14.668 114.342C15.0508 114.639 15.5605 114.787 16.1973 114.787C16.791 114.787 17.2461 114.666 17.5625 114.424C17.8789 114.182 18.0371 113.852 18.0371 113.434C18.0371 113.016 17.8906 112.693 17.5977 112.467C17.3047 112.236 16.7734 112.01 16.0039 111.787ZM23.0762 115.707C22.2168 115.707 21.5176 115.426 20.9785 114.863C20.4395 114.297 20.1699 113.541 20.1699 112.596V112.397C20.1699 111.768 20.2891 111.207 20.5273 110.715C20.7695 110.219 21.1055 109.832 21.5352 109.555C21.9688 109.274 22.4375 109.133 22.9414 109.133C23.7656 109.133 24.4062 109.404 24.8633 109.947C25.3203 110.49 25.5488 111.268 25.5488 112.279V112.731H21.2539C21.2695 113.356 21.4512 113.861 21.7988 114.248C22.1504 114.631 22.5957 114.822 23.1348 114.822C23.5176 114.822 23.8418 114.744 24.1074 114.588C24.373 114.432 24.6055 114.225 24.8047 113.967L25.4668 114.483C24.9355 115.299 24.1387 115.707 23.0762 115.707ZM22.9414 110.024C22.5039 110.024 22.1367 110.184 21.8398 110.504C21.543 110.82 21.3594 111.266 21.2891 111.84H24.4648V111.758C24.4336 111.207 24.2852 110.781 24.0195 110.481C23.7539 110.176 23.3945 110.024 22.9414 110.024ZM26.5508 112.367C26.5508 111.379 26.7793 110.594 27.2363 110.012C27.6934 109.426 28.2988 109.133 29.0527 109.133C29.8262 109.133 30.4297 109.406 30.8633 109.953L30.916 109.25H31.9062V115.438C31.9062 116.258 31.6621 116.904 31.1738 117.377C30.6895 117.85 30.0371 118.086 29.2168 118.086C28.7598 118.086 28.3125 117.988 27.875 117.793C27.4375 117.598 27.1035 117.33 26.873 116.99L27.4355 116.34C27.9004 116.914 28.4688 117.201 29.1406 117.201C29.668 117.201 30.0781 117.053 30.3711 116.756C30.668 116.459 30.8164 116.041 30.8164 115.502V114.957C30.3828 115.457 29.791 115.707 29.041 115.707C28.2988 115.707 27.6973 115.408 27.2363 114.811C26.7793 114.213 26.5508 113.399 26.5508 112.367ZM27.6406 112.49C27.6406 113.205 27.7871 113.768 28.0801 114.178C28.373 114.584 28.7832 114.787 29.3105 114.787C29.9941 114.787 30.4961 114.477 30.8164 113.856V110.961C30.4844 110.356 29.9863 110.053 29.3223 110.053C28.7949 110.053 28.3828 110.258 28.0859 110.668C27.7891 111.078 27.6406 111.686 27.6406 112.49ZM33.2598 112.361C33.2598 111.74 33.3809 111.182 33.623 110.686C33.8691 110.19 34.209 109.807 34.6426 109.537C35.0801 109.268 35.5781 109.133 36.1367 109.133C37 109.133 37.6973 109.432 38.2285 110.029C38.7637 110.627 39.0312 111.422 39.0312 112.414V112.49C39.0312 113.108 38.9121 113.662 38.6738 114.154C38.4395 114.643 38.1016 115.024 37.6602 115.297C37.2227 115.57 36.7188 115.707 36.1484 115.707C35.2891 115.707 34.5918 115.408 34.0566 114.811C33.5254 114.213 33.2598 113.422 33.2598 112.438V112.361ZM34.3496 112.49C34.3496 113.193 34.5117 113.758 34.8359 114.184C35.1641 114.609 35.6016 114.822 36.1484 114.822C36.6992 114.822 37.1367 114.608 37.4609 114.178C37.7852 113.744 37.9473 113.139 37.9473 112.361C37.9473 111.666 37.7812 111.104 37.4492 110.674C37.1211 110.24 36.6836 110.024 36.1367 110.024C35.6016 110.024 35.1699 110.236 34.8418 110.662C34.5137 111.088 34.3496 111.697 34.3496 112.49ZM43.0215 115.707C42.1621 115.707 41.4629 115.426 40.9238 114.863C40.3848 114.297 40.1152 113.541 40.1152 112.596V112.397C40.1152 111.768 40.2344 111.207 40.4727 110.715C40.7148 110.219 41.0508 109.832 41.4805 109.555C41.9141 109.274 42.3828 109.133 42.8867 109.133C43.7109 109.133 44.3516 109.404 44.8086 109.947C45.2656 110.49 45.4941 111.268 45.4941 112.279V112.731H41.1992C41.2148 113.356 41.3965 113.861 41.7441 114.248C42.0957 114.631 42.541 114.822 43.0801 114.822C43.4629 114.822 43.7871 114.744 44.0527 114.588C44.3184 114.432 44.5508 114.225 44.75 113.967L45.4121 114.483C44.8809 115.299 44.084 115.707 43.0215 115.707ZM42.8867 110.024C42.4492 110.024 42.082 110.184 41.7852 110.504C41.4883 110.82 41.3047 111.266 41.2344 111.84H44.4102V111.758C44.3789 111.207 44.2305 110.781 43.9648 110.481C43.6992 110.176 43.3398 110.024 42.8867 110.024ZM55.9062 107.059V112.859C55.9023 113.664 55.6484 114.322 55.1445 114.834C54.6445 115.346 53.9648 115.633 53.1055 115.695L52.8066 115.707C51.873 115.707 51.1289 115.455 50.5742 114.951C50.0195 114.447 49.7383 113.754 49.7305 112.871V107.059H50.8438V112.836C50.8438 113.453 51.0137 113.934 51.3535 114.277C51.6934 114.617 52.1777 114.787 52.8066 114.787C53.4434 114.787 53.9297 114.617 54.2656 114.277C54.6055 113.938 54.7754 113.459 54.7754 112.842V107.059H55.9062ZM58.8887 115.59H57.7637V107.059H58.8887V115.59Z" fill="black"/>
<rect x="1" y="1.08997" width="169.5" height="144" rx="13.5" stroke="black" stroke-opacity="0.1"/>
</svg>
