<svg width="20" height="20" viewBox="0 0 20 20" fill="none" xmlns="http://www.w3.org/2000/svg">
<path d="M3 0H0V2.5C0 3.32843 0.671573 4 1.5 4C2.32843 4 3 3.32843 3 2.5V0Z" fill="white"/>
<path d="M0 17.5V20H3V17.5C3 16.6716 2.32843 16 1.5 16C0.671573 16 0 16.6716 0 17.5Z" fill="white"/>
<path d="M8 20H5V17.5C5 16.6716 5.67157 16 6.5 16C7.32843 16 8 16.6716 8 17.5V20Z" fill="white"/>
<path d="M13 20H10V17.5C10 16.6716 10.6716 16 11.5 16C12.3284 16 13 16.6716 13 17.5V20Z" fill="white"/>
<path d="M10 0H13V2.5C13 3.32843 12.3284 4 11.5 4C10.6716 4 10 3.32843 10 2.5V0Z" fill="white"/>
<path d="M5 0H8V2.5C8 3.32843 7.32843 4 6.5 4C5.67157 4 5 3.32843 5 2.5V0Z" fill="white"/>
<path d="M0 13.5C0 12.9477 0.447715 12.5 1 12.5H12C12.5523 12.5 13 12.9477 13 13.5C13 14.0523 12.5523 14.5 12 14.5H1C0.447715 14.5 0 14.0523 0 13.5Z" fill="white"/>
<path d="M0 10C0 10.5523 0.447715 11 1 11H12C12.5523 11 13 10.5523 13 10C13 9.44772 12.5523 9 12 9H1C0.447715 9 0 9.44772 0 10Z" fill="white"/>
<path d="M0 6.5C0 7.05228 0.447715 7.5 1 7.5H12C12.5523 7.5 13 7.05228 13 6.5C13 5.94772 12.5523 5.5 12 5.5H1C0.447715 5.5 0 5.94772 0 6.5Z" fill="white"/>
</svg>
