<svg width="20" height="20" viewBox="0 0 20 20" fill="none" xmlns="http://www.w3.org/2000/svg">
<path d="M12 0H6C6 1.10455 6.89539 2 8 2H12V0Z" fill="white"/>
<path d="M4 0H0V4H4C5.10461 4 6 3.10455 6 2C6 0.895447 5.10461 0 4 0Z" fill="white"/>
<path d="M0 11.5352V18.4648C0.588379 18.8052 1.27148 19 2 19C4.20911 19 6 17.2092 6 15C6 12.7908 4.20911 11 2 11C1.27148 11 0.588379 11.1948 0 11.5352Z" fill="white"/>
<path d="M12 20H6C6 18.8954 6.89539 18 8 18H12V20Z" fill="white"/>
<path d="M6 9.5C6 8.39545 6.89539 7.5 8 7.5H12V11.5H8C6.89539 11.5 6 10.6046 6 9.5Z" fill="white"/>
<path d="M0.5 7.5C0.5 6.67157 1.17163 6 2 6C2.82837 6 3.5 6.67157 3.5 7.5C3.5 8.32843 2.82837 9 2 9C1.17163 9 0.5 8.32843 0.5 7.5Z" fill="white"/>
<path d="M10 3.5C9.44775 3.5 9 3.94769 9 4.5C9 5.05231 9.44775 5.5 10 5.5C10.5522 5.5 11 5.05231 11 4.5C11 3.94769 10.5522 3.5 10 3.5Z" fill="white"/>
<path d="M10 13.5C9.17163 13.5 8.5 14.1716 8.5 15C8.5 15.8284 9.17163 16.5 10 16.5C10.8284 16.5 11.5 15.8284 11.5 15C11.5 14.1716 10.8284 13.5 10 13.5Z" fill="white"/>
</svg>
