<svg width="20" height="20" viewBox="0 0 20 20" fill="none" xmlns="http://www.w3.org/2000/svg">
<path d="M0 0V0.5C0 1.32843 0.671573 2 1.5 2C2.32843 2 3 1.32843 3 0.5V0H0Z" fill="#141721"/>
<path d="M10 20C11.1046 20 12 19.1046 12 18V16.5C12 15.6716 11.3284 15 10.5 15C9.67157 15 9 15.6716 9 16.5V17H2C0.895431 17 0 17.8954 0 19V20H10Z" fill="#141721"/>
<path d="M0 13.5C0 14.3284 0.671573 15 1.5 15C2.32843 15 3 14.3284 3 13.5V13H10C11.1046 13 12 12.1046 12 11V9.5C12 8.67157 11.3284 8 10.5 8C9.67157 8 9 8.67157 9 9.5V10H2C0.895431 10 0 10.8954 0 12V13.5Z" fill="#141721"/>
<path d="M0 6.5C0 7.32843 0.671573 8 1.5 8C2.32843 8 3 7.32843 3 6.5V6H10C11.1046 6 12 5.10457 12 4V2.5C12 1.67157 11.3284 1 10.5 1C9.67157 1 9 1.67157 9 2.5V3H2C0.895431 3 0 3.89543 0 5V6.5Z" fill="#141721"/>
</svg>
