<svg xmlns="http://www.w3.org/2000/svg" width="12" height="12" fill="none" viewBox="0 0 12 12">
  <path fill="#000" fill-rule="evenodd" d="M3 1.5a.5.5 0 0 0-.5.5v8a.5.5 0 0 0 .5.5h1V9a.5.5 0 0 1 .5-.5h3A.5.5 0 0 1 8 9v1.5h1a.5.5 0 0 0 .5-.5V2a.5.5 0 0 0-.5-.5H3Zm6 10a1.5 1.5 0 0 0 1.5-1.5V2A1.5 1.5 0 0 0 9 .5H3A1.5 1.5 0 0 0 1.5 2v8A1.5 1.5 0 0 0 3 11.5h6Zm-2-1v-1H5v1h2ZM3.5 3a.5.5 0 0 1 .5-.5h.005a.5.5 0 0 1 0 1H4a.5.5 0 0 1-.5-.5Zm2 0a.5.5 0 0 1 .5-.5h.005a.5.5 0 0 1 0 1H6a.5.5 0 0 1-.5-.5Zm2 0a.5.5 0 0 1 .5-.5h.005a.5.5 0 0 1 0 1H8a.5.5 0 0 1-.5-.5Zm-4 2a.5.5 0 0 1 .5-.5h.005a.5.5 0 0 1 0 1H4a.5.5 0 0 1-.5-.5Zm2 0a.5.5 0 0 1 .5-.5h.005a.5.5 0 0 1 0 1H6a.5.5 0 0 1-.5-.5Zm2 0a.5.5 0 0 1 .5-.5h.005a.5.5 0 0 1 0 1H8a.5.5 0 0 1-.5-.5Zm-4 2a.5.5 0 0 1 .5-.5h.005a.5.5 0 0 1 0 1H4a.5.5 0 0 1-.5-.5Zm2 0a.5.5 0 0 1 .5-.5h.005a.5.5 0 0 1 0 1H6a.5.5 0 0 1-.5-.5Zm2 0a.5.5 0 0 1 .5-.5h.005a.5.5 0 0 1 0 1H8a.5.5 0 0 1-.5-.5Z" clip-rule="evenodd"/>
</svg>
