<svg xmlns="http://www.w3.org/2000/svg" width="12" height="12" fill="none" viewBox="0 0 12 12">
  <path fill="#000" d="m1.758 10.081.365-.342-.008-.009-.357.351Zm-.854-.868.357-.35-.002-.002-.355.352Zm.051-1.21L.64 7.616l-.007.005.323.382Zm3.33-1.61.107.489.004-.001-.11-.488Zm3.417 0-.111.488h.004l.107-.488Zm3.341 1.621.324-.381-.006-.005-.318.386Zm.054 1.207.357.35-.357-.35Zm-.854.869-.356-.35-.003.003.36.347Zm-1.058.08-.308.395.004.003.304-.397Zm-1-.61.211-.454h-.001l-.21.454Zm-.472-.741h-.5v.003l.5-.003Zm0-.735h.5a.5.5 0 0 0-.365-.482l-.135.482Zm-3.416 0-.135-.482a.5.5 0 0 0-.365.482h.5Zm0 .735.5.003v-.003h-.5Zm-.472.741-.21-.454.21.454Zm-1 .61.304.398.004-.003-.307-.394ZM6 4.75l-.354.353a.5.5 0 0 0 .707 0L6 4.75Zm-3-3v-.5a.5.5 0 0 0-.5.5H3ZM2.5 4a.5.5 0 1 0 1 0h-1Zm2.75-1.75a.5.5 0 0 0 0-1v1Zm3.353.603a.5.5 0 0 0-.707-.707l.707.707ZM2.115 9.73l-.854-.868-.713.701.854.869.713-.702Zm-.856-.87a.32.32 0 0 1-.071-.11l-.933.36c.065.17.165.325.294.455l.71-.704Zm-.071-.11a.331.331 0 0 1-.022-.133l-.999-.042c-.008.182.022.364.088.535l.933-.36Zm-.022-.133a.33.33 0 0 1 .033-.13L.3 8.05a1.33 1.33 0 0 0-.132.525l1 .042Zm.033-.13a.317.317 0 0 1 .08-.103l-.647-.763C.492 7.74.38 7.886.3 8.05l.9.437Zm.073-.097a7.41 7.41 0 0 1 3.12-1.508l-.212-.977a8.41 8.41 0 0 0-3.541 1.71l.633.775Zm3.124-1.51a7.222 7.222 0 0 1 3.195 0l.221-.974a8.223 8.223 0 0 0-3.637 0l.221.975Zm3.2.002a7.41 7.41 0 0 1 3.13 1.519l.635-.773a8.41 8.41 0 0 0-3.553-1.723l-.213.977Zm3.124 1.514a.31.31 0 0 1 .08.102l.898-.438a1.317 1.317 0 0 0-.331-.427l-.647.763Zm.08.102a.34.34 0 0 1 .032.13l1-.045a1.329 1.329 0 0 0-.134-.523l-.899.438Zm.032.13a.33.33 0 0 1-.02.133l.934.356a1.33 1.33 0 0 0 .085-.534l-.999.045Zm-.02.133a.321.321 0 0 1-.071.11l.713.7a1.32 1.32 0 0 0 .292-.454l-.935-.356Zm-.071.11-.854.868.713.701.854-.868-.713-.701Zm-.857.872a.3.3 0 0 1-.193.091l.076.998a1.3 1.3 0 0 0 .836-.395l-.72-.694Zm-.193.091a.296.296 0 0 1-.203-.06l-.607.794c.253.194.568.288.886.264l-.076-.998Zm-.199-.057a5.652 5.652 0 0 0-1.096-.67l-.421.907c.32.148.623.333.902.551l.615-.788Zm-1.097-.671a.31.31 0 0 1-.13-.115l-.844.538c.135.211.327.38.555.485l.419-.908Zm-.13-.115a.329.329 0 0 1-.052-.175l-1 .006c.001.25.073.495.208.707l.843-.538Zm-.052-.172v-.735h-1v.735h1Zm-.365-1.217a6.838 6.838 0 0 0-3.686 0l.27.963a5.838 5.838 0 0 1 3.146 0l.27-.963Zm-4.05.482v.735h1v-.735h-1Zm0 .732a.329.329 0 0 1-.052.175l.843.538c.135-.212.207-.457.208-.707l-1-.006Zm-.052.175a.31.31 0 0 1-.13.115l.418.908a1.31 1.31 0 0 0 .555-.485l-.843-.538Zm-.132.116c-.39.18-.757.405-1.096.67l.615.788c.28-.218.582-.403.902-.551l-.42-.907Zm-1.092.667a.296.296 0 0 1-.205.06l-.084.997c.322.027.64-.067.896-.263l-.607-.794Zm-.205.06a.3.3 0 0 1-.194-.095l-.73.684a1.3 1.3 0 0 0 .84.408l.084-.997Zm4.036-5.438-3-3-.707.708 3 3 .707-.708ZM3.5 4V1.75h-1V4h1ZM3 2.25h2.25v-1H3v1Zm3.354 2.853 2.25-2.25-.707-.707-2.25 2.25.707.707Z"/>
</svg>
