<svg width="684" height="451" viewBox="0 0 684 451" fill="none" xmlns="http://www.w3.org/2000/svg">
<g filter="url(#filter0_d)">
<rect x="325" y="78" width="322" height="152" rx="4" fill="white"/>
<circle cx="353" cy="102" r="12" fill="#FFA360"/>
<rect x="373" y="98" width="92" height="8" rx="3" fill="#DFDEE5"/>
<rect width="322" height="40" transform="translate(325 118)" fill="#ECE1FF"/>
<circle cx="353" cy="138" r="12" fill="#A687FF"/>
<rect x="373" y="134" width="127.336" height="8" rx="3" fill="#B3B0C0"/>
<rect width="34" height="32" transform="translate(529 122)" fill="#6C3DFF"/>
<path d="M549.333 137V134.667C549.333 134.3 549.033 134 548.667 134H540.667C540.3 134 540 134.3 540 134.667V141.333C540 141.7 540.3 142 540.667 142H548.667C549.033 142 549.333 141.7 549.333 141.333V139L552 141.667V134.333L549.333 137Z" fill="white"/>
<g filter="url(#filter1_i)">
<rect width="34" height="32" transform="translate(563 122)" fill="#6C3DFF"/>
<path d="M585.333 131.333H574.667C573.933 131.333 573.34 131.933 573.34 132.667L573.333 144.667L576 142H585.333C586.067 142 586.667 141.4 586.667 140.667V132.667C586.667 131.933 586.067 131.333 585.333 131.333ZM578 137.333H576.667V136H578V137.333ZM580.667 137.333H579.333V136H580.667V137.333ZM583.333 137.333H582V136H583.333V137.333Z" fill="white"/>
</g>
<g filter="url(#filter2_i)">
<rect width="34" height="32" transform="translate(597 122)" fill="#6C3DFF"/>
<path d="M610.413 137.193C611.373 139.08 612.92 140.62 614.807 141.587L616.273 140.12C616.453 139.94 616.72 139.88 616.953 139.96C617.7 140.207 618.507 140.34 619.333 140.34C619.7 140.34 620 140.64 620 141.007V143.333C620 143.7 619.7 144 619.333 144C613.073 144 608 138.927 608 132.667C608 132.3 608.3 132 608.667 132H611C611.367 132 611.667 132.3 611.667 132.667C611.667 133.5 611.8 134.3 612.047 135.047C612.12 135.28 612.067 135.54 611.88 135.727L610.413 137.193Z" fill="white"/>
</g>
<circle cx="353" cy="174" r="12" fill="#FFA7A7"/>
<rect x="373" y="170" width="111" height="8" rx="3" fill="#DFDEE5"/>
<circle cx="353" cy="206" r="12" fill="#FFCE1C"/>
<rect x="373" y="202" width="142" height="8" rx="3" fill="#DFDEE5"/>
</g>
<g filter="url(#filter3_d)">
<rect x="249" y="10" width="88" height="88" rx="4" fill="#322D37"/>
<path d="M306.583 31C306.261 31 306 31.2612 306 31.5833V34.9167C306 35.2388 306.261 35.5 306.583 35.5H309.917C310.239 35.5 310.5 35.2388 310.5 34.9167V31.5833C310.5 31.2612 310.239 31 309.917 31H306.583Z" fill="#EAE9EF"/>
<path d="M306.583 37C306.261 37 306 37.2612 306 37.5833V40.9167C306 41.2388 306.261 41.5 306.583 41.5H309.917C310.239 41.5 310.5 41.2388 310.5 40.9167V37.5833C310.5 37.2612 310.239 37 309.917 37H306.583Z" fill="#EAE9EF"/>
<path d="M312 31.5833C312 31.2612 312.261 31 312.583 31H315.917C316.239 31 316.5 31.2612 316.5 31.5833V34.9167C316.5 35.2388 316.239 35.5 315.917 35.5H312.583C312.261 35.5 312 35.2388 312 34.9167V31.5833Z" fill="#EAE9EF"/>
<path d="M312.583 37C312.261 37 312 37.2612 312 37.5833V40.9167C312 41.2388 312.261 41.5 312.583 41.5H315.917C316.239 41.5 316.5 41.2388 316.5 40.9167V37.5833C316.5 37.2612 316.239 37 315.917 37H312.583Z" fill="#EAE9EF"/>
<path d="M257 30C257 24.3431 257 21.5147 258.757 19.7574C260.515 18 263.343 18 269 18H281C286.657 18 289.485 18 291.243 19.7574C293 21.5147 293 24.3431 293 30V42C293 47.6569 293 50.4853 291.243 52.2426C289.485 54 286.657 54 281 54H269C263.343 54 260.515 54 258.757 52.2426C257 50.4853 257 47.6569 257 42V30Z" fill="#6C3DFF"/>
<path d="M279.955 35.5909H274.864V39.4091H279.955V35.5909ZM282.5 40.6818V31.76C282.5 31.06 281.927 30.5 281.227 30.5H269.773C269.073 30.5 268.5 31.06 268.5 31.76V40.6818C268.5 41.3818 269.073 41.9545 269.773 41.9545H281.227C281.927 41.9545 282.5 41.3818 282.5 40.6818ZM281.227 40.6945H269.773V31.7536H281.227V40.6945Z" fill="white"/>
<path fill-rule="evenodd" clip-rule="evenodd" d="M317.833 76.3333C317.833 76.975 317.308 77.5 316.667 77.5H306.167C305.525 77.5 305 76.975 305 76.3333V68.155C305 67.5133 305.525 67 306.167 67H316.667C317.308 67 317.833 67.5133 317.833 68.155V76.3333ZM312.583 76.345H310.25V74.5833H312.583V76.345ZM313.75 76.345V74.5833H316.667V76.345H313.75ZM316.667 73.4167V68.1492H306.167V73.4167H316.667ZM309.083 74.5833V76.345H306.167V74.5833H309.083Z" fill="#EAE9EF"/>
<path fill-rule="evenodd" clip-rule="evenodd" d="M281.833 76.3333V68.155C281.833 67.5133 281.308 67 280.667 67H270.167C269.525 67 269 67.5133 269 68.155V76.3333C269 76.975 269.525 77.5 270.167 77.5H280.667C281.308 77.5 281.833 76.975 281.833 76.3333ZM276 76.345H280.667V72.8333H276V76.345ZM274.833 76.345V72.8333H270.167V76.345H274.833ZM276 71.6667H280.667V68.1492H276V71.6667ZM274.833 68.1492V71.6667H270.167V68.1492H274.833Z" fill="#EAE9EF"/>
</g>
<g filter="url(#filter4_d)">
<g filter="url(#filter5_d)">
<rect x="249" y="180" width="192" height="225" rx="8" fill="#FFEBEC"/>
<rect x="281" y="200.5" width="128" height="128" rx="64" fill="#FDA2A8"/>
<path d="M313.66 278.5H328.318C338.65 278.5 344.614 273.586 344.614 264.052C344.614 254.476 338.65 249.604 328.318 249.604H313.66V278.5ZM323.488 271.444V256.66H327.94C332.224 256.66 334.534 259.18 334.534 263.128V264.892C334.534 268.882 332.224 271.444 327.94 271.444H323.488ZM349.211 278.5H359.039V269.554H369.371C374.873 269.554 378.821 265.606 378.821 259.516C378.821 253.636 374.957 249.604 369.371 249.604H349.211V278.5ZM359.039 262.582V256.618H366.347C368.405 256.618 369.413 257.626 369.413 259.6C369.413 261.574 368.363 262.582 366.347 262.582H359.039Z" fill="#A2114D"/>
<g clip-path="url(#clip0)">
<g filter="url(#filter6_d)">
<path d="M249 293.5L441 317.5V411H249V293.5Z" fill="url(#paint0_linear)"/>
<path d="M249 293.5L441 317.5V411H249V293.5Z" fill="white"/>
</g>
<rect x="265" y="333" width="127.336" height="12" rx="4" fill="#DFDEE5"/>
<rect x="265" y="353" width="81" height="8" rx="3" fill="#DFDEE5"/>
<g clip-path="url(#clip1)">
<rect x="265" y="365" width="32" height="32" rx="6" fill="white" fill-opacity="0.25"/>
<path d="M281 382.333C282.107 382.333 282.993 381.44 282.993 380.333L283 376.333C283 375.227 282.107 374.333 281 374.333C279.893 374.333 279 375.227 279 376.333V380.333C279 381.44 279.893 382.333 281 382.333ZM284.533 380.333C284.533 382.333 282.84 383.733 281 383.733C279.16 383.733 277.467 382.333 277.467 380.333H276.333C276.333 382.607 278.147 384.487 280.333 384.813V387H281.667V384.813C283.853 384.493 285.667 382.613 285.667 380.333H284.533Z" fill="#221F24"/>
<g filter="url(#filter7_d)">
<rect x="301" y="365" width="32" height="32" rx="6" fill="white" fill-opacity="0.25"/>
<path d="M317 378.333C317.733 378.333 318.333 377.733 318.333 377C318.333 376.267 317.733 375.667 317 375.667C316.267 375.667 315.667 376.267 315.667 377C315.667 377.733 316.267 378.333 317 378.333ZM317 379.667C316.267 379.667 315.667 380.267 315.667 381C315.667 381.733 316.267 382.333 317 382.333C317.733 382.333 318.333 381.733 318.333 381C318.333 380.267 317.733 379.667 317 379.667ZM317 383.667C316.267 383.667 315.667 384.267 315.667 385C315.667 385.733 316.267 386.333 317 386.333C317.733 386.333 318.333 385.733 318.333 385C318.333 384.267 317.733 383.667 317 383.667Z" fill="#221F24"/>
</g>
</g>
<rect x="265" y="281" width="32" height="32" rx="6" fill="#6C3DFF" fill-opacity="0.95"/>
<path d="M290 300.5C290 301.328 289.328 302 288.5 302C287.672 302 287 301.328 287 300.5L287 294.5C287 293.672 287.672 293 288.5 293C289.328 293 290 293.672 290 294.5V300.5Z" fill="white"/>
<path d="M275 299.5C275 300.328 274.328 301 273.5 301C272.672 301 272 300.328 272 299.5L272 296.5C272 295.672 272.672 295 273.5 295C274.328 295 275 295.672 275 296.5L275 299.5Z" fill="white"/>
<path d="M285 304.5C285 305.328 284.328 306 283.5 306C282.672 306 282 305.328 282 304.5L282 289.5C282 288.672 282.672 288 283.5 288C284.328 288 285 288.672 285 289.5L285 304.5Z" fill="white"/>
<path d="M280 301.5C280 302.328 279.328 303 278.5 303C277.672 303 277 302.328 277 301.5L277 293.5C277 292.672 277.672 292 278.5 292C279.328 292 280 292.672 280 293.5L280 301.5Z" fill="white"/>
</g>
</g>
<rect x="2" y="-2" width="196" height="229" rx="10" transform="matrix(-1 0 0 1 445 180)" stroke="#6C3DFF" stroke-opacity="0.75" stroke-width="4"/>
</g>
<g filter="url(#filter8_d)">
<rect x="635" y="218" width="24" height="24" rx="4" fill="#D1C0FF"/>
<rect x="607" y="218" width="24" height="24" rx="4" fill="#A687FF"/>
<rect x="579" y="218" width="24" height="24" rx="4" fill="#6C3DFF"/>
<rect x="551" y="218" width="24" height="24" rx="4" fill="#3A1C95"/>
<rect x="523" y="218" width="24" height="24" rx="4" fill="#160645"/>
</g>
<g filter="url(#filter9_d)">
<path d="M16 140C16 137.791 17.7909 136 20 136H287C289.209 136 291 137.791 291 140V160H16V140Z" fill="#8B65FF"/>
<rect x="28" y="144" width="130" height="8" rx="3" fill="#ECE1FF"/>
<path d="M16 160H291V224C291 226.209 289.209 228 287 228H20C17.7909 228 16 226.209 16 224V160Z" fill="#322D37"/>
<circle cx="46" cy="194" r="18" fill="#FFBC0F"/>
<rect x="70" y="180" width="83" height="12" rx="4" fill="#575564"/>
<rect x="70" y="199" width="53" height="8" rx="3" fill="#575564"/>
<path d="M185 180C185 175.582 188.582 172 193 172H221C225.418 172 229 175.582 229 180V208C229 212.418 225.418 216 221 216H193C188.582 216 185 212.418 185 208V180Z" fill="#D81616"/>
<path d="M207 189.833C205.667 189.833 204.375 190.042 203.167 190.433V193.017C203.167 193.342 202.975 193.633 202.7 193.767C201.883 194.175 201.142 194.7 200.483 195.308C200.333 195.458 200.125 195.542 199.9 195.542C199.667 195.542 199.458 195.45 199.308 195.3L197.242 193.233C197.092 193.092 197 192.883 197 192.65C197 192.417 197.092 192.208 197.242 192.058C199.783 189.65 203.217 188.167 207 188.167C210.783 188.167 214.217 189.65 216.758 192.058C216.908 192.208 217 192.417 217 192.65C217 192.883 216.908 193.092 216.758 193.242L214.692 195.308C214.542 195.458 214.333 195.55 214.1 195.55C213.875 195.55 213.667 195.458 213.517 195.317C212.858 194.7 212.108 194.183 211.292 193.775C211.017 193.642 210.825 193.358 210.825 193.025V190.442C209.625 190.042 208.333 189.833 207 189.833Z" fill="white"/>
<path d="M209.992 197.408L207.833 199.558V193.167H206.167V199.558L204.008 197.408L202.833 198.583L207 202.75L211.167 198.583L209.992 197.408Z" fill="white"/>
<path d="M235 180C235 175.582 238.582 172 243 172H271C275.418 172 279 175.582 279 180V208C279 212.418 275.418 216 271 216H243C238.582 216 235 212.418 235 208V180Z" fill="#0C9B02"/>
<path d="M252.517 192.992C253.717 195.35 255.65 197.275 258.008 198.483L259.842 196.65C260.067 196.425 260.4 196.35 260.692 196.45C261.625 196.758 262.633 196.925 263.667 196.925C264.125 196.925 264.5 197.3 264.5 197.758V200.667C264.5 201.125 264.125 201.5 263.667 201.5C255.842 201.5 249.5 195.158 249.5 187.333C249.5 186.875 249.875 186.5 250.333 186.5H253.25C253.708 186.5 254.083 186.875 254.083 187.333C254.083 188.375 254.25 189.375 254.558 190.308C254.65 190.6 254.583 190.925 254.35 191.158L252.517 192.992Z" fill="white"/>
</g>
<g filter="url(#filter10_d)">
<circle cx="648" cy="78" r="20" fill="#D1FFBC"/>
<path d="M648 80C649.66 80 650.99 78.66 650.99 77L651 71C651 69.34 649.66 68 648 68C646.34 68 645 69.34 645 71V77C645 78.66 646.34 80 648 80ZM653.3 77C653.3 80 650.76 82.1 648 82.1C645.24 82.1 642.7 80 642.7 77H641C641 80.41 643.72 83.23 647 83.72V87H649V83.72C652.28 83.24 655 80.42 655 77H653.3Z" fill="#052F01"/>
</g>
<g filter="url(#filter11_d)">
<circle cx="441" cy="405" r="20" fill="#160645"/>
<path d="M441.74 398.47C444.1 399.5 445.35 402.03 444.92 404.46C446.19 405.56 447 407.19 447 409V409.17C447.31 409.06 447.65 409 448 409C448.796 409 449.559 409.316 450.121 409.879C450.684 410.441 451 411.204 451 412C451 412.796 450.684 413.559 450.121 414.121C449.559 414.684 448.796 415 448 415H435C433.939 415 432.922 414.579 432.172 413.828C431.421 413.078 431 412.061 431 411C431 409.939 431.421 408.922 432.172 408.172C432.922 407.421 433.939 407 435 407H435.27C434 405.45 433.6 403.24 434.5 401.26C435.72 398.5 438.97 397.24 441.74 398.47ZM440.93 400.3C439.16 399.5 437.09 400.31 436.31 402.07C435.85 403.09 435.93 404.22 436.41 405.13C437.5 403.83 439.16 403 441 403C441.7 403 442.38 403.12 443 403.34C442.94 402.06 442.18 400.86 440.93 400.3ZM442.55 396.64C442 396.4 441.45 396.23 440.88 396.12L443.37 394.82L444.27 397.71C443.76 397.29 443.19 396.93 442.55 396.64ZM435.09 397.44C434.6 397.79 434.17 398.19 433.8 398.63L433.91 395.82L436.87 396.5C436.25 396.71 435.65 397.03 435.09 397.44ZM447 402.71C446.91 402.12 446.78 401.55 446.59 401L448.97 402.5L446.92 404.73C447.03 404.08 447.05 403.4 447 402.71ZM432.04 404.3C432.11 404.9 432.24 405.47 432.43 406L430.06 404.5L432.1 402.28C432 402.93 431.97 403.61 432.04 404.3ZM448 411H445V409C445 407.939 444.579 406.922 443.828 406.172C443.078 405.421 442.061 405 441 405C439.939 405 438.922 405.421 438.172 406.172C437.421 406.922 437 407.939 437 409H435C434.47 409 433.961 409.211 433.586 409.586C433.211 409.961 433 410.47 433 411C433 411.531 433.211 412.039 433.586 412.414C433.961 412.789 434.47 413 435 413H448C448.265 413 448.52 412.895 448.707 412.707C448.895 412.52 449 412.265 449 412C449 411.735 448.895 411.48 448.707 411.293C448.52 411.105 448.265 411 448 411Z" fill="white"/>
</g>
<defs>
<filter id="filter0_d" x="317" y="72" width="338" height="168" filterUnits="userSpaceOnUse" color-interpolation-filters="sRGB">
<feFlood flood-opacity="0" result="BackgroundImageFix"/>
<feColorMatrix in="SourceAlpha" type="matrix" values="0 0 0 0 0 0 0 0 0 0 0 0 0 0 0 0 0 0 127 0"/>
<feOffset dy="2"/>
<feGaussianBlur stdDeviation="4"/>
<feColorMatrix type="matrix" values="0 0 0 0 0.0235294 0 0 0 0 0.0235294 0 0 0 0 0.0627451 0 0 0 0.25 0"/>
<feBlend mode="normal" in2="BackgroundImageFix" result="effect1_dropShadow"/>
<feBlend mode="normal" in="SourceGraphic" in2="effect1_dropShadow" result="shape"/>
</filter>
<filter id="filter1_i" x="563" y="122" width="34" height="32" filterUnits="userSpaceOnUse" color-interpolation-filters="sRGB">
<feFlood flood-opacity="0" result="BackgroundImageFix"/>
<feBlend mode="normal" in="SourceGraphic" in2="BackgroundImageFix" result="shape"/>
<feColorMatrix in="SourceAlpha" type="matrix" values="0 0 0 0 0 0 0 0 0 0 0 0 0 0 0 0 0 0 127 0" result="hardAlpha"/>
<feOffset dx="1"/>
<feComposite in2="hardAlpha" operator="arithmetic" k2="-1" k3="1"/>
<feColorMatrix type="matrix" values="0 0 0 0 0 0 0 0 0 0.0352941 0 0 0 0 0.690196 0 0 0 1 0"/>
<feBlend mode="normal" in2="shape" result="effect1_innerShadow"/>
</filter>
<filter id="filter2_i" x="597" y="122" width="34" height="32" filterUnits="userSpaceOnUse" color-interpolation-filters="sRGB">
<feFlood flood-opacity="0" result="BackgroundImageFix"/>
<feBlend mode="normal" in="SourceGraphic" in2="BackgroundImageFix" result="shape"/>
<feColorMatrix in="SourceAlpha" type="matrix" values="0 0 0 0 0 0 0 0 0 0 0 0 0 0 0 0 0 0 127 0" result="hardAlpha"/>
<feOffset dx="1"/>
<feComposite in2="hardAlpha" operator="arithmetic" k2="-1" k3="1"/>
<feColorMatrix type="matrix" values="0 0 0 0 0 0 0 0 0 0.0352941 0 0 0 0 0.690196 0 0 0 1 0"/>
<feBlend mode="normal" in2="shape" result="effect1_innerShadow"/>
</filter>
<filter id="filter3_d" x="237" y="0" width="112" height="112" filterUnits="userSpaceOnUse" color-interpolation-filters="sRGB">
<feFlood flood-opacity="0" result="BackgroundImageFix"/>
<feColorMatrix in="SourceAlpha" type="matrix" values="0 0 0 0 0 0 0 0 0 0 0 0 0 0 0 0 0 0 127 0"/>
<feOffset dy="2"/>
<feGaussianBlur stdDeviation="6"/>
<feColorMatrix type="matrix" values="0 0 0 0 0.0235294 0 0 0 0 0.0235294 0 0 0 0 0.0627451 0 0 0 0.3 0"/>
<feBlend mode="normal" in2="BackgroundImageFix" result="effect1_dropShadow"/>
<feBlend mode="normal" in="SourceGraphic" in2="effect1_dropShadow" result="shape"/>
</filter>
<filter id="filter4_d" x="233" y="166" width="224" height="257" filterUnits="userSpaceOnUse" color-interpolation-filters="sRGB">
<feFlood flood-opacity="0" result="BackgroundImageFix"/>
<feColorMatrix in="SourceAlpha" type="matrix" values="0 0 0 0 0 0 0 0 0 0 0 0 0 0 0 0 0 0 127 0"/>
<feOffset dy="2"/>
<feGaussianBlur stdDeviation="6"/>
<feColorMatrix type="matrix" values="0 0 0 0 0.0235294 0 0 0 0 0.0235294 0 0 0 0 0.0627451 0 0 0 0.3 0"/>
<feBlend mode="normal" in2="BackgroundImageFix" result="effect1_dropShadow"/>
<feBlend mode="normal" in="SourceGraphic" in2="effect1_dropShadow" result="shape"/>
</filter>
<filter id="filter5_d" x="233" y="168" width="224" height="257" filterUnits="userSpaceOnUse" color-interpolation-filters="sRGB">
<feFlood flood-opacity="0" result="BackgroundImageFix"/>
<feColorMatrix in="SourceAlpha" type="matrix" values="0 0 0 0 0 0 0 0 0 0 0 0 0 0 0 0 0 0 127 0"/>
<feOffset dy="4"/>
<feGaussianBlur stdDeviation="8"/>
<feColorMatrix type="matrix" values="0 0 0 0 0.0509804 0 0 0 0 0.0470588 0 0 0 0 0.0588235 0 0 0 0.15 0"/>
<feBlend mode="normal" in2="BackgroundImageFix" result="effect1_dropShadow"/>
<feBlend mode="normal" in="SourceGraphic" in2="effect1_dropShadow" result="shape"/>
</filter>
<filter id="filter6_d" x="225" y="263.5" width="240" height="165.5" filterUnits="userSpaceOnUse" color-interpolation-filters="sRGB">
<feFlood flood-opacity="0" result="BackgroundImageFix"/>
<feColorMatrix in="SourceAlpha" type="matrix" values="0 0 0 0 0 0 0 0 0 0 0 0 0 0 0 0 0 0 127 0"/>
<feOffset dy="-6"/>
<feGaussianBlur stdDeviation="12"/>
<feColorMatrix type="matrix" values="0 0 0 0 0.0509804 0 0 0 0 0.0470588 0 0 0 0 0.0588235 0 0 0 0.1 0"/>
<feBlend mode="normal" in2="BackgroundImageFix" result="effect1_dropShadow"/>
<feBlend mode="normal" in="SourceGraphic" in2="effect1_dropShadow" result="shape"/>
</filter>
<filter id="filter7_d" x="298" y="362" width="38" height="38" filterUnits="userSpaceOnUse" color-interpolation-filters="sRGB">
<feFlood flood-opacity="0" result="BackgroundImageFix"/>
<feColorMatrix in="SourceAlpha" type="matrix" values="0 0 0 0 0 0 0 0 0 0 0 0 0 0 0 0 0 0 127 0"/>
<feOffset/>
<feGaussianBlur stdDeviation="1.5"/>
<feColorMatrix type="matrix" values="0 0 0 0 0.945098 0 0 0 0 0.94902 0 0 0 0 0.956863 0 0 0 0.05 0"/>
<feBlend mode="normal" in2="BackgroundImageFix" result="effect1_dropShadow"/>
<feBlend mode="normal" in="SourceGraphic" in2="effect1_dropShadow" result="shape"/>
</filter>
<filter id="filter8_d" x="511" y="208" width="160" height="48" filterUnits="userSpaceOnUse" color-interpolation-filters="sRGB">
<feFlood flood-opacity="0" result="BackgroundImageFix"/>
<feColorMatrix in="SourceAlpha" type="matrix" values="0 0 0 0 0 0 0 0 0 0 0 0 0 0 0 0 0 0 127 0"/>
<feOffset dy="2"/>
<feGaussianBlur stdDeviation="6"/>
<feColorMatrix type="matrix" values="0 0 0 0 0.0235294 0 0 0 0 0.0235294 0 0 0 0 0.0627451 0 0 0 0.3 0"/>
<feBlend mode="normal" in2="BackgroundImageFix" result="effect1_dropShadow"/>
<feBlend mode="normal" in="SourceGraphic" in2="effect1_dropShadow" result="shape"/>
</filter>
<filter id="filter9_d" x="0" y="122" width="307" height="124" filterUnits="userSpaceOnUse" color-interpolation-filters="sRGB">
<feFlood flood-opacity="0" result="BackgroundImageFix"/>
<feColorMatrix in="SourceAlpha" type="matrix" values="0 0 0 0 0 0 0 0 0 0 0 0 0 0 0 0 0 0 127 0"/>
<feOffset dy="2"/>
<feGaussianBlur stdDeviation="8"/>
<feColorMatrix type="matrix" values="0 0 0 0 0.0235294 0 0 0 0 0.0235294 0 0 0 0 0.0627451 0 0 0 0.3 0"/>
<feBlend mode="normal" in2="BackgroundImageFix" result="effect1_dropShadow"/>
<feBlend mode="normal" in="SourceGraphic" in2="effect1_dropShadow" result="shape"/>
</filter>
<filter id="filter10_d" x="612" y="44" width="72" height="72" filterUnits="userSpaceOnUse" color-interpolation-filters="sRGB">
<feFlood flood-opacity="0" result="BackgroundImageFix"/>
<feColorMatrix in="SourceAlpha" type="matrix" values="0 0 0 0 0 0 0 0 0 0 0 0 0 0 0 0 0 0 127 0"/>
<feOffset dy="2"/>
<feGaussianBlur stdDeviation="8"/>
<feColorMatrix type="matrix" values="0 0 0 0 0.0235294 0 0 0 0 0.0235294 0 0 0 0 0.0627451 0 0 0 0.3 0"/>
<feBlend mode="normal" in2="BackgroundImageFix" result="effect1_dropShadow"/>
<feBlend mode="normal" in="SourceGraphic" in2="effect1_dropShadow" result="shape"/>
</filter>
<filter id="filter11_d" x="413" y="379" width="56" height="56" filterUnits="userSpaceOnUse" color-interpolation-filters="sRGB">
<feFlood flood-opacity="0" result="BackgroundImageFix"/>
<feColorMatrix in="SourceAlpha" type="matrix" values="0 0 0 0 0 0 0 0 0 0 0 0 0 0 0 0 0 0 127 0"/>
<feOffset dy="2"/>
<feGaussianBlur stdDeviation="4"/>
<feColorMatrix type="matrix" values="0 0 0 0 0.0235294 0 0 0 0 0.0235294 0 0 0 0 0.0627451 0 0 0 0.25 0"/>
<feBlend mode="normal" in2="BackgroundImageFix" result="effect1_dropShadow"/>
<feBlend mode="normal" in="SourceGraphic" in2="effect1_dropShadow" result="shape"/>
</filter>
<linearGradient id="paint0_linear" x1="308.024" y1="293.5" x2="308.024" y2="381.542" gradientUnits="userSpaceOnUse">
<stop stop-color="#0D0C0F" stop-opacity="0"/>
<stop offset="0.395833" stop-color="#0D0C0F" stop-opacity="0.15"/>
<stop offset="0.692708" stop-color="#0D0C0F" stop-opacity="0.25"/>
<stop offset="1" stop-color="#0D0C0F" stop-opacity="0.5"/>
</linearGradient>
<clipPath id="clip0">
<rect width="192" height="124" fill="white" transform="translate(249 281)"/>
</clipPath>
<clipPath id="clip1">
<rect width="68" height="32" fill="white" transform="translate(265 365)"/>
</clipPath>
</defs>
</svg>
