<?xml version="1.0" encoding="UTF-8"?>
<svg width="203px" height="48px" viewBox="0 0 203 48" version="1.1" xmlns="http://www.w3.org/2000/svg" xmlns:xlink="http://www.w3.org/1999/xlink">
    <!-- Generator: Sketch 52.2 (67145) - http://www.bohemiancoding.com/sketch -->
    <title>Group 2</title>
    <desc>Created with Sketch.</desc>
    <g id="Main-concept" stroke="none" stroke-width="1" fill="none" fill-rule="evenodd">
        <g id="homepage--onboarding-finish" transform="translate(-328.000000, -297.000000)" fill="#FFFFFF">
            <g id="Logged-In----Home----Onboarding-01-Copy-5" transform="translate(300.000000, 125.000000)">
                <g id="Chrome">
                    <g id="Artwork" transform="translate(0.000000, 78.000000)">
                        <g id="Header" transform="translate(28.000000, 94.000000)">
                            <g id="Logo">
                                <g id="Group-2">
                                    <path d="M42,21.6230064 L42,12.25596 L44.7854143,12.25596 L44.7854143,21.5307585 C44.7854143,23.9881078 46.1781214,25.5885524 48.8221154,25.5885524 C51.4412194,25.5885524 52.8339265,23.9881078 52.8339265,21.5307585 L52.8339265,12.25596 L55.6193408,12.25596 L55.6193408,21.5996666 C55.6193408,25.4496249 53.3769805,27.999222 48.8221154,27.999222 C44.2423603,27.999222 42,25.4262851 42,21.6230064 Z M57.8602304,27.721367 L57.8602304,12.25596 L60.3390454,12.25596 L60.3390454,18.0753543 C61.2362158,16.8928036 62.5576471,16.2437344 63.9978715,16.2437344 C66.9247061,16.2437344 69.0482733,18.5165879 69.0482733,22.1331481 C69.0482733,25.8197277 66.9009475,27.999222 63.9978715,27.999222 C62.5101299,27.999222 61.2124572,27.3034732 60.3390454,26.1909419 L60.3390454,27.721367 L57.8602304,27.721367 Z M63.26588,25.8430675 C65.248027,25.8430675 66.4993138,24.3126424 66.4993138,22.1331481 C66.4993138,19.9536538 65.248027,18.3998889 63.26588,18.3998889 C62.1096276,18.3998889 60.8820994,19.0956377 60.3390454,19.930314 L60.3390454,24.359322 C60.8820994,25.1939983 62.1096276,25.8430675 63.26588,25.8430675 Z M70.3676682,22.1100306 C70.3676682,18.8635732 72.7752074,16.2439567 76.1500615,16.2439567 C79.5724328,16.2439567 81.7672759,18.8168936 81.7672759,22.3423173 L81.7672759,22.921367 L72.9641449,22.921367 C73.1519511,24.6140595 74.4507552,26.0055571 76.598081,26.0055571 C77.7079476,26.0055571 79.0293789,25.5643234 79.8326462,24.7763268 L80.96514,26.3767713 C79.8326462,27.4437344 78.1559671,27.9994443 76.338999,27.9994443 C72.9166277,27.9994443 70.3676682,25.6576827 70.3676682,22.1100306 Z M76.1500615,18.2378438 C74.0253629,18.2378438 73.058048,19.837177 72.9403863,21.2053348 L79.3597367,21.2053348 C79.3133508,19.8838566 78.3924218,18.2378438 76.1500615,18.2378438 Z M83.1595305,27.721367 L83.1595305,16.5215893 L85.6372142,16.5215893 L85.6372142,18.1687135 C86.4879988,17.1017505 87.8569473,16.2670742 89.3435575,16.2670742 L89.3435575,18.6777438 C89.1308614,18.6321756 88.8717794,18.6088358 88.5651802,18.6088358 C87.5265895,18.6088358 86.1338823,19.3045846 85.6372142,20.0925813 L85.6372142,27.721367 L83.1595305,27.721367 Z M90.4296654,20 C90.4296654,15.2464573 94.0409743,12 98.6908738,12 C101.877922,12 103.83631,13.6237844 105.016321,15.4787441 L102.656299,16.6612948 C101.900549,15.3853848 100.39018,14.4117811 98.6908738,14.4117811 C95.5751017,14.4117811 93.2614656,16.7535427 93.2614656,20 C93.2614656,23.2464573 95.5751017,25.5882189 98.6908738,25.5882189 C100.39018,25.5882189 101.900549,24.637955 102.656299,23.3387052 L105.016321,24.5212559 C103.812552,26.3762156 101.877922,28 98.6908738,28 C94.0409743,28 90.4296654,24.7535427 90.4296654,20 Z M105.542631,22.1099194 C105.542631,18.9101417 107.784991,16.2438455 111.3963,16.2438455 C115.055126,16.2438455 117.273728,18.9101417 117.273728,22.1099194 C117.273728,25.333037 115.055126,27.9993331 111.3963,27.9993331 C107.784991,27.9993331 105.542631,25.333037 105.542631,22.1099194 Z M114.70101,22.1099194 C114.70101,20.139372 113.520999,18.4 111.3963,18.4 C109.29536,18.4 108.115349,20.139372 108.115349,22.1099194 C108.115349,24.1038066 109.29536,25.8431787 111.3963,25.8431787 C113.520999,25.8431787 114.70101,24.1038066 114.70101,22.1099194 Z M126.431428,27.721367 L126.431428,20.7183106 C126.431428,18.98005 125.534257,18.3998889 124.14155,18.3998889 C122.867636,18.3998889 121.781528,19.1423173 121.214716,19.9069742 L121.214716,27.721367 L118.737032,27.721367 L118.737032,16.5215893 L121.214716,16.5215893 L121.214716,18.0520144 C121.970466,17.1717699 123.433317,16.2437344 125.227658,16.2437344 C127.682715,16.2437344 128.910243,17.5418727 128.910243,19.8380661 L128.910243,27.721367 L126.431428,27.721367 Z M132.06697,27.721367 L132.06697,18.654404 L130.178726,18.654404 L130.178726,16.5215893 L132.06697,16.5215893 L132.06697,15.89586 C132.06697,13.4607391 133.506063,12.0236732 135.678279,12.0236732 C136.693111,12.0236732 137.707943,12.2781884 138.416176,12.997277 L137.448861,14.5043623 C137.118504,14.2031675 136.693111,14.0175604 136.126299,14.0175604 C135.158984,14.0175604 134.545785,14.6432898 134.545785,15.89586 L134.545785,16.5215893 L136.85829,16.5215893 L136.85829,18.654404 L134.545785,18.654404 L134.545785,27.721367 L132.06697,27.721367 Z M137.356655,22.1100306 C137.356655,18.8635732 139.763063,16.2439567 143.139049,16.2439567 C146.56142,16.2439567 148.756263,18.8168936 148.756263,22.3423173 L148.756263,22.921367 L139.952001,22.921367 C140.140938,24.6140595 141.439742,26.0055571 143.587068,26.0055571 C144.696935,26.0055571 146.018366,25.5643234 146.820502,24.7763268 L147.954127,26.3767713 C146.820502,27.4437344 145.144954,27.9994443 143.327986,27.9994443 C139.905615,27.9994443 137.356655,25.6576827 137.356655,22.1100306 Z M143.139049,18.2378438 C141.01435,18.2378438 140.047035,19.837177 139.929373,21.2053348 L146.348724,21.2053348 C146.301207,19.8838566 145.381409,18.2378438 143.139049,18.2378438 Z M150.147726,27.721367 L150.147726,16.5215893 L152.626541,16.5215893 L152.626541,18.1687135 C153.476194,17.1017505 154.845142,16.2670742 156.331753,16.2670742 L156.331753,18.6777438 C156.119057,18.6321756 155.859975,18.6088358 155.553375,18.6088358 C154.514785,18.6088358 153.122078,19.3045846 152.626541,20.0925813 L152.626541,27.721367 L150.147726,27.721367 Z M156.402915,22.1100306 C156.402915,18.8635732 158.809323,16.2439567 162.185309,16.2439567 C165.60768,16.2439567 167.802523,18.8168936 167.802523,22.3423173 L167.802523,22.921367 L158.998261,22.921367 C159.187198,24.6140595 160.486002,26.0055571 162.633328,26.0055571 C163.743195,26.0055571 165.064626,25.5643234 165.866762,24.7763268 L167.000387,26.3767713 C165.866762,27.4437344 164.191214,27.9994443 162.374246,27.9994443 C158.951875,27.9994443 156.402915,25.6576827 156.402915,22.1100306 Z M162.185309,18.2378438 C160.06061,18.2378438 159.093295,19.837177 158.975634,21.2053348 L165.394984,21.2053348 C165.347467,19.8838566 164.427669,18.2378438 162.185309,18.2378438 Z M176.8894,27.721367 L176.8894,20.7183106 C176.8894,18.98005 175.992229,18.3998889 174.599522,18.3998889 C173.325608,18.3998889 172.2395,19.1423173 171.672688,19.9069742 L171.672688,27.721367 L169.195004,27.721367 L169.195004,16.5215893 L171.672688,16.5215893 L171.672688,18.0520144 C172.428438,17.1717699 173.891289,16.2437344 175.68563,16.2437344 C178.140687,16.2437344 179.368215,17.5418727 179.368215,19.8380661 L179.368215,27.721367 L176.8894,27.721367 Z M180.782984,22.1099194 C180.782984,18.7245346 183.214281,16.2438455 186.68417,16.2438455 C188.902772,16.2438455 190.247962,17.1718811 191.050098,18.2377327 L189.422067,19.7214782 C188.783979,18.8401223 187.911698,18.4 186.801832,18.4 C184.72465,18.4 183.355702,19.9304251 183.355702,22.1099194 C183.355702,24.2894137 184.72465,25.8431787 186.801832,25.8431787 C187.911698,25.8431787 188.783979,25.3797166 189.422067,24.5217005 L191.050098,26.005446 C190.247962,27.072409 188.902772,27.9993331 186.68417,27.9993331 C183.214281,27.9993331 180.782984,25.5186441 180.782984,22.1099194 Z M191.600392,22.1100306 C191.600392,18.8635732 194.0068,16.2439567 197.382786,16.2439567 C200.805157,16.2439567 203,18.8168936 203,22.3423173 L203,22.921367 L194.195738,22.921367 C194.384675,24.6140595 195.683479,26.0055571 197.830805,26.0055571 C198.940672,26.0055571 200.262103,25.5643234 201.064239,24.7763268 L202.197864,26.3767713 C201.064239,27.4437344 199.388691,27.9994443 197.571723,27.9994443 C194.149352,27.9994443 191.600392,25.6576827 191.600392,22.1100306 Z M197.382786,18.2378438 C195.258087,18.2378438 194.290772,19.837177 194.17311,21.2053348 L200.592461,21.2053348 C200.544944,19.8838566 199.625146,18.2378438 197.382786,18.2378438 Z" id="Combined-Shape"></path>
                                    <path d="M17.998883,0 C27.9405486,0 36,8.05995159 36,18.0011171 C36,27.9411655 27.9405486,36 17.998883,36 C8.05833437,36 0,27.9411655 0,18.0011171 C0,8.05995159 8.05833437,0 17.998883,0 Z M27.9225642,14.561981 L27.9225642,11.9948613 L20.2976418,11.9948613 L20.2976418,14.561981 L22.7674196,14.561981 L22.7674196,21.2277788 L22.7674196,22.7291752 C22.7674196,23.0442003 22.6847586,23.3324148 22.5216706,23.6128095 C22.341827,23.9099609 22.071503,24.1791845 21.7039965,24.4104264 C21.3074469,24.6628933 20.8047785,24.8695587 20.1959911,25.0248371 C19.9692317,25.0818097 19.7223656,25.1242599 19.4654462,25.1611246 C19.0197468,25.2247999 18.534951,25.2616645 18.0077076,25.2616645 C17.1710438,25.2616645 16.4270945,25.1801154 15.8082537,25.0248371 C15.1994663,24.8695587 14.6979149,24.6628933 14.3013653,24.4104264 C13.9327417,24.1791845 13.6635348,23.9099609 13.4892764,23.6128095 C13.3206032,23.3324148 13.2379422,23.0442003 13.2379422,22.7291752 L13.2379422,21.2277788 L13.2379422,14.561981 L15.706603,14.561981 L15.706603,11.9948613 L8.59440238,11.9948613 L8.07721236,11.9948613 L8.07721236,14.561981 L8.59440238,14.561981 L10.5458732,14.561981 L10.5458732,21.2277788 L10.5458732,22.6331037 C10.5458732,23.4117297 10.7156634,24.1356172 11.0496587,24.7880097 C11.3870051,25.4359337 11.8907906,26.0011916 12.5464937,26.460324 C13.179856,26.8993484 13.9729552,27.2423012 14.891163,27.4746602 C15.789264,27.7025507 16.8381656,27.8187302 18.0077076,27.8187302 C18.5193124,27.8187302 19.0041082,27.7919196 19.4654462,27.7483523 C20.0630632,27.6924967 20.6204667,27.6031279 21.1242522,27.4746602 C22.0469281,27.2378328 22.8344421,26.8993484 23.4633362,26.460324 C24.1201564,26.0011916 24.6228249,25.4359337 24.9568202,24.7880097 C25.2896984,24.1356172 25.4594886,23.4117297 25.4594886,22.6331037 L25.4594886,21.2277788 L25.4594886,14.561981 L27.9225642,14.561981 Z" id="Combined-Shape"></path>
                                    <path d="M43.4366786,41.4606397 L43.4366786,43.9834821 L45.5911305,43.9834821 C45.8752963,43.9834821 46.1322908,43.9661151 46.3632462,43.9313812 C46.5942017,43.8966472 46.7923252,43.8318105 46.9576168,43.7391866 C47.1240406,43.6465628 47.2508397,43.5168894 47.3425426,43.352482 C47.4342455,43.1880747 47.4795308,42.9727242 47.4795308,42.7087462 C47.4795308,42.4528728 47.4342455,42.2444691 47.3425426,42.0812195 C47.2508397,41.9191278 47.1240406,41.79177 46.9576168,41.7014617 C46.7923252,41.6099957 46.5942017,41.5474746 46.3632462,41.5127406 C46.1322908,41.4780067 45.8752963,41.4606397 45.5911305,41.4606397 L43.4366786,41.4606397 Z M43.4366786,37.6387476 L43.4366786,40.0886488 L45.4065926,40.0886488 C45.6567943,40.0886488 45.8945426,40.0747552 46.1187052,40.046968 C46.3428678,40.0191809 46.5421235,39.9612909 46.7130758,39.8744561 C46.8851602,39.7876212 47.0221485,39.6637368 47.1240406,39.5004872 C47.2248006,39.3383955 47.2757466,39.1207294 47.2757466,38.847489 C47.2757466,38.5869844 47.2248006,38.3774229 47.1240406,38.216489 C47.0221485,38.0567128 46.8840281,37.9339862 46.7096794,37.8494669 C46.5364628,37.7649477 46.336075,37.7093733 46.1096481,37.6804284 C45.8832212,37.6526412 45.6443409,37.6387476 45.3941391,37.6387476 L43.4366786,37.6387476 Z M45.451878,36.2598099 C45.9262423,36.2598099 46.3666426,36.3049641 46.7742111,36.3941145 C47.1806473,36.4821072 47.5327411,36.6256742 47.8293604,36.8224999 C48.1248475,37.0204834 48.3580672,37.275199 48.5278873,37.5889623 C48.6977075,37.9038834 48.7826176,38.2859569 48.7826176,38.7363404 C48.7826176,38.9713734 48.7475214,39.1925129 48.6773291,39.4032322 C48.6071368,39.6127937 48.5109053,39.8026726 48.3886348,39.9717111 C48.2652322,40.1407497 48.1203189,40.2866323 47.952763,40.4082011 C47.7852071,40.5286121 47.6040656,40.6177626 47.4093385,40.6733369 C47.6210476,40.7393314 47.8225676,40.8342708 48.0127662,40.9604708 C48.2040969,41.085513 48.3716528,41.2383424 48.5154339,41.4178011 C48.6592149,41.5984177 48.7735605,41.8021902 48.8584706,42.0291186 C48.9433807,42.2572049 48.9852697,42.5003425 48.9852697,42.7608471 C48.9852697,43.2158618 48.9071524,43.6071976 48.7509178,43.9336968 C48.5935511,44.2613537 48.3705207,44.5299629 48.0795621,44.7395243 C47.7897357,44.9502436 47.4399061,45.1065464 47.0312056,45.2084326 C46.622505,45.3103189 46.1628584,45.361262 45.6545301,45.361262 L42,45.361262 L42,36.2598099 L45.451878,36.2598099 Z M51.645446,48 L50.1702748,48 L52.3507658,44.0796951 L49.649493,39.133581 L51.1427783,39.133581 L53.101371,42.708862 L54.9886391,39.133581 L56.4513569,39.133581 L51.645446,48 Z M64.2689718,36.2607362 C64.9641024,36.2607362 65.5947013,36.3684114 66.1630328,36.5849197 C66.7302321,36.801428 67.2170499,37.1082445 67.621222,37.5053693 C68.0265261,37.9013363 68.3389952,38.3806648 68.5597614,38.9421969 C68.7793955,39.5025713 68.8892126,40.1254667 68.8892126,40.8108833 C68.8892126,41.4951421 68.7793955,42.1180375 68.5597614,42.6795697 C68.3389952,43.2411018 68.0265261,43.7192725 67.621222,44.1163973 C67.2170499,44.5123643 66.7302321,44.8191809 66.1630328,45.0356891 C65.5947013,45.2521974 64.9641024,45.3610304 64.2689718,45.3610304 L60.734448,45.3610304 L60.734448,36.2607362 L64.2689718,36.2607362 Z M62.1711266,37.6512519 L62.1711266,43.9693569 L64.2689718,43.9693569 C64.7897536,43.9693569 65.2448717,43.8906267 65.6354581,43.7320083 C66.0249123,43.5745477 66.3487028,43.3557239 66.6079616,43.0755367 C66.8660883,42.7965073 67.0596833,42.4642192 67.1887466,42.0775146 C67.318942,41.6919678 67.3834737,41.2705292 67.3834737,40.8108833 C67.3834737,40.3466062 67.318942,39.9216942 67.1887466,39.5361474 C67.0596833,39.1506006 66.8660883,38.8183125 66.6079616,38.5392831 C66.3487028,38.259096 66.0249123,38.0414299 65.6354581,37.8851271 C65.2448717,37.7288244 64.7897536,37.6512519 64.2689718,37.6512519 L62.1711266,37.6512519 Z M70.325778,45.3613778 L70.325778,39.133581 L71.6605645,39.133581 L71.6605645,45.3613778 L70.325778,45.3613778 Z M70.9858124,36.0202615 C71.11714,36.0202615 71.2405426,36.0445752 71.3548882,36.0943606 C71.4692338,36.1441459 71.5688616,36.212456 71.6537717,36.2992908 C71.7386818,36.3861257 71.8054777,36.488012 71.8541595,36.6049496 C71.9028413,36.7218872 71.9266161,36.8480872 71.9266161,36.981234 C71.9266161,37.1155386 71.9028413,37.2417386 71.8541595,37.3586763 C71.8054777,37.4756139 71.7386818,37.5763423 71.6537717,37.6608616 C71.5688616,37.7453809 71.4692338,37.8113754 71.3548882,37.8600029 C71.2405426,37.9074726 71.11714,37.9306286 70.9858124,37.9306286 C70.8544848,37.9306286 70.7322143,37.9074726 70.6178687,37.8600029 C70.5035231,37.8113754 70.4050274,37.7453809 70.3223816,37.6608616 C70.2397358,37.5763423 70.174072,37.4756139 70.1276545,37.3586763 C70.0812369,37.2417386 70.0585942,37.1155386 70.0585942,36.981234 C70.0585942,36.8480872 70.0812369,36.7218872 70.1276545,36.6049496 C70.174072,36.488012 70.2397358,36.3861257 70.3223816,36.2992908 C70.4050274,36.212456 70.5035231,36.1441459 70.6178687,36.0943606 C70.7322143,36.0445752 70.8544848,36.0202615 70.9858124,36.0202615 Z M79.2098636,45.3607989 L77.8807377,45.3607989 L77.8807377,44.614019 C77.6690286,44.8907328 77.4063734,45.1118723 77.0927721,45.2762796 C76.7791709,45.440687 76.4044344,45.5228906 75.9685626,45.5228906 C75.5394836,45.5228906 75.1421044,45.4418448 74.7730286,45.279753 C74.4039528,45.1165034 74.0824266,44.8907328 73.8061858,44.6001254 C73.5310771,44.3095181 73.3148394,43.9644942 73.1586049,43.563896 C73.0023703,43.16214 72.9231209,42.7233345 72.9231209,42.2474794 C72.9231209,41.7704665 73.0023703,41.331661 73.1586049,40.9310628 C73.3148394,40.5304646 73.5310771,40.1842829 73.8061858,39.8936755 C74.0824266,39.6030682 74.4039528,39.3772975 74.7730286,39.214048 C75.1421044,39.0519562 75.5394836,38.9709103 75.9685626,38.9709103 C76.4044344,38.9709103 76.7791709,39.0542718 77.0927721,39.2209947 C77.4063734,39.3877177 77.6690286,39.610015 77.8807377,39.8878865 L77.8807377,39.1330021 L79.2098636,39.1330021 L79.2098636,45.3607989 Z M76.1270614,40.2514352 C75.8383671,40.2514352 75.5813726,40.3046939 75.3549457,40.4100535 C75.1273867,40.516571 74.936056,40.660138 74.7786893,40.8395967 C74.6224547,41.0190554 74.5024485,41.2309325 74.4175384,41.4740701 C74.3326283,41.71605 74.2896072,41.974239 74.2896072,42.2474794 C74.2896072,42.5207198 74.3326283,42.777751 74.4175384,43.0208886 C74.5024485,43.2628684 74.6224547,43.4747455 74.7786893,43.6542043 C74.936056,43.8348208 75.1273867,43.97723 75.3549457,44.0837474 C75.5813726,44.1902648 75.8383671,44.2423658 76.1270614,44.2423658 C76.4021701,44.2423658 76.6523718,44.1914226 76.8765344,44.0895364 C77.1018292,43.988808 77.2942921,43.8487144 77.4550552,43.6704134 C77.6169504,43.4932703 77.7414852,43.282551 77.8309238,43.0394134 C77.9192303,42.7974335 77.9645157,42.5334555 77.9645157,42.2474794 C77.9645157,41.9615032 77.9192303,41.6963674 77.8309238,41.4543876 C77.7414852,41.2112499 77.6169504,41.0016885 77.4550552,40.8233875 C77.2942921,40.6462444 77.1018292,40.5061508 76.8765344,40.4042646 C76.6523718,40.3023783 76.4021701,40.2514352 76.1270614,40.2514352 Z M80.8987818,45.3613778 L80.8987818,36.0005789 L82.2335683,36.0005789 L82.2335683,45.3613778 L80.8987818,45.3613778 Z M87.149749,38.9709103 C87.5742995,38.9709103 87.9716787,39.0519562 88.3418866,39.214048 C88.7132267,39.3772975 89.0358851,39.6030682 89.3121259,39.8936755 C89.5872346,40.1842829 89.8023401,40.5304646 89.9597068,40.9310628 C90.1159414,41.331661 90.1951908,41.7704665 90.1951908,42.2474794 C90.1951908,42.7233345 90.1159414,43.16214 89.9597068,43.563896 C89.8023401,43.9644942 89.5872346,44.3095181 89.3121259,44.6001254 C89.0358851,44.8907328 88.7132267,45.1165034 88.3418866,45.279753 C87.9716787,45.4418448 87.5742995,45.5228906 87.149749,45.5228906 C86.7138773,45.5228906 86.3402729,45.440687 86.0278038,45.2762796 C85.7175989,45.1118723 85.4549437,44.8930484 85.2432346,44.619808 L85.2432346,47.9612138 L83.9152409,47.9612138 L83.9152409,39.1330021 L85.2432346,39.1330021 L85.2432346,39.873993 C85.4549437,39.6019104 85.7175989,39.3830865 86.0278038,39.2175213 C86.3402729,39.053114 86.7138773,38.9709103 87.149749,38.9709103 Z M86.9912502,40.2514352 C86.7161415,40.2514352 86.4659398,40.3023783 86.2417772,40.4042646 C86.0164824,40.5061508 85.8240196,40.6462444 85.6632565,40.8233875 C85.5013613,41.0016885 85.3768265,41.2112499 85.2873878,41.4543876 C85.1990814,41.6963674 85.153796,41.9615032 85.153796,42.2474794 C85.153796,42.5334555 85.1990814,42.7974335 85.2873878,43.0394134 C85.3768265,43.282551 85.5013613,43.4932703 85.6632565,43.6704134 C85.8240196,43.8487144 86.0164824,43.988808 86.2417772,44.0895364 C86.4659398,44.1914226 86.7161415,44.2423658 86.9912502,44.2423658 C87.275416,44.2423658 87.5312784,44.1902648 87.7611017,44.0837474 C87.9897928,43.97723 88.1822557,43.8348208 88.3396224,43.6542043 C88.4958569,43.4747455 88.6158632,43.2628684 88.7007733,43.0208886 C88.7856834,42.777751 88.8287045,42.5207198 88.8287045,42.2474794 C88.8287045,41.974239 88.7856834,41.71605 88.7007733,41.4740701 C88.6158632,41.2309325 88.4958569,41.0190554 88.3396224,40.8395967 C88.1822557,40.660138 87.9897928,40.516571 87.7611017,40.4100535 C87.5312784,40.3046939 87.275416,40.2514352 86.9912502,40.2514352 Z M97.4017927,45.3607989 L96.0726669,45.3607989 L96.0726669,44.614019 C95.8609577,44.8907328 95.5983025,45.1118723 95.2847013,45.2762796 C94.9711,45.440687 94.5963635,45.5228906 94.1604917,45.5228906 C93.7314128,45.5228906 93.3340336,45.4418448 92.9649577,45.279753 C92.5958819,45.1165034 92.2743557,44.8907328 91.9981149,44.6001254 C91.7230062,44.3095181 91.5067685,43.9644942 91.350534,43.563896 C91.1942994,43.16214 91.11505,42.7233345 91.11505,42.2474794 C91.11505,41.7704665 91.1942994,41.331661 91.350534,40.9310628 C91.5067685,40.5304646 91.7230062,40.1842829 91.9981149,39.8936755 C92.2743557,39.6030682 92.5958819,39.3772975 92.9649577,39.214048 C93.3340336,39.0519562 93.7314128,38.9709103 94.1604917,38.9709103 C94.5963635,38.9709103 94.9711,39.0542718 95.2847013,39.2209947 C95.5983025,39.3877177 95.8609577,39.610015 96.0726669,39.8878865 L96.0726669,39.1330021 L97.4017927,39.1330021 L97.4017927,45.3607989 Z M94.3189906,40.2514352 C94.0302963,40.2514352 93.7733018,40.3046939 93.5468749,40.4100535 C93.3193158,40.516571 93.1279851,40.660138 92.9706184,40.8395967 C92.8143839,41.0190554 92.6943776,41.2309325 92.6094675,41.4740701 C92.5245574,41.71605 92.4815363,41.974239 92.4815363,42.2474794 C92.4815363,42.5207198 92.5245574,42.777751 92.6094675,43.0208886 C92.6943776,43.2628684 92.8143839,43.4747455 92.9706184,43.6542043 C93.1279851,43.8348208 93.3193158,43.97723 93.5468749,44.0837474 C93.7733018,44.1902648 94.0302963,44.2423658 94.3189906,44.2423658 C94.5940992,44.2423658 94.844301,44.1914226 95.0684636,44.0895364 C95.2937583,43.988808 95.4862212,43.8487144 95.6469843,43.6704134 C95.8088795,43.4932703 95.9334143,43.282551 96.0228529,43.0394134 C96.1111594,42.7974335 96.1564448,42.5334555 96.1564448,42.2474794 C96.1564448,41.9615032 96.1111594,41.6963674 96.0228529,41.4543876 C95.9334143,41.2112499 95.8088795,41.0016885 95.6469843,40.8233875 C95.4862212,40.6462444 95.2937583,40.5061508 95.0684636,40.4042646 C94.844301,40.3023783 94.5940992,40.2514352 94.3189906,40.2514352 Z M101.758699,38.9709103 C102.194571,38.9709103 102.569307,39.0542718 102.882909,39.2209947 C103.19651,39.3877177 103.459165,39.610015 103.670874,39.8878865 L103.670874,36 L105,36 L105,45.3607989 L103.670874,45.3607989 L103.670874,44.614019 C103.459165,44.8907328 103.19651,45.1118723 102.882909,45.2762796 C102.569307,45.440687 102.194571,45.5228906 101.758699,45.5228906 C101.32962,45.5228906 100.932241,45.4418448 100.563165,45.279753 C100.194089,45.1165034 99.872563,44.8907328 99.5963222,44.6001254 C99.3212135,44.3095181 99.1049758,43.9644942 98.9487413,43.563896 C98.7925067,43.16214 98.7132573,42.7233345 98.7132573,42.2474794 C98.7132573,41.7704665 98.7925067,41.331661 98.9487413,40.9310628 C99.1049758,40.5304646 99.3212135,40.1842829 99.5963222,39.8936755 C99.872563,39.6030682 100.194089,39.3772975 100.563165,39.214048 C100.932241,39.0519562 101.32962,38.9709103 101.758699,38.9709103 Z M101.917198,40.2514352 C101.628504,40.2514352 101.371509,40.3046939 101.145082,40.4100535 C100.917523,40.516571 100.726192,40.660138 100.568826,40.8395967 C100.412591,41.0190554 100.292585,41.2309325 100.207675,41.4740701 C100.122765,41.71605 100.079744,41.974239 100.079744,42.2474794 C100.079744,42.5207198 100.122765,42.777751 100.207675,43.0208886 C100.292585,43.2628684 100.412591,43.4747455 100.568826,43.6542043 C100.726192,43.8348208 100.917523,43.97723 101.145082,44.0837474 C101.371509,44.1902648 101.628504,44.2423658 101.917198,44.2423658 C102.192307,44.2423658 102.442508,44.1914226 102.666671,44.0895364 C102.891966,43.988808 103.084428,43.8487144 103.245192,43.6704134 C103.407087,43.4932703 103.531622,43.282551 103.62106,43.0394134 C103.709367,42.7974335 103.754652,42.5334555 103.754652,42.2474794 C103.754652,41.9615032 103.709367,41.6963674 103.62106,41.4543876 C103.531622,41.2112499 103.407087,41.0016885 103.245192,40.8233875 C103.084428,40.6462444 102.891966,40.5061508 102.666671,40.4042646 C102.442508,40.3023783 102.192307,40.2514352 101.917198,40.2514352 Z" id="Combined-Shape" fill-opacity="0.5"></path>
                                </g>
                            </g>
                        </g>
                    </g>
                </g>
            </g>
        </g>
    </g>
</svg>