<svg xmlns="http://www.w3.org/2000/svg" width="12" height="12" fill="none" viewBox="0 0 12 12">
  <path fill="#000" fill-rule="evenodd" d="M5.24 1.197a1.5 1.5 0 0 1 2.06.556l3.998 6.997a1.504 1.504 0 0 1 0 1.5 1.5 1.5 0 0 1-1.297.75H2.002a1.5 1.5 0 0 1-1.31-2.249V8.75L4.69 1.753a1.5 1.5 0 0 1 .55-.556Zm.755.796a.5.5 0 0 0-.435.254v.001L1.557 9.25a.5.5 0 0 0 .438.75H10a.5.5 0 0 0 .432-.75l-.001-.002-4-7-.001-.001a.5.5 0 0 0-.435-.254Z" clip-rule="evenodd"/>
  <path fill="#000" fill-rule="evenodd" d="M6 4a.5.5 0 0 1 .5.5v2a.5.5 0 0 1-1 0v-2A.5.5 0 0 1 6 4Zm-.5 4.5A.5.5 0 0 1 6 8h.005a.5.5 0 0 1 0 1H6a.5.5 0 0 1-.5-.5Z" clip-rule="evenodd"/>
</svg>
