<svg xmlns="http://www.w3.org/2000/svg" width="12" height="12" fill="none" viewBox="0 0 12 12">
  <g clip-path="url(#a)">
    <path fill="#000" fill-rule="evenodd" d="M4.884 10.068a.5.5 0 0 1 .684.181.5.5 0 0 0 .865 0 .5.5 0 0 1 .865.502 1.5 1.5 0 0 1-2.595 0 .5.5 0 0 1 .181-.683ZM9.008 3.5a.5.5 0 0 1 .492.508 8.444 8.444 0 0 0 .297 2.36.5.5 0 1 1-.964.264 9.444 9.444 0 0 1-.333-2.64.5.5 0 0 1 .508-.492Zm-5.731-.848a.5.5 0 0 1 .33.625A2.43 2.43 0 0 0 3.5 4c0 1.824-.391 3.033-.811 3.802-.038.07-.076.136-.114.198H8.5a.5.5 0 0 1 0 1h-7a.5.5 0 0 1-.283-.912l.001-.001a1.51 1.51 0 0 0 .153-.142c.113-.118.274-.318.44-.622.33-.606.689-1.646.689-3.322" clip-rule="evenodd"/>
    <path fill="#000" fill-rule="evenodd" d="M5.831.5A3.5 3.5 0 0 1 9.5 4a.5.5 0 1 1-1 0 2.5 2.5 0 0 0-3.887-2.084.5.5 0 1 1-.555-.832A3.5 3.5 0 0 1 5.83.5ZM.646.646a.5.5 0 0 1 .708 0l10 10a.5.5 0 0 1-.708.708l-10-10a.5.5 0 0 1 0-.708Z" clip-rule="evenodd"/>
  </g>
  <defs>
    <clipPath id="a">
      <path fill="#fff" d="M0 0h12v12H0z"/>
    </clipPath>
  </defs>
</svg>
