<svg xmlns="http://www.w3.org/2000/svg" width="12" height="12" fill="none" viewBox="0 0 12 12">
  <path fill="#000" fill-rule="evenodd" d="M6.417 1.535A2.5 2.5 0 0 0 3.5 4c0 1.824-.391 3.033-.811 3.802-.038.07-.076.136-.114.198h6.85c-.268-.44-.541-1.056-.72-1.896a.5.5 0 0 1 .977-.208c.19.884.489 1.446.724 1.776.118.166.222.277.29.341a1.132 1.132 0 0 0 .087.075A.5.5 0 0 1 10.5 9h-9a.5.5 0 0 1-.277-.916L1.5 8.5l-.277-.416H1.22v.002h-.003a1.513 1.513 0 0 0 .153-.142c.113-.117.274-.317.44-.62.33-.607.689-1.648.689-3.324A3.5 3.5 0 0 1 6.583.549a.5.5 0 1 1-.166.986Zm-1.533 8.533a.5.5 0 0 1 .683.181.5.5 0 0 0 .865 0 .5.5 0 0 1 .865.502 1.5 1.5 0 0 1-2.595 0 .5.5 0 0 1 .182-.683Z" clip-rule="evenodd"/>
  <path fill="#000" fill-rule="evenodd" d="M9 .5a.5.5 0 0 1 .5.5v3a.5.5 0 0 1-1 0V1A.5.5 0 0 1 9 .5Z" clip-rule="evenodd"/>
  <path fill="#000" fill-rule="evenodd" d="M7 2.5a.5.5 0 0 1 .5-.5h3a.5.5 0 0 1 0 1h-3a.5.5 0 0 1-.5-.5Z" clip-rule="evenodd"/>
</svg>
