<svg xmlns="http://www.w3.org/2000/svg" width="12" height="12" fill="none" viewBox="0 0 12 12">
  <g clip-path="url(#a)">
    <path fill="#000" fill-rule="evenodd" d="M2.304.603a.5.5 0 0 1 .093.7A4.422 4.422 0 0 0 1.5 4a.5.5 0 0 1-1 0C.5 2.794.884 1.636 1.603.696a.5.5 0 0 1 .7-.093ZM9.7.6a.5.5 0 0 1 .7.1A5.5 5.5 0 0 1 11.5 4a.5.5 0 0 1-1 0 4.5 4.5 0 0 0-.9-2.7.5.5 0 0 1 .1-.7Zm-4.816 9.468a.5.5 0 0 1 .684.181.5.5 0 0 0 .865 0 .5.5 0 1 1 .865.502 1.5 1.5 0 0 1-2.595 0 .5.5 0 0 1 .181-.683Z" clip-rule="evenodd"/>
    <path fill="#000" d="M3.525 1.525A3.5 3.5 0 0 1 6 .5a.5.5 0 0 1 0 1A2.5 2.5 0 0 0 3.5 4c0 1.824-.391 3.033-.811 3.802-.21.383-.423.653-.592.831a2.488 2.488 0 0 1-.212.201l-.801-.057a.5.5 0 0 1 .133-.69h.001a1.51 1.51 0 0 0 .153-.142c.113-.118.274-.318.44-.622.33-.606.689-1.647.689-3.323a3.5 3.5 0 0 1 1.025-2.475Z"/>
    <path fill="#000" fill-rule="evenodd" d="M1 8.5a.5.5 0 0 1 .5-.5h9a.5.5 0 0 1 0 1h-9a.5.5 0 0 1-.5-.5Z" clip-rule="evenodd"/>
    <path fill="#000" d="M8.475 1.525A3.5 3.5 0 0 0 6 .5a.5.5 0 0 0 0 1A2.5 2.5 0 0 1 8.5 4c0 1.824.391 3.033.811 3.802.21.383.423.653.592.831l1.013.144a.5.5 0 0 0-.133-.69h-.001a1.507 1.507 0 0 1-.153-.142 2.97 2.97 0 0 1-.44-.622C9.859 6.717 9.5 5.676 9.5 4a3.5 3.5 0 0 0-1.025-2.475Z"/>
  </g>
  <defs>
    <clipPath id="a">
      <path fill="#fff" d="M0 0h12v12H0z"/>
    </clipPath>
  </defs>
</svg>
