<svg xmlns="http://www.w3.org/2000/svg" width="12" height="12" fill="none" viewBox="0 0 12 12">
  <path fill="#000" fill-rule="evenodd" d="M2 8.5a.5.5 0 0 0-.5.5v.5h9V9a.5.5 0 0 0-.5-.5H2ZM.94 7.94A1.5 1.5 0 0 1 2 7.5h8A1.5 1.5 0 0 1 11.5 9v1a.5.5 0 0 1-.5.5H1a.5.5 0 0 1-.5-.5V9c0-.398.158-.78.44-1.06Z" clip-rule="evenodd"/>
  <path fill="#000" fill-rule="evenodd" d="M2.818 4.818A4.5 4.5 0 0 1 10.5 8a.5.5 0 0 1-1 0 3.5 3.5 0 1 0-7 0 .5.5 0 0 1-1 0 4.5 4.5 0 0 1 1.318-3.182Z" clip-rule="evenodd"/>
  <path fill="#000" fill-rule="evenodd" d="M6 1.5a.5.5 0 0 1 .5.5v2a.5.5 0 0 1-1 0V2a.5.5 0 0 1 .5-.5Z" clip-rule="evenodd"/>
  <path fill="#000" fill-rule="evenodd" d="M4.5 2a.5.5 0 0 1 .5-.5h2a.5.5 0 0 1 0 1H5a.5.5 0 0 1-.5-.5Z" clip-rule="evenodd"/>
</svg>
