<svg xmlns="http://www.w3.org/2000/svg" width="12" height="12" fill="none" viewBox="0 0 12 12">
  <path fill="#000" fill-rule="evenodd" d="M8.146.646a.5.5 0 0 1 .708 0l2 2a.5.5 0 0 1 0 .708l-2 2a.5.5 0 1 1-.708-.708L9.793 3 8.146 1.354a.5.5 0 0 1 0-.708Z" clip-rule="evenodd"/>
  <path fill="#000" fill-rule="evenodd" d="M3.5 3.5A1.5 1.5 0 0 0 2 5v.5a.5.5 0 0 1-1 0V5a2.5 2.5 0 0 1 2.5-2.5h7a.5.5 0 0 1 0 1h-7Zm.354 3.146a.5.5 0 0 1 0 .708L2.207 9l1.647 1.646a.5.5 0 0 1-.708.708l-2-2a.5.5 0 0 1 0-.708l2-2a.5.5 0 0 1 .708 0Z" clip-rule="evenodd"/>
  <path fill="#000" fill-rule="evenodd" d="M10.5 6a.5.5 0 0 1 .5.5V7a2.5 2.5 0 0 1-2.5 2.5h-7a.5.5 0 0 1 0-1h7A1.5 1.5 0 0 0 10 7v-.5a.5.5 0 0 1 .5-.5Z" clip-rule="evenodd"/>
</svg>
