<svg xmlns="http://www.w3.org/2000/svg" width="12" height="12" fill="none" viewBox="0 0 12 12">
  <g clip-path="url(#a)">
    <path fill="#000" fill-rule="evenodd" d="M6 .5a.5.5 0 0 1 .5.5v.5a.5.5 0 0 1-1 0V1A.5.5 0 0 1 6 .5Zm3.604 1.396a.5.5 0 0 1 0 .708l-.25.25a.5.5 0 1 1-.708-.708l.25-.25a.5.5 0 0 1 .708 0Zm-7.493.215a.5.5 0 0 1 .707 0l.354.353a.5.5 0 0 1-.708.708l-.353-.354a.5.5 0 0 1 0-.707ZM6 4a2 2 0 0 0-2 2v2.5h1.5V6a.5.5 0 0 1 1 0v2.5H8V6a2 2 0 0 0-2-2Zm3 4.586V6a3 3 0 1 0-6 0v2.586A1.5 1.5 0 0 0 2 10v1a.5.5 0 0 0 .5.5h7a.5.5 0 0 0 .5-.5v-1a1.5 1.5 0 0 0-1-1.414ZM3.5 9.5a.5.5 0 0 0-.5.5v.5h6V10a.5.5 0 0 0-.5-.5h-5ZM.5 6a.5.5 0 0 1 .5-.5h.5a.5.5 0 0 1 0 1H1A.5.5 0 0 1 .5 6ZM10 6a.5.5 0 0 1 .5-.5h.5a.5.5 0 0 1 0 1h-.5A.5.5 0 0 1 10 6Z" clip-rule="evenodd"/>
  </g>
  <defs>
    <clipPath id="a">
      <path fill="#fff" d="M0 0h12v12H0z"/>
    </clipPath>
  </defs>
</svg>
