<svg aria-hidden="true" aria-label="Gmail" class="d-svg d-svg--native d-svg__gmail" viewBox="0 0 24 24" fill="none" xmlns="http://www.w3.org/2000/svg"><g clip-path="url(#clip0)"><path d="M6.545 19.004v-7.727L4.15 9.084 2 7.867v9.773c0 .755.611 1.364 1.364 1.364h3.181z" fill="#4285F4"/><path d="M17.454 19.004h3.182c.755 0 1.364-.612 1.364-1.364V7.868L19.566 9.26l-2.111 2.016v7.727z" fill="#34A853"/><path d="M6.545 11.277l-.326-3.02.326-2.89L12 9.458l5.454-4.09.365 2.733-.364 3.176L12 15.367l-5.455-4.09z" fill="#EA4335"/><path d="M17.454 5.367v5.91L22 7.867V6.05c0-1.686-1.925-2.647-3.273-1.636l-1.273.954z" fill="#FBBC04"/><path d="M2 7.867l2.09 1.568 2.455 1.841V5.368l-1.272-.954C3.923 3.4 2 4.363 2 6.049v1.818z" fill="#C5221F"/></g><defs><clipPath id="clip0"><path fill="#fff" transform="translate(2 4)" d="M0 0h20v15.08H0z"/></clipPath></defs></svg>