<svg aria-hidden="true" aria-label="Highfive" class="d-svg d-svg--native d-svg__highfive" viewBox="0 0 24 24" fill="none" xmlns="http://www.w3.org/2000/svg"><circle cx="12" cy="12" r="12" fill="#fff"/><path d="M5.714 18.282l-2.2 2.2a11.961 11.961 0 008.484 3.514V20.88a8.844 8.844 0 01-6.284-2.6z" fill="#F7AFFF"/><path d="M3.114 11.998a8.886 8.886 0 018.888-8.888V0C5.374 0 0 5.374 0 11.998c0 3.314 1.344 6.314 3.514 8.484l2.2-2.2a8.855 8.855 0 01-2.6-6.284z" fill="#A26EEA"/><path d="M18.282 5.714l2.2-2.2A11.961 11.961 0 0011.998 0v3.114c2.455 0 4.676.992 6.284 2.6z" fill="#46B7FD"/><path d="M24 11.998c0-3.314-1.344-6.314-3.514-8.484l-2.2 2.2a8.858 8.858 0 012.604 6.284 8.886 8.886 0 01-8.888 8.888V24C18.626 24 24 18.627 24 11.998z" fill="#5D70EA"/><path d="M11.998 14.755a2.757 2.757 0 100-5.514 2.757 2.757 0 000 5.514z" fill="#000"/></svg>