<svg aria-hidden="true" aria-label="Office 365" class="d-svg d-svg--native d-svg__office365" width="24" height="24" viewBox="0 0 24 24" fill="none" xmlns="http://www.w3.org/2000/svg"><path d="M13.943 2C13.918 2 3.021 6.013 3.006 6.028 3 6.033 2.999 8.738 3 12.041l.006 6.002 1.359-.521c.747-.287 1.58-.607 1.85-.712l.493-.19v-4.886c0-3.37.007-4.891.024-4.9a622.16 622.16 0 0 1 7.205-1.686c.022.013.022 14.359 0 14.372-.01.005-2.447-.319-5.418-.72-2.97-.402-5.407-.729-5.415-.726-.01.003 2.41.887 5.377 1.965 2.966 1.077 5.419 1.96 5.45 1.961.031 0 1.41-.365 3.062-.814L20 20.37l-.006-8.332-.005-8.332-3.012-.853A410.76 410.76 0 0 0 13.943 2z" fill="#EB3C00"/></svg>