<svg aria-hidden="true" aria-label="Zoom Icon" class="d-svg d-svg--native d-svg__zoomIcon" width="32" height="32" viewBox="0 0 32 32" fill="none" xmlns="http://www.w3.org/2000/svg"><rect width="32" height="32" rx="10" fill="url(#paint0_linear)"/><path d="M8 10.5a1 1 0 0 0-1 1v6.443a3 3 0 0 0 3 3h9.291a1 1 0 0 0 1-1V13.5a3 3 0 0 0-3-3H8zM21.592 13.096a1 1 0 0 0-.351.761v4.204a1 1 0 0 0 .35.76l2.51 2.14a1 1 0 0 0 1.649-.76v-8.484a1 1 0 0 0-1.649-.76l-2.51 2.14z" fill="#fff"/><defs><linearGradient id="paint0_linear" x1="16" y1="0" x2="16" y2="32" gradientUnits="userSpaceOnUse"><stop stop-color="#4594FF"/><stop offset=".6" stop-color="#357CFC"/><stop offset="1" stop-color="#2C6FFA"/></linearGradient></defs></svg>