<svg aria-hidden="true" aria-label="Ms Teams Device" class="d-svg d-svg--system d-svg__msTeamsDevice" width="49" height="48" viewBox="0 0 49 48"><path fill-rule="evenodd" clip-rule="evenodd" d="M17.672 36.194l1.494-7.282H24v-3h-4.22l1.642-8h5.34l-1.045 5.279c.045-.003.09-.005.136-.005h3.487l1.082-5.274H35l1-3h-4.963L32.455 8l-3.734.02-1.365 6.892h-5.319L23.455 8l-3.734.02-1.365 6.892H14l-1 3h4.762l-1.584 8H12l-1 3h4.584l-1.446 7.3 3.534-.018zm9.16-.775h-.98A1.853 1.853 0 0124 33.566v-1.707l-.862 4.354 3.534-.019.16-.775z"/><g clip-path="url(#clip0)"><path d="M38.95 26.977h5.166c.488 0 .884.395.884.883v4.706a3.248 3.248 0 01-3.248 3.248h-.015a3.248 3.248 0 01-3.249-3.248v-5.127c0-.256.207-.462.462-.462zM42.442 26.047a2.093 2.093 0 100-4.187 2.093 2.093 0 000 4.187z" fill="#5059C9"/><path d="M35.93 26.047a3.023 3.023 0 100-6.047 3.023 3.023 0 000 6.047zM39.961 26.977h-8.527a.875.875 0 00-.853.894v5.367a5.246 5.246 0 005.117 5.367 5.246 5.246 0 005.116-5.367v-5.367a.875.875 0 00-.853-.894z" fill="#7B83EB"/><path opacity=".1" d="M36.163 26.977v7.52a.856.856 0 01-.851.852H30.99a5.664 5.664 0 01-.41-2.112V27.87a.873.873 0 01.852-.893h4.73z"/><path opacity=".2" d="M35.698 26.977v7.986a.857.857 0 01-.851.851h-3.638a6.006 6.006 0 01-.218-.465 5.664 5.664 0 01-.41-2.112V27.87a.873.873 0 01.852-.893h4.265z"/><path opacity=".2" d="M35.698 26.977v7.056a.858.858 0 01-.851.85h-4.02a5.664 5.664 0 01-.246-1.646V27.87a.873.873 0 01.852-.893h4.265z"/><path opacity=".2" d="M35.233 26.977v7.056a.858.858 0 01-.852.85h-3.553a5.664 5.664 0 01-.247-1.646V27.87a.873.873 0 01.852-.893h3.8z"/><path opacity=".1" d="M36.163 24.572v1.465c-.08.005-.154.01-.233.01-.079 0-.153-.005-.232-.01a2.55 2.55 0 01-.465-.074 3.024 3.024 0 01-2.093-1.777 2.582 2.582 0 01-.15-.465h2.322c.469.002.849.382.85.851z"/><path opacity=".2" d="M35.698 25.037v1a2.55 2.55 0 01-.465-.074 3.024 3.024 0 01-2.093-1.777h1.707c.469.002.849.382.85.851z"/><path opacity=".2" d="M35.698 25.037v1a2.55 2.55 0 01-.465-.074 3.024 3.024 0 01-2.093-1.777h1.707c.469.002.849.382.85.851z"/><path opacity=".2" d="M35.233 25.037v.926a3.024 3.024 0 01-2.093-1.777h1.241c.47.002.85.382.852.851z"/><path d="M25.853 24.186h8.527c.47 0 .852.382.852.853v8.527c0 .47-.381.853-.852.853h-8.527a.853.853 0 01-.853-.853v-8.527c0-.471.382-.853.853-.853z" fill="url(#paint0_linear)"/><path d="M32.36 27.432h-1.705v4.642H29.57v-4.642h-1.696v-.9h4.487v.9z" fill="#fff"/></g><defs><linearGradient id="paint0_linear" x1="26.78" y1="23.52" x2="33.45" y2="35.08" gradientUnits="userSpaceOnUse"><stop stop-color="#5A62C3"/><stop offset=".5" stop-color="#4D55BD"/><stop offset="1" stop-color="#3940AB"/></linearGradient><clipPath id="clip0"><path fill="#fff" transform="translate(25 20)" d="M0 0h20v18.6H0z"/></clipPath></defs></svg>