<svg aria-hidden="true" aria-label="Uc Glyph" class="d-svg d-svg__ucGlyph" viewBox="0 0 24 24"><path d="M12 1.5a10.5 10.5 0 1 0 0 21 10.5 10.5 0 0 0 0-21m5.79 8.5h-1.44v4.7a2.7 2.7 0 0 1-1.16 2.23 4.2 4.2 0 0 1-1.37.6 9.02 9.02 0 0 1-3.64 0c-.53-.14-1-.34-1.36-.6-.38-.26-.68-.6-.87-.97-.2-.38-.3-.8-.3-1.26V10H6.21V8.5h4.45V10H9.22v4.77c0 .18.05.35.15.51.1.18.26.33.47.47.23.15.53.27.88.36a5.35 5.35 0 0 0 2.14.08l.42-.08c.36-.1.65-.21.88-.36.22-.14.37-.3.48-.47a1 1 0 0 0 .14-.51V9.99h-1.44V8.5h4.45V10z"/></svg>