<svg xmlns="http://www.w3.org/2000/svg" width="12" height="12" fill="none" viewBox="0 0 12 12">
  <g clip-path="url(#a)">
    <path fill="#000" fill-rule="evenodd" d="M6 .5a.5.5 0 0 1 .5.5v1a.5.5 0 0 1-1 0V1A.5.5 0 0 1 6 .5ZM2.111 2.111a.5.5 0 0 1 .708 0l.705.705a.5.5 0 1 1-.708.708l-.705-.705a.5.5 0 0 1 0-.708ZM9.5 6a.5.5 0 0 1 .5-.5h1a.5.5 0 0 1 0 1h-1a.5.5 0 0 1-.5-.5Zm.389-3.889a.5.5 0 0 1 0 .708l-.705.705a.5.5 0 0 1-.708-.708l.705-.705a.5.5 0 0 1 .708 0ZM4.764 3.826a2.5 2.5 0 0 1 3.703 2.58.5.5 0 1 1-.987-.162 1.5 1.5 0 0 0-2.222-1.548.5.5 0 0 1-.494-.87ZM3.98 6.558A2 2 0 1 0 3.5 10.5h3a1 1 0 0 0 0-2h-.55a.5.5 0 0 1-.49-.4 2 2 0 0 0-1.48-1.542Zm-1.43-.904A3 3 0 0 1 6.33 7.5h.17a2 2 0 1 1 0 4h-3a3 3 0 0 1-.95-5.846Z" clip-rule="evenodd"/>
  </g>
  <defs>
    <clipPath id="a">
      <path fill="#fff" d="M0 0h12v12H0z"/>
    </clipPath>
  </defs>
</svg>
