<svg xmlns="http://www.w3.org/2000/svg" width="12" height="12" fill="none" viewBox="0 0 12 12">
  <path fill="#000" fill-rule="evenodd" d="M5.598 2.209a3 3 0 0 0-3.24 4.89.5.5 0 0 1-.715.7A4 4 0 1 1 8.209 3.5h.54c.001 0 0 0 0 0a2.75 2.75 0 0 1 1.529 5.037.5.5 0 1 1-.556-.832A1.75 1.75 0 0 0 8.75 4.5h-.895a.5.5 0 0 1-.48-.357A3 3 0 0 0 5.599 2.21Z" clip-rule="evenodd"/>
  <path fill="#000" fill-rule="evenodd" d="M3.5 7.5A.5.5 0 0 1 4 7h.005a.5.5 0 0 1 0 1H4a.5.5 0 0 1-.5-.5Zm0 2A.5.5 0 0 1 4 9h.005a.5.5 0 0 1 0 1H4a.5.5 0 0 1-.5-.5Zm2-1A.5.5 0 0 1 6 8h.005a.5.5 0 0 1 0 1H6a.5.5 0 0 1-.5-.5Zm0 2A.5.5 0 0 1 6 10h.005a.5.5 0 0 1 0 1H6a.5.5 0 0 1-.5-.5Zm2-3A.5.5 0 0 1 8 7h.005a.5.5 0 0 1 0 1H8a.5.5 0 0 1-.5-.5Zm0 2A.5.5 0 0 1 8 9h.005a.5.5 0 0 1 0 1H8a.5.5 0 0 1-.5-.5Z" clip-rule="evenodd"/>
</svg>
