<svg xmlns="http://www.w3.org/2000/svg" width="12" height="12" fill="none" viewBox="0 0 12 12">
  <path fill="#000" fill-rule="evenodd" d="M5.598 2.209a3 3 0 0 0-3.24 4.89.5.5 0 0 1-.715.7A4 4 0 1 1 8.209 3.5h.54c.001 0 0 0 0 0a2.75 2.75 0 0 1 1.529 5.037.5.5 0 1 1-.556-.832A1.75 1.75 0 0 0 8.75 4.5h-.895a.5.5 0 0 1-.48-.357A3 3 0 0 0 5.599 2.21ZM4 9a.5.5 0 0 1 .5.5v.5a.5.5 0 0 1-1 0v-.5A.5.5 0 0 1 4 9Z" clip-rule="evenodd"/>
  <path fill="#000" fill-rule="evenodd" d="M4 6.5a.5.5 0 0 1 .5.5v.5a.5.5 0 0 1-1 0V7a.5.5 0 0 1 .5-.5ZM8 9a.5.5 0 0 1 .5.5v.5a.5.5 0 0 1-1 0v-.5A.5.5 0 0 1 8 9Zm0-2.5a.5.5 0 0 1 .5.5v.5a.5.5 0 0 1-1 0V7a.5.5 0 0 1 .5-.5ZM6 10a.5.5 0 0 1 .5.5v.5a.5.5 0 0 1-1 0v-.5A.5.5 0 0 1 6 10Zm0-2.5a.5.5 0 0 1 .5.5v.5a.5.5 0 0 1-1 0V8a.5.5 0 0 1 .5-.5Z" clip-rule="evenodd"/>
</svg>
