<svg xmlns="http://www.w3.org/2000/svg" width="12" height="12" fill="none" viewBox="0 0 12 12">
  <path fill="#000" fill-rule="evenodd" d="M4.179 1.007A4 4 0 0 1 8.205 3.5h.552a2.75 2.75 0 0 1 1.527 5.011.5.5 0 1 1-.569-.822A1.75 1.75 0 0 0 8.746 4.5H7.85a.5.5 0 0 1-.48-.358A3 3 0 1 0 2.357 7.1a.5.5 0 1 1-.712.702A4 4 0 0 1 4.18 1.008Z" clip-rule="evenodd"/>
  <path fill="#000" fill-rule="evenodd" d="M6 7.5a1 1 0 1 0 0 2 1 1 0 0 0 0-2Zm-2 1a2 2 0 1 1 4 0 2 2 0 0 1-4 0Z" clip-rule="evenodd"/>
  <path fill="#000" fill-rule="evenodd" d="M6 6a.5.5 0 0 1 .5.5V7a.5.5 0 0 1-1 0v-.5A.5.5 0 0 1 6 6Zm0 3.5a.5.5 0 0 1 .5.5v.5a.5.5 0 0 1-1 0V10a.5.5 0 0 1 .5-.5Zm1-1a.5.5 0 0 1 .5-.5H8a.5.5 0 0 1 0 1h-.5a.5.5 0 0 1-.5-.5Zm-3.5 0A.5.5 0 0 1 4 8h.5a.5.5 0 0 1 0 1H4a.5.5 0 0 1-.5-.5Zm4.354-1.854a.5.5 0 0 1 0 .708l-.44.44a.5.5 0 1 1-.708-.708l.44-.44a.5.5 0 0 1 .708 0Zm-2.56 2.56a.5.5 0 0 1 0 .708l-.44.44a.5.5 0 0 1-.708-.708l.44-.44a.5.5 0 0 1 .708 0Zm1.412 0a.5.5 0 0 1 .708 0l.44.44a.5.5 0 0 1-.708.708l-.44-.44a.5.5 0 0 1 0-.708Zm-2.56-2.56a.5.5 0 0 1 .708 0l.44.44a.5.5 0 1 1-.708.708l-.44-.44a.5.5 0 0 1 0-.708Z" clip-rule="evenodd"/>
</svg>
