<svg xmlns="http://www.w3.org/2000/svg" width="12" height="12" fill="none" viewBox="0 0 12 12">
  <path fill="#000" fill-rule="evenodd" d="M3.98 6.558A2 2 0 1 0 3.5 10.5h3a1 1 0 0 0 0-2h-.55a.5.5 0 0 1-.49-.4 2 2 0 0 0-1.48-1.542Zm-1.43-.904A3 3 0 0 1 6.33 7.5h.17a2 2 0 1 1 0 4h-3a3 3 0 0 1-.95-5.846Zm4.466-2.952a2.5 2.5 0 0 0-1.482 1.881.5.5 0 1 1-.985-.166A3.501 3.501 0 0 1 7.999 1.5a.5.5 0 0 1 .36.849 1.622 1.622 0 0 0 2.292 2.293A.5.5 0 0 1 11.5 5a3.498 3.498 0 0 1-1.75 3.031.5.5 0 1 1-.5-.865c.466-.27.836-.685 1.05-1.183a2.621 2.621 0 0 1-3.284-3.281Z" clip-rule="evenodd"/>
</svg>
