<svg xmlns="http://www.w3.org/2000/svg" width="12" height="12" fill="none" viewBox="0 0 12 12">
  <path fill="#000" fill-rule="evenodd" d="M2.246 2.746a.5.5 0 0 1 .708 0l.7.7a.5.5 0 1 1-.708.708l-.7-.7a.5.5 0 0 1 0-.708ZM.5 6.5A.5.5 0 0 1 1 6h1a.5.5 0 0 1 0 1H1a.5.5 0 0 1-.5-.5Zm9 0A.5.5 0 0 1 10 6h1a.5.5 0 0 1 0 1h-1a.5.5 0 0 1-.5-.5Zm.254-3.754a.5.5 0 0 1 0 .708l-.7.7a.5.5 0 1 1-.708-.708l.7-.7a.5.5 0 0 1 .708 0ZM.5 8.5A.5.5 0 0 1 1 8h10a.5.5 0 0 1 0 1H1a.5.5 0 0 1-.5-.5Zm0 2A.5.5 0 0 1 1 10h10a.5.5 0 0 1 0 1H1a.5.5 0 0 1-.5-.5Zm3.732-5.768A2.5 2.5 0 0 1 8.5 6.5a.5.5 0 0 1-1 0 1.5 1.5 0 0 0-3 0 .5.5 0 0 1-1 0 2.5 2.5 0 0 1 .732-1.768ZM6 .75a.5.5 0 0 1 .5.5V2.5a.5.5 0 0 1-1 0V1.25a.5.5 0 0 1 .5-.5Z" clip-rule="evenodd"/>
</svg>
