<svg xmlns="http://www.w3.org/2000/svg" width="12" height="12" fill="none" viewBox="0 0 12 12">
  <g clip-path="url(#a)">
    <path fill="#000" fill-rule="evenodd" d="M.5 6a.5.5 0 0 1 .5-.5h10a.5.5 0 0 1 0 1H1A.5.5 0 0 1 .5 6Z" clip-rule="evenodd"/>
    <path fill="#000" fill-rule="evenodd" d="M6 .5a.5.5 0 0 1 .5.5v10a.5.5 0 0 1-1 0V1A.5.5 0 0 1 6 .5Zm4.354 3.146a.5.5 0 0 1 0 .708L8.707 6l1.647 1.646a.5.5 0 0 1-.708.708l-2-2a.5.5 0 0 1 0-.708l2-2a.5.5 0 0 1 .708 0Zm-8.708 0a.5.5 0 0 1 .708 0l2 2a.5.5 0 0 1 0 .708l-2 2a.5.5 0 1 1-.708-.708L3.293 6 1.646 4.354a.5.5 0 0 1 0-.708Z" clip-rule="evenodd"/>
    <path fill="#000" fill-rule="evenodd" d="M3.646 1.646a.5.5 0 0 1 .708 0L6 3.293l1.646-1.647a.5.5 0 1 1 .708.708l-2 2a.5.5 0 0 1-.708 0l-2-2a.5.5 0 0 1 0-.708Zm2 6a.5.5 0 0 1 .708 0l2 2a.5.5 0 0 1-.708.708L6 8.707l-1.646 1.647a.5.5 0 0 1-.708-.708l2-2Z" clip-rule="evenodd"/>
  </g>
  <defs>
    <clipPath id="a">
      <path fill="#fff" d="M0 0h12v12H0z"/>
    </clipPath>
  </defs>
</svg>
