<svg xmlns="http://www.w3.org/2000/svg" width="12" height="12" fill="none" viewBox="0 0 12 12">
  <path fill="#000" fill-rule="evenodd" d="M4.232 4.232a2.5 2.5 0 1 1 3.536 3.536 2.5 2.5 0 0 1-3.536-3.536ZM6 4.5a1.5 1.5 0 1 0 0 3 1.5 1.5 0 0 0 0-3ZM5.5 2a.5.5 0 0 1 .5-.5h.005a.5.5 0 0 1 0 1H6a.5.5 0 0 1-.5-.5Zm4 4a.5.5 0 0 1 .5-.5h.005a.5.5 0 0 1 0 1H10a.5.5 0 0 1-.5-.5Zm-4 4a.5.5 0 0 1 .5-.5h.005a.5.5 0 0 1 0 1H6a.5.5 0 0 1-.5-.5Zm-4-4a.5.5 0 0 1 .5-.5h.005a.5.5 0 0 1 0 1H2a.5.5 0 0 1-.5-.5Zm6.829-2.828a.5.5 0 0 1 .5-.5h.005a.5.5 0 0 1 0 1h-.005a.5.5 0 0 1-.5-.5Zm0 5.656a.5.5 0 0 1 .5-.5h.005a.5.5 0 0 1 0 1h-.005a.5.5 0 0 1-.5-.5Zm-5.658 0a.5.5 0 0 1 .5-.5h.006a.5.5 0 0 1 0 1H3.17a.5.5 0 0 1-.5-.5Zm0-5.656a.5.5 0 0 1 .5-.5h.006a.5.5 0 0 1 0 1H3.17a.5.5 0 0 1-.5-.5Z" clip-rule="evenodd"/>
</svg>
