<svg xmlns="http://www.w3.org/2000/svg" width="12" height="12" fill="none" viewBox="0 0 12 12">
  <path fill="#000" fill-rule="evenodd" d="M4.232 4.232a2.5 2.5 0 1 1 3.536 3.536 2.5 2.5 0 0 1-3.536-3.536ZM6 4.5a1.5 1.5 0 1 0 0 3 1.5 1.5 0 0 0 0-3ZM6 1a.5.5 0 0 1 .5.5V2a.5.5 0 0 1-1 0v-.5A.5.5 0 0 1 6 1Zm0 8.5a.5.5 0 0 1 .5.5v.5a.5.5 0 0 1-1 0V10a.5.5 0 0 1 .5-.5ZM1 6a.5.5 0 0 1 .5-.5H2a.5.5 0 0 1 0 1h-.5A.5.5 0 0 1 1 6Zm8.5 0a.5.5 0 0 1 .5-.5h.5a.5.5 0 0 1 0 1H10a.5.5 0 0 1-.5-.5Zm.036-3.536a.5.5 0 0 1 0 .708l-.354.353a.5.5 0 1 1-.707-.707l.353-.354a.5.5 0 0 1 .708 0ZM3.525 8.475a.5.5 0 0 1 0 .707l-.353.354a.5.5 0 1 1-.708-.708l.354-.353a.5.5 0 0 1 .707 0ZM2.464 2.464a.5.5 0 0 1 .708 0l.353.354a.5.5 0 1 1-.707.707l-.354-.353a.5.5 0 0 1 0-.708Zm6.011 6.011a.5.5 0 0 1 .707 0l.354.353a.5.5 0 0 1-.708.708l-.353-.354a.5.5 0 0 1 0-.707Z" clip-rule="evenodd"/>
</svg>
