<svg xmlns="http://www.w3.org/2000/svg" width="12" height="12" fill="none" viewBox="0 0 12 12">
  <g clip-path="url(#a)">
    <path fill="#000" fill-rule="evenodd" d="M6 4.5a1.5 1.5 0 1 0 0 3 1.5 1.5 0 0 0 0-3ZM3.5 6a2.5 2.5 0 1 1 5 0 2.5 2.5 0 0 1-5 0ZM6 .5a.5.5 0 0 1 .5.5v1a.5.5 0 0 1-1 0V1A.5.5 0 0 1 6 .5Zm0 9a.5.5 0 0 1 .5.5v1a.5.5 0 0 1-1 0v-1a.5.5 0 0 1 .5-.5ZM2.111 2.111a.5.5 0 0 1 .708 0l.705.705a.5.5 0 1 1-.708.708l-.705-.705a.5.5 0 0 1 0-.708Zm6.365 6.365a.5.5 0 0 1 .708 0l.705.705a.5.5 0 0 1-.708.708l-.705-.705a.5.5 0 0 1 0-.708ZM.5 6a.5.5 0 0 1 .5-.5h1a.5.5 0 0 1 0 1H1A.5.5 0 0 1 .5 6Zm9 0a.5.5 0 0 1 .5-.5h1a.5.5 0 0 1 0 1h-1a.5.5 0 0 1-.5-.5ZM3.524 8.476a.5.5 0 0 1 0 .708l-.705.705a.5.5 0 0 1-.708-.708l.705-.705a.5.5 0 0 1 .708 0Zm6.365-6.365a.5.5 0 0 1 0 .708l-.705.705a.5.5 0 0 1-.708-.708l.705-.705a.5.5 0 0 1 .708 0Z" clip-rule="evenodd"/>
  </g>
  <defs>
    <clipPath id="a">
      <path fill="#fff" d="M0 0h12v12H0z"/>
    </clipPath>
  </defs>
</svg>
