<svg xmlns="http://www.w3.org/2000/svg" width="12" height="12" fill="none" viewBox="0 0 12 12">
  <g clip-path="url(#a)">
    <path fill="#000" fill-rule="evenodd" d="M6 .5a.5.5 0 0 1 .5.5v4a.5.5 0 0 1-1 0V1A.5.5 0 0 1 6 .5ZM2.111 5.111a.5.5 0 0 1 .708 0l.705.705a.5.5 0 1 1-.708.708l-.705-.705a.5.5 0 0 1 0-.708ZM.5 9a.5.5 0 0 1 .5-.5h1a.5.5 0 0 1 0 1H1A.5.5 0 0 1 .5 9Zm9 0a.5.5 0 0 1 .5-.5h1a.5.5 0 0 1 0 1h-1a.5.5 0 0 1-.5-.5Zm.389-3.889a.5.5 0 0 1 0 .708l-.705.705a.5.5 0 0 1-.708-.708l.705-.705a.5.5 0 0 1 .708 0ZM.5 11a.5.5 0 0 1 .5-.5h10a.5.5 0 0 1 0 1H1a.5.5 0 0 1-.5-.5Z" clip-rule="evenodd"/>
    <path fill="#000" fill-rule="evenodd" d="M5.646.646a.5.5 0 0 1 .708 0l2 2a.5.5 0 1 1-.708.708L6 1.707 4.354 3.354a.5.5 0 1 1-.708-.708l2-2ZM4.232 7.232A2.5 2.5 0 0 1 8.5 9a.5.5 0 0 1-1 0 1.5 1.5 0 0 0-3 0 .5.5 0 0 1-1 0 2.5 2.5 0 0 1 .732-1.768Z" clip-rule="evenodd"/>
  </g>
  <defs>
    <clipPath id="a">
      <path fill="#fff" d="M0 0h12v12H0z"/>
    </clipPath>
  </defs>
</svg>
