<svg xmlns="http://www.w3.org/2000/svg" width="12" height="12" fill="none" viewBox="0 0 12 12">
  <g clip-path="url(#a)">
    <path fill="#000" fill-rule="evenodd" d="M4.46 4.505A2.5 2.5 0 0 1 6.009 4a.5.5 0 0 1-.016 1 1.5 1.5 0 0 0-.75 2.812.5.5 0 1 1-.484.876 2.5 2.5 0 0 1-.297-4.183ZM6 1a.5.5 0 0 1 .5.5v1a.5.5 0 0 1-1 0v-1A.5.5 0 0 1 6 1ZM3.654 8.846a.5.5 0 0 1 0 .708l-.7.7a.5.5 0 0 1-.708-.708l.7-.7a.5.5 0 0 1 .708 0ZM9 1.5a.5.5 0 0 0-.5.5v5.27a.5.5 0 0 1-.25.433 1.5 1.5 0 1 0 1.5 0 .5.5 0 0 1-.25-.433V2a.5.5 0 0 0-.5-.5ZM7.94.94A1.5 1.5 0 0 1 10.5 2v5.002a2.5 2.5 0 1 1-3 0V2c0-.398.158-.78.44-1.06ZM.5 6.5A.5.5 0 0 1 1 6h1a.5.5 0 0 1 0 1H1a.5.5 0 0 1-.5-.5Zm1.611-3.889a.5.5 0 0 1 .708 0l.705.705a.5.5 0 1 1-.708.708l-.705-.705a.5.5 0 0 1 0-.708Z" clip-rule="evenodd"/>
  </g>
  <defs>
    <clipPath id="a">
      <path fill="#fff" d="M0 0h12v12H0z"/>
    </clipPath>
  </defs>
</svg>
