<svg xmlns="http://www.w3.org/2000/svg" width="12" height="12" fill="none" viewBox="0 0 12 12">
  <g clip-path="url(#a)">
    <path fill="#000" fill-rule="evenodd" d="M.5 6a.5.5 0 0 1 .5-.5h5a.5.5 0 0 1 0 1H1A.5.5 0 0 1 .5 6Z" clip-rule="evenodd"/>
    <path fill="#000" fill-rule="evenodd" d="M4.5 1.5A.5.5 0 0 1 5 2v8a.5.5 0 0 1-1 0V2a.5.5 0 0 1 .5-.5ZM1.146 4.146a.5.5 0 0 1 .708 0l1.5 1.5a.5.5 0 0 1 0 .708l-1.5 1.5a.5.5 0 1 1-.708-.708L2.293 6 1.146 4.854a.5.5 0 0 1 0-.708Z" clip-rule="evenodd"/>
    <path fill="#000" fill-rule="evenodd" d="M2.646 2.646a.5.5 0 0 1 .708 0L4.5 3.793l1.146-1.147a.5.5 0 1 1 .708.708l-1.5 1.5a.5.5 0 0 1-.708 0l-1.5-1.5a.5.5 0 0 1 0-.708Zm1.5 4.5a.5.5 0 0 1 .708 0l.75.75a.5.5 0 1 1-.708.708L4.5 8.207 3.354 9.354a.5.5 0 1 1-.708-.708l1.5-1.5ZM9 1.5a.5.5 0 0 0-.5.5v5.27a.5.5 0 0 1-.25.433 1.5 1.5 0 1 0 1.5 0 .5.5 0 0 1-.25-.433V2a.5.5 0 0 0-.5-.5ZM7.94.94A1.5 1.5 0 0 1 10.5 2v5.002a2.5 2.5 0 1 1-3 0V2c0-.398.158-.78.44-1.06Z" clip-rule="evenodd"/>
  </g>
  <defs>
    <clipPath id="a">
      <path fill="#fff" d="M0 0h12v12H0z"/>
    </clipPath>
  </defs>
</svg>
