<svg xmlns="http://www.w3.org/2000/svg" width="12" height="12" fill="none" viewBox="0 0 12 12">
  <g clip-path="url(#a)">
    <path fill="#000" fill-rule="evenodd" d="M2.286 2.423a5.56 5.56 0 0 1 7.428 0 5.46 5.46 0 0 1 1.784 3.528A.5.5 0 0 1 11 6.5H1a.5.5 0 0 1-.498-.549 5.46 5.46 0 0 1 1.784-3.528Zm.668.744A4.46 4.46 0 0 0 1.586 5.5h8.828a4.46 4.46 0 0 0-1.368-2.333 4.56 4.56 0 0 0-6.092 0Z" clip-rule="evenodd"/>
    <path fill="#000" fill-rule="evenodd" d="M6 5.5a.5.5 0 0 1 .5.5v4a.5.5 0 0 0 1 0 .5.5 0 0 1 1 0 1.5 1.5 0 0 1-3 0V6a.5.5 0 0 1 .5-.5Zm0-5a.5.5 0 0 1 .5.5v.5a.5.5 0 0 1-1 0V1A.5.5 0 0 1 6 .5Z" clip-rule="evenodd"/>
  </g>
  <defs>
    <clipPath id="a">
      <path fill="#fff" d="M0 0h12v12H0z"/>
    </clipPath>
  </defs>
</svg>
