<svg xmlns="http://www.w3.org/2000/svg" width="12" height="12" fill="none" viewBox="0 0 12 12">
  <path fill="#000" fill-rule="evenodd" d="M9.869 4.016a.75.75 0 0 0-.672.194.5.5 0 0 1-.694-.72 1.75 1.75 0 1 1 1.26 3.01H1a.5.5 0 1 1 0-1h8.743a.75.75 0 0 0 .126-1.484Z" clip-rule="evenodd"/>
  <path fill="#000" fill-rule="evenodd" d="M5.61 2.51a.5.5 0 0 0-.453.14.5.5 0 1 1-.714-.7A1.5 1.5 0 1 1 5.497 4.5H1a.5.5 0 1 1 0-1h4.507a.5.5 0 0 0 .103-.99ZM6.997 7.5a1.5 1.5 0 1 1-1.054 2.55.5.5 0 1 1 .714-.7.5.5 0 1 0 .35-.85H1a.5.5 0 0 1 0-1h5.997Z" clip-rule="evenodd"/>
</svg>
