<svg xmlns="http://www.w3.org/2000/svg" width="12" height="12" fill="none" viewBox="0 0 12 12">
  <path fill="#000" d="M1 4a.5.5 0 0 0 1 0H1Zm1 4a.5.5 0 0 0-1 0h1Zm4.662-4.162a.5.5 0 1 0-.707.707l.707-.707ZM8.116 6l.354.354a.5.5 0 0 0 0-.708L8.116 6ZM5.955 7.455a.5.5 0 0 0 .707.707l-.707-.707ZM.5 5.5a.5.5 0 1 0 0 1v-1Zm1.5-3a.5.5 0 0 1 .5-.5V1A1.5 1.5 0 0 0 1 2.5h1Zm.5 7.5a.5.5 0 0 1-.5-.5H1A1.5 1.5 0 0 0 2.5 11v-1Zm7 0h-7v1h7v-1Zm.5-.5a.5.5 0 0 1-.5.5v1A1.5 1.5 0 0 0 11 9.5h-1Zm0-7v7h1v-7h-1ZM9.5 2a.5.5 0 0 1 .5.5h1A1.5 1.5 0 0 0 9.5 1v1Zm-7 0h7V1h-7v1ZM2 4V2.5H1V4h1Zm0 5.5V8H1v1.5h1Zm3.955-4.955 1.808 1.809.707-.708-1.808-1.808-.707.707Zm1.808 1.101L5.955 7.455l.707.707L8.47 6.354l-.707-.708ZM.5 6.5h7.616v-1H.5v1Z"/>
</svg>
