<svg xmlns="http://www.w3.org/2000/svg" width="12" height="12" fill="none" viewBox="0 0 12 12">
  <path stroke="#000" stroke-linecap="round" stroke-linejoin="round" d="M9.5 10.5v-1a2 2 0 0 0-2-2h-3a2 2 0 0 0-2 2v1m-1-9h.005m1.995 0h.005m4.995 0h.005M1.5 4.5h.005m-.005 3h.005m1.995-3h.005m-.005 3h.005M2.5 3h.005M2.5 6h.005M10.5 1.5h.005m-.005 3h.005m-.005 3h.005M8.5 4.5h.005m-.005 3h.005M9.5 3h.005M9.5 6h.005M8 3.5a2 2 0 1 1-4 0 2 2 0 0 1 4 0Zm-6.44-2a.06.06 0 1 0-.12 0 .06.06 0 0 0 .12 0Zm0 3a.06.06 0 1 0-.12 0 .06.06 0 0 0 .12 0Zm0 3a.06.06 0 1 0-.12 0 .06.06 0 0 0 .12 0Zm1-1.5a.06.06 0 1 0-.12 0 .06.06 0 0 0 .12 0Zm0-3a.06.06 0 1 0-.12 0 .06.06 0 0 0 .12 0Zm1-1.5a.06.06 0 1 0-.12 0 .06.06 0 0 0 .12 0Zm0 3a.06.06 0 1 0-.12 0 .06.06 0 0 0 .12 0Zm0 3a.06.06 0 1 0-.12 0 .06.06 0 0 0 .12 0Zm5.003-6a.06.06 0 1 0-.121 0 .06.06 0 0 0 .12 0Zm0 3a.06.06 0 1 0-.121 0 .06.06 0 0 0 .12 0Zm0 3a.06.06 0 1 0-.121 0 .06.06 0 0 0 .12 0Zm1.997-6a.06.06 0 1 0-.12 0 .06.06 0 0 0 .12 0Zm0 3a.06.06 0 1 0-.12 0 .06.06 0 0 0 .12 0Zm0 3a.06.06 0 1 0-.12 0 .06.06 0 0 0 .12 0Zm-1-1.5a.06.06 0 1 0-.12 0 .06.06 0 0 0 .12 0Z"/>
</svg>
