<svg xmlns="http://www.w3.org/2000/svg" width="12" height="12" fill="none" viewBox="0 0 12 12">
  <g clip-path="url(#a)">
    <path stroke="#000" stroke-linecap="round" stroke-linejoin="round" d="M1.485 6.46A1 1 0 0 0 1 7.315v1.62a1 1 0 0 0 .485.855l1.5.9a1 1 0 0 0 1.03 0L6 9.5V6.75l-2.5-1.5-2.015 1.21v0ZM3.5 8.25 1.13 6.825M3.5 8.25 6 6.75m-2.5 1.5v2.585M6 6.75V9.5l1.985 1.19a1 1 0 0 0 1.03 0l1.5-.9A1 1 0 0 0 11 8.935v-1.62a1 1 0 0 0-.485-.855L8.5 5.25 6 6.75Zm2.5 1.5L6 6.75m2.5 1.5 2.37-1.425M8.5 8.25v2.585"/>
    <path stroke="#000" stroke-linecap="round" stroke-linejoin="round" d="M3.985 2.21a1 1 0 0 0-.485.855V5.25L6 6.75l2.5-1.5V3.065a1 1 0 0 0-.485-.855l-1.5-.9a1 1 0 0 0-1.03 0l-1.5.9v0ZM6 4 3.63 2.575M6 4l2.37-1.425M6 6.75V4"/>
  </g>
  <defs>
    <clipPath id="a">
      <path fill="#fff" d="M0 0h12v12H0z"/>
    </clipPath>
  </defs>
</svg>
