<svg xmlns="http://www.w3.org/2000/svg" width="12" height="12" fill="none" viewBox="0 0 12 12">
  <g clip-path="url(#a)">
    <path stroke="#000" stroke-linecap="round" stroke-linejoin="round" d="M3 11V2c0-.135 0-.275.035-.41a.738.738 0 0 1 .55-.555C3.73 1 4.365 1 4.5 1H8c.135 0 .275 0 .41.035a.738.738 0 0 1 .555.55C9 1.725 9 1.865 9 2v9m-6 0h6m-6 0H2c-.55 0-1-.45-1-1V7a1.7 1.7 0 0 1 .035-.41c.035-.135.1-.26.195-.355a.78.78 0 0 1 .36-.2C1.725 6 1.865 6 2 6h1v5Zm6 0V4.5h1a1.7 1.7 0 0 1 .41.035c.135.035.26.1.355.195.1.1.165.225.2.36.035.135.035.27.035.41V10a1 1 0 0 1-1 1H9ZM5 3h2M5 5h2M5 7h2M5 9h2"/>
  </g>
  <defs>
    <clipPath id="a">
      <path fill="#fff" d="M0 0h12v12H0z"/>
    </clipPath>
  </defs>
</svg>
