<svg xmlns="http://www.w3.org/2000/svg" width="12" height="12" fill="none" viewBox="0 0 12 12">
  <path stroke="#000" stroke-linecap="round" stroke-linejoin="round" d="M10.5 5V3a1 1 0 0 0-1-1h-7a1 1 0 0 0-1 1v7c0 .55.45 1 1 1H6M8 1v2M4 1v2M1.5 5h9"/>
  <path stroke="#000" stroke-linecap="round" stroke-linejoin="round" d="M10.645 7.35a1.215 1.215 0 0 0-1.325-.26c-.15.06-.285.15-.4.265l-.17.17-.175-.17a1.215 1.215 0 0 0-1.72 0c-.475.47-.5 1.265.1 1.87L8.75 11l1.8-1.775c.6-.605.57-1.4.095-1.87V7.35Z"/>
</svg>
