<svg xmlns="http://www.w3.org/2000/svg" width="12" height="12" fill="none" viewBox="0 0 12 12">
  <path stroke="#000" stroke-linecap="round" stroke-linejoin="round" d="M7.5 1h-3a.5.5 0 0 0-.5.5v1a.5.5 0 0 0 .5.5h3a.5.5 0 0 0 .5-.5v-1a.5.5 0 0 0-.5-.5Z"/>
  <path stroke="#000" stroke-linecap="round" stroke-linejoin="round" d="M4 2H3a1 1 0 0 0-1 1v7a1 1 0 0 0 1 1h6a1 1 0 0 0 1-1V9M8 2h1a1 1 0 0 1 1 1v2m.5 2h-5"/>
  <path stroke="#000" stroke-linecap="round" stroke-linejoin="round" d="m7.5 5-2 2 2 2"/>
</svg>
