<svg xmlns="http://www.w3.org/2000/svg" width="12" height="12" fill="none" viewBox="0 0 12 12">
  <path stroke="#000" stroke-linecap="round" stroke-linejoin="round" d="M7.5 1h-3a.5.5 0 0 0-.5.5v1a.5.5 0 0 0 .5.5h3a.5.5 0 0 0 .5-.5v-1a.5.5 0 0 0-.5-.5Z"/>
  <path stroke="#000" stroke-linecap="round" stroke-linejoin="round" d="M4 2H3a1 1 0 0 0-1 1v7a1 1 0 0 0 1 1h6a1 1 0 0 0 1-1v-.25M8 2h1a1 1 0 0 1 .865.5"/>
  <path stroke="#000" stroke-linecap="round" stroke-linejoin="round" d="M9.21 4.805a1.05 1.05 0 1 1 1.485 1.485L8.475 8.5 6.5 9l.495-1.975 2.215-2.22ZM4 9h.5"/>
</svg>
