<svg xmlns="http://www.w3.org/2000/svg" width="12" height="12" fill="none" viewBox="0 0 12 12">
  <g clip-path="url(#a)">
    <path fill="#000" d="M2.333 10.833a.5.5 0 0 0 0 1v-1Zm7.467 1a.5.5 0 1 0 0-1v1Zm-8.467-9.5v-.5a.5.5 0 0 0-.5.5h.5Zm9.334 0h.5a.5.5 0 0 0-.5-.5v.5Zm0 7.334v.5a.5.5 0 0 0 .5-.5h-.5Zm-9.334 0h-.5a.5.5 0 0 0 .5.5v-.5Zm1-9.5a.5.5 0 0 0 0 1v-1Zm7.334 1a.5.5 0 0 0 0-1v1Zm-1.5 8.3a.5.5 0 1 0 1 0h-1Zm-.834-1.8v-.5.5Zm-2.666 0v-.5.5Zm-2.334 4.166H9.8v-1H2.333v1Zm-1-9h9.334v-1H1.333v1Zm8.834-.5v7.334h1V2.333h-1Zm.5 6.834H1.333v1h9.334v-1Zm-8.834.5V2.333h-1v7.334h1Zm.5-8.5h7.334v-1H2.333v1Zm6.834 8.3V9h-1v.467h1Zm0-.467a1.83 1.83 0 0 0-.537-1.296l-.707.707A.833.833 0 0 1 8.167 9h1ZM8.63 7.704a1.833 1.833 0 0 0-1.297-.537v1c.221 0 .433.087.59.244l.707-.707Zm-1.297-.537H4.667v1h2.666v-1Zm-2.666 0c-.487 0-.953.193-1.297.537l.707.707a.833.833 0 0 1 .59-.244v-1Zm-1.297.537A1.83 1.83 0 0 0 2.833 9h1c0-.221.088-.433.244-.59l-.707-.706ZM2.833 9v.467h1V9h-1Zm4-3.667c0 .46-.373.834-.833.834v1a1.833 1.833 0 0 0 1.833-1.834h-1ZM6 6.167a.833.833 0 0 1-.833-.834h-1c0 1.013.82 1.834 1.833 1.834v-1Zm-.833-.834c0-.46.373-.833.833-.833v-1c-1.013 0-1.833.82-1.833 1.833h1ZM6 4.5c.46 0 .833.373.833.833h1C7.833 4.321 7.013 3.5 6 3.5v1Z"/>
  </g>
  <defs>
    <clipPath id="a">
      <path fill="#fff" d="M0 0h12v12H0z"/>
    </clipPath>
  </defs>
</svg>
