<svg xmlns="http://www.w3.org/2000/svg" width="12" height="12" fill="none" viewBox="0 0 12 12">
  <path fill="#000" d="M.524 9.348a.5.5 0 1 0 .952.304l-.952-.304Zm2.42-5.94.476.151v-.001l-.477-.15Zm3.168-.004-.477.15v.002l.477-.152ZM7.61 8.096l.476-.15v-.002l-.476.152ZM11.5 4.53a.5.5 0 0 0-1 0h1ZM11 1.5a.5.5 0 0 0 0 1v-1Zm.005 1a.5.5 0 0 0 0-1v1Zm-.002 0a.5.5 0 1 0 0-1v1ZM1.476 9.652 3.42 3.559l-.953-.304L.524 9.348l.952.304ZM3.42 3.558c.222-.706.692-1.058 1.108-1.058v-1c-1.01 0-1.763.809-2.061 1.757l.953.3ZM4.528 2.5c.416 0 .885.351 1.107 1.055l.954-.302c-.3-.946-1.051-1.753-2.06-1.753v1Zm1.108 1.056 1.496 4.692.953-.304-1.497-4.692-.952.304Zm1.496 4.69c.3.948 1.052 1.754 2.06 1.754V9c-.415 0-.884-.351-1.107-1.055l-.953.302ZM9.192 10c1.262 0 2.308-.998 2.308-2.257h-1C10.5 8.424 9.928 9 9.193 9v1ZM11.5 7.743V4.53h-1v3.212h1ZM11 2.5h.005v-1H11v1Zm-.25-.5a.25.25 0 0 1 .25-.25v1a.75.75 0 0 0 .75-.75h-1Zm.25-.25a.25.25 0 0 1 .25.25h-1c0 .414.336.75.75.75v-1Zm.25.25a.25.25 0 0 1-.25.25v-1a.75.75 0 0 0-.75.75h1Zm-.25.25a.25.25 0 0 1-.25-.25h1a.75.75 0 0 0-.75-.75v1Zm0 .25h.003v-1H11v1Z"/>
</svg>
