<svg xmlns="http://www.w3.org/2000/svg" width="12" height="12" fill="none" viewBox="0 0 12 12">
  <g clip-path="url(#a)">
    <path stroke="#000" stroke-linecap="round" stroke-linejoin="round" d="M4.94 4.94a1.5 1.5 0 1 0 2.12 2.12M5.365 2.54c.21-.026.423-.04.635-.04 3.5 0 5 3.5 5 3.5a6.578 6.578 0 0 1-.835 1.34"/>
    <path stroke="#000" stroke-linecap="round" stroke-linejoin="round" d="M3.305 3.305A6.763 6.763 0 0 0 1 6s1.5 3.5 5 3.5a4.87 4.87 0 0 0 2.695-.805M1 1l10 10"/>
  </g>
  <defs>
    <clipPath id="a">
      <path fill="#fff" d="M0 0h12v12H0z"/>
    </clipPath>
  </defs>
</svg>
