<svg xmlns="http://www.w3.org/2000/svg" width="12" height="12" fill="none" viewBox="0 0 12 12">
  <g clip-path="url(#a)">
    <path stroke="#000" stroke-linecap="round" stroke-linejoin="round" d="M9.91 1H2.09A1.09 1.09 0 0 0 1 2.09v7.82c0 .602.488 1.09 1.09 1.09h7.82A1.09 1.09 0 0 0 11 9.91V2.09A1.09 1.09 0 0 0 9.91 1ZM3.5 1v10m5-10v10M1 6h10M1 3.5h2.5M1 8.5h2.5m5 0H11m-2.5-5H11"/>
  </g>
  <defs>
    <clipPath id="a">
      <path fill="#fff" d="M0 0h12v12H0z"/>
    </clipPath>
  </defs>
</svg>
