<svg xmlns="http://www.w3.org/2000/svg" width="12" height="12" fill="none" viewBox="0 0 12 12">
  <g clip-path="url(#a)">
    <path stroke="#000" stroke-linecap="round" stroke-linejoin="round" d="M1 6c0-2.75 2.25-5 5-5a5 5 0 0 1 4 2"/>
    <path stroke="#000" stroke-linecap="round" stroke-linejoin="round" d="M2.5 9.75C2.75 9 3 7.5 3 6c0-.35.06-.685.17-1m5.475 5.51c.06-.3.215-1.15.25-1.51M6 5a1 1 0 0 0-1 1c0 .51-.05 1.255-.13 2m-.545 3c.105-.33.225-.66.285-1M7 6.56C7 7.75 7 9.75 6.5 11M1 8h.005M10.9 8c.1-1 .066-2.677 0-3M4.5 3.4A3 3 0 0 1 9 6c0 .235 0 .585-.01 1"/>
  </g>
  <defs>
    <clipPath id="a">
      <path fill="#fff" d="M0 0h12v12H0z"/>
    </clipPath>
  </defs>
</svg>
