<svg xmlns="http://www.w3.org/2000/svg" width="12" height="12" fill="none" viewBox="0 0 12 12">
  <path stroke="#000" stroke-linecap="round" stroke-linejoin="round" d="M6.5 5H10a.5.5 0 0 0 .5-.5V3a.5.5 0 0 0-.5-.5H8.75a.5.5 0 0 1-.4-.2l-.45-.6a.5.5 0 0 0-.4-.2h-1A.5.5 0 0 0 6 2v2.5a.5.5 0 0 0 .5.5Zm0 5.5H10a.5.5 0 0 0 .5-.5V8.5A.5.5 0 0 0 10 8H8.56a.5.5 0 0 1-.45-.275l-.22-.45A.5.5 0 0 0 7.44 7H6.5a.5.5 0 0 0-.5.5V10a.5.5 0 0 0 .5.5Zm-5-9v1c0 .55.45 1 1 1H4"/>
  <path stroke="#000" stroke-linecap="round" stroke-linejoin="round" d="M1.5 1.5V8c0 .55.45 1 1 1H4"/>
</svg>
