<svg xmlns="http://www.w3.org/2000/svg" width="12" height="12" fill="none" viewBox="0 0 12 12">
  <g clip-path="url(#a)">
    <path stroke="#000" stroke-linecap="round" stroke-linejoin="round" d="M7.5 10.5v-2a1 1 0 0 1 1-1h2M3.5 2v1A1.5 1.5 0 0 0 5 4a1 1 0 0 1 1 1 1 1 0 0 0 2 0 1 1 0 0 1 1-1h1.5m-9 1.5h1a1 1 0 0 1 1 1V7a1 1 0 0 0 1 1 1 1 0 0 1 1 1v2M11 6A5 5 0 1 1 1 6a5 5 0 0 1 10 0Z"/>
  </g>
  <defs>
    <clipPath id="a">
      <path fill="#fff" d="M0 0h12v12H0z"/>
    </clipPath>
  </defs>
</svg>
