<svg xmlns="http://www.w3.org/2000/svg" width="12" height="12" fill="none" viewBox="0 0 12 12">
  <path stroke="#000" stroke-linecap="round" stroke-linejoin="round" d="M5.048 1.065c.24.027.414.243.387.483l-.28 2.515h2.12l.29-2.611a.438.438 0 0 1 .87.096l-.28 2.515H10a.438.438 0 0 1 0 .875H8.058l-.236 2.125H10a.438.438 0 0 1 0 .875H7.725l-.29 2.61a.438.438 0 0 1-.87-.096l.28-2.514h-2.12l-.29 2.61a.438.438 0 0 1-.87-.096l.28-2.514H2a.438.438 0 0 1 0-.875h1.942l.236-2.125H2a.438.438 0 0 1 0-.875h2.275l.29-2.611a.438.438 0 0 1 .483-.387Zm.01 3.873-.236 2.125h2.12l.236-2.125h-2.12Z" clip-rule="evenodd"/>
  <path fill="#000" fill-rule="evenodd" d="M5.048 1.065c.24.027.414.243.387.483l-.28 2.515h2.12l.29-2.611a.438.438 0 0 1 .87.096l-.28 2.515H10a.438.438 0 0 1 0 .875H8.058l-.236 2.125H10a.438.438 0 0 1 0 .875H7.725l-.29 2.61a.438.438 0 0 1-.87-.096l.28-2.514h-2.12l-.29 2.61a.438.438 0 0 1-.87-.096l.28-2.514H2a.438.438 0 0 1 0-.875h1.942l.236-2.125H2a.438.438 0 0 1 0-.875h2.275l.29-2.611a.438.438 0 0 1 .483-.387Zm.01 3.873-.236 2.125h2.12l.236-2.125h-2.12Z" clip-rule="evenodd"/>
</svg>
