<svg xmlns="http://www.w3.org/2000/svg" width="12" height="12" fill="none" viewBox="0 0 12 12">
  <path fill="#000" d="M3.25 3a.5.5 0 0 0 0 1V3Zm.01 1a.5.5 0 0 0 0-1v1Zm-.004 0a.5.5 0 1 0 0-1v1ZM3.25 5.75a.5.5 0 0 0 0 1v-1Zm.01 1a.5.5 0 0 0 0-1v1Zm-.004 0a.5.5 0 1 0 0-1v1ZM3.25 8.5a.5.5 0 0 0 0 1v-1Zm.01 1a.5.5 0 0 0 0-1v1Zm-.004 0a.5.5 0 1 0 0-1v1ZM6 3a.5.5 0 0 0 0 1V3Zm.01 1a.5.5 0 0 0 0-1v1Zm-.004 0a.5.5 0 1 0 0-1v1ZM6 5.75a.5.5 0 0 0 0 1v-1Zm.01 1a.5.5 0 0 0 0-1v1Zm-.004 0a.5.5 0 1 0 0-1v1ZM6 8.5a.5.5 0 0 0 0 1v-1Zm.01 1a.5.5 0 0 0 0-1v1Zm-.004 0a.5.5 0 1 0 0-1v1ZM8.75 3a.5.5 0 0 0 0 1V3Zm.01 1a.5.5 0 0 0 0-1v1Zm-.004 0a.5.5 0 1 0 0-1v1ZM8.75 5.75a.5.5 0 0 0 0 1v-1Zm.01 1a.5.5 0 0 0 0-1v1Zm-.004 0a.5.5 0 1 0 0-1v1ZM8.75 8.5a.5.5 0 0 0 0 1v-1Zm.01 1a.5.5 0 0 0 0-1v1Zm-.004 0a.5.5 0 1 0 0-1v1ZM3.25 4h.01V3h-.01v1Zm0-.5v1a1 1 0 0 0 1-1h-1Zm0 0h-1a1 1 0 0 0 1 1v-1Zm0 0v-1a1 1 0 0 0-1 1h1Zm0 0h1a1 1 0 0 0-1-1v1Zm0 .5h.006V3H3.25v1Zm0 2.75h.01v-1h-.01v1Zm0-.5v1a1 1 0 0 0 1-1h-1Zm0 0h-1a1 1 0 0 0 1 1v-1Zm0 0v-1a1 1 0 0 0-1 1h1Zm0 0h1a1 1 0 0 0-1-1v1Zm0 .5h.006v-1H3.25v1Zm0 2.75h.01v-1h-.01v1Zm0-.5v1a1 1 0 0 0 1-1h-1Zm0 0h-1a1 1 0 0 0 1 1V9Zm0 0V8a1 1 0 0 0-1 1h1Zm0 0h1a1 1 0 0 0-1-1v1Zm0 .5h.006v-1H3.25v1ZM6 4h.01V3H6v1Zm0-.5v1a1 1 0 0 0 1-1H6Zm0 0H5a1 1 0 0 0 1 1v-1Zm0 0v-1a1 1 0 0 0-1 1h1Zm0 0h1a1 1 0 0 0-1-1v1ZM6 4h.006V3H6v1Zm0 2.75h.01v-1H6v1Zm0-.5v1a1 1 0 0 0 1-1H6Zm0 0H5a1 1 0 0 0 1 1v-1Zm0 0v-1a1 1 0 0 0-1 1h1Zm0 0h1a1 1 0 0 0-1-1v1Zm0 .5h.006v-1H6v1ZM6 9.5h.01v-1H6v1ZM6 9v1a1 1 0 0 0 1-1H6Zm0 0H5a1 1 0 0 0 1 1V9Zm0 0V8a1 1 0 0 0-1 1h1Zm0 0h1a1 1 0 0 0-1-1v1Zm0 .5h.006v-1H6v1ZM8.75 4h.01V3h-.01v1Zm0-.5v1a1 1 0 0 0 1-1h-1Zm0 0h-1a1 1 0 0 0 1 1v-1Zm0 0v-1a1 1 0 0 0-1 1h1Zm0 0h1a1 1 0 0 0-1-1v1Zm0 .5h.006V3H8.75v1Zm0 2.75h.01v-1h-.01v1Zm0-.5v1a1 1 0 0 0 1-1h-1Zm0 0h-1a1 1 0 0 0 1 1v-1Zm0 0v-1a1 1 0 0 0-1 1h1Zm0 0h1a1 1 0 0 0-1-1v1Zm0 .5h.006v-1H8.75v1Zm0 2.75h.01v-1h-.01v1Zm0-.5v1a1 1 0 0 0 1-1h-1Zm0 0h-1a1 1 0 0 0 1 1V9Zm0 0V8a1 1 0 0 0-1 1h1Zm0 0h1a1 1 0 0 0-1-1v1Zm0 .5h.006v-1H8.75v1Z"/>
</svg>
