<svg xmlns="http://www.w3.org/2000/svg" width="12" height="12" fill="none" viewBox="0 0 12 12">
  <g clip-path="url(#a)">
    <path stroke="#000" stroke-linecap="round" stroke-linejoin="round" d="M2 11a1 1 0 0 1-1-1V5.5c0-.55.45-1 1-1h1M2 11h8a1 1 0 0 0 1-1V2a1 1 0 0 0-1-1H4a1 1 0 0 0-1 1v8a1 1 0 0 1-1 1Zm7-4H5m2.5 2H5"/>
    <path stroke="#000" stroke-linecap="round" stroke-linejoin="round" d="M5 3h4v2H5V3Z"/>
  </g>
  <defs>
    <clipPath id="a">
      <path fill="#fff" d="M0 0h12v12H0z"/>
    </clipPath>
  </defs>
</svg>
