<svg xmlns="http://www.w3.org/2000/svg" width="12" height="12" fill="none" viewBox="0 0 12 12">
  <g clip-path="url(#a)">
    <path stroke="#000" stroke-linecap="round" stroke-linejoin="round" d="M2.9 5.65 1 11l5.35-1.895M2 1.5h.005M11 4h.005M7.5 1h.005M11 10h.005M11 1l-1.12.375a1.45 1.45 0 0 0-.98 1.56v0a.73.73 0 0 1-.725.815h-.19c-.43 0-.8.3-.88.72L7 5m4 1.5-.41-.165c-.43-.17-.91.1-.99.555a.725.725 0 0 1-.715.61H8.5M5.5 1l.165.41c.17.43-.1.91-.555.99-.35.05-.61.36-.61.715V3.5"/>
    <path stroke="#000" stroke-linecap="round" stroke-linejoin="round" d="M5.5 6.5c.965.965 1.415 2.085 1 2.5-.415.415-1.535-.035-2.5-1-.965-.965-1.415-2.085-1-2.5.415-.415 1.535.035 2.5 1Z"/>
  </g>
  <defs>
    <clipPath id="a">
      <path fill="#fff" d="M0 0h12v12H0z"/>
    </clipPath>
  </defs>
</svg>
