<svg xmlns="http://www.w3.org/2000/svg" width="12" height="12" fill="none" viewBox="0 0 12 12">
  <g clip-path="url(#a)">
    <path stroke="#000" stroke-linecap="round" stroke-linejoin="round" d="M9.72 3.925a.512.512 0 0 0 .144.439l.784.784a1.202 1.202 0 0 1 0 1.704l-.805.806a.49.49 0 0 1-.419.138c-.235-.035-.401-.24-.484-.463A1.25 1.25 0 1 0 7.333 8.94c.223.083.428.249.463.484a.49.49 0 0 1-.138.419l-.805.805a1.202 1.202 0 0 1-1.705 0l-.784-.784a.513.513 0 0 0-.438-.145c-.247.037-.42.252-.51.484a1.25 1.25 0 1 1-1.619-1.618c.232-.09.447-.264.484-.51a.513.513 0 0 0-.145-.439l-.784-.784a1.201 1.201 0 0 1 0-1.704l.763-.763c.12-.12.29-.176.459-.151.257.038.438.264.536.505a1.25 1.25 0 1 0 1.63-1.63c-.241-.098-.467-.279-.505-.536a.537.537 0 0 1 .151-.459l.763-.762a1.201 1.201 0 0 1 1.703 0l.784.784a.514.514 0 0 0 .439.145c.246-.037.42-.252.51-.484a1.25 1.25 0 1 1 1.618 1.619c-.232.09-.447.263-.483.51v-.001Z"/>
  </g>
  <defs>
    <clipPath id="a">
      <path fill="#fff" d="M0 0h12v12H0z"/>
    </clipPath>
  </defs>
</svg>
