<svg xmlns="http://www.w3.org/2000/svg" width="12" height="12" fill="none" viewBox="0 0 12 12">
  <path stroke="#000" stroke-linecap="round" stroke-linejoin="round" d="M3.5 1.5H2a.5.5 0 0 0-.5.5v1.5A.5.5 0 0 0 2 4h1.5a.5.5 0 0 0 .5-.5V2a.5.5 0 0 0-.5-.5Zm6.5 0H8.5A.5.5 0 0 0 8 2v1.5a.5.5 0 0 0 .5.5H10a.5.5 0 0 0 .5-.5V2a.5.5 0 0 0-.5-.5ZM3.5 8H2a.5.5 0 0 0-.5.5V10a.5.5 0 0 0 .5.5h1.5A.5.5 0 0 0 4 10V8.5a.5.5 0 0 0-.5-.5Zm7 0H9a1 1 0 0 0-1 1v1.5m2.5 0v.005M6 3.5V5a1 1 0 0 1-1 1H3.5m-2 0h.005M6 1.5h.005M6 8v.005M8 6h.5m2 0v.005M6 10.5V10"/>
</svg>
