<svg xmlns="http://www.w3.org/2000/svg" width="12" height="12" fill="none" viewBox="0 0 12 12">
  <g clip-path="url(#a)">
    <path stroke="#000" stroke-linecap="round" stroke-linejoin="round" d="M6.11 1h-.22a1 1 0 0 0-1 1v.09a1 1 0 0 1-.5.865l-.215.125a1 1 0 0 1-1 0L3.1 3.04a1 1 0 0 0-1.365.365l-.11.19A1 1 0 0 0 1.99 4.96l.075.05a1 1 0 0 1 .5.86v.255a1 1 0 0 1-.5.87l-.075.045a1 1 0 0 0-.365 1.365l.11.19A1 1 0 0 0 3.1 8.96l.075-.04a1 1 0 0 1 1 0l.215.125a1 1 0 0 1 .5.865V10a1 1 0 0 0 1 1h.22a1 1 0 0 0 1-1v-.09a1 1 0 0 1 .5-.865l.215-.125a1 1 0 0 1 1 0l.075.04a1 1 0 0 0 1.365-.365l.11-.195a1 1 0 0 0-.365-1.365l-.075-.04a1 1 0 0 1-.5-.87v-.25a1 1 0 0 1 .5-.87l.075-.045a1 1 0 0 0 .365-1.365l-.11-.19A1 1 0 0 0 8.9 3.04l-.075.04a1 1 0 0 1-1 0l-.215-.125a1 1 0 0 1-.5-.865V2a1 1 0 0 0-1-1Z"/>
    <path stroke="#000" stroke-linecap="round" stroke-linejoin="round" d="M6 7.5a1.5 1.5 0 1 0 0-3 1.5 1.5 0 0 0 0 3Z"/>
  </g>
  <defs>
    <clipPath id="a">
      <path fill="#fff" d="M0 0h12v12H0z"/>
    </clipPath>
  </defs>
</svg>
