<svg xmlns="http://www.w3.org/2000/svg" width="12" height="12" fill="none" viewBox="0 0 12 12">
  <g clip-path="url(#a)">
    <path fill="#fff" d="m10.516 9.977-.814.8a.77.77 0 0 1-.578.223.778.778 0 0 1-.557-.27 7.416 7.416 0 0 1-1.509-3.123 7.24 7.24 0 0 1 0-3.203c.25-1.147.77-2.22 1.52-3.133a.766.766 0 0 1 .555-.27.78.78 0 0 1 .577.22l.814.8a.75.75 0 0 1 .076.993 4.86 4.86 0 0 0-.573.937.759.759 0 0 1-.281.321.777.777 0 0 1-.413.122h-.69a5.942 5.942 0 0 0 0 3.202h.69a.775.775 0 0 1 .694.443c.155.333.347.647.573.937a.746.746 0 0 1-.084 1Z"/>
    <path fill="#000" d="M3.412 3.839a.5.5 0 1 0-.707.707l.707-.707ZM4.866 6l.354.354a.5.5 0 0 0 0-.707L4.866 6ZM2.705 7.455a.5.5 0 0 0 .707.707l-.707-.707ZM1.25 5.5a.5.5 0 0 0 0 1v-1Zm9.266 4.477-.342-.365-.009.008.35.357Zm-.814.8-.35-.356-.002.002.352.355Zm-1.135-.047-.387.316.006.007.381-.324ZM7.058 7.606l.489-.106-.001-.005-.488.111Zm0-3.203.488.111V4.51l-.488-.107Zm1.52-3.133L8.197.948l-.005.006.386.317Zm1.132-.05.35-.357-.35.357Zm.814.8-.35.357.003.003.347-.36Zm.076.993.394.308.003-.004-.397-.304Zm-.573.937-.453-.21.453.21Zm-.694.443v.5h.002l-.002-.5Zm-.69 0v-.5a.5.5 0 0 0-.481.365l.481.135Zm0 3.202-.481.135a.5.5 0 0 0 .481.365v-.5Zm.69 0 .002-.5h-.002v.5Zm.694.443-.454.21.454-.21Zm.573.937.397-.304-.003-.003-.394.307Zm-7.895-4.43 1.808 1.808.707-.707-1.808-1.808-.707.707Zm1.808 1.1L2.705 7.456l.707.707L5.22 6.354l-.707-.707ZM1.25 6.5h3.616v-1H1.25v1Zm8.915 3.12-.814.801.701.713.814-.8-.7-.714Zm-.815.803a.269.269 0 0 1-.093.06l.36.932a1.27 1.27 0 0 0 .437-.282l-.704-.71Zm-.093.06a.279.279 0 0 1-.112.018l-.042.999c.175.007.35-.021.513-.085l-.36-.933Zm-.112.018a.279.279 0 0 1-.11-.028l-.437.9c.157.076.33.12.505.127l.042-1Zm-.11-.028a.266.266 0 0 1-.086-.067l-.763.647c.114.134.254.242.412.32l.437-.9Zm-.08-.06a6.916 6.916 0 0 1-1.408-2.912l-.977.212a7.917 7.917 0 0 0 1.61 3.333l.774-.633Zm-1.41-2.917a6.74 6.74 0 0 1 0-2.981l-.974-.221a7.74 7.74 0 0 0 0 3.424l.975-.222Zm.002-2.985a6.917 6.917 0 0 1 1.417-2.922L8.192.954A7.917 7.917 0 0 0 6.57 4.298l.977.213Zm1.412-2.916a.266.266 0 0 1 .087-.067L8.607.629a1.266 1.266 0 0 0-.41.319l.762.647Zm.087-.067a.278.278 0 0 1 .109-.028L9.11.501a1.278 1.278 0 0 0-.503.128l.439.899Zm.109-.028a.28.28 0 0 1 .112.018l.356-.934A1.28 1.28 0 0 0 9.11.5l.045 1Zm.112.018a.27.27 0 0 1 .093.06l.7-.714a1.27 1.27 0 0 0-.437-.28l-.356.934Zm.092.06.814.8.702-.713-.815-.8-.7.712Zm.818.803a.25.25 0 0 1 .077.16l.997-.076a1.25 1.25 0 0 0-.38-.804l-.694.72Zm.077.16a.246.246 0 0 1-.051.17l.794.607c.186-.244.277-.547.254-.853l-.997.077Zm-.048.166c-.25.32-.462.666-.632 1.033l.907.421c.138-.298.31-.58.513-.84l-.788-.614ZM9.573 3.74a.259.259 0 0 1-.096.11l.538.843c.203-.13.365-.315.466-.534l-.908-.419Zm-.096.11a.277.277 0 0 1-.147.043l.005 1c.24-.002.477-.07.68-.2l-.538-.843Zm-.144.043h-.69v1h.69v-1Zm-1.171.365a6.442 6.442 0 0 0 0 3.472l.963-.27a5.442 5.442 0 0 1 0-2.933l-.963-.269Zm.481 3.837h.69v-1h-.69v1Zm.687 0c.053 0 .104.016.147.043l.538-.843a1.277 1.277 0 0 0-.68-.2l-.005 1Zm.147.043a.259.259 0 0 1 .096.11l.908-.42a1.259 1.259 0 0 0-.466-.533l-.538.843Zm.097.11c.17.368.382.715.632 1.035l.788-.615a4.331 4.331 0 0 1-.513-.84l-.907.42Zm.629 1.031a.24.24 0 0 1 .05.17l.997.084a1.246 1.246 0 0 0-.253-.862l-.794.608Zm.05.17a.25.25 0 0 1-.079.162l.684.73a1.25 1.25 0 0 0 .392-.808l-.996-.084Z"/>
  </g>
  <defs>
    <clipPath id="a">
      <path fill="#fff" d="M0 0h12v12H0z"/>
    </clipPath>
  </defs>
</svg>
