<svg xmlns="http://www.w3.org/2000/svg" width="12" height="12" fill="none" viewBox="0 0 12 12">
  <g clip-path="url(#a)">
    <path stroke="#000" stroke-linecap="round" stroke-linejoin="round" d="m3.25 4.5.197.131a1 1 0 0 0 1.11-.002L4.75 4.5m2.5 0 .197.131a1 1 0 0 0 1.11-.002L8.75 4.5M10.899 6a5 5 0 1 1-10 0 5 5 0 0 1 10 0Zm-3 2a1.769 1.769 0 0 0-.692-1.083A2.142 2.142 0 0 0 5.9 6.5a2.142 2.142 0 0 0-1.308.417c-.367.275-.613.66-.692 1.083h4Z"/>
  </g>
  <defs>
    <clipPath id="a">
      <path fill="#fff" d="M0 0h12v12H0z"/>
    </clipPath>
  </defs>
</svg>
