<svg width="125" height="129" viewBox="0 0 125 129" fill="none" xmlns="http://www.w3.org/2000/svg">
<path d="M24.6699 97.1361V35.4601L74.66 6.89429L124.001 35.4601V97.1361L74.66 125.053L24.6699 97.1361Z" fill="#EFEBE1"/>
<path d="M5.19238 97.1361V35.4601L55.1825 6.89429L104.523 35.4601V97.1361L55.1825 125.053L5.19238 97.1361Z" stroke="#7C52FF" stroke-width="2" stroke-linecap="round" stroke-linejoin="round"/>
<line x1="5.6716" y1="35.076" x2="37.2443" y2="52.1779" stroke="#7C52FF" stroke-width="2"/>
<line x1="74.0648" y1="79.7973" x2="104.34" y2="95.6006" stroke="#7C52FF" stroke-width="2"/>
<line y1="-1" x2="35.9069" y2="-1" transform="matrix(-0.879292 0.476283 0.476283 0.879292 105.173 35.9558)" stroke="#7C52FF" stroke-width="2"/>
<line y1="-1" x2="35.9069" y2="-1" transform="matrix(-0.879292 0.476283 0.476283 0.879292 36.769 80.6838)" stroke="#7C52FF" stroke-width="2"/>
<path d="M55.186 6.89429V40.6538" stroke="#7C52FF" stroke-width="2"/>
<path d="M55.186 91.2925V125.052" stroke="#7C52FF" stroke-width="2"/>
<circle cx="55.1833" cy="6.24534" r="5.843" fill="#7C52FF"/>
<circle cx="55" cy="65" r="14" fill="#7C52FF"/>
<circle cx="55.1833" cy="123.105" r="5.843" fill="#7C52FF"/>
<circle cx="104.521" cy="34.8105" r="5.843" fill="#7C52FF"/>
<circle cx="104.521" cy="95.8391" r="5.843" fill="#7C52FF"/>
<circle cx="5.843" cy="34.8105" r="5.843" fill="#7C52FF"/>
<circle cx="5.843" cy="95.8391" r="5.843" fill="#7C52FF"/>
</svg>
