<svg aria-hidden="true" class="dialtone-logo__svg d-icon--native d-icon--dialpad-logo" width="180" height="48" viewbox="0 0 180 48" xmlns="http://www.w3.org/2000/svg" style="max-width: 12rem"><path d="M79.254 11.147a2.147 2.147 0 11-4.294 0 2.147 2.147 0 014.294 0zM104.521 34.02V9.318c0-.13.106-.235.235-.235h3.021c.131 0 .236.105.236.235V34.02c0 .13-.105.235-.236.235h-3.021a.236.236 0 01-.235-.235z"/>
    <style>
        path { fill: #7C52FF; }
    </style>
    <path fill-rule="evenodd" clip-rule="evenodd" d="M67.91 9.325v8.66c-1.449-1.65-3.502-2.666-6.02-2.666-5.197 0-9.425 4.316-9.425 9.622 0 5.305 4.228 9.621 9.424 9.621 2.52 0 4.572-1.016 6.022-2.665v2.13c0 .13.105.235.235.235h3.02c.13 0 .236-.106.236-.235V9.325a.235.235 0 00-.235-.235h-3.021a.235.235 0 00-.235.235zM62.084 31c-3.274 0-5.788-2.719-5.788-6.06 0-3.342 2.514-6.06 5.788-6.06 3.273 0 5.488 2.718 5.488 6.06 0 3.341-2.215 6.06-5.488 6.06zM121.486 15.316c-2.519 0-4.572 1.016-6.021 2.666v-1.919a.236.236 0 00-.235-.235h-3.021a.235.235 0 00-.236.235v24.701c0 .13.105.236.236.236h3.021a.236.236 0 00.235-.236v-8.87c1.449 1.65 3.502 2.665 6.021 2.665 5.197 0 9.425-4.316 9.425-9.622 0-5.304-4.228-9.62-9.425-9.62zm-.193 15.682c-3.274 0-5.488-2.719-5.488-6.06 0-3.342 2.214-6.06 5.488-6.06 3.273 0 5.787 2.718 5.787 6.06 0 3.34-2.514 6.06-5.787 6.06zM97.07 16.063v1.921c-1.45-1.649-3.503-2.665-6.021-2.665-5.197 0-9.426 4.316-9.426 9.622 0 5.305 4.229 9.621 9.426 9.621 2.518 0 4.572-1.016 6.02-2.665v2.13c0 .13.106.235.236.235h3.021c.13 0 .235-.106.235-.235V16.063a.235.235 0 00-.235-.235h-3.021a.235.235 0 00-.235.235zm-5.828 14.938c-3.274 0-5.788-2.719-5.788-6.06 0-3.342 2.514-6.06 5.788-6.06 3.273 0 5.488 2.718 5.488 6.06 0 3.341-2.215 6.06-5.488 6.06zM148.257 17.984v-1.92c0-.131.105-.236.235-.236h3.021c.13 0 .236.105.236.235v17.964c0 .13-.106.235-.236.235h-3.021a.235.235 0 01-.235-.235v-2.13c-1.449 1.65-3.502 2.665-6.021 2.665-5.197 0-9.425-4.316-9.425-9.621 0-5.306 4.228-9.622 9.425-9.622 2.519 0 4.572 1.016 6.021 2.665zm-11.616 6.957c0 3.341 2.514 6.06 5.788 6.06 3.273 0 5.488-2.719 5.488-6.06 0-3.342-2.215-6.06-5.488-6.06-3.274 0-5.788 2.718-5.788 6.06zM169.525 17.984v-8.66c0-.13.106-.234.235-.234h3.021c.13 0 .236.105.236.235v24.702c0 .13-.106.235-.236.235h-3.021a.236.236 0 01-.235-.235v-2.13c-1.449 1.65-3.502 2.665-6.021 2.665-5.197 0-9.425-4.316-9.425-9.621 0-5.306 4.228-9.622 9.425-9.622 2.519 0 4.572 1.016 6.021 2.665zm-11.615 6.957c0 3.341 2.513 6.06 5.787 6.06s5.488-2.719 5.488-6.06c0-3.342-2.214-6.06-5.488-6.06-3.274 0-5.787 2.718-5.787 6.06z"/><path d="M75.362 16.063V34.02c0 .13.106.235.235.235h3.021c.13 0 .236-.105.236-.235V16.063a.235.235 0 00-.236-.235h-3.02a.236.236 0 00-.236.235zM23.814 23.61c.644-4.684 4.658-8.292 9.516-8.292 5.307 0 9.61 4.304 9.61 9.613 0 5.309-4.303 9.612-9.61 9.612a9.581 9.581 0 01-3.74-.755l-5.62 5.81a.144.144 0 01-.249-.1V26.252c-.644 4.683-4.657 8.291-9.516 8.291-5.307 0-9.61-4.303-9.61-9.612 0-5.31 4.303-9.613 9.61-9.613 1.327 0 2.59.27 3.74.755l5.62-5.81a.145.145 0 01.25.1V23.61z"/></svg>
