<svg xmlns="http://www.w3.org/2000/svg" width="12" height="12" fill="none" viewBox="0 0 12 12">
  <path fill="#000" fill-rule="evenodd" d="M4.5 2a1.5 1.5 0 1 0 0 3 1.5 1.5 0 0 0 0-3ZM2 3.5a2.5 2.5 0 1 1 5 0 2.5 2.5 0 0 1-5 0Zm5.516-2.059a.5.5 0 0 1 .608-.36 2.5 2.5 0 0 1 0 4.843.5.5 0 0 1-.248-.968 1.5 1.5 0 0 0 0-2.907.5.5 0 0 1-.36-.608ZM1.232 7.732A2.5 2.5 0 0 1 3 7h3a2.5 2.5 0 0 1 2.5 2.5v1a.5.5 0 0 1-1 0v-1A1.5 1.5 0 0 0 6 8H3a1.5 1.5 0 0 0-1.5 1.5v1a.5.5 0 0 1-1 0v-1a2.5 2.5 0 0 1 .732-1.768Zm7.784-.292a.5.5 0 0 1 .609-.36A2.5 2.5 0 0 1 11.5 9.5v1a.5.5 0 0 1-1 0v-1a1.5 1.5 0 0 0-1.125-1.45.5.5 0 0 1-.36-.61Z" clip-rule="evenodd"/>
</svg>
