<svg xmlns="http://www.w3.org/2000/svg" width="12" height="12" fill="none" viewBox="0 0 12 12">
  <path fill="#000" fill-rule="evenodd" d="M4.5 2a1.5 1.5 0 1 0 0 3 1.5 1.5 0 0 0 0-3ZM2 3.5a2.5 2.5 0 1 1 5 0 2.5 2.5 0 0 1-5 0Zm7.5 0a.5.5 0 0 1 .5.5v1h1a.5.5 0 0 1 0 1h-1v1a.5.5 0 0 1-1 0V6H8a.5.5 0 0 1 0-1h1V4a.5.5 0 0 1 .5-.5ZM1.232 7.732A2.5 2.5 0 0 1 3 7h3a2.5 2.5 0 0 1 2.5 2.5v1a.5.5 0 0 1-1 0v-1A1.5 1.5 0 0 0 6 8H3a1.5 1.5 0 0 0-1.5 1.5v1a.5.5 0 0 1-1 0v-1a2.5 2.5 0 0 1 .732-1.768Z" clip-rule="evenodd"/>
</svg>
