<svg aria-hidden="true" aria-label="Contacts" class="d-svg d-svg__contacts" viewBox="0 0 24 24"><path d="M8 11a2.99 2.99 0 0 0 2.99-3A3 3 0 1 0 8 11zM8 13c-2.33 0-7 1.17-7 3.5V19h14v-2.5c0-2.33-4.67-3.5-7-3.5zM13.95 6a.95.95 0 0 0-.95.95V7c0 .52.42.95.95.95h8.1c.53 0 .95-.43.95-.95v-.05a.95.95 0 0 0-.95-.95h-8.1zM13.95 9.9a.95.95 0 0 0-.95.94v.05c0 .52.42.95.95.95h8.1c.53 0 .95-.43.95-.95v-.05a.95.95 0 0 0-.95-.95h-8.1zM22.05 15.73c.53 0 .95-.42.95-.95v-.05a.95.95 0 0 0-.95-.95H17.7a.95.95 0 0 0-.95.95v.05c0 .53.42.95.95.95h4.35z" fill="#141721"/></svg>