<svg aria-hidden="true" aria-label="International Calling" class="d-svg d-svg__internationalCalling" viewBox="0 0 24 24"><path fill-rule="evenodd" clip-rule="evenodd" d="M2 12a10 10 0 1 1 20 0 10 10 0 0 1-20 0zm17.75 2a7.98 7.98 0 0 0 0-4H16.9a19.83 19.83 0 0 1 0 4h2.85zm-.82 2h-2.35c-.26 1.21-.64 2.3-1.12 3.21A8.06 8.06 0 0 0 18.93 16zm-4.04-2a17.73 17.73 0 0 0 0-4H9.1a17.74 17.74 0 0 0 0 4h5.78zm-5.42 2h5.06c-.2.83-.48 1.56-.78 2.18-.8 1.6-1.53 1.82-1.75 1.82-.22 0-.95-.23-1.75-1.82-.3-.62-.57-1.35-.78-2.18zM7.1 14a19.83 19.83 0 0 1 0-4H4.25a7.98 7.98 0 0 0 0 4H7.1zm-2.03 2h2.35c.26 1.21.64 2.3 1.12 3.21A8.06 8.06 0 0 1 5.07 16zm10.4-11.21A8.06 8.06 0 0 1 18.92 8h-2.35c-.26-1.21-.64-2.3-1.12-3.21zm-1.72 1.03c.3.62.57 1.35.78 2.18H9.47c.2-.83.48-1.56.78-2.18C11.05 4.22 11.78 4 12 4c.22 0 .95.23 1.75 1.82zM8.54 4.8c-.48.9-.86 2-1.12 3.21H5.07a8.06 8.06 0 0 1 3.47-3.21z"/></svg>