<svg aria-hidden="true" aria-label="International Calling Alt" class="d-svg d-svg__internationalCallingAlt" viewBox="0 0 24 24"><path d="M20 12c0 2.08-.8 3.97-2.1 5.39-.26-.81-1-1.39-1.9-1.39h-1v-3a1 1 0 0 0-1-1H8v-2h2a1 1 0 0 0 1-1V7c.5 0 1-.5 1-1V2a10 10 0 1 0 10 10h-2zm-9 7.93a7.99 7.99 0 0 1-6.79-9.72L9 15v1c0 1.1.9 2 2 2v1.93z"/><path d="M14.81 5.9a7.57 7.57 0 0 0 3.3 3.29l1.1-1.1a.5.5 0 0 1 .5-.12 5.7 5.7 0 0 0 1.79.29c.27 0 .5.22.5.5v1.74a.5.5 0 0 1-.5.5A8.5 8.5 0 0 1 13 2.5c0-.27.22-.5.5-.5h1.75c.28 0 .5.23.5.5 0 .63.1 1.23.29 1.79a.5.5 0 0 1-.13.5l-1.1 1.1z"/></svg>