<svg aria-hidden="true" aria-label="Record Filled" class="d-svg d-svg__recordFilled" viewBox="0 0 24 24"><path d="M7.5 11.6c.18 0 .32-.04.42-.13.1-.1.16-.23.16-.41v-.36c0-.18-.05-.31-.16-.4a.6.6 0 0 0-.42-.15H6.22v1.46H7.5z"/><path fill-rule="evenodd" clip-rule="evenodd" d="M4 4h16a2 2 0 0 1 2 2v12a2 2 0 0 1-2 2H4a2 2 0 0 1-2-2l.01-12c0-1.11.88-2 1.99-2zm12.48 10.6c.3.12.65.18 1.03.18.51 0 .94-.12 1.28-.35.34-.23.61-.56.82-.99l-1-.58a1.5 1.5 0 0 1-.4.6c-.17.16-.4.24-.7.24-.36 0-.65-.12-.87-.35-.21-.23-.32-.57-.32-1.01v-.9c0-.44.1-.78.32-1 .22-.24.5-.36.87-.36.3 0 .53.07.68.22.16.13.28.32.36.56l1.04-.55c-.2-.45-.47-.78-.8-.99A2.35 2.35 0 0 0 17.5 9c-.38 0-.72.06-1.03.2-.3.12-.56.3-.77.56-.22.25-.38.55-.5.92-.12.36-.18.78-.18 1.25s.06.89.18 1.25c.12.35.28.64.5.88.2.24.47.42.77.54zm-10.26.08H5V9.1h2.65c.25 0 .49.04.7.12.2.09.38.21.52.37.15.16.27.34.35.56.08.22.12.46.12.73 0 .38-.09.7-.26 1-.17.27-.42.48-.76.6l1.1 2.2H8.06l-.97-2.05h-.87v2.05zm4.17 0V9.1h3.8v1.08h-2.58v1.14h2.21v1.07h-2.21v1.21h2.58v1.08h-3.8z"/></svg>