<svg aria-hidden="true" aria-label="Google Calendar" class="d-svg d-svg--system d-svg__googleCalendar" viewBox="0 0 24 24"><path d="M19.777 2H4.224c-.889 0-1.609.72-1.609 1.609l.03 10.19h18.74V3.609c0-.889-.72-1.609-1.608-1.609z" fill="#C2C2C2"/><path d="M20.85 5.218H3.15a1.608 1.608 0 0 0-1.594 1.829l1.058 6.752h18.77l1.058-6.752a1.608 1.608 0 0 0-1.594-1.829z" fill="#3367D6"/><path opacity=".5" d="M20.85 5.218H3.15a1.608 1.608 0 0 0-1.594 1.829l1.058 6.752h18.77l1.058-6.752a1.608 1.608 0 0 0-1.594-1.829z" fill="#2A56C6"/><path d="M21.918 20.66l-.532-6.861H2.616l-.533 6.86a1.608 1.608 0 0 0 1.605 1.72h16.625a1.608 1.608 0 0 0 1.605-1.72z" fill="#4285F4"/><path d="M2.615 13.799l8.58 8.58h10.727V13.8H2.615z" fill="url(#paint0_linear)"/><path d="M3.151 5.352H20.85c.87 0 1.578.692 1.607 1.555l.002-.08c0-.89-.72-1.61-1.609-1.61H3.151c-.889 0-1.609.72-1.609 1.61 0 .027.002.053.003.08a1.608 1.608 0 0 1 1.606-1.555z" fill="#fff" fill-opacity=".2"/><path d="M20.313 22.245H3.688c-.87 0-1.578-.691-1.607-1.555a1.608 1.608 0 0 0 1.606 1.69h16.626a1.608 1.608 0 0 0 1.606-1.69 1.608 1.608 0 0 1-1.606 1.555z" fill="#1A237E" fill-opacity=".2"/><path d="M19.777 2H4.224c-.889 0-1.609.72-1.609 1.609v.127a1.61 1.61 0 0 1 1.609-1.602h15.553c.889 0 1.609.72 1.609 1.609v-.134c0-.889-.72-1.609-1.61-1.609z" fill="#fff" fill-opacity=".2"/><path d="M10.426 13.683c.61-.252 1.396-.922 1.396-1.932 0-1.555-.999-2.51-2.681-2.51-1.5 0-2.707.98-2.729 2.412h1.089c.016-.836.582-1.524 1.638-1.524 1.018 0 1.592.53 1.592 1.598 0 1.069-.818 1.562-1.816 1.562h-.76v.853h.76c1.467 0 1.95.761 1.95 1.645 0 1.156-.703 1.69-1.72 1.69-.887 0-1.694-.474-1.718-1.532H6.33c.047 1.704 1.482 2.414 2.815 2.414 1.539 0 2.809-.897 2.809-2.596.002-1.37-.974-1.917-1.528-2.08zM16.65 9.24l-3.175 1.14v1.024l2.28-.761v7.714h1.072V9.24h-.177z" fill="#E1E1E1"/><path opacity=".5" d="M10.426 13.683c.61-.252 1.396-.922 1.396-1.932 0-1.555-.999-2.51-2.681-2.51-1.5 0-2.707.98-2.729 2.412h1.089c.016-.836.582-1.524 1.638-1.524 1.018 0 1.592.53 1.592 1.598 0 1.069-.818 1.562-1.816 1.562h-.76v.853h.76c1.467 0 1.95.761 1.95 1.645 0 1.156-.703 1.69-1.72 1.69-.887 0-1.694-.474-1.718-1.532H6.33c.047 1.704 1.482 2.414 2.815 2.414 1.539 0 2.809-.897 2.809-2.596.002-1.37-.974-1.917-1.528-2.08zM16.65 9.24l-3.175 1.14v1.024l2.28-.761v7.714h1.072V9.24h-.177z" fill="#C2C2C2"/><path d="M10.426 13.683c.61-.252 1.396-.922 1.396-1.932 0-1.555-.999-2.51-2.681-2.51-1.5 0-2.707.98-2.729 2.412h1.089c.016-.836.582-1.524 1.638-1.524 1.018 0 1.592.53 1.592 1.598 0 1.069-.818 1.562-1.816 1.562h-.76v.853h.76c1.467 0 1.95.761 1.95 1.645 0 1.156-.703 1.69-1.72 1.69-.887 0-1.694-.474-1.718-1.532H6.33c.047 1.704 1.482 2.414 2.815 2.414 1.539 0 2.809-.897 2.809-2.596.002-1.37-.974-1.917-1.528-2.08zM16.65 9.24l-3.175 1.14v1.024l2.28-.761v7.714h1.072V9.24h-.177z" fill="#EEE"/><path d="M7.376 5.218l-1.039-1.04L7.474 3.04l2.179 2.178H7.376z" fill="url(#paint1_linear)"/><path d="M6.905 4.413a.804.804 0 1 0 0-1.609.804.804 0 0 0 0 1.61z" fill="#EEE"/><path d="M6.905 2.94c.423 0 .767.324.8.737A.805.805 0 1 0 6.1 3.61c.001.023.002.044.005.067a.803.803 0 0 1 .8-.738z" fill="#fff" fill-opacity=".4"/><path d="M7.706 3.676a.803.803 0 0 1-1.601 0 .805.805 0 1 0 1.605.067.565.565 0 0 0-.004-.067z" fill="#212121" fill-opacity=".1"/><path d="M21.52 13.799H2.48v.134H21.52v-.134z" fill="#fff" fill-opacity=".05"/><path d="M21.52 13.665H2.48v.134H21.52v-.134z" fill="#1A237E" fill-opacity=".05"/><path d="M17.566 5.218l-1.04-1.04 1.138-1.138 1.642 2.178h-1.74z" fill="url(#paint2_linear)"/><path d="M17.096 4.413a.804.804 0 1 0 0-1.609.804.804 0 0 0 0 1.61z" fill="#EEE"/><path d="M17.096 2.94c.423 0 .767.324.8.737.002-.023.005-.044.005-.067a.805.805 0 0 0-1.61 0c0 .023.002.044.005.067a.802.802 0 0 1 .8-.738z" fill="#fff" fill-opacity=".4"/><path d="M17.896 3.676a.804.804 0 0 1-1.601 0c-.002.023-.004.044-.004.067a.805.805 0 0 0 1.609 0 .558.558 0 0 0-.004-.067z" fill="#212121" fill-opacity=".1"/><path d="M22.458 6.827c0-.7-.448-1.294-1.072-1.515V3.609c0-.889-.72-1.609-1.61-1.609H4.225c-.889 0-1.609.72-1.609 1.609l.004 1.7a1.61 1.61 0 0 0-1.062 1.738l1.058 6.752-.532 6.86a1.608 1.608 0 0 0 1.605 1.72h16.625a1.608 1.608 0 0 0 1.605-1.72l-.532-6.86 1.058-6.752c.009-.071.014-.145.014-.22z" fill="url(#paint3_radial)" fill-opacity=".05"/><defs><linearGradient id="paint0_linear" x1="7.48" y1="9.02" x2="16.27" y2="17.81" gradientUnits="userSpaceOnUse"><stop stop-color="#1A237E" stop-opacity=".2"/><stop offset="1" stop-color="#1A237E" stop-opacity=".02"/></linearGradient><linearGradient id="paint1_linear" x1="6.89" y1="3.6" x2="7.94" y2="4.64" gradientUnits="userSpaceOnUse"><stop stop-color="#212121" stop-opacity=".2"/><stop offset="1" stop-color="#212121" stop-opacity=".02"/></linearGradient><linearGradient id="paint2_linear" x1="17.08" y1="3.6" x2="18" y2="4.51" gradientUnits="userSpaceOnUse"><stop stop-color="#212121" stop-opacity=".2"/><stop offset="1" stop-color="#212121" stop-opacity=".02"/></linearGradient><radialGradient id="paint3_radial" cx="0" cy="0" r="1" gradientUnits="userSpaceOnUse" gradientTransform="translate(2.979 2.45) scale(26.8478)"><stop offset=".33" stop-color="#fff"/><stop offset="1" stop-color="#fff" stop-opacity="0"/></radialGradient></defs></svg>