<svg aria-hidden="true" aria-label="Freshworks CRM" class="d-svg d-svg--native d-svg__freshworks crm" viewBox="0 0 24 24" fill="none" xmlns="http://www.w3.org/2000/svg"><path d="M3.105 13.333a9.04 9.04 0 002.527 5.018l3.07-3.07a8.993 8.993 0 014.491-7.79L3.105 13.333z" fill="#9B65C3"/><path d="M8.702 15.28a8.91 8.91 0 01-4.491-1.21 9.452 9.452 0 01-1.106-.754 9.04 9.04 0 002.527 5.017l3.07-3.052z" fill="#9B65C3"/><path d="M8.702 15.28l-3.07 3.07a8.876 8.876 0 005.017 2.527l5.825-10.087a8.944 8.944 0 01-7.772 4.49z" fill="#BE63C5"/><path d="M9.912 19.79a8.909 8.909 0 01-1.21-4.492l-3.07 3.07a8.876 8.876 0 005.017 2.527c-.263-.351-.509-.72-.737-1.106z" fill="#BF63C6"/><path d="M20.14 3.491L13.21 7.51c-2.877 1.666-6.298 1.544-8.982 0a8.868 8.868 0 00-1.105 5.824c.35.281.72.527 1.105.755a8.909 8.909 0 004.491 1.21L20.333 3.684c-.07-.07-.122-.14-.193-.193z" fill="#3278B1"/><path d="M4.21 14.088a8.909 8.909 0 004.492 1.21 8.993 8.993 0 014.491-7.79L3.088 13.334c.368.264.737.527 1.123.755z" fill="#3278B2"/><path d="M4.21 7.509a8.868 8.868 0 00-1.105 5.824L13.21 7.51a9.052 9.052 0 01-9 0z" fill="#45A4EC"/><path d="M20.333 3.667a1.915 1.915 0 00-.193-.176c-.087-.07-.175-.14-.28-.193A2.238 2.238 0 0018.737 3H12C8.667 3 5.772 4.807 4.21 7.491c2.685 1.544 6.106 1.667 8.983 0a8.993 8.993 0 00-4.491 7.79 8.992 8.992 0 007.79-4.492l4-6.93c-.053-.07-.106-.14-.159-.192z" fill="#19BB7D"/><path d="M13.21 7.509l6.93-4a1.587 1.587 0 00-.28-.193L4.21 7.509a9.052 9.052 0 009 0z" fill="#08C7FB"/><path d="M18.737 3H12C8.667 3 5.772 4.807 4.21 7.491l15.65-4.193A2.376 2.376 0 0018.737 3z" fill="#59F2F6"/><path d="M16.491 10.79l4-6.93a1.74 1.74 0 00-.175-.193L8.702 15.28c0 1.526.386 3.07 1.21 4.49.228.387.474.755.755 1.106a8.867 8.867 0 005.824-1.105c-1.544-2.684-1.666-6.105 0-8.983z" fill="#DA3757"/><path d="M8.702 15.28c0 1.527.386 3.07 1.21 4.492.228.386.474.754.755 1.105L16.49 10.79a8.992 8.992 0 01-7.79 4.49z" fill="#D33C4E"/><path d="M16.491 10.79l-5.824 10.105a8.868 8.868 0 005.824-1.105c-1.544-2.702-1.666-6.123 0-9z" fill="#EE5A24"/><path d="M20.684 4.14c-.052-.105-.123-.193-.193-.28a1.74 1.74 0 00-.175-.193 1.915 1.915 0 00-.193-.176L13.21 7.51a8.993 8.993 0 00-4.49 7.79 8.993 8.993 0 007.789-4.492c-1.667 2.877-1.544 6.298 0 8.982C19.193 18.23 21 15.334 21 12V5.263a2.331 2.331 0 00-.316-1.123z" fill="#8BDF55"/><path d="M20.14 3.491L13.21 7.51a8.993 8.993 0 00-4.49 7.79L20.332 3.683c-.07-.07-.122-.14-.193-.193z" fill="#25C16F"/><path d="M8.702 15.28a8.992 8.992 0 007.79-4.49l4-6.93a1.74 1.74 0 00-.176-.193L8.702 15.28z" fill="#8BDF55"/><path d="M20.491 3.86l-4 6.93c-1.666 2.877-1.544 6.298 0 8.982l4.193-15.65c-.052-.087-.123-.175-.193-.262z" fill="#FB0"/><path d="M16.491 19.79c2.684-1.562 4.492-4.457 4.492-7.79V5.263c0-.403-.106-.79-.299-1.123l-4.193 15.65z" fill="#FFA800"/></svg>