<svg aria-hidden="true" aria-label="Front" class="d-svg d-svg--native d-svg__front" viewBox="0 0 24 24" fill="none" xmlns="http://www.w3.org/2000/svg"><g clip-path="url(#clip0)"><path fill-rule="evenodd" clip-rule="evenodd" d="M5.223 5.45a3.302 3.302 0 013.302-3.302h10.59v4.7c0 .912-.739 1.651-1.65 1.651h-4.33a1.588 1.588 0 00-1.561 1.566v10.279c0 .912-.74 1.65-1.651 1.65h-4.7V5.452z" fill="#001B38"/><path d="M8.914 10.127a4.287 4.287 0 108.574 0 4.287 4.287 0 00-8.574 0z" fill="url(#paint0_linear)"/><path opacity=".5" d="M8.914 10.127a4.287 4.287 0 108.574 0 4.287 4.287 0 00-8.574 0z" fill="url(#paint1_linear)"/></g><defs><linearGradient id="paint0_linear" x1="10.18" y1="6.91" x2="16.63" y2="13.4" gradientUnits="userSpaceOnUse"><stop stop-color="#FF0057" stop-opacity=".16"/><stop offset=".86" stop-color="#FF0057"/></linearGradient><linearGradient id="paint1_linear" x1="10.18" y1="6.91" x2="16.63" y2="13.4" gradientUnits="userSpaceOnUse"><stop stop-color="#FF0057" stop-opacity=".16"/><stop offset=".86" stop-color="#FF0057"/></linearGradient><clipPath id="clip0"><path fill="#fff" transform="translate(5 2)" d="M0 0h14.33v20H0z"/></clipPath></defs></svg>