<svg aria-hidden="true" aria-label="Office 365" class="d-svg d-svg--native d-svg__office365" viewBox="0 0 24 24" fill="none" xmlns="http://www.w3.org/2000/svg"><path d="M12.571 2.069l1.366 3.597v12.297l-1.333 3.97 5.902-1.639a1.904 1.904 0 001.393-1.834V5.542a1.903 1.903 0 00-1.396-1.835L12.571 2.07z" fill="url(#paint0_linear)"/><path d="M7.239 16.878l-1.757.96A1.001 1.001 0 014 16.96V7.45A1.9 1.9 0 014.954 5.8l6.192-3.553a1.861 1.861 0 012.79 1.616v1.802L8.906 7.5a1.415 1.415 0 00-.93 1.33v6.807a1.415 1.415 0 01-.736 1.24z" fill="url(#paint1_linear)"/><path d="M13.937 17.963v2.214A1.82 1.82 0 0112.115 22a1.82 1.82 0 01-.89-.233l-3.882-2.174a.87.87 0 01.426-1.63h6.168z" fill="url(#paint2_linear)"/><path d="M7.239 16.878l-1.757.96A1.001 1.001 0 014 16.96V7.45A1.9 1.9 0 014.954 5.8l6.192-3.553a1.861 1.861 0 012.79 1.616v1.802L8.906 7.5a1.415 1.415 0 00-.93 1.33v6.807a1.415 1.415 0 01-.736 1.24z" fill="url(#paint3_linear)"/><path d="M13.937 17.963v2.214A1.82 1.82 0 0112.115 22a1.82 1.82 0 01-.89-.233l-3.882-2.174a.87.87 0 01.426-1.63h6.168z" fill="url(#paint4_linear)"/><defs><linearGradient id="paint0_linear" x1="16.24" y1=".94" x2="16.24" y2="20.54" gradientUnits="userSpaceOnUse"><stop stop-color="#FFB900"/><stop offset=".17" stop-color="#EF8400"/><stop offset=".31" stop-color="#E25C01"/><stop offset=".43" stop-color="#DB4401"/><stop offset=".5" stop-color="#D83B01"/></linearGradient><linearGradient id="paint1_linear" x1="12.78" y1="1.76" x2="2.29" y2="16.75" gradientUnits="userSpaceOnUse"><stop stop-color="#800600"/><stop offset=".6" stop-color="#C72127"/><stop offset=".73" stop-color="#C13959"/><stop offset=".85" stop-color="#BC4B81"/><stop offset=".94" stop-color="#B95799"/><stop offset="1" stop-color="#B85BA2"/></linearGradient><linearGradient id="paint2_linear" x1="7.46" y1="19.98" x2="20.39" y2="19.98" gradientUnits="userSpaceOnUse"><stop stop-color="#F32B44"/><stop offset=".6" stop-color="#A4070A"/></linearGradient><linearGradient id="paint3_linear" x1="13" y1="1.46" x2="10.78" y2="4.63" gradientUnits="userSpaceOnUse"><stop stop-opacity=".4"/><stop offset="1" stop-opacity="0"/></linearGradient><linearGradient id="paint4_linear" x1="16.26" y1="20.27" x2="10.46" y2="19.76" gradientUnits="userSpaceOnUse"><stop stop-opacity=".4"/><stop offset="1" stop-opacity="0"/></linearGradient></defs></svg>