<svg aria-hidden="true" aria-label="Twitter" class="d-svg d-svg--native d-svg__twitter" viewBox="0 0 24 24" fill="none" xmlns="http://www.w3.org/2000/svg"><path d="M9.717 18.188c5.66 0 8.757-4.69 8.757-8.756 0-.133 0-.266-.01-.398A6.262 6.262 0 0 0 20 7.441a6.143 6.143 0 0 1-1.768.484 3.088 3.088 0 0 0 1.353-1.702 6.167 6.167 0 0 1-1.954.747 3.08 3.08 0 0 0-5.244 2.807A8.737 8.737 0 0 1 6.044 6.56a3.08 3.08 0 0 0 .953 4.109 3.055 3.055 0 0 1-1.397-.386v.04a3.079 3.079 0 0 0 2.469 3.016 3.074 3.074 0 0 1-1.39.053 3.08 3.08 0 0 0 2.876 2.137A6.176 6.176 0 0 1 5 16.806a8.713 8.713 0 0 0 4.717 1.38" fill="#1DA1F2"/></svg>