<svg width="145" height="90" viewBox="0 0 145 90" fill="none" xmlns="http://www.w3.org/2000/svg">
<path d="M8 13H125V70C125 72.7614 122.761 75 120 75H13C10.2386 75 8 72.7614 8 70V13Z" fill="#EFEBE1"/>
<path d="M125 10L8 9.99999L8 5C8 2.23858 10.2386 4.57655e-07 13 6.99067e-07L120 1.00533e-05C122.761 1.02947e-05 125 2.23859 125 5.00001L125 10Z" fill="#7C52FF"/>
<circle cx="14.5" cy="5.5" r="2.5" fill="#F5F2ED"/>
<circle cx="22.5" cy="5.5" r="2.5" fill="#F5F2ED"/>
<circle cx="30.5" cy="5.5" r="2.5" fill="#F5F2ED"/>
<path d="M125 27.3333C115.817 27.3333 108.333 34.8166 108.333 43.9999C108.333 53.1833 115.817 60.6666 125 60.6666C127.3 60.6666 129.167 58.7999 129.167 56.4999C129.167 55.4833 128.783 54.4999 128.1 53.7166C127.967 53.5499 127.883 53.3666 127.883 53.1666C127.883 52.6999 128.25 52.3333 128.717 52.3333H131.667C137.183 52.3333 141.667 47.8499 141.667 42.3333C141.667 34.0666 134.183 27.3333 125 27.3333ZM134.167 45.6666C132.783 45.6666 131.667 44.5499 131.667 43.1666C131.667 41.7833 132.783 40.6666 134.167 40.6666C135.55 40.6666 136.667 41.7833 136.667 43.1666C136.667 44.5499 135.55 45.6666 134.167 45.6666ZM129.167 38.9999C127.783 38.9999 126.667 37.8833 126.667 36.4999C126.667 35.1166 127.783 33.9999 129.167 33.9999C130.55 33.9999 131.667 35.1166 131.667 36.4999C131.667 37.8833 130.55 38.9999 129.167 38.9999ZM113.333 43.1666C113.333 41.7833 114.45 40.6666 115.833 40.6666C117.217 40.6666 118.333 41.7833 118.333 43.1666C118.333 44.5499 117.217 45.6666 115.833 45.6666C114.45 45.6666 113.333 44.5499 113.333 43.1666ZM123.333 36.4999C123.333 37.8833 122.217 38.9999 120.833 38.9999C119.45 38.9999 118.333 37.8833 118.333 36.4999C118.333 35.1166 119.45 33.9999 120.833 33.9999C122.217 33.9999 123.333 35.1166 123.333 36.4999Z" fill="#7C52FF"/>
<rect x="25" y="46" width="43" height="24" rx="5" transform="rotate(90 25 46)" stroke="#7C52FF" stroke-width="2"/>
</svg>
