<svg width="20" height="20" viewBox="0 0 20 20" fill="none" xmlns="http://www.w3.org/2000/svg">
<path d="M1 0C0.447715 0 0 0.447715 0 1V3.3C0 3.85228 0.447715 4.3 1 4.3H5.02C5.00689 4.36462 5 4.43151 5 4.5V6.79999H1C0.447715 6.79999 0 7.2477 0 7.79999V10.1C0 10.6523 0.447715 11.1 1 11.1H5.02001C5.00689 11.1646 5 11.2315 5 11.3V13.6H1C0.447715 13.6 0 14.0477 0 14.6V16.9C0 17.4523 0.447715 17.9 1 17.9H5.02C5.00689 17.9646 5 18.0315 5 18.1V20H13V18.1C13 17.5477 12.5523 17.1 12 17.1H7.98C7.99311 17.0354 8 16.9685 8 16.9V14.6H12C12.5523 14.6 13 14.1523 13 13.6V11.3C13 10.7477 12.5523 10.3 12 10.3H7.97999C7.99311 10.2354 8 10.1685 8 10.1V7.8H12C12.5523 7.8 13 7.35229 13 6.8V4.5C13 3.94772 12.5523 3.5 12 3.5H7.98C7.99311 3.43538 8 3.36849 8 3.3V1.3H12C12.5523 1.3 13 0.852285 13 0.300001V0H1Z" fill="white"/>
</svg>
