<svg width="12" height="30" fill="none" xmlns="http://www.w3.org/2000/svg"><path d="M7.2 0H0v2c0 .552.537 1 1.2 1h3.6v1H1.2C.537 4 0 4.448 0 5v3c0 .552.537 1 1.2 1h3.6v1H1.2c-.663 0-1.2.448-1.2 1v3c0 .552.537 1 1.2 1h3.6v1H1.2c-.663 0-1.2.448-1.2 1v3c0 .552.537 1 1.2 1h3.6v1H1.2c-.663 0-1.2.448-1.2 1v3c0 .552.537 1 1.2 1h3.6v1H1.2c-.663 0-1.2.448-1.2 1v1h10.8c.663 0 1.2-.448 1.2-1v-3c0-.552-.537-1-1.2-1H7.2v-1h3.6c.663 0 1.2-.448 1.2-1v-3c0-.552-.537-1-1.2-1H7.2v-1h3.6c.663 0 1.2-.448 1.2-1v-3c0-.552-.537-1-1.2-1H7.2v-1h3.6c.663 0 1.2-.448 1.2-1V8c0-.552-.537-1-1.2-1H7.2V6h3.6c.663 0 1.2-.448 1.2-1V2c0-.552-.537-1-1.2-1H7.2V0z" fill="#000"/></svg>