<svg width="12" height="30" fill="none" xmlns="http://www.w3.org/2000/svg"><path d="M0 0v1l6 2 5.027-1.676C11.6 1.134 11.989.602 12 0H0zM12 4.974c0-.971-.952-1.657-1.873-1.35L6 5 0 3v3l6 2 5.027-1.676c.581-.193.973-.737.973-1.35zM0 8v3l6 2 5.027-1.676a1.423 1.423 0 10-.9-2.7L6 10 0 8zM12 14.974c0-.971-.952-1.657-1.873-1.35L6 15l-6-2v3l6 2 5.027-1.676c.581-.193.973-.737.973-1.35zM0 18v3l6 2 5.027-1.676a1.423 1.423 0 10-.9-2.7L6 20l-6-2zM12 24.974c0-.971-.952-1.657-1.873-1.35L6 25l-6-2v3l6 2 5.027-1.676c.581-.193.973-.737.973-1.35zM0 28v2h12v-.026c0-.971-.952-1.657-1.873-1.35L6 30l-6-2z" fill="#000"/></svg>