<svg width="20" height="20" viewBox="0 0 20 20" fill="none" xmlns="http://www.w3.org/2000/svg">
<path d="M11.027 1.32434C11.5999 1.13336 11.989 0.601997 11.9998 0H0V1L6 3L11.027 1.32434Z" fill="white"/>
<path d="M0 3V6L6 8L11.027 6.32434C11.6081 6.13065 12 5.58685 12 4.97434C12 4.00305 11.0484 3.31719 10.127 3.62434L6 5L0 3Z" fill="white"/>
<path d="M0 8V11L6 13L11.027 11.3243C11.6081 11.1306 12 10.5869 12 9.97434C12 9.00305 11.0484 8.31719 10.127 8.62434L6 10L0 8Z" fill="white"/>
<path d="M0 13V16L6 18L11.027 16.3243C11.6081 16.1306 12 15.5869 12 14.9743C12 14.003 11.0484 13.3172 10.127 13.6243L6 15L0 13Z" fill="white"/>
<path d="M0 18V20H6H11.9998C11.9999 19.9915 12 19.9829 12 19.9743C12 19.003 11.0484 18.3172 10.127 18.6243L6 20L0 18Z" fill="white"/>
</svg>
