<svg width="12" height="30" fill="none" xmlns="http://www.w3.org/2000/svg"><path d="M2.383 0c.011.065.017.132.017.2v6.283a1.2 1.2 0 11-2.4 0V.2C0 .132.006.065.017 0h2.366zM4.817 0C4.806.065 4.8.132 4.8.2v6.283a1.2 1.2 0 002.4 0V.2c0-.068-.006-.135-.016-.2H4.817zM9.617 0C9.606.065 9.6.132 9.6.2v6.283a1.2 1.2 0 102.4 0V.2a1.21 1.21 0 00-.017-.2H9.617zM11.883 30c.075-.157.117-.332.117-.517V23.2a1.2 1.2 0 00-2.4 0v6.283c0 .185.042.36.117.517h2.166zM7.083 30c.075-.157.117-.332.117-.517V23.2a1.2 1.2 0 00-2.4 0v6.283c0 .185.042.36.117.517h2.166zM2.283 30c.075-.157.117-.332.117-.517V23.2a1.2 1.2 0 00-2.4 0v6.283c0 .185.042.36.117.517h2.166zM0 18.792c0 .59.479 1.07 1.07 1.07h9.86a1.07 1.07 0 000-2.14H1.07c-.591 0-1.07.48-1.07 1.07zM0 14.515c0 .59.479 1.07 1.07 1.07h9.86a1.07 1.07 0 000-2.14H1.07c-.591 0-1.07.48-1.07 1.07zM0 10.238c0 .59.479 1.069 1.07 1.069h9.86a1.07 1.07 0 000-2.139H1.07c-.591 0-1.07.479-1.07 1.07z" fill="#000"/></svg>