<svg width="20" height="20" viewBox="0 0 20 20" fill="none" xmlns="http://www.w3.org/2000/svg">
<path fill-rule="evenodd" clip-rule="evenodd" d="M12 1C12 0.447715 11.5523 0 11 0H0V2H3V5H0V7H3V10H0V12H3V15H0V17H3V20H5V17H7V20H9V17H11C11.5523 17 12 16.5523 12 16C12 15.4477 11.5523 15 11 15H9V12H11C11.5523 12 12 11.5523 12 11C12 10.4477 11.5523 10 11 10H9V7H11C11.5523 7 12 6.55228 12 6C12 5.44772 11.5523 5 11 5H9V2H11C11.5523 2 12 1.55228 12 1ZM7 2H5V5H7V2ZM7 7H5V10H7V7ZM7 12H5V15H7V12Z" fill="white"/>
</svg>
