<svg width="12" height="30" fill="none" xmlns="http://www.w3.org/2000/svg"><path d="M11.985 0H6.872a2.562 2.562 0 002.557 2.273c1.327 0 2.419-.995 2.556-2.273zM0 0h5.143v4.818c0 1.406-1.151 2.546-2.572 2.546C1.151 7.364 0 6.224 0 4.818V0zM0 18.394v3.394c0 1.406 1.151 2.545 2.571 2.545 1.42 0 2.572-1.14 2.572-2.545v-3.394c0-1.406-1.151-2.545-2.572-2.545-1.42 0-2.571 1.14-2.571 2.545zM.44 30A2.516 2.516 0 010 28.576c0-1.406 1.151-2.546 2.571-2.546 1.42 0 2.572 1.14 2.572 2.546 0 .527-.162 1.017-.44 1.424H.44zM11.56 30H7.297a2.516 2.516 0 01-.44-1.424c0-1.406 1.151-2.546 2.572-2.546 1.42 0 2.571 1.14 2.571 2.546 0 .527-.162 1.017-.44 1.424zM12 21.788v-8.485c0-1.406-1.151-2.545-2.571-2.545-1.42 0-2.572 1.14-2.572 2.545v8.485c0 1.406 1.151 2.545 2.572 2.545 1.42 0 2.571-1.14 2.571-2.545zM12 6.515C12 5.11 10.849 3.97 9.429 3.97c-1.42 0-2.572 1.14-2.572 2.545 0 1.406 1.151 2.546 2.572 2.546C10.849 9.06 12 7.92 12 6.515zM0 11.606C0 10.2 1.151 9.061 2.571 9.061c1.42 0 2.572 1.14 2.572 2.545 0 1.406-1.151 2.546-2.572 2.546-1.42 0-2.571-1.14-2.571-2.546z" fill="#000"/></svg>