<svg width="20" height="20" viewBox="0 0 20 20" fill="none" xmlns="http://www.w3.org/2000/svg">
<path d="M10.4118 3H0V0H10.4118C11.289 0 12 0.671585 12 1.5C12 2.32841 11.289 3 10.4118 3Z" fill="white"/>
<path d="M0 18H10.4118C11.289 18 12 17.3284 12 16.5C12 15.6716 11.289 15 10.4118 15H0V18Z" fill="white"/>
<path d="M0 13H10.4118C11.289 13 12 12.3284 12 11.5C12 10.6716 11.289 10 10.4118 10H0V13Z" fill="white"/>
<path d="M0 8H10.4118C11.289 8 12 7.32841 12 6.5C12 5.67159 11.289 5 10.4118 5H0V8Z" fill="white"/>
</svg>
