<svg width="12" height="30" fill="none" xmlns="http://www.w3.org/2000/svg"><path d="M12 2.4c0 .813-.62 1.473-1.385 1.473H2.77v2.454c0 .814-.62 1.473-1.384 1.473C.62 7.8 0 7.14 0 6.327V2.4C0 1.587.62.927 1.385.927H9.23V0H12v2.4zM12 6.873c0-.814-.62-1.473-1.385-1.473-.764 0-1.384.66-1.384 1.473v2.454H1.385C.62 9.327 0 9.987 0 10.8v3.927c0 .814.62 1.473 1.385 1.473.764 0 1.384-.66 1.384-1.473v-2.454h7.846c.765 0 1.385-.66 1.385-1.473V6.873zM12 15.273c0-.814-.62-1.473-1.385-1.473-.764 0-1.384.66-1.384 1.473v2.454H1.385C.62 17.727 0 18.387 0 19.2v3.927c0 .814.62 1.473 1.385 1.473.764 0 1.384-.66 1.384-1.473v-2.454h7.846c.765 0 1.385-.66 1.385-1.473v-3.927zM12 23.673c0-.814-.62-1.473-1.385-1.473-.764 0-1.384.66-1.384 1.473v2.454H1.385C.62 26.127 0 26.787 0 27.6V30h2.77v-.927h7.845c.765 0 1.385-.66 1.385-1.473v-3.927z" fill="#000"/></svg>