<svg xmlns="http://www.w3.org/2000/svg" width="12" height="12" fill="none" viewBox="0 0 12 12">
  <path fill="#000" fill-rule="evenodd" d="M2.5 2a.5.5 0 0 1 .5-.5h2a.5.5 0 0 1 .5.5v3a.5.5 0 0 1-.5.5H3a.5.5 0 0 1-.5-.5V2Zm1 .5v2h1v-2h-1Zm3-.5a.5.5 0 0 1 .5-.5h1a.5.5 0 0 1 .5.5v2.5H9a.5.5 0 0 1 0 1H7a.5.5 0 0 1 0-1h.5v-2H7a.5.5 0 0 1-.5-.5Zm-4 5a.5.5 0 0 1 .5-.5h1a.5.5 0 0 1 .5.5v2.5H5a.5.5 0 0 1 0 1H3a.5.5 0 0 1 0-1h.5v-2H3a.5.5 0 0 1-.5-.5Zm4 0a.5.5 0 0 1 .5-.5h2a.5.5 0 0 1 .5.5v3a.5.5 0 0 1-.5.5H7a.5.5 0 0 1-.5-.5V7Zm1 .5v2h1v-2h-1Z" clip-rule="evenodd"/>
</svg>
