<svg xmlns="http://www.w3.org/2000/svg" width="12" height="12" fill="none" viewBox="0 0 12 12">
  <g clip-path="url(#a)">
    <path fill="#000" fill-rule="evenodd" d="M5.646.646A.5.5 0 0 1 6 .5 5.5 5.5 0 0 1 11.5 6a.5.5 0 0 1-.5.5H6a.5.5 0 0 1-.5-.5V1a.5.5 0 0 1 .146-.354Zm.854.882V5.5h3.972A4.497 4.497 0 0 0 6.5 1.528Zm-2.042-.313a.5.5 0 0 1-.258.658 4.5 4.5 0 1 0 5.945 5.877.5.5 0 1 1 .92.39A5.499 5.499 0 1 1 3.8.957a.5.5 0 0 1 .658.258Z" clip-rule="evenodd"/>
  </g>
  <defs>
    <clipPath id="a">
      <path fill="#fff" d="M0 0h12v12H0z"/>
    </clipPath>
  </defs>
</svg>
