<svg xmlns="http://www.w3.org/2000/svg" viewBox="0 0 264 107" fill="none">
<path d="M89 61.3681H174.412V63.1487H89V61.3681Z" fill="var(--dt-color-link-primary)" id="underline"/>
<path d="M164.421 57.8538V43.6747H167.158V57.8538H164.421ZM170.888 57.8538L167.739 53.3836L169.735 51.6874L174.111 57.8538H170.888ZM166.952 54.63L166.867 51.6405H167.308L170.747 47.5639H173.858L169.566 52.3246L168.198 53.2992L166.952 54.63Z" fill="var(--dt-color-link-primary)" id="k"/>
<path d="M152.407 57.8538V47.5639H155.144V49.1665H155.303C155.54 48.6042 155.909 48.1606 156.409 47.8357C156.909 47.5108 157.53 47.3484 158.274 47.3484C159.417 47.3484 160.289 47.6858 160.888 48.3605C161.488 49.029 161.788 49.9755 161.788 51.2001V57.8538H159.052V51.8186C159.052 51.1001 158.899 50.5534 158.592 50.1786C158.286 49.8037 157.815 49.6163 157.177 49.6163C156.752 49.6163 156.387 49.7131 156.081 49.9068C155.781 50.0942 155.55 50.3598 155.387 50.7034C155.225 51.0407 155.144 51.4437 155.144 51.9123V57.8538H152.407Z" fill="var(--dt-color-link-primary)" id="n"/>
<path d="M147.009 57.8538V47.5639H149.745V57.8538H147.009ZM148.387 46.0176C147.968 46.0176 147.606 45.8708 147.299 45.5772C147 45.2835 146.85 44.9274 146.85 44.5088C146.85 44.0902 147 43.7341 147.299 43.4405C147.606 43.1468 147.968 43 148.387 43C148.811 43 149.171 43.1468 149.464 43.4405C149.764 43.7341 149.914 44.0902 149.914 44.5088C149.914 44.9274 149.764 45.2835 149.464 45.5772C149.171 45.8708 148.811 46.0176 148.387 46.0176Z" fill="var(--dt-color-link-primary)" id="i"/>
<path d="M135.951 57.8538V44.3307H138.781V55.5203H144.788V57.8538H135.951Z" fill="var(--dt-color-link-primary)" id="l"/>
<path d="M127.32 57.91C126.083 57.91 125.189 57.6913 124.64 57.254C124.096 56.8104 123.824 56.0826 123.824 55.0705V49.6256H122.259V47.5639H123.824V45.1086H126.589V47.5639H128.688V49.6256H126.589V54.4801C126.589 54.9424 126.692 55.2798 126.898 55.4922C127.111 55.7046 127.445 55.8108 127.901 55.8108C128.07 55.8108 128.21 55.8077 128.323 55.8014C128.441 55.7889 128.563 55.7764 128.688 55.7639V57.7976C128.519 57.8288 128.316 57.8538 128.079 57.8725C127.842 57.8975 127.589 57.91 127.32 57.91Z" fill="var(--dt-color-link-primary)" id="t"/>
<path d="M111.304 57.8538L114.537 52.7651L111.285 47.5639H114.415L116.243 50.9939H116.393L118.22 47.5639H121.2L117.967 52.6526L121.219 57.8538H118.192L116.271 54.4332H116.111L114.2 57.8538H111.304Z" fill="var(--dt-color-link-primary)" id="x"/>
<path d="M105.55 58.0694C104.506 58.0694 103.61 57.8538 102.86 57.4227C102.11 56.9916 101.532 56.3762 101.126 55.5765C100.72 54.7768 100.517 53.8272 100.517 52.7276V52.7182C100.517 51.6249 100.717 50.6784 101.117 49.8787C101.523 49.0727 102.095 48.4511 102.832 48.0138C103.569 47.5702 104.437 47.3484 105.437 47.3484C106.437 47.3484 107.302 47.5639 108.033 47.995C108.764 48.4199 109.326 49.0196 109.72 49.7943C110.113 50.5691 110.31 51.475 110.31 52.5121V53.3649H101.885V51.6499H108.998L107.714 53.2618V52.1747C107.714 51.5624 107.621 51.0501 107.433 50.6378C107.246 50.2254 106.983 49.9162 106.646 49.71C106.315 49.5038 105.928 49.4007 105.484 49.4007C105.047 49.4007 104.659 49.507 104.322 49.7194C103.985 49.9318 103.719 50.2473 103.525 50.6659C103.332 51.0782 103.235 51.5812 103.235 52.1747V53.2712C103.235 53.8522 103.329 54.3489 103.516 54.7612C103.71 55.1673 103.985 55.4797 104.341 55.6984C104.697 55.917 105.118 56.0264 105.606 56.0264C106.006 56.0264 106.346 55.967 106.627 55.8483C106.908 55.7296 107.133 55.589 107.302 55.4266C107.477 55.2642 107.596 55.1142 107.658 54.9768L107.686 54.9205H110.226L110.207 55.0236C110.126 55.3485 109.979 55.689 109.767 56.0451C109.554 56.4012 109.261 56.7324 108.886 57.0385C108.517 57.3446 108.055 57.5945 107.499 57.7882C106.949 57.9756 106.299 58.0694 105.55 58.0694Z" fill="var(--dt-color-link-primary)" id="e"/>
<path d="M93.854 57.8538V46.6642H89.8149V44.3307H100.723V46.6642H96.6842V57.8538H93.854Z" fill="var(--dt-color-link-primary)" id="tU"/>
</svg>
