<svg aria-hidden="true" class="dt-svg dt-svg__native dt-svg--logoLinkedInGlyph" width="24" height="24" viewBox="0 0 24 24" xmlns="http://www.w3.org/2000/svg"><g fill="none" fill-rule="evenodd"><path d="M0 0h24v24H0z"/><path d="M19.668 3H4.328C3.597 3 3 3.581 3 4.297v15.404C3 20.418 3.596 21 4.329 21h15.339c.734 0 1.332-.582 1.332-1.299V4.297C21 3.581 20.402 3 19.668 3" fill="#006087"/><path d="M7.483 6c.817 0 1.481.669 1.481 1.492 0 .824-.664 1.493-1.481 1.493C6.663 8.985 6 8.316 6 7.492 6 6.67 6.663 6 7.483 6zm-1.28 12.4v-8.283h2.558v8.284H6.204zm4.161-8.283h2.452v1.132h.035c.34-.65 1.175-1.337 2.419-1.337 2.589 0 3.067 1.715 3.067 3.945v4.544h-2.555v-4.028c0-.961-.018-2.197-1.329-2.197-1.33 0-1.534 1.047-1.534 2.127v4.098h-2.555v-8.284z" fill="#FFFFFE"/></g></svg>
