<svg class="d-logo--uc d-svg d-svg--logoUC d-svg__native" viewBox="0 0 201 48" xmlns="http://www.w3.org/2000/svg"><g fill="none" fill-rule="evenodd"><title>UberConference by Dialpad</title><path class="wordmark-uc" d="M42.05 21.447v-9.43h2.746v9.338c0 2.473 1.373 4.085 3.98 4.085 2.583 0 3.956-1.612 3.956-4.085v-9.338h2.746v9.407c0 3.876-2.21 6.442-6.702 6.442-4.516 0-6.727-2.59-6.727-6.419zm15.638 6.14v-15.57h2.444v5.859c.885-1.19 2.188-1.844 3.608-1.844 2.886 0 4.98 2.288 4.98 5.929 0 3.711-2.118 5.905-4.98 5.905-1.467 0-2.747-.7-3.608-1.82v1.54h-2.444zm5.33-1.891c1.954 0 3.188-1.54 3.188-3.735 0-2.194-1.234-3.758-3.188-3.758-1.14 0-2.35.7-2.886 1.54v4.46c.536.84 1.746 1.493 2.886 1.493zm7.003-3.758c0-3.269 2.373-5.906 5.701-5.906 3.375 0 5.539 2.59 5.539 6.14v.582h-8.68c.185 1.705 1.466 3.105 3.583 3.105 1.094 0 2.397-.444 3.19-1.237l1.116 1.611c-1.117 1.074-2.77 1.634-4.562 1.634-3.374 0-5.887-2.358-5.887-5.93zm5.701-3.899c-2.095 0-3.049 1.61-3.165 2.988h6.33c-.046-1.33-.954-2.988-3.165-2.988zm6.912 9.548V16.312h2.443v1.658c.839-1.074 2.188-1.915 3.654-1.915v2.427a3.648 3.648 0 0 0-.767-.069c-1.024 0-2.398.7-2.887 1.494v7.68h-2.443zm7.168-7.774c0-4.785 3.561-8.053 8.146-8.053 3.142 0 5.073 1.634 6.237 3.502l-2.327 1.19c-.745-1.284-2.234-2.264-3.91-2.264-3.072 0-5.354 2.357-5.354 5.625 0 3.269 2.282 5.626 5.354 5.626a4.556 4.556 0 0 0 3.91-2.264l2.327 1.19c-1.187 1.868-3.095 3.502-6.237 3.502-4.585 0-8.146-3.268-8.146-8.054zm14.902 2.125c0-3.222 2.211-5.906 5.772-5.906 3.608 0 5.795 2.684 5.795 5.906 0 3.244-2.187 5.929-5.795 5.929-3.561 0-5.772-2.685-5.772-5.93zm9.03 0c0-1.984-1.163-3.735-3.258-3.735-2.072 0-3.235 1.75-3.235 3.735 0 2.007 1.163 3.758 3.235 3.758 2.095 0 3.258-1.751 3.258-3.758zm11.567 5.649v-7.05c0-1.75-.885-2.334-2.258-2.334-1.256 0-2.327.747-2.886 1.517v7.867h-2.443V16.312h2.443v1.54c.745-.886 2.188-1.82 3.957-1.82 2.42 0 3.631 1.307 3.631 3.618v7.937h-2.444zm5.557 0v-9.128h-1.862v-2.147h1.862v-.63c0-2.452 1.419-3.898 3.56-3.898 1.001 0 2.002.256 2.7.98l-.954 1.517c-.325-.303-.745-.49-1.304-.49-.954 0-1.558.63-1.558 1.89v.63h2.28v2.148h-2.28v9.128h-2.444zm5.215-5.65c0-3.268 2.373-5.905 5.702-5.905 3.374 0 5.539 2.59 5.539 6.14v.582h-8.682c.187 1.705 1.467 3.105 3.585 3.105 1.094 0 2.397-.444 3.188-1.237l1.118 1.611c-1.118 1.074-2.77 1.634-4.562 1.634-3.374 0-5.888-2.358-5.888-5.93zm5.702-3.898c-2.095 0-3.049 1.61-3.165 2.988h6.33c-.047-1.33-.954-2.988-3.165-2.988zm6.91 9.548V16.312h2.445v1.658c.838-1.074 2.187-1.915 3.653-1.915v2.427a3.648 3.648 0 0 0-.767-.069c-1.024 0-2.398.7-2.886 1.494v7.68h-2.444zm6.168-5.65c0-3.268 2.373-5.905 5.702-5.905 3.375 0 5.539 2.59 5.539 6.14v.582h-8.681c.186 1.705 1.466 3.105 3.584 3.105 1.094 0 2.397-.444 3.188-1.237l1.118 1.611c-1.118 1.074-2.77 1.634-4.562 1.634-3.374 0-5.888-2.358-5.888-5.93zm5.702-3.898c-2.095 0-3.049 1.61-3.165 2.988h6.33c-.047-1.33-.954-2.988-3.165-2.988zm14.499 9.548v-7.05c0-1.75-.885-2.334-2.258-2.334-1.256 0-2.327.747-2.886 1.517v7.867h-2.443V16.312h2.443v1.54c.745-.886 2.187-1.82 3.957-1.82 2.42 0 3.63 1.307 3.63 3.618v7.937h-2.443zm3.839-5.65c0-3.408 2.397-5.905 5.819-5.905 2.187 0 3.513.934 4.304 2.007l-1.605 1.494c-.629-.887-1.49-1.33-2.583-1.33-2.049 0-3.398 1.54-3.398 3.735 0 2.194 1.35 3.758 3.398 3.758 1.094 0 1.954-.467 2.583-1.33l1.605 1.493c-.79 1.074-2.117 2.008-4.304 2.008-3.422 0-5.82-2.498-5.82-5.93zm10.666 0c0-3.268 2.373-5.905 5.702-5.905 3.374 0 5.538 2.59 5.538 6.14v.582h-8.68c.185 1.705 1.466 3.105 3.583 3.105 1.095 0 2.398-.444 3.189-1.237l1.117 1.611c-1.117 1.074-2.77 1.634-4.561 1.634-3.375 0-5.888-2.358-5.888-5.93zm5.702-3.898c-2.095 0-3.05 1.61-3.165 2.988h6.33c-.047-1.33-.954-2.988-3.165-2.988z" fill="#2C2D2F"/><path class="glyph" d="M17.945 0c9.912 0 17.948 8.06 17.948 18s-8.036 17.998-17.948 17.998C8.035 35.998 0 27.939 0 18 0 8.06 8.034 0 17.945 0zm9.894 14.561v-2.567h-7.602v2.567H22.7v8.167c0 .315-.083.603-.245.883-.18.297-.45.567-.816.798-.395.252-.896.459-1.503.614-.226.057-.472.1-.728.137-.445.063-.928.1-1.454.1-.834 0-1.576-.081-2.193-.237-.607-.155-1.107-.362-1.502-.614-.368-.231-.636-.5-.81-.798a1.674 1.674 0 0 1-.25-.883V14.56h2.46v-2.567H8.054v2.567H10.514v8.071c0 .778.17 1.502.503 2.154a4.685 4.685 0 0 0 1.492 1.673c.632.439 1.422.782 2.338 1.014.895.228 1.941.344 3.107.344.51 0 .994-.027 1.454-.07a10.78 10.78 0 0 0 1.653-.274c.92-.237 1.705-.575 2.333-1.014.654-.46 1.156-1.025 1.489-1.673a4.701 4.701 0 0 0 .5-2.154V14.56h2.456z" fill="#203476"/><path class="wordmark-dp" d="M43.475 41.096v2.438h2.123c.28 0 .533-.016.76-.05.228-.033.423-.096.586-.186a.954.954 0 0 0 .38-.373c.09-.16.134-.367.134-.622 0-.248-.044-.45-.135-.607a.938.938 0 0 0-.379-.367 1.76 1.76 0 0 0-.585-.182 5.238 5.238 0 0 0-.761-.05h-2.123zm0-3.693v2.368h1.94c.247 0 .482-.014.703-.04.22-.028.417-.084.585-.167a.99.99 0 0 0 .405-.362c.1-.157.15-.367.15-.63 0-.253-.05-.455-.15-.61a.977.977 0 0 0-.408-.355 1.917 1.917 0 0 0-.591-.164 5.908 5.908 0 0 0-.705-.04h-1.93zm1.985-1.333c.468 0 .902.044 1.303.13.4.085.748.224 1.04.414.291.191.521.438.688.74.168.305.251.674.251 1.11a1.985 1.985 0 0 1-.817 1.615 1.738 1.738 0 0 1-.536.257c.209.063.407.155.595.277a2.099 2.099 0 0 1 .833 1.033c.084.22.125.455.125.707 0 .44-.077.818-.23 1.133a2.03 2.03 0 0 1-.662.78 2.98 2.98 0 0 1-1.033.452 5.727 5.727 0 0 1-1.357.148h-3.6V36.07h3.4zm6.103 11.346H50.11l2.148-3.789-2.661-4.78h1.471l1.93 3.456 1.86-3.455h1.44l-4.735 8.568zM64.002 36.07c.685 0 1.306.104 1.866.314.56.209 1.039.505 1.437.89.4.382.707.845.925 1.388.216.541.325 1.143.325 1.805 0 .662-.109 1.264-.325 1.806a3.92 3.92 0 0 1-.925 1.389c-.398.383-.878.679-1.437.888-.56.21-1.181.315-1.866.315h-3.483V36.07h3.483zm-2.067 1.344v6.106h2.067c.513 0 .962-.076 1.346-.23.384-.152.703-.363.959-.634.254-.27.445-.59.572-.964.128-.373.192-.78.192-1.225 0-.448-.064-.859-.192-1.231a2.615 2.615 0 0 0-.572-.964 2.606 2.606 0 0 0-.959-.632c-.384-.151-.833-.226-1.346-.226h-2.067zm8.035 7.451v-6.018h1.315v6.018H69.97zm.65-9.027a.917.917 0 0 1 .927.929.925.925 0 0 1-.268.656.927.927 0 0 1-.659.261.95.95 0 0 1-.362-.068.874.874 0 0 1-.483-.484.964.964 0 0 1-.068-.365c0-.13.022-.251.068-.364a.885.885 0 0 1 .483-.493.912.912 0 0 1 .362-.072zm8.104 9.026h-1.31v-.721a2.314 2.314 0 0 1-.776.64c-.31.159-.678.238-1.108.238-.423 0-.814-.078-1.178-.235a2.941 2.941 0 0 1-1.59-1.658 3.422 3.422 0 0 1-.233-1.272c0-.461.078-.885.232-1.272a2.941 2.941 0 0 1 1.59-1.66 2.942 2.942 0 0 1 1.18-.235c.429 0 .798.08 1.107.242.309.161.568.376.776.645v-.73h1.31v6.018zm-3.038-4.937c-.284 0-.537.051-.76.153a1.705 1.705 0 0 0-.924 1.028 2.204 2.204 0 0 0-.126.748c0 .264.042.512.126.747.084.234.202.439.356.612.155.175.343.312.568.415.223.103.476.154.76.154.271 0 .518-.05.739-.148.222-.097.411-.233.57-.405a1.82 1.82 0 0 0 .37-.61c.087-.234.132-.489.132-.765 0-.277-.045-.533-.132-.767a1.83 1.83 0 0 0-.37-.61 1.714 1.714 0 0 0-.57-.404 1.795 1.795 0 0 0-.739-.148zm4.702 4.938V35.82h1.315v9.046h-1.315zm6.16-6.176a2.945 2.945 0 0 1 2.13.892c.271.28.483.615.638 1.003.154.387.232.81.232 1.272 0 .46-.078.884-.232 1.272a2.931 2.931 0 0 1-2.769 1.893c-.429 0-.797-.08-1.105-.238a2.36 2.36 0 0 1-.773-.635v3.23H83.36v-8.532h1.309v.716c.209-.263.467-.474.773-.634.308-.16.676-.239 1.106-.239zm-.157 1.238c-.27 0-.517.05-.738.148a1.714 1.714 0 0 0-.57.405 1.83 1.83 0 0 0-.37.61c-.088.233-.132.49-.132.766s.044.531.131.765c.089.235.211.439.37.61.16.172.349.308.57.405.222.098.468.148.74.148.28 0 .532-.05.758-.154.225-.103.415-.24.57-.415a1.85 1.85 0 0 0 .356-.612c.084-.235.126-.483.126-.747s-.042-.514-.126-.748a1.703 1.703 0 0 0-.926-1.028 1.827 1.827 0 0 0-.759-.153zm10.258 4.937h-1.31v-.721a2.314 2.314 0 0 1-.776.64c-.309.159-.678.238-1.107.238-.423 0-.815-.078-1.178-.235a2.941 2.941 0 0 1-1.591-1.658 3.422 3.422 0 0 1-.232-1.272c0-.461.078-.885.232-1.272a2.941 2.941 0 0 1 1.59-1.66 2.942 2.942 0 0 1 1.179-.235c.43 0 .798.08 1.107.242.31.161.568.376.777.645v-.73h1.31v6.018zm-3.037-4.937c-.285 0-.538.051-.761.153a1.705 1.705 0 0 0-.924 1.028 2.204 2.204 0 0 0-.126.748c0 .264.043.512.126.747.084.234.202.439.356.612.155.175.344.312.568.415.223.103.476.154.76.154.272 0 .518-.05.74-.148.221-.097.41-.233.57-.405a1.82 1.82 0 0 0 .37-.61c.087-.234.131-.489.131-.765 0-.277-.044-.533-.131-.767a1.83 1.83 0 0 0-.37-.61 1.714 1.714 0 0 0-.57-.404 1.795 1.795 0 0 0-.74-.148zm7.33-1.238c.43 0 .8.08 1.108.242.31.161.568.376.777.645v-3.758h1.31v9.046h-1.31v-.721a2.314 2.314 0 0 1-.777.64c-.309.159-.678.238-1.107.238-.423 0-.815-.078-1.178-.235a2.941 2.941 0 0 1-1.591-1.658 3.422 3.422 0 0 1-.232-1.272c0-.461.078-.885.232-1.272a2.941 2.941 0 0 1 1.59-1.66 2.942 2.942 0 0 1 1.179-.235zm.157 1.238c-.285 0-.538.051-.761.153a1.705 1.705 0 0 0-.924 1.028 2.204 2.204 0 0 0-.126.748c0 .264.043.512.126.747.084.234.202.439.356.612.155.175.344.312.568.415.223.103.476.154.76.154.272 0 .518-.05.74-.148.221-.097.41-.233.57-.405a1.82 1.82 0 0 0 .37-.61c.087-.234.131-.489.131-.765 0-.277-.044-.533-.131-.767a1.83 1.83 0 0 0-.37-.61 1.714 1.714 0 0 0-.57-.404 1.795 1.795 0 0 0-.74-.148z" fill="#9B9DA0"/></g></svg>
