<svg aria-hidden="true" class="dt-svg dt-svg__native dt-svg--logoTwitterGlyph" width="24" height="24" viewBox="0 0 24 24" xmlns="http://www.w3.org/2000/svg"><g fill="none" fill-rule="evenodd"><path d="M0 0h24v24H0z"/><path d="M8.66 19.626c6.793 0 10.508-5.627 10.508-10.508 0-.16 0-.319-.01-.477A7.514 7.514 0 0 0 21 6.729a7.371 7.371 0 0 1-2.121.581 3.706 3.706 0 0 0 1.623-2.042 7.4 7.4 0 0 1-2.345.896 3.696 3.696 0 0 0-6.293 3.368 10.485 10.485 0 0 1-7.611-3.858 3.696 3.696 0 0 0 1.143 4.93 3.666 3.666 0 0 1-1.676-.463v.047a3.694 3.694 0 0 0 2.963 3.62 3.687 3.687 0 0 1-1.668.064 3.697 3.697 0 0 0 3.45 2.564A7.41 7.41 0 0 1 3 17.967a10.455 10.455 0 0 0 5.66 1.656" fill="#1DA1F2" fill-rule="nonzero"/></g></svg>
