<svg aria-hidden="true" class="d-svg d-svg__native d-svg--logoLinkedInGlyph" width="48" height="48" viewBox="0 0 48 48" xmlns="http://www.w3.org/2000/svg" xmlns:xlink="http://www.w3.org/1999/xlink"><defs><path id="a" d="M0 0h17.876v17.992H0z"/></defs><g fill="none" fill-rule="evenodd"><path fill="#FFF" d="M0 0h48v48H0z"/><g transform="translate(15 15)"><mask id="b" fill="#fff"><use xlink:href="#a"/></mask><path d="M16.553 0H1.319A1.31 1.31 0 0 0 0 1.297v15.404A1.31 1.31 0 0 0 1.32 18h15.233c.73 0 1.323-.582 1.323-1.299V1.297C17.876.581 17.282 0 16.553 0" fill="#006087" mask="url(#b)"/></g><path d="M18.977 17.478c.847 0 1.536.694 1.536 1.548 0 .854-.689 1.548-1.536 1.548-.85 0-1.538-.694-1.538-1.548 0-.854.688-1.548 1.538-1.548zm-1.327 12.86h2.652v-8.59H17.65v8.59zM21.965 21.748h2.543v1.174h.035c.354-.675 1.22-1.387 2.51-1.387 2.684 0 3.18 1.779 3.18 4.091v4.712h-2.65v-4.177c0-.996-.018-2.278-1.378-2.278-1.38 0-1.591 1.086-1.591 2.206v4.25h-2.65v-8.59" fill="#FFFFFE"/></g></svg>
