<svg xmlns="http://www.w3.org/2000/svg" width="12" height="12" fill="none" viewBox="0 0 12 12">
  <g clip-path="url(#a)">
    <path fill="#000" fill-rule="evenodd" d="M3.821 3.117a.5.5 0 0 1-.069.704A3.5 3.5 0 1 0 8.68 8.747a.5.5 0 0 1 .772.635A4.5 4.5 0 1 1 3.118 3.05a.5.5 0 0 1 .703.068ZM6.001 2A4.5 4.5 0 0 1 10.5 6.499M9.146 1.146a.5.5 0 0 1 .708 0l1.5 1.5a.5.5 0 0 1-.708.708l-1.5-1.5a.5.5 0 0 1 0-.708Z" clip-rule="evenodd"/>
    <path fill="#000" fill-rule="evenodd" d="M3.354 9.146a.5.5 0 0 1 0 .708l-1 1a.5.5 0 0 1-.708-.708l1-1a.5.5 0 0 1 .708 0ZM.646.646a.5.5 0 0 1 .708 0l10 10a.5.5 0 0 1-.708.708l-10-10a.5.5 0 0 1 0-.708Z" clip-rule="evenodd"/>
    <path fill="#000" fill-rule="evenodd" d="M2.354 1.646a.5.5 0 0 1 0 .708l-1 1a.5.5 0 1 1-.708-.708l1-1a.5.5 0 0 1 .708 0Z" clip-rule="evenodd"/>
  </g>
  <defs>
    <clipPath id="a">
      <path fill="#fff" d="M0 0h12v12H0z"/>
    </clipPath>
  </defs>
</svg>
