<svg xmlns="http://www.w3.org/2000/svg" width="12" height="12" fill="none" viewBox="0 0 12 12">
  <path fill="#000" fill-rule="evenodd" d="M2.818 3.318a4.5 4.5 0 1 1 6.364 6.364 4.5 4.5 0 0 1-6.364-6.364ZM6 3a3.5 3.5 0 1 0 0 7 3.5 3.5 0 0 0 0-7ZM2.854 1.146a.5.5 0 0 1 0 .708l-1.5 1.5a.5.5 0 1 1-.708-.708l1.5-1.5a.5.5 0 0 1 .708 0Zm6.292 0a.5.5 0 0 1 .708 0l1.5 1.5a.5.5 0 0 1-.708.708l-1.5-1.5a.5.5 0 0 1 0-.708Z" clip-rule="evenodd"/>
  <path fill="#000" fill-rule="evenodd" d="M3.354 9.146a.5.5 0 0 1 0 .708l-1 1a.5.5 0 0 1-.708-.708l1-1a.5.5 0 0 1 .708 0Zm5.292 0a.5.5 0 0 1 .708 0l1 1a.5.5 0 0 1-.708.708l-1-1a.5.5 0 0 1 0-.708ZM6 4.5a.5.5 0 0 1 .5.5v3a.5.5 0 0 1-1 0V5a.5.5 0 0 1 .5-.5Z" clip-rule="evenodd"/>
  <path fill="#000" fill-rule="evenodd" d="M4 6.5a.5.5 0 0 1 .5-.5h3a.5.5 0 0 1 0 1h-3a.5.5 0 0 1-.5-.5Z" clip-rule="evenodd"/>
</svg>
