<svg xmlns="http://www.w3.org/2000/svg" width="12" height="12" fill="none" viewBox="0 0 12 12">
  <path fill="#000" fill-rule="evenodd" d="M1.44 1.94A1.5 1.5 0 0 1 2.5 1.5h7A1.5 1.5 0 0 1 11 3v.75a.5.5 0 0 1-1 0V3a.5.5 0 0 0-.5-.5h-7A.5.5 0 0 0 2 3v7a.5.5 0 0 0 .5.5h1.75a.5.5 0 0 1 0 1H2.5A1.5 1.5 0 0 1 1 10V3c0-.398.158-.78.44-1.06Z" clip-rule="evenodd"/>
  <path fill="#000" fill-rule="evenodd" d="M8 .5a.5.5 0 0 1 .5.5v2a.5.5 0 0 1-1 0V1A.5.5 0 0 1 8 .5Zm-4 0a.5.5 0 0 1 .5.5v2a.5.5 0 0 1-1 0V1A.5.5 0 0 1 4 .5ZM1 5a.5.5 0 0 1 .5-.5H4a.5.5 0 0 1 0 1H1.5A.5.5 0 0 1 1 5Zm7 1.5a.5.5 0 0 1 .5.5v.89l.57.476a.5.5 0 1 1-.64.768l-.75-.625a.5.5 0 0 1-.18-.384V7a.5.5 0 0 1 .5-.5Z" clip-rule="evenodd"/>
  <path fill="#000" fill-rule="evenodd" d="M8 5.5a2.5 2.5 0 1 0 0 5 2.5 2.5 0 0 0 0-5Zm-2.475.025a3.5 3.5 0 1 1 4.95 4.95 3.5 3.5 0 0 1-4.95-4.95Z" clip-rule="evenodd"/>
</svg>
