<svg xmlns="http://www.w3.org/2000/svg" width="12" height="12" fill="none" viewBox="0 0 12 12">
  <g clip-path="url(#a)">
    <path fill="#000" fill-rule="evenodd" d="M2.546 1.885a.5.5 0 0 1-.251.661.5.5 0 0 0-.295.455V10a.5.5 0 0 0 .5.5h6.999a.501.501 0 0 0 .455-.295.5.5 0 0 1 .912.41 1.5 1.5 0 0 1-1.365.885H2.5A1.5 1.5 0 0 1 1 10V2.999a1.5 1.5 0 0 1 .885-1.365.5.5 0 0 1 .661.251ZM4.25 2a.5.5 0 0 1 .5-.5H9.5A1.5 1.5 0 0 1 11 3v4.75a.5.5 0 0 1-1 0V3a.5.5 0 0 0-.5-.5H4.75a.5.5 0 0 1-.5-.5Z" clip-rule="evenodd"/>
    <path fill="#000" fill-rule="evenodd" d="M8 .5a.5.5 0 0 1 .5.5v2a.5.5 0 0 1-1 0V1A.5.5 0 0 1 8 .5ZM1 5a.5.5 0 0 1 .5-.5H5a.5.5 0 0 1 0 1H1.5A.5.5 0 0 1 1 5Zm6.25 0a.5.5 0 0 1 .5-.5h2.75a.5.5 0 0 1 0 1H7.75a.5.5 0 0 1-.5-.5Z" clip-rule="evenodd"/>
    <path fill="#000" fill-rule="evenodd" d="M.646.646a.5.5 0 0 1 .708 0l10 10a.5.5 0 0 1-.708.708l-10-10a.5.5 0 0 1 0-.708Z" clip-rule="evenodd"/>
  </g>
  <defs>
    <clipPath id="a">
      <path fill="#fff" d="M0 0h12v12H0z"/>
    </clipPath>
  </defs>
</svg>
