<svg xmlns="http://www.w3.org/2000/svg" width="12" height="12" fill="none" viewBox="0 0 12 12">
  <path fill="#000" fill-rule="evenodd" d="M1.44 1.94A1.5 1.5 0 0 1 2.5 1.5h7A1.5 1.5 0 0 1 11 3v3a.5.5 0 0 1-1 0V3a.5.5 0 0 0-.5-.5h-7A.5.5 0 0 0 2 3v7c0 .274.226.5.5.5h3.75a.5.5 0 0 1 0 1H2.5c-.826 0-1.5-.674-1.5-1.5V3c0-.398.158-.78.44-1.06Z" clip-rule="evenodd"/>
  <path fill="#000" fill-rule="evenodd" d="M8 .5a.5.5 0 0 1 .5.5v2a.5.5 0 0 1-1 0V1A.5.5 0 0 1 8 .5Zm-4 0a.5.5 0 0 1 .5.5v2a.5.5 0 0 1-1 0V1A.5.5 0 0 1 4 .5ZM1 5a.5.5 0 0 1 .5-.5h9a.5.5 0 0 1 0 1h-9A.5.5 0 0 1 1 5Zm6.586 2.586a2 2 0 1 1 2.828 2.828 2 2 0 0 1-2.828-2.828ZM9 8a1 1 0 1 0 0 2 1 1 0 0 0 0-2Z" clip-rule="evenodd"/>
  <path fill="#000" fill-rule="evenodd" d="M9.896 9.896a.5.5 0 0 1 .708 0l.75.75a.5.5 0 0 1-.708.708l-.75-.75a.5.5 0 0 1 0-.708Z" clip-rule="evenodd"/>
</svg>
