<svg xmlns="http://www.w3.org/2000/svg" width="12" height="12" fill="none" viewBox="0 0 12 12">
  <path fill="#000" fill-rule="evenodd" d="M2.5 2.5A.5.5 0 0 0 2 3v7a.5.5 0 0 0 .5.5h7a.5.5 0 0 0 .5-.5V3a.5.5 0 0 0-.5-.5h-7ZM1 3a1.5 1.5 0 0 1 1.5-1.5h7A1.5 1.5 0 0 1 11 3v7a1.5 1.5 0 0 1-1.5 1.5h-7A1.5 1.5 0 0 1 1 10V3Z" clip-rule="evenodd"/>
  <path fill="#000" fill-rule="evenodd" d="M8 .5a.5.5 0 0 1 .5.5v2a.5.5 0 0 1-1 0V1A.5.5 0 0 1 8 .5Zm-4 0a.5.5 0 0 1 .5.5v2a.5.5 0 0 1-1 0V1A.5.5 0 0 1 4 .5ZM1 5a.5.5 0 0 1 .5-.5h9a.5.5 0 0 1 0 1h-9A.5.5 0 0 1 1 5Zm4 2a.5.5 0 0 1 .5-.5h3a.5.5 0 0 1 0 1h-3A.5.5 0 0 1 5 7ZM3 9a.5.5 0 0 1 .5-.5h3a.5.5 0 0 1 0 1h-3A.5.5 0 0 1 3 9Zm0-2a.5.5 0 0 1 .5-.5h.005a.5.5 0 0 1 0 1H3.5A.5.5 0 0 1 3 7Zm5 2a.5.5 0 0 1 .5-.5h.005a.5.5 0 0 1 0 1H8.5A.5.5 0 0 1 8 9Z" clip-rule="evenodd"/>
</svg>
