<svg xmlns="http://www.w3.org/2000/svg" width="12" height="12" fill="none" viewBox="0 0 12 12">
  <path fill="#000" fill-rule="evenodd" d="M2.5 2.5A.5.5 0 0 0 2 3v7a.5.5 0 0 0 .5.5h7a.5.5 0 0 0 .5-.5V3a.5.5 0 0 0-.5-.5h-7ZM1 3a1.5 1.5 0 0 1 1.5-1.5h7A1.5 1.5 0 0 1 11 3v7a1.5 1.5 0 0 1-1.5 1.5h-7A1.5 1.5 0 0 1 1 10V3Z" clip-rule="evenodd"/>
  <path fill="#000" fill-rule="evenodd" d="M8 .5a.5.5 0 0 1 .5.5v2a.5.5 0 0 1-1 0V1A.5.5 0 0 1 8 .5Zm-4 0a.5.5 0 0 1 .5.5v2a.5.5 0 0 1-1 0V1A.5.5 0 0 1 4 .5ZM1 5a.5.5 0 0 1 .5-.5h9a.5.5 0 0 1 0 1h-9A.5.5 0 0 1 1 5Zm6.854 1.646a.5.5 0 0 1 0 .708l-2 2a.5.5 0 0 1-.708 0l-1-1a.5.5 0 1 1 .708-.708l.646.647 1.646-1.647a.5.5 0 0 1 .708 0Z" clip-rule="evenodd"/>
</svg>
