<svg xmlns="http://www.w3.org/2000/svg" width="12" height="12" fill="none" viewBox="0 0 12 12">
  <path fill="#000" fill-rule="evenodd" d="M1.44 1.94A1.5 1.5 0 0 1 2.5 1.5h7A1.5 1.5 0 0 1 11 3v3.5a.5.5 0 0 1-1 0V3a.5.5 0 0 0-.5-.5h-7A.5.5 0 0 0 2 3v7a.5.5 0 0 0 .5.5h4a.5.5 0 0 1 0 1h-4A1.5 1.5 0 0 1 1 10V3c0-.398.158-.78.44-1.06Z" clip-rule="evenodd"/>
  <path fill="#000" fill-rule="evenodd" d="M8 .5a.5.5 0 0 1 .5.5v2a.5.5 0 0 1-1 0V1A.5.5 0 0 1 8 .5Zm-4 0a.5.5 0 0 1 .5.5v2a.5.5 0 0 1-1 0V1A.5.5 0 0 1 4 .5ZM1 5a.5.5 0 0 1 .5-.5h9a.5.5 0 0 1 0 1h-9A.5.5 0 0 1 1 5Zm7.146 3.146a.5.5 0 0 1 .708 0l2.5 2.5a.5.5 0 0 1-.708.708l-2.5-2.5a.5.5 0 0 1 0-.708Z" clip-rule="evenodd"/>
  <path fill="#000" fill-rule="evenodd" d="M11.354 8.146a.5.5 0 0 1 0 .708l-2.5 2.5a.5.5 0 0 1-.708-.708l2.5-2.5a.5.5 0 0 1 .708 0Z" clip-rule="evenodd"/>
</svg>
