<svg xmlns="http://www.w3.org/2000/svg" width="12" height="12" fill="none" viewBox="0 0 12 12">
  <path fill="#000" fill-rule="evenodd" d="M2 11a.5.5 0 0 1 .5-.5h7a.5.5 0 0 1 0 1h-7A.5.5 0 0 1 2 11ZM2 1a.5.5 0 0 1 .5-.5h7a.5.5 0 0 1 0 1h-7A.5.5 0 0 1 2 1Z" clip-rule="evenodd"/>
  <path fill="#000" fill-rule="evenodd" d="M5.646 5.646a.5.5 0 0 1 .708 0L8.56 7.853A1.5 1.5 0 0 1 9 8.913V11a.5.5 0 0 1-1 0V8.914a.5.5 0 0 0-.146-.353L6 6.707 4.147 8.561A.5.5 0 0 0 4 8.914V11a.5.5 0 0 1-1 0V8.914c0-.398.158-.78.44-1.06l2.206-2.208Z" clip-rule="evenodd"/>
  <path fill="#000" fill-rule="evenodd" d="M3.5.5A.5.5 0 0 1 4 1v2.086a.5.5 0 0 0 .146.353L6 5.293l1.853-1.854A.5.5 0 0 0 8 3.086V1a.5.5 0 0 1 1 0v2.086a1.5 1.5 0 0 1-.44 1.06L6.355 6.355a.5.5 0 0 1-.708 0L3.44 4.147A1.5 1.5 0 0 1 3 3.087V1a.5.5 0 0 1 .5-.5Z" clip-rule="evenodd"/>
</svg>
