<svg xmlns="http://www.w3.org/2000/svg" width="12" height="12" fill="none" viewBox="0 0 12 12">
  <g clip-path="url(#a)">
    <path fill="#000" fill-rule="evenodd" d="M4.5 1A.5.5 0 0 1 5 .5h2a.5.5 0 0 1 0 1H5a.5.5 0 0 1-.5-.5ZM2.492 5.038a.5.5 0 0 1 .27.654 3.5 3.5 0 0 0 .742 3.804 3.5 3.5 0 0 0 3.804.742.5.5 0 1 1 .384.924 4.5 4.5 0 0 1-4.894-.957l-.003-.003a4.5 4.5 0 0 1-.957-4.894.5.5 0 0 1 .654-.27Zm3.826-1.535a3.5 3.5 0 0 0-2.333.608.5.5 0 1 1-.57-.822 4.5 4.5 0 0 1 5.792.56 4.5 4.5 0 0 1 .504 5.736.5.5 0 1 1-.822-.57 3.5 3.5 0 0 0-.394-4.462l-.004-.005a3.5 3.5 0 0 0-2.173-1.045Z" clip-rule="evenodd"/>
    <path fill="#000" fill-rule="evenodd" d="M.646.646a.5.5 0 0 1 .708 0l10 10a.5.5 0 0 1-.708.708l-10-10a.5.5 0 0 1 0-.708Z" clip-rule="evenodd"/>
    <path fill="#000" fill-rule="evenodd" d="M6 4.5a.5.5 0 0 1 .5.5v1a.5.5 0 0 1-1 0V5a.5.5 0 0 1 .5-.5Z" clip-rule="evenodd"/>
  </g>
  <defs>
    <clipPath id="a">
      <path fill="#fff" d="M0 0h12v12H0z"/>
    </clipPath>
  </defs>
</svg>
