<svg xmlns="http://www.w3.org/2000/svg" width="12" height="12" fill="none" viewBox="0 0 12 12">
  <path fill="#000" fill-rule="evenodd" d="M4.5 1A.5.5 0 0 1 5 .5h2a.5.5 0 0 1 0 1H5a.5.5 0 0 1-.5-.5ZM6 4.5a.5.5 0 0 1 .5.5v2a.5.5 0 0 1-1 0V5a.5.5 0 0 1 .5-.5Z" clip-rule="evenodd"/>
  <path fill="#000" fill-rule="evenodd" d="M5.996 3.5a3.5 3.5 0 0 0-3.5 3.062.5.5 0 0 1-.992-.124A4.5 4.5 0 0 1 6.002 2.5a4.5 4.5 0 1 1-2.983 7.875l-.001-.001-1.35-1.2a.5.5 0 1 1 .664-.748l1.349 1.199A3.5 3.5 0 1 0 6 3.5h-.003Z" clip-rule="evenodd"/>
  <path fill="#000" fill-rule="evenodd" d="M1.5 8.5A.5.5 0 0 1 2 8h2.5a.5.5 0 0 1 0 1h-2v2a.5.5 0 0 1-1 0V8.5Z" clip-rule="evenodd"/>
</svg>
