<svg xmlns="http://www.w3.org/2000/svg" width="12" height="12" fill="none" viewBox="0 0 12 12">
  <g clip-path="url(#a)">
    <path fill="#000" fill-rule="evenodd" d="M6 4.5a1.5 1.5 0 1 0 0 3 1.5 1.5 0 0 0 0-3ZM3.5 6a2.5 2.5 0 1 1 5 0 2.5 2.5 0 0 1-5 0Z" clip-rule="evenodd"/>
    <path fill="#000" fill-rule="evenodd" d="M3.65 1.028A5.5 5.5 0 0 1 11.5 6v.5a2 2 0 1 1-4 0V4a.5.5 0 1 1 1 0v2.5a1 1 0 1 0 2 0V6a4.5 4.5 0 1 0-1.764 3.573.5.5 0 1 1 .608.794 5.5 5.5 0 1 1-5.694-9.34Z" clip-rule="evenodd"/>
  </g>
  <defs>
    <clipPath id="a">
      <path fill="#fff" d="M0 0h12v12H0z"/>
    </clipPath>
  </defs>
</svg>
