<svg xmlns="http://www.w3.org/2000/svg" width="12" height="12" fill="none" viewBox="0 0 12 12">
  <g clip-path="url(#a)">
    <path fill="#000" fill-rule="evenodd" d="M.94 1.94A1.5 1.5 0 0 1 2 1.5h3.5a.5.5 0 0 1 0 1H2a.5.5 0 0 0-.5.5v7a.5.5 0 0 0 .5.5h7a.5.5 0 0 0 .5-.5V6.5a.5.5 0 0 1 1 0V10A1.5 1.5 0 0 1 9 11.5H2A1.5 1.5 0 0 1 .5 10V3c0-.398.158-.78.44-1.06Z" clip-rule="evenodd"/>
    <path fill="#000" fill-rule="evenodd" d="M10 1.44a.56.56 0 0 0-.396.164L4.95 6.256l-.264 1.057 1.057-.264 4.652-4.653A.56.56 0 0 0 10 1.44ZM8.896.895a1.56 1.56 0 0 1 2.208 2.208l-4.75 4.75a.5.5 0 0 1-.233.131l-2 .5a.5.5 0 0 1-.606-.606l.5-2a.5.5 0 0 1 .131-.233l4.75-4.75Z" clip-rule="evenodd"/>
  </g>
  <defs>
    <clipPath id="a">
      <path fill="#fff" d="M0 0h12v12H0z"/>
    </clipPath>
  </defs>
</svg>
