<svg xmlns="http://www.w3.org/2000/svg" width="12" height="12" fill="none" viewBox="0 0 12 12">
  <g clip-path="url(#a)">
    <path fill="#000" fill-rule="evenodd" d="M9.5 1.586a.914.914 0 0 0-.646.268L2.197 8.51l-.484 1.777 1.777-.484 6.656-6.657a.913.913 0 0 0-.646-1.56ZM8.767.732a1.914 1.914 0 0 1 2.087 3.122l-6.75 6.75a.5.5 0 0 1-.222.128l-2.75.75a.5.5 0 0 1-.614-.614l.75-2.75a.5.5 0 0 1 .128-.222l6.75-6.75c.178-.177.39-.318.621-.414Z" clip-rule="evenodd"/>
    <path fill="#000" fill-rule="evenodd" d="M2.146 7.146a.5.5 0 0 1 .708 0l2 2a.5.5 0 1 1-.708.708l-2-2a.5.5 0 0 1 0-.708Z" clip-rule="evenodd"/>
  </g>
  <defs>
    <clipPath id="a">
      <path fill="#fff" d="M0 0h12v12H0z"/>
    </clipPath>
  </defs>
</svg>
