<svg xmlns="http://www.w3.org/2000/svg" width="12" height="12" fill="none" viewBox="0 0 12 12">
  <path fill="#000" fill-rule="evenodd" d="M2.5 2a.5.5 0 0 0-.5.5v7a.5.5 0 0 0 .5.5h7a.5.5 0 0 0 .5-.5v-7a.5.5 0 0 0-.5-.5h-7ZM1 2.5A1.5 1.5 0 0 1 2.5 1h7A1.5 1.5 0 0 1 11 2.5v7A1.5 1.5 0 0 1 9.5 11h-7A1.5 1.5 0 0 1 1 9.5v-7Z" clip-rule="evenodd"/>
  <path fill="#000" fill-rule="evenodd" d="M4.5 4a.5.5 0 1 0 0 1 .5.5 0 0 0 0-1ZM3 4.5a1.5 1.5 0 1 1 3 0 1.5 1.5 0 0 1-3 0Zm4.19 1.103a1.5 1.5 0 0 1 2.12 0l1.544 1.543a.5.5 0 0 1-.708.708L8.603 6.31a.5.5 0 0 0-.706 0l-4.543 4.543a.5.5 0 1 1-.708-.708L7.19 5.603Z" clip-rule="evenodd"/>
</svg>
