<svg xmlns="http://www.w3.org/2000/svg" width="12" height="12" fill="none" viewBox="0 0 12 12">
  <g clip-path="url(#a)">
    <path fill="#000" fill-rule="evenodd" d="M3.5 4a2 2 0 1 0 0 4h1a.5.5 0 0 1 0 1h-1a3 3 0 1 1 0-6 .5.5 0 0 1 0 1ZM7 3.5a.5.5 0 0 1 .5-.5h1a3 3 0 0 1 2.4 4.8.5.5 0 0 1-.8-.6A2 2 0 0 0 8.5 4h-1a.5.5 0 0 1-.5-.5Z" clip-rule="evenodd"/>
    <path fill="#000" fill-rule="evenodd" d="M3.5 6a.5.5 0 0 1 .5-.5h2a.5.5 0 0 1 0 1H4a.5.5 0 0 1-.5-.5Z" clip-rule="evenodd"/>
    <path fill="#000" fill-rule="evenodd" d="M.646.646a.5.5 0 0 1 .708 0l10 10a.5.5 0 0 1-.708.708l-10-10a.5.5 0 0 1 0-.708Z" clip-rule="evenodd"/>
  </g>
  <defs>
    <clipPath id="a">
      <path fill="#fff" d="M0 0h12v12H0z"/>
    </clipPath>
  </defs>
</svg>
