<svg xmlns="http://www.w3.org/2000/svg" width="12" height="12" fill="none" viewBox="0 0 12 12">
  <path fill="#000" fill-rule="evenodd" d="M3.5 3a.5.5 0 0 1 .5-.5h6.5a.5.5 0 0 1 0 1H4a.5.5 0 0 1-.5-.5Zm0 3a.5.5 0 0 1 .5-.5h6.5a.5.5 0 0 1 0 1H4a.5.5 0 0 1-.5-.5Zm0 3a.5.5 0 0 1 .5-.5h6.5a.5.5 0 0 1 0 1H4a.5.5 0 0 1-.5-.5ZM1 3a.5.5 0 0 1 .5-.5h.005a.5.5 0 0 1 0 1H1.5A.5.5 0 0 1 1 3Zm0 3a.5.5 0 0 1 .5-.5h.005a.5.5 0 0 1 0 1H1.5A.5.5 0 0 1 1 6Zm0 3a.5.5 0 0 1 .5-.5h.005a.5.5 0 0 1 0 1H1.5A.5.5 0 0 1 1 9Z" clip-rule="evenodd"/>
</svg>
