<svg xmlns="http://www.w3.org/2000/svg" width="12" height="12" fill="none" viewBox="0 0 12 12">
  <path fill="#000" fill-rule="evenodd" d="M4.5 3a.5.5 0 0 1 .5-.5h5.5a.5.5 0 0 1 0 1H5a.5.5 0 0 1-.5-.5Zm0 3a.5.5 0 0 1 .5-.5h5.5a.5.5 0 0 1 0 1H5a.5.5 0 0 1-.5-.5Zm0 3a.5.5 0 0 1 .5-.5h5.5a.5.5 0 0 1 0 1H5a.5.5 0 0 1-.5-.5ZM2.646 2.146a.5.5 0 1 1 .708.708l-1 1a.5.5 0 0 1-.708 0l-.5-.5a.5.5 0 1 1 .708-.708L2 2.793l.646-.647Zm0 3a.5.5 0 1 1 .708.708l-1 1a.5.5 0 0 1-.708 0l-.5-.5a.5.5 0 1 1 .708-.708L2 5.793l.646-.647Zm0 3a.5.5 0 1 1 .708.708l-1 1a.5.5 0 0 1-.708 0l-.5-.5a.5.5 0 1 1 .708-.708L2 8.793l.646-.647Z" clip-rule="evenodd"/>
</svg>
