<svg xmlns="http://www.w3.org/2000/svg" width="12" height="12" fill="none" viewBox="0 0 12 12">
  <g clip-path="url(#a)">
    <path fill="#000" fill-rule="evenodd" d="M8.644 1.941a1.503 1.503 0 0 0-2.125.002L2.234 6.23A2.502 2.502 0 1 0 5.77 9.767l4.596-4.595a.5.5 0 1 1 .707.707l-4.595 4.595a3.502 3.502 0 0 1-4.953-4.952L5.81 1.237a2.504 2.504 0 0 1 3.543 3.536L5.059 9.06a1.5 1.5 0 0 1-2.123-2.122l4.246-4.24a.5.5 0 1 1 .706.707l-4.244 4.24a.501.501 0 0 0 .707.708l4.295-4.285a1.504 1.504 0 0 0-.002-2.126Z" clip-rule="evenodd"/>
  </g>
  <defs>
    <clipPath id="a">
      <path fill="#fff" d="M0 0h12v12H0z"/>
    </clipPath>
  </defs>
</svg>
