<svg xmlns="http://www.w3.org/2000/svg" width="12" height="12" fill="none" viewBox="0 0 12 12">
  <path fill="#000" fill-rule="evenodd" d="M3 2a1 1 0 1 0 0 2 1 1 0 0 0 0-2ZM1 3a2 2 0 1 1 4 0 2 2 0 0 1-4 0Zm2 5a1 1 0 1 0 0 2 1 1 0 0 0 0-2ZM1 9a2 2 0 1 1 4 0 2 2 0 0 1-4 0Z" clip-rule="evenodd"/>
  <path fill="#000" fill-rule="evenodd" d="M10.354 1.646a.5.5 0 0 1 0 .708l-5.94 5.94a.5.5 0 1 1-.708-.708l5.94-5.94a.5.5 0 0 1 .708 0ZM6.881 6.887a.5.5 0 0 1 .707 0l2.765 2.76a.5.5 0 1 1-.706.707l-2.765-2.76a.5.5 0 0 1 0-.707Z" clip-rule="evenodd"/>
  <path fill="#000" fill-rule="evenodd" d="M3.706 3.707a.5.5 0 0 1 .708 0l1.94 1.94a.5.5 0 1 1-.708.707l-1.94-1.94a.5.5 0 0 1 0-.707Z" clip-rule="evenodd"/>
</svg>
