<svg xmlns="http://www.w3.org/2000/svg" width="12" height="12" fill="none" viewBox="0 0 12 12">
  <path fill="#000" fill-rule="evenodd" d="M3.5 1.5a1 1 0 0 1 1-1h3a1 1 0 0 1 1 1v1a1 1 0 0 1-1 1h-3a1 1 0 0 1-1-1v-1Zm4 0h-3v1h3v-1ZM5.953 6.497a.55.55 0 0 0-.39.161L2.947 9.28l-.258 1.03 1.031-.261 2.622-2.613a.552.552 0 0 0-.178-.897.55.55 0 0 0-.21-.042Zm-.594-.882a1.55 1.55 0 0 1 1.69 2.529l-2.721 2.71a.5.5 0 0 1-.23.13l-1.975.5a.5.5 0 0 1-.608-.606l.495-1.975a.5.5 0 0 1 .131-.231l2.715-2.72c.144-.144.315-.259.503-.337Z" clip-rule="evenodd"/>
  <path fill="#000" fill-rule="evenodd" d="M7.5 2a.5.5 0 0 1 .5-.5h1A1.5 1.5 0 0 1 10.5 3v7A1.5 1.5 0 0 1 9 11.5H6.25a.5.5 0 0 1 0-1H9a.5.5 0 0 0 .5-.5V3a.5.5 0 0 0-.5-.5H8a.5.5 0 0 1-.5-.5ZM3 2.5a.5.5 0 0 0-.5.5v3.75a.5.5 0 0 1-1 0V3A1.5 1.5 0 0 1 3 1.5h1a.5.5 0 0 1 0 1H3Z" clip-rule="evenodd"/>
</svg>
