<svg xmlns="http://www.w3.org/2000/svg" width="12" height="12" fill="none" viewBox="0 0 12 12">
  <path fill="#000" fill-rule="evenodd" d="M3.5 1.5a1 1 0 0 1 1-1h3a1 1 0 0 1 1 1v1a1 1 0 0 1-1 1h-3a1 1 0 0 1-1-1v-1Zm4 0h-3v1h3v-1Z" clip-rule="evenodd"/>
  <path fill="#000" fill-rule="evenodd" d="M1.94 1.94A1.5 1.5 0 0 1 3 1.5h1a.5.5 0 0 1 0 1H3a.5.5 0 0 0-.5.5v7a.5.5 0 0 0 .5.5h6a.5.5 0 0 0 .5-.5V9a.5.5 0 0 1 1 0v1A1.5 1.5 0 0 1 9 11.5H3A1.5 1.5 0 0 1 1.5 10V3c0-.398.158-.78.44-1.06ZM7.5 2a.5.5 0 0 1 .5-.5h1A1.5 1.5 0 0 1 10.5 3v2a.5.5 0 0 1-1 0V3a.5.5 0 0 0-.5-.5H8a.5.5 0 0 1-.5-.5Z" clip-rule="evenodd"/>
  <path fill="#000" fill-rule="evenodd" d="M5 7a.5.5 0 0 1 .5-.5h5a.5.5 0 0 1 0 1h-5A.5.5 0 0 1 5 7Z" clip-rule="evenodd"/>
  <path fill="#000" fill-rule="evenodd" d="M7.854 4.646a.5.5 0 0 1 0 .708L6.207 7l1.647 1.646a.5.5 0 1 1-.708.708l-2-2a.5.5 0 0 1 0-.708l2-2a.5.5 0 0 1 .708 0Z" clip-rule="evenodd"/>
</svg>
