<svg xmlns="http://www.w3.org/2000/svg" width="12" height="12" fill="none" viewBox="0 0 12 12">
  <g clip-path="url(#a)">
    <path fill="#000" fill-rule="evenodd" d="M3 2.5a.5.5 0 0 0-.5.5v6a.5.5 0 0 0 .5.5h6a.5.5 0 0 0 .5-.5V3a.5.5 0 0 0-.5-.5H3ZM1.5 3A1.5 1.5 0 0 1 3 1.5h6A1.5 1.5 0 0 1 10.5 3v6A1.5 1.5 0 0 1 9 10.5H3A1.5 1.5 0 0 1 1.5 9V3Z" clip-rule="evenodd"/>
    <path fill="#000" fill-rule="evenodd" d="M4 4.5a.5.5 0 0 1 .5-.5h3a.5.5 0 0 1 .5.5v3a.5.5 0 0 1-.5.5h-3a.5.5 0 0 1-.5-.5v-3ZM5 5v2h2V5H5ZM4.5.5A.5.5 0 0 1 5 1v1a.5.5 0 0 1-1 0V1a.5.5 0 0 1 .5-.5Zm3 0A.5.5 0 0 1 8 1v1a.5.5 0 0 1-1 0V1a.5.5 0 0 1 .5-.5Zm-3 9.5a.5.5 0 0 1 .5.5v.5a.5.5 0 0 1-1 0v-.5a.5.5 0 0 1 .5-.5Zm3-.5a.5.5 0 0 1 .5.5v1a.5.5 0 0 1-1 0v-1a.5.5 0 0 1 .5-.5Zm2-5A.5.5 0 0 1 10 4h1a.5.5 0 0 1 0 1h-1a.5.5 0 0 1-.5-.5Zm0 2.5a.5.5 0 0 1 .5-.5h1a.5.5 0 0 1 0 1h-1a.5.5 0 0 1-.5-.5Zm-9-2.5A.5.5 0 0 1 1 4h1a.5.5 0 0 1 0 1H1a.5.5 0 0 1-.5-.5ZM.5 7a.5.5 0 0 1 .5-.5h1a.5.5 0 0 1 0 1H1A.5.5 0 0 1 .5 7Z" clip-rule="evenodd"/>
  </g>
  <defs>
    <clipPath id="a">
      <path fill="#fff" d="M0 0h12v12H0z"/>
    </clipPath>
  </defs>
</svg>
