<svg xmlns="http://www.w3.org/2000/svg" width="12" height="12" fill="none" viewBox="0 0 12 12">
  <path fill="#000" fill-rule="evenodd" d="M2.5 3.5A.5.5 0 0 0 2 4v5.5a.5.5 0 0 0 .5.5H8a.5.5 0 0 0 .5-.5v-3a.5.5 0 0 1 1 0v3A1.5 1.5 0 0 1 8 11H2.5A1.5 1.5 0 0 1 1 9.5V4a1.5 1.5 0 0 1 1.5-1.5h3a.5.5 0 0 1 0 1h-3Zm4.5-2a.5.5 0 0 1 .5-.5h3a.5.5 0 0 1 .5.5v3a.5.5 0 0 1-1 0V2H7.5a.5.5 0 0 1-.5-.5Z" clip-rule="evenodd"/>
  <path fill="#000" fill-rule="evenodd" d="M10.854 1.146a.5.5 0 0 1 0 .708l-5.5 5.5a.5.5 0 1 1-.708-.708l5.5-5.5a.5.5 0 0 1 .708 0Z" clip-rule="evenodd"/>
</svg>
