<svg xmlns="http://www.w3.org/2000/svg" width="12" height="12" fill="none" viewBox="0 0 12 12">
  <path fill="#000" fill-rule="evenodd" d="M1.94.94A1.5 1.5 0 0 1 3 .5h4.25a.5.5 0 0 1 .354.146l2.75 2.75a.5.5 0 0 1 .146.354V10A1.5 1.5 0 0 1 9 11.5H3A1.5 1.5 0 0 1 1.5 10V2c0-.398.158-.78.44-1.06ZM3 1.5a.5.5 0 0 0-.5.5v8a.5.5 0 0 0 .5.5h6a.5.5 0 0 0 .5-.5V3.957L7.043 1.5H3Z" clip-rule="evenodd"/>
  <path fill="#000" fill-rule="evenodd" d="M7 .5a.5.5 0 0 1 .5.5v2.5H10a.5.5 0 0 1 0 1H7a.5.5 0 0 1-.5-.5V1A.5.5 0 0 1 7 .5Z" clip-rule="evenodd"/>
</svg>
