<svg xmlns="http://www.w3.org/2000/svg" width="12" height="12" fill="none" viewBox="0 0 12 12">
  <path fill="#000" fill-rule="evenodd" d="M.5 6a.5.5 0 0 1 .5-.5h10a.5.5 0 0 1 0 1H1A.5.5 0 0 1 .5 6Z" clip-rule="evenodd"/>
  <path fill="#000" fill-rule="evenodd" d="M3.62 1.5h4.76a1.5 1.5 0 0 1 1.342.832l1.725 3.444A.5.5 0 0 1 11.5 6v3a1.5 1.5 0 0 1-1.5 1.5H2A1.5 1.5 0 0 1 .5 9V6a.5.5 0 0 1 .053-.224l1.724-3.443A1.503 1.503 0 0 1 3.62 1.5Zm-.895 1.055.447.224L1.5 6.119V9a.5.5 0 0 0 .5.5h8a.5.5 0 0 0 .5-.5V6.118l-1.672-3.34A.5.5 0 0 0 8.38 2.5m-4.76 0a.5.5 0 0 0-.447.277l-.448-.222" clip-rule="evenodd"/>
  <path fill="#000" fill-rule="evenodd" d="M2.5 8a.5.5 0 0 1 .5-.5h.005a.5.5 0 0 1 0 1H3a.5.5 0 0 1-.5-.5Zm2 0a.5.5 0 0 1 .5-.5h.005a.5.5 0 0 1 0 1H5a.5.5 0 0 1-.5-.5Z" clip-rule="evenodd"/>
</svg>
