<svg xmlns="http://www.w3.org/2000/svg" width="12" height="12" fill="none" viewBox="0 0 12 12">
  <path fill="#000" fill-rule="evenodd" d="M6 1a.5.5 0 0 1 .5.5v6a.5.5 0 0 1-1 0v-6A.5.5 0 0 1 6 1Z" clip-rule="evenodd"/>
  <path fill="#000" fill-rule="evenodd" d="M3.646 5.146a.5.5 0 0 1 .708 0L6 6.793l1.646-1.647a.5.5 0 1 1 .708.708l-2 2a.5.5 0 0 1-.708 0l-2-2a.5.5 0 0 1 0-.708Z" clip-rule="evenodd"/>
  <path fill="#000" fill-rule="evenodd" d="M.94 2.44A1.5 1.5 0 0 1 2 2h2a.5.5 0 0 1 0 1H2a.5.5 0 0 0-.5.5v5A.5.5 0 0 0 2 9h8a.5.5 0 0 0 .5-.5v-5A.5.5 0 0 0 10 3H8a.5.5 0 0 1 0-1h2a1.5 1.5 0 0 1 1.5 1.5v5A1.5 1.5 0 0 1 10 10H2A1.5 1.5 0 0 1 .5 8.5v-5c0-.398.158-.78.44-1.06Z" clip-rule="evenodd"/>
</svg>
