<svg xmlns="http://www.w3.org/2000/svg" width="12" height="12" fill="none" viewBox="0 0 12 12">
  <g clip-path="url(#a)">
    <path fill="#000" fill-rule="evenodd" d="M2.146 3.646a.5.5 0 0 1 .708 0l3 3a.5.5 0 1 1-.708.708l-3-3a.5.5 0 0 1 0-.708Z" clip-rule="evenodd"/>
    <path fill="#000" fill-rule="evenodd" d="M6.277 2.084a.5.5 0 0 1 .139.693l-1 1.5a.5.5 0 0 1-.062.077l-3 3a.5.5 0 1 1-.708-.708l2.965-2.965.973-1.458a.5.5 0 0 1 .693-.139Z" clip-rule="evenodd"/>
    <path fill="#000" fill-rule="evenodd" d="M.5 2.5A.5.5 0 0 1 1 2h6a.5.5 0 0 1 0 1H1a.5.5 0 0 1-.5-.5ZM3 1a.5.5 0 0 1 .5-.5H4a.5.5 0 0 1 0 1h-.5A.5.5 0 0 1 3 1Zm5.5 4.5a.5.5 0 0 1 .447.276l2.5 5a.5.5 0 1 1-.894.448L8.5 7.118l-2.053 4.106a.5.5 0 1 1-.894-.448l2.5-5A.5.5 0 0 1 8.5 5.5Z" clip-rule="evenodd"/>
    <path fill="#000" fill-rule="evenodd" d="M6.5 9a.5.5 0 0 1 .5-.5h3a.5.5 0 0 1 0 1H7a.5.5 0 0 1-.5-.5Z" clip-rule="evenodd"/>
  </g>
  <defs>
    <clipPath id="a">
      <path fill="#fff" d="M0 0h12v12H0z"/>
    </clipPath>
  </defs>
</svg>
