<svg xmlns="http://www.w3.org/2000/svg" width="12" height="12" fill="none" viewBox="0 0 12 12">
  <g clip-path="url(#a)">
    <path fill="#000" fill-rule="evenodd" d="M6 1.5a4.5 4.5 0 1 0 0 9 4.5 4.5 0 0 0 0-9ZM.5 6a5.5 5.5 0 1 1 11 0 5.5 5.5 0 0 1-11 0Z" clip-rule="evenodd"/>
    <path fill="#000" fill-rule="evenodd" d="M6 4.5a1.5 1.5 0 1 0 0 3 1.5 1.5 0 0 0 0-3ZM3.5 6a2.5 2.5 0 1 1 5 0 2.5 2.5 0 0 1-5 0Z" clip-rule="evenodd"/>
    <path fill="#000" fill-rule="evenodd" d="M2.111 2.111a.5.5 0 0 1 .708 0l2.12 2.12a.5.5 0 0 1-.708.708l-2.12-2.12a.5.5 0 0 1 0-.708Zm4.95 4.95a.5.5 0 0 1 .708 0l2.12 2.12a.5.5 0 0 1-.708.708l-2.12-2.12a.5.5 0 0 1 0-.708Zm2.828-4.95a.5.5 0 0 1 0 .708l-2.12 2.12a.5.5 0 1 1-.708-.708l2.12-2.12a.5.5 0 0 1 .708 0Z" clip-rule="evenodd"/>
    <path fill="#000" fill-rule="evenodd" d="M9.534 2.466a.5.5 0 0 1 0 .708L7.769 4.939a.5.5 0 1 1-.708-.708l1.765-1.765a.5.5 0 0 1 .708 0ZM4.939 7.061a.5.5 0 0 1 0 .708l-2.12 2.12a.5.5 0 1 1-.708-.708l2.12-2.12a.5.5 0 0 1 .708 0Z" clip-rule="evenodd"/>
  </g>
  <defs>
    <clipPath id="a">
      <path fill="#fff" d="M0 0h12v12H0z"/>
    </clipPath>
  </defs>
</svg>
