<svg xmlns="http://www.w3.org/2000/svg" width="12" height="12" fill="none" viewBox="0 0 12 12">
  <path fill="#000" fill-rule="evenodd" d="M2.5 2a.5.5 0 0 0-.5.5v7a.5.5 0 0 0 .5.5h7a.5.5 0 0 0 .5-.5V4.207L7.793 2H2.5Zm-1.06-.56A1.5 1.5 0 0 1 2.5 1H8a.5.5 0 0 1 .354.146l2.5 2.5A.5.5 0 0 1 11 4v5.5A1.5 1.5 0 0 1 9.5 11h-7A1.5 1.5 0 0 1 1 9.5v-7c0-.398.158-.78.44-1.06Z" clip-rule="evenodd"/>
  <path fill="#000" fill-rule="evenodd" d="M3 6.5a.5.5 0 0 1 .5-.5h5a.5.5 0 0 1 .5.5v4a.5.5 0 0 1-1 0V7H4v3.5a.5.5 0 0 1-1 0v-4ZM3.5 1a.5.5 0 0 1 .5.5v2h3.5a.5.5 0 0 1 0 1h-4A.5.5 0 0 1 3 4V1.5a.5.5 0 0 1 .5-.5Z" clip-rule="evenodd"/>
</svg>
