<svg xmlns="http://www.w3.org/2000/svg" width="12" height="12" fill="none" viewBox="0 0 12 12">
  <path fill="#000" fill-rule="evenodd" d="M2.5 2a.5.5 0 0 0-.5.5v1a.5.5 0 0 1-1 0v-1A1.5 1.5 0 0 1 2.5 1h1a.5.5 0 0 1 0 1h-1ZM8 1.5a.5.5 0 0 1 .5-.5h1A1.5 1.5 0 0 1 11 2.5v1a.5.5 0 0 1-1 0v-1a.5.5 0 0 0-.5-.5h-1a.5.5 0 0 1-.5-.5ZM10.5 8a.5.5 0 0 1 .5.5v1A1.5 1.5 0 0 1 9.5 11h-1a.5.5 0 0 1 0-1h1a.5.5 0 0 0 .5-.5v-1a.5.5 0 0 1 .5-.5Zm-9 0a.5.5 0 0 1 .5.5v1a.5.5 0 0 0 .5.5h1a.5.5 0 0 1 0 1h-1A1.5 1.5 0 0 1 1 9.5v-1a.5.5 0 0 1 .5-.5Zm2.898-1.302A.5.5 0 0 0 3.6 7.3L4 7l-.4.3.001.001.001.002.004.005.01.014c.01.01.021.025.036.042a3.474 3.474 0 0 0 .585.54c.4.29 1 .596 1.763.596.763 0 1.364-.305 1.763-.596a3.473 3.473 0 0 0 .62-.582l.01-.014.005-.005v-.002H8.4L8 7l.4.3a.5.5 0 0 0-.798-.602l-.003.003a2.474 2.474 0 0 1-.425.395c-.288.21-.687.404-1.174.404-.487 0-.886-.194-1.175-.404a2.474 2.474 0 0 1-.424-.395l-.003-.003ZM4 4.5a.5.5 0 0 1 .5-.5h.005a.5.5 0 0 1 0 1H4.5a.5.5 0 0 1-.5-.5Zm3 0a.5.5 0 0 1 .5-.5h.005a.5.5 0 0 1 0 1H7.5a.5.5 0 0 1-.5-.5Z" clip-rule="evenodd"/>
</svg>
