<svg xmlns="http://www.w3.org/2000/svg" width="12" height="12" fill="none" viewBox="0 0 12 12">
  <path fill="#000" fill-rule="evenodd" d="M5.598 2.209a3 3 0 0 0-3.24 4.89.5.5 0 1 1-.715.7A4 4 0 1 1 8.209 3.5h.54a2.75 2.75 0 0 1 1.529 5.037.5.5 0 1 1-.556-.832A1.75 1.75 0 0 0 8.75 4.5h-.895a.5.5 0 0 1-.48-.357A3 3 0 0 0 5.599 2.21Z" clip-rule="evenodd"/>
  <path fill="#000" fill-rule="evenodd" d="M6 5.5a.5.5 0 0 1 .5.5v4.5a.5.5 0 0 1-1 0V6a.5.5 0 0 1 .5-.5Z" clip-rule="evenodd"/>
  <path fill="#000" fill-rule="evenodd" d="M5.646 5.646a.5.5 0 0 1 .708 0l2 2a.5.5 0 1 1-.708.708L6 6.707 4.354 8.354a.5.5 0 1 1-.708-.708l2-2Z" clip-rule="evenodd"/>
</svg>
