<svg xmlns="http://www.w3.org/2000/svg" width="12" height="12" fill="none" viewBox="0 0 12 12">
  <path fill="#000" fill-rule="evenodd" d="M1.5 7a.5.5 0 0 1 .5.5v2a.5.5 0 0 0 .5.5h7a.5.5 0 0 0 .5-.5v-2a.5.5 0 0 1 1 0v2A1.5 1.5 0 0 1 9.5 11h-7A1.5 1.5 0 0 1 1 9.5v-2a.5.5 0 0 1 .5-.5Zm4.146-5.854a.5.5 0 0 1 .708 0l2.5 2.5a.5.5 0 1 1-.708.708L6 2.207 3.854 4.354a.5.5 0 1 1-.708-.708l2.5-2.5Z" clip-rule="evenodd"/>
  <path fill="#000" fill-rule="evenodd" d="M6 1a.5.5 0 0 1 .5.5v6a.5.5 0 0 1-1 0v-6A.5.5 0 0 1 6 1Z" clip-rule="evenodd"/>
</svg>
