<?xml version="1.0" standalone="no"?>
<!DOCTYPE svg PUBLIC "-//W3C//DTD SVG 20010904//EN"
 "http://www.w3.org/TR/2001/REC-SVG-20010904/DTD/svg10.dtd">
<svg version="1.0" xmlns="http://www.w3.org/2000/svg"
 width="700.000000pt" height="700.000000pt" viewBox="0 0 700.000000 700.000000"
 preserveAspectRatio="xMidYMid meet">
<metadata>
Created by potrace 1.14, written by Peter Selinger 2001-2017
</metadata>
<g transform="translate(0.000000,700.000000) scale(0.100000,-0.100000)"
fill="#000000" stroke="none">
<path d="M3284 5833 c-105 -109 -217 -226 -250 -260 -59 -61 -427 -442 -495
-512 l-35 -37 -80 29 c-78 28 -232 69 -309 82 -22 4 -125 9 -230 10 -155 3
-210 0 -295 -16 -120 -22 -265 -62 -330 -91 -237 -105 -380 -197 -525 -338
-230 -221 -378 -471 -460 -774 -13 -50 -27 -109 -30 -131 -3 -23 -8 -52 -11
-65 -4 -14 -8 -108 -9 -210 -4 -251 26 -419 113 -635 169 -423 480 -733 927
-925 76 -33 267 -83 360 -95 28 -4 61 -8 75 -11 36 -5 277 -4 330 1 25 3 72
10 105 16 33 6 74 13 90 16 53 8 259 80 341 119 209 100 419 264 568 444 156
189 281 449 336 700 l19 85 1 -230 c0 -126 1 -629 0 -1117 0 -487 3 -894 6
-902 3 -9 12 -16 18 -16 7 0 102 93 212 207 109 114 219 228 244 253 165 171
469 487 491 511 14 16 31 29 37 29 5 0 57 -16 114 -34 57 -19 114 -37 128 -39
14 -3 43 -10 65 -16 22 -5 67 -13 99 -17 33 -3 69 -8 80 -10 27 -5 259 -5 311
1 36 4 60 7 150 21 130 21 352 101 487 177 457 257 762 707 836 1232 12 87 8
395 -7 475 -71 394 -244 712 -527 970 -56 52 -200 160 -212 160 -6 0 -12 3
-14 8 -5 11 -54 39 -163 91 -181 87 -317 126 -545 156 -40 6 -270 6 -315 1
-108 -13 -151 -20 -240 -42 -407 -100 -759 -353 -994 -714 -59 -90 -158 -300
-178 -375 -1 -5 -13 -53 -27 -105 -14 -52 -26 -106 -26 -119 0 -13 -3 -22 -6
-19 -3 4 -5 505 -5 1115 0 609 -2 1116 -5 1126 -3 9 -11 17 -18 17 -6 0 -97
-89 -202 -197z"/>
</g>
</svg>
