<svg xmlns="http://www.w3.org/2000/svg" width="12" height="12" fill="none" viewBox="0 0 12 12">
  <path fill="#000" fill-rule="evenodd" d="M2 2a.5.5 0 0 0-.5.5v5A.5.5 0 0 0 2 8h.5a.5.5 0 0 1 0 1H2A1.5 1.5 0 0 1 .5 7.5v-5A1.5 1.5 0 0 1 2 1h8a1.5 1.5 0 0 1 1.5 1.5v5A1.5 1.5 0 0 1 10 9h-.5a.5.5 0 0 1 0-1h.5a.5.5 0 0 0 .5-.5v-5A.5.5 0 0 0 10 2H2Z" clip-rule="evenodd"/>
  <path fill="#000" fill-rule="evenodd" d="M6 7a.5.5 0 0 1 .384.18l2.5 3A.5.5 0 0 1 8.5 11h-5a.5.5 0 0 1-.384-.82l2.5-3A.5.5 0 0 1 6 7Zm-1.432 3h2.864L6 8.281 4.568 10Z" clip-rule="evenodd"/>
</svg>
