<svg xmlns="http://www.w3.org/2000/svg" width="12" height="12" fill="none" viewBox="0 0 12 12">
  <path fill="#000" fill-rule="evenodd" d="M5.757 3.071a.5.5 0 0 1 .172.686L4.883 5.5H6a.5.5 0 0 1 .429.757l-1.5 2.5a.5.5 0 0 1-.858-.514L5.117 6.5H4a.5.5 0 0 1-.429-.757l1.5-2.5a.5.5 0 0 1 .686-.172ZM.94 3.44A1.5 1.5 0 0 1 2 3h1a.5.5 0 0 1 0 1H2a.5.5 0 0 0-.5.5v3A.5.5 0 0 0 2 8h.5a.5.5 0 0 1 0 1H2A1.5 1.5 0 0 1 .5 7.5v-3c0-.398.158-.78.44-1.06ZM7 3.5a.5.5 0 0 1 .5-.5H8a1.5 1.5 0 0 1 1.5 1.5v3A1.5 1.5 0 0 1 8 9H7a.5.5 0 1 1 0-1h1a.5.5 0 0 0 .5-.5v-3A.5.5 0 0 0 8 4h-.5a.5.5 0 0 1-.5-.5ZM11 5a.5.5 0 0 1 .5.5v1a.5.5 0 0 1-1 0v-1A.5.5 0 0 1 11 5Z" clip-rule="evenodd"/>
</svg>
