<svg xmlns="http://www.w3.org/2000/svg" width="12" height="12" fill="none" viewBox="0 0 12 12">
  <path fill="#000" fill-rule="evenodd" d="M5.809.538a.5.5 0 0 1 .545.108l2.5 2.5a.5.5 0 0 1 0 .708L6.707 6l2.147 2.146a.5.5 0 0 1 0 .708l-2.5 2.5A.5.5 0 0 1 5.5 11V7.207L3.854 8.854a.5.5 0 1 1-.708-.708L5.293 6 3.146 3.854a.5.5 0 1 1 .708-.708L5.5 4.793V1a.5.5 0 0 1 .309-.462Zm.691 6.67L7.793 8.5 6.5 9.793V7.207Zm0-2.415V2.207L7.793 3.5 6.5 4.793ZM1 6a.5.5 0 0 1 .5-.5H3a.5.5 0 0 1 0 1H1.5A.5.5 0 0 1 1 6Zm7.5 0a.5.5 0 0 1 .5-.5h1.5a.5.5 0 0 1 0 1H9a.5.5 0 0 1-.5-.5Z" clip-rule="evenodd"/>
</svg>
