<svg xmlns="http://www.w3.org/2000/svg" width="12" height="12" fill="none" viewBox="0 0 12 12">
  <path fill="#000" fill-rule="evenodd" d="M3 1.5a.5.5 0 0 0-.5.5v8a.5.5 0 0 0 .5.5h6a.5.5 0 0 0 .5-.5V2a.5.5 0 0 0-.5-.5H3ZM1.5 2A1.5 1.5 0 0 1 3 .5h6A1.5 1.5 0 0 1 10.5 2v8A1.5 1.5 0 0 1 9 11.5H3A1.5 1.5 0 0 1 1.5 10V2Zm2 1a.5.5 0 0 1 .5-.5h4a.5.5 0 0 1 0 1H4a.5.5 0 0 1-.5-.5Zm0 2a.5.5 0 0 1 .5-.5h.005a.5.5 0 0 1 0 1H4a.5.5 0 0 1-.5-.5Zm2 0a.5.5 0 0 1 .5-.5h.005a.5.5 0 0 1 0 1H6a.5.5 0 0 1-.5-.5Zm2 0a.5.5 0 0 1 .5-.5h.005a.5.5 0 0 1 0 1H8a.5.5 0 0 1-.5-.5Zm-4 2a.5.5 0 0 1 .5-.5h.005a.5.5 0 0 1 0 1H4a.5.5 0 0 1-.5-.5Zm2 0a.5.5 0 0 1 .5-.5h.005a.5.5 0 0 1 0 1H6a.5.5 0 0 1-.5-.5ZM8 6.5a.5.5 0 0 1 .5.5v2a.5.5 0 0 1-1 0V7a.5.5 0 0 1 .5-.5ZM3.5 9a.5.5 0 0 1 .5-.5h.005a.5.5 0 0 1 0 1H4a.5.5 0 0 1-.5-.5Zm2 0a.5.5 0 0 1 .5-.5h.005a.5.5 0 0 1 0 1H6a.5.5 0 0 1-.5-.5Z" clip-rule="evenodd"/>
</svg>
