<svg xmlns="http://www.w3.org/2000/svg" width="12" height="12" fill="none" viewBox="0 0 12 12">
  <path fill="#000" fill-rule="evenodd" d="M4.366 1.68a.5.5 0 0 1 .384-.18h2.5a.5.5 0 0 1 .384.18L8.734 3H10a1.5 1.5 0 0 1 1.5 1.5V9a1.5 1.5 0 0 1-1.5 1.5H2A1.5 1.5 0 0 1 .5 9V4.5A1.5 1.5 0 0 1 2 3h1.266l1.1-1.32Zm.618.82-1.1 1.32A.5.5 0 0 1 3.5 4H2a.5.5 0 0 0-.5.5V9a.5.5 0 0 0 .5.5h8a.5.5 0 0 0 .5-.5V4.5A.5.5 0 0 0 10 4H8.5a.5.5 0 0 1-.384-.18l-1.1-1.32H4.984ZM6 5.5a1 1 0 1 0 0 2 1 1 0 0 0 0-2Zm-2 1a2 2 0 1 1 4 0 2 2 0 0 1-4 0Z" clip-rule="evenodd"/>
</svg>
