<svg xmlns="http://www.w3.org/2000/svg" width="12" height="12" fill="none" viewBox="0 0 12 12">
  <path fill="#000" fill-rule="evenodd" d="M2.5 2a.5.5 0 0 0-.5.5v1a.5.5 0 0 1-1 0v-1A1.5 1.5 0 0 1 2.5 1h1a.5.5 0 0 1 0 1h-1ZM8 1.5a.5.5 0 0 1 .5-.5h1A1.5 1.5 0 0 1 11 2.5v1a.5.5 0 0 1-1 0v-1a.5.5 0 0 0-.5-.5h-1a.5.5 0 0 1-.5-.5ZM6 3a1 1 0 1 0 0 2 1 1 0 0 0 0-2ZM4 4a2 2 0 1 1 4 0 2 2 0 0 1-4 0Zm-.268 2.982A2.5 2.5 0 0 1 5.5 6.25h1A2.5 2.5 0 0 1 9 8.75a.5.5 0 0 1-1 0 1.5 1.5 0 0 0-1.5-1.5h-1A1.5 1.5 0 0 0 4 8.75a.5.5 0 0 1-1 0 2.5 2.5 0 0 1 .732-1.768ZM1.5 8a.5.5 0 0 1 .5.5v1a.5.5 0 0 0 .5.5h1a.5.5 0 0 1 0 1h-1A1.5 1.5 0 0 1 1 9.5v-1a.5.5 0 0 1 .5-.5Zm9 0a.5.5 0 0 1 .5.5v1A1.5 1.5 0 0 1 9.5 11h-1a.5.5 0 0 1 0-1h1a.5.5 0 0 0 .5-.5v-1a.5.5 0 0 1 .5-.5Z" clip-rule="evenodd"/>
</svg>
