<svg xmlns="http://www.w3.org/2000/svg" width="12" height="12" fill="none" viewBox="0 0 12 12">
  <path fill="#000" fill-rule="evenodd" d="M2 2.5a.5.5 0 0 0-.5.5v1a.5.5 0 0 1-1 0V3A1.5 1.5 0 0 1 2 1.5h8A1.5 1.5 0 0 1 11.5 3v6a1.5 1.5 0 0 1-1.5 1.5H7a.5.5 0 0 1 0-1h3a.5.5 0 0 0 .5-.5V3a.5.5 0 0 0-.5-.5H2Z" clip-rule="evenodd"/>
  <path fill="#000" fill-rule="evenodd" d="M.503 5.947a.5.5 0 0 1 .55-.444 5 5 0 0 1 4.444 4.444.5.5 0 0 1-.994.106A4 4 0 0 0 .947 6.497a.5.5 0 0 1-.444-.55Z" clip-rule="evenodd"/>
  <path fill="#000" fill-rule="evenodd" d="M.508 7.908a.5.5 0 0 1 .584-.4 3 3 0 0 1 2.4 2.4.5.5 0 0 1-.984.184 2 2 0 0 0-1.6-1.6.5.5 0 0 1-.4-.584ZM.5 10a.5.5 0 0 1 .5-.5h.005a.5.5 0 0 1 0 1H1a.5.5 0 0 1-.5-.5Z" clip-rule="evenodd"/>
</svg>
