<svg xmlns="http://www.w3.org/2000/svg" width="12" height="12" fill="none" viewBox="0 0 12 12">
  <path fill="#000" fill-rule="evenodd" d="M1.946.946A1.49 1.49 0 0 1 3 .5h4.25a.5.5 0 0 1 .354.146l2.75 2.75a.5.5 0 0 1 .146.354V10c0 .387-.156.763-.446 1.054A1.49 1.49 0 0 1 9 11.5h-.25a.5.5 0 0 1 0-1H9a.488.488 0 0 0 .346-.154A.488.488 0 0 0 9.5 10V3.957L7.043 1.5H3a.488.488 0 0 0-.346.154A.488.488 0 0 0 2.5 2v1.5a.5.5 0 0 1-1 0V2c0-.387.156-.763.446-1.054Z" clip-rule="evenodd"/>
  <path fill="#000" fill-rule="evenodd" d="M7 .5a.5.5 0 0 1 .5.5v2.5H10a.5.5 0 0 1 0 1H7a.5.5 0 0 1-.5-.5V1A.5.5 0 0 1 7 .5ZM6 9a.5.5 0 0 0-.5.5v.5a.5.5 0 0 0 1 0v-.5A.5.5 0 0 0 6 9Zm-1.06-.56A1.5 1.5 0 0 1 7.5 9.5v.5a1.5 1.5 0 0 1-3 0v-.5c0-.398.158-.78.44-1.06Zm-4 0A1.5 1.5 0 0 1 3.5 9.5v.5a1.5 1.5 0 0 1-3 0v-.5c0-.398.158-.78.44-1.06ZM2 9a.5.5 0 0 0-.5.5v.5a.5.5 0 0 0 1 0v-.5A.5.5 0 0 0 2 9Z" clip-rule="evenodd"/>
  <path fill="#000" fill-rule="evenodd" d="M4 5.5A2.5 2.5 0 0 0 1.5 8v1.5a.5.5 0 0 1-1 0V8a3.5 3.5 0 1 1 7 0v1.5a.5.5 0 0 1-1 0V8A2.5 2.5 0 0 0 4 5.5Z" clip-rule="evenodd"/>
</svg>
