<svg xmlns="http://www.w3.org/2000/svg" width="12" height="12" fill="none" viewBox="0 0 12 12">
  <g clip-path="url(#a)">
    <path fill="#000" fill-rule="evenodd" d="M2.09 1.5a.59.59 0 0 0-.59.59v7.82c0 .326.264.59.59.59h7.82a.59.59 0 0 0 .59-.59V2.09a.59.59 0 0 0-.59-.59H2.09ZM.5 2.09C.5 1.212 1.212.5 2.09.5h7.82c.878 0 1.59.712 1.59 1.59v7.82a1.59 1.59 0 0 1-1.59 1.59H2.09A1.59 1.59 0 0 1 .5 9.91V2.09Z" clip-rule="evenodd"/>
    <path fill="#000" fill-rule="evenodd" d="M3.5.5A.5.5 0 0 1 4 1v10a.5.5 0 0 1-1 0V1a.5.5 0 0 1 .5-.5Zm5 0A.5.5 0 0 1 9 1v10a.5.5 0 0 1-1 0V1a.5.5 0 0 1 .5-.5Z" clip-rule="evenodd"/>
    <path fill="#000" fill-rule="evenodd" d="M.5 6a.5.5 0 0 1 .5-.5h10a.5.5 0 0 1 0 1H1A.5.5 0 0 1 .5 6Zm0-2.5A.5.5 0 0 1 1 3h2.5a.5.5 0 0 1 0 1H1a.5.5 0 0 1-.5-.5Zm0 5A.5.5 0 0 1 1 8h2.5a.5.5 0 0 1 0 1H1a.5.5 0 0 1-.5-.5Zm7.5 0a.5.5 0 0 1 .5-.5H11a.5.5 0 0 1 0 1H8.5a.5.5 0 0 1-.5-.5Zm0-5a.5.5 0 0 1 .5-.5H11a.5.5 0 0 1 0 1H8.5a.5.5 0 0 1-.5-.5Z" clip-rule="evenodd"/>
  </g>
  <defs>
    <clipPath id="a">
      <path fill="#fff" d="M0 0h12v12H0z"/>
    </clipPath>
  </defs>
</svg>
