<svg xmlns="http://www.w3.org/2000/svg" width="12" height="12" fill="none" viewBox="0 0 12 12">
  <g clip-path="url(#a)">
    <path fill="#000" fill-rule="evenodd" d="M1.737 1.94a.5.5 0 0 0-.46-.887L1.5 1.5l-.224-.447h-.002l-.002.002-.006.003-.013.007a.934.934 0 0 0-.131.086 1.46 1.46 0 0 0-.262.255C.669 1.645.5 2.004.5 2.5v5A1.5 1.5 0 0 0 2 9h6.5a.5.5 0 0 0 0-1H2a.5.5 0 0 1-.5-.5v-5c0-.254.081-.395.14-.469a.46.46 0 0 1 .097-.09ZM4 1.5a.5.5 0 0 1 .5-.5H10a1.5 1.5 0 0 1 1.5 1.5v5a.5.5 0 0 1-1 0v-5A.5.5 0 0 0 10 2H4.5a.5.5 0 0 1-.5-.5Zm-.5 9A.5.5 0 0 1 4 10h4a.5.5 0 0 1 0 1H4a.5.5 0 0 1-.5-.5Z" clip-rule="evenodd"/>
    <path fill="#000" fill-rule="evenodd" d="M6 8a.5.5 0 0 1 .5.5v2a.5.5 0 0 1-1 0v-2A.5.5 0 0 1 6 8ZM.646.646a.5.5 0 0 1 .708 0l10 10a.5.5 0 0 1-.708.708l-10-10a.5.5 0 0 1 0-.708Z" clip-rule="evenodd"/>
  </g>
  <defs>
    <clipPath id="a">
      <path fill="#fff" d="M0 0h12v12H0z"/>
    </clipPath>
  </defs>
</svg>
