<svg xmlns="http://www.w3.org/2000/svg" width="12" height="12" fill="none" viewBox="0 0 12 12">
  <path fill="#000" fill-rule="evenodd" d="M6 8a.5.5 0 0 1 .5.5V11a.5.5 0 0 1-1 0V8.5A.5.5 0 0 1 6 8ZM4.5.5A.5.5 0 0 1 5 1v2.5a.5.5 0 0 1-1 0V1a.5.5 0 0 1 .5-.5Zm3 0A.5.5 0 0 1 8 1v2.5a.5.5 0 0 1-1 0V1a.5.5 0 0 1 .5-.5Z" clip-rule="evenodd"/>
  <path fill="#000" fill-rule="evenodd" d="M2.5 4a.5.5 0 0 1 .5-.5h6a.5.5 0 0 1 .5.5v2.5A2.5 2.5 0 0 1 7 9H5a2.5 2.5 0 0 1-2.5-2.5V4Zm1 .5v2A1.5 1.5 0 0 0 5 8h2a1.5 1.5 0 0 0 1.5-1.5v-2h-5Z" clip-rule="evenodd"/>
</svg>
