<svg xmlns="http://www.w3.org/2000/svg" width="12" height="12" fill="none" viewBox="0 0 12 12">
  <g clip-path="url(#a)">
    <path fill="#000" fill-rule="evenodd" d="M2.5 1A.5.5 0 0 1 3 .5h6a.5.5 0 0 1 .5.5v3h.5a1.5 1.5 0 0 1 1.5 1.5V8A1.5 1.5 0 0 1 10 9.5h-.5V11a.5.5 0 0 1-.5.5H3a.5.5 0 0 1-.5-.5V9.5H2A1.5 1.5 0 0 1 .5 8V5.5A1.5 1.5 0 0 1 2 4h.5V1ZM2 5a.5.5 0 0 0-.5.5V8a.5.5 0 0 0 .5.5h.5V7a.5.5 0 0 1 .5-.5h6a.5.5 0 0 1 .5.5v1.5h.5a.5.5 0 0 0 .5-.5V5.5A.5.5 0 0 0 10 5H2Zm6.5-1h-5V1.5h5V4Zm0 3.5h-5v3h5v-3Z" clip-rule="evenodd"/>
  </g>
  <defs>
    <clipPath id="a">
      <path fill="#fff" d="M0 0h12v12H0z"/>
    </clipPath>
  </defs>
</svg>
