<svg xmlns="http://www.w3.org/2000/svg" width="12" height="12" fill="none" viewBox="0 0 12 12">
  <path fill="#000" fill-rule="evenodd" d="M.94 1.44A1.5 1.5 0 0 1 2 1h4.5a.5.5 0 0 1 0 1H2a.5.5 0 0 0-.5.5v5A.5.5 0 0 0 2 8h8a.5.5 0 0 0 .5-.5V6a.5.5 0 0 1 1 0v1.5A1.5 1.5 0 0 1 10 9H2A1.5 1.5 0 0 1 .5 7.5v-5c0-.398.158-.78.44-1.06ZM3.5 10.5A.5.5 0 0 1 4 10h4a.5.5 0 0 1 0 1H4a.5.5 0 0 1-.5-.5Z" clip-rule="evenodd"/>
  <path fill="#000" fill-rule="evenodd" d="M6 8a.5.5 0 0 1 .5.5v2a.5.5 0 0 1-1 0v-2A.5.5 0 0 1 6 8Zm5.354-6.854a.5.5 0 0 1 0 .708l-2.5 2.5a.5.5 0 1 1-.708-.708l2.5-2.5a.5.5 0 0 1 .708 0Z" clip-rule="evenodd"/>
  <path fill="#000" fill-rule="evenodd" d="M8.146 1.146a.5.5 0 0 1 .708 0l2.5 2.5a.5.5 0 0 1-.708.708l-2.5-2.5a.5.5 0 0 1 0-.708Z" clip-rule="evenodd"/>
</svg>
