<svg xmlns="http://www.w3.org/2000/svg" width="12" height="12" fill="none" viewBox="0 0 12 12">
  <path fill="#000" fill-rule="evenodd" d="M.5 2.5A1.5 1.5 0 0 1 2 1h8a1.5 1.5 0 0 1 1.5 1.5v5A1.5 1.5 0 0 1 10 9H2A1.5 1.5 0 0 1 .5 7.5v-5ZM2 2a.5.5 0 0 0-.5.5v5A.5.5 0 0 0 2 8h8a.5.5 0 0 0 .5-.5v-5A.5.5 0 0 0 10 2H2Zm4.98.813a.5.5 0 0 1 .707 0l1.111 1.111a.5.5 0 0 1 0 .707L7.687 5.742a.5.5 0 0 1-.707-.707l.257-.257H5.111a.389.389 0 0 0-.389.389v1.555a.5.5 0 0 1-1 0V5.167a1.389 1.389 0 0 1 1.39-1.389h2.125L6.98 3.52a.5.5 0 0 1 0-.707ZM.5 10.5A.5.5 0 0 1 1 10h10a.5.5 0 0 1 0 1H1a.5.5 0 0 1-.5-.5Z" clip-rule="evenodd"/>
</svg>
