<svg xmlns="http://www.w3.org/2000/svg" width="12" height="12" fill="none" viewBox="0 0 12 12">
  <path fill="#000" fill-rule="evenodd" d="M3.5 1.5A.5.5 0 0 0 3 2v8a.5.5 0 0 0 .5.5h5A.5.5 0 0 0 9 10V2a.5.5 0 0 0-.5-.5h-5ZM2 2A1.5 1.5 0 0 1 3.5.5h5A1.5 1.5 0 0 1 10 2v8a1.5 1.5 0 0 1-1.5 1.5h-5A1.5 1.5 0 0 1 2 10V2Z" clip-rule="evenodd"/>
  <path fill="#000" fill-rule="evenodd" d="M6.61 3.584a.5.5 0 0 1 .14.693L5.934 5.5H7a.5.5 0 0 1 .416.777l-1.333 2a.5.5 0 0 1-.833-.554L6.066 6.5H5a.5.5 0 0 1-.416-.777l1.333-2a.5.5 0 0 1 .694-.139Z" clip-rule="evenodd"/>
</svg>
