<svg xmlns="http://www.w3.org/2000/svg" width="12" height="12" fill="none" viewBox="0 0 12 12">
  <path fill="#000" fill-rule="evenodd" d="M3 1.5a.5.5 0 0 0-.5.5v8a.5.5 0 0 0 .5.5h6a.5.5 0 0 0 .5-.5V2a.5.5 0 0 0-.5-.5H3ZM1.5 2A1.5 1.5 0 0 1 3 .5h6A1.5 1.5 0 0 1 10.5 2v8A1.5 1.5 0 0 1 9 11.5H3A1.5 1.5 0 0 1 1.5 10V2Z" clip-rule="evenodd"/>
  <path fill="#000" fill-rule="evenodd" d="M6 5.5a1.5 1.5 0 1 0 0 3 1.5 1.5 0 0 0 0-3ZM3.5 7a2.5 2.5 0 1 1 5 0 2.5 2.5 0 0 1-5 0Zm2-4a.5.5 0 0 1 .5-.5h.005a.5.5 0 0 1 0 1H6a.5.5 0 0 1-.5-.5Z" clip-rule="evenodd"/>
</svg>
