<svg xmlns="http://www.w3.org/2000/svg" width="12" height="12" fill="none" viewBox="0 0 12 12">
  <path fill="#000" fill-rule="evenodd" d="M1 10a1 1 0 1 1 2 0 1 1 0 0 1-2 0Zm3-6.5a1 1 0 1 1 2 0 1 1 0 0 1-2 0Z" clip-rule="evenodd"/>
  <path fill="#000" fill-rule="evenodd" d="M9.854 2.146a.5.5 0 0 1 0 .708l-7.5 7.5a.5.5 0 0 1-.708-.708l7.5-7.5a.5.5 0 0 1 .708 0Z" clip-rule="evenodd"/>
  <path fill="#000" fill-rule="evenodd" d="M10.854 1.146a.5.5 0 0 1 .12.512l-.5 1.5a.5.5 0 0 1-.828.196l-1-1a.5.5 0 0 1 .196-.828l1.5-.5a.5.5 0 0 1 .512.12Zm-5.5 2a.5.5 0 0 1 0 .708L3.087 6.12l.877 2.194a.5.5 0 0 1-.928.372l-1-2.5a.5.5 0 0 1 .11-.54l2.5-2.5a.5.5 0 0 1 .708 0Z" clip-rule="evenodd"/>
  <path fill="#000" fill-rule="evenodd" d="M9.854 5.646a.5.5 0 0 1 0 .708l-2 2a.5.5 0 0 1-.54.11l-2.5-1a.5.5 0 0 1 .372-.928l2.194.877 1.766-1.767a.5.5 0 0 1 .708 0Z" clip-rule="evenodd"/>
  <path fill="#000" fill-rule="evenodd" d="M9.146 5.146a.5.5 0 0 1 .708 0l.5.5a.5.5 0 0 1 0 .708l-.5.5a.5.5 0 0 1-.708 0l-.5-.5a.5.5 0 0 1 0-.708l.5-.5Z" clip-rule="evenodd"/>
</svg>
