<svg xmlns="http://www.w3.org/2000/svg" width="12" height="12" fill="none" viewBox="0 0 12 12">
  <path fill="#000" fill-rule="evenodd" d="M9.181 2.111a.5.5 0 0 1 .708 0 5.5 5.5 0 0 1 0 7.777.5.5 0 1 1-.708-.707 4.5 4.5 0 0 0 0-6.363.5.5 0 0 1 0-.707ZM5.717 2.05A.5.5 0 0 1 6 2.5v7a.5.5 0 0 1-.812.39L2.825 8H1a.5.5 0 0 1-.5-.5v-3A.5.5 0 0 1 1 4h1.825l2.363-1.89a.5.5 0 0 1 .529-.06ZM5 3.54 3.312 4.89A.5.5 0 0 1 3 5H1.5v2H3a.5.5 0 0 1 .312.11L5 8.46V3.54Zm2.417.336a.5.5 0 0 1 .707 0 3 3 0 0 1 0 4.242.5.5 0 0 1-.708-.707 2 2 0 0 0 0-2.828.5.5 0 0 1 0-.707Z" clip-rule="evenodd"/>
</svg>
