<svg xmlns="http://www.w3.org/2000/svg" width="12" height="12" fill="none" viewBox="0 0 12 12">
  <path fill="#000" fill-rule="evenodd" d="M6 1.5a3.5 3.5 0 1 0 0 7 3.5 3.5 0 0 0 0-7ZM1.5 5a4.5 4.5 0 1 1 9 0 4.5 4.5 0 0 1-9 0Z" clip-rule="evenodd"/>
  <path fill="#000" fill-rule="evenodd" d="M6 4a1 1 0 1 0 0 2 1 1 0 0 0 0-2ZM4 5a2 2 0 1 1 4 0 2 2 0 0 1-4 0Zm-1 6a.5.5 0 0 1 .5-.5h5a.5.5 0 0 1 0 1h-5A.5.5 0 0 1 3 11Z" clip-rule="evenodd"/>
  <path fill="#000" fill-rule="evenodd" d="M6 8.5a.5.5 0 0 1 .5.5v2a.5.5 0 0 1-1 0V9a.5.5 0 0 1 .5-.5Z" clip-rule="evenodd"/>
</svg>
