<svg xmlns="http://www.w3.org/2000/svg" width="12" height="12" fill="none" viewBox="0 0 12 12">
  <g clip-path="url(#a)">
    <path fill="#000" fill-rule="evenodd" d="M6.699.541a.5.5 0 0 1 .297.52l-.295 2.376a.5.5 0 0 1-.992-.124l.085-.683-.125.15a.5.5 0 0 1-.768-.64L6.116.68a.5.5 0 0 1 .583-.139ZM7.33 5a.5.5 0 0 1 .5-.5h2.67a.5.5 0 0 1 .384.82L9.669 6.775a.5.5 0 0 1-.768-.64l.53-.635H7.83a.5.5 0 0 1-.5-.5ZM4.32 3.616a.5.5 0 0 1 .064.704L2.568 6.5H6a.5.5 0 0 1 .496.562L6.208 9.37l1.408-1.69a.5.5 0 1 1 .768.64l-2.5 3a.5.5 0 0 1-.88-.382l.43-3.438H1.5a.5.5 0 0 1-.384-.82l2.5-3a.5.5 0 0 1 .704-.064Z" clip-rule="evenodd"/>
    <path fill="#000" fill-rule="evenodd" d="M.646.646a.5.5 0 0 1 .708 0l10 10a.5.5 0 0 1-.708.708l-10-10a.5.5 0 0 1 0-.708Z" clip-rule="evenodd"/>
  </g>
  <defs>
    <clipPath id="a">
      <path fill="#fff" d="M0 0h12v12H0z"/>
    </clipPath>
  </defs>
</svg>
