<svg xmlns="http://www.w3.org/2000/svg" width="12" height="12" fill="none" viewBox="0 0 12 12">
  <path fill="#000" fill-rule="evenodd" d="M2.5 2a.5.5 0 0 0-.5.5V4a.5.5 0 0 1-1 0V2.5A1.5 1.5 0 0 1 2.5 1h7A1.5 1.5 0 0 1 11 2.5v7A1.5 1.5 0 0 1 9.5 11h-7A1.5 1.5 0 0 1 1 9.5V8a.5.5 0 0 1 1 0v1.5a.5.5 0 0 0 .5.5h7a.5.5 0 0 0 .5-.5v-7a.5.5 0 0 0-.5-.5h-7Zm3.455 1.838a.5.5 0 0 1 .707 0L8.47 5.646a.5.5 0 0 1 0 .708L6.662 8.162a.5.5 0 1 1-.707-.707l.954-.955H.5a.5.5 0 0 1 0-1h6.41l-.955-.955a.5.5 0 0 1 0-.707Z" clip-rule="evenodd"/>
</svg>
