<svg xmlns="http://www.w3.org/2000/svg" width="12" height="12" fill="none" viewBox="0 0 12 12">
  <g clip-path="url(#a)">
    <path fill="#000" fill-rule="evenodd" d="M6 1.5a4.5 4.5 0 0 0-3.516 7.309l6.325-6.325A4.481 4.481 0 0 0 6 1.5Zm3.52.273A5.5 5.5 0 0 0 1.774 9.52L.645 10.647a.5.5 0 0 0 .708.708l1.126-1.127a5.5 5.5 0 0 0 7.746-7.746l1.128-1.127a.5.5 0 0 0-.708-.708L9.52 1.773Zm-.004 1.418L3.191 9.516a4.5 4.5 0 0 0 6.325-6.325Z" clip-rule="evenodd"/>
  </g>
  <defs>
    <clipPath id="a">
      <path fill="#fff" d="M0 0h12v12H0z"/>
    </clipPath>
  </defs>
</svg>
