<svg xmlns="http://www.w3.org/2000/svg" width="12" height="12" fill="none" viewBox="0 0 12 12">
  <g clip-path="url(#a)">
    <path fill="#000" fill-rule="evenodd" d="M4.146 2.146A.5.5 0 0 1 4.5 2H10a1.5 1.5 0 0 1 1.5 1.5v5A1.5 1.5 0 0 1 10 10H4.5a.5.5 0 0 1-.353-.146l-3.5-3.5a.5.5 0 0 1 0-.708l3.5-3.5ZM4.707 3l-3 3 3 3H10a.5.5 0 0 0 .5-.5v-5A.5.5 0 0 0 10 3H4.707Z" clip-rule="evenodd"/>
    <path fill="#000" fill-rule="evenodd" d="M9.354 4.146a.5.5 0 0 1 0 .707l-3 3a.5.5 0 1 1-.708-.707l3-3a.5.5 0 0 1 .708 0Z" clip-rule="evenodd"/>
    <path fill="#000" fill-rule="evenodd" d="M5.646 4.146a.5.5 0 0 1 .708 0l3 3a.5.5 0 0 1-.708.707l-3-3a.5.5 0 0 1 0-.707Z" clip-rule="evenodd"/>
  </g>
  <defs>
    <clipPath id="a">
      <path fill="#fff" d="M0 0h12v12H0z"/>
    </clipPath>
  </defs>
</svg>
