<svg xmlns="http://www.w3.org/2000/svg" width="12" height="12" fill="none" viewBox="0 0 12 12">
  <path fill="#000" fill-rule="evenodd" d="M7.146 7.146a.5.5 0 0 1 .708 0L10 9.293V8.1a.5.5 0 0 1 1 0v2.4a.5.5 0 0 1-.144.351l-.005.005A.499.499 0 0 1 10.5 11H8.1a.5.5 0 0 1 0-1h1.193L7.146 7.854a.5.5 0 0 1 0-.708Zm-2.292 0a.5.5 0 0 1 0 .708L2.707 10H3.9a.5.5 0 0 1 0 1H1.5a.5.5 0 0 1-.351-.144l-.005-.005A.498.498 0 0 1 1 10.5V8.1a.5.5 0 0 1 1 0v1.193l2.146-2.147a.5.5 0 0 1 .708 0Zm-3.708 3-.002.003ZM7.6 1.5a.5.5 0 0 1 .5-.5h2.4a.499.499 0 0 1 .351.144l.005.005A.5.5 0 0 1 11 1.5v2.4a.5.5 0 0 1-1 0V2.707L7.854 4.854a.5.5 0 1 1-.708-.708L9.293 2H8.1a.5.5 0 0 1-.5-.5Z" clip-rule="evenodd"/>
</svg>
