<svg xmlns="http://www.w3.org/2000/svg" width="12" height="12" fill="none" viewBox="0 0 12 12">
  <g clip-path="url(#a)">
    <path fill="#000" fill-rule="evenodd" d="M5.306 4.6a.5.5 0 0 1-.025.706 1 1 0 1 0 1.413 1.413.5.5 0 0 1 .732.682A2 2 0 1 1 4.6 4.574a.5.5 0 0 1 .707.025ZM6 2c1.934 0 3.308.971 4.179 1.91a7.688 7.688 0 0 1 1.197 1.716 4.737 4.737 0 0 1 .077.16l.004.011.002.004v.001L11 6l.46-.197a.5.5 0 0 1-.007.409c-.24.515-.542.999-.898 1.441a.5.5 0 1 1-.78-.626c.257-.32.481-.664.669-1.028a6.694 6.694 0 0 0-.997-1.409C8.692 3.78 7.566 3 6 3c-.192 0-.384.012-.574.036a.5.5 0 1 1-.124-.992A5.73 5.73 0 0 1 6 2Z" clip-rule="evenodd"/>
    <path fill="#000" fill-rule="evenodd" d="M3.718 3.023a.5.5 0 0 1-.131.695 6.263 6.263 0 0 0-2.03 2.284 6.694 6.694 0 0 0 .997 1.408C3.308 8.22 4.434 9 6 9h.001a4.37 4.37 0 0 0 2.419-.722.5.5 0 0 1 .55.834A5.37 5.37 0 0 1 6 10c-1.934 0-3.308-.972-4.179-1.91A7.693 7.693 0 0 1 .624 6.374a4.517 4.517 0 0 1-.076-.16l-.005-.011-.002-.004v-.001s.015-.173.119-.36l-.112-.052a7.263 7.263 0 0 1 2.476-2.894.5.5 0 0 1 .694.131ZM6 10v-.5.5Z" clip-rule="evenodd"/>
    <path fill="#000" fill-rule="evenodd" d="M.646.646a.5.5 0 0 1 .708 0l10 10a.5.5 0 0 1-.708.708l-10-10a.5.5 0 0 1 0-.708Z" clip-rule="evenodd"/>
  </g>
  <defs>
    <clipPath id="a">
      <path fill="#fff" d="M0 0h12v12H0z"/>
    </clipPath>
  </defs>
</svg>
