<svg xmlns="http://www.w3.org/2000/svg" width="12" height="12" fill="none" viewBox="0 0 12 12">
  <path fill="#000" fill-rule="evenodd" d="M1.556 6a6.694 6.694 0 0 0 .998 1.41C3.308 8.22 4.434 9 6 9c1.566 0 2.692-.779 3.446-1.59A6.694 6.694 0 0 0 10.444 6a6.694 6.694 0 0 0-.998-1.41C8.692 3.78 7.566 3 6 3c-1.566 0-2.692.779-3.446 1.59A6.694 6.694 0 0 0 1.556 6ZM11 6l.46-.197-.001-.002-.002-.004-.005-.01a2.386 2.386 0 0 0-.076-.161 7.694 7.694 0 0 0-1.197-1.716C9.308 2.97 7.934 2 6 2c-1.934 0-3.308.971-4.179 1.91A7.694 7.694 0 0 0 .624 5.626a4.517 4.517 0 0 0-.076.16l-.005.011-.002.004v.001L1 6l-.46-.197a.5.5 0 0 0 0 .394L1 6l-.46.197.001.002.002.004.005.01a2.746 2.746 0 0 0 .076.161A7.694 7.694 0 0 0 1.821 8.09C2.692 9.03 4.066 10 6 10c1.934 0 3.308-.971 4.179-1.91a7.694 7.694 0 0 0 1.197-1.716 4.436 4.436 0 0 0 .077-.16l.004-.011.002-.004v-.001L11 6Zm0 0 .46.197a.501.501 0 0 0 0-.394L11 6Z" clip-rule="evenodd"/>
  <path fill="#000" fill-rule="evenodd" d="M6 5a1 1 0 1 0 0 2 1 1 0 0 0 0-2ZM4 6a2 2 0 1 1 4 0 2 2 0 0 1-4 0Z" clip-rule="evenodd"/>
</svg>
