<svg xmlns="http://www.w3.org/2000/svg" width="12" height="12" fill="none" viewBox="0 0 12 12">
  <g clip-path="url(#a)">
    <path fill="#000" fill-rule="evenodd" d="M6.28 2.051a.5.5 0 0 1 .527.054l4.5 3.5a.5.5 0 0 1 0 .79l-4.5 3.5A.5.5 0 0 1 6 9.5v-7a.5.5 0 0 1 .28-.449ZM7 3.522v4.956L10.186 6 7 3.522Z" clip-rule="evenodd"/>
    <path fill="#000" fill-rule="evenodd" d="M.78 2.051a.5.5 0 0 1 .527.054l4.5 3.5a.5.5 0 0 1 0 .79l-4.5 3.5A.5.5 0 0 1 .5 9.5v-7a.5.5 0 0 1 .28-.449Zm.72 1.471v4.956L4.686 6 1.5 3.522Z" clip-rule="evenodd"/>
  </g>
  <defs>
    <clipPath id="a">
      <path fill="#fff" d="M0 0h12v12H0z"/>
    </clipPath>
  </defs>
</svg>
