<svg xmlns="http://www.w3.org/2000/svg" width="12" height="12" fill="none" viewBox="0 0 12 12">
  <g clip-path="url(#a)">
    <path fill="#000" fill-rule="evenodd" d="M.547 1.29A.5.5 0 0 1 1 1h10a.5.5 0 0 1 .382.823L7.5 6.413V10.5a.5.5 0 0 1-.723.447l-2-1A.5.5 0 0 1 4.5 9.5V6.413L.618 1.823a.5.5 0 0 1-.071-.533Zm1.53.71 3.305 3.907a.5.5 0 0 1 .118.323v2.961l1 .5v-3.46a.5.5 0 0 1 .118-.324L9.923 2H2.078Z" clip-rule="evenodd"/>
  </g>
  <defs>
    <clipPath id="a">
      <path fill="#fff" d="M0 0h12v12H0z"/>
    </clipPath>
  </defs>
</svg>
