<svg xmlns="http://www.w3.org/2000/svg" width="12" height="12" fill="none" viewBox="0 0 12 12">
  <g clip-path="url(#a)">
    <path fill="#000" fill-rule="evenodd" d="M7.87.517a.5.5 0 0 1 .61.34l3 10a.5.5 0 0 1-.623.622l-10-3a.5.5 0 0 1-.34-.608 10.429 10.429 0 0 1 2.69-4.664A10.438 10.438 0 0 1 7.871.516ZM3.915 3.914a9.438 9.438 0 0 0-2.293 3.75l1.01.304c.407-1.345 1-2.484 1.874-3.39.88-.911 2.015-1.558 3.46-1.957l-.3-1a9.444 9.444 0 0 0-3.751 2.293Zm4.338-.335c-1.313.359-2.289.928-3.027 1.693-.735.762-1.262 1.747-1.635 2.983l6.665 2-2.003-6.676ZM7 5.5a.5.5 0 0 1 .5-.5h.005a.5.5 0 1 1 0 1H7.5a.5.5 0 0 1-.5-.5Zm-2 2a.5.5 0 0 1 .5-.5h.005a.5.5 0 1 1 0 1H5.5a.5.5 0 0 1-.5-.5Zm2.5.5a.5.5 0 0 1 .5-.5h.005a.5.5 0 1 1 0 1H8a.5.5 0 0 1-.5-.5Z" clip-rule="evenodd"/>
  </g>
  <defs>
    <clipPath id="a">
      <path fill="#fff" d="M0 0h12v12H0z"/>
    </clipPath>
  </defs>
</svg>
