<svg xmlns="http://www.w3.org/2000/svg" width="12" height="12" fill="none" viewBox="0 0 12 12">
  <path fill="#000" fill-rule="evenodd" d="M2.475 1.24a3.2 3.2 0 0 1 3.494.697l.002.002.029.03.03-.03v-.002a3.2 3.2 0 0 1 4.534 0c1.272 1.273 1.3 3.377-.207 4.913l-.003.004-4 4a.5.5 0 0 1-.708 0L1.643 6.85C.135 5.314.163 3.21 1.436 1.937a3.2 3.2 0 0 1 1.04-.697Zm1.228.756a2.2 2.2 0 0 0-1.559.647c-.847.847-.95 2.322.211 3.505L6 9.793l3.645-3.645c1.16-1.183 1.058-2.658.211-3.504a2.204 2.204 0 0 0-2.402-.48 2.2 2.2 0 0 0-.714.478l-.384.39a.5.5 0 0 1-.712 0l-.383-.39a2.2 2.2 0 0 0-1.558-.646Z" clip-rule="evenodd"/>
</svg>
