<svg xmlns="http://www.w3.org/2000/svg" width="12" height="12" fill="none" viewBox="0 0 12 12">
  <path fill="#000" fill-rule="evenodd" d="M1.5 1a.5.5 0 0 1 .5.5v2h2a.5.5 0 1 1 0 1H1.5A.5.5 0 0 1 1 4V1.5a.5.5 0 0 1 .5-.5Z" clip-rule="evenodd"/>
  <path fill="#000" fill-rule="evenodd" d="M5.685 1.016a5 5 0 1 1-4.657 5.539.5.5 0 1 1 .994-.11 4 4 0 1 0 1.312-3.423l-1.5 1.35a.5.5 0 1 1-.668-.744l1.501-1.35a5 5 0 0 1 3.018-1.262Z" clip-rule="evenodd"/>
  <path fill="#000" fill-rule="evenodd" d="M6 3a.5.5 0 0 1 .5.5v2.191l1.724.862a.5.5 0 0 1-.447.894l-2-1A.5.5 0 0 1 5.5 6V3.5A.5.5 0 0 1 6 3Z" clip-rule="evenodd"/>
</svg>
