<svg xmlns="http://www.w3.org/2000/svg" width="12" height="12" fill="none" viewBox="0 0 12 12">
  <path fill="#000" fill-rule="evenodd" d="M1 1.5a.5.5 0 0 1 .5-.5H5a.5.5 0 0 1 .5.5V5a.5.5 0 0 1-.5.5H1.5A.5.5 0 0 1 1 5V1.5ZM2 2v2.5h2.5V2H2Zm4.5-.5A.5.5 0 0 1 7 1h3.5a.5.5 0 0 1 .5.5V5a.5.5 0 0 1-.5.5H7a.5.5 0 0 1-.5-.5V1.5Zm1 .5v2.5H10V2H7.5Zm-1 5a.5.5 0 0 1 .5-.5h3.5a.5.5 0 0 1 .5.5v3.5a.5.5 0 0 1-.5.5H7a.5.5 0 0 1-.5-.5V7Zm1 .5V10H10V7.5H7.5ZM1 7a.5.5 0 0 1 .5-.5H5a.5.5 0 0 1 .5.5v3.5a.5.5 0 0 1-.5.5H1.5a.5.5 0 0 1-.5-.5V7Zm1 .5V10h2.5V7.5H2Z" clip-rule="evenodd"/>
</svg>
