<svg xmlns="http://www.w3.org/2000/svg" width="12" height="12" fill="none" viewBox="0 0 12 12">
  <path fill="#000" fill-rule="evenodd" d="M8 2a2.5 2.5 0 0 0-2.49 2.27.5.5 0 1 1-.995-.09 3.5 3.5 0 0 1 6.985.32c0 1.01-.393 1.801-.792 2.346a4.93 4.93 0 0 1-.766.827l-.063.055-.017.015c-.096.095-.247.201-.352.275l-.025.017c-.141.1-.224.16-.255.191l-.104.101a24.957 24.957 0 0 0-.177.174 1.201 1.201 0 0 0-.186.23 2.787 2.787 0 0 0-.132.431c-.043.178-.078.345-.093.418l-.005.02a1.7 1.7 0 0 1-.421.782C7.79 10.726 7.275 11 6.5 11c-.462 0-.843-.117-1.144-.318a1.817 1.817 0 0 1-.616-.708 2.343 2.343 0 0 1-.24-.94V9H5h-.5a.5.5 0 0 1 1 0v-.004V9a1.34 1.34 0 0 0 .017.153c.018.108.053.244.118.374a.818.818 0 0 0 .275.324c.12.08.303.15.59.15.515 0 .76-.172.882-.302a.763.763 0 0 0 .173-.304c0-.005.002-.01.004-.018.015-.072.053-.256.102-.453.048-.196.123-.478.214-.653a2.15 2.15 0 0 1 .355-.464 9.7 9.7 0 0 1 .233-.228l.06-.059a3.023 3.023 0 0 1 .387-.302l.004-.003a7.671 7.671 0 0 0 .222-.162.557.557 0 0 0 .017-.014l.005-.005c.02-.02.052-.048.091-.083.332-.296 1.251-1.113 1.251-2.45A2.5 2.5 0 0 0 8 2ZM3.662 4.338a.5.5 0 0 1 0 .707L2.707 6h2.41a.5.5 0 1 1 0 1h-2.41l.955.955a.5.5 0 1 1-.707.707L1.146 6.854a.5.5 0 0 1 0-.708l1.809-1.808a.5.5 0 0 1 .707 0Z" clip-rule="evenodd"/>
</svg>
