<svg xmlns="http://www.w3.org/2000/svg" width="12" height="12" fill="none" viewBox="0 0 12 12">
  <g clip-path="url(#a)">
    <path fill="#000" fill-rule="evenodd" d="m2.125 1.802 1.47.616c.582.245 1.2.228 1.735.138a4.03 4.03 0 0 1 1.34 0c.535.09 1.154.106 1.736-.138l1.37-.574-.298 1.19c-.172.693-.01 1.38.223 1.946a4 4 0 1 1-7.478.2c.153-.437.264-.948.185-1.48l-.283-1.898Zm-.99.147A1 1 0 0 1 2.51.879l1.472.617c.334.14.737.149 1.182.074a5.03 5.03 0 0 1 1.673 0c.445.075.847.067 1.182-.074l1.37-.575h.002a1 1 0 0 1 1.355 1.164l-.297 1.191c-.1.399-.018.85.177 1.323a5 5 0 1 1-9.347.251c.126-.362.186-.697.14-1.003L1.136 1.95ZM3.9 4.5a.5.5 0 0 1 .5-.5h.005a.5.5 0 0 1 0 1H4.4a.5.5 0 0 1-.5-.5Zm3.1 0a.5.5 0 0 1 .5-.5h.005a.5.5 0 1 1 0 1H7.5a.5.5 0 0 1-.5-.5Zm-2 2a.625.625 0 0 1 .5-1h1c.515 0 .81.588.5 1l-.5.667a.625.625 0 0 1-1 0L5 6.5Zm1 2.333.221.133a2 2 0 0 0 2.058 0l.062-.037a.5.5 0 1 0-.515-.858l-.061.037a1 1 0 0 1-1.03 0l-.413-.248a.625.625 0 0 0-.643 0l-.414.248a1 1 0 0 1-1.03 0l-.061-.037a.5.5 0 0 0-.515.858l.062.037a2 2 0 0 0 2.058 0L6 8.833Z" clip-rule="evenodd"/>
  </g>
  <defs>
    <clipPath id="a">
      <path fill="#fff" d="M0 0h12v12H0z"/>
    </clipPath>
  </defs>
</svg>
