<svg xmlns="http://www.w3.org/2000/svg" width="12" height="12" fill="none" viewBox="0 0 12 12">
  <path fill="#000" fill-rule="evenodd" d="M2.5 6a.5.5 0 0 0-.5.5V10a.5.5 0 0 0 .5.5h7a.5.5 0 0 0 .5-.5V6.5a.5.5 0 0 0-.5-.5h-7ZM1 6.5A1.5 1.5 0 0 1 2.5 5h7A1.5 1.5 0 0 1 11 6.5V10a1.5 1.5 0 0 1-1.5 1.5h-7A1.5 1.5 0 0 1 1 10V6.5Z" clip-rule="evenodd"/>
  <path fill="#000" fill-rule="evenodd" d="M6 1.5a2 2 0 0 0-2 2v2a.5.5 0 0 1-1 0v-2a3 3 0 1 1 6 0v2a.5.5 0 0 1-1 0v-2a2 2 0 0 0-2-2Z" clip-rule="evenodd"/>
</svg>
