<svg xmlns="http://www.w3.org/2000/svg" width="12" height="12" fill="none" viewBox="0 0 12 12">
  <g clip-path="url(#a)">
    <path fill="#000" fill-rule="evenodd" d="M4.542 2.042A2.062 2.062 0 0 1 8.062 3.5v1.562H3.939V3.5c0-.547.217-1.072.604-1.458Zm-1.48 3.02V3.5a2.937 2.937 0 1 1 5.876 0v1.562H9.5c.794 0 1.438.644 1.438 1.438V10c0 .794-.644 1.438-1.438 1.438h-7A1.438 1.438 0 0 1 1.063 10V6.5c0-.794.643-1.437 1.437-1.437h.563Z" clip-rule="evenodd"/>
  </g>
  <defs>
    <clipPath id="a">
      <path fill="#fff" d="M0 0h12v12H0z"/>
    </clipPath>
  </defs>
</svg>
