<svg xmlns="http://www.w3.org/2000/svg" width="12" height="12" fill="none" viewBox="0 0 12 12">
  <path fill="#000" fill-rule="evenodd" d="M7 1.5a.5.5 0 0 1 .5-.5h3a.5.5 0 0 1 .5.5v3a.5.5 0 0 1-1 0V2H7.5a.5.5 0 0 1-.5-.5ZM1.5 7a.5.5 0 0 1 .5.5V10h2.5a.5.5 0 0 1 0 1h-3a.5.5 0 0 1-.5-.5v-3a.5.5 0 0 1 .5-.5Z" clip-rule="evenodd"/>
  <path fill="#000" fill-rule="evenodd" d="M10.854 1.146a.5.5 0 0 1 0 .708l-3.5 3.5a.5.5 0 1 1-.708-.708l3.5-3.5a.5.5 0 0 1 .708 0Zm-5.5 5.5a.5.5 0 0 1 0 .708l-3.5 3.5a.5.5 0 0 1-.708-.708l3.5-3.5a.5.5 0 0 1 .708 0Z" clip-rule="evenodd"/>
</svg>
