<svg xmlns="http://www.w3.org/2000/svg" width="12" height="12" fill="none" viewBox="0 0 12 12">
  <path fill="#000" fill-rule="evenodd" d="M1.5 7a.5.5 0 0 1 .5-.5h3a.5.5 0 0 1 .5.5v3a.5.5 0 1 1-1 0V7.5H2a.5.5 0 0 1-.5-.5ZM7 1.5a.5.5 0 0 1 .5.5v2.5H10a.5.5 0 1 1 0 1H7a.5.5 0 0 1-.5-.5V2a.5.5 0 0 1 .5-.5Z" clip-rule="evenodd"/>
  <path fill="#000" fill-rule="evenodd" d="M10.854 1.147a.5.5 0 0 1 0 .707l-3.5 3.5a.5.5 0 0 1-.707-.707l3.5-3.5a.5.5 0 0 1 .707 0Zm-5.5 5.5a.5.5 0 0 1 0 .707l-3.5 3.5a.5.5 0 0 1-.707-.707l3.5-3.5a.5.5 0 0 1 .707 0Z" clip-rule="evenodd"/>
</svg>
