<svg xmlns="http://www.w3.org/2000/svg" width="12" height="12" fill="none" viewBox="0 0 12 12">
  <path fill="#000" fill-rule="evenodd" d="M8.147 1.147a.5.5 0 0 1 .707 0l1.5 1.5a.5.5 0 0 1 0 .707l-1.5 1.5a.5.5 0 0 1-.707-.707l.646-.647H6a.5.5 0 0 0-.5.5v4a.5.5 0 0 0 .5.5h2.793l-.646-.646a.5.5 0 0 1 .707-.707l1.5 1.5a.5.5 0 0 1 0 .707l-1.5 1.5a.5.5 0 1 1-.707-.707l.646-.647H6A1.5 1.5 0 0 1 4.5 8V6.5h-3a.5.5 0 0 1 0-1h3V4A1.5 1.5 0 0 1 6 2.5h2.793l-.646-.646a.5.5 0 0 1 0-.707Z" clip-rule="evenodd"/>
</svg>
