<svg xmlns="http://www.w3.org/2000/svg" width="12" height="12" fill="none" viewBox="0 0 12 12">
  <path fill="#0D0C0F" fill-rule="evenodd" d="M2.5 2a.5.5 0 0 0-.5.5v7a.5.5 0 0 0 .5.5h7a.5.5 0 0 0 .5-.5v-7a.5.5 0 0 0-.5-.5h-7ZM1 2.5A1.5 1.5 0 0 1 2.5 1h7A1.5 1.5 0 0 1 11 2.5v7A1.5 1.5 0 0 1 9.5 11h-7A1.5 1.5 0 0 1 1 9.5v-7Zm3 1a.5.5 0 0 1 .5-.5h2v.5V3h.031l.058.004a2.035 2.035 0 0 1 .76.205 1.6 1.6 0 0 1 .622.541c.178.267.279.6.279 1s-.101.733-.28 1a1.596 1.596 0 0 1-.621.541 2.035 2.035 0 0 1-.818.208h-.02l-.006.001H6.5V6v.5H5v2a.5.5 0 0 1-1 0v-5Zm1 2h1.497l.021-.001c.021-.002.054-.005.095-.012a1.03 1.03 0 0 0 .288-.09.598.598 0 0 0 .238-.202c.056-.084.111-.22.111-.445s-.055-.36-.111-.445a.598.598 0 0 0-.238-.202A1.037 1.037 0 0 0 6.497 4H6.5h-.004.002H5v-.5h-.5V4H5v1.5Z" clip-rule="evenodd"/>
</svg>
