<svg xmlns="http://www.w3.org/2000/svg" width="12" height="12" fill="none" viewBox="0 0 12 12">
  <path fill="#000" fill-rule="evenodd" d="M7.592 2.325a7.223 7.223 0 0 0-3.195 0l-.004.001a7.41 7.41 0 0 0-3.116 1.505.317.317 0 0 0-.11.23.331.331 0 0 0 .093.244l.002.002.862.877a.296.296 0 0 0 .397.035 5.653 5.653 0 0 1 1.094-.668h.001a.31.31 0 0 0 .131-.116.329.329 0 0 0 .051-.173v-.734a.5.5 0 0 1 .365-.481 6.837 6.837 0 0 1 3.686 0 .5.5 0 0 1 .365.481v.734c0 .062.018.122.051.173a.31.31 0 0 0 .13.115h.002a5.66 5.66 0 0 1 1.094.67.296.296 0 0 0 .393-.033l.004-.003.854-.868a.322.322 0 0 0 .091-.243.329.329 0 0 0-.11-.231 7.41 7.41 0 0 0-3.127-1.516h-.004Zm.219-.975a8.222 8.222 0 0 0-3.633 0A8.41 8.41 0 0 0 .64 3.06l-.007.006a1.317 1.317 0 0 0-.465.953 1.331 1.331 0 0 0 .381.99H.55l.849.863a1.3 1.3 0 0 0 1.731.14l.004-.003a4.68 4.68 0 0 1 .902-.55 1.31 1.31 0 0 0 .554-.486 1.32 1.32 0 0 0 .208-.707V3.92a5.836 5.836 0 0 1 2.416 0v.346a1.323 1.323 0 0 0 .763 1.192l.21-.454-.211.454c.32.149.623.334.902.551l.004.003a1.296 1.296 0 0 0 1.72-.129l.853-.867a1.321 1.321 0 0 0 .377-.988 1.33 1.33 0 0 0-.464-.95l-.006-.006A8.41 8.41 0 0 0 7.81 1.35ZM6 6.236a.5.5 0 0 1 .5.5v2.41l.954-.955a.5.5 0 1 1 .707.707l-1.808 1.808a.5.5 0 0 1-.707 0L3.838 8.898a.5.5 0 1 1 .707-.707l.955.954V6.736a.5.5 0 0 1 .5-.5Z" clip-rule="evenodd"/>
</svg>
