<svg xmlns="http://www.w3.org/2000/svg" width="12" height="12" fill="none" viewBox="0 0 12 12">
  <g clip-path="url(#a)">
    <path fill="#000" fill-rule="evenodd" d="M.646.646a.5.5 0 0 1 .708 0l10 10a.5.5 0 0 1-.708.708l-10-10a.5.5 0 0 1 0-.708ZM6 8a.5.5 0 0 1 .5.5V11a.5.5 0 0 1-1 0V8.5A.5.5 0 0 1 6 8Z" clip-rule="evenodd"/>
    <path fill="#000" fill-rule="evenodd" d="M4.5 4a.5.5 0 0 1 .5.5v.88a1.5 1.5 0 0 1-.83 1.342l-.892.45A.5.5 0 0 0 3 7.62V8h5.5a.5.5 0 0 1 0 1h-6a.5.5 0 0 1-.5-.5v-.88a1.5 1.5 0 0 1 .83-1.342l.892-.45A.5.5 0 0 0 4 5.38V4.5a.5.5 0 0 1 .5-.5ZM3.445 1a.5.5 0 0 1 .5-.5H8a1.5 1.5 0 1 1 0 3v1.17a.5.5 0 1 1-1 0V3a.5.5 0 0 1 .5-.5H8a.5.5 0 0 0 0-1H3.945a.5.5 0 0 1-.5-.5Z" clip-rule="evenodd"/>
  </g>
  <defs>
    <clipPath id="a">
      <path fill="#fff" d="M0 0h12v12H0z"/>
    </clipPath>
  </defs>
</svg>
