<svg xmlns="http://www.w3.org/2000/svg" width="12" height="12" fill="none" viewBox="0 0 12 12">
  <path fill="#000" fill-rule="evenodd" d="M6 8a.5.5 0 0 1 .5.5V11a.5.5 0 0 1-1 0V8.5A.5.5 0 0 1 6 8Z" clip-rule="evenodd"/>
  <path fill="#000" fill-rule="evenodd" d="M2.94.94A1.5 1.5 0 0 1 4 .5h4a1.5 1.5 0 1 1 0 3v1.88a.5.5 0 0 0 .277.447l.004.002.888.45A1.5 1.5 0 0 1 10 7.618V8.5a.5.5 0 0 1-.5.5h-7a.5.5 0 0 1-.5-.5v-.88a1.5 1.5 0 0 1 .83-1.342l.892-.45A.5.5 0 0 0 4 5.38V3.5A1.5 1.5 0 0 1 2.94.94ZM4 1.5a.5.5 0 1 0 0 1h.5A.5.5 0 0 1 5 3v2.38a1.5 1.5 0 0 1-.83 1.342l-.892.45A.5.5 0 0 0 3 7.62V8h6v-.38a.5.5 0 0 0-.277-.447l-.004-.002-.888-.45A1.5 1.5 0 0 1 7 5.382V3a.5.5 0 0 1 .5-.5H8a.5.5 0 1 0 0-1H4Z" clip-rule="evenodd"/>
</svg>
