<svg xmlns="http://www.w3.org/2000/svg" width="12" height="12" fill="none" viewBox="0 0 12 12">
  <g clip-path="url(#a)">
    <path fill="#000" fill-rule="evenodd" d="M5.72 2.051a.5.5 0 0 1 .28.45v7a.5.5 0 0 1-.807.394l-4.5-3.5a.5.5 0 0 1 0-.79l4.5-3.5a.5.5 0 0 1 .527-.054Zm-3.905 3.95L5 8.477V3.522L1.815 6Z" clip-rule="evenodd"/>
    <path fill="#000" fill-rule="evenodd" d="M11.22 2.051a.5.5 0 0 1 .28.45v7a.5.5 0 0 1-.807.394l-4.5-3.5a.5.5 0 0 1 0-.79l4.5-3.5a.5.5 0 0 1 .527-.054Zm-3.905 3.95L10.5 8.477V3.522L7.315 6Z" clip-rule="evenodd"/>
  </g>
  <defs>
    <clipPath id="a">
      <path fill="#fff" d="M0 0h12v12H0z"/>
    </clipPath>
  </defs>
</svg>
