<svg xmlns="http://www.w3.org/2000/svg" width="12" height="12" fill="none" viewBox="0 0 12 12">
  <path fill="#000" fill-rule="evenodd" d="M5.72 2.05A.5.5 0 0 1 6 2.5v7a.5.5 0 0 1-.807.395l-4.5-3.5a.5.5 0 0 1 0-.79l4.5-3.5a.5.5 0 0 1 .527-.054ZM1.814 6 5 8.478V3.522L1.814 6Z" clip-rule="evenodd"/>
  <path fill="#000" fill-rule="evenodd" d="M11.22 2.05a.5.5 0 0 1 .28.45v7a.5.5 0 0 1-.807.395l-4.5-3.5a.5.5 0 0 1 0-.79l4.5-3.5a.5.5 0 0 1 .527-.054ZM7.314 6 10.5 8.478V3.522L7.314 6Z" clip-rule="evenodd"/>
</svg>
