<svg xmlns="http://www.w3.org/2000/svg" width="12" height="12" fill="none" viewBox="0 0 12 12">
  <path fill="#000" fill-rule="evenodd" d="M2 5.5a.5.5 0 0 1 .5.5v4a.5.5 0 0 0 .5.5h6a.5.5 0 0 0 .5-.5V6a.5.5 0 0 1 1 0v4A1.5 1.5 0 0 1 9 11.5H3A1.5 1.5 0 0 1 1.5 10V6a.5.5 0 0 1 .5-.5ZM5.646.646a.5.5 0 0 1 .708 0l2 2a.5.5 0 1 1-.708.708L6 1.707 4.354 3.354a.5.5 0 1 1-.708-.708l2-2Z" clip-rule="evenodd"/>
  <path fill="#000" fill-rule="evenodd" d="M6 .5a.5.5 0 0 1 .5.5v6.5a.5.5 0 0 1-1 0V1A.5.5 0 0 1 6 .5Z" clip-rule="evenodd"/>
</svg>
