<svg xmlns="http://www.w3.org/2000/svg" width="12" height="12" fill="none" viewBox="0 0 12 12">
  <path fill="#000" fill-rule="evenodd" d="M2.5 2a.5.5 0 0 0-.5.5v7a.5.5 0 0 0 .5.5h7a.5.5 0 0 0 .5-.5v-7a.5.5 0 0 0-.5-.5h-7ZM1 2.5A1.5 1.5 0 0 1 2.5 1h7A1.5 1.5 0 0 1 11 2.5v7A1.5 1.5 0 0 1 9.5 11h-7A1.5 1.5 0 0 1 1 9.5v-7Z" clip-rule="evenodd"/>
  <path fill="#000" fill-rule="evenodd" d="M1 4.5a.5.5 0 0 1 .5-.5h9a.5.5 0 0 1 0 1h-9a.5.5 0 0 1-.5-.5Zm0 3a.5.5 0 0 1 .5-.5h9a.5.5 0 0 1 0 1h-9a.5.5 0 0 1-.5-.5Z" clip-rule="evenodd"/>
  <path fill="#000" fill-rule="evenodd" d="M4.5 4a.5.5 0 0 1 .5.5v6a.5.5 0 0 1-1 0v-6a.5.5 0 0 1 .5-.5Zm3 0a.5.5 0 0 1 .5.5v6a.5.5 0 0 1-1 0v-6a.5.5 0 0 1 .5-.5Z" clip-rule="evenodd"/>
</svg>
