<svg xmlns="http://www.w3.org/2000/svg" width="12" height="12" fill="none" viewBox="0 0 12 12">
  <path fill="#000" fill-rule="evenodd" d="M7.5 1.5A.5.5 0 0 1 8 1h2.5a.5.5 0 0 1 .5.5V4a.5.5 0 1 1-1 0V2H8a.5.5 0 0 1-.5-.5Z" clip-rule="evenodd"/>
  <path fill="#000" fill-rule="evenodd" d="M10.854 1.147a.5.5 0 0 1 0 .707l-8.5 8.5a.5.5 0 0 1-.707-.707l8.5-8.5a.5.5 0 0 1 .707 0ZM10.5 7.5a.5.5 0 0 1 .5.5v2.5a.5.5 0 0 1-.5.5H8a.5.5 0 1 1 0-1h2V8a.5.5 0 0 1 .5-.5Z" clip-rule="evenodd"/>
  <path fill="#000" fill-rule="evenodd" d="M7.147 7.147a.5.5 0 0 1 .707 0l3 3a.5.5 0 1 1-.707.707l-3-3a.5.5 0 0 1 0-.707Zm-5.5-5.5a.5.5 0 0 1 .707 0l2.5 2.5a.5.5 0 0 1-.707.707l-2.5-2.5a.5.5 0 0 1 0-.707Z" clip-rule="evenodd"/>
</svg>
