<svg xmlns="http://www.w3.org/2000/svg" width="12" height="12" fill="none" viewBox="0 0 12 12">
  <path fill="#000" fill-rule="evenodd" d="M2.5 2a.5.5 0 0 0-.5.5v7a.5.5 0 0 0 .5.5h7a.5.5 0 0 0 .5-.5v-7a.5.5 0 0 0-.5-.5h-7ZM1 2.5A1.5 1.5 0 0 1 2.5 1h7A1.5 1.5 0 0 1 11 2.5v7A1.5 1.5 0 0 1 9.5 11h-7A1.5 1.5 0 0 1 1 9.5v-7Z" clip-rule="evenodd"/>
  <path fill="#000" fill-rule="evenodd" d="M4.5 1a.5.5 0 0 1 .5.5v9a.5.5 0 0 1-1 0v-9a.5.5 0 0 1 .5-.5Zm3.854 3.146a.5.5 0 0 1 0 .708L7.207 6l1.147 1.146a.5.5 0 1 1-.708.708l-1.5-1.5a.5.5 0 0 1 0-.708l1.5-1.5a.5.5 0 0 1 .708 0Z" clip-rule="evenodd"/>
</svg>
