<svg xmlns="http://www.w3.org/2000/svg" width="12" height="12" fill="none" viewBox="0 0 12 12">
  <path fill="#000" fill-rule="evenodd" d="M5.72 1.008a5 5 0 1 1-4.692 5.519.5.5 0 1 1 .994-.106 4 4 0 1 0 1.336-3.423l-.53.476H3a.5.5 0 0 1 0 1H1.5a.5.5 0 0 1-.5-.5v-1.5a.5.5 0 1 1 1 0v.4l.695-.625a5 5 0 0 1 3.025-1.24Zm-.528 3.03A.5.5 0 0 1 5.5 4.5v3a.5.5 0 0 1-1 0V5.707l-.146.147a.5.5 0 0 1-.707-.707l1-1a.5.5 0 0 1 .545-.109ZM6 5.25a1.25 1.25 0 1 1 2.5 0v1.5a1.25 1.25 0 0 1-2.5 0v-1.5ZM7.25 5a.25.25 0 0 0-.25.25v1.5a.25.25 0 0 0 .5 0v-1.5A.25.25 0 0 0 7.25 5Z" clip-rule="evenodd"/>
</svg>
