<svg xmlns="http://www.w3.org/2000/svg" width="12" height="12" fill="none" viewBox="0 0 12 12">
  <path fill="#000" fill-rule="evenodd" d="M6.225 2.007A4 4 0 1 0 9.978 6.42a.5.5 0 0 1 .995.106 5 5 0 1 1-1.667-4.278l.004.003.69.622v-.4a.5.5 0 0 1 1 0v1.5a.5.5 0 0 1-.5.5H9a.5.5 0 0 1 0-1h.172l-.53-.476a4 4 0 0 0-2.417-.991ZM5.192 4.038A.5.5 0 0 1 5.5 4.5v3a.5.5 0 1 1-1 0V5.707l-.146.147a.5.5 0 0 1-.707-.707l1-1a.5.5 0 0 1 .545-.109ZM6 5.25a1.25 1.25 0 0 1 2.5 0v1.5a1.25 1.25 0 0 1-2.5 0v-1.5ZM7.25 5a.25.25 0 0 0-.25.25v1.5a.25.25 0 0 0 .5 0v-1.5A.25.25 0 0 0 7.25 5Z" clip-rule="evenodd"/>
</svg>
