<svg xmlns="http://www.w3.org/2000/svg" width="12" height="12" fill="none" viewBox="0 0 12 12">
  <path fill="#000" fill-rule="evenodd" d="M6.5 2a.5.5 0 0 1 .5-.5h3.5a.5.5 0 0 1 0 1H7a.5.5 0 0 1-.5-.5ZM1 2a.5.5 0 0 1 .5-.5H5a.5.5 0 0 1 0 1H1.5A.5.5 0 0 1 1 2Zm4.5 4a.5.5 0 0 1 .5-.5h4.5a.5.5 0 0 1 0 1H6a.5.5 0 0 1-.5-.5ZM1 6a.5.5 0 0 1 .5-.5H4a.5.5 0 0 1 0 1H1.5A.5.5 0 0 1 1 6Zm6.5 4a.5.5 0 0 1 .5-.5h2.5a.5.5 0 0 1 0 1H8a.5.5 0 0 1-.5-.5ZM1 10a.5.5 0 0 1 .5-.5H6a.5.5 0 0 1 0 1H1.5A.5.5 0 0 1 1 10Z" clip-rule="evenodd"/>
  <path fill="#000" fill-rule="evenodd" d="M7 .5a.5.5 0 0 1 .5.5v2a.5.5 0 0 1-1 0V1A.5.5 0 0 1 7 .5Zm-3 4a.5.5 0 0 1 .5.5v2a.5.5 0 0 1-1 0V5a.5.5 0 0 1 .5-.5Zm4 4a.5.5 0 0 1 .5.5v2a.5.5 0 0 1-1 0V9a.5.5 0 0 1 .5-.5Z" clip-rule="evenodd"/>
</svg>
