<svg xmlns="http://www.w3.org/2000/svg" width="12" height="12" fill="none" viewBox="0 0 12 12">
  <path fill="#000" fill-rule="evenodd" d="M5 2.5a.5.5 0 0 1 .5-.5h2a.5.5 0 1 1 0 1h-2a.5.5 0 0 1-.5-.5Zm0 2a.5.5 0 0 1 .5-.5H9a.5.5 0 1 1 0 1H5.5a.5.5 0 0 1-.5-.5Zm0 2a.5.5 0 0 1 .5-.5h5a.5.5 0 1 1 0 1h-5a.5.5 0 0 1-.5-.5ZM1.147 8.147a.5.5 0 0 1 .707 0L3 9.293l1.147-1.146a.5.5 0 0 1 .707.707l-1.5 1.5a.5.5 0 0 1-.707 0l-1.5-1.5a.5.5 0 0 1 0-.707Z" clip-rule="evenodd"/>
  <path fill="#000" fill-rule="evenodd" d="M3 1.5a.5.5 0 0 1 .5.5v7a.5.5 0 1 1-1 0V2a.5.5 0 0 1 .5-.5Z" clip-rule="evenodd"/>
</svg>
