<svg xmlns="http://www.w3.org/2000/svg" width="12" height="12" fill="none" viewBox="0 0 12 12">
  <g clip-path="url(#a)">
    <path fill="#000" fill-rule="evenodd" d="M9.646.146a.5.5 0 0 1 .708 0l1.25 1.25a.5.5 0 0 1 0 .708l-1.25 1.25a.5.5 0 0 1-.708-.708l.397-.396H8.25a.5.5 0 0 1 0-1h1.793L9.646.854a.5.5 0 0 1 0-.708ZM3.892 1.621A.5.5 0 0 0 3.56 1.5H2.056a.5.5 0 0 0-.498.542 9.395 9.395 0 0 0 1.457 4.111l.003.004a9.25 9.25 0 0 0 2.846 2.846l.004.003a9.394 9.394 0 0 0 4.091 1.456.5.5 0 0 0 .542-.5V8.448a.5.5 0 0 0-.428-.508 6.92 6.92 0 0 1-1.512-.377H8.56a.5.5 0 0 0-.527.112l-.634.634a.5.5 0 0 1-.6.08A8.5 8.5 0 0 1 3.61 5.203a.5.5 0 0 1 .081-.6l.634-.634a.5.5 0 0 0 .112-.527V3.44a6.92 6.92 0 0 1-.378-1.512.5.5 0 0 0-.168-.307ZM3.553.5a1.5 1.5 0 0 1 1.498 1.29v.005c.059.442.167.877.323 1.295l-.468.175.468-.176a1.5 1.5 0 0 1-.338 1.583l-.002.002-.358.358a7.5 7.5 0 0 0 2.293 2.293l.358-.359.002-.001a1.5 1.5 0 0 1 1.582-.338 5.92 5.92 0 0 0 1.295.322h.005a1.5 1.5 0 0 1 1.29 1.517v1.493M8.354 2.646a.5.5 0 0 1 0 .708l-.397.396H9.75a.5.5 0 0 1 0 1H7.957l.397.396a.5.5 0 1 1-.708.708l-1.25-1.25a.5.5 0 0 1 0-.708h.001l1.25-1.25a.5.5 0 0 1 .707 0Z" clip-rule="evenodd"/>
  </g>
  <defs>
    <clipPath id="a">
      <path fill="#fff" d="M0 0h12v12H0z"/>
    </clipPath>
  </defs>
</svg>
