<svg xmlns="http://www.w3.org/2000/svg" width="12" height="12" fill="none" viewBox="0 0 12 12">
  <path fill="#000" fill-rule="evenodd" d="M1 3a.5.5 0 0 1 .5-.5h9a.5.5 0 0 1 0 1h-9A.5.5 0 0 1 1 3Z" clip-rule="evenodd"/>
  <path fill="#000" fill-rule="evenodd" d="M2.5 2.5A.5.5 0 0 1 3 3v7a.51.51 0 0 0 .166.334.51.51 0 0 0 .334.166h5a.51.51 0 0 0 .334-.166A.51.51 0 0 0 9 10V3a.5.5 0 0 1 1 0v7c0 .413-.201.783-.459 1.041-.258.258-.628.459-1.041.459h-5c-.413 0-.783-.201-1.041-.459C2.201 10.783 2 10.413 2 10V3a.5.5 0 0 1 .5-.5Z" clip-rule="evenodd"/>
  <path fill="#000" fill-rule="evenodd" d="M4.666 1.666A.51.51 0 0 0 4.5 2v1a.5.5 0 0 1-1 0V2c0-.413.201-.783.459-1.041C4.217.7 4.587.5 5 .5h2c.413 0 .783.201 1.041.459.258.258.459.628.459 1.041v1a.5.5 0 0 1-1 0V2a.51.51 0 0 0-.166-.334A.51.51 0 0 0 7 1.5H5a.51.51 0 0 0-.334.166ZM5 5a.5.5 0 0 1 .5.5v3a.5.5 0 0 1-1 0v-3A.5.5 0 0 1 5 5Zm2 0a.5.5 0 0 1 .5.5v3a.5.5 0 0 1-1 0v-3A.5.5 0 0 1 7 5Z" clip-rule="evenodd"/>
</svg>
