<svg xmlns="http://www.w3.org/2000/svg" width="12" height="12" fill="none" viewBox="0 0 12 12">
  <g clip-path="url(#a)">
    <path fill="#000" fill-rule="evenodd" d="M1 3a.5.5 0 0 1 .5-.5h9a.5.5 0 1 1 0 1h-9A.5.5 0 0 1 1 3Z" clip-rule="evenodd"/>
    <path fill="#000" fill-rule="evenodd" d="M2.5 2.5A.5.5 0 0 1 3 3v7a.51.51 0 0 0 .166.334.51.51 0 0 0 .334.166h5a.51.51 0 0 0 .334-.166A.511.511 0 0 0 9 10V3a.5.5 0 0 1 1 0v7c0 .413-.201.784-.459 1.041-.257.258-.628.46-1.04.46h-5c-.413 0-.784-.202-1.042-.46-.257-.258-.459-.628-.459-1.04V3a.5.5 0 0 1 .5-.5Z" clip-rule="evenodd"/>
    <path fill="#000" fill-rule="evenodd" d="M4.666 1.666A.51.51 0 0 0 4.5 2v1a.5.5 0 1 1-1 0V2c0-.412.202-.783.46-1.04C4.216.7 4.587.5 5 .5h2c.413 0 .784.201 1.041.46.258.257.46.628.46 1.04v1a.5.5 0 1 1-1 0V2a.51.51 0 0 0-.167-.334A.51.51 0 0 0 7 1.5H5a.51.51 0 0 0-.334.166ZM5 5a.5.5 0 0 1 .5.5v3a.5.5 0 1 1-1 0v-3A.5.5 0 0 1 5 5Zm2 0a.5.5 0 0 1 .5.5v3a.5.5 0 1 1-1 0v-3A.5.5 0 0 1 7 5Z" clip-rule="evenodd"/>
  </g>
  <defs>
    <clipPath id="a">
      <path fill="#fff" d="M0 0h12v12H0z"/>
    </clipPath>
  </defs>
</svg>
