<svg xmlns="http://www.w3.org/2000/svg" width="12" height="12" fill="none" viewBox="0 0 12 12">
  <g clip-path="url(#a)">
    <path fill="#000" d="M1.063 6.5c0-.794.643-1.438 1.437-1.438h7c.794 0 1.438.644 1.438 1.438V10c0 .794-.644 1.437-1.438 1.437h-7A1.438 1.438 0 0 1 1.063 10V6.5Z"/>
    <path fill="#000" fill-rule="evenodd" d="M7.228 1.888a2.044 2.044 0 0 0-2.707.27A1.986 1.986 0 0 0 4 3.5v2a.5.5 0 1 1-1 0v-2" clip-rule="evenodd"/>
  </g>
  <defs>
    <clipPath id="a">
      <path fill="#fff" d="M0 0h12v12H0z"/>
    </clipPath>
  </defs>
</svg>
