<svg xmlns="http://www.w3.org/2000/svg" width="12" height="12" fill="none" viewBox="0 0 12 12">
  <g clip-path="url(#a)">
    <path fill="#000" fill-rule="evenodd" d="M7.187 1.887A2 2 0 0 0 4 3.5V5h5.5A1.5 1.5 0 0 1 11 6.5V10a1.5 1.5 0 0 1-1.5 1.5h-7A1.5 1.5 0 0 1 1 10V6.5A1.5 1.5 0 0 1 2.5 5H3V3.5a3 3 0 0 1 5.94-.6.5.5 0 1 1-.98.2 2 2 0 0 0-.773-1.213ZM2 6.5a.5.5 0 0 1 .5-.5h7a.5.5 0 0 1 .5.5V10a.5.5 0 0 1-.5.5h-7A.5.5 0 0 1 2 10V6.5Z" clip-rule="evenodd"/>
  </g>
  <defs>
    <clipPath id="a">
      <path fill="#fff" d="M0 0h12v12H0z"/>
    </clipPath>
  </defs>
</svg>
