<svg xmlns="http://www.w3.org/2000/svg" width="12" height="12" fill="none" viewBox="0 0 12 12">
  <g clip-path="url(#a)">
    <path fill="#000" fill-rule="evenodd" d="M6 1.5a4.5 4.5 0 1 0 0 9 4.5 4.5 0 0 0 0-9ZM.5 6a5.5 5.5 0 1 1 11 0 5.5 5.5 0 0 1-11 0Z" clip-rule="evenodd"/>
    <path fill="#000" fill-rule="evenodd" d="M7.854 4.147a.5.5 0 0 1 0 .707l-3 3a.5.5 0 0 1-.707-.707l3-3a.5.5 0 0 1 .707 0Z" clip-rule="evenodd"/>
    <path fill="#000" fill-rule="evenodd" d="M4.147 4.147a.5.5 0 0 1 .707 0l3 3a.5.5 0 0 1-.707.707l-3-3a.5.5 0 0 1 0-.707Z" clip-rule="evenodd"/>
  </g>
  <defs>
    <clipPath id="a">
      <path fill="#fff" d="M0 0h12v12H0z"/>
    </clipPath>
  </defs>
</svg>
