<svg xmlns="http://www.w3.org/2000/svg" width="12" height="12" fill="none" viewBox="0 0 12 12">
  <path fill="#000" fill-rule="evenodd" d="M5.5 2a3.5 3.5 0 1 0 0 7 3.5 3.5 0 0 0 0-7ZM1 5.5a4.5 4.5 0 1 1 9 0 4.5 4.5 0 0 1-9 0Z" clip-rule="evenodd"/>
  <path fill="#000" fill-rule="evenodd" d="M7.971 7.971a.5.5 0 0 1 .707 0l2.175 2.175a.5.5 0 1 1-.707.707L7.971 8.678a.5.5 0 0 1 0-.707ZM5.5 3.5A.5.5 0 0 1 6 4v3a.5.5 0 0 1-1 0V4a.5.5 0 0 1 .5-.5Z" clip-rule="evenodd"/>
  <path fill="#000" fill-rule="evenodd" d="M3.5 5.5A.5.5 0 0 1 4 5h3a.5.5 0 0 1 0 1H4a.5.5 0 0 1-.5-.5Z" clip-rule="evenodd"/>
</svg>
