<svg width="20" height="20" viewBox="0 0 20 20" fill="none" xmlns="http://www.w3.org/2000/svg">
<path d="M5.14286 4.81818V0H0V4.81818C0 6.224 1.15127 7.36363 2.57143 7.36363C3.99159 7.36363 5.14286 6.224 5.14286 4.81818Z" fill="white"/>
<path d="M0 18.3939V20H5.14286V18.3939C5.14286 16.9881 3.99159 15.8485 2.57143 15.8485C1.15127 15.8485 0 16.9881 0 18.3939Z" fill="white"/>
<path d="M12 20H6.85714V13.303C6.85714 11.8972 8.00841 10.7576 9.42857 10.7576C10.8487 10.7576 12 11.8972 12 13.303V20Z" fill="white"/>
<path d="M11.9854 0H6.87173C7.0092 1.27757 8.10149 2.27273 9.42857 2.27273C10.7557 2.27273 11.8479 1.27757 11.9854 0Z" fill="white"/>
<path d="M0 11.6061C0 10.2002 1.15127 9.0606 2.57143 9.0606C3.99159 9.0606 5.14286 10.2002 5.14286 11.6061C5.14286 13.0119 3.99159 14.1515 2.57143 14.1515C1.15127 14.1515 0 13.0119 0 11.6061Z" fill="white"/>
<path d="M12 6.51515C12 5.10934 10.8487 3.9697 9.42857 3.9697C8.00841 3.9697 6.85714 5.10934 6.85714 6.51515C6.85714 7.92097 8.00841 9.0606 9.42857 9.0606C10.8487 9.0606 12 7.92097 12 6.51515Z" fill="white"/>
</svg>
