<svg width="165" height="146" viewBox="0 0 165 146" fill="none" xmlns="http://www.w3.org/2000/svg">
<g clip-path="url(#clip0_347_13510)">
<rect y="0.589966" width="165" height="145" rx="14" fill="white" fill-opacity="0.6"/>
<path d="M14.5391 87.09V58.6525H24.5C27.9505 58.6525 30.5677 59.3165 32.3516 60.6447C34.1354 61.9598 35.0273 63.8934 35.0273 66.4454C35.0273 67.8387 34.6693 69.0691 33.9531 70.1368C33.237 71.1915 32.2409 71.9663 30.9648 72.4611C32.4232 72.8256 33.569 73.5613 34.4023 74.6681C35.2487 75.7749 35.6719 77.129 35.6719 78.7306C35.6719 81.465 34.7995 83.5353 33.0547 84.9415C31.3099 86.3478 28.8229 87.0639 25.5938 87.09H14.5391ZM20.3984 74.7072V82.3829H25.418C26.7982 82.3829 27.8724 82.0574 28.6406 81.4064C29.4219 80.7423 29.8125 79.8309 29.8125 78.672C29.8125 76.0678 28.4648 74.7462 25.7695 74.7072H20.3984ZM20.3984 70.5665H24.7344C27.6901 70.5144 29.168 69.3361 29.168 67.0314C29.168 65.7423 28.7904 64.8178 28.0352 64.2579C27.293 63.685 26.1146 63.3986 24.5 63.3986H20.3984V70.5665ZM36.8359 76.3282C36.8359 74.2319 37.2396 72.3634 38.0469 70.7228C38.8542 69.0822 40.013 67.8126 41.5234 66.9142C43.0469 66.0157 44.8112 65.5665 46.8164 65.5665C49.668 65.5665 51.9922 66.4389 53.7891 68.1837C55.599 69.9285 56.6081 72.2983 56.8164 75.2931L56.8555 76.7384C56.8555 79.9806 55.9505 82.5848 54.1406 84.5509C52.3307 86.504 49.9023 87.4806 46.8555 87.4806C43.8086 87.4806 41.3737 86.504 39.5508 84.5509C37.7409 82.5978 36.8359 79.9415 36.8359 76.5822V76.3282ZM42.4805 76.7384C42.4805 78.7436 42.8581 80.2801 43.6133 81.3478C44.3685 82.4025 45.4492 82.9298 46.8555 82.9298C48.2227 82.9298 49.2904 82.409 50.0586 81.3673C50.8268 80.3126 51.2109 78.6329 51.2109 76.3282C51.2109 74.3621 50.8268 72.8387 50.0586 71.7579C49.2904 70.6772 48.2096 70.1368 46.8164 70.1368C45.4362 70.1368 44.3685 70.6772 43.6133 71.7579C42.8581 72.8256 42.4805 74.4858 42.4805 76.7384ZM64.2891 87.09H58.625V57.09H64.2891V87.09ZM66.0781 76.3673C66.0781 73.073 66.8138 70.4493 68.2852 68.4962C69.7695 66.5431 71.7943 65.5665 74.3594 65.5665C76.4167 65.5665 78.1159 66.3348 79.457 67.8712V57.09H85.1211V87.09H80.0234L79.75 84.8439C78.3438 86.6017 76.5339 87.4806 74.3203 87.4806C71.8333 87.4806 69.8346 86.504 68.3242 84.5509C66.8268 82.5848 66.0781 79.8569 66.0781 76.3673ZM71.7227 76.7775C71.7227 78.7566 72.0677 80.2736 72.7578 81.3282C73.4479 82.3829 74.4505 82.9103 75.7656 82.9103C77.5104 82.9103 78.7409 82.1746 79.457 80.7032V72.3634C78.7539 70.892 77.5365 70.1564 75.8047 70.1564C73.0833 70.1564 71.7227 72.3634 71.7227 76.7775Z" fill="black"/>
<path opacity="0.07" d="M118.867 114.59V29.2775H145.117C152.617 29.2775 159.316 30.9767 165.215 34.3751C171.152 37.7345 175.781 42.5392 179.102 48.7892C182.422 55.0001 184.082 62.0704 184.082 70.0001V73.9259C184.082 81.8556 182.441 88.9064 179.16 95.0782C175.918 101.25 171.328 106.035 165.391 109.434C159.453 112.832 152.754 114.551 145.293 114.59H118.867ZM136.445 43.5157V100.469H144.941C151.816 100.469 157.07 98.2228 160.703 93.7306C164.336 89.2384 166.191 82.8126 166.27 74.4532V69.9415C166.27 61.2697 164.473 54.7072 160.879 50.254C157.285 45.7618 152.031 43.5157 145.117 43.5157H136.445Z" fill="black"/>
</g>
<rect x="0.5" y="1.08997" width="164" height="144" rx="13.5" stroke="black" stroke-opacity="0.1"/>
<defs>
<clipPath id="clip0_347_13510">
<rect y="0.589966" width="165" height="145" rx="14" fill="white"/>
</clipPath>
</defs>
</svg>
