<svg width="96" height="97" viewBox="0 0 96 97" fill="none" xmlns="http://www.w3.org/2000/svg">
<path d="M0 49C0 22.4903 21.4903 1 48 1C74.5096 1 96 22.4903 96 49C96 75.5096 74.5096 97 48 97C21.4903 97 0 75.5096 0 49Z" fill="#EFEBE1"/>
<path d="M48.0002 95.9787C73.9458 95.9787 94.9789 74.9456 94.9789 49C94.9789 23.0543 73.9458 2.02124 48.0002 2.02124C22.0546 2.02124 1.02148 23.0543 1.02148 49C1.02148 74.9456 22.0546 95.9787 48.0002 95.9787Z" stroke="#7C52FF" stroke-width="2"/>
<path d="M17.4333 18.8453C22.1731 18.8453 26.0155 15.0029 26.0155 10.2631C26.0155 5.52329 22.1731 1.68091 17.4333 1.68091C12.6935 1.68091 8.85107 5.52329 8.85107 10.2631C8.85107 15.0029 12.6935 18.8453 17.4333 18.8453Z" fill="#7C52FF"/>
<path d="M22.5588 13.7091L18.4283 9.57861C18.8368 8.53466 18.6098 7.30912 17.7474 6.44671C16.8396 5.53891 15.4779 5.35735 14.3886 5.85664L16.3403 7.80842L14.9786 9.1701L12.9815 7.21834C12.4368 8.30773 12.6637 9.66943 13.5715 10.5772C14.4339 11.4396 15.6594 11.6666 16.7035 11.2581L20.8339 15.3886C21.0155 15.5701 21.2878 15.5701 21.4694 15.3886L22.5134 14.3446C22.7403 14.163 22.7403 13.8453 22.5588 13.7091Z" fill="white"/>
<path d="M17.702 19.0425C22.4023 19.0425 26.2127 15.2322 26.2127 10.5319C26.2127 5.83158 22.4023 2.02124 17.702 2.02124C13.0017 2.02124 9.19141 5.83158 9.19141 10.5319C9.19141 15.2322 13.0017 19.0425 17.702 19.0425Z" stroke="#7C52FF" stroke-width="3"/>
<path d="M83.064 85.4256C86.0722 85.4256 88.5108 82.987 88.5108 79.9788C88.5108 76.9706 86.0722 74.532 83.064 74.532C80.0558 74.532 77.6172 76.9706 77.6172 79.9788C77.6172 82.987 80.0558 85.4256 83.064 85.4256Z" fill="#7C52FF"/>
<path d="M83.0637 84.4043C85.5079 84.4043 87.4892 82.4229 87.4892 79.9788C87.4892 77.5346 85.5079 75.5532 83.0637 75.5532C80.6196 75.5532 78.6382 77.5346 78.6382 79.9788C78.6382 82.4229 80.6196 84.4043 83.0637 84.4043Z" stroke="#7C52FF" stroke-width="3"/>
<path d="M47.9999 78.9574C64.545 78.9574 77.9574 65.545 77.9574 48.9999C77.9574 32.4549 64.545 19.0425 47.9999 19.0425C31.4549 19.0425 18.0425 32.4549 18.0425 48.9999C18.0425 65.545 31.4549 78.9574 47.9999 78.9574Z" fill="white" stroke="#7C52FF" stroke-width="2"/>
<path d="M63.256 48.9999C63.256 57.4231 61.4599 64.9981 58.6057 70.4304C55.7266 75.9099 51.9263 78.9574 48.0003 78.9574C44.0743 78.9574 40.274 75.9099 37.3948 70.4304C34.5406 64.9981 32.7446 57.4231 32.7446 48.9999C32.7446 40.5768 34.5406 33.0018 37.3948 27.5697C40.274 22.09 44.0743 19.0425 48.0003 19.0425C51.9263 19.0425 55.7266 22.09 58.6057 27.5697C61.4599 33.0018 63.256 40.5768 63.256 48.9999Z" fill="white" stroke="#7C52FF" stroke-width="2"/>
<path d="M17.5459 47.9788H78.4531" stroke="#7C52FF" stroke-width="2"/>
<path d="M22.272 33.2769H73.728" stroke="#7C52FF" stroke-width="2"/>
<path d="M22.272 63.7305H73.728" stroke="#7C52FF" stroke-width="2"/>
<path d="M48 18.5464V79.4538" stroke="#7C52FF" stroke-width="2"/>
</svg>
