<svg width="87" height="96" viewBox="0 0 87 96" fill="none" xmlns="http://www.w3.org/2000/svg">
<path d="M9.0625 20.618C9.0625 19.255 9.61892 17.9511 10.603 17.0081L18.487 9.45256C19.4178 8.56051 20.6573 8.0625 21.9465 8.0625H82C84.7614 8.0625 87 10.3011 87 13.0625V90.0625C87 92.8239 84.7614 95.0625 82 95.0625H14.0625C11.3011 95.0625 9.0625 92.8239 9.0625 90.0625V20.618Z" fill="#EFEBE1"/>
<path d="M76.9375 5V82C76.9375 84.2091 75.1466 86 72.9375 86H5C2.79086 86 1 84.2091 1 82V12.5555C1 11.4651 1.44513 10.422 2.23238 9.66758L10.1164 2.11205C10.8611 1.39841 11.8526 1 12.884 1H72.9375C75.1466 1 76.9375 2.79086 76.9375 5Z" stroke="#7C52FF" stroke-width="2"/>
<path d="M11 13H49V19H11V13Z" fill="#7C52FF"/>
<path d="M11 23H67V26H11V23Z" fill="#7C52FF"/>
<path d="M11 65H67V68H11V65Z" fill="#7C52FF"/>
<path d="M11 72H63V75H11V72Z" fill="#7C52FF"/>
<path d="M17 30H54V33H17V30Z" fill="#7C52FF"/>
<path d="M17 51H54V54H17V51Z" fill="#7C52FF"/>
<path d="M11 51H14V54H11V51Z" fill="#7C52FF"/>
<path d="M11 30H14V33H11V30Z" fill="#7C52FF"/>
<path d="M17 37H48V40H17V37Z" fill="#7C52FF"/>
<path d="M17 58H48V61H17V58Z" fill="#7C52FF"/>
<path d="M17 44H55V47H17V44Z" fill="#7C52FF"/>
<path d="M11 44H14V47H11V44Z" fill="#7C52FF"/>
</svg>
