<svg width="155" height="96" viewBox="0 0 155 96" fill="none" xmlns="http://www.w3.org/2000/svg">
<path d="M8.5332 13.8667H133.333V74.6667C133.333 77.6122 130.945 80 128 80H13.8665C10.921 80 8.5332 77.6122 8.5332 74.6667V13.8667Z" fill="#EFEBE1"/>
<path d="M133.333 10.6667L8.5332 10.6667V5.33333C8.5332 2.38782 10.921 -2.57506e-07 13.8665 0L128 9.97785e-06C130.945 1.02353e-05 133.333 2.38783 133.333 5.33334V10.6667Z" fill="#7C52FF"/>
<path d="M15.4665 8.53328C16.9392 8.53328 18.1331 7.33938 18.1331 5.86662C18.1331 4.39386 16.9392 3.19995 15.4665 3.19995C13.9937 3.19995 12.7998 4.39386 12.7998 5.86662C12.7998 7.33938 13.9937 8.53328 15.4665 8.53328Z" fill="#F5F2ED"/>
<path d="M24.0002 8.53328C25.4729 8.53328 26.6668 7.33938 26.6668 5.86662C26.6668 4.39386 25.4729 3.19995 24.0002 3.19995C22.5274 3.19995 21.3335 4.39386 21.3335 5.86662C21.3335 7.33938 22.5274 8.53328 24.0002 8.53328Z" fill="#F5F2ED"/>
<path d="M32.5334 8.53328C34.0061 8.53328 35.2 7.33938 35.2 5.86662C35.2 4.39386 34.0061 3.19995 32.5334 3.19995C31.0606 3.19995 29.8667 4.39386 29.8667 5.86662C29.8667 7.33938 31.0606 8.53328 32.5334 8.53328Z" fill="#F5F2ED"/>
<path d="M133.333 29.1555C123.538 29.1555 115.555 37.1377 115.555 46.9332C115.555 56.7289 123.538 64.711 133.333 64.711C135.787 64.711 137.778 62.7199 137.778 60.2666C137.778 59.1822 137.369 58.1332 136.64 57.2977C136.498 57.1199 136.409 56.9244 136.409 56.711C136.409 56.2132 136.8 55.8222 137.298 55.8222H140.445C146.329 55.8222 151.111 51.0399 151.111 45.1555C151.111 36.3377 143.129 29.1555 133.333 29.1555ZM143.111 48.711C141.635 48.711 140.445 47.5199 140.445 46.0444C140.445 44.5689 141.635 43.3777 143.111 43.3777C144.587 43.3777 145.778 44.5689 145.778 46.0444C145.778 47.5199 144.587 48.711 143.111 48.711ZM137.778 41.5999C136.302 41.5999 135.111 40.4089 135.111 38.9332C135.111 37.4577 136.302 36.2666 137.778 36.2666C139.253 36.2666 140.445 37.4577 140.445 38.9332C140.445 40.4089 139.253 41.5999 137.778 41.5999ZM120.889 46.0444C120.889 44.5689 122.08 43.3777 123.555 43.3777C125.031 43.3777 126.222 44.5689 126.222 46.0444C126.222 47.5199 125.031 48.711 123.555 48.711C122.08 48.711 120.889 47.5199 120.889 46.0444ZM131.555 38.9332C131.555 40.4089 130.365 41.5999 128.889 41.5999C127.413 41.5999 126.222 40.4089 126.222 38.9332C126.222 37.4577 127.413 36.2666 128.889 36.2666C130.365 36.2666 131.555 37.4577 131.555 38.9332Z" fill="#7C52FF"/>
<path d="M26.6665 89.6L26.6665 54.4C26.6665 51.4545 24.2787 49.0667 21.3332 49.0667H6.39984C3.45432 49.0667 1.0665 51.4545 1.0665 54.4L1.0665 89.6C1.0665 92.5455 3.45432 94.9333 6.39984 94.9333H21.3332C24.2787 94.9333 26.6665 92.5455 26.6665 89.6Z" stroke="#7C52FF" stroke-width="2"/>
</svg>
