<svg width="165" height="146" viewBox="0 0 165 146" fill="none" xmlns="http://www.w3.org/2000/svg">
<g clip-path="url(#clip0_347_13507)">
<rect y="0.589966" width="165" height="145" rx="14" fill="white" fill-opacity="0.6"/>
<path d="M21.2969 58.6525L29.5 80.4493L37.6836 58.6525H44.0703V87.09H39.1484V77.715L39.6367 65.1759L31.2383 87.09H27.7031L19.3242 65.1954L19.8125 77.715V87.09H14.8906V58.6525H21.2969ZM56.7773 87.4806C53.7695 87.4806 51.3281 86.5366 49.4531 84.6486C47.5911 82.7475 46.6602 80.2215 46.6602 77.0704V76.4845C46.6602 74.3751 47.0638 72.4936 47.8711 70.84C48.6914 69.1733 49.8372 67.8777 51.3086 66.9532C52.7799 66.0288 54.4206 65.5665 56.2305 65.5665C59.1081 65.5665 61.3281 66.4845 62.8906 68.3204C64.4661 70.1564 65.2539 72.754 65.2539 76.1134V78.0275H51.4453C51.5885 79.7723 52.168 81.1525 53.1836 82.1681C54.2122 83.1837 55.5013 83.6915 57.0508 83.6915C59.2253 83.6915 60.9961 82.8126 62.3633 81.0548L64.9219 83.4962C64.0755 84.7592 62.9427 85.7423 61.5234 86.4454C60.1172 87.1355 58.5352 87.4806 56.7773 87.4806ZM56.2109 69.3751C54.9089 69.3751 53.8542 69.8309 53.0469 70.7423C52.2526 71.6538 51.7448 72.9233 51.5234 74.5509H60.5664V74.1993C60.4622 72.6108 60.0391 71.4129 59.2969 70.6056C58.5547 69.7853 57.526 69.3751 56.2109 69.3751ZM66.0664 76.3673C66.0664 73.1121 66.8216 70.5014 68.332 68.5353C69.8424 66.5561 71.8672 65.5665 74.4062 65.5665C76.6458 65.5665 78.4557 66.3478 79.8359 67.9103V57.09H84.582V87.09H80.2852L80.0508 84.9025C78.6315 86.6212 76.737 87.4806 74.3672 87.4806C71.8932 87.4806 69.888 86.4845 68.3516 84.4923C66.8281 82.5001 66.0664 79.7918 66.0664 76.3673ZM70.8125 76.7775C70.8125 78.9259 71.2227 80.6056 72.043 81.8165C72.8763 83.0144 74.0547 83.6134 75.5781 83.6134C77.5182 83.6134 78.9375 82.7475 79.8359 81.0157V71.9923C78.9635 70.2996 77.5573 69.4532 75.6172 69.4532C74.0807 69.4532 72.8958 70.0652 72.0625 71.2892C71.2292 72.5001 70.8125 74.3295 70.8125 76.7775ZM92.582 87.09H87.8359V65.9572H92.582V87.09ZM87.543 60.4689C87.543 59.7397 87.7708 59.1342 88.2266 58.6525C88.6953 58.1707 89.3594 57.9298 90.2188 57.9298C91.0781 57.9298 91.7422 58.1707 92.2109 58.6525C92.6797 59.1342 92.9141 59.7397 92.9141 60.4689C92.9141 61.185 92.6797 61.784 92.2109 62.2657C91.7422 62.7345 91.0781 62.9689 90.2188 62.9689C89.3594 62.9689 88.6953 62.7345 88.2266 62.2657C87.7708 61.784 87.543 61.185 87.543 60.4689ZM108.57 85.0197C107.177 86.6603 105.198 87.4806 102.633 87.4806C100.341 87.4806 98.6029 86.81 97.418 85.4689C96.2461 84.1277 95.6602 82.1876 95.6602 79.6486V65.9572H100.406V79.59C100.406 82.2723 101.52 83.6134 103.746 83.6134C106.051 83.6134 107.607 82.7866 108.414 81.1329V65.9572H113.16V87.09H108.688L108.57 85.0197ZM120.457 65.9572L120.594 68.1642C122.078 66.4324 124.109 65.5665 126.688 65.5665C129.513 65.5665 131.447 66.6473 132.488 68.8087C134.025 66.6473 136.186 65.5665 138.973 65.5665C141.303 65.5665 143.035 66.2111 144.168 67.5001C145.314 68.7892 145.9 70.6902 145.926 73.2032V87.09H141.18V73.34C141.18 71.9988 140.887 71.0157 140.301 70.3907C139.715 69.7657 138.745 69.4532 137.391 69.4532C136.31 69.4532 135.424 69.7462 134.734 70.3322C134.057 70.9051 133.582 71.6603 133.309 72.5978L133.328 87.09H128.582V73.1837C128.517 70.6967 127.247 69.4532 124.773 69.4532C122.872 69.4532 121.525 70.228 120.73 71.7775V87.09H115.984V65.9572H120.457Z" fill="black"/>
<path opacity="0.07" d="M120.172 114.59V29.2775H145.367C152.906 29.2775 159.586 30.9572 165.406 34.3165C171.266 37.6759 175.797 42.4415 179 48.6134C182.203 54.7853 183.805 61.8556 183.805 69.8243V74.1017C183.805 82.1876 182.184 89.297 178.941 95.4298C175.738 101.563 171.148 106.289 165.172 109.609C159.234 112.93 152.418 114.59 144.723 114.59H120.172ZM134.996 41.2306V102.754H144.664C152.438 102.754 158.395 100.332 162.535 95.4884C166.715 90.6056 168.844 83.6134 168.922 74.5118V69.7657C168.922 60.5079 166.91 53.4376 162.887 48.5548C158.863 43.672 153.023 41.2306 145.367 41.2306H134.996Z" fill="black"/>
</g>
<rect x="0.5" y="1.08997" width="164" height="144" rx="13.5" stroke="black" stroke-opacity="0.1"/>
<defs>
<clipPath id="clip0_347_13507">
<rect y="0.589966" width="165" height="145" rx="14" fill="white"/>
</clipPath>
</defs>
</svg>
