<svg xmlns="http://www.w3.org/2000/svg" width="12" height="12" fill="none" viewBox="0 0 12 12">
  <path stroke="#000" stroke-linecap="round" stroke-linejoin="round" d="M8.75 11H9c.25 0 .5-.1.7-.3.2-.2.3-.45.3-.7V3.75L7.25 1H3c-.25 0-.5.1-.7.3-.2.2-.3.45-.3.7v1.5"/>
  <path stroke="#000" stroke-linecap="round" stroke-linejoin="round" d="M7 1v3h3m-5 6v-.5a1 1 0 0 1 2 0v.5a1 1 0 1 1-2 0Zm-2 0v-.5a1 1 0 0 0-2 0v.5a1 1 0 1 0 2 0Z"/>
  <path stroke="#000" stroke-linecap="round" stroke-linejoin="round" d="M1 9.5V8a3 3 0 1 1 6 0v1.5"/>
</svg>
