<svg xmlns="http://www.w3.org/2000/svg" width="12" height="12" fill="none" viewBox="0 0 12 12">
  <path fill="#0D0C0F" d="M4.5 3.5V3a.5.5 0 0 0-.5.5h.5Zm-.5 5a.5.5 0 0 0 1 0H4Zm.75-3a.5.5 0 0 0 0 1v-1ZM2 2.5a.5.5 0 0 1 .5-.5V1A1.5 1.5 0 0 0 1 2.5h1Zm0 7v-7H1v7h1Zm.5.5a.5.5 0 0 1-.5-.5H1A1.5 1.5 0 0 0 2.5 11v-1Zm7 0h-7v1h7v-1Zm.5-.5a.5.5 0 0 1-.5.5v1A1.5 1.5 0 0 0 11 9.5h-1Zm0-7v7h1v-7h-1ZM9.5 2a.5.5 0 0 1 .5.5h1A1.5 1.5 0 0 0 9.5 1v1Zm-7 0h7V1h-7v1ZM4 3.5v5h1v-5H4Zm.5.5h2V3h-2v1Zm2-.5V4h-.004.001l.021.001c.021.002.054.005.095.012.085.014.19.041.288.09a.598.598 0 0 1 .238.202c.056.084.111.22.111.445h1c0-.4-.101-.733-.28-1a1.596 1.596 0 0 0-.621-.541A2.035 2.035 0 0 0 6.512 3H6.5l-.001.5Zm.75 1.25c0 .225-.055.36-.111.445a.598.598 0 0 1-.238.202 1.037 1.037 0 0 1-.404.103h-.001.003L6.5 6v.5h.012a1.206 1.206 0 0 0 .077-.004 2.035 2.035 0 0 0 .76-.205 1.6 1.6 0 0 0 .622-.541c.178-.267.279-.6.279-1h-1Zm-.75.75H4.75v1H6.5v-1Z"/>
</svg>
