<svg xmlns="http://www.w3.org/2000/svg" width="12" height="12" fill="none" viewBox="0 0 12 12">
  <g clip-path="url(#a)">
    <path stroke="#000" stroke-linecap="round" stroke-linejoin="round" d="M5.34 6.655a8 8 0 0 0 1.705 1.3l.635-.635a1 1 0 0 1 1.055-.225c.454.17.925.287 1.405.35a1 1 0 0 1 .86 1v1.5a1.001 1.001 0 0 1-1.09 1A9.895 9.895 0 0 1 5.595 9.41 9.71 9.71 0 0 1 3.93 8.075m-1.335-1.67A9.895 9.895 0 0 1 1.06 2.09 1 1 0 0 1 2.055 1h1.5a1 1 0 0 1 1 .86c.063.48.18.951.35 1.405A1 1 0 0 1 4.68 4.32l-.635.635M11 1 1 11"/>
  </g>
  <defs>
    <clipPath id="a">
      <path fill="#fff" d="M0 0h12v12H0z"/>
    </clipPath>
  </defs>
</svg>
