<svg xmlns="http://www.w3.org/2000/svg" width="12" height="12" fill="none" viewBox="0 0 12 12">
  <g clip-path="url(#a)">
    <path fill="#000" d="M1.063 6.5c0-.794.643-1.438 1.437-1.438h7c.794 0 1.438.644 1.438 1.438V10c0 .794-.644 1.437-1.438 1.437h-7A1.438 1.438 0 0 1 1.063 10V6.5Z"/>
    <path stroke="#000" stroke-linecap="round" stroke-linejoin="round" d="M3.5 5.5v-2c0-.62.231-1.218.651-1.679a2.544 2.544 0 0 1 3.372-.337c.504.368.852.908.977 1.516"/>
  </g>
  <defs>
    <clipPath id="a">
      <path fill="#fff" d="M0 0h12v12H0z"/>
    </clipPath>
  </defs>
</svg>
