<svg width="24" height="24" viewBox="0 0 24 24" fill="none" xmlns="http://www.w3.org/2000/svg">
<path d="M12 7C10.4 7 8.85 7.25 7.4 7.72V10.82C7.4 11.21 7.17 11.56 6.84 11.72C5.86 12.21 4.97 12.84 4.18 13.57C4 13.75 3.75 13.85 3.48 13.85C3.2 13.85 2.95 13.74 2.77 13.56L0.29 11.08C0.11 10.91 0 10.66 0 10.38C0 10.1 0.11 9.85 0.29 9.67C3.34 6.78 7.46 5 12 5C16.54 5 20.66 6.78 23.71 9.67C23.89 9.85 24 10.1 24 10.38C24 10.66 23.89 10.91 23.71 11.09L21.23 13.57C21.05 13.75 20.8 13.86 20.52 13.86C20.25 13.86 20 13.75 19.82 13.58C19.03 12.84 18.13 12.22 17.15 11.73C16.82 11.57 16.59 11.23 16.59 10.83V7.73C15.15 7.25 13.6 7 12 7Z" fill="black"/>
<path d="M15.59 16.09L13 18.67V11H11V18.67L8.41 16.09L7 17.5L12 22.5L17 17.5L15.59 16.09Z" fill="black"/>
</svg>
