<svg width="24" height="24" viewBox="0 0 24 24" fill="none" xmlns="http://www.w3.org/2000/svg">
<path d="M4 3C3.44772 3 3 3.44772 3 4V9.71429C3 10.2666 3.44772 10.7143 4 10.7143H9.71429C10.2666 10.7143 10.7143 10.2666 10.7143 9.71428V4C10.7143 3.44772 10.2666 3 9.71428 3H4Z" fill="black"/>
<path d="M4 13.2857C3.44772 13.2857 3 13.7334 3 14.2857V20C3 20.5523 3.44772 21 4 21H9.71429C10.2666 21 10.7143 20.5523 10.7143 20V14.2857C10.7143 13.7334 10.2666 13.2857 9.71428 13.2857H4Z" fill="black"/>
<path d="M13.2856 4C13.2856 3.44772 13.7334 3 14.2856 3H19.9999C20.5522 3 20.9999 3.44772 20.9999 4V9.71428C20.9999 10.2666 20.5522 10.7143 19.9999 10.7143H14.2856C13.7334 10.7143 13.2856 10.2666 13.2856 9.71429V4Z" fill="black"/>
<path d="M14.2856 13.2857C13.7334 13.2857 13.2856 13.7334 13.2856 14.2857V20C13.2856 20.5523 13.7334 21 14.2856 21H19.9999C20.5522 21 20.9999 20.5523 20.9999 20V14.2857C20.9999 13.7334 20.5522 13.2857 19.9999 13.2857H14.2856Z" fill="black"/>
</svg>
