<svg width="24" height="24" viewBox="0 0 24 24" fill="none" xmlns="http://www.w3.org/2000/svg">
<path d="M8.33333 10.5833H5.58333V7.83333H3.75V10.5833H1V12.4167H3.75V15.1667H5.58333V12.4167H8.33333V10.5833ZM17.5 11.5C19.0217 11.5 20.2408 10.2717 20.2408 8.75C20.2408 7.22833 19.0217 6 17.5 6C17.2067 6 16.9225 6.04583 16.6658 6.12833C17.1883 6.87083 17.4908 7.76917 17.4908 8.75C17.4908 9.73083 17.1792 10.62 16.6658 11.3717C16.9225 11.4542 17.2067 11.5 17.5 11.5ZM12.9167 11.5C14.4383 11.5 15.6575 10.2717 15.6575 8.75C15.6575 7.22833 14.4383 6 12.9167 6C11.395 6 10.1667 7.22833 10.1667 8.75C10.1667 10.2717 11.395 11.5 12.9167 11.5ZM18.985 13.48C19.7458 14.1492 20.25 15.0017 20.25 16.0833V17.9167H23V16.0833C23 14.6717 20.8275 13.8008 18.985 13.48ZM12.9167 13.3333C11.0833 13.3333 7.41667 14.25 7.41667 16.0833V17.9167H18.4167V16.0833C18.4167 14.25 14.75 13.3333 12.9167 13.3333Z" fill="black"/>
</svg>
