<svg width="24" height="24" viewBox="0 0 24 24" fill="none" xmlns="http://www.w3.org/2000/svg">
<path fill-rule="evenodd" clip-rule="evenodd" d="M14.703 6C14.5608 6 14.4385 6.09867 14.4112 6.23539L13.7915 9.34408H11.2351L11.8325 6.34698C11.8495 6.26159 11.8267 6.17322 11.7702 6.10606C11.7137 6.0389 11.6295 6 11.5407 6H10.4595C10.3173 6 10.195 6.09867 10.1677 6.23539L9.54803 9.34408H7.2972C7.15091 9.34408 7.02636 9.44832 7.00354 9.58985L6.83283 10.6488C6.81927 10.7329 6.84398 10.8186 6.90047 10.8834C6.95695 10.9481 7.03954 10.9854 7.12649 10.9854H9.22983L8.83189 13.0146H6.45989C6.31277 13.0146 6.18777 13.12 6.16589 13.2625L6.00331 14.3214C5.99043 14.4053 6.01551 14.4905 6.07199 14.5547C6.12847 14.619 6.21074 14.6559 6.2973 14.6559H8.49876L7.91564 17.6543C7.89906 17.7396 7.92216 17.8276 7.97864 17.8945C8.03512 17.9613 8.11909 18 8.20769 18H9.29701C9.44001 18 9.56275 17.9003 9.58919 17.7626L10.1858 14.6559H12.7504L12.1673 17.6543C12.1507 17.7396 12.1738 17.8276 12.2303 17.8945C12.2867 17.9613 12.3707 18 12.4593 18H13.5405C13.6832 18 13.8058 17.9006 13.8326 17.7633L14.4369 14.6559H16.7028C16.8499 14.6559 16.9749 14.5505 16.9968 14.408L17.1594 13.3491C17.1722 13.2652 17.1472 13.1801 17.0907 13.1158C17.0342 13.0516 16.9519 13.0146 16.8654 13.0146H14.7631L15.1674 10.9854H17.532C17.6783 10.9854 17.8028 10.8812 17.8256 10.7396L17.9964 9.68067C18.0099 9.59656 17.9852 9.51084 17.9287 9.4461C17.8722 9.38136 17.7896 9.34408 17.7027 9.34408H15.4785L16.076 6.34698C16.093 6.26159 16.0701 6.17322 16.0137 6.10606C15.9572 6.0389 15.873 6 15.7842 6H14.703ZM10.5196 13.0146L10.9239 10.9854H13.4804L13.0761 13.0146H10.5196Z" fill="black"/>
</svg>
