<svg width="24" height="24" viewBox="0 0 24 24" fill="none" xmlns="http://www.w3.org/2000/svg">
<path fill-rule="evenodd" clip-rule="evenodd" d="M2 12C2 6.48 6.48 2 12 2C17.52 2 22 6.48 22 12C22 17.52 17.52 22 12 22C6.48 22 2 17.52 2 12ZM19.7467 14C19.912 13.3605 20 12.6903 20 12C20 11.3097 19.912 10.6395 19.7467 10H16.9C16.9656 10.6462 17 11.3151 17 12C17 12.6849 16.9656 13.3538 16.9 14H19.7467ZM18.9258 16H16.584C16.3186 17.2148 15.936 18.3037 15.4649 19.2096C16.9142 18.51 18.122 17.386 18.9258 16ZM14.8885 14C14.9608 13.3641 15 12.6949 15 12C15 11.3051 14.9608 10.6359 14.8885 10H9.11146C9.03919 10.6359 9 11.3051 9 12C9 12.6949 9.03919 13.3641 9.11146 14H14.8885ZM9.4702 16H14.5298C14.3212 16.8293 14.0532 17.5635 13.7467 18.1766C12.9482 19.7737 12.2151 20 12 20C11.7849 20 11.0518 19.7737 10.2533 18.1766C9.94677 17.5635 9.6788 16.8293 9.4702 16ZM7.10002 14C7.03443 13.3538 7 12.6849 7 12C7 11.3151 7.03443 10.6462 7.10002 10H4.25326C4.08796 10.6395 4 11.3097 4 12C4 12.6903 4.08796 13.3605 4.25326 14H7.10002ZM5.0742 16H7.41604C7.68142 17.2148 8.06397 18.3037 8.53512 19.2096C7.08583 18.51 5.87801 17.386 5.0742 16ZM15.4649 4.79037C16.9142 5.48997 18.122 6.61403 18.9258 8H16.584C16.3186 6.78525 15.936 5.69632 15.4649 4.79037ZM13.7467 5.82336C14.0532 6.43647 14.3212 7.17074 14.5298 8H9.4702C9.6788 7.17074 9.94677 6.43647 10.2533 5.82336C11.0518 4.22632 11.7849 4 12 4C12.2151 4 12.9482 4.22632 13.7467 5.82336ZM8.53512 4.79037C8.06397 5.69632 7.68142 6.78525 7.41604 8H5.0742C5.87801 6.61403 7.08583 5.48997 8.53512 4.79037Z" fill="black"/>
</svg>
