<svg width="24" height="24" viewBox="0 0 24 24" fill="none" xmlns="http://www.w3.org/2000/svg">
<path d="M19.3172 13.0055C19.3172 13.1838 19.2471 13.3548 19.1224 13.4809C18.9976 13.607 18.8284 13.6778 18.652 13.6778C18.4756 13.6778 18.3064 13.607 18.1816 13.4809C18.0569 13.3548 17.9868 13.1838 17.9868 13.0055V7.00003C17.9868 6.82175 18.0569 6.65076 18.1816 6.52469C18.3064 6.39865 18.4756 6.3278 18.652 6.3278C18.8284 6.3278 18.9976 6.39865 19.1224 6.52469C19.2471 6.65076 19.3172 6.82175 19.3172 7.00003V13.0055ZM19.0863 17.1666C18.9984 17.2555 16.5245 19.3388 11.989 19.3388C7.45355 19.3388 4.99618 17.2667 4.89172 17.1778C4.82588 17.1217 4.77168 17.053 4.73217 16.9757C4.69266 16.8984 4.66864 16.8139 4.6615 16.7272C4.65433 16.6405 4.6642 16.5532 4.6905 16.4704C4.71679 16.3875 4.75901 16.3108 4.81475 16.2444C4.92956 16.1102 5.09225 16.0272 5.26731 16.0137C5.44239 16.0002 5.61565 16.0572 5.74934 16.1722C5.78781 16.2 7.9978 18.0111 11.9835 18.0111C15.9692 18.0111 18.1957 16.1889 18.2177 16.1722C18.3529 16.0582 18.5267 16.002 18.7023 16.0154C18.8778 16.0289 19.0412 16.1111 19.1578 16.2444C19.2699 16.3767 19.3259 16.5483 19.3136 16.722C19.3012 16.8957 19.2215 17.0575 19.0918 17.1722L19.0863 17.1666ZM4.65531 7.00003C4.66527 6.82117 4.74487 6.65359 4.87672 6.53388C5.00858 6.41415 5.18197 6.35206 5.359 6.36114C5.52311 6.37055 5.67798 6.44106 5.79372 6.55904C5.90943 6.67702 5.97783 6.8341 5.98571 7.00003V12.9944C5.98571 13.1727 5.91564 13.3437 5.7909 13.4698C5.66613 13.5958 5.49695 13.6667 5.32053 13.6667C5.1441 13.6667 4.9749 13.5958 4.85015 13.4698C4.72541 13.3437 4.65531 13.1727 4.65531 12.9944V7.00003ZM7.99233 5.66671C8.00226 5.48785 8.08186 5.32027 8.21371 5.20053C8.34557 5.08083 8.51896 5.01874 8.69599 5.02782C8.86013 5.03723 9.01497 5.10774 9.13071 5.22569C9.24642 5.34367 9.31482 5.50078 9.3227 5.66671V14.5555C9.3227 14.7338 9.25263 14.9048 9.12789 15.0309C9.00312 15.1569 8.83394 15.2278 8.65752 15.2278C8.48109 15.2278 8.31189 15.1569 8.18714 15.0309C8.0624 14.9048 7.99233 14.7338 7.99233 14.5555V5.66671ZM11.3458 5.33338C11.3458 5.1551 11.4159 4.98411 11.5406 4.85804C11.6654 4.73197 11.8346 4.66115 12.011 4.66115C12.1874 4.66115 12.3566 4.73197 12.4814 4.85804C12.6061 4.98411 12.6762 5.1551 12.6762 5.33338V15C12.6762 15.1783 12.6061 15.3493 12.4814 15.4753C12.3566 15.6014 12.1874 15.6722 12.011 15.6722C11.8346 15.6722 11.6654 15.6014 11.5406 15.4753C11.4159 15.3493 11.3458 15.1783 11.3458 15V5.33338ZM14.6443 5.66671C14.6443 5.48843 14.7144 5.31744 14.8392 5.19137C14.9639 5.0653 15.1331 4.99448 15.3095 4.99448C15.4859 4.99448 15.6551 5.0653 15.7799 5.19137C15.9046 5.31744 15.9747 5.48843 15.9747 5.66671V14.5555C15.9747 14.7338 15.9046 14.9048 15.7799 15.0309C15.6551 15.1569 15.4859 15.2278 15.3095 15.2278C15.1331 15.2278 14.9639 15.1569 14.8392 15.0309C14.7144 14.9048 14.6443 14.7338 14.6443 14.5555V5.66671ZM19.4986 2.00006H4.5014C4.17462 1.99786 3.85061 2.06083 3.54793 2.18534C3.24529 2.30987 2.96989 2.49348 2.73754 2.7257C2.50518 2.95793 2.32044 3.23416 2.19389 3.53863C2.06734 3.8431 2.00146 4.16982 2.00001 4.50004V19.5C2.00146 19.8302 2.06734 20.1569 2.19389 20.4614C2.32044 20.7658 2.50518 21.0421 2.73754 21.2743C2.96989 21.5065 3.24529 21.6902 3.54793 21.8147C3.85061 21.9392 4.17462 22.0021 4.5014 21.9999H19.4986C19.825 22.0021 20.1485 21.9394 20.4508 21.8152C20.7531 21.691 21.0283 21.5079 21.2605 21.2763C21.4928 21.0446 21.6777 20.769 21.8045 20.4652C21.9314 20.1614 21.9978 19.8353 22 19.5055V4.50004C21.9986 4.17028 21.9329 3.84403 21.8066 3.53992C21.6804 3.23584 21.4962 2.95982 21.2644 2.72768C21.0327 2.49554 20.7579 2.31179 20.4559 2.18696C20.1538 2.06209 19.8305 1.9986 19.5041 2.00006" fill="black"/>
</svg>
