<svg width="141" height="141" viewBox="0 0 141 141" fill="none" xmlns="http://www.w3.org/2000/svg">
<path d="M0 70.5C0 31.5639 31.5639 0 70.5 0V0C109.436 0 141 31.5639 141 70.5V70.5C141 109.436 109.436 141 70.5 141V141C31.5639 141 0 109.436 0 70.5V70.5Z" fill="#EFEBE1"/>
<circle cx="70.5" cy="70.5" r="69" stroke="#6C3DFF" stroke-width="3"/>
<circle cx="25.6051" cy="13.6051" r="12.6051" fill="#6C3DFF"/>
<path d="M33.1335 18.6666L27.0668 12.5999C27.6668 11.0666 27.3335 9.26659 26.0668 7.99993C24.7335 6.66659 22.7335 6.39993 21.1335 7.13326L24.0001 9.99993L22.0001 11.9999L19.0668 9.13326C18.2668 10.7333 18.6001 12.7333 19.9335 14.0666C21.2001 15.3333 23.0001 15.6666 24.5335 15.0666L30.6001 21.1333C30.8668 21.3999 31.2668 21.3999 31.5335 21.1333L33.0668 19.5999C33.4001 19.3333 33.4001 18.8666 33.1335 18.6666Z" fill="white"/>
<circle cx="26" cy="14" r="12.5" stroke="#6C3DFF" stroke-width="3"/>
<circle cx="122" cy="116" r="8" fill="#6C3DFF"/>
<circle cx="122" cy="116" r="6.5" stroke="#6C3DFF" stroke-width="3"/>
<circle cx="70.5" cy="70.5" r="44" fill="white" stroke="#6C3DFF" stroke-width="3"/>
<path d="M92.9073 70.5C92.9073 82.8715 90.2693 93.9973 86.0773 101.976C81.8486 110.024 76.2669 114.5 70.5005 114.5C64.7342 114.5 59.1525 110.024 54.9237 101.976C50.7317 93.9973 48.0938 82.8715 48.0938 70.5C48.0938 58.1285 50.7317 47.0027 54.9237 39.0243C59.1525 30.9761 64.7342 26.5 70.5005 26.5C76.2669 26.5 81.8486 30.9761 86.0773 39.0243C90.2693 47.0027 92.9073 58.1285 92.9073 70.5Z" fill="white" stroke="#6C3DFF" stroke-width="3"/>
<line x1="25.7705" y1="69" x2="115.228" y2="69" stroke="#6C3DFF" stroke-width="3"/>
<line x1="32.7119" y1="47.4065" x2="108.288" y2="47.4065" stroke="#6C3DFF" stroke-width="3"/>
<line x1="32.7119" y1="92.1353" x2="108.288" y2="92.1353" stroke="#6C3DFF" stroke-width="3"/>
<line x1="72" y1="25.7712" x2="72" y2="115.229" stroke="#6C3DFF" stroke-width="3"/>
</svg>
