<svg width="24" height="24" viewBox="0 0 24 24" fill="none" xmlns="http://www.w3.org/2000/svg">
<rect x="0.25" y="3.75" width="23.5" height="16.5" rx="1.75" fill="white" stroke="#E3E5E8" stroke-width="0.5"/>
<path fill-rule="evenodd" clip-rule="evenodd" d="M11.1801 16.6235H13.0126C15.8731 16.6235 18.1526 14.3541 18.242 11.5506V11.5061C18.1973 8.65824 15.8731 6.34432 13.0126 6.38881H10.9566C8.23012 6.47781 6.08472 8.79174 6.17411 11.5506C6.17411 14.3096 8.40891 16.579 11.1801 16.6235ZM7.06803 11.5061C7.06803 9.1922 8.98996 7.27877 11.3141 7.27877C13.6383 7.27877 15.5603 9.1922 15.5603 11.5061C15.5603 13.8201 13.6383 15.7335 11.3141 15.7335C8.98996 15.7335 7.06803 13.8201 7.06803 11.5061ZM11.9846 14.354V8.70272C13.5489 9.10321 14.5322 10.6607 14.13 12.2181C13.8618 13.2861 13.0573 14.087 11.9846 14.354ZM8.543 10.7942C8.14073 12.3516 9.07935 13.9536 10.6437 14.354V8.70272C9.6157 8.96971 8.81117 9.77069 8.543 10.7942Z" fill="#0079BE"/>
</svg>
