<svg width="24" height="24" viewBox="0 0 24 24" fill="none" xmlns="http://www.w3.org/2000/svg">
<rect x="0.25" y="3.75" width="23.5" height="16.5" rx="1.75" fill="white" stroke="#E3E5E8" stroke-width="0.5"/>
<path d="M15.4239 12.3931C15.7989 12.4012 16.1761 12.3765 16.5496 12.4059C16.9278 12.4765 17.019 13.0491 16.683 13.2367C16.4537 13.3602 16.1813 13.2827 15.9327 13.3045H15.4239V12.3931V12.3931ZM16.7664 11.3615C16.8497 11.6556 16.5662 11.9197 16.283 11.8792H15.4239C15.43 11.6018 15.4121 11.3008 15.4326 11.0381C15.7768 11.0478 16.1241 11.0183 16.4663 11.0535C16.6133 11.0904 16.7363 11.2113 16.7664 11.3615V11.3615ZM18.8339 7.00033C18.8499 7.56195 18.8362 8.15327 18.8408 8.72629C18.8397 11.056 18.843 13.3856 18.839 15.7154C18.8239 16.5885 18.0501 17.3472 17.183 17.3646C16.3151 17.3682 15.4471 17.3652 14.5791 17.3661V13.8441C15.5248 13.8393 16.4711 13.854 17.4164 13.8367C17.855 13.8092 18.3354 13.5198 18.3558 13.0372C18.4074 12.5525 17.9504 12.2173 17.5165 12.1643C17.3498 12.16 17.3546 12.1157 17.5165 12.0964C17.9304 12.0069 18.2553 11.5786 18.1336 11.1497C18.0298 10.6986 17.5312 10.524 17.1164 10.5248C16.2708 10.5191 15.4249 10.524 14.5793 10.5224C14.5847 9.86485 14.5679 9.20663 14.5883 8.54959C14.6553 7.69224 15.4486 6.98521 16.3035 7.00055C17.1471 7.00042 17.9905 7.00042 18.8339 7.00039V7.00033Z" fill="url(#paint0_linear)"/>
<path d="M5.02249 8.63843C5.04409 7.7667 5.82118 7.01426 6.68713 7.00152C7.55183 6.99886 8.41665 7.00113 9.28135 7.00036C9.27897 9.91697 9.28603 12.8339 9.27779 15.7504C9.24448 16.6115 8.47586 17.3496 7.61935 17.3648C6.75301 17.368 5.88658 17.3653 5.02022 17.3661V13.7254C5.86174 13.9242 6.74422 14.0088 7.60272 13.877C8.11589 13.7944 8.67736 13.5424 8.8511 13.01C8.97895 12.5546 8.90697 12.0753 8.926 11.6079V10.5224H7.44028C7.4336 11.2403 7.45395 11.9595 7.42953 12.6765C7.38948 13.1173 6.953 13.3973 6.53733 13.3823C6.02181 13.3878 5.00025 13.0087 5.00025 13.0087C4.99769 11.6637 5.01521 9.97917 5.02249 8.63856V8.63843Z" fill="url(#paint1_linear)"/>
<path d="M9.83542 10.9602C9.75721 10.9768 9.81969 10.6938 9.7997 10.5865C9.80503 9.90775 9.78857 9.22829 9.80878 8.55004C9.8756 7.68906 10.675 6.98027 11.5333 7.00042H14.061C14.0587 9.91703 14.0657 12.834 14.0575 15.7504C14.0241 16.6115 13.2555 17.3496 12.3989 17.3649C11.5326 17.3682 10.6661 17.3654 9.79967 17.3662V13.3773C10.3914 13.8628 11.1956 13.9384 11.9328 13.9397C12.4886 13.9395 13.0411 13.8538 13.5808 13.7256V12.9949C12.9726 13.298 12.2576 13.4905 11.5834 13.3164C11.113 13.1993 10.7716 12.7448 10.7792 12.2594C10.7247 11.7546 11.0206 11.2217 11.5166 11.0717C12.1325 10.8789 12.8037 11.0263 13.381 11.277C13.5047 11.3418 13.6302 11.4221 13.5808 11.2153V10.6409C12.6153 10.4112 11.5878 10.3267 10.6178 10.5766C10.337 10.6558 10.0635 10.7759 9.83542 10.9603V10.9602Z" fill="url(#paint2_linear)"/>
<defs>
<linearGradient id="paint0_linear" x1="14.55" y1="11.9616" x2="18.8139" y2="11.9616" gradientUnits="userSpaceOnUse">
<stop stop-color="#58B03A"/>
<stop offset="1" stop-color="#55B330"/>
</linearGradient>
<linearGradient id="paint1_linear" x1="4.92955" y1="12.2825" x2="9.21148" y2="12.2825" gradientUnits="userSpaceOnUse">
<stop stop-color="#0F6EB6"/>
<stop offset="1" stop-color="#006DBA"/>
</linearGradient>
<linearGradient id="paint2_linear" x1="9.79342" y1="12.0621" x2="14.0602" y2="12.0621" gradientUnits="userSpaceOnUse">
<stop stop-color="#DE0D3D"/>
<stop offset="1" stop-color="#E30138"/>
</linearGradient>
</defs>
</svg>
