<svg width="24" height="24" viewBox="0 0 24 24" fill="none" xmlns="http://www.w3.org/2000/svg">
<path d="M22 10.4727V15.2148L21.3438 15.8555V11.2148L22 10.4727Z" fill="#E79225"/>
<path d="M17.6992 10.4766L17.0195 11.2148L17.0547 11.2617L21.3164 11.2461L21.3555 11.2148L22 10.4727L17.6992 10.4766V10.4766Z" fill="#FFF16D"/>
<path d="M17.0195 11.2148H21.3555V15.8594H17.0195V11.2148Z" fill="url(#paint0_linear)"/>
<path d="M20.6953 12.8867C20.6094 12.6719 20.4805 12.4766 20.3125 12.3086C20.1523 12.1445 19.9727 12.0195 19.7695 11.9375C19.5703 11.8555 19.3555 11.8125 19.1211 11.8125C18.8867 11.8125 18.668 11.8555 18.4688 11.9375C18.2656 12.0195 18.0859 12.1445 17.9258 12.3086C17.7578 12.4766 17.6328 12.6719 17.5469 12.8867C17.4609 13.1016 17.4219 13.3359 17.4219 13.5938C17.4219 13.8438 17.4648 14.0781 17.5508 14.2969C17.6367 14.5156 17.7617 14.7109 17.9297 14.8828C18.0859 15.043 18.2656 15.1641 18.4648 15.2461C18.6641 15.3281 18.8867 15.3711 19.125 15.3711C19.3555 15.3711 19.5703 15.3281 19.7695 15.2461C19.9687 15.1641 20.1523 15.043 20.3125 14.8828C20.4805 14.7109 20.6094 14.5156 20.6953 14.3008C20.7813 14.0859 20.8242 13.8477 20.8242 13.5977C20.8242 13.3359 20.7813 13.1016 20.6953 12.8867V12.8867ZM19.8008 14.418C19.6328 14.6172 19.4102 14.7188 19.1211 14.7188C18.832 14.7188 18.6055 14.6172 18.4375 14.418C18.2695 14.2188 18.1875 13.9414 18.1875 13.5898C18.1875 13.2305 18.2734 12.9531 18.4375 12.75C18.6055 12.5469 18.8281 12.4492 19.1211 12.4492C19.4102 12.4492 19.6328 12.5508 19.8008 12.75C19.9648 12.9531 20.0508 13.2305 20.0508 13.5898C20.0508 13.9414 19.9688 14.2188 19.8008 14.418Z" fill="white"/>
<path d="M16.5938 10.0859V10.1094L17.1484 14.3711L16.8242 15.2695L16.7813 15.2383L16.2109 11.1523L16.2227 11.0977L16.5781 10.1094L16.5938 10.0859V10.0859Z" fill="#009ADA"/>
<path d="M12.3242 10.6797L16.5938 10.0859L16.2344 11.1094L16.1836 11.1641L12.1914 11.75L12.2109 11.0195L12.3242 10.6797Z" fill="#91C9ED"/>
<path d="M16.2344 11.1094L16.8242 15.2695L12.6172 15.8594L12.0508 11.8398L12.2969 11.6484L16.2344 11.1094Z" fill="url(#paint1_linear)"/>
<path d="M15.5195 11.9063C15.5 11.7773 15.457 11.6797 15.3867 11.6133C15.3281 11.5625 15.2578 11.5352 15.1758 11.5352C15.1562 11.5352 15.1328 11.5352 15.1094 11.5391C15 11.5547 14.918 11.6055 14.8672 11.6875C14.8281 11.7461 14.8125 11.8203 14.8125 11.9063C14.8125 11.9375 14.8164 11.9727 14.8203 12.0078L14.9727 13.0898L13.7617 13.2695L13.6094 12.1875C13.5898 12.0625 13.5469 11.9648 13.4766 11.8984C13.418 11.8438 13.3477 11.8164 13.2695 11.8164C13.25 11.8164 13.2305 11.8164 13.2109 11.8203C13.0977 11.8359 13.0117 11.8867 12.957 11.9688C12.918 12.0273 12.9023 12.1016 12.9023 12.1875C12.9023 12.2188 12.9062 12.2539 12.9102 12.293L13.3242 15.1094C13.3437 15.2383 13.3867 15.3359 13.4648 15.4024C13.5234 15.4531 13.5937 15.4766 13.6797 15.4766C13.7031 15.4766 13.7266 15.4766 13.75 15.4727C13.8555 15.457 13.9336 15.4063 13.9844 15.3242C14.0195 15.2656 14.0352 15.1953 14.0352 15.1133C14.0352 15.082 14.0312 15.0469 14.0273 15.0117L13.8594 13.8984L15.0703 13.7188L15.2383 14.832C15.2578 14.9609 15.3008 15.0586 15.375 15.1211C15.4336 15.1719 15.5039 15.1992 15.5859 15.1992C15.6055 15.1992 15.6289 15.1992 15.6523 15.1953C15.7617 15.1797 15.8438 15.1289 15.8945 15.0469C15.9297 14.9883 15.9492 14.918 15.9492 14.832C15.9492 14.8008 15.9453 14.7656 15.9414 14.7305L15.5195 11.9063V11.9063Z" fill="white"/>
<path d="M8.32816 9L6.80862 12.6094L7.01566 14.1953L7.02738 14.1914L8.73441 10.3516L8.7266 10.2695L8.35941 9.05078L8.32816 9Z" fill="#66BF6B"/>
<path d="M8.32816 9L8.72269 10.3242L8.7305 10.3516L12.4883 12.0352L12.5 12.0273L12.1797 10.7617L8.32816 9Z" fill="#98D0A0"/>
<path d="M8.72268 10.3242L12.5 12.0273L10.793 15.8984L7.01566 14.1953L8.72268 10.3242V10.3242Z" fill="url(#paint2_linear)"/>
<path d="M11.3555 12.3398C11.2735 12.1211 11.1602 11.9336 11.0117 11.7773C10.8633 11.6211 10.6836 11.4961 10.4727 11.4062C10.2617 11.3164 10.0508 11.2734 9.83596 11.2734H9.82425C9.6055 11.2734 9.39065 11.3242 9.17972 11.418C8.95706 11.5156 8.76565 11.6484 8.60159 11.8242C8.43753 11.9961 8.30472 12.207 8.20316 12.4492C8.10159 12.6875 8.04691 12.9297 8.03519 13.168V13.25C8.03519 13.4609 8.07034 13.668 8.14456 13.8711C8.22269 14.0859 8.33597 14.2695 8.4844 14.4258C8.63284 14.582 8.81644 14.707 9.03518 14.7969C9.24222 14.8867 9.45315 14.9297 9.668 14.9297H9.6719C9.88675 14.9297 10.1016 14.8828 10.3125 14.793C10.5352 14.6953 10.7305 14.5586 10.8946 14.3828C11.0586 14.2109 11.1953 14.0039 11.2969 13.7617C11.3985 13.5195 11.4531 13.2813 11.4649 13.043V12.9727C11.4688 12.7578 11.4336 12.5469 11.3555 12.3398V12.3398ZM10.6016 13.4648C10.461 13.8008 10.2696 14.0313 10.0391 14.1563C9.91409 14.2227 9.78518 14.2578 9.65628 14.2578C9.543 14.2578 9.4219 14.2305 9.30081 14.1797C9.03518 14.0664 8.87112 13.8867 8.80081 13.6289C8.77737 13.543 8.76565 13.4531 8.76565 13.3594C8.76565 13.1719 8.81253 12.9648 8.90628 12.7422C9.05081 12.3984 9.24222 12.1641 9.47268 12.0352C9.59768 11.9648 9.72659 11.9336 9.8555 11.9336C9.97268 11.9336 10.0899 11.9609 10.2149 12.0117C10.4766 12.125 10.6407 12.3047 10.711 12.5625C10.7344 12.6445 10.7461 12.7344 10.7461 12.8281C10.7461 13.0234 10.6992 13.2344 10.6016 13.4648V13.4648Z" fill="white"/>
<path d="M6.50784 9.61328L7.12502 13.7461L6.84378 15.1992L6.80471 15.1484L6.20316 11.1562V11.0781L6.46878 9.68359L6.50784 9.61328V9.61328Z" fill="#760D16"/>
<path d="M2 11.75L2.29297 10.2891L6.50781 9.61328L6.22266 11.1016V11.1992L2.05078 11.7891L2 11.75Z" fill="#EF463E"/>
<path d="M6.22266 11.1016L6.84375 15.1992L2.67188 15.8516L2 11.75L6.22266 11.1016Z" fill="url(#paint3_linear)"/>
<path d="M5.77344 14.5469C5.74219 14.5078 5.69531 14.4805 5.64062 14.4609C5.58594 14.4414 5.51953 14.4336 5.4375 14.4336C5.36328 14.4336 5.27734 14.4414 5.18359 14.457L4.08203 14.6445C4.09375 14.5586 4.13672 14.4492 4.21094 14.3125C4.29297 14.1602 4.41797 13.9766 4.57812 13.7656C4.63281 13.6914 4.67578 13.6367 4.70703 13.5977C4.72656 13.5703 4.75781 13.5352 4.79687 13.4844C5.05078 13.1523 5.20312 12.8828 5.26562 12.6719C5.30078 12.5508 5.32031 12.4297 5.32812 12.3086C5.33203 12.2734 5.33203 12.2422 5.33203 12.2109C5.33203 12.125 5.32422 12.0391 5.30859 11.9531C5.29687 11.875 5.27734 11.8125 5.25 11.7617C5.22266 11.7109 5.19141 11.6719 5.15234 11.6484C5.10937 11.6211 5.04297 11.6094 4.96094 11.6094C4.89453 11.6094 4.8125 11.6172 4.71484 11.6328L3.44141 11.8516C3.28906 11.8789 3.17188 11.9219 3.10156 11.9922C3.04297 12.0469 3.01562 12.1172 3.01562 12.1953C3.01562 12.2148 3.01563 12.2383 3.01953 12.2617C3.03906 12.3711 3.09375 12.4492 3.18359 12.4883C3.23828 12.5117 3.30078 12.5234 3.37891 12.5234C3.42969 12.5234 3.48828 12.5195 3.55078 12.5078L4.61328 12.3203C4.61328 12.3398 4.61719 12.3594 4.61719 12.375C4.61719 12.4414 4.60547 12.5078 4.58203 12.5703C4.55078 12.6602 4.47266 12.7852 4.34375 12.9453C4.30859 12.9883 4.25391 13.0586 4.17969 13.1484C3.89062 13.4961 3.6875 13.793 3.5625 14.0391C3.47266 14.2109 3.41406 14.375 3.37891 14.543C3.35937 14.6406 3.34766 14.7305 3.34766 14.8203C3.34766 14.8828 3.35156 14.9453 3.36328 15.0039C3.37891 15.0898 3.39844 15.1602 3.42578 15.2148C3.45312 15.2695 3.49219 15.3125 3.53516 15.3359C3.57812 15.3594 3.63672 15.3672 3.72266 15.3672C3.82812 15.3672 3.97266 15.3516 4.15625 15.3203L5.3125 15.1211C5.51563 15.0859 5.66016 15.0352 5.74219 14.9688C5.80859 14.9141 5.84375 14.8398 5.84375 14.7539C5.84375 14.7305 5.83984 14.707 5.83594 14.6836C5.82812 14.6328 5.80859 14.5859 5.77344 14.5469V14.5469Z" fill="white"/>
<defs>
<linearGradient id="paint0_linear" x1="19.1873" y1="11.2813" x2="19.1873" y2="15.7192" gradientUnits="userSpaceOnUse">
<stop offset="0.00562" stop-color="#FFE513"/>
<stop offset="1" stop-color="#FDB924"/>
</linearGradient>
<linearGradient id="paint1_linear" x1="12.2662" y1="11.7503" x2="16.6007" y2="15.2658" gradientUnits="userSpaceOnUse">
<stop offset="0.00562" stop-color="#008CD2"/>
<stop offset="1" stop-color="#00649D"/>
</linearGradient>
<linearGradient id="paint2_linear" x1="9.75795" y1="11.8727" x2="9.75795" y2="15.7607" gradientUnits="userSpaceOnUse">
<stop stop-color="#26A146"/>
<stop offset="1" stop-color="#008A52"/>
</linearGradient>
<linearGradient id="paint3_linear" x1="4.11837" y1="11.4914" x2="4.76228" y2="15.5324" gradientUnits="userSpaceOnUse">
<stop stop-color="#D92231"/>
<stop offset="1" stop-color="#BA2234"/>
</linearGradient>
</defs>
</svg>
