<svg width="100%" height="107" viewBox="0 0 264 107" fill="none" xmlns="http://www.w3.org/2000/svg">
<g clip-path="url(#clip0_511_15314)">
<rect x="66" y="21" width="132" height="100" rx="8" fill="var(--dt-color-surface-primary)"/>
<rect x="66.5" y="21.5" width="131" height="99" rx="7.5" stroke="var(--dt-color-border-subtle)"  />
<rect x="78" y="53" width="108" height="24" rx="8" fill="var(--dt-color-surface-primary)"/>
<rect x="78.5" y="53.5" width="107" height="23" rx="7.5" stroke="var(--dt-color-border-subtle)"  />
<rect x="86" y="62" width="32" height="6" rx="3" fill="var(--dt-color-foreground-placeholder)"/>
<rect x="78" y="89" width="32" height="6" rx="3" fill="var(--dt-color-foreground-placeholder)"/>
<circle cx="82" cy="37" r="4" fill="var(--dt-color-link-primary)"/>
<circle cx="82" cy="105" r="4" fill="var(--dt-color-foreground-muted)" fill-opacity="0.5"/>
<circle cx="102" cy="37" r="4" fill="var(--dt-color-foreground-muted)" fill-opacity="0.5"/>
<circle cx="102" cy="105" r="4" fill="var(--dt-color-foreground-muted)" fill-opacity="0.5"/>
<circle cx="122" cy="37" r="4" fill="var(--dt-color-foreground-muted)" fill-opacity="0.5"/>
<circle cx="122" cy="105" r="4" fill="var(--dt-color-foreground-muted)" fill-opacity="0.5"/>
<circle cx="142" cy="37" r="4" fill="var(--dt-color-foreground-muted)" fill-opacity="0.5"/>
<circle cx="142" cy="105" r="4" fill="var(--dt-color-foreground-muted)" fill-opacity="0.5"/>
<circle cx="162" cy="37" r="4" fill="var(--dt-color-foreground-muted)" fill-opacity="0.5"/>
<circle cx="162" cy="105" r="4" fill="var(--dt-color-foreground-muted)" fill-opacity="0.5"/>
<circle cx="182" cy="37" r="4" fill="var(--dt-color-foreground-muted)" fill-opacity="0.5"/>
<circle cx="182" cy="105" r="4" fill="var(--dt-color-foreground-muted)" fill-opacity="0.5"/>
</g>
<defs>
<clipPath id="clip0_511_15314">
<rect width="264" height="107" fill="var(--dt-color-surface-primary)"/>
</clipPath>
</defs>
</svg>
