<svg xmlns="http://www.w3.org/2000/svg" width="100%" height="107" viewBox="0 0 264 107" fill="none" id="button-bg">
<g clip-path="url(#clip0_511_15314)" id="button-bg">
<rect x="66" y="21" width="132" height="100" rx="8" fill="var(--dt-color-surface-primary)" id="button-bg"/>
<rect x="66.5" y="21.5" width="131" height="99" rx="7.5" stroke="var(--dt-color-border-bold)" stroke-opacity="0.5" id="button-bg"/>
<rect x="78" y="53" width="108" height="24" rx="4" fill="var(--dt-color-surface-primary)" id="button-bg"/>
<rect x="78.5" y="53.5" width="107" height="23" rx="3.5" stroke="var(--dt-color-border-bold)" stroke-opacity="0.5" id="button-bg"/>
<rect x="86" y="62" width="32" height="6" rx="3" fill="var(--dt-color-foreground-placeholder)" id="Rectangle 494"/>
<rect x="78" y="89" width="32" height="6" rx="3" fill="var(--dt-color-foreground-placeholder)" id="Rectangle 495"/>
<circle cx="82" cy="37" r="4" fill="var(--dt-color-link-primary)" id="Ellipse 11"/>
<circle cx="82" cy="105" r="4" fill="var(--dt-color-foreground-muted)" fill-opacity="0.5" id="Ellipse 17"/>
<circle cx="102" cy="37" r="4" fill="var(--dt-color-foreground-muted)" fill-opacity="0.5" id="Ellipse 12"/>
<circle cx="102" cy="105" r="4" fill="var(--dt-color-foreground-muted)" fill-opacity="0.5" id="Ellipse 18"/>
<circle cx="122" cy="37" r="4" fill="var(--dt-color-foreground-muted)" fill-opacity="0.5" id="Ellipse 13"/>
<circle cx="122" cy="105" r="4" fill="var(--dt-color-foreground-muted)" fill-opacity="0.5" id="Ellipse 19"/>
<circle cx="142" cy="37" r="4" fill="var(--dt-color-foreground-muted)" fill-opacity="0.5" id="Ellipse 14"/>
<circle cx="142" cy="105" r="4" fill="var(--dt-color-foreground-muted)" fill-opacity="0.5" id="Ellipse 20"/>
<circle cx="162" cy="37" r="4" fill="var(--dt-color-foreground-muted)" fill-opacity="0.5" id="Ellipse 15"/>
<circle cx="162" cy="105" r="4" fill="var(--dt-color-foreground-muted)" fill-opacity="0.5" id="Ellipse 21"/>
<circle cx="182" cy="37" r="4" fill="var(--dt-color-foreground-muted)" fill-opacity="0.5" id="Ellipse 16"/>
<circle cx="182" cy="105" r="4" fill="var(--dt-color-foreground-muted)" fill-opacity="0.5" id="Ellipse 22"/>
</g>
<defs>
<clipPath id="button-bg">
<rect width="264" height="107" fill="var(--dt-color-surface-primary)" id="button-bg"/>
</clipPath>
</defs>
</svg>