<svg xmlns="http://www.w3.org/2000/svg" width="100%" height="107" viewBox="0 0 264 107" fill="none" id="icon-3">
<path fill-rule="evenodd" clip-rule="evenodd" d="M174.835 50.5H177.5C178.693 50.5 179.838 50.9741 180.682 51.818C181.526 52.6619 182 53.8065 182 55C182 59.0019 184.283 56.9194 186.682 59.318C187.526 60.1619 188 61.3065 188 62.5V67C189.031 67 190.035 66.8844 191 66.6655V61C191 59.8065 191.474 58.6619 192.318 57.818C194.467 55.6695 198.434 56.5 201.165 56.5C201.384 55.5352 201.5 54.5311 201.5 53.5C201.5 51.9221 201.229 50.4075 200.732 49C199.461 49 196.953 48.4255 195.939 49.4393C194.86 50.5187 195.431 52.4333 194.182 53.682C193.338 54.5259 192.193 55 191 55C189.807 55 188.662 54.5259 187.818 53.682C186.569 52.4333 187.14 50.5187 186.061 49.4393C184.994 48.3725 182.788 48.9134 181.417 47.9995C179.7 46.8545 179 45.3571 179 43.4375C176.95 45.272 175.465 47.7235 174.835 50.5ZM181.997 41.4048C182.094 42.9584 181.595 44.5127 183.081 45.5034C183.622 45.8641 184.266 46.0392 184.915 46.0024C184.943 46.0008 184.972 46 185 46C186.193 46 187.338 46.4741 188.182 47.318C189.328 48.4638 188.952 52 191 52C191.398 52 191.779 51.842 192.061 51.5607C192.342 51.2794 192.5 50.8978 192.5 50.5C192.5 49.3065 192.974 48.1619 193.818 47.318C194.662 46.4741 195.807 46 197 46H199.227C196.805 42.382 192.681 40 188 40C185.844 40 183.805 40.5056 181.997 41.4048ZM200.097 59.5C198.661 59.5 195.581 58.7979 194.439 59.9393C193.298 61.0808 194 64.1608 194 65.5967C196.638 64.2859 198.786 62.1377 200.097 59.5ZM188 70C197.113 70 204.5 62.6127 204.5 53.5C204.5 44.3873 197.113 37 188 37C178.887 37 171.5 44.3873 171.5 53.5C171.5 62.5207 179.146 70 188 70ZM185 66.6655C178.988 65.3013 174.5 59.9248 174.5 53.5C177.571 53.5 179 53.1826 179 56.5C179 57.6935 179.474 58.8381 180.318 59.682C181.162 60.5259 182.307 61 183.5 61C183.898 61 184.279 61.158 184.561 61.4393C184.842 61.7206 185 62.1022 185 62.5V66.6655Z" fill="var(--dt-color-foreground-placeholder)" id="icon-3"/>
<path fill-rule="evenodd" clip-rule="evenodd" d="M141 38.5C141.829 38.5 142.5 39.1716 142.5 40V41.5L144 41.5C144.829 41.5 145.5 42.1716 145.5 43C145.5 43.8284 144.829 44.5 144 44.5H142.5V46C142.5 46.8284 141.829 47.5 141 47.5C140.172 47.5 139.5 46.8284 139.5 46V44.5H138C137.172 44.5 136.5 43.8284 136.5 43C136.5 42.1716 137.172 41.5 138 41.5H139.5V40C139.5 39.1716 140.172 38.5 141 38.5ZM130.366 42.3793L133.414 49.086L140.121 52.1344C141.269 52.6565 141.269 54.3435 140.121 54.8656L133.414 57.914L130.366 64.6207C129.844 65.7693 128.157 65.7693 127.635 64.6207L124.586 57.914L117.879 54.8656C116.731 54.3435 116.731 52.6565 117.879 52.1344L124.586 49.086L127.635 42.3793C128.157 41.2307 129.844 41.2307 130.366 42.3793ZM129 46.6249C126.986 51.0556 126.556 51.486 122.125 53.5C126.556 55.514 126.986 55.9444 129 60.3751C131.014 55.9444 131.445 55.514 135.875 53.5C131.445 51.486 131.014 51.0556 129 46.6249ZM142.5 59.5C143.329 59.5 144 60.1716 144 61V62.5H145.5C146.329 62.5 147 63.1716 147 64C147 64.8284 146.329 65.5 145.5 65.5H144V67C144 67.8284 143.329 68.5 142.5 68.5C141.672 68.5 141 67.8284 141 67V65.5H139.5C138.672 65.5 138 64.8284 138 64C138 63.1716 138.672 62.5 139.5 62.5H141V61C141 60.1716 141.672 59.5 142.5 59.5Z" fill="var(--dt-color-foreground-placeholder)" id="icon-2"/>
<path d="M90.163 44.2486C91.7504 44.2486 93.0373 42.9617 93.0373 41.3743C93.0373 39.7869 91.7504 38.5 90.163 38.5C88.5755 38.5 87.2886 39.7869 87.2886 41.3743C87.2886 42.9617 88.5755 44.2486 90.163 44.2486Z" fill="var(--dt-color-foreground-placeholder)" id="icon-1"/>
<path fill-rule="evenodd" clip-rule="evenodd" d="M71.7726 43.5818C71.1214 43.5818 70.0003 44.2022 69.4171 46.1061L69.4159 46.1099L63.8924 63.9185C63.5249 65.1034 62.2664 65.7661 61.0815 65.3986C59.8965 65.0311 59.2339 63.7726 59.6014 62.5876L65.1214 44.7904L65.1227 44.7864C66.0206 41.8592 68.3739 39.0892 71.7726 39.0892C75.1702 39.0892 77.5199 41.853 78.4195 44.7756L82.6725 58.4869C83.2563 60.3856 84.3762 61.0068 85.0269 61.0068C86.6229 61.0068 87.9164 59.7133 87.9164 58.1173V48.732C87.9164 47.4914 88.9221 46.4857 90.1627 46.4857C91.4033 46.4857 92.409 47.4914 92.409 48.732V58.1173C92.409 62.1945 89.1041 65.4994 85.0269 65.4994C81.6327 65.4994 79.2799 62.7364 78.38 59.8128L74.127 46.1017C73.543 44.2021 72.4254 43.5818 71.7726 43.5818Z" fill="var(--dt-color-foreground-placeholder)" id="shape"/>
</svg>
