<svg width="100%" height="107" viewBox="0 0 264 107" fill="none" xmlns="http://www.w3.org/2000/svg">
<rect x="52" y="38" width="160" height="32" rx="8" fill="var(--dt-color-surface-primary)"/>
<rect x="52.5" y="38.5" width="159" height="31" rx="7.5" stroke="var(--dt-color-border-subtle)"  />
<rect x="64" y="50" width="88" height="8" rx="4" fill="var(--dt-color-foreground-placeholder)"/>
<rect x="184" y="50" width="16" height="8" rx="4" fill="var(--dt-color-foreground-placeholder)"/>
<path fill-rule="evenodd" clip-rule="evenodd" d="M162 54C162 53.5022 162.404 53.0987 162.901 53.0987H167.099V48.9013C167.099 48.4035 167.502 48 168 48C168.498 48 168.901 48.4035 168.901 48.9013L168.901 53.0987H173.099C173.596 53.0987 174 53.5022 174 54C174 54.4978 173.596 54.9013 173.099 54.9013H168.901L168.901 59.0987C168.901 59.5965 168.498 60 168 60C167.502 60 167.099 59.5965 167.099 59.0987V54.9013L162.901 54.9013C162.404 54.9013 162 54.4978 162 54Z" fill="var(--dt-color-foreground-placeholder)"/>
</svg>
