<svg xmlns="http://www.w3.org/2000/svg" width="100%" height="107" viewBox="0 0 264 107" fill="none" id="button">
<mask id="button" fill="var(--dt-color-surface-primary)">
<path d="M62 42C62 37.5817 65.5817 34 70 34H194C198.418 34 202 37.5817 202 42V66C202 70.4183 198.418 74 194 74H70C65.5817 74 62 70.4183 62 66V42Z" id="button"/>
</mask>
<path d="M62 42C62 37.5817 65.5817 34 70 34H194C198.418 34 202 37.5817 202 42V66C202 70.4183 198.418 74 194 74H70C65.5817 74 62 70.4183 62 66V42Z" fill="var(--dt-color-surface-primary)" id="button"/>
<path d="M61 42C61 37.0294 65.0294 33 70 33H194C198.971 33 203 37.0294 203 42H201C201 38.134 197.866 35 194 35H70C66.134 35 63 38.134 63 42H61ZM203 69C203 73.9706 198.971 78 194 78H70C65.0294 78 61 73.9706 61 69L63 66C63 68.2091 66.134 70 70 70H194C197.866 70 201 68.2091 201 66L203 69ZM70 78C65.0294 78 61 73.9706 61 69V42C61 37.0294 65.0294 33 70 33V35C66.134 35 63 38.134 63 42V66C63 68.2091 66.134 70 70 70V78ZM194 33C198.971 33 203 37.0294 203 42V69C203 73.9706 198.971 78 194 78V70C197.866 70 201 68.2091 201 66V42C201 38.134 197.866 35 194 35V33Z" fill="var(--dt-color-border-bold)" fill-opacity="0.5" mask="url(#path-1-inside-1_511_15406)" id="plus-icon"/>
<path fill-rule="evenodd" clip-rule="evenodd" d="M126 54C126 53.5022 126.404 53.0987 126.901 53.0987H131.099V48.9013C131.099 48.4035 131.502 48 132 48C132.498 48 132.901 48.4035 132.901 48.9013L132.901 53.0987H137.099C137.596 53.0987 138 53.5022 138 54C138 54.4978 137.596 54.9013 137.099 54.9013H132.901L132.901 59.0987C132.901 59.5965 132.498 60 132 60C131.502 60 131.099 59.5965 131.099 59.0987V54.9013L126.901 54.9013C126.404 54.9013 126 54.4978 126 54Z" fill="var(--dt-color-foreground-placeholder)" id="slash"/>
<path d="M177.344 45L173.512 62.5809H171L174.833 45H177.344Z" fill="var(--dt-color-foreground-placeholder)" id="commandicon"/>
<path d="M86.5714 52.6087H85.3074C84.7035 52.6017 84.1488 52.4541 83.6432 52.166C83.1446 51.8709 82.7443 51.4774 82.4424 50.9855C82.1475 50.4866 82 49.9315 82 49.3202C82 48.7088 82.1475 48.1537 82.4424 47.6548C82.7443 47.1559 83.1446 46.7554 83.6432 46.4532C84.1488 46.1511 84.707 46 85.318 46C85.9219 46 86.4731 46.1511 86.9717 46.4532C87.4703 46.7554 87.867 47.1594 88.1619 47.6653C88.4639 48.1643 88.6149 48.7159 88.6149 49.3202V50.5534H91.3851V49.3202C91.3851 48.7159 91.5361 48.1643 91.8381 47.6653C92.14 47.1594 92.5403 46.7554 93.0388 46.4532C93.5374 46.1511 94.0887 46 94.6926 46C95.3035 46 95.8582 46.1511 96.3568 46.4532C96.8624 46.7554 97.2627 47.1559 97.5576 47.6548C97.8525 48.1537 98 48.7088 98 49.3202C98 49.9315 97.8525 50.4866 97.5576 50.9855C97.2627 51.4774 96.8624 51.8709 96.3568 52.166C95.8582 52.4541 95.3035 52.6017 94.6926 52.6087H93.4391V55.3913H94.6926C95.3035 55.3983 95.8582 55.5494 96.3568 55.8445C96.8624 56.1326 97.2627 56.5261 97.5576 57.025C97.8525 57.5169 98 58.0685 98 58.6798C98 59.2841 97.8525 59.8393 97.5576 60.3452C97.2627 60.8441 96.8624 61.2446 96.3568 61.5468C95.8582 61.8489 95.3035 62 94.6926 62C94.0887 62 93.5374 61.8489 93.0388 61.5468C92.5403 61.2446 92.14 60.8441 91.8381 60.3452C91.5361 59.8393 91.3851 59.2841 91.3851 58.6798V57.4466H88.6149V58.6798C88.6149 59.2841 88.4639 59.8393 88.1619 60.3452C87.867 60.8441 87.4703 61.2446 86.9717 61.5468C86.4731 61.8489 85.9219 62 85.318 62C84.707 62 84.1488 61.8489 83.6432 61.5468C83.1446 61.2446 82.7443 60.8441 82.4424 60.3452C82.1475 59.8393 82 59.2841 82 58.6798C82 58.0685 82.1475 57.5169 82.4424 57.025C82.7443 56.5261 83.1446 56.1326 83.6432 55.8445C84.1488 55.5494 84.7035 55.3983 85.3074 55.3913H86.5714V52.6087ZM85.3706 50.5744H86.5609V49.3834C86.5609 49.018 86.438 48.7088 86.1922 48.4559C85.9465 48.2029 85.655 48.0764 85.318 48.0764C84.9739 48.0764 84.679 48.1994 84.4332 48.4453C84.1944 48.6842 84.075 48.9758 84.075 49.3202C84.075 49.6645 84.1979 49.9596 84.4437 50.2055C84.6965 50.4515 85.0055 50.5744 85.3706 50.5744ZM94.6294 50.5744C94.9945 50.5744 95.3035 50.4515 95.5563 50.2055C95.8091 49.9596 95.9355 49.6645 95.9355 49.3202C95.9355 48.9758 95.8126 48.6842 95.5668 48.4453C95.3281 48.1994 95.0366 48.0764 94.6926 48.0764C94.3555 48.0764 94.0641 48.2029 93.8183 48.4559C93.5725 48.7088 93.4496 49.018 93.4496 49.3834V50.5744H94.6294ZM88.6254 55.4018H91.3851V52.5982H88.6254V55.4018ZM85.3706 57.415C85.0055 57.415 84.6965 57.538 84.4437 57.7839C84.1979 58.0299 84.075 58.325 84.075 58.6693C84.075 59.0136 84.1944 59.3087 84.4332 59.5547C84.679 59.7936 84.9739 59.913 85.318 59.913C85.655 59.913 85.9465 59.7901 86.1922 59.5441C86.438 59.2912 86.5609 58.982 86.5609 58.6166V57.415H85.3706ZM94.6294 57.415H93.4496V58.6166C93.4496 58.982 93.5725 59.2912 93.8183 59.5441C94.0641 59.7901 94.3555 59.913 94.6926 59.913C95.0366 59.913 95.3281 59.7936 95.5668 59.5547C95.8126 59.3087 95.9355 59.0136 95.9355 58.6693C95.9355 58.325 95.8091 58.0299 95.5563 57.7839C95.3035 57.538 94.9945 57.415 94.6294 57.415Z" fill="var(--dt-color-foreground-placeholder)" id="shape"/>
</svg>
