<svg width="100%" height="107" viewBox="0 0 264 107" fill="none" xmlns="http://www.w3.org/2000/svg">
<path d="M52 54V69C52 73.4183 55.5817 77 60 77H204C208.418 77 212 73.4183 212 69V54" stroke="var(--dt-color-border-bold)" stroke-opacity="0.5" stroke-dasharray="2 2"/>
<path d="M212 54V39C212 34.5817 208.418 31 204 31H60C55.5817 31 52 34.5817 52 39V54" stroke="var(--dt-color-border-bold)" stroke-opacity="0.5"/>
<path fill-rule="evenodd" clip-rule="evenodd" d="M210.7 22C211.197 22 211.6 22.4029 211.6 22.9V23.8L212.5 23.8C212.997 23.8 213.4 24.2029 213.4 24.7C213.4 25.1971 212.997 25.6 212.5 25.6H211.6V26.5C211.6 26.9971 211.197 27.4 210.7 27.4C210.203 27.4 209.8 26.9971 209.8 26.5V25.6H208.9C208.403 25.6 208 25.1971 208 24.7C208 24.2029 208.403 23.8 208.9 23.8H209.8V22.9C209.8 22.4029 210.203 22 210.7 22Z" fill="var(--dt-color-foreground-tertiary)"/>
<path d="M219.5 18C220.144 18 220.667 18.5223 220.667 19.1667V20.3333H221.833C222.478 20.3333 223 20.8557 223 21.5C223 22.1443 222.478 22.6667 221.833 22.6667H220.667V23.8333C220.667 24.4777 220.144 25 219.5 25C218.856 25 218.333 24.4777 218.333 23.8333V22.6667H217.167C216.522 22.6667 216 22.1443 216 21.5C216 20.8557 216.522 20.3333 217.167 20.3333H218.333V19.1667C218.333 18.5223 218.856 18 219.5 18Z" fill="var(--dt-color-foreground-tertiary)"/>
<path d="M216.7 28C217.197 28 217.6 28.4029 217.6 28.9V29.8H218.5C218.997 29.8 219.4 30.2029 219.4 30.7C219.4 31.1971 218.997 31.6 218.5 31.6H217.6V32.5C217.6 32.9971 217.197 33.4 216.7 33.4C216.203 33.4 215.8 32.9971 215.8 32.5V31.6H214.9C214.403 31.6 214 31.1971 214 30.7C214 30.2029 214.403 29.8 214.9 29.8H215.8V28.9C215.8 28.4029 216.203 28 216.7 28Z" fill="var(--dt-color-foreground-tertiary)"/>
</svg>
