<svg width="100%" height="107" viewBox="0 0 264 107" fill="none" xmlns="http://www.w3.org/2000/svg">
<rect x="116" y="38" width="32.0001" height="32" rx="6.00001" fill="var(--dt-action-color-foreground-base-default)"/>
<path fill-rule="evenodd" clip-rule="evenodd" d="M228.278 46.316C228.65 45.8947 229.252 45.8947 229.623 46.316L235.722 53.2372C236.093 53.6585 236.093 54.3415 235.722 54.7628L229.623 61.684C229.252 62.1053 228.65 62.1053 228.278 61.684C227.907 61.2627 227.907 60.5797 228.278 60.1584L233.705 54L228.278 47.8416C227.907 47.4203 227.907 46.7373 228.278 46.316Z" fill="var(--dt-action-color-foreground-base-default)"/>
<path fill-rule="evenodd" clip-rule="evenodd" d="M35.7216 46.316C35.3503 45.8947 34.7484 45.8947 34.3772 46.316L28.2784 53.2372C27.9072 53.6585 27.9072 54.3415 28.2784 54.7628L34.3772 61.684C34.7484 62.1053 35.3503 62.1053 35.7216 61.684C36.0928 61.2627 36.0928 60.5797 35.7216 60.1584L30.295 54L35.7216 47.8416C36.0928 47.4203 36.0928 46.7373 35.7216 46.316Z" fill="var(--dt-action-color-foreground-base-default)"/>
<path d="M68 54C68 58.4183 64.4183 62 60 62C55.5817 62 52 58.4183 52 54C52 49.5817 55.5817 46 60 46C64.4183 46 68 49.5817 68 54Z" fill="var(--dt-color-surface-moderate)"/>
<path d="M100 54C100 58.4183 96.4183 62 92 62C87.5817 62 84 58.4183 84 54C84 49.5817 87.5817 46 92 46C96.4183 46 100 49.5817 100 54Z" fill="var(--dt-color-surface-moderate)"/>
<path d="M180 54C180 58.4183 176.418 62 172 62C167.582 62 164 58.4183 164 54C164 49.5817 167.582 46 172 46C176.418 46 180 49.5817 180 54Z" fill="var(--dt-color-surface-moderate)"/>
<path d="M212 54C212 58.4183 208.418 62 204 62C199.582 62 196 58.4183 196 54C196 49.5817 199.582 46 204 46C208.418 46 212 49.5817 212 54Z" fill="var(--dt-color-surface-moderate)"/>
</svg>
