<svg xmlns="http://www.w3.org/2000/svg" width="100%" height="107" viewBox="0 0 264 107" fill="none" id="card">
<g filter="url(#filter0_d_526_15637)" id="card">
<rect x="44" y="34" width="177" height="40" rx="8" fill="var(--dt-color-surface-primary)" shape-rendering="crispEdges" id="card"/>
<rect x="43.5" y="33.5" width="178" height="41" rx="8.5" stroke="var(--dt-color-border-bold)" stroke-opacity="0.5" shape-rendering="crispEdges" id="card"/>
</g>
<path fill-rule="evenodd" clip-rule="evenodd" d="M196.293 49.2929C196.683 48.9024 197.317 48.9024 197.707 49.2929L201 52.5858L204.293 49.2929C204.683 48.9024 205.317 48.9024 205.707 49.2929C206.098 49.6834 206.098 50.3166 205.707 50.7071L202.414 54L205.707 57.2929C206.098 57.6834 206.098 58.3166 205.707 58.7071C205.317 59.0976 204.683 59.0976 204.293 58.7071L201 55.4142L197.707 58.7071C197.317 59.0976 196.683 59.0976 196.293 58.7071C195.902 58.3166 195.902 57.6834 196.293 57.2929L199.586 54L196.293 50.7071C195.902 50.3166 195.902 49.6834 196.293 49.2929Z" fill="var(--dt-color-foreground-placeholder)" id="card"/>
<rect x="79" y="50" width="64" height="8" rx="4" fill="var(--dt-color-foreground-placeholder)" id="close-icon"/>
<circle cx="61" cy="54" r="6" fill="var(--dt-color-foreground-placeholder)" id="text"/>
<defs>
<filter id="filter0_d_526_15637" x="27" y="23" width="211" height="74" filterUnits="userSpaceOnUse" color-interpolation-filters="sRGB">
<feFlood flood-opacity="0" result="BackgroundImageFix" id="card"/>
<feColorMatrix in="SourceAlpha" type="matrix" values="0 0 0 0 0 0 0 0 0 0 0 0 0 0 0 0 0 0 127 0" result="hardAlpha" id="card"/>
<feOffset dy="6" id="close-icon"/>
<feGaussianBlur stdDeviation="8" id="text"/>
<feComposite in2="hardAlpha" operator="out" id="icon"/>
<feColorMatrix type="matrix" values="0 0 0 0 0 0 0 0 0 0 0 0 0 0 0 0 0 0 0.1 0" id="shape"/>
<feBlend mode="normal" in2="BackgroundImageFix" result="effect1_dropShadow_526_15637" id="shape"/>
<feBlend mode="normal" in="SourceGraphic" in2="effect1_dropShadow_526_15637" result="shape" id="shape"/>
</filter>
</defs>
</svg>
