<svg xmlns="http://www.w3.org/2000/svg" width="12" height="12" fill="none" viewBox="0 0 12 12">
  <path fill="#000" d="m8.876 7.873-.353-.354.353.354ZM5.5 9a.5.5 0 1 0-1 0h1Zm-.985-4.82a.5.5 0 1 0 .995.09l-.995-.09Zm-.853.865a.5.5 0 0 0-.707-.707l.707.707ZM1.5 6.5l-.354-.354a.5.5 0 0 0 0 .708L1.5 6.5Zm1.455 2.162a.5.5 0 0 0 .707-.707l-.707.707ZM5.116 7a.5.5 0 0 0 0-1v1ZM10.5 4.5c0 1.496-1.15 2.341-1.342 2.533l.708.707.013-.012.063-.055a4.93 4.93 0 0 0 .766-.827c.399-.545.792-1.335.792-2.346h-1ZM9.158 7.033l-.005.005a1.59 1.59 0 0 1-.074.058 5.692 5.692 0 0 1-.169.12c-.109.077-.28.195-.387.303l.707.707a2.67 2.67 0 0 1 .255-.191c.106-.074.277-.192.38-.295l-.707-.707Zm-.635.486c-.036.036-.193.183-.293.287a2.15 2.15 0 0 0-.355.464l.888.46c.023-.045.084-.123.186-.23.047-.048.096-.095.144-.142.045-.043.097-.092.137-.132l-.707-.707Zm-.648.75c-.09.176-.166.458-.214.654-.054.217-.095.419-.106.471l.978.206c.012-.057.05-.24.098-.438.054-.218.105-.38.132-.432l-.888-.46Zm-.32 1.125s-.009.04-.036.1a.762.762 0 0 1-.137.204c-.122.13-.367.302-.882.302v1c.775 0 1.29-.274 1.612-.618a1.7 1.7 0 0 0 .421-.782l-.978-.206ZM6.5 10c-.287 0-.47-.07-.59-.15a.817.817 0 0 1-.275-.324 1.344 1.344 0 0 1-.135-.53V9h-1v.005a.576.576 0 0 0 0 .028l.004.067a2.342 2.342 0 0 0 .236.874c.124.246.317.508.615.708.302.2.683.318 1.145.318v-1ZM8 2a2.5 2.5 0 0 1 2.5 2.5h1A3.5 3.5 0 0 0 8 1v1ZM5.51 4.27A2.5 2.5 0 0 1 8 2V1a3.5 3.5 0 0 0-3.485 3.18l.995.09Zm-2.555.068L1.146 6.146l.708.708 1.808-1.809-.707-.707ZM1.146 6.854l1.809 1.808.707-.707-1.808-1.809-.708.708ZM5.116 6H1.5v1h3.616V6Z"/>
</svg>
