<svg xmlns="http://www.w3.org/2000/svg" width="12" height="12" fill="none" viewBox="0 0 12 12">
  <path fill="#fff" d="m1.76 5.525-.855-.868a.82.82 0 0 1-.237-.616.83.83 0 0 1 .288-.594 7.91 7.91 0 0 1 3.33-1.61 7.722 7.722 0 0 1 3.417 0 7.91 7.91 0 0 1 3.341 1.622.818.818 0 0 1 .289.591.83.83 0 0 1-.235.616l-.854.868a.8.8 0 0 1-1.058.081 5.152 5.152 0 0 0-1-.61.81.81 0 0 1-.343-.3.829.829 0 0 1-.13-.442v-.735a6.338 6.338 0 0 0-3.415 0v.735c0 .157-.046.31-.13.441a.81.81 0 0 1-.342.3 5.2 5.2 0 0 0-1 .611.796.796 0 0 1-1.067-.09Z"/>
  <path fill="#000" d="M8.161 8.898a.5.5 0 0 0-.707-.707l.707.707ZM6 10.353l-.354.353a.5.5 0 0 0 .707 0L6 10.353ZM4.545 8.19a.5.5 0 1 0-.707.707l.707-.707ZM6.5 6.736a.5.5 0 0 0-1 0h1Zm-4.74-1.21.364-.342-.008-.01-.357.351Zm-.855-.869.357-.35-.002-.002-.355.352Zm.051-1.21L.64 3.06l-.007.006.323.381Zm3.33-1.61.107.49.004-.002-.11-.487Zm3.417 0-.111.488.004.001.107-.488Zm3.341 1.622.324-.382-.006-.005-.318.387Zm.054 1.207.357.35-.357-.35Zm-.854.868-.356-.35-.004.003.36.347Zm-1.058.081-.308.394.004.003.304-.397Zm-1-.61.211-.454h-.001l-.21.453Zm-.472-.742h-.5v.003l.5-.003Zm0-.735h.5a.5.5 0 0 0-.365-.481l-.135.481Zm-3.416 0-.135-.481a.5.5 0 0 0-.365.481h.5Zm0 .735.5.003v-.003h-.5Zm-.472.741-.21-.454.21.454Zm-1 .611.304.397.004-.003-.308-.394Zm4.628 2.576L5.646 9.999l.707.707 1.808-1.808-.707-.707Zm-1.1 1.808-1.81-1.808-.707.707 1.808 1.808.707-.707ZM5.5 6.736v3.617h1V6.736h-1ZM2.116 5.175l-.854-.868-.713.7.854.87.713-.702Zm-.856-.87a.32.32 0 0 1-.071-.11l-.933.359c.065.17.165.325.294.455l.71-.704Zm-.071-.11a.331.331 0 0 1-.022-.133l-.999-.043c-.008.183.022.365.088.535l.933-.36Zm-.022-.133a.33.33 0 0 1 .033-.13l-.9-.438a1.33 1.33 0 0 0-.132.525l1 .043Zm.033-.13a.317.317 0 0 1 .08-.104l-.647-.762c-.14.118-.252.264-.332.428l.9.438Zm.073-.098a7.41 7.41 0 0 1 3.12-1.508L4.18 1.35A8.41 8.41 0 0 0 .64 3.06l.633.774Zm3.124-1.509a7.223 7.223 0 0 1 3.195 0l.221-.975a8.223 8.223 0 0 0-3.637 0l.221.975Zm3.2.001a7.41 7.41 0 0 1 3.13 1.519l.635-.773A8.41 8.41 0 0 0 7.809 1.35l-.213.977ZM10.72 3.84c.033.028.06.063.08.103l.898-.439a1.317 1.317 0 0 0-.331-.427l-.647.763Zm.08.103c.019.04.03.084.032.13l1-.045a1.33 1.33 0 0 0-.134-.524l-.899.439Zm.032.13a.33.33 0 0 1-.02.132l.934.356a1.33 1.33 0 0 0 .085-.533l-.999.045Zm-.02.132a.32.32 0 0 1-.072.11l.714.701a1.32 1.32 0 0 0 .292-.455l-.935-.356Zm-.071.11-.854.869.713.7.854-.868-.713-.7Zm-.858.872a.3.3 0 0 1-.192.092l.076.997a1.3 1.3 0 0 0 .836-.395l-.72-.694Zm-.192.092a.296.296 0 0 1-.203-.06l-.607.793c.253.194.568.288.886.264l-.076-.997Zm-.199-.058a5.652 5.652 0 0 0-1.096-.67l-.421.907c.32.149.623.334.902.551l.615-.788Zm-1.097-.67a.31.31 0 0 1-.13-.116l-.844.538c.135.211.327.38.555.485l.419-.908Zm-.13-.116a.329.329 0 0 1-.052-.174l-1 .005c.001.25.073.496.208.707l.843-.538Zm-.052-.172v-.735h-1v.735h1Zm-.365-1.216a6.837 6.837 0 0 0-3.686 0l.27.963a5.838 5.838 0 0 1 3.146 0l.27-.963Zm-4.05.481v.735h1v-.735h-1Zm0 .733a.329.329 0 0 1-.052.174l.843.538a1.32 1.32 0 0 0 .208-.707l-1-.005Zm-.052.174a.31.31 0 0 1-.13.115l.418.908a1.31 1.31 0 0 0 .555-.485l-.843-.538Zm-.132.116c-.39.18-.757.405-1.096.67l.615.788c.28-.217.582-.402.902-.551l-.42-.907Zm-1.092.667a.296.296 0 0 1-.205.06l-.084.997c.322.027.64-.067.896-.263l-.607-.794Zm-.205.06a.3.3 0 0 1-.194-.094l-.73.683a1.3 1.3 0 0 0 .84.408l.084-.996Z"/>
</svg>
