<svg xmlns="http://www.w3.org/2000/svg" width="12" height="12" fill="none" viewBox="0 0 12 12">
  <path fill="#222" fill-rule="evenodd" d="M3 1.5a.5.5 0 0 0-.5.5v8a.5.5 0 0 0 .5.5h6a.5.5 0 0 0 .5-.5.5.5 0 1 1 1 0A1.5 1.5 0 0 1 9 11.5H3A1.5 1.5 0 0 1 1.5 10V2A1.5 1.5 0 0 1 3 .5h4.25a.5.5 0 0 1 .354.146l1 1a.5.5 0 1 1-.707.708L7.043 1.5H3Z" clip-rule="evenodd"/>
  <path fill="#222" fill-rule="evenodd" d="M9.978 3.455c0-.38.315-.655.661-.655.347 0 .661.275.661.655s-.314.655-.66.655a.658.658 0 0 1-.662-.655Zm-3.506.5c-.174 0-.42.146-.545.527v.002L4.674 8.257a.5.5 0 0 1-.95-.314L4.977 4.17c.211-.643.752-1.216 1.496-1.216s1.283.57 1.495 1.213l.964 2.906c.124.38.37.526.545.526.398 0 .663-.294.663-.588v-1.99a.5.5 0 0 1 1 0v1.99c0 .908-.777 1.588-1.663 1.588-.743 0-1.284-.57-1.495-1.213l-.964-2.905V4.48c-.125-.38-.37-.526-.545-.526Z" clip-rule="evenodd"/>
</svg>
