<svg width="128" height="128" viewBox="0 0 128 128" fill="none" xmlns="http://www.w3.org/2000/svg">
  <style>
    path { fill: #6C3DFF; }
    @media (prefers-color-scheme: dark) { path { fill: #FFF; } }
  </style>
<path fill-rule="evenodd" clip-rule="evenodd" d="M64.1457 59.8457V18.2042C64.1457 17.7973 63.6507 17.5961 63.3684 17.8888L45.7777 36.1549C42.1803 34.6255 38.2253 33.7788 34.0723 33.7788C17.4636 33.7788 4 47.3096 4 63.9999C4 80.689 17.4636 94.2199 34.0723 94.2199C49.2783 94.2199 61.8397 82.8775 63.8555 68.153V109.794C63.8555 110.204 64.3493 110.404 64.6316 110.111L82.2223 91.8449C85.8197 93.3743 89.7758 94.2199 93.9277 94.2199C110.536 94.2199 124 80.689 124 63.9999C124 47.3096 110.536 33.7788 93.9277 33.7788C78.7217 33.7788 66.1603 45.1223 64.1457 59.8457Z"/>
</svg>
