<svg xmlns="http://www.w3.org/2000/svg" width="13" height="12" fill="none" viewBox="0 0 13 12">
  <path fill="#000" fill-rule="evenodd" d="M2.333.667a.5.5 0 0 1 .5-.5h7.334a.5.5 0 0 1 0 1H2.833a.5.5 0 0 1-.5-.5ZM1.48 1.98a.5.5 0 0 1 .353-.147h9.334a.5.5 0 0 1 .5.5v7.334a.5.5 0 0 1-.5.5H1.833a.5.5 0 0 1-.5-.5V2.333a.5.5 0 0 1 .147-.353Zm.853.853v6.334h1V9a1.833 1.833 0 0 1 1.834-1.833h2.666A1.833 1.833 0 0 1 9.667 9v.167h1V2.833H2.333Zm6.334 6.334V9a.833.833 0 0 0-.834-.833H5.167A.833.833 0 0 0 4.333 9v.167h4.334Zm-2.167-2a1.833 1.833 0 1 0 0-3.667 1.833 1.833 0 0 0 0 3.667Zm0-2.667a.833.833 0 1 0 0 1.667.833.833 0 0 0 0-1.667Zm-4.167 6.833a.5.5 0 0 1 .5-.5H10.3a.5.5 0 1 1 0 1H2.833a.5.5 0 0 1-.5-.5Z" clip-rule="evenodd"/>
</svg>
