<svg xmlns="http://www.w3.org/2000/svg" width="13" height="12" fill="none" viewBox="0 0 13 12">
  <path fill="#000" fill-rule="evenodd" d="M4.5 2.5A.5.5 0 0 0 4 3v.2l3.283 1.748a.458.458 0 0 0 .433 0L11 3.2V3a.5.5 0 0 0-.5-.5h-6Zm7.5.99V3a1.5 1.5 0 0 0-1.5-1.5h-6A1.5 1.5 0 0 0 3 3v4.5A1.5 1.5 0 0 0 4.5 9h6A1.5 1.5 0 0 0 12 7.5V3.49Zm-1 .843-2.817 1.5a1.46 1.46 0 0 1-1.366 0l-.002-.002L4 4.333V7.5a.5.5 0 0 0 .5.5h6a.5.5 0 0 0 .5-.5V4.333ZM1.5 3.5A.5.5 0 0 1 2 4v5.5c0 .274.226.5.5.5h7a.5.5 0 0 1 0 1h-7C1.674 11 1 10.326 1 9.5V4a.5.5 0 0 1 .5-.5Z" clip-rule="evenodd"/>
</svg>
