<svg xmlns="http://www.w3.org/2000/svg" width="13" height="12" fill="none" viewBox="0 0 13 12">
  <path fill="#000" fill-rule="evenodd" d="M4 1.5a1 1 0 0 1 1-1h3a1 1 0 0 1 1 1h.5A1.5 1.5 0 0 1 11 3v7a1.5 1.5 0 0 1-1.5 1.5h-6A1.5 1.5 0 0 1 2 10V3a1.5 1.5 0 0 1 1.5-1.5H4Zm0 1h-.5A.5.5 0 0 0 3 3v7a.5.5 0 0 0 .5.5h6a.5.5 0 0 0 .5-.5V3a.5.5 0 0 0-.5-.5H9a1 1 0 0 1-1 1H5a1 1 0 0 1-1-1Zm4 0H5v-1h3v1Zm-4 3a.5.5 0 0 1 .5-.5h.005a.5.5 0 0 1 0 1H4.5a.5.5 0 0 1-.5-.5Zm2 0a.5.5 0 0 1 .5-.5h2a.5.5 0 0 1 0 1h-2a.5.5 0 0 1-.5-.5ZM4 8a.5.5 0 0 1 .5-.5h.005a.5.5 0 0 1 0 1H4.5A.5.5 0 0 1 4 8Zm2 0a.5.5 0 0 1 .5-.5h2a.5.5 0 0 1 0 1h-2A.5.5 0 0 1 6 8Z" clip-rule="evenodd"/>
</svg>
