<svg xmlns="http://www.w3.org/2000/svg" width="13" height="12" fill="none" viewBox="0 0 13 12">
  <g clip-path="url(#a)">
    <path fill="#000" fill-rule="evenodd" d="M6.5 6.237a.5.5 0 0 1 .5.5v2.409l.955-.955a.5.5 0 0 1 .707.707l-1.808 1.809a.5.5 0 0 1-.708 0L4.338 8.898a.5.5 0 0 1 .707-.707L6 9.146v-2.41a.5.5 0 0 1 .5-.5Z" clip-rule="evenodd"/>
    <path fill="#000" fill-rule="evenodd" d="M8.092 2.326a7.222 7.222 0 0 0-3.195 0h-.005a7.41 7.41 0 0 0-3.115 1.505.317.317 0 0 0-.11.231.331.331 0 0 0 .093.244l.001.001.863.877a.296.296 0 0 0 .397.035 5.652 5.652 0 0 1 1.094-.668.31.31 0 0 0 .132-.115.329.329 0 0 0 .05-.174V3.53a.5.5 0 0 1 .366-.482 6.838 6.838 0 0 1 3.685 0 .5.5 0 0 1 .366.482v.733c0 .063.018.123.05.174a.31.31 0 0 0 .132.115c.389.18.756.405 1.094.669a.296.296 0 0 0 .394-.032l.004-.004.853-.868a.32.32 0 0 0 .092-.243.33.33 0 0 0-.11-.23 7.41 7.41 0 0 0-3.127-1.516l-.004-.001Zm.219-.976a8.222 8.222 0 0 0-3.633 0A8.41 8.41 0 0 0 1.14 3.06l-.007.006a1.317 1.317 0 0 0-.465.954 1.331 1.331 0 0 0 .382.99l.848.863a1.3 1.3 0 0 0 1.732.14l.004-.003a4.6 4.6 0 0 1 .901-.551 1.317 1.317 0 0 0 .763-1.192V3.92a5.836 5.836 0 0 1 2.416 0v.347a1.326 1.326 0 0 0 .763 1.192l.21-.454-.211.453c.32.149.622.334.902.552l.003.003a1.296 1.296 0 0 0 1.721-.13l.853-.866a1.324 1.324 0 0 0 .244-1.512 1.317 1.317 0 0 0-.332-.427l-.006-.005a8.41 8.41 0 0 0-3.55-1.723Z" clip-rule="evenodd"/>
  </g>
  <defs>
    <clipPath id="a">
      <path fill="#fff" d="M0 0h12v12H0z" transform="translate(.5)"/>
    </clipPath>
  </defs>
</svg>
