<svg xmlns="http://www.w3.org/2000/svg" width="13" height="12" fill="none" viewBox="0 0 13 12">
  <path fill="#000" fill-rule="evenodd" d="M4.39 1.62a.5.5 0 0 0-.33-.12H2.555a.5.5 0 0 0-.497.542 9.395 9.395 0 0 0 1.457 4.111l.002.004a9.25 9.25 0 0 0 2.846 2.846l.004.003a9.394 9.394 0 0 0 4.092 1.456.5.5 0 0 0 .541-.5V8.448a.5.5 0 0 0-.428-.508 6.92 6.92 0 0 1-1.512-.377.5.5 0 0 0-.528.112l-.633.634a.5.5 0 0 1-.601.08A8.5 8.5 0 0 1 4.11 5.203a.5.5 0 0 1 .081-.6l.634-.634a.5.5 0 0 0 .112-.527V3.44a6.92 6.92 0 0 1-.377-1.512.5.5 0 0 0-.17-.307ZM4.054.5A1.5 1.5 0 0 1 5.55 1.79v.005c.06.442.167.877.323 1.295l-.468.175.468-.176a1.5 1.5 0 0 1-.337 1.583l-.002.002-.359.358a7.5 7.5 0 0 0 2.293 2.293l.358-.359.002-.001a1.5 1.5 0 0 1 1.582-.338 5.92 5.92 0 0 0 1.295.322h.005A1.5 1.5 0 0 1 12 8.467V9.96M9.146.646a.5.5 0 0 1 .708 0l2 2a.5.5 0 0 1 0 .708l-2 2a.5.5 0 0 1-.708-.708L10.293 3.5H7.5a.5.5 0 1 1 0-1h2.793L9.146 1.354a.5.5 0 0 1 0-.708Z" clip-rule="evenodd"/>
</svg>
