<svg xmlns="http://www.w3.org/2000/svg" width="13" height="12" fill="none" viewBox="0 0 13 12">
  <path fill="#000" fill-rule="evenodd" d="M4.39 1.62a.5.5 0 0 0-.33-.12H2.555a.5.5 0 0 0-.497.541 9.395 9.395 0 0 0 1.457 4.092.5.5 0 1 1-.84.544 10.395 10.395 0 0 1-1.612-4.533l-.001-.009A1.5 1.5 0 0 1 2.555.5h1.498A1.5 1.5 0 0 1 5.55 1.79v.005c.06.442.167.877.323 1.295l-.468.175.468-.176a1.5 1.5 0 0 1-.337 1.583l-.002.002-.635.635A.5.5 0 0 1 4.19 4.6l.634-.633a.5.5 0 0 0 .112-.527 6.92 6.92 0 0 1-.377-1.512.5.5 0 0 0-.17-.307Zm6.756-.974a.5.5 0 1 1 .708.708L6.56 6.646a7.5 7.5 0 0 0 .907.679l.358-.359.002-.001a1.5 1.5 0 0 1 1.582-.338 5.92 5.92 0 0 0 1.295.322l.005.001A1.5 1.5 0 0 1 12 8.447v1.497M11.146.646 5.531 6.262Z" clip-rule="evenodd"/>
</svg>
