<svg xmlns="http://www.w3.org/2000/svg" width="13" height="12" fill="none" viewBox="0 0 13 12">
  <g clip-path="url(#a)">
    <path fill="#000" fill-rule="evenodd" d="M1.661 1.036a.5.5 0 0 1 .556-.083l9.546 4.597a.5.5 0 0 1 0 .9l-9.546 4.597a.5.5 0 0 1-.684-.63L3.233 6l-1.7-4.417a.5.5 0 0 1 .128-.547ZM4.111 6.5 2.92 9.599 9.355 6.5H4.11Zm5.244-1H4.11L2.92 2.401 9.355 5.5Z" clip-rule="evenodd"/>
  </g>
  <defs>
    <clipPath id="a">
      <path fill="#fff" d="M0 0h12v12H0z" transform="translate(.5)"/>
    </clipPath>
  </defs>
</svg>
