<svg xmlns="http://www.w3.org/2000/svg" width="13" height="12" fill="none" viewBox="0 0 13 12">
  <path fill="#000" fill-rule="evenodd" d="M2.894 2.523c-.162.03-.296.086-.374.164-.077.077-.134.211-.164.374a1.404 1.404 0 0 0-.023.242v.01c0 .001 0 0 0 0v-.001m.56-.79c.076-.013.143-.02.191-.021Zm.191-.021c.024-.001.042-.002.052-.001Zm.052-.001h.01Zm.01 0c.001 0 .001 0 0 0Zm0 0Zm0 0s-.002 0 .02-.5Zm.026-1h6.662a1.51 1.51 0 0 1 .133.003c.083.005.197.015.327.04.245.046.611.155.893.437.281.281.39.648.437.893a2.494 2.494 0 0 1 .043.46V6a.5.5 0 0 1-1 0V3.308c0-.011 0-.03-.002-.054a1.473 1.473 0 0 0-.023-.195c-.032-.166-.09-.3-.162-.372-.073-.073-.206-.13-.373-.162a1.492 1.492 0 0 0-.249-.025H3.144l.023-.5m.005-.5h-.031Zm-.031 0c-.026 0-.06 0-.102.002Zm-.102.002a2.403 2.403 0 0 0-.328.037Zm-.328.037c-.247.046-.613.156-.898.44Zm7.137.96c-.001 0 0 0 0 0Zm-8.035-.52c-.284.285-.394.651-.44.899Zm-.44.899c-.024.13-.034.244-.038.327Zm-.038.327a2.065 2.065 0 0 0-.002.102Zm-.002.102v.032Zm0 .032v.002Zm0 .002v4.317a1.517 1.517 0 0 0 .002.135c.003.083.012.197.036.328.046.248.156.614.442.9.286.285.651.395.9.441a2.37 2.37 0 0 0 .462.038H8.96l-1.147 1.146a.5.5 0 1 0 .707.708l2-2a.5.5 0 0 0 0-.707l-2-2a.5.5 0 1 0-.707.707L8.96 8.5H3.167m-.023 0h-.061a1.371 1.371 0 0 1-.189-.021c-.16-.03-.295-.086-.374-.166-.08-.08-.136-.214-.165-.374a1.371 1.371 0 0 1-.022-.24v-.01m.811.812Zm-.811-5.189v4.379-.002m1-3.852a.5.5 0 0 1 .5-.5h5.334a.5.5 0 0 1 0 1H3.833a.5.5 0 0 1-.5-.5Zm0 1.667a.5.5 0 0 1 .5-.5h3.334a.5.5 0 0 1 0 1H3.833a.5.5 0 0 1-.5-.5Zm0 1.666a.5.5 0 0 1 .5-.5h1.334a.5.5 0 1 1 0 1H3.833a.5.5 0 0 1-.5-.5Z" clip-rule="evenodd"/>
</svg>
