<svg width="87" height="96" viewBox="0 0 87 96" fill="none" xmlns="http://www.w3.org/2000/svg">
<path d="M9.0625 22.6081C9.0625 21.251 9.61418 19.9521 10.5909 19.0098L20.4847 9.46422C21.4167 8.565 22.6612 8.0625 23.9563 8.0625H82C84.7614 8.0625 87 10.3011 87 13.0625V90.0625C87 92.8239 84.7614 95.0625 82 95.0625H14.0625C11.3011 95.0625 9.0625 92.8239 9.0625 90.0625V22.6081Z" fill="#EFEBE1"/>
<path d="M76.9375 5V82C76.9375 84.2091 75.1466 86 72.9375 86H5C2.79086 86 1 84.2091 1 82V14.5456C1 13.4599 1.44134 12.4208 2.22268 11.667L12.1165 2.12137C12.8621 1.402 13.8577 1 14.8938 1H72.9375C75.1466 1 76.9375 2.79086 76.9375 5Z" stroke="#7C52FF" stroke-width="2"/>
<rect x="14" y="16" width="49" height="2" fill="#7C52FF"/>
<rect x="14" y="64" width="49" height="2" fill="#7C52FF"/>
<rect x="14" y="72" width="46" height="2" fill="#7C52FF"/>
<rect x="18" y="48" width="39" height="2" fill="#7C52FF"/>
<rect x="14" y="48" width="2" height="2" fill="#7C52FF"/>
<rect x="18" y="24" width="39" height="2" fill="#7C52FF"/>
<rect x="14" y="24" width="2" height="2" fill="#7C52FF"/>
<rect x="18" y="32" width="28" height="2" fill="#7C52FF"/>
<rect x="18" y="56" width="28" height="2" fill="#7C52FF"/>
<rect x="18" y="40" width="40" height="2" fill="#7C52FF"/>
<rect x="14" y="40" width="2" height="2" fill="#7C52FF"/>
</svg>
