<svg aria-hidden="true" aria-label="Coaching Group" class="d-svg d-svg__coachingGroup" viewBox="0 0 24 24"><path d="M10.34 8.5L12 10l1.66-1.5H20a2 2 0 0 0 2-2V4a2 2 0 0 0-2-2H4a2 2 0 0 0-2 2v2.5c0 1.11.9 2 2 2h6.34zm1.66.15l-1.27-1.14H4a1 1 0 0 1-1-1V4a1 1 0 0 1 1-1h16a1 1 0 0 1 1 1v2.5a1 1 0 0 1-1 1h-6.73L12 8.66z"/><path d="M18.99 13a3 3 0 1 1 0 0zM10.99 13a3 3 0 1 1 0 0zM1 20.5C1 18.17 5.67 17 8 17s7 1.17 7 3.5V23H1v-2.5zM15.03 17.05c.35-.03.68-.05.97-.05 2.33 0 7 1.17 7 3.5V23h-6v-2.5c0-1.48-.81-2.61-1.97-3.45z"/></svg>