<svg width="171" height="146" viewBox="0 0 171 146" fill="none" xmlns="http://www.w3.org/2000/svg">
<rect y="0.589966" width="170.5" height="145" rx="14" fill="white" fill-opacity="0.6"/>
<path d="M35.2408 63.5134H20.6705L17.3982 72.59H12.6688L25.9493 37.8123H29.9621L43.2665 72.59H38.561L35.2408 63.5134ZM22.0559 59.7394H33.8794L27.9557 43.4732L22.0559 59.7394ZM60.7652 72.59C60.5104 72.0804 60.3034 71.1727 60.1441 69.867C58.09 72.0008 55.6377 73.0677 52.7873 73.0677C50.2395 73.0677 48.1455 72.3511 46.5054 70.918C44.8811 69.4689 44.069 67.6377 44.069 65.4242C44.069 62.7331 45.0881 60.6471 47.1264 59.1662C49.1806 57.6693 52.0628 56.9209 55.773 56.9209H60.0725V54.8906C60.0725 53.346 59.6107 52.1199 58.6871 51.2122C57.7635 50.2886 56.402 49.8268 54.6026 49.8268C53.0262 49.8268 51.7045 50.2249 50.6376 51.0211C49.5707 51.8173 49.0373 52.7807 49.0373 53.9113H44.5945C44.5945 52.6215 45.0483 51.3794 45.956 50.1851C46.8796 48.9749 48.1216 48.0195 49.6822 47.3188C51.2586 46.6182 52.9864 46.2679 54.8654 46.2679C57.8431 46.2679 60.176 47.0163 61.8639 48.5131C63.5518 49.994 64.4276 52.0403 64.4913 54.6518V66.5469C64.4913 68.9195 64.7939 70.8065 65.399 72.2078V72.59H60.7652ZM53.4322 69.2221C54.8176 69.2221 56.1313 68.8638 57.3734 68.1472C58.6154 67.4306 59.5151 66.4991 60.0725 65.3526V60.0499H56.609C51.1949 60.0499 48.4879 61.6344 48.4879 64.8032C48.4879 66.1886 48.9497 67.2714 49.8733 68.0517C50.7968 68.8319 51.9832 69.2221 53.4322 69.2221Z" fill="black"/>
<path d="M17.7012 96.3634H14.127L13.3242 98.59H12.1641L15.4219 90.0587H16.4062L19.6699 98.59H18.5156L17.7012 96.3634ZM14.4668 95.4376H17.3672L15.9141 91.4474L14.4668 95.4376ZM21.6738 92.2501L21.709 93.047C22.1934 92.4376 22.8262 92.1329 23.6074 92.1329C24.9473 92.1329 25.623 92.8888 25.6348 94.4005V98.59H24.5508V94.3947C24.5469 93.9376 24.4414 93.5997 24.2344 93.381C24.0312 93.1622 23.7129 93.0529 23.2793 93.0529C22.9277 93.0529 22.6191 93.1466 22.3535 93.3341C22.0879 93.5216 21.8809 93.7677 21.7324 94.0724V98.59H20.6484V92.2501H21.6738ZM27.0059 95.3673C27.0059 94.3947 27.2363 93.6134 27.6973 93.0236C28.1582 92.4298 28.7617 92.1329 29.5078 92.1329C30.25 92.1329 30.8379 92.3868 31.2715 92.8947V89.59H32.3555V98.59H31.3594L31.3066 97.9103C30.873 98.4415 30.2695 98.7072 29.4961 98.7072C28.7617 98.7072 28.1621 98.4064 27.6973 97.8048C27.2363 97.2032 27.0059 96.4181 27.0059 95.4493V95.3673ZM28.0898 95.4904C28.0898 96.2091 28.2383 96.7716 28.5352 97.1779C28.832 97.5841 29.2422 97.7872 29.7656 97.7872C30.4531 97.7872 30.9551 97.4786 31.2715 96.8615V93.9493C30.9473 93.3517 30.4492 93.0529 29.7773 93.0529C29.2461 93.0529 28.832 93.2579 28.5352 93.6681C28.2383 94.0782 28.0898 94.6857 28.0898 95.4904ZM37.1074 93.2228C36.9434 93.1954 36.7656 93.1818 36.5742 93.1818C35.8633 93.1818 35.3809 93.4845 35.127 94.09V98.59H34.043V92.2501H35.0977L35.1152 92.9825C35.4707 92.4161 35.9746 92.1329 36.627 92.1329C36.8379 92.1329 36.998 92.1603 37.1074 92.215V93.2228ZM37.7051 95.3615C37.7051 94.7404 37.8262 94.1818 38.0684 93.6857C38.3145 93.1896 38.6543 92.8068 39.0879 92.5372C39.5254 92.2677 40.0234 92.1329 40.582 92.1329C41.4453 92.1329 42.1426 92.4318 42.6738 93.0294C43.209 93.6271 43.4766 94.422 43.4766 95.4142V95.4904C43.4766 96.1075 43.3574 96.6622 43.1191 97.1544C42.8848 97.6427 42.5469 98.0236 42.1055 98.297C41.668 98.5704 41.1641 98.7072 40.5938 98.7072C39.7344 98.7072 39.0371 98.4083 38.502 97.8107C37.9707 97.213 37.7051 96.422 37.7051 95.4376V95.3615ZM38.7949 95.4904C38.7949 96.1935 38.957 96.7579 39.2812 97.1837C39.6094 97.6095 40.0469 97.8224 40.5938 97.8224C41.1445 97.8224 41.582 97.6075 41.9062 97.1779C42.2305 96.7443 42.3926 96.1388 42.3926 95.3615C42.3926 94.6661 42.2266 94.1036 41.8945 93.674C41.5664 93.2404 41.1289 93.0236 40.582 93.0236C40.0469 93.0236 39.6152 93.2365 39.2871 93.6622C38.959 94.088 38.7949 94.6974 38.7949 95.4904ZM46.0137 98.59H44.9297V92.2501H46.0137V98.59ZM44.8418 90.5685C44.8418 90.3927 44.8945 90.2443 45 90.1232C45.1094 90.0021 45.2695 89.9415 45.4805 89.9415C45.6914 89.9415 45.8516 90.0021 45.9609 90.1232C46.0703 90.2443 46.125 90.3927 46.125 90.5685C46.125 90.7443 46.0703 90.8907 45.9609 91.0079C45.8516 91.1251 45.6914 91.1837 45.4805 91.1837C45.2695 91.1837 45.1094 91.1251 45 91.0079C44.8945 90.8907 44.8418 90.7443 44.8418 90.5685ZM47.4902 95.3673C47.4902 94.3947 47.7207 93.6134 48.1816 93.0236C48.6426 92.4298 49.2461 92.1329 49.9922 92.1329C50.7344 92.1329 51.3223 92.3868 51.7559 92.8947V89.59H52.8398V98.59H51.8438L51.791 97.9103C51.3574 98.4415 50.7539 98.7072 49.9805 98.7072C49.2461 98.7072 48.6465 98.4064 48.1816 97.8048C47.7207 97.2032 47.4902 96.4181 47.4902 95.4493V95.3673ZM48.5742 95.4904C48.5742 96.2091 48.7227 96.7716 49.0195 97.1779C49.3164 97.5841 49.7266 97.7872 50.25 97.7872C50.9375 97.7872 51.4395 97.4786 51.7559 96.8615V93.9493C51.4316 93.3517 50.9336 93.0529 50.2617 93.0529C49.7305 93.0529 49.3164 93.2579 49.0195 93.6681C48.7227 94.0782 48.5742 94.6857 48.5742 95.4904Z" fill="black"/>
<path d="M16.1191 112.139H14.1152V115.59H12.9844V107.059H15.8086C16.7695 107.059 17.5078 107.277 18.0234 107.715C18.543 108.152 18.8027 108.789 18.8027 109.625C18.8027 110.156 18.6582 110.619 18.3691 111.014C18.084 111.408 17.6855 111.703 17.1738 111.899L19.1777 115.52V115.59H17.9707L16.1191 112.139ZM14.1152 111.219H15.8438C16.4023 111.219 16.8457 111.074 17.1738 110.785C17.5059 110.496 17.6719 110.109 17.6719 109.625C17.6719 109.098 17.5137 108.693 17.1973 108.412C16.8848 108.131 16.4316 107.988 15.8379 107.984H14.1152V111.219ZM19.9277 112.361C19.9277 111.74 20.0488 111.182 20.291 110.686C20.5371 110.19 20.877 109.807 21.3105 109.537C21.748 109.268 22.2461 109.133 22.8047 109.133C23.668 109.133 24.3652 109.432 24.8965 110.029C25.4316 110.627 25.6992 111.422 25.6992 112.414V112.49C25.6992 113.108 25.5801 113.662 25.3418 114.154C25.1074 114.643 24.7695 115.024 24.3281 115.297C23.8906 115.57 23.3867 115.707 22.8164 115.707C21.957 115.707 21.2598 115.408 20.7246 114.811C20.1934 114.213 19.9277 113.422 19.9277 112.438V112.361ZM21.0176 112.49C21.0176 113.193 21.1797 113.758 21.5039 114.184C21.832 114.609 22.2695 114.822 22.8164 114.822C23.3672 114.822 23.8047 114.608 24.1289 114.178C24.4531 113.744 24.6152 113.139 24.6152 112.361C24.6152 111.666 24.4492 111.104 24.1172 110.674C23.7891 110.24 23.3516 110.024 22.8047 110.024C22.2695 110.024 21.8379 110.236 21.5098 110.662C21.1816 111.088 21.0176 111.697 21.0176 112.49ZM32.4258 112.49C32.4258 113.459 32.2031 114.238 31.7578 114.828C31.3125 115.414 30.7148 115.707 29.9648 115.707C29.1641 115.707 28.5449 115.424 28.1074 114.858L28.0547 115.59H27.0586V106.59H28.1426V109.947C28.5801 109.404 29.1836 109.133 29.9531 109.133C30.7227 109.133 31.3262 109.424 31.7637 110.006C32.2051 110.588 32.4258 111.385 32.4258 112.397V112.49ZM31.3418 112.367C31.3418 111.629 31.1992 111.059 30.9141 110.656C30.6289 110.254 30.2188 110.053 29.6836 110.053C28.9688 110.053 28.4551 110.385 28.1426 111.049V113.791C28.4746 114.455 28.9922 114.787 29.6953 114.787C30.2148 114.787 30.6191 114.586 30.9082 114.184C31.1973 113.781 31.3418 113.176 31.3418 112.367ZM33.5098 112.361C33.5098 111.74 33.6309 111.182 33.873 110.686C34.1191 110.19 34.459 109.807 34.8926 109.537C35.3301 109.268 35.8281 109.133 36.3867 109.133C37.25 109.133 37.9473 109.432 38.4785 110.029C39.0137 110.627 39.2812 111.422 39.2812 112.414V112.49C39.2812 113.108 39.1621 113.662 38.9238 114.154C38.6895 114.643 38.3516 115.024 37.9102 115.297C37.4727 115.57 36.9688 115.707 36.3984 115.707C35.5391 115.707 34.8418 115.408 34.3066 114.811C33.7754 114.213 33.5098 113.422 33.5098 112.438V112.361ZM34.5996 112.49C34.5996 113.193 34.7617 113.758 35.0859 114.184C35.4141 114.609 35.8516 114.822 36.3984 114.822C36.9492 114.822 37.3867 114.608 37.7109 114.178C38.0352 113.744 38.1973 113.139 38.1973 112.361C38.1973 111.666 38.0312 111.104 37.6992 110.674C37.3711 110.24 36.9336 110.024 36.3867 110.024C35.8516 110.024 35.4199 110.236 35.0918 110.662C34.7637 111.088 34.5996 111.697 34.5996 112.49ZM42.1113 107.715V109.25H43.2949V110.088H42.1113V114.02C42.1113 114.274 42.1641 114.465 42.2695 114.594C42.375 114.719 42.5547 114.781 42.8086 114.781C42.9336 114.781 43.1055 114.758 43.3242 114.711V115.59C43.0391 115.668 42.7617 115.707 42.4922 115.707C42.0078 115.707 41.6426 115.561 41.3965 115.268C41.1504 114.975 41.0273 114.559 41.0273 114.02V110.088H39.873V109.25H41.0273V107.715H42.1113ZM44.1621 112.361C44.1621 111.74 44.2832 111.182 44.5254 110.686C44.7715 110.19 45.1113 109.807 45.5449 109.537C45.9824 109.268 46.4805 109.133 47.0391 109.133C47.9023 109.133 48.5996 109.432 49.1309 110.029C49.666 110.627 49.9336 111.422 49.9336 112.414V112.49C49.9336 113.108 49.8145 113.662 49.5762 114.154C49.3418 114.643 49.0039 115.024 48.5625 115.297C48.125 115.57 47.6211 115.707 47.0508 115.707C46.1914 115.707 45.4941 115.408 44.959 114.811C44.4277 114.213 44.1621 113.422 44.1621 112.438V112.361ZM45.252 112.49C45.252 113.193 45.4141 113.758 45.7383 114.184C46.0664 114.609 46.5039 114.822 47.0508 114.822C47.6016 114.822 48.0391 114.608 48.3633 114.178C48.6875 113.744 48.8496 113.139 48.8496 112.361C48.8496 111.666 48.6836 111.104 48.3516 110.674C48.0234 110.24 47.5859 110.024 47.0391 110.024C46.5039 110.024 46.0723 110.236 45.7441 110.662C45.416 111.088 45.252 111.697 45.252 112.49Z" fill="black"/>
<rect x="0.5" y="1.08997" width="169.5" height="144" rx="13.5" stroke="black" stroke-opacity="0.1"/>
</svg>
