<svg width="165" height="146" viewBox="0 0 165 146" fill="none" xmlns="http://www.w3.org/2000/svg">
<g clip-path="url(#clip0_347_13501)">
<rect y="0.589966" width="165" height="145" rx="14" fill="white" fill-opacity="0.6"/>
<path d="M18.0156 85.0587H32.0586V87.09H15.5938V58.6525H18.0156V85.0587ZM36.7578 87.09H34.4141V65.9572H36.7578V87.09ZM34.0039 59.8439C34.0039 59.4012 34.1471 59.0301 34.4336 58.7306C34.7201 58.4181 35.1107 58.2618 35.6055 58.2618C36.1003 58.2618 36.4909 58.4181 36.7773 58.7306C37.0768 59.0301 37.2266 59.4012 37.2266 59.8439C37.2266 60.2866 37.0768 60.6577 36.7773 60.9572C36.4909 61.2566 36.1003 61.4064 35.6055 61.4064C35.1107 61.4064 34.7201 61.2566 34.4336 60.9572C34.1471 60.6577 34.0039 60.2866 34.0039 59.8439ZM40.1875 76.3282C40.1875 73.021 40.9167 70.4038 42.375 68.4767C43.8464 66.5366 45.8385 65.5665 48.3516 65.5665C51.2292 65.5665 53.4167 66.7124 54.9141 69.004L55.0312 65.9572H57.2188V86.6603C57.2188 89.3816 56.457 91.5366 54.9336 93.1251C53.4102 94.7137 51.3464 95.5079 48.7422 95.5079C47.2708 95.5079 45.8646 95.1759 44.5234 94.5118C43.1953 93.8608 42.1471 92.9884 41.3789 91.8947L42.6875 90.4884C44.3411 92.5197 46.3073 93.5353 48.5859 93.5353C50.5391 93.5353 52.0625 92.9559 53.1562 91.797C54.25 90.6512 54.8164 89.0561 54.8555 87.0118V84.3556C53.3581 86.4389 51.1771 87.4806 48.3125 87.4806C45.8646 87.4806 43.8984 86.504 42.4141 84.5509C40.9297 82.5978 40.1875 79.9611 40.1875 76.6407V76.3282ZM42.5508 76.7384C42.5508 79.4337 43.0911 81.5626 44.1719 83.1251C45.2526 84.6746 46.776 85.4493 48.7422 85.4493C51.6198 85.4493 53.6576 84.1603 54.8555 81.5822V71.7579C54.3086 70.4038 53.5208 69.3751 52.4922 68.672C51.4635 67.9559 50.2266 67.5978 48.7812 67.5978C46.8151 67.5978 45.2852 68.3725 44.1914 69.922C43.0977 71.4585 42.5508 73.7306 42.5508 76.7384ZM63.6367 69.5314C64.4049 68.2684 65.388 67.2918 66.5859 66.6017C67.7839 65.9116 69.0924 65.5665 70.5117 65.5665C72.7773 65.5665 74.4635 66.2045 75.5703 67.4806C76.6771 68.7566 77.237 70.6707 77.25 73.2228V87.09H74.9258V73.2032C74.9128 71.3152 74.5091 69.909 73.7148 68.9845C72.9336 68.06 71.6771 67.5978 69.9453 67.5978C68.5 67.5978 67.2174 68.0535 66.0977 68.965C64.9909 69.8634 64.1706 71.0809 63.6367 72.6173V87.09H61.3125V57.09H63.6367V69.5314ZM84.8984 60.547V65.9572H89.2734V67.8712H84.8984V81.9532C84.8984 83.1251 85.1068 83.9975 85.5234 84.5704C85.9531 85.1434 86.6628 85.4298 87.6523 85.4298C88.043 85.4298 88.6745 85.3647 89.5469 85.2345L89.6445 87.1486C89.0326 87.3699 88.1992 87.4806 87.1445 87.4806C85.543 87.4806 84.3776 87.0184 83.6484 86.0939C82.9193 85.1564 82.5547 83.7827 82.5547 81.9728V67.8712H78.668V65.9572H82.5547V60.547H84.8984Z" fill="black"/>
<path opacity="0.07" d="M121.781 114.59V29.2775H145.629C152.621 29.2775 158.891 30.879 164.438 34.0822C169.984 37.2462 174.301 41.797 177.387 47.7345C180.512 53.672 182.074 60.4298 182.074 68.0079V75.8595C182.074 83.4767 180.531 90.2345 177.445 96.1329C174.359 102.031 170.004 106.582 164.379 109.785C158.793 112.988 152.367 114.59 145.102 114.59H121.781ZM128.988 35.4298V108.496H145.16C154.145 108.496 161.352 105.527 166.781 99.59C172.211 93.6134 174.926 85.547 174.926 75.3907V67.8907C174.926 58.0861 172.25 50.2345 166.898 44.3361C161.547 38.4376 154.496 35.4689 145.746 35.4298H128.988ZM201.621 79.8439V114.59H194.414V29.2775H223.477C232.344 29.2775 239.336 31.5431 244.453 36.0743C249.609 40.6056 252.188 46.8361 252.188 54.7657C252.188 62.7736 249.707 68.965 244.746 73.34C239.824 77.6759 232.676 79.8439 223.301 79.8439H201.621ZM201.621 73.7501H223.477C230.469 73.7501 235.801 72.09 239.473 68.7697C243.145 65.4493 244.98 60.8204 244.98 54.8829C244.98 48.9845 243.145 44.297 239.473 40.8204C235.84 37.3048 230.664 35.5079 223.945 35.4298H201.621V73.7501Z" fill="black"/>
</g>
<rect x="0.5" y="1.08997" width="164" height="144" rx="13.5" stroke="black" stroke-opacity="0.1"/>
<defs>
<clipPath id="clip0_347_13501">
<rect y="0.589966" width="165" height="145" rx="14" fill="white"/>
</clipPath>
</defs>
</svg>
