<svg width="171" height="146" viewBox="0 0 171 146" fill="none" xmlns="http://www.w3.org/2000/svg">
<rect x="0.5" y="0.589966" width="170.5" height="145" rx="14" fill="white" fill-opacity="0.6"/>
<path d="M35.7408 63.5134H21.1705L17.8982 72.59H13.1688L26.4493 37.8123H30.4621L43.7665 72.59H39.061L35.7408 63.5134ZM22.5559 59.7394H34.3794L28.4557 43.4732L22.5559 59.7394ZM61.2652 72.59C61.0104 72.0804 60.8034 71.1727 60.6441 69.867C58.59 72.0008 56.1377 73.0677 53.2873 73.0677C50.7395 73.0677 48.6455 72.3511 47.0054 70.918C45.3811 69.4689 44.569 67.6377 44.569 65.4242C44.569 62.7331 45.5881 60.6471 47.6264 59.1662C49.6806 57.6693 52.5628 56.9209 56.273 56.9209H60.5725V54.8906C60.5725 53.346 60.1107 52.1199 59.1871 51.2122C58.2635 50.2886 56.902 49.8268 55.1026 49.8268C53.5262 49.8268 52.2045 50.2249 51.1376 51.0211C50.0707 51.8173 49.5373 52.7807 49.5373 53.9113H45.0945C45.0945 52.6215 45.5483 51.3794 46.456 50.1851C47.3796 48.9749 48.6216 48.0195 50.1822 47.3188C51.7586 46.6182 53.4864 46.2679 55.3654 46.2679C58.3431 46.2679 60.676 47.0163 62.3639 48.5131C64.0518 49.994 64.9276 52.0403 64.9913 54.6518V66.5469C64.9913 68.9195 65.2939 70.8065 65.899 72.2078V72.59H61.2652ZM53.9322 69.2221C55.3176 69.2221 56.6313 68.8638 57.8734 68.1472C59.1154 67.4306 60.0151 66.4991 60.5725 65.3526V60.0499H57.109C51.6949 60.0499 48.9879 61.6344 48.9879 64.8032C48.9879 66.1886 49.4497 67.2714 50.3733 68.0517C51.2968 68.8319 52.4832 69.2221 53.9322 69.2221Z" fill="black"/>
<path d="M14.6211 97.67H18.6641V98.59H13.4902V90.0587H14.6211V97.67ZM20.9551 98.59H19.8711V92.2501H20.9551V98.59ZM19.7832 90.5685C19.7832 90.3927 19.8359 90.2443 19.9414 90.1232C20.0508 90.0021 20.2109 89.9415 20.4219 89.9415C20.6328 89.9415 20.793 90.0021 20.9023 90.1232C21.0117 90.2443 21.0664 90.3927 21.0664 90.5685C21.0664 90.7443 21.0117 90.8907 20.9023 91.0079C20.793 91.1251 20.6328 91.1837 20.4219 91.1837C20.2109 91.1837 20.0508 91.1251 19.9414 91.0079C19.8359 90.8907 19.7832 90.7443 19.7832 90.5685ZM23.7207 92.2501L23.7559 93.047C24.2402 92.4376 24.873 92.1329 25.6543 92.1329C26.9941 92.1329 27.6699 92.8888 27.6816 94.4005V98.59H26.5977V94.3947C26.5938 93.9376 26.4883 93.5997 26.2812 93.381C26.0781 93.1622 25.7598 93.0529 25.3262 93.0529C24.9746 93.0529 24.666 93.1466 24.4004 93.3341C24.1348 93.5216 23.9277 93.7677 23.7793 94.0724V98.59H22.6953V92.2501H23.7207ZM33.2305 97.963C32.8086 98.4591 32.1895 98.7072 31.373 98.7072C30.6973 98.7072 30.1816 98.5118 29.8262 98.1212C29.4746 97.7267 29.2969 97.1447 29.293 96.3751V92.2501H30.377V96.3458C30.377 97.3068 30.7676 97.7872 31.5488 97.7872C32.377 97.7872 32.9277 97.4786 33.2012 96.8615V92.2501H34.2852V98.59H33.2539L33.2305 97.963ZM38.0645 94.5646L39.4707 92.2501H40.7363L38.6621 95.3849L40.8008 98.59H39.5469L38.082 96.2169L36.6172 98.59H35.3574L37.4961 95.3849L35.4219 92.2501H36.6758L38.0645 94.5646ZM44.8262 95.1271C44.8262 94.2443 44.9434 93.3966 45.1777 92.5841C45.416 91.7716 45.7695 91.0333 46.2383 90.3693C46.707 89.7052 47.1934 89.2365 47.6973 88.963L47.9199 89.6779C47.3496 90.1154 46.8809 90.7833 46.5137 91.6818C46.1504 92.5802 45.9512 93.5861 45.916 94.6993L45.9102 95.1974C45.9102 96.7052 46.1855 98.0138 46.7363 99.1232C47.0684 99.7872 47.4629 100.307 47.9199 100.682L47.6973 101.344C47.1777 101.055 46.6816 100.57 46.209 99.8907C45.2871 98.5626 44.8262 96.9747 44.8262 95.1271ZM55.1445 90.0587V95.8595C55.1406 96.6642 54.8867 97.3224 54.3828 97.8341C53.8828 98.3458 53.2031 98.6329 52.3438 98.6954L52.0449 98.7072C51.1113 98.7072 50.3672 98.4552 49.8125 97.9513C49.2578 97.4474 48.9766 96.754 48.9688 95.8712V90.0587H50.082V95.8361C50.082 96.4532 50.252 96.9337 50.5918 97.2775C50.9316 97.6173 51.416 97.7872 52.0449 97.7872C52.6816 97.7872 53.168 97.6173 53.5039 97.2775C53.8438 96.9376 54.0137 96.4591 54.0137 95.8419V90.0587H55.1445ZM62.1172 95.4904C62.1172 96.4591 61.8945 97.2384 61.4492 97.8282C61.0039 98.4142 60.4062 98.7072 59.6562 98.7072C58.8555 98.7072 58.2363 98.424 57.7988 97.8575L57.7461 98.59H56.75V89.59H57.834V92.9474C58.2715 92.4044 58.875 92.1329 59.6445 92.1329C60.4141 92.1329 61.0176 92.424 61.4551 93.006C61.8965 93.588 62.1172 94.3849 62.1172 95.3966V95.4904ZM61.0332 95.3673C61.0332 94.629 60.8906 94.0587 60.6055 93.6564C60.3203 93.254 59.9102 93.0529 59.375 93.0529C58.6602 93.0529 58.1465 93.3849 57.834 94.049V96.7911C58.166 97.4552 58.6836 97.7872 59.3867 97.7872C59.9062 97.7872 60.3105 97.5861 60.5996 97.1837C60.8887 96.7814 61.0332 96.1759 61.0332 95.3673ZM67.4023 97.963C66.9805 98.4591 66.3613 98.7072 65.5449 98.7072C64.8691 98.7072 64.3535 98.5118 63.998 98.1212C63.6465 97.7267 63.4688 97.1447 63.4648 96.3751V92.2501H64.5488V96.3458C64.5488 97.3068 64.9395 97.7872 65.7207 97.7872C66.5488 97.7872 67.0996 97.4786 67.373 96.8615V92.2501H68.457V98.59H67.4258L67.4023 97.963ZM71.1348 92.2501L71.1699 93.047C71.6543 92.4376 72.2871 92.1329 73.0684 92.1329C74.4082 92.1329 75.084 92.8888 75.0957 94.4005V98.59H74.0117V94.3947C74.0078 93.9376 73.9023 93.5997 73.6953 93.381C73.4922 93.1622 73.1738 93.0529 72.7402 93.0529C72.3887 93.0529 72.0801 93.1466 71.8145 93.3341C71.5488 93.5216 71.3418 93.7677 71.1934 94.0724V98.59H70.1094V92.2501H71.1348ZM78.2012 90.715V92.2501H79.3848V93.088H78.2012V97.0197C78.2012 97.2736 78.2539 97.465 78.3594 97.5939C78.4648 97.7189 78.6445 97.7814 78.8984 97.7814C79.0234 97.7814 79.1953 97.7579 79.4141 97.7111V98.59C79.1289 98.6681 78.8516 98.7072 78.582 98.7072C78.0977 98.7072 77.7324 98.5607 77.4863 98.2677C77.2402 97.9747 77.1172 97.5587 77.1172 97.0197V93.088H75.9629V92.2501H77.1172V90.715H78.2012ZM84.5703 97.963C84.1484 98.4591 83.5293 98.7072 82.7129 98.7072C82.0371 98.7072 81.5215 98.5118 81.166 98.1212C80.8145 97.7267 80.6367 97.1447 80.6328 96.3751V92.2501H81.7168V96.3458C81.7168 97.3068 82.1074 97.7872 82.8887 97.7872C83.7168 97.7872 84.2676 97.4786 84.541 96.8615V92.2501H85.625V98.59H84.5938L84.5703 97.963ZM89.7793 95.1857C89.7793 96.0568 89.6641 96.8927 89.4336 97.6935C89.207 98.4904 88.8574 99.2267 88.3848 99.9025C87.916 100.578 87.4238 101.059 86.9082 101.344L86.6797 100.682C87.2812 100.221 87.7637 99.506 88.127 98.5372C88.4941 97.5646 88.6816 96.4865 88.6895 95.3029V95.1154C88.6895 94.295 88.6035 93.5333 88.4316 92.8302C88.2598 92.1232 88.0195 91.4904 87.7109 90.9318C87.4062 90.3732 87.0625 89.9376 86.6797 89.6251L86.9082 88.963C87.4238 89.2482 87.9141 89.7247 88.3789 90.3927C88.8477 91.0607 89.1973 91.797 89.4277 92.6017C89.6621 93.4064 89.7793 94.2677 89.7793 95.1857Z" fill="black"/>
<path d="M13.4902 115.59V107.059H15.8984C16.6406 107.059 17.2969 107.223 17.8672 107.551C18.4375 107.879 18.877 108.346 19.1855 108.951C19.498 109.557 19.6562 110.252 19.6602 111.037V111.582C19.6602 112.387 19.5039 113.092 19.1914 113.697C18.8828 114.303 18.4395 114.768 17.8613 115.092C17.2871 115.416 16.6172 115.582 15.8516 115.59H13.4902ZM14.6152 107.984V114.67H15.7988C16.666 114.67 17.3398 114.401 17.8203 113.861C18.3047 113.322 18.5469 112.555 18.5469 111.559V111.061C18.5469 110.092 18.3184 109.34 17.8613 108.805C17.4082 108.266 16.7637 107.992 15.9277 107.984H14.6152ZM23.8262 115.707C22.9668 115.707 22.2676 115.426 21.7285 114.863C21.1895 114.297 20.9199 113.541 20.9199 112.596V112.397C20.9199 111.768 21.0391 111.207 21.2773 110.715C21.5195 110.219 21.8555 109.832 22.2852 109.555C22.7188 109.274 23.1875 109.133 23.6914 109.133C24.5156 109.133 25.1562 109.404 25.6133 109.947C26.0703 110.49 26.2988 111.268 26.2988 112.279V112.731H22.0039C22.0195 113.356 22.2012 113.861 22.5488 114.248C22.9004 114.631 23.3457 114.822 23.8848 114.822C24.2676 114.822 24.5918 114.744 24.8574 114.588C25.123 114.432 25.3555 114.225 25.5547 113.967L26.2168 114.483C25.6855 115.299 24.8887 115.707 23.8262 115.707ZM23.6914 110.024C23.2539 110.024 22.8867 110.184 22.5898 110.504C22.293 110.82 22.1094 111.266 22.0391 111.84H25.2148V111.758C25.1836 111.207 25.0352 110.781 24.7695 110.481C24.5039 110.176 24.1445 110.024 23.6914 110.024ZM28.0918 115.59V110.088H27.0898V109.25H28.0918V108.6C28.0918 107.92 28.2734 107.395 28.6367 107.024C29 106.652 29.5137 106.467 30.1777 106.467C30.4277 106.467 30.6758 106.5 30.9219 106.567L30.8633 107.445C30.6797 107.41 30.4844 107.393 30.2773 107.393C29.9258 107.393 29.6543 107.496 29.4629 107.703C29.2715 107.906 29.1758 108.199 29.1758 108.582V109.25H30.5293V110.088H29.1758V115.59H28.0918ZM35.6445 115.59C35.582 115.465 35.5312 115.242 35.4922 114.922C34.9883 115.445 34.3867 115.707 33.6875 115.707C33.0625 115.707 32.5488 115.531 32.1465 115.18C31.748 114.824 31.5488 114.375 31.5488 113.832C31.5488 113.172 31.7988 112.66 32.2988 112.297C32.8027 111.93 33.5098 111.746 34.4199 111.746H35.4746V111.248C35.4746 110.869 35.3613 110.568 35.1348 110.346C34.9082 110.119 34.5742 110.006 34.1328 110.006C33.7461 110.006 33.4219 110.104 33.1602 110.299C32.8984 110.494 32.7676 110.731 32.7676 111.008H31.6777C31.6777 110.692 31.7891 110.387 32.0117 110.094C32.2383 109.797 32.543 109.563 32.9258 109.391C33.3125 109.219 33.7363 109.133 34.1973 109.133C34.9277 109.133 35.5 109.317 35.9141 109.684C36.3281 110.047 36.543 110.549 36.5586 111.19V114.108C36.5586 114.69 36.6328 115.152 36.7812 115.496V115.59H35.6445ZM33.8457 114.764C34.1855 114.764 34.5078 114.676 34.8125 114.5C35.1172 114.324 35.3379 114.096 35.4746 113.815V112.514H34.625C33.2969 112.514 32.6328 112.902 32.6328 113.68C32.6328 114.02 32.7461 114.285 32.9727 114.477C33.1992 114.668 33.4902 114.764 33.8457 114.764ZM42.1719 114.963C41.75 115.459 41.1309 115.707 40.3145 115.707C39.6387 115.707 39.123 115.512 38.7676 115.121C38.416 114.727 38.2383 114.145 38.2344 113.375V109.25H39.3184V113.346C39.3184 114.307 39.709 114.787 40.4902 114.787C41.3184 114.787 41.8691 114.479 42.1426 113.861V109.25H43.2266V115.59H42.1953L42.1719 114.963ZM46.0566 115.59H44.9727V106.59H46.0566V115.59ZM49.2676 107.715V109.25H50.4512V110.088H49.2676V114.02C49.2676 114.274 49.3203 114.465 49.4258 114.594C49.5312 114.719 49.7109 114.781 49.9648 114.781C50.0898 114.781 50.2617 114.758 50.4805 114.711V115.59C50.1953 115.668 49.918 115.707 49.6484 115.707C49.1641 115.707 48.7988 115.561 48.5527 115.268C48.3066 114.975 48.1836 114.559 48.1836 114.02V110.088H47.0293V109.25H48.1836V107.715H49.2676ZM58.3906 113.908C58.3906 113.615 58.2793 113.389 58.0566 113.229C57.8379 113.065 57.4531 112.924 56.9023 112.807C56.3555 112.69 55.9199 112.549 55.5957 112.385C55.2754 112.221 55.0371 112.026 54.8809 111.799C54.7285 111.572 54.6523 111.303 54.6523 110.99C54.6523 110.471 54.8711 110.031 55.3086 109.672C55.75 109.313 56.3125 109.133 56.9961 109.133C57.7148 109.133 58.2969 109.318 58.7422 109.69C59.1914 110.061 59.416 110.535 59.416 111.113H58.3262C58.3262 110.817 58.1992 110.561 57.9453 110.346C57.6953 110.131 57.3789 110.024 56.9961 110.024C56.6016 110.024 56.293 110.109 56.0703 110.281C55.8477 110.453 55.7363 110.678 55.7363 110.955C55.7363 111.217 55.8398 111.414 56.0469 111.547C56.2539 111.68 56.627 111.807 57.166 111.928C57.709 112.049 58.1484 112.193 58.4844 112.361C58.8203 112.529 59.0684 112.733 59.2285 112.971C59.3926 113.205 59.4746 113.492 59.4746 113.832C59.4746 114.399 59.248 114.854 58.7949 115.197C58.3418 115.537 57.7539 115.707 57.0312 115.707C56.5234 115.707 56.0742 115.617 55.6836 115.438C55.293 115.258 54.9863 115.008 54.7637 114.688C54.5449 114.363 54.4355 114.014 54.4355 113.639H55.5195C55.5391 114.002 55.6836 114.291 55.9531 114.506C56.2266 114.717 56.5859 114.822 57.0312 114.822C57.4414 114.822 57.7695 114.74 58.0156 114.576C58.2656 114.408 58.3906 114.186 58.3906 113.908ZM64.8008 115.59C64.7383 115.465 64.6875 115.242 64.6484 114.922C64.1445 115.445 63.543 115.707 62.8438 115.707C62.2188 115.707 61.7051 115.531 61.3027 115.18C60.9043 114.824 60.7051 114.375 60.7051 113.832C60.7051 113.172 60.9551 112.66 61.4551 112.297C61.959 111.93 62.666 111.746 63.5762 111.746H64.6309V111.248C64.6309 110.869 64.5176 110.568 64.291 110.346C64.0645 110.119 63.7305 110.006 63.2891 110.006C62.9023 110.006 62.5781 110.104 62.3164 110.299C62.0547 110.494 61.9238 110.731 61.9238 111.008H60.834C60.834 110.692 60.9453 110.387 61.168 110.094C61.3945 109.797 61.6992 109.563 62.082 109.391C62.4688 109.219 62.8926 109.133 63.3535 109.133C64.084 109.133 64.6562 109.317 65.0703 109.684C65.4844 110.047 65.6992 110.549 65.7148 111.19V114.108C65.7148 114.69 65.7891 115.152 65.9375 115.496V115.59H64.8008ZM63.002 114.764C63.3418 114.764 63.6641 114.676 63.9688 114.5C64.2734 114.324 64.4941 114.096 64.6309 113.815V112.514H63.7812C62.4531 112.514 61.7891 112.902 61.7891 113.68C61.7891 114.02 61.9023 114.285 62.1289 114.477C62.3555 114.668 62.6465 114.764 63.002 114.764ZM68.4395 109.25L68.4746 110.047C68.959 109.438 69.5918 109.133 70.373 109.133C71.7129 109.133 72.3887 109.889 72.4004 111.401V115.59H71.3164V111.395C71.3125 110.938 71.207 110.6 71 110.381C70.7969 110.162 70.4785 110.053 70.0449 110.053C69.6934 110.053 69.3848 110.147 69.1191 110.334C68.8535 110.522 68.6465 110.768 68.498 111.072V115.59H67.4141V109.25H68.4395ZM77.7266 113.908C77.7266 113.615 77.6152 113.389 77.3926 113.229C77.1738 113.065 76.7891 112.924 76.2383 112.807C75.6914 112.69 75.2559 112.549 74.9316 112.385C74.6113 112.221 74.373 112.026 74.2168 111.799C74.0645 111.572 73.9883 111.303 73.9883 110.99C73.9883 110.471 74.207 110.031 74.6445 109.672C75.0859 109.313 75.6484 109.133 76.332 109.133C77.0508 109.133 77.6328 109.318 78.0781 109.69C78.5273 110.061 78.752 110.535 78.752 111.113H77.6621C77.6621 110.817 77.5352 110.561 77.2812 110.346C77.0312 110.131 76.7148 110.024 76.332 110.024C75.9375 110.024 75.6289 110.109 75.4062 110.281C75.1836 110.453 75.0723 110.678 75.0723 110.955C75.0723 111.217 75.1758 111.414 75.3828 111.547C75.5898 111.68 75.9629 111.807 76.502 111.928C77.0449 112.049 77.4844 112.193 77.8203 112.361C78.1562 112.529 78.4043 112.733 78.5645 112.971C78.7285 113.205 78.8105 113.492 78.8105 113.832C78.8105 114.399 78.584 114.854 78.1309 115.197C77.6777 115.537 77.0898 115.707 76.3672 115.707C75.8594 115.707 75.4102 115.617 75.0195 115.438C74.6289 115.258 74.3223 115.008 74.0996 114.688C73.8809 114.363 73.7715 114.014 73.7715 113.639H74.8555C74.875 114.002 75.0195 114.291 75.2891 114.506C75.5625 114.717 75.9219 114.822 76.3672 114.822C76.7773 114.822 77.1055 114.74 77.3516 114.576C77.6016 114.408 77.7266 114.186 77.7266 113.908ZM82.4785 112.408H79.6191V111.524H82.4785V112.408ZM87.2305 113.908C87.2305 113.615 87.1191 113.389 86.8965 113.229C86.6777 113.065 86.293 112.924 85.7422 112.807C85.1953 112.69 84.7598 112.549 84.4355 112.385C84.1152 112.221 83.877 112.026 83.7207 111.799C83.5684 111.572 83.4922 111.303 83.4922 110.99C83.4922 110.471 83.7109 110.031 84.1484 109.672C84.5898 109.313 85.1523 109.133 85.8359 109.133C86.5547 109.133 87.1367 109.318 87.582 109.69C88.0312 110.061 88.2559 110.535 88.2559 111.113H87.166C87.166 110.817 87.0391 110.561 86.7852 110.346C86.5352 110.131 86.2188 110.024 85.8359 110.024C85.4414 110.024 85.1328 110.109 84.9102 110.281C84.6875 110.453 84.5762 110.678 84.5762 110.955C84.5762 111.217 84.6797 111.414 84.8867 111.547C85.0938 111.68 85.4668 111.807 86.0059 111.928C86.5488 112.049 86.9883 112.193 87.3242 112.361C87.6602 112.529 87.9082 112.733 88.0684 112.971C88.2324 113.205 88.3145 113.492 88.3145 113.832C88.3145 114.399 88.0879 114.854 87.6348 115.197C87.1816 115.537 86.5938 115.707 85.8711 115.707C85.3633 115.707 84.9141 115.617 84.5234 115.438C84.1328 115.258 83.8262 115.008 83.6035 114.688C83.3848 114.363 83.2754 114.014 83.2754 113.639H84.3594C84.3789 114.002 84.5234 114.291 84.793 114.506C85.0664 114.717 85.4258 114.822 85.8711 114.822C86.2812 114.822 86.6094 114.74 86.8555 114.576C87.1055 114.408 87.2305 114.186 87.2305 113.908ZM92.3574 115.707C91.498 115.707 90.7988 115.426 90.2598 114.863C89.7207 114.297 89.4512 113.541 89.4512 112.596V112.397C89.4512 111.768 89.5703 111.207 89.8086 110.715C90.0508 110.219 90.3867 109.832 90.8164 109.555C91.25 109.274 91.7188 109.133 92.2227 109.133C93.0469 109.133 93.6875 109.404 94.1445 109.947C94.6016 110.49 94.8301 111.268 94.8301 112.279V112.731H90.5352C90.5508 113.356 90.7324 113.861 91.0801 114.248C91.4316 114.631 91.877 114.822 92.416 114.822C92.7988 114.822 93.123 114.744 93.3887 114.588C93.6543 114.432 93.8867 114.225 94.0859 113.967L94.748 114.483C94.2168 115.299 93.4199 115.707 92.3574 115.707ZM92.2227 110.024C91.7852 110.024 91.418 110.184 91.1211 110.504C90.8242 110.82 90.6406 111.266 90.5703 111.84H93.7461V111.758C93.7148 111.207 93.5664 110.781 93.3008 110.481C93.0352 110.176 92.6758 110.024 92.2227 110.024ZM99.1543 110.223C98.9902 110.195 98.8125 110.182 98.6211 110.182C97.9102 110.182 97.4277 110.484 97.1738 111.09V115.59H96.0898V109.25H97.1445L97.1621 109.983C97.5176 109.416 98.0215 109.133 98.6738 109.133C98.8848 109.133 99.0449 109.16 99.1543 109.215V110.223ZM101.334 115.59H100.25V109.25H101.334V115.59ZM100.162 107.568C100.162 107.393 100.215 107.244 100.32 107.123C100.43 107.002 100.59 106.942 100.801 106.942C101.012 106.942 101.172 107.002 101.281 107.123C101.391 107.244 101.445 107.393 101.445 107.568C101.445 107.744 101.391 107.891 101.281 108.008C101.172 108.125 101.012 108.184 100.801 108.184C100.59 108.184 100.43 108.125 100.32 108.008C100.215 107.891 100.162 107.744 100.162 107.568ZM103.607 115.59V110.088H102.605V109.25H103.607V108.6C103.607 107.92 103.789 107.395 104.152 107.024C104.516 106.652 105.029 106.467 105.693 106.467C105.943 106.467 106.191 106.5 106.438 106.567L106.379 107.445C106.195 107.41 106 107.393 105.793 107.393C105.441 107.393 105.17 107.496 104.979 107.703C104.787 107.906 104.691 108.199 104.691 108.582V109.25H106.045V110.088H104.691V115.59H103.607ZM110.756 115.59V110.088H109.754V109.25H110.756V108.6C110.756 107.92 110.938 107.395 111.301 107.024C111.664 106.652 112.178 106.467 112.842 106.467C113.092 106.467 113.34 106.5 113.586 106.567L113.527 107.445C113.344 107.41 113.148 107.393 112.941 107.393C112.59 107.393 112.318 107.496 112.127 107.703C111.936 107.906 111.84 108.199 111.84 108.582V109.25H113.193V110.088H111.84V115.59H110.756ZM114.107 112.361C114.107 111.74 114.229 111.182 114.471 110.686C114.717 110.19 115.057 109.807 115.49 109.537C115.928 109.268 116.426 109.133 116.984 109.133C117.848 109.133 118.545 109.432 119.076 110.029C119.611 110.627 119.879 111.422 119.879 112.414V112.49C119.879 113.108 119.76 113.662 119.521 114.154C119.287 114.643 118.949 115.024 118.508 115.297C118.07 115.57 117.566 115.707 116.996 115.707C116.137 115.707 115.439 115.408 114.904 114.811C114.373 114.213 114.107 113.422 114.107 112.438V112.361ZM115.197 112.49C115.197 113.193 115.359 113.758 115.684 114.184C116.012 114.609 116.449 114.822 116.996 114.822C117.547 114.822 117.984 114.608 118.309 114.178C118.633 113.744 118.795 113.139 118.795 112.361C118.795 111.666 118.629 111.104 118.297 110.674C117.969 110.24 117.531 110.024 116.984 110.024C116.449 110.024 116.018 110.236 115.689 110.662C115.361 111.088 115.197 111.697 115.197 112.49ZM122.264 109.25L122.299 110.047C122.783 109.438 123.416 109.133 124.197 109.133C125.537 109.133 126.213 109.889 126.225 111.401V115.59H125.141V111.395C125.137 110.938 125.031 110.6 124.824 110.381C124.621 110.162 124.303 110.053 123.869 110.053C123.518 110.053 123.209 110.147 122.943 110.334C122.678 110.522 122.471 110.768 122.322 111.072V115.59H121.238V109.25H122.264ZM129.33 107.715V109.25H130.514V110.088H129.33V114.02C129.33 114.274 129.383 114.465 129.488 114.594C129.594 114.719 129.773 114.781 130.027 114.781C130.152 114.781 130.324 114.758 130.543 114.711V115.59C130.258 115.668 129.98 115.707 129.711 115.707C129.227 115.707 128.861 115.561 128.615 115.268C128.369 114.975 128.246 114.559 128.246 114.02V110.088H127.092V109.25H128.246V107.715H129.33Z" fill="black"/>
<rect x="1" y="1.08997" width="169.5" height="144" rx="13.5" stroke="black" stroke-opacity="0.1"/>
</svg>
