<svg width="165" height="146" viewBox="0 0 165 146" fill="none" xmlns="http://www.w3.org/2000/svg">
<g clip-path="url(#clip0_347_13504)">
<rect y="0.589966" width="165" height="145" rx="14" fill="white" fill-opacity="0.6"/>
<path d="M25.7305 75.5861H19.0508V87.09H15.2812V58.6525H24.6953C27.8984 58.6525 30.3594 59.3816 32.0781 60.84C33.8099 62.2983 34.6758 64.4207 34.6758 67.2072C34.6758 68.978 34.194 70.521 33.2305 71.8361C32.2799 73.1512 30.9518 74.1342 29.2461 74.7853L35.9258 86.8556V87.09H31.9023L25.7305 75.5861ZM19.0508 72.5197H24.8125C26.6745 72.5197 28.1523 72.0379 29.2461 71.0743C30.3529 70.1108 30.9062 68.8217 30.9062 67.2072C30.9062 65.4493 30.3789 64.1017 29.3242 63.1642C28.2826 62.2267 26.7721 61.7514 24.793 61.7384H19.0508V72.5197ZM46.1523 87.4806C43.2878 87.4806 40.957 86.5431 39.1602 84.6681C37.3633 82.7801 36.4648 80.2605 36.4648 77.1095V76.4454C36.4648 74.3491 36.862 72.4806 37.6562 70.84C38.4635 69.1863 39.5833 67.8973 41.0156 66.9728C42.4609 66.0353 44.0234 65.5665 45.7031 65.5665C48.4505 65.5665 50.5859 66.4715 52.1094 68.2814C53.6328 70.0913 54.3945 72.6824 54.3945 76.0548V77.5587H40.0781C40.1302 79.642 40.7357 81.3282 41.8945 82.6173C43.0664 83.8934 44.5508 84.5314 46.3477 84.5314C47.6237 84.5314 48.7044 84.271 49.5898 83.7501C50.4753 83.2293 51.25 82.5392 51.9141 81.6798L54.1211 83.3986C52.3503 86.1199 49.694 87.4806 46.1523 87.4806ZM45.7031 68.5353C44.2448 68.5353 43.0208 69.0691 42.0312 70.1368C41.0417 71.1915 40.4297 72.6759 40.1953 74.59H50.7812V74.3165C50.6771 72.4806 50.1823 71.0613 49.2969 70.0587C48.4115 69.0431 47.2135 68.5353 45.7031 68.5353ZM55.7344 76.3478C55.7344 73.0535 56.4961 70.4363 58.0195 68.4962C59.543 66.5431 61.5612 65.5665 64.0742 65.5665C66.6523 65.5665 68.6641 66.478 70.1094 68.3009L70.2852 65.9572H73.5859V86.5822C73.5859 89.3165 72.7721 91.4715 71.1445 93.047C69.5299 94.6225 67.3555 95.4103 64.6211 95.4103C63.0977 95.4103 61.6068 95.0848 60.1484 94.4337C58.6901 93.7827 57.5768 92.8907 56.8086 91.7579L58.6836 89.59C60.2331 91.504 62.1276 92.4611 64.3672 92.4611C66.125 92.4611 67.4922 91.9663 68.4688 90.9767C69.4583 89.9871 69.9531 88.5939 69.9531 86.797V84.9806C68.5078 86.6473 66.5352 87.4806 64.0352 87.4806C61.5612 87.4806 59.556 86.4845 58.0195 84.4923C56.4961 82.5001 55.7344 79.7853 55.7344 76.3478ZM59.3672 76.7579C59.3672 79.1407 59.8555 81.0157 60.832 82.3829C61.8086 83.7371 63.1758 84.4142 64.9336 84.4142C67.2122 84.4142 68.8854 83.379 69.9531 81.3087V71.6603C68.8464 69.642 67.1862 68.6329 64.9727 68.6329C63.2148 68.6329 61.8411 69.3165 60.8516 70.6837C59.862 72.0509 59.3672 74.0756 59.3672 76.7579ZM90.1016 85.0001C88.6953 86.6538 86.6315 87.4806 83.9102 87.4806C81.6576 87.4806 79.9388 86.8295 78.7539 85.5275C77.582 84.2124 76.9896 82.2723 76.9766 79.7072V65.9572H80.5898V79.6095C80.5898 82.8126 81.8919 84.4142 84.4961 84.4142C87.2565 84.4142 89.0924 83.3855 90.0039 81.3282V65.9572H93.6172V87.09H90.1797L90.1016 85.0001ZM101.051 87.09H97.4375V57.09H101.051V87.09ZM117.898 87.09C117.69 86.6733 117.521 85.9311 117.391 84.8634C115.711 86.6082 113.706 87.4806 111.375 87.4806C109.292 87.4806 107.579 86.8947 106.238 85.7228C104.91 84.5379 104.246 83.0405 104.246 81.2306C104.246 79.0301 105.079 77.3243 106.746 76.1134C108.426 74.8894 110.783 74.2775 113.816 74.2775H117.332V72.6173C117.332 71.3543 116.954 70.3517 116.199 69.6095C115.444 68.8543 114.331 68.4767 112.859 68.4767C111.57 68.4767 110.49 68.8022 109.617 69.4532C108.745 70.1043 108.309 70.892 108.309 71.8165H104.676C104.676 70.7618 105.047 69.7462 105.789 68.7697C106.544 67.7801 107.56 66.9988 108.836 66.4259C110.125 65.853 111.538 65.5665 113.074 65.5665C115.509 65.5665 117.417 66.1785 118.797 67.4025C120.177 68.6134 120.893 70.2866 120.945 72.422V82.1486C120.945 84.0887 121.193 85.6316 121.688 86.7775V87.09H117.898ZM111.902 84.3361C113.035 84.3361 114.109 84.0431 115.125 83.4572C116.141 82.8712 116.876 82.1095 117.332 81.172V76.8361H114.5C110.073 76.8361 107.859 78.1316 107.859 80.7228C107.859 81.8556 108.237 82.741 108.992 83.379C109.747 84.017 110.717 84.3361 111.902 84.3361ZM134.824 69.1993C134.277 69.1082 133.685 69.0626 133.047 69.0626C130.677 69.0626 129.069 70.0717 128.223 72.09V87.09H124.609V65.9572H128.125L128.184 68.3986C129.368 66.5105 131.048 65.5665 133.223 65.5665C133.926 65.5665 134.46 65.6577 134.824 65.84V69.1993Z" fill="black"/>
<path opacity="0.07" d="M120.652 114.59V29.2775H144.734C152.156 29.2775 158.719 30.9181 164.422 34.1993C170.125 37.4806 174.52 42.1486 177.605 48.2032C180.73 54.2579 182.312 61.2111 182.352 69.0626V74.5118C182.352 82.5587 180.789 89.6095 177.664 95.6642C174.578 101.719 170.145 106.367 164.363 109.609C158.621 112.852 151.922 114.512 144.266 114.59H120.652ZM131.902 38.5353V105.391H143.738C152.41 105.391 159.148 102.695 163.953 97.3048C168.797 91.9142 171.219 84.2384 171.219 74.2775V69.297C171.219 59.6095 168.934 52.09 164.363 46.7384C159.832 41.3478 153.387 38.6134 145.027 38.5353H131.902Z" fill="black"/>
</g>
<rect x="0.5" y="1.08997" width="164" height="144" rx="13.5" stroke="black" stroke-opacity="0.1"/>
<defs>
<clipPath id="clip0_347_13504">
<rect y="0.589966" width="165" height="145" rx="14" fill="white"/>
</clipPath>
</defs>
</svg>
