<svg width="746" height="301" viewBox="0 0 746 301" fill="none" xmlns="http://www.w3.org/2000/svg">
<g clip-path="url(#clip0_347_13445)">
<rect y="0.589996" width="746" height="300" rx="14" fill="white" fill-opacity="0.6"/>
<rect y="0.589996" width="746" height="300" rx="14" fill="url(#paint0_radial_347_13445)" fill-opacity="0.2"/>
<path d="M32.176 191C18.2867 191 6.56763 189.504 -2.98127 186.511C-12.5302 183.518 -19.7849 179.215 -24.7453 173.603C-29.5818 167.992 -32 161.257 -32 153.401C-32 145.295 -29.6438 138.623 -24.9313 133.385C-20.2189 128.023 -14.2043 124.344 -6.88764 122.349V121.601C-12.8402 119.356 -17.9247 115.926 -22.1411 111.312C-26.2335 106.698 -28.2797 100.899 -28.2797 93.9156C-28.2797 86.5579 -25.8614 80.1978 -21.025 74.8354C-16.0645 69.473 -8.99584 65.3577 0.181023 62.4895C9.35789 59.4965 20.4569 58 33.4781 58C46.1273 58 57.0404 59.4965 66.2172 62.4895C75.3941 65.3577 82.4628 69.473 87.4232 74.8354C92.5077 80.0731 95.0499 86.1214 95.0499 92.9803V97.2827H67.5194V94.8509C67.5194 91.4838 66.1552 88.6779 63.427 86.4332C60.8227 84.0638 57.0404 82.3179 52.0799 81.1955C47.2434 79.9484 41.5389 79.3249 34.9663 79.3249C29.7578 79.3249 24.9834 79.699 20.6429 80.4473C16.4266 81.1955 12.7682 82.3179 9.66792 83.8143C6.69164 85.3108 4.39742 87.1814 2.78527 89.4262C1.17312 91.6709 0.367043 94.2897 0.367043 97.2827C0.367043 101.024 1.42114 104.079 3.52934 106.449C5.63754 108.818 8.4278 110.564 11.9001 111.686C15.3725 112.809 19.0928 113.37 23.0612 113.37H43.3371V133.198H21.201C16.8606 133.198 12.7682 133.759 8.92385 134.882C5.2035 135.88 2.22722 137.625 -0.00499153 140.12C-2.2372 142.614 -3.35331 146.105 -3.35331 150.595C-3.35331 154.835 -1.98918 158.389 0.739079 161.257C3.46733 164.126 7.49771 166.246 12.8302 167.617C18.2867 168.989 25.0454 169.675 33.1061 169.675C41.2909 169.675 47.9255 168.927 53.01 167.43C58.0945 165.809 61.7528 163.502 63.985 160.509C66.3412 157.516 67.5194 154.024 67.5194 150.034V113.37H117V133.198H95.0499V149.286C95.0499 157.89 92.7557 165.373 88.1673 171.733C83.7029 177.968 76.8202 182.769 67.5194 186.136C58.3425 189.379 46.5614 191 32.176 191Z" fill="#AB7EFF"/>
<path d="M185.82 89.5478L274.633 -27.3678H291.517L202.705 89.5478H185.82ZM192.743 31.8558C185.651 31.8558 179.742 30.7213 175.014 28.4522C170.399 26.0696 166.91 22.6092 164.546 18.071C162.182 13.5328 161 7.91677 161 1.2229C161 -5.47095 162.182 -11.087 164.546 -15.6252C166.91 -20.1634 170.399 -23.5671 175.014 -25.8362C179.742 -28.2187 185.651 -29.41 192.743 -29.41C199.834 -29.41 205.688 -28.2187 210.303 -25.8362C215.03 -23.5671 218.52 -20.1634 220.771 -15.6252C223.135 -11.087 224.317 -5.47095 224.317 1.2229C224.317 7.91677 223.135 13.5328 220.771 18.071C218.52 22.6092 215.03 26.0696 210.303 28.4522C205.688 30.7213 199.834 31.8558 192.743 31.8558ZM192.743 19.0921C198.033 19.0921 201.635 17.5605 203.549 14.4972C205.463 11.3204 206.419 7.29276 206.419 2.41419V-0.138552C206.419 -3.42876 206.025 -6.32187 205.237 -8.81787C204.45 -11.3139 203.042 -13.2426 201.016 -14.6041C198.99 -16.079 196.232 -16.8165 192.743 -16.8165C187.452 -16.8165 183.794 -15.2281 181.768 -12.0513C179.854 -8.98806 178.898 -5.01713 178.898 -0.138552V2.41419C178.898 7.29276 179.854 11.3204 181.768 14.4972C183.794 17.5605 187.452 19.0921 192.743 19.0921ZM284.426 91.59C277.447 91.59 271.594 90.4554 266.866 88.1863C262.138 85.8038 258.593 82.3434 256.229 77.8052C253.977 73.267 252.852 67.7077 252.852 61.1273C252.852 54.3199 253.977 48.7039 256.229 44.2792C258.593 39.741 262.138 36.3373 266.866 34.0682C271.594 31.6856 277.447 30.4944 284.426 30.4944C291.517 30.4944 297.371 31.6856 301.986 34.0682C306.714 36.3373 310.203 39.741 312.454 44.2792C314.818 48.7039 316 54.3199 316 61.1273C316 67.7077 314.818 73.3237 312.454 77.9754C310.203 82.5136 306.714 85.9172 301.986 88.1863C297.371 90.4554 291.517 91.59 284.426 91.59ZM284.426 78.9965C289.716 78.9965 293.318 77.4081 295.232 74.2313C297.258 71.0546 298.271 67.0269 298.271 62.1484V59.7658C298.271 56.4756 297.821 53.5825 296.92 51.0865C296.133 48.5905 294.725 46.6617 292.699 45.3003C290.786 43.8253 288.028 43.0879 284.426 43.0879C279.135 43.0879 275.533 44.6763 273.62 47.853C271.706 50.9163 270.749 54.8872 270.749 59.7658V62.1484C270.749 67.0269 271.706 71.0546 273.62 74.2313C275.533 77.4081 279.135 78.9965 284.426 78.9965Z" fill="#3A1D95"/>
<path d="M241.075 230.59C233.288 230.59 226.549 229.546 220.859 227.459C215.168 225.273 210.476 221.993 206.782 217.62C203.088 213.147 200.343 207.631 198.546 201.071C196.849 194.412 196 186.56 196 177.515C196 168.57 196.849 160.768 198.546 154.109C200.343 147.45 203.038 141.934 206.632 137.56C210.326 133.187 215.018 129.957 220.709 127.87C226.399 125.683 233.188 124.59 241.075 124.59C248.862 124.59 255.551 125.683 261.141 127.87C266.832 129.957 271.524 133.187 275.218 137.56C278.912 141.934 281.607 147.45 283.304 154.109C285.101 160.768 286 168.57 286 177.515C286 186.56 285.101 194.412 283.304 201.071C281.607 207.631 278.912 213.147 275.218 217.62C271.624 221.993 266.982 225.273 261.291 227.459C255.701 229.546 248.962 230.59 241.075 230.59ZM241.075 213.892C246.666 213.892 251.008 212.7 254.103 210.314C257.298 207.929 259.544 204.351 260.842 199.58C262.24 194.71 262.938 188.647 262.938 181.392V173.788C262.938 166.433 262.24 160.371 260.842 155.6C259.544 150.73 257.298 147.152 254.103 144.866C251.008 142.48 246.666 141.288 241.075 141.288C235.684 141.288 231.341 142.48 228.047 144.866C224.852 147.152 222.556 150.73 221.158 155.6C219.76 160.371 219.062 166.384 219.062 173.639V181.243C219.062 188.498 219.76 194.561 221.158 199.431C222.556 204.301 224.852 207.929 228.047 210.314C231.341 212.7 235.684 213.892 241.075 213.892Z" fill="#AB7EFF"/>
<path d="M129.532 260.149V225.59H143.302V260.149H129.532ZM129.532 389.59V353.146H143.302V389.59H129.532ZM135.791 364.037C127.863 364.037 120.353 363.339 113.259 361.942C106.305 360.546 100.185 358.452 94.8993 355.659C89.6139 352.727 85.4412 349.166 82.3813 344.977C79.4604 340.648 78 335.691 78 330.106C78 329.408 78 328.779 78 328.221C78.1391 327.662 78.2782 327.174 78.4172 326.755H109.712C109.573 327.034 109.504 327.383 109.504 327.802C109.504 328.081 109.504 328.361 109.504 328.64C109.643 331.991 110.964 334.714 113.468 336.808C115.971 338.903 119.24 340.439 123.273 341.416C127.307 342.254 131.619 342.673 136.209 342.673C140.381 342.673 144.484 342.394 148.518 341.835C152.691 341.137 156.098 339.95 158.741 338.274C161.384 336.599 162.705 334.295 162.705 331.363C162.705 328.011 161.106 325.568 157.906 324.032C154.707 322.356 150.257 321.03 144.554 320.052C138.99 319.075 132.592 317.958 125.36 316.701C119.518 315.724 113.954 314.467 108.669 312.931C103.523 311.395 98.8633 309.44 94.6907 307.066C90.6571 304.553 87.3885 301.411 84.8849 297.641C82.5204 293.731 81.3382 288.914 81.3382 283.189C81.3382 277.045 82.729 271.809 85.5108 267.48C88.2926 263.151 92.1871 259.661 97.1943 257.008C102.201 254.215 108.113 252.19 114.928 250.934C121.743 249.537 129.254 248.839 137.46 248.839C144.832 248.839 151.717 249.467 158.115 250.724C164.513 251.981 170.146 253.936 175.014 256.589C179.883 259.242 183.707 262.523 186.489 266.433C189.271 270.203 190.662 274.671 190.662 279.838C190.662 280.396 190.662 281.025 190.662 281.723C190.662 282.421 190.592 282.979 190.453 283.398H159.367V282.142C159.367 279.489 158.324 277.324 156.237 275.649C154.151 273.833 151.439 272.507 148.101 271.669C144.763 270.692 141.007 270.203 136.835 270.203C134.748 270.203 132.314 270.343 129.532 270.622C126.751 270.901 124.038 271.39 121.396 272.088C118.892 272.786 116.736 273.764 114.928 275.02C113.259 276.277 112.424 277.883 112.424 279.838C112.424 282.63 113.885 284.725 116.806 286.121C119.727 287.518 123.482 288.635 128.072 289.472C132.801 290.31 137.947 291.218 143.511 292.195C149.77 293.173 155.89 294.36 161.871 295.756C167.851 297.013 173.206 298.828 177.935 301.202C182.803 303.436 186.698 306.647 189.619 310.836C192.54 315.025 194 320.541 194 327.383C194 334.225 192.54 340.02 189.619 344.767C186.837 349.515 182.873 353.285 177.727 356.078C172.58 358.87 166.46 360.895 159.367 362.152C152.273 363.409 144.415 364.037 135.791 364.037Z" fill="#DAC7FF"/>
<path d="M47.455 47L51.3174 1.14999L13.3962 27.4L-1 3.25L40.7838 -16L-1 -35.6L13.3962 -59.75L51.3174 -33.5L47.455 -79H75.545L71.6826 -33.5L109.604 -59.75L124 -35.6L81.8651 -16L124 3.25L109.604 27.4L71.6826 1.14999L75.545 47H47.455Z" fill="#DAC7FF"/>
<path d="M325.455 360.59L329.317 314.74L291.396 340.99L277 316.84L318.784 297.59L277 277.99L291.396 253.84L329.317 280.09L325.455 234.59H353.545L349.683 280.09L387.604 253.84L402 277.99L359.865 297.59L402 316.84L387.604 340.99L349.683 314.74L353.545 360.59H325.455Z" fill="#DAC7FF"/>
<path d="M604.017 46.59L604.975 34.9456L595.57 41.6122L592 35.4789L602.362 30.59L592 25.6122L595.57 19.4789L604.975 26.1456L604.017 14.59H610.983L610.025 26.1456L619.43 19.4789L623 25.6122L612.551 30.59L623 35.4789L619.43 41.6122L610.025 34.9456L610.983 46.59H604.017Z" fill="#3A1D95"/>
<path d="M-14.545 348.59L-10.6826 302.74L-48.6038 328.99L-63 304.84L-21.2162 285.59L-63 265.99L-48.6038 241.84L-10.6826 268.09L-14.545 222.59H13.545L9.68261 268.09L47.604 241.84L62 265.99L19.8651 285.59L62 304.84L47.604 328.99L9.68261 302.74L13.545 348.59H-14.545Z" fill="#3A1D95"/>
<path d="M149.752 205.873L140.481 186.179L131.235 205.856L119.656 199.35L132.131 181.631L110.466 183.433L110.621 170.151L132.285 171.983L119.948 154.25L131.396 147.641L140.584 167.191L149.83 147.513L161.409 154.02L148.874 171.965L170.599 169.937L170.444 183.219L148.781 181.387L161.2 199.263L149.752 205.873Z" fill="#AB7EFF"/>
<path d="M463 330.59V311.639H493.712V252.631H463V239.073C467.914 238.764 472.93 237.994 478.049 236.761C483.167 235.426 488.184 233.731 493.097 231.677C498.114 229.623 502.72 227.261 506.918 224.59H516.592V311.639H545V330.59H463Z" fill="#DAC7FF"/>
<path d="M545 256.59V133.59H570.356V205.283L609.837 167.058H640.639L605.412 202.395L642 256.59H612.389L587.204 218.365L570.356 231.956V256.59H545Z" fill="#AB7EFF"/>
<path d="M509.973 100.59C505.417 100.59 501.145 99.7941 497.157 98.2023C493.17 96.6104 489.981 94.2227 487.588 91.0391C485.196 87.8554 484 83.8759 484 79.1004C484 74.4387 485.538 70.4591 488.614 67.1618C491.689 63.8644 495.449 61.4198 499.891 59.828C496.588 58.1225 494.082 55.9053 492.373 53.1765C490.778 50.4476 489.981 47.4346 489.981 44.1372C489.981 39.4755 491.575 35.5528 494.765 32.3691C498.069 29.1855 502.284 27.1957 507.41 26.3998C502.967 23.8984 499.436 20.7716 496.816 17.0194C494.196 13.1536 492.886 8.94664 492.886 4.39858C492.886 -2.4235 494.765 -7.99487 498.524 -12.3155C502.284 -16.6362 507.695 -19.763 514.758 -21.6959C521.821 -23.7425 530.307 -24.7658 540.218 -24.7658C543.978 -24.7658 547.509 -24.5384 550.813 -24.0836C554.23 -23.7425 557.363 -23.2309 560.211 -22.5487C565.337 -25.0501 569.04 -27.7789 571.318 -30.7352C573.596 -33.6914 574.906 -36.2497 575.248 -38.41H599C598.886 -34.2031 597.918 -30.5078 596.095 -27.3241C594.386 -24.2542 591.937 -21.6959 588.747 -19.6493C585.672 -17.7163 581.912 -16.2382 577.469 -15.2149C580.659 -12.8272 583.108 -9.98465 584.817 -6.68731C586.64 -3.38996 587.551 0.305332 587.551 4.39858C587.551 10.8796 585.842 16.2804 582.425 20.601C579.121 24.9217 574.28 28.1622 567.9 30.3225C561.635 32.4828 554.002 33.563 545.003 33.563H525.523C522.333 33.563 519.941 34.1315 518.346 35.2685C516.751 36.2918 515.954 37.7699 515.954 39.7029C515.954 41.5221 516.694 43.0571 518.175 44.3078C519.77 45.4448 522.276 46.0133 525.694 46.0133H571.83C580.374 46.0133 586.925 48.4579 591.481 53.347C596.038 58.2362 598.316 64.4329 598.316 71.9372C598.316 77.6223 596.835 82.5683 593.874 86.7753C590.912 91.0959 586.868 94.4501 581.741 96.8378C576.729 99.3393 571.09 100.59 564.824 100.59H509.973ZM519.2 83.8759H562.432C564.369 83.8759 566.078 83.5348 567.559 82.8526C569.153 82.1703 570.407 81.0902 571.318 79.6121C572.229 78.2477 572.685 76.6558 572.685 74.8366C572.685 71.9941 571.717 69.7769 569.78 68.1851C567.843 66.707 565.565 65.9679 562.945 65.9679H519.542C516.694 65.9679 514.302 66.707 512.365 68.1851C510.543 69.7769 509.632 71.9372 509.632 74.6661C509.632 77.5086 510.543 79.7258 512.365 81.3176C514.188 83.0231 516.466 83.8759 519.2 83.8759ZM540.218 17.3605C547.167 17.3605 552.521 16.3372 556.281 14.2906C560.154 12.244 562.091 8.94664 562.091 4.39858C562.091 -0.149475 560.154 -3.44682 556.281 -5.49344C552.521 -7.54007 547.167 -8.56338 540.218 -8.56338C533.497 -8.56338 528.2 -7.54007 524.327 -5.49344C520.454 -3.44682 518.517 -0.149475 518.517 4.39858C518.517 7.58222 519.371 10.1405 521.08 12.0734C522.789 14.0063 525.238 15.3708 528.428 16.1667C531.731 16.9626 535.662 17.3605 540.218 17.3605Z" fill="#DAC7FF"/>
<path d="M697.723 123.59C682.446 123.59 669.279 121.375 658.223 116.944C647.268 112.613 638.825 105.816 632.895 96.5514C626.965 87.186 624 75.2024 624 60.6005C624 48.6169 626.161 38.446 630.483 30.0877C634.805 21.6286 640.735 14.8312 648.273 9.69539C655.811 4.45885 664.455 0.632156 674.204 -1.7847C683.954 -4.20157 694.256 -5.41 705.111 -5.41C716.066 -5.41 726.218 -4.30228 735.565 -2.08682C744.912 0.128642 753.053 3.55253 759.989 8.18485C766.924 12.7165 772.301 18.6076 776.12 25.8582C780.04 33.008 782 41.6181 782 51.6884C782 58.5361 781.196 64.5279 779.588 69.6638C778.08 74.6989 775.97 78.9788 773.256 82.5033C770.643 85.9272 767.627 88.6966 764.21 90.8113C760.893 92.9261 757.375 94.487 753.657 95.494C749.938 96.4003 746.219 96.8535 742.5 96.8535C737.877 96.8535 734.108 96.2996 731.193 95.1919C728.278 94.0841 726.017 92.7247 724.408 91.1134C722.901 89.5022 721.896 87.9916 721.393 86.5818H720.338C718.328 88.6966 715.915 90.5596 713.101 92.1708C710.387 93.6813 707.322 94.8898 703.905 95.7961C700.487 96.6017 696.768 97.0045 692.748 97.0045C689.532 97.0045 686.366 96.7024 683.25 96.0982C680.235 95.494 677.471 94.4366 674.958 92.9261C672.546 91.4155 670.586 89.3511 669.078 86.7329C667.571 84.1146 666.817 80.7914 666.817 76.7633C666.817 71.2247 668.123 66.7937 670.737 63.4706C673.35 60.0467 677.018 57.4788 681.742 55.7668C686.466 54.0549 692.045 52.8968 698.477 52.2926C704.91 51.6884 711.945 51.3863 719.584 51.3863V47.4589C719.584 44.6392 719.081 42.3734 718.076 40.6614C717.071 38.8488 715.413 37.5396 713.101 36.734C710.789 35.8277 707.674 35.3745 703.754 35.3745C700.739 35.3745 698.025 35.6767 695.613 36.2809C693.301 36.7844 691.492 37.6404 690.185 38.8488C688.879 40.0572 688.175 41.5678 688.074 43.3804V45.042H669.983C669.882 44.7399 669.832 44.3874 669.832 43.9846C669.832 43.4811 669.832 43.0279 669.832 42.6251C669.832 38.3956 671.139 34.72 673.752 31.5982C676.466 28.3757 680.386 25.9085 685.511 24.1966C690.738 22.3839 697.07 21.4776 704.508 21.4776C711.744 21.4776 717.825 22.3336 722.75 24.0455C727.675 25.6567 731.394 28.2247 733.907 31.7493C736.52 35.1731 737.826 39.6544 737.826 45.1931V76.7633C737.826 79.2809 738.429 81.0432 739.636 82.0502C740.942 83.0572 742.952 83.5607 745.666 83.5607C749.787 83.5607 753.506 82.5537 756.823 80.5396C760.139 78.5256 762.803 75.2024 764.813 70.5701C766.823 65.9378 767.828 59.5935 767.828 51.5373C767.828 40.9635 765.165 32.4038 759.838 25.8582C754.511 19.3125 747.123 14.5291 737.676 11.508C728.328 8.48695 717.423 6.97642 704.96 6.97642C691.19 6.97642 679.28 8.94012 669.229 12.8675C659.279 16.6942 651.59 22.5853 646.162 30.5408C640.735 38.4963 638.021 48.5666 638.021 60.7516C638.021 77.5689 642.896 90.2071 652.645 98.6661C662.495 107.024 677.823 111.204 698.628 111.204C701.643 111.204 705.211 111.002 709.332 110.599C713.553 110.197 717.624 109.643 721.544 108.938C725.564 108.233 728.781 107.427 731.193 106.521V119.209C728.278 120.015 724.81 120.77 720.79 121.475C716.77 122.18 712.699 122.684 708.578 122.986C704.457 123.389 700.839 123.59 697.723 123.59ZM697.874 83.2586C700.487 83.2586 703.05 82.9062 705.563 82.2012C708.076 81.4963 710.387 80.4893 712.498 79.1802C714.709 77.871 716.418 76.2598 717.624 74.3464C718.931 72.3324 719.584 70.0666 719.584 67.549V63.3195C712.247 63.3195 705.965 63.672 700.739 64.3769C695.613 64.9811 691.743 66.1392 689.13 67.8511C686.517 69.4624 685.21 71.8289 685.21 74.9507C685.21 76.9647 685.763 78.576 686.868 79.7844C687.974 80.9928 689.482 81.8991 691.391 82.5033C693.301 83.0069 695.462 83.2586 697.874 83.2586Z" fill="#DAC7FF"/>
<path d="M392.248 46.59L332 22.5235V8.65654L392.248 -15.41V-2.1161L345.656 15.5327L392.248 33.1815V46.59Z" fill="#DAC7FF"/>
<path d="M413.752 46.59V33.1815L460.229 15.6473L413.752 -2.1161V-15.41L474 8.65654V22.5235L413.752 46.59Z" fill="#DAC7FF"/>
<path d="M411 70.0269V59.59H463V70.0269H411ZM411 91.59V81.1531H463V91.59H411Z" fill="#DAC7FF"/>
<path d="M658 318.59V309.937L700.3 258.742H660.724V242.59H733.423V250.81L690.693 302.438H735V318.59H658Z" fill="#DAC7FF"/>
<path d="M600.956 331.59C589.455 331.59 580.739 328.939 574.807 323.636C568.936 318.273 566 310.106 566 299.136C566 291.883 567.483 285.849 570.449 281.034C573.415 276.22 577.682 272.624 583.251 270.247C588.88 267.809 595.629 266.59 603.498 266.59C608.401 266.59 612.941 267.078 617.117 268.053C621.294 268.967 624.926 270.399 628.013 272.349C631.16 274.239 633.581 276.646 635.276 279.572C637.032 282.436 637.909 285.849 637.909 289.811H623.291C623.291 287.86 622.777 286.184 621.748 284.783C620.719 283.32 619.296 282.131 617.48 281.217C615.665 280.303 613.607 279.633 611.306 279.206C609.006 278.779 606.585 278.566 604.043 278.566C600.532 278.566 597.354 278.962 594.509 279.755C591.725 280.486 589.334 281.674 587.337 283.32C585.339 284.905 583.826 286.916 582.797 289.354C581.768 291.792 581.253 294.626 581.253 297.856V300.324C581.253 304.834 582.071 308.522 583.705 311.386C585.4 314.19 587.851 316.262 591.059 317.603C594.267 318.943 598.172 319.614 602.772 319.614C607.13 319.614 610.822 319.157 613.849 318.243C616.936 317.267 619.296 315.866 620.931 314.037C622.565 312.209 623.382 310.015 623.382 307.455V306.906H601.591V295.845H638V330.493H628.739L627.286 322.996C625.228 324.947 622.837 326.562 620.113 327.842C617.45 329.122 614.514 330.066 611.306 330.676C608.098 331.285 604.648 331.59 600.956 331.59Z" fill="#3A1D95"/>
<path d="M225.109 294.992L222 248.59H239L235.891 294.992H225.109ZM222.291 317.59V301.922H238.709V317.59H222.291Z" fill="#DAC7FF"/>
<path d="M719.138 197.4V192.478C719.138 189.772 719.675 187.475 720.749 185.589C721.822 183.62 723.226 181.898 724.961 180.421C726.695 178.863 728.553 177.427 730.535 176.115C732.517 174.803 734.334 173.49 735.986 172.178C737.72 170.866 739.124 169.43 740.197 167.872C741.354 166.313 741.932 164.55 741.932 162.581C741.932 161.433 741.684 160.285 741.189 159.136C740.776 157.988 739.991 156.963 738.835 156.061C737.761 155.076 736.275 154.297 734.375 153.723C732.558 153.067 730.205 152.739 727.314 152.739C723.846 152.739 721.038 153.149 718.89 153.969C716.826 154.789 715.257 155.856 714.183 157.168C713.11 158.48 712.366 159.834 711.953 161.228C711.54 162.622 711.334 163.935 711.334 165.165C711.334 165.739 711.334 166.313 711.334 166.888C711.334 167.38 711.375 167.913 711.458 168.487H693.496C693.413 167.995 693.289 167.38 693.124 166.641C693.041 165.903 693 165.042 693 164.058C693 161.269 693.454 158.644 694.363 156.184C695.354 153.641 696.799 151.303 698.698 149.171C700.598 147.038 702.952 145.193 705.759 143.634C708.65 142.076 711.995 140.846 715.794 139.943C719.675 139.041 724.052 138.59 728.925 138.59C733.384 138.59 737.39 139 740.941 139.82C744.575 140.558 747.671 141.666 750.232 143.142C752.874 144.537 755.063 146.177 756.797 148.064C758.531 149.95 759.811 152.042 760.637 154.338C761.546 156.635 762 159.054 762 161.597C762 165.042 761.381 168.036 760.142 170.579C758.986 173.039 757.458 175.172 755.558 176.976C753.659 178.781 751.636 180.421 749.488 181.898C747.424 183.292 745.442 184.604 743.542 185.835C741.643 187.065 740.074 188.377 738.835 189.772C737.679 191.166 737.101 192.724 737.101 194.447V197.4H719.138ZM717.776 224.59V205.397H738.711V224.59H717.776Z" fill="#AB7EFF"/>
<path d="M135.047 69.2947V66.0901C135.047 64.3276 135.397 62.8321 136.097 61.6037C136.797 60.3219 137.713 59.2003 138.844 58.2389C139.975 57.2241 141.187 56.2895 142.479 55.4349C143.772 54.5804 144.957 53.7258 146.034 52.8712C147.165 52.0167 148.081 51.082 148.781 50.0672C149.535 49.0525 149.912 47.9042 149.912 46.6223C149.912 45.8746 149.75 45.1269 149.427 44.3791C149.158 43.6314 148.646 42.9638 147.892 42.3763C147.192 41.7353 146.223 41.2279 144.984 40.8541C143.799 40.4268 142.264 40.2132 140.379 40.2132C138.117 40.2132 136.285 40.4802 134.885 41.0143C133.539 41.5484 132.515 42.2427 131.815 43.0973C131.115 43.9518 130.63 44.8331 130.361 45.7411C130.092 46.649 129.957 47.5036 129.957 48.3047C129.957 48.6786 129.957 49.0525 129.957 49.4263C129.957 49.7468 129.984 50.0939 130.038 50.4678H118.323C118.269 50.1474 118.189 49.7468 118.081 49.2661C118.027 48.7854 118 48.2246 118 47.5837C118 45.7678 118.296 44.0587 118.889 42.4564C119.535 40.8007 120.478 39.2785 121.716 37.8898C122.955 36.5012 124.49 35.2995 126.321 34.2847C128.206 33.2699 130.388 32.4688 132.865 31.8813C135.397 31.2938 138.251 31 141.429 31C144.338 31 146.95 31.267 149.266 31.8011C151.636 32.2818 153.655 33.0029 155.325 33.9642C157.048 34.8722 158.476 35.9404 159.607 37.1688C160.738 38.3972 161.573 39.7592 162.111 41.2547C162.704 42.7501 163 44.3257 163 45.9814C163 48.2246 162.596 50.1741 161.788 51.8298C161.034 53.432 160.038 54.8207 158.799 55.9957C157.56 57.1707 156.241 58.2389 154.84 59.2003C153.494 60.1083 152.201 60.9628 150.962 61.7639C149.724 62.5651 148.7 63.4197 147.892 64.3276C147.138 65.2356 146.761 66.2504 146.761 67.372V69.2947H135.047ZM134.158 87V74.5021H147.811V87H134.158Z" fill="#DAC7FF"/>
<path d="M660.635 138.314V124.59H678V138.314H660.635ZM659.004 231.59C657.761 231.59 656.401 231.512 654.925 231.357C653.526 231.202 652.128 230.97 650.729 230.66C649.331 230.349 648.088 230.001 647 229.613V218.68H653.177C655.585 218.68 657.411 218.021 658.654 216.703C659.975 215.385 660.635 213.602 660.635 211.353V147.502H678V212.051C678 215.928 677.417 219.339 676.252 222.286C675.086 225.232 673.105 227.519 670.308 229.148C667.589 230.776 663.821 231.59 659.004 231.59Z" fill="#AB7EFF"/>
<path d="M617.788 157.59C614.649 157.59 611.754 157.019 609.102 155.878C606.45 154.737 604.231 152.862 602.446 150.253H601.877L600.822 156.612H591V97.59H603.095V118.704H603.663C604.746 117.4 606.044 116.286 607.56 115.362C609.075 114.438 610.752 113.758 612.592 113.324C614.432 112.889 616.353 112.672 618.356 112.672C622.198 112.672 625.58 113.487 628.503 115.117C631.479 116.693 633.806 119.139 635.484 122.454C637.161 125.769 638 129.981 638 135.09C638 140.199 637.161 144.438 635.484 147.807C633.806 151.123 631.452 153.595 628.421 155.226C625.445 156.802 621.9 157.59 617.788 157.59ZM614.378 147.807C616.868 147.807 618.951 147.345 620.629 146.422C622.306 145.498 623.551 144.166 624.363 142.427C625.174 140.633 625.58 138.46 625.58 135.905V134.438C625.58 131.883 625.174 129.737 624.363 127.998C623.551 126.204 622.306 124.845 620.629 123.922C619.005 122.998 616.949 122.536 614.459 122.536C612.565 122.536 610.915 122.807 609.508 123.351C608.101 123.894 606.91 124.71 605.936 125.797C604.962 126.829 604.231 128.106 603.744 129.628C603.311 131.095 603.095 132.807 603.095 134.764V135.661C603.095 138.215 603.501 140.389 604.313 142.182C605.178 143.976 606.45 145.362 608.128 146.34C609.805 147.318 611.889 147.807 614.378 147.807Z" fill="#AB7EFF"/>
<path d="M351.119 220.59C342.829 220.59 335.589 218.975 329.399 215.744C323.209 212.401 318.401 207.332 314.974 200.536C311.658 193.628 310 184.938 310 174.465C310 163.992 311.658 155.358 314.974 148.561C318.401 141.765 323.098 136.752 329.067 133.521C335.147 130.178 342.166 128.507 350.124 128.507C354.214 128.507 358.138 128.953 361.896 129.844C365.655 130.735 369.081 132.128 372.176 134.022C375.271 135.916 377.869 138.2 379.969 140.874H381.13V97.59H406V218.585H385.772L383.782 205.549H382.456C378.808 210.897 374.276 214.741 368.86 217.08C363.444 219.42 357.53 220.59 351.119 220.59ZM358.249 200.536C363.333 200.536 367.534 199.533 370.85 197.527C374.276 195.522 376.874 192.681 378.642 189.004C380.411 185.328 381.295 180.871 381.295 175.635V173.797C381.295 169.786 380.798 166.276 379.803 163.268C378.808 160.148 377.316 157.53 375.326 155.413C373.337 153.185 370.905 151.514 368.031 150.4C365.157 149.286 361.841 148.729 358.083 148.729C352.998 148.729 348.743 149.676 345.316 151.57C341.889 153.464 339.347 156.249 337.689 159.926C336.031 163.491 335.202 167.892 335.202 173.128V176.136C335.202 181.373 336.031 185.829 337.689 189.506C339.458 193.071 342 195.801 345.316 197.695C348.743 199.589 353.054 200.536 358.249 200.536Z" fill="#7C52FF"/>
<path d="M415 249.59V131.579H435.062L437.218 144.507H438.544C442.192 139.203 446.668 135.391 451.974 133.071C457.39 130.75 463.304 129.59 469.715 129.59C478.116 129.59 485.356 131.247 491.435 134.562C497.625 137.767 502.434 142.794 505.86 149.645C509.287 156.386 511 164.949 511 175.336C511 185.612 509.287 194.176 505.86 201.026C502.434 207.767 497.681 212.794 491.601 216.109C485.632 219.314 478.724 220.916 470.876 220.916C466.786 220.916 462.862 220.474 459.104 219.59C455.345 218.706 451.919 217.38 448.824 215.612C445.729 213.734 443.076 211.413 440.865 208.651H439.705V249.59H415ZM462.917 201.026C468.002 201.026 472.202 200.087 475.518 198.209C478.945 196.22 481.487 193.457 483.145 189.921C484.803 186.275 485.632 181.91 485.632 176.828V173.844C485.632 168.54 484.803 164.12 483.145 160.584C481.487 156.938 478.945 154.231 475.518 152.463C472.092 150.584 467.836 149.645 462.751 149.645C457.667 149.645 453.411 150.64 449.984 152.629C446.558 154.507 443.96 157.325 442.192 161.082C440.534 164.728 439.705 169.148 439.705 174.341V176.165C439.705 180.032 440.147 183.513 441.031 186.607C442.026 189.59 443.518 192.187 445.508 194.397C447.497 196.496 449.929 198.154 452.803 199.369C455.677 200.474 459.048 201.026 462.917 201.026Z" fill="#7C52FF"/>
</g>
<rect x="0.25" y="0.839996" width="745.5" height="299.5" rx="13.75" stroke="black" stroke-opacity="0.1" stroke-width="0.5"/>
<defs>
<radialGradient id="paint0_radial_347_13445" cx="0" cy="0" r="1" gradientUnits="userSpaceOnUse" gradientTransform="translate(-7.6808e-06 0.988048) rotate(21.9066) scale(804.058 599.926)">
<stop stop-color="#AB7EFF"/>
<stop offset="0.85474" stop-color="#6EBFF4" stop-opacity="0.7"/>
<stop offset="1" stop-color="#4690D5" stop-opacity="0.5"/>
</radialGradient>
<clipPath id="clip0_347_13445">
<rect y="0.589996" width="746" height="300" rx="14" fill="white"/>
</clipPath>
</defs>
</svg>
